<svg width="352" height="382" viewBox="0 0 352 382" fill="none" xmlns="http://www.w3.org/2000/svg">
<ellipse cx="223.137" cy="159.5" rx="128.5" ry="159.5" fill="#F5EBDE"/>
<path d="M168.855 155.648C166.566 160.364 163.031 169.453 164.136 180.819C164.537 184.953 165.469 188.524 166.496 191.438C112.52 267.289 77.2375 312.136 56.4755 337.496C40.1066 357.491 17.1383 384.459 11.9586 381.144C11.0501 380.562 10.7158 379.067 10.9636 376.66C9.39038 378.469 6.91656 378.32 5.98445 377.16C5.24112 376.235 5.34731 374.489 6.48393 373.175C3.74661 374.344 1.91779 374.509 1.00535 373.675C-6.07788 367.217 41.613 300.703 144.078 174.133C152.337 167.97 160.596 161.811 168.855 155.648Z" fill="#3F3F3F"/>
<path d="M168.6 155.499C164.018 164.981 162.406 175.765 164.671 186.109C164.954 187.403 165.297 188.685 165.69 189.951C165.961 190.824 166.209 191.19 165.717 192.024C165.269 192.783 164.671 193.495 164.16 194.211C162.119 197.074 160.078 199.933 158.033 202.788C154.123 208.243 150.206 213.691 146.273 219.126C133.023 237.442 119.627 255.647 106.015 273.695C95.8724 287.146 85.6074 300.51 75.1772 313.737C66.7607 324.411 58.242 335.006 49.5305 345.444C42.5731 353.778 35.5174 362.072 27.9072 369.82C25.107 372.672 22.228 375.496 19.0738 377.954C17.9372 378.839 16.7495 379.696 15.4634 380.361C14.6768 380.766 13.7093 381.222 12.7968 381.12C10.8618 380.899 11.1332 378.021 11.2591 376.66C11.2827 376.404 10.9208 376.274 10.7556 376.451C9.81961 377.446 8.34475 378.107 6.99969 377.525C5.2456 376.77 5.72542 374.603 6.69292 373.384C6.85024 373.187 6.71258 372.762 6.40581 372.892C4.80511 373.557 1.28513 374.89 0.706983 372.546C0.537866 371.862 0.616525 371.075 0.742379 370.359C1.2104 367.724 2.39421 365.199 3.5505 362.808C5.46977 358.851 7.69582 355.04 9.98479 351.284C13.1862 346.038 16.5685 340.898 20.0217 335.812C24.4423 329.299 28.9888 322.869 33.5942 316.486C39.2537 308.64 45.0116 300.864 50.8205 293.132C57.7464 283.913 64.751 274.749 71.8028 265.629C79.9007 255.156 88.0615 244.729 96.2657 234.338C105.571 222.551 114.931 210.808 124.331 199.095C129.424 192.748 134.529 186.412 139.646 180.08C141.003 178.4 142.328 176.689 143.721 175.041C145.113 173.394 147.166 172.194 148.896 170.904C152.247 168.403 155.598 165.905 158.953 163.404C162.304 160.903 165.655 158.405 169.009 155.904C169.308 155.68 169.017 155.168 168.71 155.393C161.769 160.572 154.827 165.752 147.882 170.932C146.265 172.139 144.436 173.224 143.162 174.802C141.805 176.481 140.448 178.156 139.091 179.836C136.476 183.069 133.869 186.305 131.257 189.546C121.405 201.778 111.596 214.041 101.839 226.347C93.1901 237.253 84.5888 248.198 76.0503 259.191C68.7233 268.626 61.4434 278.092 54.2383 287.622C48.0911 295.751 41.995 303.924 35.9973 312.167C31.0772 318.928 26.22 325.732 21.4886 332.623C17.7917 338.007 14.1616 343.442 10.7085 348.988C8.21497 352.991 5.79228 357.054 3.66062 361.262C2.33915 363.874 1.01375 366.599 0.325489 369.463C0.0108532 370.784 -0.358843 372.715 0.718783 373.812C2.1897 375.315 5.00569 374.107 6.5592 373.462L6.2721 372.971C5.21807 374.3 4.57306 376.617 6.22883 377.785C7.8846 378.953 9.94939 378.17 11.1686 376.872L10.6652 376.664C10.5275 378.17 10.3309 380.711 12.0142 381.513C12.6789 381.832 13.4576 381.737 14.1419 381.541C16.6511 380.833 18.8732 378.921 20.8318 377.285C28.332 371.008 34.8449 363.465 41.2399 356.102C51.4891 344.303 61.3175 332.131 71.0437 319.896C81.0766 307.279 90.9444 294.528 100.698 281.691C114.027 264.146 127.143 246.44 140.106 228.624C148.003 217.773 155.842 206.883 163.637 195.957C164.156 195.233 164.671 194.506 165.187 193.782C165.446 193.416 165.706 193.05 165.965 192.689C166.142 192.441 166.701 191.882 166.748 191.591C166.811 191.202 166.587 190.817 166.461 190.439C166.209 189.672 165.977 188.897 165.765 188.119C164.895 184.917 164.384 181.621 164.254 178.306C164.022 172.56 164.935 166.802 166.807 161.371C167.46 159.471 168.235 157.615 169.108 155.802C169.273 155.459 168.762 155.16 168.596 155.503L168.6 155.499Z" fill="black"/>
<path d="M265.17 222.265C266.354 222.076 267.255 222.249 267.75 222.383C268.694 222.638 269.371 223.079 270.13 223.574C271.011 224.148 271.672 224.73 272.116 225.163C272.033 224.868 271.046 221.564 267.75 220.4C267.75 220.4 264.927 219.405 262.276 220.754C262.24 220.77 262.213 220.786 262.197 220.798C261.867 220.967 261.587 221.152 261.359 221.317" fill="black"/>
<path d="M265.249 222.548C267.841 222.166 270.11 223.633 271.907 225.368C272.116 225.568 272.481 225.368 272.399 225.081C272.041 223.822 271.298 222.623 270.373 221.706C269.052 220.404 267.365 219.787 265.532 219.752C263.982 219.72 262.468 220.153 261.206 221.061C260.899 221.282 261.194 221.793 261.505 221.573C263.55 220.102 266.535 219.885 268.729 221.183C270.204 222.052 271.36 223.594 271.828 225.242L272.32 224.955C271.317 223.987 270.141 223.099 268.879 222.497C267.616 221.895 266.393 221.789 265.087 221.982C264.714 222.037 264.871 222.607 265.245 222.552L265.249 222.548Z" fill="black"/>
<path d="M249.866 227.872C250.877 227.597 251.978 227.439 253.068 227.935C254.358 228.529 255.058 229.772 255.447 230.712C255.581 229.52 255.714 228.332 255.844 227.141C257.429 226.279 259.75 225.324 262.581 225.174C262.845 225.158 263.112 225.154 263.384 225.154C264.619 225.158 266.086 225.186 267.749 225.953C270.207 227.089 271.482 229.119 272.02 230.13L272.115 230.318C272.087 230.263 272.056 230.2 272.02 230.134C269.696 225.477 267.242 223.298 265.169 222.264C264.701 222.024 264.249 221.851 263.824 221.717C263.675 221.67 263.525 221.627 263.384 221.591C262.672 221.41 262.003 221.324 261.358 221.316H261.354C257.819 221.249 255.093 223.255 251.077 221.591C250.358 221.292 249.894 220.97 249.61 220.789C244.533 217.56 238.099 215.534 234.02 213.847C230.516 212.4 225.718 209.946 220.298 205.568L212.609 206.379C217.931 209.265 223.35 212.345 228.852 215.633C231.279 217.084 233.658 218.539 235.999 219.998C234.748 219.77 230.595 219.172 226.473 221.587C224.2 222.917 222.823 224.643 222.092 225.74L222.992 225.933C227.24 224.643 230.654 224.435 233.375 224.73H233.379" fill="black"/>
<path d="M249.945 228.155C251.164 227.837 252.419 227.762 253.497 228.521C254.275 229.072 254.798 229.921 255.164 230.791C255.294 231.101 255.703 231.054 255.742 230.712C255.876 229.52 256.01 228.332 256.14 227.141L255.994 227.396C258.853 225.855 262.24 225.064 265.484 225.575C268.32 226.024 270.589 227.947 271.86 230.464C272.033 230.802 272.54 230.503 272.371 230.165C270.369 226.181 267.349 221.855 262.594 221.119C260.045 220.726 257.685 221.701 255.18 221.914C253.741 222.036 252.309 221.819 250.991 221.226C249.839 220.706 248.801 219.916 247.692 219.314C243.129 216.829 238.166 215.326 233.419 213.269C231.291 212.349 229.23 211.279 227.244 210.084C226.037 209.356 224.861 208.585 223.713 207.775C223.068 207.319 222.434 206.855 221.809 206.375C221.475 206.119 221.144 205.864 220.818 205.6C220.657 205.474 220.507 205.293 220.299 205.27C219.976 205.23 219.567 205.348 219.249 205.38L216.999 205.616C215.626 205.761 214.254 205.907 212.877 206.048L212.618 206.076C212.35 206.103 212.189 206.473 212.468 206.627C218.651 209.981 224.751 213.478 230.768 217.12C232.471 218.15 234.166 219.196 235.857 220.246L236.086 219.707C233.671 219.271 231.138 219.409 228.81 220.199C225.95 221.167 223.528 223.09 221.848 225.583C221.746 225.737 221.848 225.977 222.025 226.016C222.273 226.071 222.521 226.126 222.769 226.177C223.138 226.252 223.461 226.095 223.823 225.996C225.038 225.654 226.269 225.379 227.516 225.186C228.582 225.021 229.655 224.926 230.733 224.903C231.622 224.887 232.507 225.017 233.391 225.017C233.773 225.017 233.773 224.427 233.391 224.427C232.53 224.427 231.669 224.297 230.804 224.313C229.785 224.329 228.77 224.419 227.76 224.557C226.595 224.718 225.439 224.958 224.302 225.253C223.87 225.367 223.335 225.623 222.926 225.607C222.686 225.599 222.419 225.497 222.183 225.446L222.36 225.878C223.984 223.467 226.359 221.611 229.132 220.71C231.311 220.002 233.679 219.865 235.932 220.274C236.251 220.333 236.455 219.92 236.16 219.735C230.17 215.999 224.094 212.404 217.935 208.955C216.22 207.995 214.502 207.047 212.775 206.111L212.626 206.662C215.06 206.406 217.495 206.147 219.929 205.891C220.027 205.879 220.204 205.824 220.299 205.852C220.338 205.864 220.248 205.883 220.255 205.887C220.413 205.958 220.57 206.139 220.708 206.249C220.999 206.481 221.294 206.709 221.593 206.933C222.784 207.842 224.007 208.707 225.262 209.521C227.319 210.858 229.462 212.07 231.681 213.116C236.109 215.204 240.829 216.597 245.245 218.716C246.524 219.33 247.778 219.991 248.986 220.73C250.071 221.395 251.102 222.004 252.36 222.307C254.861 222.905 257.202 222.067 259.664 221.717C262.126 221.367 264.407 221.918 266.381 223.33C268.249 224.659 269.673 226.555 270.821 228.517C271.195 229.154 271.537 229.807 271.871 230.468L272.383 230.169C271.207 227.837 269.173 225.941 266.629 225.221C265.111 224.793 263.427 224.777 261.866 224.938C260.305 225.1 258.661 225.536 257.158 226.185C256.812 226.334 256.474 226.492 256.14 226.665C255.77 226.854 255.593 226.905 255.542 227.333C255.412 228.462 255.29 229.587 255.164 230.716L255.742 230.637C255.314 229.618 254.724 228.659 253.803 228.014C252.596 227.168 251.161 227.227 249.8 227.585C249.434 227.683 249.587 228.25 249.957 228.155H249.945Z" fill="black"/>
<path d="M166.496 191.439C185.905 205.039 203.056 206.348 210.544 206.384C248.824 206.557 277.33 174.46 289.203 150.143C292.7 142.981 294.705 136.59 295.889 132.051C295.791 127.772 294.717 99.4077 273.472 84.4625C248.328 66.7722 213.451 80.9032 195.206 96.6546C170.208 118.239 168.647 149.549 168.462 156.042C166.818 159.578 164.694 165.269 164.136 172.56C163.499 180.879 165.19 187.549 166.496 191.439Z" fill="#FDFDFD"/>
<path d="M166.346 191.694C173.606 196.768 181.566 200.846 190.042 203.461C195.65 205.192 201.463 206.277 207.327 206.588C213.962 206.942 220.648 206.293 227.102 204.72C234.311 202.966 241.217 200.056 247.62 196.319C253.913 192.65 259.734 188.186 265.043 183.203C270.352 178.22 274.718 173.213 278.848 167.632C282.596 162.567 285.966 157.206 288.818 151.582C290.78 147.704 292.483 143.697 293.911 139.591C294.54 137.777 295.118 135.949 295.637 134.104C295.889 133.211 296.196 132.362 296.164 131.434C296.046 127.961 295.649 124.496 295.04 121.074C294.045 115.486 292.444 109.995 290.127 104.812C287.347 98.5896 283.481 92.8278 278.49 88.1673C272.87 82.9168 265.952 79.1845 258.479 77.3714C251.006 75.5583 243.286 75.6173 235.778 76.9073C228.183 78.2091 220.821 80.7576 213.899 84.1242C207.516 87.2313 201.447 91.058 195.988 95.6045C189.959 100.627 184.783 106.632 180.662 113.307C177.071 119.12 174.275 125.416 172.241 131.933C170.652 137.018 169.528 142.245 168.843 147.527C168.607 149.356 168.426 151.193 168.304 153.033C168.261 153.69 168.226 154.343 168.198 155C168.186 155.259 168.198 155.523 168.171 155.778C168.124 156.27 167.817 156.742 167.62 157.202C164.289 164.962 163.03 173.551 164.045 181.936C164.442 185.197 165.166 188.41 166.204 191.521C166.322 191.879 166.893 191.726 166.775 191.364C164.206 183.683 163.601 175.392 165.103 167.428C165.791 163.782 166.904 160.215 168.422 156.825C168.599 156.427 168.749 156.132 168.761 155.704C168.769 155.448 168.776 155.192 168.788 154.937C168.816 154.276 168.851 153.611 168.894 152.951C169.174 148.739 169.768 144.546 170.637 140.416C171.895 134.438 173.74 128.578 176.218 122.994C179.195 116.284 183.092 109.975 187.879 104.406C192.7 98.7981 198.391 94.0235 204.602 90.0237C210.859 85.9924 217.616 82.6966 224.679 80.3329C231.743 77.9692 239.569 76.4471 247.239 76.5651C254.904 76.6831 262.526 78.4647 269.259 82.1853C275.992 85.9059 281.085 90.8771 285.144 96.9692C288.617 102.184 291.111 108.001 292.81 114.019C294.068 118.482 294.91 123.068 295.327 127.685C295.445 128.972 295.527 130.258 295.567 131.548C295.602 132.61 295.134 133.699 294.839 134.71C294.308 136.539 293.722 138.348 293.081 140.141C290.635 147.008 287.382 153.549 283.516 159.727C280 165.343 276.008 170.665 271.603 175.608C266.888 180.902 261.684 185.783 256.005 190.034C250.153 194.42 243.789 198.152 237.005 200.897C230.032 203.717 222.638 205.483 215.126 205.959C209.884 206.289 204.617 206.002 199.442 205.113C192.193 203.871 185.153 201.503 178.554 198.262C174.401 196.221 170.424 193.838 166.633 191.187C166.322 190.97 166.027 191.482 166.334 191.698L166.346 191.694Z" fill="black"/>
<path d="M301.741 94.8441C305.957 110.772 298.599 124.97 295.767 133.682C294.001 139.113 292.137 143.384 290.906 146.023C279.87 143.884 273.853 138.999 271.367 136.171C263.261 126.949 259.226 110.139 259.419 96.3386C259.466 93.1018 259.718 91.8747 259.289 90.9347C259.143 90.6162 258.923 90.3644 258.923 90.3644C258.298 89.629 257.405 89.4323 256.929 89.3694C243.659 99.5243 223.971 114.501 199.917 132.435C143.342 174.624 103.482 204.247 100.835 201.148C99.9262 200.086 103.041 194.784 122.745 174.758C119.15 177.444 117.078 178.521 116.519 177.994C114.576 176.158 131.169 154.719 166.302 113.687C168.08 111.606 169.913 109.475 171.789 107.292C191.937 82.9233 216.042 72.9101 226.996 69.1423C227.188 69.0794 227.373 69.0164 227.554 68.9535C243.069 42.9686 268.012 30.6899 286.556 36.8371C290.253 38.0642 297.847 41.3993 304.73 51.5267V51.5424L305.328 53.7842C305.851 57.7171 306.378 61.65 306.901 65.583C305.513 67.3607 303.613 70.1688 302.241 73.9326C298.909 83.0806 300.856 91.5011 301.741 94.8441Z" fill="#3F3F3F"/>
<path d="M301.458 94.9234C303.424 102.502 302.878 110.309 300.876 117.817C299.303 123.709 296.947 129.36 294.976 135.122C293.726 138.78 292.282 142.37 290.65 145.875L290.984 145.741C285.364 144.628 279.823 142.634 275.178 139.212C271.473 136.483 268.807 132.723 266.714 128.66C263.831 123.06 262.03 116.909 260.921 110.726C260.355 107.564 259.981 104.366 259.808 101.161C259.651 98.2586 259.843 95.3797 259.824 92.4811C259.82 91.6906 259.725 90.9433 259.234 90.2944C258.809 89.7359 257.657 88.906 256.882 89.083C256.516 89.1656 256.056 89.6651 255.761 89.8932C255.289 90.255 254.817 90.6169 254.341 90.9787C253.385 91.7102 252.43 92.4378 251.474 93.1693C247.128 96.4887 242.774 99.8003 238.417 103.108C227.456 111.426 216.463 119.705 205.443 127.944C193.337 136.994 181.22 146.02 169.079 155.023C159.105 162.417 149.111 169.791 139.043 177.059C131.685 182.372 124.295 187.654 116.735 192.677C112.535 195.469 108.217 198.549 103.536 200.503C102.919 200.763 101.582 201.349 101.078 200.991C100.992 200.932 100.964 200.739 101.012 200.484C101.102 199.976 101.373 199.496 101.621 199.056C102.797 196.964 104.39 195.084 105.928 193.251C109.035 189.546 112.334 186.006 115.662 182.506C118.069 179.973 120.503 177.468 122.949 174.978C123.174 174.75 122.871 174.31 122.592 174.514C121.349 175.439 120.086 176.363 118.733 177.122C118.289 177.374 117.243 178.089 116.708 177.783C116.637 177.743 116.653 177.433 116.708 177.169C116.983 175.895 117.821 174.668 118.49 173.574C121.718 168.312 125.608 163.42 129.411 158.57C136.093 150.044 143.007 141.698 149.969 133.399C154.574 127.909 159.211 122.442 163.864 116.991C168.753 111.269 173.5 105.365 178.758 99.9773C187.206 91.3248 196.94 83.9623 207.527 78.1219C211.476 75.9431 215.539 73.9766 219.696 72.2382C221.308 71.5657 222.937 70.9246 224.577 70.3229C225.269 70.0673 225.965 69.8195 226.665 69.5756C226.995 69.4616 227.491 69.3987 227.754 69.1745C228.242 68.7537 228.62 67.7665 228.97 67.2119C235.373 57.0689 243.923 48.0192 254.388 42.0333C262.718 37.2705 272.625 34.364 282.245 36.067C286.025 36.7356 289.612 38.1318 292.864 40.1651C295.181 41.6164 297.309 43.3547 299.232 45.2937C300.392 46.4617 301.477 47.7006 302.496 48.9906C303.267 49.9699 304.258 50.9768 304.581 52.1842C305.375 55.1653 305.615 58.2684 306.024 61.3204C306.15 62.2682 306.276 63.22 306.405 64.1678C306.453 64.5139 306.673 65.2022 306.547 65.5601C306.476 65.7646 306.209 66.0045 306.075 66.1854C305.249 67.3103 304.494 68.4901 303.825 69.7133C300.624 75.5694 299.546 82.338 300.298 88.9375C300.53 90.963 300.927 92.9609 301.446 94.9352C301.544 95.301 302.111 95.1476 302.016 94.7779C300.526 89.1263 300.14 83.1836 301.489 77.4573C302.323 73.9176 303.802 70.5628 305.831 67.5502C306.162 67.0586 306.512 66.5748 306.87 66.0989C307.373 65.4382 307.074 64.7657 306.968 63.9673C306.696 61.9339 306.425 59.9006 306.154 57.8633C305.957 56.3885 305.863 54.8507 305.517 53.4034C305.375 52.8016 305.194 51.8617 304.99 51.4251C304.62 50.6425 303.936 49.9031 303.409 49.2148C302.921 48.5737 302.417 47.9484 301.898 47.3349C300.844 46.092 299.723 44.9082 298.532 43.7991C295.318 40.8101 291.582 38.3678 287.453 36.8536C278.788 33.6797 269.157 34.8635 260.756 38.2734C250.042 42.6153 240.91 50.375 233.788 59.3775C231.805 61.8828 229.965 64.4982 228.27 67.2041C227.845 67.8845 227.562 68.6435 226.771 68.9149C226.425 69.0329 226.083 69.1548 225.741 69.2767C224.986 69.5442 224.231 69.8234 223.479 70.1066C219.68 71.5421 215.948 73.1664 212.306 74.9638C201.95 80.0727 192.299 86.6131 183.741 94.361C178.254 99.3323 173.468 104.878 168.654 110.486C163.612 116.362 158.59 122.253 153.599 128.169C145.969 137.21 138.386 146.299 131.028 155.569C126.76 160.946 122.442 166.357 118.706 172.119C118.324 172.705 114.38 178.443 116.96 178.432C117.632 178.432 118.352 178.007 118.922 177.692C120.314 176.925 121.608 175.973 122.883 175.026L122.525 174.562C118.049 179.112 113.609 183.702 109.334 188.445C107.001 191.033 104.677 193.66 102.616 196.472C102.128 197.137 98.7658 201.486 101.365 201.675C102.502 201.758 103.769 201.066 104.756 200.598C106.824 199.61 108.803 198.427 110.753 197.223C117.373 193.149 123.744 188.669 130.088 184.182C139.413 177.586 148.632 170.841 157.827 164.068C169.492 155.479 181.11 146.823 192.724 138.166C204.794 129.168 216.852 120.153 228.864 111.08C237.949 104.217 247.014 97.3265 256.056 90.4084C256.485 90.082 256.791 89.6926 257.322 89.7595C258.097 89.8539 258.844 90.5461 259.088 91.2658C259.403 92.1861 259.21 93.3227 259.175 94.2706C259.049 97.4209 259.12 100.575 259.391 103.717C259.934 109.943 261.173 116.15 263.245 122.049C265.078 127.26 267.583 132.463 271.324 136.585C274.136 139.684 277.872 141.938 281.691 143.566C284.625 144.817 287.693 145.698 290.819 146.319C290.937 146.343 291.095 146.307 291.154 146.185C293.875 140.341 295.81 134.225 298.056 128.192C300.471 121.703 302.634 115.088 303.173 108.142C303.523 103.651 303.149 99.1396 302.016 94.774C301.922 94.4082 301.352 94.5616 301.446 94.9313L301.458 94.9234Z" fill="black"/>
<path d="M122.702 175.219C132.051 167.494 141.395 159.77 150.744 152.046C160.042 144.361 169.339 136.68 178.636 128.995C183.891 124.653 189.145 120.311 194.4 115.969C194.691 115.725 194.274 115.312 193.983 115.552C184.634 123.276 175.29 131 165.941 138.725C156.643 146.41 147.346 154.091 138.049 161.776C132.794 166.118 127.54 170.46 122.285 174.802C121.994 175.045 122.411 175.458 122.702 175.219Z" fill="black"/>
<path d="M101.296 201.109C108.557 195.016 115.813 188.924 123.073 182.832C130.333 176.74 137.59 170.648 144.85 164.556C152.11 158.464 159.366 152.371 166.626 146.279C173.887 140.187 181.143 134.095 188.403 128.003C195.632 121.934 202.865 115.866 210.093 109.797C211.006 109.034 211.914 108.267 212.827 107.505C213.118 107.261 212.697 106.844 212.41 107.088C205.15 113.18 197.893 119.272 190.633 125.364C183.373 131.456 176.117 137.548 168.856 143.64C161.596 149.732 154.34 155.825 147.08 161.917C139.82 168.009 132.563 174.101 125.303 180.193C118.043 186.285 110.842 192.33 103.613 198.399C102.7 199.162 101.792 199.929 100.879 200.692C100.588 200.935 101.009 201.352 101.296 201.109Z" fill="black"/>
<path d="M202.66 198.762C203.651 200.332 206.431 204.733 207.423 206.302C211.265 212.386 215.1 218.47 218.93 224.559C219.623 224.913 220.712 225.404 222.104 225.75C226.482 226.836 229.313 225.357 234.406 224.559C238.686 223.89 241.934 223.379 245.124 224.559C246.917 225.223 250.661 227.15 253.458 233.687C252.754 232.743 251.483 231.292 249.489 230.116C248.683 229.64 245.08 227.52 240.955 228.33C238.312 228.849 237.6 230.155 234.603 230.316C233.093 230.399 231.842 230.143 231.032 229.919C231.445 230.714 232.436 232.896 231.826 235.476C231.638 236.279 231.335 236.943 231.032 237.463C230.961 236.279 230.654 234.371 229.246 233.294C228.676 232.857 227.972 232.531 224.086 232.499C219.882 232.464 219.021 232.582 217.735 232.102C215.985 231.449 214.832 230.21 214.164 229.325C213.157 229.53 211.407 229.88 209.204 230.316C206.058 230.942 205.476 231.052 204.642 231.308C203.222 231.744 201.185 232.57 198.888 234.285C199.643 232.987 201.386 230.411 204.642 228.531C206.998 227.17 209.216 226.718 210.596 226.545C206.097 216.756 201.602 206.967 197.103 197.178C197.547 197.036 198.798 196.706 200.276 197.178C201.57 197.59 202.349 198.401 202.656 198.766L202.66 198.762Z" fill="black"/>
<path d="M202.407 198.912C207.697 207.285 212.983 215.662 218.261 224.043C218.41 224.283 218.556 224.641 218.784 224.814C218.957 224.944 219.209 225.026 219.405 225.113C219.925 225.349 220.46 225.561 221.002 225.738C222.151 226.112 223.342 226.352 224.55 226.411C226.764 226.525 228.927 225.986 231.075 225.506C233.757 224.908 236.502 224.424 239.243 224.212C241.332 224.051 243.444 224.169 245.398 224.975C249.19 226.544 251.64 230.198 253.209 233.832L253.72 233.533C252.021 231.276 249.701 229.588 247.05 228.621C245.335 227.996 243.475 227.701 241.658 227.921C240.793 228.023 239.951 228.239 239.145 228.574C238.484 228.845 237.855 229.187 237.194 229.455C235.271 230.23 233.104 230.167 231.122 229.632C230.862 229.561 230.673 229.84 230.787 230.064C231.963 232.349 232.077 235.04 230.787 237.309L231.338 237.458C231.24 235.928 230.842 234.261 229.631 233.219C229.041 232.707 228.361 232.503 227.598 232.393C225.781 232.133 223.917 232.196 222.088 232.192C220.943 232.192 219.736 232.279 218.607 232.043C216.908 231.689 215.465 230.524 214.43 229.172C214.344 229.057 214.238 229.006 214.096 229.038C211.693 229.522 209.29 229.994 206.887 230.477C205.471 230.764 204.122 231.11 202.789 231.681C201.349 232.294 200.004 233.101 198.75 234.029L199.155 234.434C201.581 230.289 205.829 227.441 210.607 226.839C210.84 226.812 210.961 226.615 210.863 226.395C207.359 218.773 203.859 211.147 200.354 203.525C199.359 201.358 198.364 199.195 197.369 197.028L197.192 197.46C199.096 196.87 201.161 197.464 202.462 198.97C202.71 199.258 203.127 198.841 202.879 198.554C201.448 196.894 199.127 196.241 197.035 196.89C196.838 196.949 196.779 197.15 196.858 197.323C200.362 204.945 203.862 212.571 207.367 220.193C208.362 222.36 209.357 224.523 210.352 226.69L210.607 226.245C205.617 226.875 201.188 229.793 198.643 234.131C198.506 234.371 198.801 234.717 199.049 234.536C201.086 233.03 203.375 231.85 205.857 231.295C208.641 230.67 211.457 230.167 214.257 229.604L213.923 229.47C214.93 230.788 216.208 231.873 217.789 232.428C218.603 232.715 219.464 232.758 220.322 232.774C222.194 232.81 224.066 232.751 225.934 232.837C226.854 232.88 227.987 232.869 228.817 233.344C230.221 234.151 230.658 235.956 230.752 237.454C230.768 237.734 231.149 237.871 231.303 237.604C232.699 235.146 232.577 232.243 231.303 229.765L230.968 230.198C232.632 230.646 234.425 230.784 236.117 230.407C237.552 230.088 238.775 229.25 240.171 228.825C243.216 227.905 246.5 228.711 249.19 230.269C250.755 231.177 252.128 232.381 253.217 233.828C253.445 234.135 253.878 233.879 253.728 233.529C252.238 230.076 249.984 226.678 246.574 224.873C242.822 222.883 238.539 223.606 234.532 224.236C232.101 224.617 229.729 225.309 227.295 225.667C224.86 226.025 222.426 225.722 220.141 224.782C219.885 224.676 219.63 224.562 219.382 224.44C219.134 224.318 219.032 224.141 218.882 223.901C218.466 223.237 218.045 222.572 217.628 221.911C216.79 220.582 215.956 219.257 215.119 217.927C213.514 215.383 211.909 212.838 210.305 210.293C207.847 206.396 205.385 202.498 202.923 198.605C202.722 198.286 202.211 198.581 202.411 198.904L202.407 198.912Z" fill="black"/>
<path d="M243.043 223.743C242.559 223.904 242.005 224.175 241.855 224.71C241.78 224.974 241.839 225.237 241.969 225.473C242.123 225.752 242.366 225.992 242.598 226.208C242.945 226.535 243.314 226.842 243.672 227.152C244.25 227.652 244.821 228.163 245.367 228.698C245.639 228.962 246.059 228.545 245.784 228.281C245.234 227.75 244.667 227.239 244.089 226.736C243.692 226.393 243.283 226.059 242.905 225.689C242.791 225.579 242.642 225.422 242.571 225.324C242.532 225.269 242.496 225.213 242.465 225.154C242.429 225.088 242.457 225.147 242.441 225.107C242.429 225.076 242.421 225.048 242.414 225.017C242.398 224.95 242.414 225.068 242.414 225.005C242.414 224.974 242.414 224.946 242.414 224.915C242.41 224.993 242.414 224.903 242.421 224.883C242.437 224.844 242.445 224.812 242.469 224.773C242.618 224.525 242.941 224.403 243.2 224.317C243.558 224.195 243.405 223.625 243.043 223.746V223.743Z" fill="black"/>
<path d="M231.245 229.705C230.423 228.784 229.081 228.564 228.012 229.194C227.603 229.433 227.158 229.87 227.162 230.385C227.162 230.684 227.347 230.975 227.493 231.227C227.894 231.919 228.346 232.584 228.798 233.241C229.011 233.551 229.522 233.256 229.31 232.942C228.948 232.415 228.59 231.88 228.252 231.337C228.126 231.136 228 230.932 227.89 230.723C227.858 230.664 227.827 230.602 227.799 230.539C227.78 230.491 227.811 230.582 227.787 230.507C227.78 230.484 227.772 230.46 227.764 230.44C227.76 230.425 227.756 230.405 227.752 230.389C227.752 230.389 227.744 230.46 227.752 230.409C227.76 230.366 227.768 230.299 227.748 230.389C227.803 230.161 227.917 229.996 228.102 229.846C228.523 229.504 229.148 229.339 229.683 229.441C230.131 229.528 230.529 229.783 230.832 230.122C231.083 230.405 231.5 229.988 231.248 229.705H231.245Z" fill="black"/>
<path d="M6.73558 373.325C16.505 360.322 26.2705 347.32 36.0399 334.318C45.8487 321.26 55.6574 308.207 65.4662 295.15C75.2356 282.147 85.0011 269.145 94.7705 256.143C104.579 243.085 114.388 230.032 124.197 216.975C133.966 203.972 143.732 190.97 153.501 177.968C154.701 176.371 155.904 174.77 157.104 173.173C157.332 172.871 156.821 172.576 156.592 172.875C146.823 185.877 137.058 198.879 127.288 211.881C117.479 224.939 107.671 237.992 97.8618 251.05C88.0924 264.052 78.3269 277.054 68.5575 290.057C58.7487 303.114 48.94 316.167 39.1312 329.225C29.3618 342.227 19.5963 355.229 9.82687 368.232C8.62733 369.828 7.42385 371.429 6.2243 373.026C5.99619 373.329 6.50747 373.624 6.73558 373.325Z" fill="black"/>
<path d="M11.2187 376.809C12.4734 375.176 13.728 373.54 14.9826 371.908C18.3964 367.464 21.8141 363.02 25.2279 358.575C30.2463 352.043 35.2647 345.514 40.2832 338.982C46.4382 330.97 52.5933 322.963 58.7483 314.951C65.4894 306.177 72.2344 297.402 78.9754 288.628C85.7637 279.795 92.548 270.965 99.3363 262.132C105.664 253.896 111.992 245.661 118.321 237.425C123.681 230.448 129.042 223.471 134.402 216.494C138.245 211.491 142.087 206.493 145.934 201.49C147.755 199.122 149.576 196.751 151.397 194.383C151.475 194.281 151.554 194.179 151.633 194.076C151.865 193.777 151.353 193.482 151.121 193.777C149.867 195.41 148.612 197.046 147.357 198.678C143.944 203.122 140.526 207.566 137.112 212.01C132.094 218.543 127.075 225.072 122.057 231.604C115.902 239.616 109.747 247.623 103.592 255.635C96.8507 264.409 90.1057 273.183 83.3646 281.958C76.5764 290.791 69.792 299.621 63.0038 308.454C56.6757 316.69 50.3476 324.925 44.0195 333.161C38.6589 340.138 33.2983 347.115 27.9377 354.092C24.0952 359.095 20.2527 364.093 16.4063 369.096C14.5853 371.464 12.7644 373.835 10.9434 376.203C10.8648 376.305 10.7861 376.407 10.7075 376.51C10.4754 376.809 10.9867 377.104 11.2187 376.809Z" fill="black"/>
<path d="M254.44 84.8871C253.374 89.2094 236.986 83.019 215.602 91.3607C204.869 95.5493 202.899 99.4862 183.737 107.793C174.641 111.733 169.414 113.303 166.303 113.688C168.08 111.608 169.913 109.476 171.789 107.293C191.938 82.9246 216.043 72.9113 226.996 69.1436C227.735 69.2773 228.502 69.4425 228.549 69.4543C242.165 72.3843 255.404 80.9896 254.44 84.8871Z" fill="#FDFDFD"/>
<path d="M254.158 84.8075C253.851 85.9992 252.136 86.1447 251.118 86.2391C248.711 86.4515 246.268 86.3256 243.853 86.3217C235.964 86.306 228.122 87.065 220.543 89.3461C217.231 90.3451 213.979 91.5879 210.872 93.1178C208.827 94.1247 206.856 95.2652 204.905 96.4412C202.695 97.7705 200.497 99.1116 198.247 100.374C195.038 102.175 191.75 103.831 188.411 105.381C184.214 107.331 179.955 109.168 175.613 110.773C173.013 111.732 170.362 112.641 167.641 113.18C167.196 113.266 166.752 113.345 166.304 113.4L166.512 113.903C169.721 110.147 172.868 106.317 176.211 102.679C179.216 99.4066 182.401 96.3035 185.744 93.3774C191.592 88.2607 197.928 83.7102 204.63 79.7773C209.755 76.7686 215.096 74.1217 220.598 71.8721C222.576 71.0619 224.578 70.3068 226.6 69.6028C226.934 69.4848 227.111 69.4691 227.469 69.5399C227.89 69.6224 228.306 69.709 228.723 69.8034C229.805 70.0433 230.879 70.3146 231.944 70.6175C234.108 71.231 236.239 71.9704 238.324 72.816C242.036 74.3223 245.663 76.1629 248.947 78.4676C250.166 79.3211 251.346 80.2532 252.38 81.3229C253.068 82.0348 253.784 82.8607 254.087 83.8204C254.189 84.1429 254.236 84.4811 254.158 84.8154C254.071 85.1851 254.641 85.3424 254.728 84.9727C254.917 84.1547 254.598 83.3327 254.177 82.6405C253.54 81.5904 252.644 80.6937 251.723 79.8874C248.998 77.4923 245.781 75.6398 242.532 74.0509C238.469 72.0648 234.186 70.4877 229.789 69.4376C229.364 69.3353 228.936 69.2409 228.507 69.1466C228.043 69.0482 227.461 68.8201 226.993 68.8516C226.56 68.8791 226.045 69.1623 225.636 69.3117C224.637 69.6696 223.642 70.0354 222.651 70.4208C217.306 72.4856 212.107 74.9162 207.096 77.6889C200.41 81.3898 194.062 85.6964 188.159 90.5496C184.726 93.3735 181.449 96.3822 178.342 99.56C174.897 103.088 171.755 106.875 168.545 110.615C167.727 111.571 166.905 112.527 166.087 113.483C165.942 113.652 166.017 114.021 166.296 113.986C168.687 113.683 171.023 112.975 173.3 112.208C177.379 110.836 181.355 109.168 185.288 107.434C191.644 104.626 197.771 101.432 203.718 97.8413C205.704 96.6417 207.69 95.4304 209.747 94.3488C212.382 92.9605 215.127 91.7924 217.939 90.8131C225.884 88.0404 234.19 86.9628 242.575 86.9156C245.171 86.8999 247.775 87.0218 250.37 86.8841C251.641 86.8173 253.473 86.7701 254.362 85.6846C254.535 85.4761 254.653 85.2323 254.72 84.9688C254.814 84.5991 254.248 84.4457 254.15 84.8115L254.158 84.8075Z" fill="black"/>
<path d="M299.254 52.0267C301.712 51.0198 305.704 51.5193 313.691 52.5261C326.269 54.1072 330.288 56.231 333.108 58.5003C334.729 59.806 335.877 61.096 336.593 61.9849C331.673 63.09 326.356 64.0654 320.665 64.7969C308.811 66.3268 298.05 66.4724 288.792 65.965C289.449 63.4794 291.997 54.996 299.25 52.0227L299.254 52.0267Z" fill="black"/>
<path d="M299.332 52.3106C301.165 51.5712 303.288 51.7285 305.216 51.8701C308.885 52.1375 312.558 52.6292 316.196 53.1601C319.307 53.6124 322.422 54.163 325.439 55.0479C327.271 55.5828 329.073 56.2514 330.729 57.211C332.915 58.4774 334.803 60.2394 336.388 62.1941L336.518 61.7025C330.178 63.1262 323.759 64.1999 317.298 64.9078C310.836 65.6157 304.637 65.9382 298.29 65.9382C295.124 65.9382 291.958 65.8478 288.796 65.6787L289.079 66.0523C290.16 61.9699 292.072 57.9072 295.198 54.9968C296.41 53.872 297.802 52.9517 299.328 52.3145C299.674 52.169 299.521 51.5987 299.171 51.7442C294.188 53.8169 291.037 58.505 289.271 63.4329C288.98 64.2431 288.729 65.0612 288.508 65.891C288.457 66.0838 288.603 66.2529 288.792 66.2647C294.656 66.5832 300.535 66.6108 306.399 66.3394C313.026 66.0326 319.634 65.3483 326.182 64.2943C329.698 63.7279 333.194 63.0515 336.667 62.2727C336.903 62.2216 336.927 61.9384 336.797 61.7811C335.303 59.9405 333.537 58.2729 331.523 57.0105C329.973 56.039 328.266 55.335 326.532 54.7726C323.661 53.8444 320.68 53.2702 317.707 52.8022C313.919 52.2044 310.092 51.7206 306.273 51.3746C303.985 51.1661 301.361 50.8672 299.171 51.7482C298.825 51.8898 298.974 52.46 299.328 52.3185L299.332 52.3106Z" fill="black"/>
<path d="M289.97 65.7609C294.651 64.1345 299.486 62.8965 304.422 62.0816C311.198 60.9615 318.133 60.5904 325.011 60.9407C328.913 61.1418 332.801 61.5822 336.638 62.248C337 62.3105 337.158 61.8111 336.792 61.7452C329.592 60.5003 322.237 60.0425 314.916 60.4275C309.465 60.7153 304.029 61.4435 298.735 62.6746C295.707 63.3785 292.728 64.2455 289.812 65.2581C289.469 65.376 289.619 65.8823 289.966 65.7609H289.97Z" fill="white"/>
<path d="M279.921 58.7054C281.522 58.7054 282.82 57.4076 282.82 55.8068C282.82 54.2059 281.522 52.9082 279.921 52.9082C278.32 52.9082 277.022 54.2059 277.022 55.8068C277.022 57.4076 278.32 58.7054 279.921 58.7054Z" fill="black"/>
<path d="M282.525 55.8058C282.51 56.8874 281.841 57.8864 280.811 58.2561C279.78 58.6258 278.6 58.3033 277.904 57.4537C277.208 56.6042 277.133 55.4008 277.688 54.4726C278.242 53.5444 279.344 53.0449 280.401 53.2455C281.632 53.4815 282.51 54.563 282.529 55.8058C282.533 56.1834 283.123 56.1873 283.119 55.8058C283.099 54.4765 282.289 53.2888 281.043 52.8129C279.796 52.337 278.313 52.7342 277.464 53.7686C276.614 54.8029 276.492 56.2857 277.18 57.438C277.869 58.5904 279.21 59.1764 280.519 58.9404C282.022 58.669 283.099 57.3082 283.119 55.8019C283.123 55.4204 282.533 55.4204 282.529 55.8019L282.525 55.8058Z" fill="black"/>
</svg>
