<svg width="53" height="53" viewBox="0 0 53 53" fill="none" xmlns="http://www.w3.org/2000/svg">
<circle cx="26.5" cy="26.5" r="26.5" fill="white"/>
<path fill-rule="evenodd" clip-rule="evenodd" d="M43.6491 25.3662L43.6491 25.3661L43.6489 25.3661L43.6489 25.366L43.5419 25.366C37.7425 25.3372 34.1895 22.9757 32.0614 20.276C29.8798 17.5086 29.1692 14.3491 29.1692 12.8486L27.1692 12.8486C27.1692 14.7819 28.021 18.3813 30.4907 21.5142C31.6434 22.9765 33.1433 24.3298 35.0571 25.366L9.63672 25.366L9.63672 27.366L35.0579 27.366C33.1437 28.4022 31.6435 29.7557 30.4907 31.2182C28.021 34.3511 27.1692 37.9504 27.1692 39.8838L29.1692 39.8838C29.1692 38.3832 29.8798 35.2237 32.0614 32.4563C34.1959 29.7485 37.7641 27.3808 43.5947 27.3662C43.6128 27.3662 43.6309 27.3662 43.6491 27.3662L43.6491 27.3661L43.6491 25.3662Z" fill="#8C6D57"/>
<path d="M43.6491 25.3661L44.1491 25.3661L44.1491 24.8661L43.6491 24.8661L43.6491 25.3661ZM43.6489 25.3661L43.1489 25.3661L43.1489 25.8661L43.6489 25.8661L43.6489 25.3661ZM43.6489 25.366L44.1489 25.366L44.1489 24.866L43.6489 24.866L43.6489 25.366ZM43.5419 25.366L43.5394 25.866L43.5419 25.866L43.5419 25.366ZM32.0614 20.276L32.454 19.9665L32.0614 20.276ZM29.1692 12.8486L29.6692 12.8486L29.6692 12.3486L29.1692 12.3486L29.1692 12.8486ZM27.1692 12.8486L27.1692 12.3486L26.6692 12.3486L26.6692 12.8486L27.1692 12.8486ZM30.4907 21.5142L30.8834 21.2047L30.4907 21.5142ZM35.0571 25.366L35.0571 25.866L35.2952 24.9263L35.0571 25.366ZM9.63672 25.366L9.63672 24.866L9.13672 24.866L9.13672 25.366L9.63672 25.366ZM9.63672 27.366L9.13672 27.366L9.13672 27.866L9.63672 27.866L9.63672 27.366ZM35.0579 27.366L35.2959 27.8057L35.0579 26.866L35.0579 27.366ZM30.4907 31.2182L30.098 30.9086L30.4907 31.2182ZM27.1692 39.8838L26.6692 39.8838L26.6692 40.3838L27.1692 40.3838L27.1692 39.8838ZM29.1692 39.8838L29.1692 40.3838L29.6692 40.3838L29.6692 39.8838L29.1692 39.8838ZM32.0614 32.4563L32.454 32.7658L32.0614 32.4563ZM43.5947 27.3662L43.5958 26.8662L43.5934 26.8662L43.5947 27.3662ZM43.6491 27.3662L43.6491 27.8662L44.1491 27.8662L44.1491 27.3662L43.6491 27.3662ZM44.1491 25.3662L44.1491 25.3661L43.1491 25.3661L43.1491 25.3662L44.1491 25.3662ZM43.6491 24.8661L43.6489 24.8661L43.6489 25.8661L43.6491 25.8661L43.6491 24.8661ZM44.1489 25.3661L44.1489 25.366L43.1489 25.366L43.1489 25.3661L44.1489 25.3661ZM43.6489 24.866L43.5419 24.866L43.5419 25.866L43.6489 25.866L43.6489 24.866ZM43.5444 24.866C37.9018 24.838 34.4907 22.5501 32.454 19.9665L31.6687 20.5856C33.8883 23.4013 37.5833 25.8365 43.5394 25.866L43.5444 24.866ZM32.454 19.9665C30.3445 17.2904 29.6692 14.2409 29.6692 12.8486L28.6692 12.8486C28.6692 14.4574 29.4151 17.7268 31.6687 20.5856L32.454 19.9665ZM29.1692 12.3486L27.1692 12.3486L27.1692 13.3486L29.1692 13.3486L29.1692 12.3486ZM26.6692 12.8486C26.6692 14.8901 27.5563 18.5994 30.098 21.8237L30.8834 21.2047C28.4857 18.1631 27.6692 14.6737 27.6692 12.8486L26.6692 12.8486ZM30.098 21.8237C31.2888 23.3343 32.8399 24.7342 34.8191 25.8057L35.2952 24.9263C33.4467 23.9255 31.998 22.6186 30.8834 21.2047L30.098 21.8237ZM35.0571 24.866L9.63672 24.866L9.63672 25.866L35.0571 25.866L35.0571 24.866ZM9.13672 25.366L9.13672 27.366L10.1367 27.366L10.1367 25.366L9.13672 25.366ZM9.63672 27.866L35.0579 27.866L35.0579 26.866L9.63672 26.866L9.63672 27.866ZM34.8198 26.9263C32.8403 27.9978 31.289 29.3979 30.098 30.9086L30.8834 31.5277C31.9981 30.1136 33.4471 28.8065 35.2959 27.8057L34.8198 26.9263ZM30.098 30.9086C27.5563 34.1329 26.6692 37.8423 26.6692 39.8838L27.6692 39.8838C27.6692 38.0586 28.4857 34.5692 30.8834 31.5277L30.098 30.9086ZM27.1692 40.3838L29.1692 40.3838L29.1692 39.3838L27.1692 39.3838L27.1692 40.3838ZM29.6692 39.8838C29.6692 38.4914 30.3445 35.4419 32.454 32.7658L31.6687 32.1468C29.4151 35.0056 28.6692 38.275 28.6692 39.8838L29.6692 39.8838ZM32.454 32.7658C34.4968 30.1745 37.9223 27.8804 43.5959 27.8662L43.5934 26.8662C37.6058 26.8812 33.8951 29.3224 31.6687 32.1468L32.454 32.7658ZM43.5935 27.8662C43.612 27.8662 43.6305 27.8662 43.6491 27.8662L43.6491 26.8662C43.6313 26.8662 43.6136 26.8662 43.5958 26.8662L43.5935 27.8662ZM44.1491 27.3662L44.1491 27.3661L43.1491 27.3661L43.1491 27.3662L44.1491 27.3662ZM44.1491 27.3661L44.1491 25.3662L43.1491 25.3662L43.1491 27.3661L44.1491 27.3661Z" fill="#8C6D57"/>
</svg>
