<svg width="475" height="334" viewBox="0 0 475 334" fill="none" xmlns="http://www.w3.org/2000/svg">
<path d="M175.066 203.843C176.008 208.111 171.88 212.649 165.848 213.98C159.815 215.31 154.162 212.928 153.221 208.66C152.28 204.392 156.407 199.853 162.439 198.523C168.472 197.193 174.125 199.574 175.066 203.843Z" fill="#9E8D78"/>
<path fill-rule="evenodd" clip-rule="evenodd" d="M173.62 207.75C172.793 207.75 172.122 207.079 172.122 206.252L172.122 151.422C172.122 150.595 172.793 149.924 173.62 149.924C174.448 149.924 175.118 150.595 175.118 151.422L175.118 206.252C175.118 207.079 174.448 207.75 173.62 207.75Z" fill="#9E8D78"/>
<path d="M50.2647 280.403C51.206 284.671 47.0787 289.21 41.0462 290.54C35.0137 291.871 29.3604 289.489 28.4191 285.221C27.4779 280.952 31.6051 276.414 37.6376 275.083C43.6701 273.753 49.3235 276.135 50.2647 280.403Z" fill="#9E8D78"/>
<path fill-rule="evenodd" clip-rule="evenodd" d="M48.8184 284.311C47.991 284.311 47.3203 283.64 47.3203 282.812L47.3203 227.983C47.3203 227.155 47.991 226.485 48.8184 226.485C49.6458 226.485 50.3165 227.155 50.3165 227.983L50.3165 282.812C50.3165 283.64 49.6458 284.311 48.8184 284.311Z" fill="#9E8D78"/>
<path d="M252.099 131.397C253.04 135.666 248.913 140.204 242.88 141.534C236.848 142.865 231.194 140.483 230.253 136.215C229.312 131.946 233.439 127.408 239.472 126.078C245.504 124.747 251.157 127.129 252.099 131.397Z" fill="#9E8D78"/>
<path d="M289.021 116.614C289.962 120.882 285.835 125.421 279.802 126.751C273.77 128.081 268.116 125.7 267.175 121.432C266.234 117.163 270.361 112.625 276.394 111.294C282.426 109.964 288.079 112.346 289.021 116.614Z" fill="#9E8D78"/>
<path fill-rule="evenodd" clip-rule="evenodd" d="M250.754 133.882C249.927 133.882 249.256 133.211 249.256 132.384L249.256 77.5541C249.256 76.7267 249.927 76.056 250.754 76.056C251.581 76.056 252.252 76.7267 252.252 77.5541L252.252 132.384C252.252 133.211 251.581 133.882 250.754 133.882Z" fill="#A18877"/>
<path fill-rule="evenodd" clip-rule="evenodd" d="M287.69 119.05C286.862 119.05 286.191 118.379 286.191 117.552L286.191 63.771C286.191 62.9436 286.862 62.2729 287.69 62.2729C288.517 62.2729 289.188 62.9436 289.188 63.771L289.188 117.552C289.188 118.379 288.517 119.05 287.69 119.05Z" fill="#A18877"/>
<path fill-rule="evenodd" clip-rule="evenodd" d="M249.405 77.7189C248.92 76.4281 249.573 74.9884 250.864 74.5033L285.823 61.3649C287.114 60.8797 288.553 61.5329 289.038 62.8237C289.523 64.1145 288.87 65.5542 287.579 66.0393L252.621 79.1778C251.33 79.6629 249.89 79.0097 249.405 77.7189Z" fill="#A18877"/>
<path fill-rule="evenodd" clip-rule="evenodd" d="M249.42 89.7271C248.914 88.4443 249.544 86.9942 250.827 86.4884L285.785 72.7046C287.068 72.1988 288.518 72.8287 289.024 74.1115C289.529 75.3944 288.9 76.8444 287.617 77.3502L252.658 91.134C251.376 91.6399 249.926 91.01 249.42 89.7271Z" fill="#A18877"/>
<path d="M82.3604 226.996C83.3017 231.264 79.1744 235.803 73.1419 237.133C67.1094 238.463 61.4561 236.082 60.5148 231.813C59.5736 227.545 63.7009 223.007 69.7333 221.676C75.7658 220.346 81.4192 222.728 82.3604 226.996Z" fill="#9E8D78"/>
<path d="M119.281 217.639C120.223 221.908 116.095 226.446 110.063 227.777C104.03 229.107 98.377 226.725 97.4357 222.457C96.4945 218.189 100.622 213.65 106.654 212.32C112.687 210.989 118.34 213.371 119.281 217.639Z" fill="#9E8D78"/>
<path fill-rule="evenodd" clip-rule="evenodd" d="M81.0157 229.481C80.1883 229.481 79.5176 228.811 79.5176 227.983L79.5176 173.154C79.5176 172.326 80.1883 171.656 81.0157 171.656C81.8431 171.656 82.5138 172.326 82.5138 173.154L82.5138 227.983C82.5138 228.811 81.8431 229.481 81.0157 229.481Z" fill="#A18877"/>
<path fill-rule="evenodd" clip-rule="evenodd" d="M117.951 220.556C117.124 220.556 116.453 219.885 116.453 219.058L116.453 159.37C116.453 158.542 117.124 157.872 117.951 157.872C118.779 157.872 119.449 158.542 119.449 159.37L119.449 219.058C119.449 219.885 118.779 220.556 117.951 220.556Z" fill="#A18877"/>
<path fill-rule="evenodd" clip-rule="evenodd" d="M79.66 174.069C79.1542 172.786 79.7841 171.336 81.0669 170.83L116.025 157.046C117.308 156.541 118.758 157.17 119.264 158.453C119.77 159.736 119.14 161.186 117.857 161.692L82.8987 175.476C81.6158 175.982 80.1658 175.352 79.66 174.069Z" fill="#A18877"/>
<path d="M79.9004 175.945L116.737 162.169L119.328 169.095L82.4908 182.872L79.9004 175.945Z" fill="#9E8D78"/>
<path d="M150.948 277.408C151.89 281.676 147.762 286.215 141.73 287.545C135.697 288.875 130.044 286.494 129.103 282.225C128.161 277.957 132.289 273.419 138.321 272.088C144.354 270.758 150.007 273.14 150.948 277.408Z" fill="#9E8D78"/>
<path fill-rule="evenodd" clip-rule="evenodd" d="M149.607 281.314C148.779 281.314 148.108 280.644 148.108 279.816L148.108 224.987C148.108 224.159 148.779 223.489 149.607 223.489C150.434 223.489 151.105 224.159 151.105 224.987L151.105 279.816C151.105 280.644 150.434 281.314 149.607 281.314Z" fill="#9E8D78"/>
<path fill-rule="evenodd" clip-rule="evenodd" d="M153.271 224.968C153.261 223.598 152.147 222.49 150.774 222.49C149.395 222.49 148.277 223.608 148.277 224.987L150.774 224.987C148.277 224.987 148.277 224.988 148.277 224.99L148.277 224.993L148.277 225L148.277 225.015C148.278 225.027 148.278 225.041 148.278 225.056C148.279 225.087 148.28 225.127 148.281 225.173C148.285 225.267 148.291 225.391 148.303 225.543C148.327 225.846 148.373 226.26 148.462 226.758C148.638 227.749 148.988 229.096 149.688 230.558C151.116 233.54 153.948 236.868 159.333 238.61C160.009 238.829 160.394 239.155 160.651 239.522C160.931 239.924 161.158 240.52 161.255 241.385C161.454 243.175 161.043 245.568 160.251 248.158C159.476 250.692 158.415 253.171 157.534 255.036C157.097 255.963 156.709 256.726 156.433 257.255C156.295 257.519 156.185 257.724 156.111 257.86C156.074 257.928 156.045 257.98 156.027 258.012L156.008 258.048L156.004 258.055C156.003 258.055 156.003 258.056 156.003 258.056C155.328 259.258 155.756 260.78 156.958 261.455C158.16 262.13 159.682 261.703 160.357 260.501L158.18 259.278C160.357 260.501 160.358 260.5 160.358 260.5L160.361 260.494L160.37 260.479L160.398 260.428C160.421 260.385 160.455 260.324 160.498 260.245C160.584 260.086 160.707 259.858 160.858 259.568C161.161 258.99 161.579 258.165 162.05 257.168C162.987 255.184 164.155 252.467 165.026 249.618C165.88 246.825 166.532 243.645 166.217 240.831C166.057 239.395 165.632 237.931 164.743 236.66C163.829 235.355 162.525 234.395 160.87 233.859C156.927 232.583 155.095 230.287 154.192 228.401C153.726 227.427 153.493 226.529 153.378 225.883C153.321 225.561 153.294 225.309 153.282 225.15C153.275 225.071 153.273 225.016 153.272 224.987C153.271 224.978 153.271 224.971 153.271 224.968Z" fill="#9E8D78"/>
<path d="M228.404 196.364C229.346 200.632 225.218 205.171 219.186 206.501C213.153 207.831 207.5 205.45 206.559 201.182C205.618 196.913 209.745 192.375 215.777 191.044C221.81 189.714 227.463 192.096 228.404 196.364Z" fill="#9E8D78"/>
<path fill-rule="evenodd" clip-rule="evenodd" d="M227.063 200.271C226.235 200.271 225.564 199.6 225.564 198.772L225.564 143.943C225.564 143.115 226.235 142.445 227.063 142.445C227.89 142.445 228.561 143.115 228.561 143.943L228.561 198.772C228.561 199.6 227.89 200.271 227.063 200.271Z" fill="#9E8D78"/>
<path fill-rule="evenodd" clip-rule="evenodd" d="M230.727 143.924C230.717 142.554 229.603 141.446 228.23 141.446C226.851 141.446 225.733 142.564 225.733 143.943L228.23 143.943C225.733 143.943 225.733 143.945 225.733 143.946L225.733 143.949L225.733 143.956L225.734 143.972C225.734 143.983 225.734 143.997 225.734 144.012C225.735 144.043 225.736 144.083 225.737 144.129C225.741 144.223 225.747 144.347 225.759 144.499C225.783 144.802 225.829 145.216 225.918 145.714C226.094 146.705 226.444 148.052 227.144 149.514C228.573 152.496 231.404 155.824 236.789 157.566C237.465 157.785 237.85 158.111 238.107 158.478C238.387 158.88 238.614 159.476 238.711 160.341C238.911 162.131 238.499 164.524 237.707 167.114C236.932 169.648 235.871 172.127 234.99 173.992C234.553 174.919 234.165 175.682 233.889 176.211C233.751 176.475 233.641 176.68 233.567 176.816C233.53 176.885 233.502 176.936 233.483 176.969L233.464 177.004L233.46 177.011C233.459 177.011 233.459 177.012 233.459 177.012C232.784 178.214 233.212 179.736 234.414 180.411C235.616 181.086 237.138 180.659 237.813 179.457L235.637 178.234C237.813 179.457 237.814 179.456 237.814 179.456L237.818 179.45L237.826 179.435L237.854 179.385C237.877 179.341 237.911 179.28 237.954 179.201C238.04 179.042 238.163 178.814 238.314 178.524C238.617 177.946 239.035 177.121 239.506 176.124C240.443 174.14 241.611 171.423 242.482 168.574C243.336 165.781 243.988 162.601 243.673 159.787C243.513 158.351 243.088 156.888 242.199 155.616C241.286 154.311 239.981 153.351 238.326 152.815C234.384 151.539 232.551 149.243 231.648 147.357C231.182 146.383 230.949 145.485 230.834 144.839C230.777 144.518 230.75 144.265 230.738 144.106C230.731 144.027 230.729 143.972 230.728 143.943C230.727 143.934 230.727 143.927 230.727 143.924Z" fill="#9E8D78"/>
<path d="M204.855 245.327C204.855 250.568 200.606 254.817 195.365 254.817C190.125 254.817 185.876 250.568 185.876 245.327C185.876 240.086 190.125 235.838 195.365 235.838C200.606 235.838 204.855 240.086 204.855 245.327Z" fill="#9E8D78"/>
<path fill-rule="evenodd" clip-rule="evenodd" d="M127.614 170.101C98.6353 172.72 63.4703 164.564 13.8524 135.886C13.7628 135.834 13.7322 135.72 13.784 135.63C13.8357 135.54 13.9503 135.51 14.0398 135.562C63.6207 164.218 98.707 172.337 127.58 169.728C156.015 167.158 178.451 154.184 202.814 140.096C203.195 139.876 203.576 139.655 203.958 139.435C228.76 125.096 255.661 109.769 292.922 103.257C330.183 96.7446 377.788 99.0498 444.006 119.94C444.105 119.971 444.16 120.076 444.129 120.175C444.098 120.274 443.992 120.328 443.894 120.297C377.718 99.4203 330.175 97.1263 292.986 103.626C255.797 110.125 228.946 125.421 204.145 139.759C203.754 139.985 203.364 140.211 202.974 140.436C178.631 154.513 156.131 167.524 127.614 170.101Z" fill="#8C6D57"/>
<path fill-rule="evenodd" clip-rule="evenodd" d="M292.879 103.01C330.189 96.4895 377.835 98.8022 444.082 119.701C444.312 119.774 444.439 120.019 444.367 120.249C444.294 120.48 444.049 120.607 443.819 120.535C377.671 99.6667 330.169 97.3801 293.029 103.871C255.887 110.362 229.07 125.637 204.27 139.974L203.078 140.664C178.749 154.732 156.209 167.767 127.637 170.349C98.5876 172.974 63.3701 164.794 13.7274 136.101C13.5185 135.981 13.447 135.713 13.5678 135.504C13.6886 135.295 13.9558 135.224 14.1647 135.345C63.721 163.987 98.7548 172.082 127.558 169.479C155.929 166.915 178.319 153.971 202.689 139.879L203.833 139.218C228.636 124.878 255.57 109.531 292.879 103.01Z" fill="#9E8D78"/>
<path fill-rule="evenodd" clip-rule="evenodd" d="M444.123 120.216C444.096 120.316 443.993 120.375 443.894 120.348C375.674 101.857 328.706 104.345 292.99 116.237C259.246 127.473 235.527 147.107 213.393 165.428C212.097 166.501 210.806 167.57 209.518 168.633C186.261 187.823 164.218 204.915 133.413 208.28C102.61 211.645 63.0853 201.283 4.86035 165.68C4.77212 165.626 4.74433 165.51 4.79828 165.422C4.85223 165.334 4.9675 165.306 5.05573 165.36C63.2531 200.946 102.69 211.26 133.372 207.908C164.053 204.556 186.019 187.538 209.28 168.344C210.57 167.279 211.864 166.208 213.163 165.132C235.291 146.815 259.059 127.14 292.872 115.882C328.675 103.961 375.72 101.481 443.992 119.987C444.091 120.014 444.15 120.117 444.123 120.216Z" fill="#8C6D57"/>
<path fill-rule="evenodd" clip-rule="evenodd" d="M444.056 119.745C444.289 119.808 444.427 120.048 444.364 120.281C444.301 120.514 444.061 120.652 443.828 120.589C375.643 102.107 328.727 104.601 293.068 116.474C259.374 127.693 235.687 147.297 213.552 165.62L213.539 165.631C212.247 166.7 210.96 167.766 209.677 168.825C186.422 188.013 164.327 205.154 133.44 208.528C102.555 211.902 62.9729 201.506 4.72963 165.892C4.52376 165.766 4.4589 165.497 4.58479 165.291C4.71068 165.085 4.97964 165.021 5.18552 165.147C63.3645 200.721 102.744 211.002 133.345 207.659C163.943 204.316 185.857 187.347 209.12 168.15C210.408 167.088 211.699 166.019 212.996 164.946L213.014 164.931C235.137 146.618 258.935 126.918 292.792 115.645C328.654 103.704 375.751 101.23 444.056 119.745Z" fill="#9E8D78"/>
<path fill-rule="evenodd" clip-rule="evenodd" d="M444.075 120.215C444.058 120.317 443.961 120.386 443.859 120.369C373.78 108.704 327.394 115.036 293.357 129.486C260.445 143.458 239.06 165.027 218.947 185.313C218.257 186.008 217.569 186.702 216.883 187.394C196.163 208.268 176.418 227.455 146.327 235.028C116.237 242.601 75.8346 238.552 13.8037 213.059C13.7081 213.019 13.6624 212.91 13.7017 212.814C13.741 212.719 13.8505 212.673 13.9461 212.712C75.945 238.193 116.258 242.209 146.236 234.665C176.214 227.121 195.892 208.009 216.617 187.13C217.307 186.434 217.998 185.737 218.691 185.038C238.799 164.757 260.23 143.143 293.211 129.141C327.331 114.656 373.793 108.326 443.921 119.999C444.023 120.016 444.092 120.113 444.075 120.215Z" fill="#8C6D57"/>
<path fill-rule="evenodd" clip-rule="evenodd" d="M443.962 119.753C444.2 119.792 444.361 120.018 444.321 120.256C444.282 120.494 444.057 120.654 443.819 120.615C373.772 108.955 327.437 115.289 293.455 129.716C260.594 143.666 239.24 165.201 219.124 185.488C218.435 186.184 217.747 186.877 217.06 187.569C196.343 208.441 176.555 227.678 146.389 235.27C116.223 242.862 75.7614 238.792 13.7093 213.289C13.4861 213.198 13.3795 212.942 13.4712 212.719C13.563 212.496 13.8183 212.389 14.0415 212.481C76.019 237.953 116.272 241.948 146.176 234.423C176.078 226.897 195.712 207.836 216.44 186.954C217.111 186.278 217.782 185.601 218.456 184.921L218.524 184.853C238.628 164.576 260.088 142.932 293.114 128.911C327.29 114.402 373.802 108.074 443.962 119.753Z" fill="#9E8D78"/>
<path fill-rule="evenodd" clip-rule="evenodd" d="M444.125 120.204C444.119 120.307 444.029 120.385 443.926 120.378C373.393 115.73 328.303 125.387 296.275 141.453C265.197 157.043 246.399 178.676 228.573 199.19C228.027 199.818 227.482 200.446 226.938 201.071C208.62 222.133 190.96 241.781 161.596 252.079C132.234 262.377 91.198 263.318 26.1358 247.053C26.0354 247.028 25.9744 246.926 25.9995 246.826C26.0246 246.725 26.1263 246.664 26.2266 246.69C91.2569 262.946 132.209 261.989 161.472 251.726C190.733 241.464 208.335 221.889 226.656 200.826C227.203 200.196 227.751 199.565 228.3 198.934C246.122 178.424 264.962 156.742 296.107 141.119C328.212 125.013 373.374 115.354 443.951 120.004C444.054 120.011 444.132 120.1 444.125 120.204Z" fill="#8C6D57"/>
<path fill-rule="evenodd" clip-rule="evenodd" d="M443.968 119.755C444.208 119.771 444.391 119.979 444.375 120.22C444.359 120.46 444.151 120.643 443.91 120.627C373.406 115.981 328.364 125.635 296.387 141.676C265.358 157.242 246.589 178.839 228.762 199.354L228.727 199.394C228.193 200.009 227.66 200.622 227.127 201.235C208.81 222.295 191.112 241.992 161.679 252.314C132.251 262.635 91.159 263.565 26.0755 247.295C25.8413 247.236 25.699 246.999 25.7575 246.765C25.8161 246.531 26.0533 246.388 26.2874 246.447C91.2964 262.698 132.193 261.729 161.39 251.49C190.582 241.252 208.146 221.726 226.467 200.661C227.015 200.032 227.563 199.401 228.112 198.77L228.12 198.76C245.939 178.254 264.806 156.541 295.995 140.895C328.152 124.764 373.362 115.102 443.968 119.755Z" fill="#9E8D78"/>
<path fill-rule="evenodd" clip-rule="evenodd" d="M444.138 120.116C444.139 120.219 444.057 120.304 443.953 120.306C373.276 121.416 329.185 134.723 298.667 153.359C269.038 171.453 252.183 194.579 236.202 216.508C235.721 217.167 235.242 217.826 234.762 218.483C218.346 240.987 202.472 262.029 174.138 274.7C145.807 287.371 105.046 291.66 38.876 280.747C38.774 280.73 38.7049 280.633 38.7217 280.531C38.7385 280.429 38.8349 280.36 38.937 280.377C105.075 291.285 145.75 286.986 173.985 274.358C202.218 261.732 218.042 240.769 234.46 218.262C234.942 217.601 235.424 216.939 235.908 216.275C251.885 194.352 268.778 171.172 298.471 153.04C329.064 134.358 373.226 121.042 443.947 119.931C444.051 119.93 444.136 120.012 444.138 120.116Z" fill="#8C6D57"/>
<path fill-rule="evenodd" clip-rule="evenodd" d="M443.944 119.682C444.185 119.678 444.384 119.871 444.388 120.112C444.391 120.353 444.199 120.552 443.957 120.556C373.309 121.665 329.266 134.966 298.797 153.572C269.215 171.637 252.386 194.725 236.404 216.655C235.923 217.314 235.444 217.973 234.964 218.63C218.549 241.133 202.641 262.227 174.24 274.928C145.844 287.627 105.028 291.91 38.8356 280.993C38.5975 280.954 38.4364 280.729 38.4756 280.491C38.5149 280.253 38.7398 280.091 38.9779 280.131C105.094 291.035 145.713 286.729 173.883 274.131C202.049 261.534 217.839 240.623 234.258 218.115C234.587 217.664 234.917 217.212 235.246 216.759L235.714 216.118C251.689 194.198 268.606 170.985 298.342 152.827C328.984 134.114 373.194 120.793 443.944 119.682Z" fill="#9E8D78"/>
<path fill-rule="evenodd" clip-rule="evenodd" d="M373.703 176.598L372.856 176.951C373.703 176.598 373.703 176.599 373.704 176.6L373.704 176.602L373.707 176.609L373.719 176.636C373.728 176.659 373.742 176.694 373.76 176.738C373.796 176.828 373.848 176.959 373.915 177.131C374.048 177.475 374.239 177.98 374.472 178.63C374.938 179.93 375.571 181.813 376.247 184.155C377.597 188.836 379.118 195.362 379.798 202.735C381.156 217.459 379.17 235.732 365.551 249.358C360.336 254.576 356.651 258.65 353.876 261.72C352.964 262.728 352.15 263.627 351.413 264.424C349.934 266.02 348.727 267.237 347.647 268.047C346.555 268.865 345.497 269.34 344.327 269.304C343.185 269.269 342.104 268.749 340.957 267.973C339.815 267.199 338.483 266.082 336.84 264.704L336.8 264.67C333.47 261.877 328.68 257.858 321.034 252.847C305.302 242.538 299.649 225.365 297.898 210.924C297.02 203.691 297.116 197.1 297.43 192.319C297.587 189.928 297.799 187.986 297.972 186.639C298.059 185.966 298.136 185.441 298.191 185.083C298.219 184.904 298.241 184.767 298.257 184.673C298.265 184.626 298.271 184.591 298.275 184.566L298.28 184.538L298.282 184.528C298.282 184.527 298.282 184.527 299.185 184.689L298.282 184.527L298.492 183.355L299.572 183.857C315.385 191.206 327.135 194.183 338.095 192.93C349.055 191.677 359.376 186.178 372.296 176.224L373.244 175.493L373.703 176.598ZM299.906 186.031C299.871 186.276 299.833 186.558 299.792 186.873C299.623 188.187 299.415 190.091 299.261 192.44C298.952 197.14 298.859 203.612 299.719 210.703C301.442 224.911 306.965 241.434 322.04 251.313C329.777 256.383 334.632 260.456 337.979 263.264L337.993 263.276C339.677 264.689 340.934 265.741 341.986 266.454C343.041 267.168 343.767 267.451 344.384 267.47C344.973 267.488 345.627 267.268 346.547 266.578C347.479 265.88 348.585 264.776 350.067 263.177C350.788 262.398 351.591 261.511 352.494 260.511C355.271 257.441 359.001 253.316 364.253 248.061C377.315 234.993 379.306 217.386 377.971 202.904C377.304 195.675 375.811 189.266 374.484 184.663C373.82 182.363 373.199 180.517 372.745 179.248C372.633 178.938 372.532 178.662 372.443 178.422C359.875 187.983 349.476 193.476 338.303 194.753C327.111 196.033 315.288 193.066 299.906 186.031Z" fill="#9E8D78"/>
<path d="M334.047 215.614C320.785 217.007 318.181 217.28 306.071 218.553C311.325 200.923 325.588 199.563 334.047 215.614Z" fill="#9E8D78"/>
<path d="M371.721 211.129C358.459 212.522 355.855 212.795 343.745 214.067C348.999 196.438 363.262 195.077 371.721 211.129Z" fill="#9E8D78"/>
<path d="M319.16 237.228C340.739 234.843 344.975 234.375 364.679 232.196C356.226 260.434 333.018 262.778 319.16 237.228Z" fill="#9E8D78"/>
<path fill-rule="evenodd" clip-rule="evenodd" d="M470.94 218.605L470.047 218.395C470.94 218.605 470.94 218.605 470.939 218.606L470.939 218.608L470.937 218.616L470.93 218.644C470.924 218.669 470.916 218.705 470.904 218.752C470.881 218.845 470.847 218.982 470.8 219.161C470.707 219.518 470.567 220.039 470.376 220.702C469.994 222.029 469.407 223.928 468.585 226.222C466.944 230.809 464.362 236.993 460.603 243.372C453.096 256.111 440.802 269.775 421.786 272.866C414.504 274.05 409.133 275.202 405.087 276.069C403.758 276.354 402.572 276.608 401.508 276.822C399.375 277.253 397.684 277.535 396.334 277.56C394.97 277.585 393.833 277.352 392.906 276.639C391.999 275.943 391.427 274.889 390.95 273.589C390.476 272.293 390.048 270.608 389.521 268.529L389.509 268.479C388.44 264.266 386.904 258.205 383.63 249.669C376.895 232.108 382.349 214.871 389.372 202.131C392.889 195.75 396.82 190.459 399.87 186.764C401.396 184.916 402.703 183.464 403.631 182.473C404.095 181.977 404.464 181.596 404.718 181.338C404.846 181.209 404.944 181.111 405.012 181.044C405.045 181.011 405.071 180.986 405.089 180.968L405.109 180.948L405.117 180.941C405.117 180.941 405.117 180.94 405.755 181.6L405.117 180.94L405.973 180.112L406.556 181.151C415.087 196.359 422.879 205.644 432.503 211.035C442.127 216.427 453.716 217.999 470.017 217.478L471.213 217.44L470.94 218.605ZM405.555 183.11C405.383 183.289 405.188 183.495 404.97 183.727C404.065 184.694 402.784 186.117 401.285 187.932C398.286 191.565 394.427 196.761 390.979 203.017C384.069 215.551 378.889 232.184 385.344 249.012C388.656 257.649 390.213 263.792 391.287 268.028L391.291 268.045C391.832 270.176 392.236 271.764 392.673 272.958C393.111 274.154 393.534 274.808 394.024 275.184C394.491 275.544 395.151 275.747 396.3 275.725C397.465 275.704 399.007 275.455 401.145 275.024C402.185 274.814 403.355 274.563 404.672 274.281C408.721 273.413 414.159 272.248 421.492 271.055C439.728 268.09 451.638 254.971 459.022 242.441C462.708 236.186 465.244 230.114 466.858 225.604C467.664 223.35 468.24 221.489 468.613 220.194C468.704 219.877 468.784 219.594 468.851 219.348C453.065 219.756 441.417 218.132 431.606 212.636C421.779 207.131 413.921 197.811 405.555 183.11Z" fill="#9E8D78"/>
<path d="M398.252 201.803C409.606 208.796 411.835 210.169 422.202 216.555C407.278 227.311 395.152 219.68 398.252 201.803Z" fill="#9E8D78"/>
<path d="M429.846 220.945C441.2 227.939 443.428 229.312 453.796 235.698C438.872 246.453 426.745 238.823 429.846 220.945Z" fill="#9E8D78"/>
<path d="M426.021 267.54C407.537 256.154 403.908 253.919 387.029 243.522C411.056 226.45 430.801 238.869 426.021 267.54Z" fill="#9E8D78"/>
</svg>
