<svg width="316" height="223" viewBox="0 0 316 223" fill="none" xmlns="http://www.w3.org/2000/svg">
<path d="M160.262 208.65C100.506 247.291 98.8592 167.79 56.7929 139.064C14.7266 110.338 149.333 35.4517 167.447 81.2311C202.188 169.032 282.437 123.329 282.437 175.259C282.437 227.189 220.018 170.01 160.262 208.65Z" fill="#F5EBDE"/>
<g filter="url(#filter0_d_1421_2321)">
<path d="M116.672 136.09C117.289 138.932 114.582 141.954 110.625 142.84C106.667 143.725 102.959 142.14 102.342 139.298C101.724 136.456 104.432 133.434 108.389 132.549C112.346 131.663 116.054 133.249 116.672 136.09Z" fill="#0E7244"/>
<path fill-rule="evenodd" clip-rule="evenodd" d="M115.723 138.692C115.18 138.692 114.74 138.246 114.74 137.695L114.74 101.19C114.74 100.639 115.18 100.193 115.723 100.193C116.266 100.193 116.706 100.639 116.706 101.19L116.706 137.695C116.706 138.246 116.266 138.692 115.723 138.692Z" fill="#0E7244"/>
<path d="M34.8055 187.063C35.4229 189.905 32.7155 192.927 28.7584 193.812C24.8013 194.698 21.0928 193.112 20.4754 190.27C19.858 187.429 22.5653 184.407 26.5225 183.521C30.4796 182.636 34.188 184.221 34.8055 187.063Z" fill="#0E7244"/>
<path fill-rule="evenodd" clip-rule="evenodd" d="M33.8567 189.665C33.314 189.665 32.874 189.218 32.874 188.668L32.874 152.163C32.874 151.612 33.314 151.165 33.8567 151.165C34.3995 151.165 34.8395 151.612 34.8395 152.163L34.8395 188.668C34.8395 189.218 34.3995 189.665 33.8567 189.665Z" fill="#0E7244"/>
<path d="M167.201 87.856C167.818 90.6978 165.111 93.7195 161.154 94.6052C157.197 95.4909 153.488 93.9052 152.871 91.0634C152.253 88.2217 154.961 85.2 158.918 84.3143C162.875 83.4286 166.584 85.0143 167.201 87.856Z" fill="#0E7244"/>
<path d="M191.421 78.0142C192.038 80.856 189.331 83.8777 185.374 84.7634C181.416 85.6491 177.708 84.0634 177.091 81.2216C176.473 78.3799 179.181 75.3582 183.138 74.4725C187.095 73.5868 190.803 75.1725 191.421 78.0142Z" fill="#0E7244"/>
<path fill-rule="evenodd" clip-rule="evenodd" d="M166.319 89.5107C165.776 89.5107 165.336 89.0642 165.336 88.5133L165.336 52.0084C165.336 51.4576 165.776 51.011 166.319 51.011C166.861 51.011 167.301 51.4576 167.301 52.0084L167.301 88.5133C167.301 89.0642 166.861 89.5107 166.319 89.5107Z" fill="#0E7244"/>
<path fill-rule="evenodd" clip-rule="evenodd" d="M190.547 79.6357C190.004 79.6357 189.564 79.1892 189.564 78.6383L189.564 42.8318C189.564 42.2809 190.004 41.8344 190.547 41.8344C191.09 41.8344 191.53 42.281 191.53 42.8318L191.53 78.6383C191.53 79.1892 191.09 79.6357 190.547 79.6357Z" fill="#0E7244"/>
<path fill-rule="evenodd" clip-rule="evenodd" d="M165.434 52.1182C165.116 51.2588 165.544 50.3003 166.391 49.9773L189.323 41.2299C190.17 40.9069 191.114 41.3418 191.432 42.2012C191.75 43.0606 191.322 44.0191 190.475 44.3421L167.543 53.0895C166.697 53.4125 165.752 52.9776 165.434 52.1182Z" fill="#0E7244"/>
<path fill-rule="evenodd" clip-rule="evenodd" d="M165.444 60.1129C165.112 59.2588 165.525 58.2934 166.366 57.9566L189.298 48.7795C190.14 48.4427 191.091 48.8621 191.423 49.7162C191.754 50.5703 191.341 51.5357 190.5 51.8725L167.568 61.0496C166.727 61.3864 165.775 60.967 165.444 60.1129Z" fill="#0E7244"/>
<path d="M55.8582 151.504C56.4756 154.346 53.7683 157.368 49.8111 158.254C45.854 159.139 42.1456 157.554 41.5281 154.712C40.9107 151.87 43.6181 148.848 47.5752 147.963C51.5323 147.077 55.2408 148.663 55.8582 151.504Z" fill="#0E7244"/>
<path d="M80.077 145.275C80.6944 148.117 77.987 151.138 74.0299 152.024C70.0727 152.91 66.3643 151.324 65.7469 148.482C65.1294 145.641 67.8368 142.619 71.7939 141.733C75.7511 140.848 79.4595 142.433 80.077 145.275Z" fill="#0E7244"/>
<path fill-rule="evenodd" clip-rule="evenodd" d="M54.9759 153.16C54.4331 153.16 53.9932 152.714 53.9932 152.163L53.9932 115.658C53.9932 115.107 54.4331 114.66 54.9759 114.66C55.5186 114.66 55.9586 115.107 55.9586 115.658L55.9586 152.163C55.9586 152.714 55.5186 153.16 54.9759 153.16Z" fill="#0E7244"/>
<path fill-rule="evenodd" clip-rule="evenodd" d="M79.2044 147.217C78.6617 147.217 78.2217 146.77 78.2217 146.219L78.2217 106.48C78.2217 105.929 78.6617 105.483 79.2044 105.483C79.7471 105.483 80.1871 105.929 80.1871 106.48L80.1871 146.219C80.1871 146.77 79.7471 147.217 79.2044 147.217Z" fill="#0E7244"/>
<path fill-rule="evenodd" clip-rule="evenodd" d="M54.0861 116.266C53.7543 115.412 54.1675 114.447 55.009 114.11L77.9407 104.933C78.7822 104.596 79.7333 105.015 80.0651 105.87C80.397 106.724 79.9837 107.689 79.1422 108.026L56.2106 117.203C55.3691 117.54 54.4179 117.12 54.0861 116.266Z" fill="#0E7244"/>
<path d="M54.2441 117.517L78.4082 108.344L80.1075 112.956L55.9434 122.128L54.2441 117.517Z" fill="#0E7244"/>
<path d="M100.85 185.069C101.468 187.911 98.7605 190.932 94.8033 191.818C90.8462 192.704 87.1377 191.118 86.5203 188.276C85.9029 185.435 88.6102 182.413 92.5674 181.527C96.5245 180.641 100.233 182.227 100.85 185.069Z" fill="#0E7244"/>
<path fill-rule="evenodd" clip-rule="evenodd" d="M99.97 187.67C99.4273 187.67 98.9873 187.223 98.9873 186.673L98.9873 150.168C98.9873 149.617 99.4273 149.17 99.97 149.17C100.513 149.17 100.953 149.617 100.953 150.168L100.953 186.673C100.953 187.223 100.513 187.67 99.97 187.67Z" fill="#0E7244"/>
<path fill-rule="evenodd" clip-rule="evenodd" d="M102.374 150.154C102.368 149.242 101.637 148.505 100.736 148.505C99.8319 148.505 99.0986 149.249 99.0986 150.167L100.736 150.167C99.0986 150.167 99.0986 150.168 99.0986 150.169L99.0986 150.171L99.0987 150.176L99.0987 150.186C99.0988 150.194 99.0989 150.203 99.0991 150.213C99.0995 150.234 99.1001 150.26 99.1013 150.291C99.1036 150.354 99.1078 150.436 99.1157 150.537C99.1313 150.739 99.1615 151.015 99.2196 151.346C99.3353 152.006 99.565 152.903 100.024 153.876C100.961 155.862 102.818 158.077 106.351 159.237C106.794 159.383 107.047 159.6 107.215 159.845C107.399 160.112 107.548 160.509 107.611 161.085C107.742 162.276 107.472 163.87 106.953 165.594C106.445 167.282 105.749 168.932 105.171 170.173C104.884 170.791 104.63 171.299 104.448 171.651C104.358 171.827 104.286 171.963 104.237 172.054C104.213 172.099 104.194 172.133 104.182 172.155L104.169 172.179L104.167 172.184C104.167 172.184 104.167 172.184 104.167 172.184C103.724 172.984 104.004 173.998 104.793 174.447C105.581 174.897 106.58 174.612 107.023 173.812L105.595 172.998C107.023 173.812 107.023 173.811 107.023 173.811L107.025 173.807L107.031 173.797L107.049 173.764C107.065 173.735 107.087 173.694 107.115 173.641C107.172 173.536 107.252 173.384 107.351 173.191C107.55 172.806 107.824 172.257 108.133 171.593C108.748 170.272 109.514 168.463 110.085 166.566C110.646 164.706 111.073 162.59 110.867 160.716C110.762 159.76 110.483 158.785 109.899 157.939C109.3 157.07 108.445 156.431 107.359 156.074C104.773 155.225 103.571 153.696 102.978 152.44C102.673 151.792 102.52 151.194 102.445 150.763C102.407 150.55 102.389 150.382 102.381 150.276C102.377 150.223 102.375 150.186 102.375 150.167C102.374 150.161 102.374 150.157 102.374 150.154Z" fill="#0E7244"/>
<path d="M151.658 131.11C152.275 133.952 149.568 136.973 145.611 137.859C141.654 138.745 137.945 137.159 137.328 134.317C136.71 131.476 139.418 128.454 143.375 127.568C147.332 126.682 151.041 128.268 151.658 131.11Z" fill="#0E7244"/>
<path fill-rule="evenodd" clip-rule="evenodd" d="M150.778 133.712C150.235 133.712 149.795 133.265 149.795 132.714L149.795 96.2096C149.795 95.6587 150.235 95.2122 150.778 95.2122C151.32 95.2122 151.76 95.6587 151.76 96.2096L151.76 132.714C151.76 133.265 151.32 133.712 150.778 133.712Z" fill="#0E7244"/>
<path fill-rule="evenodd" clip-rule="evenodd" d="M153.182 96.1965C153.175 95.2843 152.444 94.5469 151.544 94.5469C150.64 94.5469 149.906 95.2911 149.906 96.2092L151.544 96.2092C149.906 96.2092 149.906 96.2102 149.906 96.2111L149.906 96.2132L149.906 96.2176L149.906 96.2281C149.906 96.2358 149.907 96.2448 149.907 96.2552C149.907 96.276 149.908 96.3021 149.909 96.3333C149.911 96.3956 149.915 96.4784 149.923 96.5793C149.939 96.7809 149.969 97.0568 150.027 97.3881C150.143 98.0482 150.373 98.9451 150.832 99.918C151.769 101.904 153.626 104.119 157.158 105.279C157.602 105.425 157.854 105.642 158.023 105.887C158.207 106.154 158.356 106.551 158.419 107.127C158.55 108.318 158.28 109.912 157.76 111.636C157.252 113.324 156.556 114.974 155.979 116.215C155.691 116.833 155.437 117.341 155.256 117.693C155.165 117.869 155.093 118.005 155.045 118.096C155.02 118.141 155.002 118.175 154.99 118.197L154.977 118.221L154.974 118.226C154.974 118.226 154.974 118.226 154.974 118.226C154.532 119.026 154.812 120.04 155.6 120.489C156.389 120.939 157.387 120.654 157.83 119.854L156.402 119.04C157.83 119.854 157.831 119.853 157.831 119.853L157.833 119.849L157.838 119.839L157.857 119.806C157.872 119.777 157.895 119.736 157.923 119.683C157.979 119.578 158.06 119.426 158.159 119.233C158.357 118.848 158.632 118.299 158.941 117.635C159.555 116.314 160.322 114.505 160.893 112.608C161.453 110.748 161.881 108.632 161.674 106.758C161.569 105.802 161.29 104.827 160.707 103.981C160.108 103.112 159.252 102.473 158.167 102.116C155.58 101.267 154.379 99.7381 153.786 98.4821C153.48 97.834 153.328 97.2355 153.252 96.8054C153.215 96.5917 153.197 96.4238 153.189 96.3179C153.185 96.2651 153.183 96.2282 153.182 96.2093C153.182 96.2029 153.182 96.1987 153.182 96.1965Z" fill="#0E7244"/>
<path d="M136.211 163.71C136.211 167.199 133.424 170.028 129.987 170.028C126.549 170.028 123.762 167.199 123.762 163.71C123.762 160.22 126.549 157.392 129.987 157.392C133.424 157.392 136.211 160.22 136.211 163.71Z" fill="#0E7244"/>
<path fill-rule="evenodd" clip-rule="evenodd" d="M85.5437 113.625C66.5344 115.368 43.4672 109.938 10.9193 90.8447C10.8605 90.8102 10.8404 90.734 10.8744 90.6744C10.9083 90.6147 10.9835 90.5943 11.0422 90.6288C43.5659 109.708 66.5815 115.114 85.5216 113.376C104.174 111.666 118.891 103.028 134.873 93.6476C135.123 93.501 135.373 93.3543 135.623 93.2074C151.892 83.6609 169.539 73.4563 193.981 69.1207C218.423 64.7849 249.651 66.3197 293.088 80.2282C293.153 80.2489 293.189 80.3189 293.168 80.3846C293.148 80.4503 293.079 80.4867 293.014 80.466C249.604 66.5664 218.418 65.039 194.023 69.3663C169.628 73.6937 152.014 83.8773 135.746 93.4233C135.489 93.5738 135.233 93.7241 134.978 93.8742C119.009 103.247 104.25 111.909 85.5437 113.625Z" fill="#0E7244"/>
<path fill-rule="evenodd" clip-rule="evenodd" d="M193.952 68.9569C218.426 64.6154 249.681 66.1552 293.136 80.0696C293.287 80.1179 293.371 80.2814 293.324 80.4346C293.276 80.5878 293.115 80.6728 292.964 80.6245C249.573 66.7308 218.413 65.2084 194.05 69.53C169.686 73.8518 152.095 84.0215 135.827 93.5672L135.045 94.0261C119.086 103.393 104.3 112.071 85.5576 113.79C66.5022 115.538 43.4006 110.092 10.8364 90.9886C10.6994 90.9082 10.6525 90.7302 10.7317 90.5911C10.8109 90.452 10.9862 90.4044 11.1233 90.4848C43.6308 109.555 66.612 114.944 85.506 113.211C104.117 111.504 118.804 102.886 134.79 93.5036L135.54 93.0635C151.81 83.5165 169.479 73.298 193.952 68.9569Z" fill="#0E7244"/>
<path fill-rule="evenodd" clip-rule="evenodd" d="M293.164 80.4123C293.147 80.4788 293.079 80.5181 293.014 80.5C248.264 68.1887 217.454 69.8455 194.025 77.7632C171.89 85.2437 156.331 98.3156 141.812 110.514C140.962 111.228 140.115 111.94 139.27 112.647C124.014 125.424 109.554 136.804 89.3474 139.044C69.1412 141.285 43.2144 134.385 5.02052 110.681C4.96264 110.645 4.94441 110.568 4.9798 110.51C5.0152 110.451 5.09081 110.433 5.14869 110.468C43.3245 134.161 69.1942 141.028 89.3207 138.796C109.446 136.565 123.855 125.234 139.114 112.455C139.96 111.746 140.809 111.033 141.661 110.317C156.176 98.1216 171.768 85.0223 193.948 77.5266C217.434 69.5897 248.294 67.9388 293.078 80.2594C293.143 80.2774 293.182 80.3459 293.164 80.4123Z" fill="#0E7244"/>
<path fill-rule="evenodd" clip-rule="evenodd" d="M293.121 80.0986C293.274 80.1406 293.364 80.3004 293.323 80.4555C293.281 80.6105 293.124 80.7022 292.971 80.6602C248.244 68.3551 217.468 70.0158 194.077 77.9206C171.975 85.3901 156.437 98.4423 141.917 110.641L141.908 110.649C141.06 111.361 140.216 112.07 139.375 112.775C124.121 125.55 109.626 136.963 89.3654 139.209C69.1061 141.455 43.1412 134.534 4.93528 110.823C4.80024 110.739 4.75768 110.56 4.84027 110.423C4.92285 110.286 5.09928 110.242 5.23433 110.326C43.3981 134.012 69.2297 140.856 89.3031 138.631C109.375 136.405 123.749 125.107 139.01 112.326C139.854 111.619 140.701 110.907 141.552 110.193L141.564 110.183C156.076 97.9901 171.687 84.874 193.896 77.3686C217.42 69.4188 248.315 67.7718 293.121 80.0986Z" fill="#0E7244"/>
<path fill-rule="evenodd" clip-rule="evenodd" d="M293.132 80.4111C293.12 80.479 293.057 80.5249 292.99 80.5136C247.02 72.7471 216.593 76.9631 194.265 86.5837C172.676 95.8862 158.648 110.246 145.454 123.753C145.002 124.215 144.551 124.677 144.1 125.138C130.508 139.036 117.557 151.81 97.818 156.852C78.0793 161.894 51.5767 159.199 10.8863 142.225C10.8235 142.199 10.7935 142.126 10.8193 142.063C10.8451 141.999 10.9169 141.969 10.9796 141.995C51.6491 158.959 78.0932 161.633 97.758 156.61C117.423 151.588 130.331 138.863 143.926 124.962C144.379 124.499 144.832 124.035 145.287 123.57C158.477 110.067 172.535 95.6761 194.169 86.3541C216.551 76.7101 247.029 72.4958 293.031 80.2676C293.098 80.2789 293.143 80.3431 293.132 80.4111Z" fill="#0E7244"/>
<path fill-rule="evenodd" clip-rule="evenodd" d="M293.059 80.1039C293.215 80.1303 293.32 80.2801 293.294 80.4386C293.268 80.5971 293.121 80.7042 292.965 80.6778C247.016 72.915 216.621 77.1322 194.331 86.737C172.774 96.0252 158.767 110.363 145.572 123.87C145.119 124.333 144.668 124.795 144.218 125.255C130.628 139.151 117.647 151.959 97.8592 157.014C78.0714 162.068 51.5297 159.359 10.8253 142.379C10.6789 142.318 10.609 142.148 10.6691 142C10.7293 141.851 10.8968 141.78 11.0432 141.841C51.6987 158.8 78.1038 161.46 97.7193 156.45C117.335 151.439 130.214 138.749 143.811 124.845C144.251 124.396 144.691 123.945 145.133 123.492L145.178 123.447C158.365 109.947 172.442 95.5362 194.107 86.2014C216.525 76.5416 247.036 72.3285 293.059 80.1039Z" fill="#0E7244"/>
<path fill-rule="evenodd" clip-rule="evenodd" d="M293.166 80.4043C293.161 80.473 293.103 80.525 293.035 80.5205C246.767 77.426 217.19 83.8552 196.18 94.5522C175.794 104.932 163.463 119.334 151.77 132.993C151.412 133.411 151.054 133.828 150.697 134.245C138.681 148.268 127.097 161.349 107.835 168.205C88.5738 175.061 61.6554 175.688 18.9764 164.859C18.9106 164.842 18.8706 164.775 18.887 164.708C18.9035 164.641 18.9702 164.6 19.036 164.617C61.694 175.441 88.5576 174.803 107.753 167.97C126.947 161.138 138.494 148.105 150.512 134.081C150.871 133.662 151.23 133.242 151.59 132.822C163.281 119.167 175.64 104.731 196.07 94.3293C217.13 83.6065 246.755 77.1753 293.051 80.2717C293.119 80.2762 293.17 80.3356 293.166 80.4043Z" fill="#0E7244"/>
<path fill-rule="evenodd" clip-rule="evenodd" d="M293.062 80.105C293.22 80.1155 293.34 80.2541 293.329 80.4144C293.319 80.5747 293.183 80.6961 293.025 80.6856C246.776 77.5923 217.23 84.0202 196.254 94.6999C175.9 105.063 163.587 119.442 151.894 133.101L151.871 133.128C151.52 133.537 151.17 133.946 150.821 134.353C138.805 148.375 127.196 161.489 107.889 168.361C88.5851 175.233 61.63 175.852 18.9371 165.019C18.7835 164.981 18.6901 164.823 18.7285 164.667C18.7669 164.511 18.9225 164.416 19.0761 164.455C61.7201 175.275 88.5472 174.63 107.699 167.812C126.848 160.996 138.37 147.996 150.388 133.972C150.747 133.553 151.107 133.133 151.467 132.712L151.472 132.706C163.161 119.053 175.538 104.597 195.997 94.1799C217.091 83.4399 246.747 77.0073 293.062 80.105Z" fill="#0E7244"/>
<path fill-rule="evenodd" clip-rule="evenodd" d="M293.173 80.3453C293.174 80.4142 293.12 80.4709 293.052 80.4719C246.69 81.2112 217.768 90.0703 197.748 102.478C178.313 114.525 167.257 129.922 156.773 144.522C156.458 144.961 156.143 145.399 155.829 145.837C145.06 160.82 134.647 174.83 116.061 183.266C97.4766 191.702 70.7391 194.557 27.3332 187.291C27.2663 187.28 27.221 187.216 27.232 187.148C27.243 187.08 27.3062 187.034 27.3732 187.045C70.7579 194.308 97.4395 191.445 115.961 183.038C134.481 174.632 144.861 160.675 155.63 145.69C155.947 145.25 156.263 144.809 156.581 144.367C167.061 129.771 178.142 114.338 197.62 102.266C217.688 89.8274 246.657 80.9623 293.048 80.2226C293.116 80.2215 293.172 80.2765 293.173 80.3453Z" fill="#0E7244"/>
<path fill-rule="evenodd" clip-rule="evenodd" d="M293.047 80.0565C293.205 80.054 293.335 80.1822 293.338 80.3429C293.34 80.5035 293.214 80.6358 293.056 80.6383C246.712 81.3772 217.822 90.2324 197.835 102.62C178.43 114.648 167.39 130.02 156.907 144.62C156.591 145.059 156.277 145.497 155.962 145.935C145.194 160.917 134.759 174.961 116.129 183.418C97.5021 191.873 70.7274 194.724 27.3074 187.456C27.1512 187.429 27.0454 187.28 27.0712 187.121C27.097 186.963 27.2445 186.855 27.4006 186.881C70.7712 194.142 97.4156 191.274 115.895 182.887C134.371 174.5 144.728 160.578 155.499 145.592C155.715 145.292 155.931 144.991 156.147 144.69L156.454 144.263C166.933 129.669 178.03 114.214 197.536 102.124C217.636 89.6655 246.637 80.7965 293.047 80.0565Z" fill="#0E7244"/>
<path d="M247.198 117.852L246.899 117.119L246.774 116.816L246.517 117.017L245.896 117.503C237.432 124.121 230.706 127.749 223.584 128.575C216.463 129.401 208.805 127.442 198.447 122.556L197.739 122.222L197.446 122.084L197.39 122.406L197.252 123.186L197.252 123.186L197.252 123.187L197.252 123.187L197.208 123.433L197.211 123.434C197.205 123.472 197.198 123.515 197.191 123.562C197.154 123.802 197.104 124.154 197.047 124.605C196.932 125.506 196.793 126.804 196.689 128.402C196.483 131.596 196.42 136 196.998 140.836C198.15 150.482 201.876 162.004 212.284 168.927C217.288 172.255 220.421 174.923 222.603 176.781L222.629 176.803L222.78 176.622L222.629 176.803L222.64 176.812C223.709 177.723 224.59 178.473 225.351 178.996C226.115 179.521 226.872 179.9 227.693 179.925C228.539 179.952 229.288 179.6 230.028 179.038C230.756 178.483 231.561 177.657 232.531 176.595C233.016 176.064 233.551 175.463 234.149 174.793L234.149 174.793C235.969 172.75 238.382 170.041 241.799 166.571C250.808 157.423 252.109 145.165 251.216 135.33C250.768 130.401 249.766 126.04 248.878 122.913C248.433 121.348 248.016 120.089 247.709 119.219C247.555 118.784 247.429 118.446 247.341 118.215L247.111 118.305L247.341 118.215C247.323 118.168 247.307 118.126 247.292 118.088L247.295 118.087L247.203 117.863L247.203 117.863L247.201 117.858L247.201 117.857L247.2 117.856L247.2 117.856L247.2 117.855L247.2 117.855L247.198 117.852ZM198.733 124.824C198.743 124.747 198.753 124.672 198.762 124.601C208.721 129.191 216.444 131.14 223.777 130.289C231.092 129.44 237.888 125.821 246.026 119.572C246.053 119.645 246.08 119.721 246.108 119.8C246.404 120.641 246.81 121.865 247.244 123.391C248.111 126.444 249.087 130.695 249.522 135.488C250.395 145.098 249.088 156.729 240.596 165.353C237.146 168.856 234.696 171.606 232.874 173.651L232.873 173.651C232.281 174.317 231.755 174.906 231.283 175.423C230.311 176.489 229.599 177.208 229.007 177.658C228.427 178.099 228.054 178.211 227.745 178.201C227.412 178.191 226.984 178.035 226.305 177.568C225.627 177.102 224.814 176.412 223.705 175.467L223.697 175.46L223.544 175.643L223.696 175.46L223.696 175.46C221.498 173.588 218.304 170.869 213.217 167.485C203.417 160.967 199.812 150.055 198.686 140.628C198.124 135.926 198.185 131.633 198.386 128.515C198.487 126.956 198.623 125.694 198.733 124.824Z" fill="#0E7244" stroke="#0E7244" stroke-width="0.5" stroke-linecap="round"/>
<path d="M220.921 144.177L221.404 144.248L221.177 143.811C218.381 138.426 214.578 135.874 210.968 136.246C207.359 136.619 204.104 139.9 202.368 145.813L202.223 146.307L202.697 146.118C206.667 144.536 209.049 143.737 211.517 143.486C213.989 143.235 216.562 143.531 220.921 144.177Z" fill="#0E7244" stroke="#0E7244" stroke-width="0.5" stroke-linecap="round"/>
<path d="M245.635 141.191L246.114 141.257L245.889 140.824C243.093 135.439 239.289 132.887 235.68 133.26C232.071 133.633 228.816 136.913 227.08 142.826L226.938 143.308L227.404 143.134C231.273 141.687 233.609 140.899 236.084 140.62C238.558 140.341 241.185 140.57 245.635 141.191Z" fill="#0E7244" stroke="#0E7244" stroke-width="0.5" stroke-linecap="round"/>
<path d="M211.23 158.069L210.737 157.993L210.974 158.437C215.542 166.986 221.699 170.951 227.478 170.322C233.256 169.693 238.503 164.486 241.289 155.04L241.439 154.532L240.956 154.736C234.628 157.405 230.77 158.776 226.716 159.216C222.659 159.656 218.389 159.164 211.23 158.069Z" fill="#0E7244" stroke="#0E7244" stroke-width="0.5" stroke-linecap="round"/>
<path d="M310.998 145.973L311.177 145.201L311.251 144.881L310.925 144.891L310.14 144.917C299.462 145.263 291.916 144.215 285.663 140.659C279.409 137.104 274.326 130.97 268.738 120.86L268.356 120.169L268.197 119.881L267.965 120.109L267.404 120.66L267.404 120.661L267.403 120.661L267.403 120.662L267.227 120.835L267.229 120.837C267.202 120.865 267.171 120.896 267.138 120.93C266.97 121.103 266.726 121.358 266.42 121.69C265.808 122.353 264.947 123.323 263.943 124.558C261.935 127.027 259.347 130.563 257.031 134.828C252.409 143.337 248.794 154.896 253.251 166.689C255.393 172.358 256.398 176.381 257.098 179.184L257.106 179.217L257.328 179.162L257.106 179.217L257.109 179.23C257.452 180.604 257.735 181.736 258.051 182.611C258.369 183.491 258.765 184.247 259.416 184.755C260.088 185.279 260.898 185.438 261.823 185.421C262.733 185.404 263.862 185.211 265.261 184.925C265.96 184.782 266.739 184.612 267.61 184.423L267.611 184.422C270.265 183.845 273.783 183.08 278.553 182.293C291.132 180.217 299.248 171.045 304.189 162.536C306.665 158.272 308.364 154.14 309.445 151.075C309.986 149.542 310.372 148.273 310.624 147.385C310.751 146.941 310.843 146.592 310.904 146.353C310.917 146.304 310.928 146.259 310.938 146.219L310.941 146.22L310.995 145.985L310.995 145.985L310.997 145.98L310.997 145.979L310.997 145.978L310.997 145.978L310.997 145.977L310.997 145.977L310.998 145.973ZM258.746 178.763L258.505 178.823L258.746 178.763L258.746 178.763C258.041 175.94 257.017 171.838 254.839 166.074C250.643 154.971 254.004 143.979 258.521 135.662C260.774 131.514 263.296 128.067 265.256 125.657C266.236 124.453 267.073 123.509 267.664 122.869C267.716 122.812 267.767 122.757 267.815 122.705C273.25 132.338 278.393 138.502 284.833 142.163C291.256 145.815 298.854 146.912 309.055 146.672C309.035 146.746 309.013 146.824 308.99 146.905C308.746 147.763 308.37 148.997 307.843 150.492C306.788 153.484 305.131 157.512 302.723 161.659C297.895 169.974 290.135 178.634 278.277 180.591C273.461 181.386 269.888 182.163 267.232 182.74L267.232 182.741C266.367 182.929 265.601 183.095 264.921 183.235C263.518 183.522 262.526 183.683 261.787 183.697C261.063 183.711 260.695 183.58 260.451 183.389C260.187 183.183 259.93 182.803 259.648 182.021C259.367 181.241 259.105 180.198 258.749 178.774L258.746 178.763Z" fill="#0E7244" stroke="#0E7244" stroke-width="0.5" stroke-linecap="round"/>
<path d="M263.265 134.571L262.921 134.153L262.829 134.687C261.805 140.684 263.281 145.062 266.365 147.004C269.449 148.946 274.001 148.364 278.932 144.758L279.372 144.436L278.841 144.309C274.598 143.295 272.145 142.594 270.033 141.289C267.923 139.984 266.137 138.066 263.265 134.571Z" fill="#0E7244" stroke="#0E7244" stroke-width="0.5" stroke-linecap="round"/>
<path d="M283.994 147.322L283.648 146.879L283.554 147.432C282.529 153.429 284.006 157.807 287.09 159.75C290.174 161.691 294.725 161.109 299.656 157.503L300.124 157.16L299.554 157.051C295.377 156.255 292.941 155.663 290.824 154.362C288.706 153.06 286.89 151.037 283.994 147.322Z" fill="#0E7244" stroke="#0E7244" stroke-width="0.5" stroke-linecap="round"/>
<path d="M280.315 177.478L280.664 177.944L280.758 177.37C282.231 168.399 279.938 161.875 275.312 158.962C270.686 156.05 263.861 156.832 256.455 162.173L255.944 162.541L256.569 162.627C263.001 163.507 266.701 164.262 269.908 166.259C273.119 168.258 275.857 171.516 280.315 177.478Z" fill="#0E7244" stroke="#0E7244" stroke-width="0.5" stroke-linecap="round"/>
</g>
<defs>
<filter id="filter0_d_1421_2321" x="0.797852" y="41.123" width="314.77" height="160.935" filterUnits="userSpaceOnUse" color-interpolation-filters="sRGB">
<feFlood flood-opacity="0" result="BackgroundImageFix"/>
<feColorMatrix in="SourceAlpha" type="matrix" values="0 0 0 0 0 0 0 0 0 0 0 0 0 0 0 0 0 0 127 0" result="hardAlpha"/>
<feOffset dy="4"/>
<feGaussianBlur stdDeviation="2"/>
<feComposite in2="hardAlpha" operator="out"/>
<feColorMatrix type="matrix" values="0 0 0 0 0 0 0 0 0 0 0 0 0 0 0 0 0 0 0.25 0"/>
<feBlend mode="normal" in2="BackgroundImageFix" result="effect1_dropShadow_1421_2321"/>
<feBlend mode="normal" in="SourceGraphic" in2="effect1_dropShadow_1421_2321" result="shape"/>
</filter>
</defs>
</svg>
