<svg width="475" height="334" viewBox="0 0 475 334" fill="none" xmlns="http://www.w3.org/2000/svg">
<path d="M175.066 203.843C176.008 208.111 171.88 212.649 165.848 213.98C159.815 215.31 154.162 212.928 153.221 208.66C152.28 204.392 156.407 199.853 162.439 198.523C168.472 197.193 174.125 199.574 175.066 203.843Z" fill="#9E8D78"/>
<path fill-rule="evenodd" clip-rule="evenodd" d="M173.62 207.75C172.793 207.75 172.122 207.079 172.122 206.252L172.122 151.422C172.122 150.595 172.793 149.924 173.62 149.924C174.448 149.924 175.118 150.595 175.118 151.422L175.118 206.252C175.118 207.079 174.448 207.75 173.62 207.75Z" fill="#9E8D78"/>
<path d="M50.2647 280.403C51.206 284.671 47.0787 289.21 41.0462 290.54C35.0137 291.871 29.3604 289.489 28.4191 285.221C27.4779 280.952 31.6051 276.414 37.6376 275.083C43.6701 273.753 49.3235 276.135 50.2647 280.403Z" fill="#9E8D78"/>
<path fill-rule="evenodd" clip-rule="evenodd" d="M48.8184 284.311C47.991 284.311 47.3203 283.64 47.3203 282.812L47.3203 227.983C47.3203 227.155 47.991 226.485 48.8184 226.485C49.6458 226.485 50.3165 227.155 50.3165 227.983L50.3165 282.812C50.3165 283.64 49.6458 284.311 48.8184 284.311Z" fill="#9E8D78"/>
<path d="M252.099 131.397C253.04 135.666 248.913 140.204 242.88 141.534C236.848 142.865 231.194 140.483 230.253 136.215C229.312 131.946 233.439 127.408 239.472 126.078C245.504 124.747 251.157 127.129 252.099 131.397Z" fill="#9E8D78"/>
<path d="M289.021 116.614C289.962 120.882 285.835 125.421 279.802 126.751C273.77 128.081 268.116 125.7 267.175 121.432C266.234 117.163 270.361 112.625 276.394 111.294C282.426 109.964 288.079 112.346 289.021 116.614Z" fill="#9E8D78"/>
<path fill-rule="evenodd" clip-rule="evenodd" d="M250.754 133.882C249.927 133.882 249.256 133.211 249.256 132.384L249.256 77.5541C249.256 76.7267 249.927 76.056 250.754 76.056C251.581 76.056 252.252 76.7267 252.252 77.5541L252.252 132.384C252.252 133.211 251.581 133.882 250.754 133.882Z" fill="#A18877"/>
<path fill-rule="evenodd" clip-rule="evenodd" d="M287.69 119.05C286.862 119.05 286.191 118.379 286.191 117.552L286.191 63.771C286.191 62.9436 286.862 62.2729 287.69 62.2729C288.517 62.2729 289.188 62.9436 289.188 63.771L289.188 117.552C289.188 118.379 288.517 119.05 287.69 119.05Z" fill="#A18877"/>
<path fill-rule="evenodd" clip-rule="evenodd" d="M249.405 77.7189C248.92 76.4281 249.573 74.9884 250.864 74.5033L285.823 61.3649C287.114 60.8797 288.553 61.5329 289.038 62.8237C289.523 64.1145 288.87 65.5542 287.579 66.0393L252.621 79.1778C251.33 79.6629 249.89 79.0097 249.405 77.7189Z" fill="#A18877"/>
<path fill-rule="evenodd" clip-rule="evenodd" d="M249.42 89.7271C248.914 88.4443 249.544 86.9942 250.827 86.4884L285.785 72.7046C287.068 72.1988 288.518 72.8287 289.024 74.1115C289.529 75.3944 288.9 76.8444 287.617 77.3502L252.658 91.134C251.376 91.6399 249.926 91.01 249.42 89.7271Z" fill="#A18877"/>
<path d="M82.3604 226.996C83.3017 231.264 79.1744 235.803 73.1419 237.133C67.1094 238.463 61.4561 236.082 60.5148 231.813C59.5736 227.545 63.7009 223.007 69.7333 221.676C75.7658 220.346 81.4192 222.728 82.3604 226.996Z" fill="#9E8D78"/>
<path d="M119.281 217.639C120.223 221.908 116.095 226.446 110.063 227.777C104.03 229.107 98.377 226.725 97.4357 222.457C96.4945 218.189 100.622 213.65 106.654 212.32C112.687 210.989 118.34 213.371 119.281 217.639Z" fill="#9E8D78"/>
<path fill-rule="evenodd" clip-rule="evenodd" d="M81.0157 229.481C80.1883 229.481 79.5176 228.811 79.5176 227.983L79.5176 173.154C79.5176 172.326 80.1883 171.656 81.0157 171.656C81.8431 171.656 82.5138 172.326 82.5138 173.154L82.5138 227.983C82.5138 228.811 81.8431 229.481 81.0157 229.481Z" fill="#A18877"/>
<path fill-rule="evenodd" clip-rule="evenodd" d="M117.951 220.556C117.124 220.556 116.453 219.885 116.453 219.058L116.453 159.37C116.453 158.542 117.124 157.872 117.951 157.872C118.779 157.872 119.449 158.542 119.449 159.37L119.449 219.058C119.449 219.885 118.779 220.556 117.951 220.556Z" fill="#A18877"/>
<path fill-rule="evenodd" clip-rule="evenodd" d="M79.66 174.069C79.1542 172.786 79.7841 171.336 81.0669 170.83L116.025 157.046C117.308 156.541 118.758 157.17 119.264 158.453C119.77 159.736 119.14 161.186 117.857 161.692L82.8987 175.476C81.6158 175.982 80.1658 175.352 79.66 174.069Z" fill="#A18877"/>
<path d="M79.9004 175.945L116.737 162.169L119.328 169.095L82.4908 182.872L79.9004 175.945Z" fill="#9E8D78"/>
<path d="M150.948 277.408C151.89 281.676 147.762 286.215 141.73 287.545C135.697 288.875 130.044 286.494 129.103 282.225C128.161 277.957 132.289 273.419 138.321 272.088C144.354 270.758 150.007 273.14 150.948 277.408Z" fill="#9E8D78"/>
<path fill-rule="evenodd" clip-rule="evenodd" d="M149.607 281.314C148.779 281.314 148.108 280.644 148.108 279.816L148.108 224.987C148.108 224.159 148.779 223.489 149.607 223.489C150.434 223.489 151.105 224.159 151.105 224.987L151.105 279.816C151.105 280.644 150.434 281.314 149.607 281.314Z" fill="#9E8D78"/>
<path fill-rule="evenodd" clip-rule="evenodd" d="M153.271 224.968C153.261 223.598 152.147 222.49 150.774 222.49C149.395 222.49 148.277 223.608 148.277 224.987L150.774 224.987C148.277 224.987 148.277 224.988 148.277 224.99L148.277 224.993L148.277 225L148.277 225.015C148.278 225.027 148.278 225.041 148.278 225.056C148.279 225.087 148.28 225.127 148.281 225.173C148.285 225.267 148.291 225.391 148.303 225.543C148.327 225.846 148.373 226.26 148.462 226.758C148.638 227.749 148.988 229.096 149.688 230.558C151.116 233.54 153.948 236.868 159.333 238.61C160.009 238.829 160.394 239.155 160.651 239.522C160.931 239.924 161.158 240.52 161.255 241.385C161.454 243.175 161.043 245.568 160.251 248.158C159.476 250.692 158.415 253.171 157.534 255.036C157.097 255.963 156.709 256.726 156.433 257.255C156.295 257.519 156.185 257.724 156.111 257.86C156.074 257.928 156.045 257.98 156.027 258.012L156.008 258.048L156.004 258.055C156.003 258.055 156.003 258.056 156.003 258.056C155.328 259.258 155.756 260.78 156.958 261.455C158.16 262.13 159.682 261.703 160.357 260.501L158.18 259.278C160.357 260.501 160.358 260.5 160.358 260.5L160.361 260.494L160.37 260.479L160.398 260.428C160.421 260.385 160.455 260.324 160.498 260.245C160.584 260.086 160.707 259.858 160.858 259.568C161.161 258.99 161.579 258.165 162.05 257.168C162.987 255.184 164.155 252.467 165.026 249.618C165.88 246.825 166.532 243.645 166.217 240.831C166.057 239.395 165.632 237.931 164.743 236.66C163.829 235.355 162.525 234.395 160.87 233.859C156.927 232.583 155.095 230.287 154.192 228.401C153.726 227.427 153.493 226.529 153.378 225.883C153.321 225.561 153.294 225.309 153.282 225.15C153.275 225.071 153.273 225.016 153.272 224.987C153.271 224.978 153.271 224.971 153.271 224.968Z" fill="#9E8D78"/>
<path d="M228.404 196.364C229.346 200.632 225.218 205.171 219.186 206.501C213.153 207.831 207.5 205.45 206.559 201.182C205.618 196.913 209.745 192.375 215.777 191.044C221.81 189.714 227.463 192.096 228.404 196.364Z" fill="#9E8D78"/>
<path fill-rule="evenodd" clip-rule="evenodd" d="M227.063 200.271C226.235 200.271 225.564 199.6 225.564 198.772L225.564 143.943C225.564 143.115 226.235 142.445 227.063 142.445C227.89 142.445 228.561 143.115 228.561 143.943L228.561 198.772C228.561 199.6 227.89 200.271 227.063 200.271Z" fill="#9E8D78"/>
<path fill-rule="evenodd" clip-rule="evenodd" d="M230.727 143.924C230.717 142.554 229.603 141.446 228.23 141.446C226.851 141.446 225.733 142.564 225.733 143.943L228.23 143.943C225.733 143.943 225.733 143.945 225.733 143.946L225.733 143.949L225.733 143.956L225.734 143.972C225.734 143.983 225.734 143.997 225.734 144.012C225.735 144.043 225.736 144.083 225.737 144.129C225.741 144.223 225.747 144.347 225.759 144.499C225.783 144.802 225.829 145.216 225.918 145.714C226.094 146.705 226.444 148.052 227.144 149.514C228.573 152.496 231.404 155.824 236.789 157.566C237.465 157.785 237.85 158.111 238.107 158.478C238.387 158.88 238.614 159.476 238.711 160.341C238.911 162.131 238.499 164.524 237.707 167.114C236.932 169.648 235.871 172.127 234.99 173.992C234.553 174.919 234.165 175.682 233.889 176.211C233.751 176.475 233.641 176.68 233.567 176.816C233.53 176.885 233.502 176.936 233.483 176.969L233.464 177.004L233.46 177.011C233.459 177.011 233.459 177.012 233.459 177.012C232.784 178.214 233.212 179.736 234.414 180.411C235.616 181.086 237.138 180.659 237.813 179.457L235.637 178.234C237.813 179.457 237.814 179.456 237.814 179.456L237.818 179.45L237.826 179.435L237.854 179.385C237.877 179.341 237.911 179.28 237.954 179.201C238.04 179.042 238.163 178.814 238.314 178.524C238.617 177.946 239.035 177.121 239.506 176.124C240.443 174.14 241.611 171.423 242.482 168.574C243.336 165.781 243.988 162.601 243.673 159.787C243.513 158.351 243.088 156.888 242.199 155.616C241.286 154.311 239.981 153.351 238.326 152.815C234.384 151.539 232.551 149.243 231.648 147.357C231.182 146.383 230.949 145.485 230.834 144.839C230.777 144.518 230.75 144.265 230.738 144.106C230.731 144.027 230.729 143.972 230.728 143.943C230.727 143.934 230.727 143.927 230.727 143.924Z" fill="#9E8D78"/>
<path d="M204.855 245.327C204.855 250.568 200.606 254.817 195.365 254.817C190.125 254.817 185.876 250.568 185.876 245.327C185.876 240.086 190.125 235.838 195.365 235.838C200.606 235.838 204.855 240.086 204.855 245.327Z" fill="#9E8D78"/>
<path fill-rule="evenodd" clip-rule="evenodd" d="M127.614 170.101C98.6353 172.72 63.4703 164.564 13.8524 135.886C13.7628 135.834 13.7322 135.72 13.784 135.63C13.8357 135.54 13.9503 135.51 14.0398 135.562C63.6207 164.218 98.707 172.337 127.58 169.728C156.015 167.158 178.451 154.184 202.814 140.096C203.195 139.876 203.576 139.655 203.958 139.435C228.76 125.096 255.661 109.769 292.922 103.257C330.183 96.7446 377.788 99.0498 444.006 119.94C444.105 119.971 444.16 120.076 444.129 120.175C444.098 120.274 443.992 120.328 443.894 120.297C377.718 99.4203 330.175 97.1263 292.986 103.626C255.797 110.125 228.946 125.421 204.145 139.759C203.754 139.985 203.364 140.211 202.974 140.436C178.631 154.513 156.131 167.524 127.614 170.101Z" fill="#8C6D57"/>
<path fill-rule="evenodd" clip-rule="evenodd" d="M292.879 103.01C330.189 96.4895 377.835 98.8022 444.082 119.701C444.312 119.774 444.439 120.019 444.367 120.249C444.294 120.48 444.049 120.607 443.819 120.535C377.671 99.6667 330.169 97.3801 293.029 103.871C255.887 110.362 229.07 125.637 204.27 139.974L203.078 140.664C178.749 154.732 156.209 167.767 127.637 170.349C98.5876 172.974 63.3701 164.794 13.7274 136.101C13.5185 135.981 13.447 135.713 13.5678 135.504C13.6886 135.295 13.9558 135.224 14.1647 135.345C63.721 163.987 98.7548 172.082 127.558 169.479C155.929 166.915 178.319 153.971 202.689 139.879L203.833 139.218C228.636 124.878 255.57 109.531 292.879 103.01Z" fill="#9E8D78"/>
<path fill-rule="evenodd" clip-rule="evenodd" d="M444.123 120.216C444.096 120.316 443.993 120.375 443.894 120.348C375.674 101.857 328.706 104.345 292.99 116.237C259.246 127.473 235.527 147.107 213.393 165.428C212.097 166.501 210.806 167.57 209.518 168.633C186.261 187.823 164.218 204.915 133.413 208.28C102.61 211.645 63.0853 201.283 4.86035 165.68C4.77212 165.626 4.74433 165.51 4.79828 165.422C4.85223 165.334 4.9675 165.306 5.05573 165.36C63.2531 200.946 102.69 211.26 133.372 207.908C164.053 204.556 186.019 187.538 209.28 168.344C210.57 167.279 211.864 166.208 213.163 165.132C235.291 146.815 259.059 127.14 292.872 115.882C328.675 103.961 375.72 101.481 443.992 119.987C444.091 120.014 444.15 120.117 444.123 120.216Z" fill="#8C6D57"/>
<path fill-rule="evenodd" clip-rule="evenodd" d="M444.056 119.745C444.289 119.808 444.427 120.048 444.364 120.281C444.301 120.514 444.061 120.652 443.828 120.589C375.643 102.107 328.727 104.601 293.068 116.474C259.374 127.693 235.687 147.297 213.552 165.62L213.539 165.631C212.247 166.7 210.96 167.766 209.677 168.825C186.422 188.013 164.327 205.154 133.44 208.528C102.555 211.902 62.9729 201.506 4.72963 165.892C4.52376 165.766 4.4589 165.497 4.58479 165.291C4.71068 165.085 4.97964 165.021 5.18552 165.147C63.3645 200.721 102.744 211.002 133.345 207.659C163.943 204.316 185.857 187.347 209.12 168.15C210.408 167.088 211.699 166.019 212.996 164.946L213.014 164.931C235.137 146.618 258.935 126.918 292.792 115.645C328.654 103.704 375.751 101.23 444.056 119.745Z" fill="#9E8D78"/>
<path fill-rule="evenodd" clip-rule="evenodd" d="M444.075 120.215C444.058 120.317 443.961 120.386 443.859 120.369C373.78 108.704 327.394 115.036 293.357 129.486C260.445 143.458 239.06 165.027 218.947 185.313C218.257 186.008 217.569 186.702 216.883 187.394C196.163 208.268 176.418 227.455 146.327 235.028C116.237 242.601 75.8346 238.552 13.8037 213.059C13.7081 213.019 13.6624 212.91 13.7017 212.814C13.741 212.719 13.8505 212.673 13.9461 212.712C75.945 238.193 116.258 242.209 146.236 234.665C176.214 227.121 195.892 208.009 216.617 187.13C217.307 186.434 217.998 185.737 218.691 185.038C238.799 164.757 260.23 143.143 293.211 129.141C327.331 114.656 373.793 108.326 443.921 119.999C444.023 120.016 444.092 120.113 444.075 120.215Z" fill="#8C6D57"/>
<path fill-rule="evenodd" clip-rule="evenodd" d="M443.962 119.753C444.2 119.792 444.361 120.018 444.321 120.256C444.282 120.494 444.057 120.654 443.819 120.615C373.772 108.955 327.437 115.289 293.455 129.716C260.594 143.666 239.24 165.201 219.124 185.488C218.435 186.184 217.747 186.877 217.06 187.569C196.343 208.441 176.555 227.678 146.389 235.27C116.223 242.862 75.7614 238.792 13.7093 213.289C13.4861 213.198 13.3795 212.942 13.4712 212.719C13.563 212.496 13.8183 212.389 14.0415 212.481C76.019 237.953 116.272 241.948 146.176 234.423C176.078 226.897 195.712 207.836 216.44 186.954C217.111 186.278 217.782 185.601 218.456 184.921L218.524 184.853C238.628 164.576 260.088 142.932 293.114 128.911C327.29 114.402 373.802 108.074 443.962 119.753Z" fill="#9E8D78"/>
<path fill-rule="evenodd" clip-rule="evenodd" d="M444.125 120.204C444.119 120.307 444.029 120.385 443.926 120.378C373.393 115.73 328.303 125.387 296.275 141.453C265.197 157.043 246.399 178.676 228.573 199.19C228.027 199.818 227.482 200.446 226.938 201.071C208.62 222.133 190.96 241.781 161.596 252.079C132.234 262.377 91.198 263.318 26.1358 247.053C26.0354 247.028 25.9744 246.926 25.9995 246.826C26.0246 246.725 26.1263 246.664 26.2266 246.69C91.2569 262.946 132.209 261.989 161.472 251.726C190.733 241.464 208.335 221.889 226.656 200.826C227.203 200.196 227.751 199.565 228.3 198.934C246.122 178.424 264.962 156.742 296.107 141.119C328.212 125.013 373.374 115.354 443.951 120.004C444.054 120.011 444.132 120.1 444.125 120.204Z" fill="#8C6D57"/>
<path fill-rule="evenodd" clip-rule="evenodd" d="M443.968 119.755C444.208 119.771 444.391 119.979 444.375 120.22C444.359 120.46 444.151 120.643 443.91 120.627C373.406 115.981 328.364 125.635 296.387 141.676C265.358 157.242 246.589 178.839 228.762 199.354L228.727 199.394C228.193 200.009 227.66 200.622 227.127 201.235C208.81 222.295 191.112 241.992 161.679 252.314C132.251 262.635 91.159 263.565 26.0755 247.295C25.8413 247.236 25.699 246.999 25.7575 246.765C25.8161 246.531 26.0533 246.388 26.2874 246.447C91.2964 262.698 132.193 261.729 161.39 251.49C190.582 241.252 208.146 221.726 226.467 200.661C227.015 200.032 227.563 199.401 228.112 198.77L228.12 198.76C245.939 178.254 264.806 156.541 295.995 140.895C328.152 124.764 373.362 115.102 443.968 119.755Z" fill="#9E8D78"/>
<path fill-rule="evenodd" clip-rule="evenodd" d="M444.138 120.116C444.139 120.219 444.057 120.304 443.953 120.306C373.276 121.416 329.185 134.723 298.667 153.359C269.038 171.453 252.183 194.579 236.202 216.508C235.721 217.167 235.242 217.826 234.762 218.483C218.346 240.987 202.472 262.029 174.138 274.7C145.807 287.371 105.046 291.66 38.876 280.747C38.774 280.73 38.7049 280.633 38.7217 280.531C38.7385 280.429 38.8349 280.36 38.937 280.377C105.075 291.285 145.75 286.986 173.985 274.358C202.218 261.732 218.042 240.769 234.46 218.262C234.942 217.601 235.424 216.939 235.908 216.275C251.885 194.352 268.778 171.172 298.471 153.04C329.064 134.358 373.226 121.042 443.947 119.931C444.051 119.93 444.136 120.012 444.138 120.116Z" fill="#8C6D57"/>
<path fill-rule="evenodd" clip-rule="evenodd" d="M443.944 119.682C444.185 119.678 444.384 119.871 444.388 120.112C444.391 120.353 444.199 120.552 443.957 120.556C373.309 121.665 329.266 134.966 298.797 153.572C269.215 171.637 252.386 194.725 236.404 216.655C235.923 217.314 235.444 217.973 234.964 218.63C218.549 241.133 202.641 262.227 174.24 274.928C145.844 287.627 105.028 291.91 38.8356 280.993C38.5975 280.954 38.4364 280.729 38.4756 280.491C38.5149 280.253 38.7398 280.091 38.9779 280.131C105.094 291.035 145.713 286.729 173.883 274.131C202.049 261.534 217.839 240.623 234.258 218.115C234.587 217.664 234.917 217.212 235.246 216.759L235.714 216.118C251.689 194.198 268.606 170.985 298.342 152.827C328.984 134.114 373.194 120.793 443.944 119.682Z" fill="#9E8D78"/>
<path d="M374.028 176.734L374.03 176.733L373.939 176.514L373.939 176.514L373.936 176.506L373.935 176.506L373.935 176.504L373.935 176.504L373.934 176.503L373.934 176.503L373.933 176.499L373.475 175.398L373.35 175.096L373.091 175.295L372.143 176.026C359.235 185.971 348.958 191.437 338.067 192.682C327.175 193.927 315.475 190.972 299.677 183.63L298.597 183.128L298.303 182.991L298.246 183.311L298.036 184.483L298.036 184.483L298.036 184.484L298.036 184.484L297.992 184.729L297.994 184.729C297.98 184.814 297.964 184.919 297.944 185.045C297.888 185.405 297.811 185.932 297.724 186.607C297.55 187.959 297.338 189.906 297.18 192.303C296.866 197.095 296.77 203.702 297.649 210.954C299.404 225.427 305.075 242.689 320.897 253.056C328.531 258.059 333.312 262.07 336.64 264.862L336.679 264.895L336.84 264.704L336.679 264.895L336.69 264.904C338.324 266.275 339.664 267.399 340.817 268.18C341.977 268.965 343.106 269.517 344.32 269.554C345.568 269.593 346.681 269.083 347.797 268.247C348.897 267.422 350.118 266.189 351.596 264.593C352.335 263.796 353.15 262.895 354.061 261.887C356.836 258.819 360.517 254.748 365.728 249.535C379.423 235.833 381.408 217.469 380.047 202.712C379.365 195.319 377.84 188.777 376.487 184.085C375.81 181.738 375.175 179.85 374.708 178.545C374.474 177.893 374.282 177.386 374.148 177.041C374.1 176.918 374.06 176.816 374.028 176.734ZM300.04 186.905C300.063 186.725 300.086 186.555 300.107 186.398C315.357 193.34 327.148 196.28 338.332 195.002C349.491 193.726 359.864 188.271 372.325 178.825C372.383 178.982 372.444 179.152 372.509 179.333C372.962 180.597 373.582 182.438 374.243 184.733C375.568 189.325 377.057 195.717 377.722 202.927C379.054 217.376 377.062 234.892 364.077 247.884C358.82 253.143 355.087 257.272 352.309 260.343L352.309 260.344C351.405 261.343 350.603 262.229 349.883 263.007C348.401 264.607 347.309 265.695 346.397 266.378C345.501 267.05 344.902 267.236 344.391 267.22C343.846 267.204 343.169 266.952 342.126 266.247C341.087 265.543 339.842 264.5 338.153 263.084L338.14 263.073L337.988 263.254L338.14 263.073L338.14 263.073C334.79 260.262 329.926 256.182 322.177 251.104C307.191 241.284 301.686 224.849 299.967 210.673C299.11 203.602 299.202 197.146 299.51 192.456C299.664 190.113 299.872 188.214 300.04 186.905Z" fill="#9E8D78" stroke="#9E8D78" stroke-width="0.5" stroke-linecap="round"/>
<path d="M334.011 215.862L334.497 215.933L334.268 215.498C330.017 207.43 324.258 203.652 318.832 204.204C313.406 204.756 308.472 209.622 305.832 218.481L305.685 218.973L306.163 218.785C312.216 216.409 315.861 215.202 319.644 214.823C323.429 214.444 327.367 214.893 334.011 215.862Z" fill="#9E8D78" stroke="#9E8D78" stroke-width="0.5" stroke-linecap="round"/>
<path d="M371.687 211.377L372.169 211.443L371.942 211.012C367.69 202.945 361.932 199.167 356.505 199.719C351.079 200.271 346.145 205.137 343.506 213.996L343.363 214.475L343.832 214.302C349.729 212.13 353.304 210.94 357.094 210.519C360.884 210.098 364.903 210.445 371.687 211.377Z" fill="#9E8D78" stroke="#9E8D78" stroke-width="0.5" stroke-linecap="round"/>
<path d="M319.197 236.98L318.701 236.905L318.94 237.347C325.893 250.165 335.238 256.069 343.973 255.131C352.707 254.194 360.678 246.433 364.918 232.268L365.07 231.763L364.583 231.966C354.936 235.974 349.04 238.041 342.839 238.704C336.635 239.367 330.109 238.626 319.197 236.98Z" fill="#9E8D78" stroke="#9E8D78" stroke-width="0.5" stroke-linecap="round"/>
<path d="M471.124 218.905L471.126 218.905L471.18 218.674L471.18 218.674L471.182 218.666L471.182 218.666L471.183 218.664L471.183 218.663L471.183 218.662L471.183 218.662L471.184 218.659L471.457 217.497L471.531 217.18L471.205 217.19L470.009 217.228C453.723 217.749 442.189 216.175 432.625 210.817C423.061 205.459 415.297 196.222 406.774 181.029L406.191 179.99L406.032 179.707L405.799 179.933L404.944 180.761L404.944 180.761L404.943 180.762L404.942 180.762L404.764 180.935L404.766 180.936C404.705 180.997 404.63 181.072 404.54 181.163C404.285 181.422 403.914 181.805 403.448 182.302C402.517 183.297 401.207 184.752 399.677 186.605C396.62 190.309 392.68 195.612 389.153 202.011C382.115 214.778 376.623 232.097 383.397 249.759C386.665 258.281 388.199 264.33 389.266 268.541L389.279 268.591L389.521 268.529L389.279 268.591L389.282 268.604C389.807 270.672 390.236 272.367 390.716 273.675C391.197 274.99 391.79 276.098 392.753 276.838C393.744 277.599 394.945 277.836 396.339 277.81C397.714 277.784 399.425 277.498 401.557 277.067C402.623 276.852 403.81 276.598 405.139 276.313C409.184 275.446 414.551 274.296 421.826 273.113C440.948 270.004 453.295 256.266 460.818 243.499C464.588 237.102 467.175 230.904 468.821 226.306C469.644 224.006 470.233 222.103 470.616 220.772C470.808 220.106 470.949 219.583 471.042 219.224C471.075 219.096 471.102 218.99 471.124 218.905ZM405.153 183.898C405.277 183.765 405.394 183.641 405.504 183.525C413.817 198.074 421.663 207.353 431.484 212.854C441.283 218.344 452.888 219.983 468.52 219.606C468.475 219.767 468.426 219.94 468.373 220.125C468.001 221.415 467.427 223.271 466.622 225.52C465.012 230.019 462.482 236.076 458.807 242.314C451.439 254.815 439.582 267.861 421.451 270.809C414.112 272.002 408.669 273.168 404.62 274.036L404.62 274.036C403.302 274.319 402.134 274.569 401.095 274.779C398.957 275.21 397.435 275.454 396.295 275.475C395.176 275.496 394.581 275.297 394.176 274.986C393.743 274.654 393.341 274.054 392.908 272.872C392.476 271.693 392.075 270.119 391.534 267.983L391.529 267.966L391.301 268.024L391.529 267.966L391.529 267.966C390.455 263.727 388.895 257.573 385.577 248.923C379.161 232.195 384.304 215.643 391.197 203.138C394.636 196.899 398.486 191.716 401.478 188.091C402.973 186.28 404.251 184.861 405.153 183.898Z" fill="#9E8D78" stroke="#9E8D78" stroke-width="0.5" stroke-linecap="round"/>
<path d="M398.444 201.643L398.098 201.228L398.006 201.76C396.447 210.745 398.701 217.253 403.336 220.129C407.971 223.004 414.849 222.163 422.349 216.758L422.793 216.437L422.26 216.312C415.795 214.79 412.034 213.732 408.795 211.76C405.556 209.788 402.822 206.891 398.444 201.643Z" fill="#9E8D78" stroke="#9E8D78" stroke-width="0.5" stroke-linecap="round"/>
<path d="M430.042 220.79L429.695 220.352L429.599 220.903C428.041 229.887 430.295 236.396 434.93 239.271C439.565 242.147 446.443 241.305 453.942 235.901L454.415 235.56L453.842 235.452C447.477 234.257 443.74 233.363 440.49 231.395C437.239 229.426 434.456 226.37 430.042 220.79Z" fill="#9E8D78" stroke="#9E8D78" stroke-width="0.5" stroke-linecap="round"/>
<path d="M424.637 265.931L424.987 266.393L425.083 265.821C427.325 252.371 423.828 242.639 416.84 238.304C409.853 233.97 399.508 235.114 388.238 243.123L387.721 243.49L388.349 243.574C398.153 244.896 403.82 246.032 408.736 249.048C413.655 252.065 417.843 256.979 424.637 265.931Z" fill="#9E8D78" stroke="#9E8D78" stroke-width="0.5" stroke-linecap="round"/>
</svg>
