<svg width="50" height="40" viewBox="0 0 449 305" fill="none" xmlns="http://www.w3.org/2000/svg">
<path d="M41.4764 172.889H0.958984V213.388H41.4764V172.889Z" fill="#009EFF"/>
<path d="M264.678 0.47168H220.369V197.993H264.678V0.47168Z" fill="white"/>
<path d="M435.277 102.784C426.51 93.074 413.952 85.9689 398.077 81.469L376.278 75.785C368.459 73.6535 362.535 71.0483 358.744 67.7326C354.953 64.4169 353.057 60.3906 353.294 55.4171C353.531 50.4435 355.664 46.6542 359.692 43.8121C363.72 41.207 369.17 39.7859 375.804 39.7859C381.728 39.7859 387.177 41.4438 391.916 44.5227C396.655 47.8384 400.209 52.8119 402.105 59.917H444.518C443.807 44.2858 437.173 30.5493 424.614 18.4707C412.056 6.3921 395.707 0.234375 375.567 0.234375C355.664 0.234375 339.789 5.44476 327.941 16.1024C316.094 26.5231 310.171 40.7333 310.171 58.496C310.407 72.9429 314.909 85.0216 324.15 94.7318C333.391 104.442 345.949 111.31 361.824 115.81L380.306 120.547C396.892 125.284 405.422 132.152 405.422 141.152C405.422 146.362 403.053 150.388 398.551 153.467C394.049 156.546 388.125 157.967 380.78 157.967C372.25 157.967 364.905 155.835 359.218 151.336C353.294 146.836 349.74 140.915 348.318 132.862H305.432C306.142 150.151 313.251 165.072 326.993 178.098C340.736 191.124 358.507 197.519 380.78 197.519C400.92 197.519 417.506 192.071 430.064 180.94C442.622 169.809 448.783 156.309 448.783 139.731C448.546 125.047 444.044 112.731 435.277 102.784Z" fill="white"/>
<path d="M153.078 28.892C133.412 9.70831 109.48 -0.00195312 81.7581 -0.00195312H22.5221C20.6265 -0.00195312 19.2049 1.41906 19.4419 3.31375C20.1527 15.866 24.1807 22.9711 27.261 28.6552C29.6304 32.6814 30.5782 34.3392 30.5782 39.5496C30.5782 44.76 29.6304 46.4179 27.261 50.4441C23.9438 56.365 19.4419 64.4174 19.4419 78.8644C19.4419 93.3113 23.9438 101.364 27.261 107.285C29.6304 111.311 30.5782 112.969 30.5782 118.179C30.5782 123.389 29.6304 125.047 27.261 129.074C24.1807 134.521 19.9157 141.863 19.4419 154.415C19.4419 156.073 20.8635 157.731 22.5221 157.731H60.6701V198.23H81.7581C109.717 198.23 133.412 188.519 153.078 169.336C172.745 150.152 182.696 126.705 182.696 99.4691C182.696 71.7593 172.745 48.3125 153.078 28.892ZM122.039 140.442C111.613 151.81 98.1072 157.257 81.7581 157.257H60.907C60.907 152.047 61.8548 150.389 64.2242 146.599C67.5414 140.678 72.0434 132.626 72.0434 118.179C72.0434 103.732 67.5414 95.6797 64.2242 89.7588C61.8548 85.7326 60.907 84.0747 60.907 78.8644C60.907 73.654 61.8548 71.9961 64.2242 67.9699C67.3045 62.7595 71.3326 55.6545 72.0434 43.8127C72.0434 42.1548 73.4651 40.9706 75.1237 40.9706H81.7581C98.1072 40.9706 111.613 46.6547 122.039 57.786C132.464 69.1541 137.914 82.8906 137.914 99.2322C137.677 115.337 132.464 129.074 122.039 140.442Z" fill="white"/>
<path d="M53.1085 303.148L41.3153 269.28L29.5221 303.148H22.3017L5.93555 256.018H14.6L26.1526 290.359L38.1865 256.018H44.4441L56.478 290.359L68.0306 256.018H76.695L60.5695 303.148H53.1085Z" fill="white"/>
<path d="M102.689 304.095C95.7092 304.095 89.9329 301.726 85.3601 297.227C80.7872 292.727 78.6211 286.806 78.6211 279.701C78.6211 272.596 80.7872 266.675 85.3601 262.175C89.6923 257.675 95.7093 255.307 103.17 255.307C110.631 255.307 116.408 257.912 120.499 262.885C124.591 268.096 126.516 274.254 126.035 281.832H87.0448C87.0448 286.095 88.7296 289.648 91.8584 292.49C94.9872 295.332 98.5974 296.753 102.93 296.753C109.428 296.753 114.001 294.148 116.889 288.937H125.313C124.109 293.437 121.462 296.99 117.611 299.832C113.519 302.674 108.706 304.095 102.689 304.095ZM112.075 265.727C109.428 263.596 106.299 262.412 102.689 262.412C99.0787 262.412 95.7092 263.359 92.8211 265.727C89.9329 267.859 88.2482 271.175 87.5262 275.438H117.37C116.408 271.175 114.723 267.859 112.075 265.727Z" fill="white"/>
<path d="M160.691 304.095C157.08 304.095 153.952 303.384 150.823 301.726C147.694 300.305 145.528 298.174 143.843 295.805V302.911H135.66V232.57H143.843V263.359C145.528 260.991 147.935 259.096 150.823 257.438C153.952 256.017 157.08 255.07 160.691 255.07C167.43 255.07 172.965 257.438 177.297 262.175C181.87 266.912 184.036 272.832 184.036 279.464C184.036 286.095 181.87 292.016 177.297 296.753C172.725 301.726 167.189 304.095 160.691 304.095ZM147.694 291.779C150.823 295.095 154.674 296.753 159.487 296.753C164.301 296.753 168.152 295.095 171.28 291.779C174.409 288.464 175.853 284.437 175.853 279.701C175.853 274.964 174.409 270.938 171.28 267.622C168.152 264.306 164.301 262.648 159.487 262.648C154.674 262.648 150.823 264.306 147.694 267.622C144.565 270.938 143.121 274.964 143.121 279.701C143.121 284.437 144.565 288.7 147.694 291.779Z" fill="white"/>
<path d="M209.067 304.095C203.772 304.095 199.199 302.911 195.589 300.306C191.979 297.701 190.054 294.148 189.572 289.648H197.996C198.477 292.253 199.681 294.148 201.847 295.569C204.013 296.753 206.42 297.464 209.067 297.464C211.715 297.464 214.121 296.99 215.806 295.806C217.491 294.859 218.454 293.201 218.454 291.306C218.454 289.411 217.972 287.754 216.528 286.806C215.325 285.622 213.399 284.675 210.511 283.964L203.532 282.07C195.349 279.938 191.257 275.438 191.257 268.333C191.257 264.544 192.701 261.465 195.83 259.096C198.959 256.728 202.81 255.544 207.864 255.544C212.677 255.544 216.769 256.728 219.898 259.333C223.027 261.939 224.711 265.017 225.193 269.044H217.01C216.288 266.912 215.325 265.254 213.64 264.07C211.955 262.886 210.03 262.175 207.864 262.175C205.457 262.175 203.532 262.649 202.088 263.833C200.643 264.781 199.681 266.438 199.681 268.096C199.681 269.754 200.162 271.175 201.365 272.122C202.569 273.07 204.494 274.017 206.901 274.728L214.603 276.859C222.786 278.991 226.877 283.491 226.877 290.832C226.877 295.332 225.193 298.648 222.064 301.016C218.454 303.148 214.362 304.095 209.067 304.095Z" fill="white"/>
<path d="M255.278 303.621C250.946 303.621 247.336 302.437 244.688 300.069C242.041 297.7 240.597 293.911 240.597 289.411V263.833H230.488V256.491H240.597V243.465H248.78V256.491H262.499V263.833H248.78V288.464C248.78 291.542 249.502 293.437 250.705 294.621C251.909 295.806 254.075 296.516 256.722 296.516C259.129 296.516 261.054 296.279 262.499 295.569V302.674C260.332 303.384 257.685 303.621 255.278 303.621Z" fill="white"/>
<path d="M287.286 304.095C281.991 304.095 277.9 302.437 274.53 298.885C271.402 295.332 269.717 290.832 269.717 284.912V256.018H277.9V283.727C277.9 287.754 278.863 290.832 280.788 293.201C282.713 295.569 285.361 296.753 288.73 296.753C292.581 296.753 295.71 295.332 298.117 292.017C300.764 288.938 301.968 284.675 301.968 279.464V256.018H310.151V303.148H301.968V296.043C298.839 301.49 294.025 304.095 287.286 304.095Z" fill="white"/>
<path d="M343.365 304.095C336.626 304.095 331.091 301.727 326.759 296.99C322.186 292.253 320.02 286.332 320.02 279.701C320.02 273.07 322.186 267.149 326.759 262.412C331.331 257.675 336.867 255.307 343.365 255.307C346.976 255.307 350.104 256.018 353.233 257.675C356.362 259.333 358.528 261.228 360.213 263.596V232.808H368.396V303.148H360.213V296.043C358.528 298.411 356.121 300.306 353.233 301.964C350.104 303.385 346.976 304.095 343.365 304.095ZM344.569 296.753C349.142 296.753 353.233 295.095 356.362 291.78C359.491 288.464 360.935 284.438 360.935 279.701C360.935 274.964 359.491 270.938 356.362 267.622C353.233 264.307 349.382 262.649 344.569 262.649C339.755 262.649 335.904 264.307 332.776 267.622C329.647 270.938 328.203 274.964 328.203 279.701C328.203 284.438 329.647 288.464 332.776 291.78C335.904 295.095 339.755 296.753 344.569 296.753Z" fill="white"/>
<path d="M381.152 303.148V256.018H389.335V303.148H381.152Z" fill="white"/>
<path d="M423.752 304.095C416.531 304.095 410.514 301.727 405.701 296.99C400.887 292.253 398.48 286.332 398.48 279.464C398.48 272.596 400.887 266.912 405.701 261.938C410.514 257.201 416.531 254.833 423.752 254.833C430.972 254.833 436.748 257.201 441.562 261.938C446.375 266.675 448.782 272.596 448.782 279.464C448.782 286.332 446.375 292.016 441.562 296.99C436.989 301.963 430.972 304.095 423.752 304.095ZM411.718 291.779C414.847 295.095 418.938 296.753 423.752 296.753C428.565 296.753 432.657 295.095 435.785 291.779C438.914 288.464 440.358 284.437 440.358 279.701C440.358 274.964 438.914 270.938 435.785 267.622C432.657 264.306 428.806 262.649 423.752 262.649C418.938 262.649 414.847 264.306 411.718 267.622C408.589 270.938 407.145 274.964 407.145 279.701C407.145 284.437 408.589 288.464 411.718 291.779Z" fill="white"/>
<path d="M383.386 232.57H375.33V240.623H383.386V232.57Z" fill="white"/>
</svg>
