<svg width="599" height="164" viewBox="0 0 599 164" fill="none" xmlns="http://www.w3.org/2000/svg">
<path fill-rule="evenodd" clip-rule="evenodd" d="M594.016 37.3516C593.329 37.3516 592.772 36.8005 592.772 36.1207C592.772 27.7725 586.665 21.2365 579.39 21.2365C579.233 21.2365 579.076 21.2365 578.92 21.2364C574.971 21.235 571.499 21.2337 568.95 22.1582C567.678 22.6196 566.718 23.288 566.061 24.2528C565.398 25.2251 564.961 26.6191 564.961 28.6737C564.961 29.3535 564.404 29.9046 563.717 29.9046C563.029 29.9046 562.472 29.3535 562.472 28.6737C562.472 26.2789 562.983 24.3647 563.996 22.8774C565.014 21.3827 566.457 20.4403 568.093 19.847C571.074 18.7657 574.963 18.7701 578.698 18.7743C578.93 18.7745 579.16 18.7748 579.39 18.7748C588.287 18.7748 595.261 26.671 595.261 36.1207C595.261 36.8005 594.704 37.3516 594.016 37.3516Z" fill="#536F62"/>
<path fill-rule="evenodd" clip-rule="evenodd" d="M534.601 30.7353C533.913 30.7353 533.356 30.1843 533.356 29.5045C533.356 27.0035 533.845 24.9979 534.808 23.4225C535.779 21.8334 537.17 20.7853 538.782 20.1022C541.901 18.7806 546.022 18.7733 549.939 18.7733C551.927 18.7733 553.847 18.7793 555.583 18.943C557.317 19.1065 558.962 19.4344 560.38 20.1312C561.83 20.8435 563.009 21.9252 563.804 23.5123C564.586 25.0704 564.963 27.0442 564.963 29.5043C564.963 30.1841 564.406 30.7352 563.718 30.7352C563.031 30.7352 562.474 30.1841 562.474 29.5043C562.474 27.2702 562.128 25.7093 561.574 24.606C561.036 23.5316 560.268 22.825 559.273 22.3359C558.245 21.8312 556.945 21.5444 555.346 21.3936C553.749 21.243 551.948 21.235 549.939 21.235C545.862 21.235 542.314 21.2836 539.762 22.365C538.539 22.8835 537.594 23.6237 536.938 24.6961C536.274 25.7821 535.845 27.3112 535.845 29.5045C535.845 30.1843 535.288 30.7353 534.601 30.7353Z" fill="#536F62"/>
<path fill-rule="evenodd" clip-rule="evenodd" d="M505.699 37.3516C505.011 37.3516 504.454 36.8005 504.454 36.1207C504.454 26.6779 511.384 18.7748 520.242 18.7748C524.197 18.7748 528.088 18.8636 530.974 20.2291C532.47 20.9371 533.72 21.9945 534.579 23.541C535.427 25.0684 535.846 26.9857 535.846 29.3473C535.846 30.0271 535.288 30.5782 534.601 30.5782C533.914 30.5782 533.356 30.0271 533.356 29.3473C533.356 27.2595 532.985 25.7844 532.397 24.726C531.82 23.6866 530.988 22.9647 529.9 22.4497C527.616 21.3691 524.328 21.2365 520.242 21.2365C513.019 21.2365 506.943 27.7657 506.943 36.1207C506.943 36.8005 506.386 37.3516 505.699 37.3516Z" fill="#536F62"/>
<path fill-rule="evenodd" clip-rule="evenodd" d="M505.202 41.5623C505.243 40.8838 505.833 40.3672 506.52 40.4086C541.529 42.5184 560.717 42.7104 593.928 40.4093L594.102 42.865C560.763 45.175 541.464 44.9808 506.368 42.8658C505.682 42.8244 505.16 42.2408 505.202 41.5623Z" fill="#536F62"/>
<path fill-rule="evenodd" clip-rule="evenodd" d="M503.967 13.2458C504.994 13.1529 505.9 13.9343 505.99 14.9911L518.469 161.133C518.56 162.19 517.8 163.122 516.773 163.214C515.746 163.307 514.84 162.526 514.75 161.469L502.271 15.3273C502.181 14.2705 502.94 13.3386 503.967 13.2458Z" fill="#536F62"/>
<path fill-rule="evenodd" clip-rule="evenodd" d="M596.478 13.2451C595.451 13.1565 594.548 13.9423 594.462 15.0002L582.576 161.139C582.49 162.197 583.253 163.126 584.28 163.215C585.308 163.304 586.21 162.518 586.297 161.46L598.183 15.3211C598.269 14.2631 597.506 13.3337 596.478 13.2451Z" fill="#536F62"/>
<path fill-rule="evenodd" clip-rule="evenodd" d="M502.468 15.1276C502.468 14.1079 503.304 13.2812 504.335 13.2812H596.375C597.406 13.2812 598.242 14.1079 598.242 15.1276C598.242 16.1472 597.406 16.9739 596.375 16.9739H504.335C503.304 16.9739 502.468 16.1472 502.468 15.1276Z" fill="#536F62"/>
<path fill-rule="evenodd" clip-rule="evenodd" d="M515.22 161.86C515.22 161.11 515.835 160.501 516.594 160.501H584.358C585.117 160.501 585.733 161.11 585.733 161.86C585.733 162.611 585.117 163.22 584.358 163.22H516.594C515.835 163.22 515.22 162.611 515.22 161.86Z" fill="#536F62"/>
<path fill-rule="evenodd" clip-rule="evenodd" d="M575.977 120.436C576.933 120.436 577.708 119.67 577.708 118.724C577.708 117.779 576.933 117.013 575.977 117.013C575.021 117.013 574.247 117.779 574.247 118.724C574.247 119.67 575.021 120.436 575.977 120.436ZM575.977 121.667C577.62 121.667 578.952 120.349 578.952 118.724C578.952 117.1 577.62 115.782 575.977 115.782C574.334 115.782 573.002 117.1 573.002 118.724C573.002 120.349 574.334 121.667 575.977 121.667Z" fill="#536F62"/>
<path fill-rule="evenodd" clip-rule="evenodd" d="M560.658 141.77C560.856 141.77 561.017 141.611 561.017 141.414C561.017 141.218 560.856 141.059 560.658 141.059C560.459 141.059 560.298 141.218 560.298 141.414C560.298 141.611 560.459 141.77 560.658 141.77ZM560.658 143.001C561.544 143.001 562.262 142.291 562.262 141.414C562.262 140.538 561.544 139.828 560.658 139.828C559.772 139.828 559.054 140.538 559.054 141.414C559.054 142.291 559.772 143.001 560.658 143.001Z" fill="#536F62"/>
<path fill-rule="evenodd" clip-rule="evenodd" d="M584.435 92.5746C584.634 92.5746 584.795 92.4155 584.795 92.2191C584.795 92.0228 584.634 91.8637 584.435 91.8637C584.237 91.8637 584.076 92.0228 584.076 92.2191C584.076 92.4155 584.237 92.5746 584.435 92.5746ZM584.435 93.8055C585.321 93.8055 586.039 93.0952 586.039 92.2191C586.039 91.343 585.321 90.6328 584.435 90.6328C583.549 90.6328 582.831 91.343 582.831 92.2191C582.831 93.0952 583.549 93.8055 584.435 93.8055Z" fill="#536F62"/>
<path fill-rule="evenodd" clip-rule="evenodd" d="M574.823 134.745C575.021 134.745 575.182 134.586 575.182 134.39C575.182 134.194 575.021 134.035 574.823 134.035C574.624 134.035 574.463 134.194 574.463 134.39C574.463 134.586 574.624 134.745 574.823 134.745ZM574.823 135.976C575.709 135.976 576.427 135.266 576.427 134.39C576.427 133.514 575.709 132.804 574.823 132.804C573.937 132.804 573.219 133.514 573.219 134.39C573.219 135.266 573.937 135.976 574.823 135.976Z" fill="#536F62"/>
<path fill-rule="evenodd" clip-rule="evenodd" d="M578.868 110.899C580.413 110.899 581.665 109.661 581.665 108.132C581.665 106.604 580.413 105.366 578.868 105.366C577.322 105.366 576.07 106.604 576.07 108.132C576.07 109.661 577.322 110.899 578.868 110.899ZM578.868 112.13C581.1 112.13 582.91 110.34 582.91 108.132C582.91 105.925 581.1 104.135 578.868 104.135C576.635 104.135 574.825 105.925 574.825 108.132C574.825 110.34 576.635 112.13 578.868 112.13Z" fill="#536F62"/>
<path fill-rule="evenodd" clip-rule="evenodd" d="M570.147 146.97C571.035 146.97 571.755 146.258 571.755 145.38C571.755 144.502 571.035 143.79 570.147 143.79C569.259 143.79 568.54 144.502 568.54 145.38C568.54 146.258 569.259 146.97 570.147 146.97ZM570.147 148.201C571.722 148.201 572.999 146.938 572.999 145.38C572.999 143.822 571.722 142.56 570.147 142.56C568.572 142.56 567.295 143.822 567.295 145.38C567.295 146.938 568.572 148.201 570.147 148.201Z" fill="#536F62"/>
<path fill-rule="evenodd" clip-rule="evenodd" d="M518.627 105.894C519.658 105.878 520.506 106.693 520.522 107.712L518.655 107.74L516.788 107.768C516.773 106.748 517.596 105.909 518.627 105.894ZM525.958 148.009C525.884 147.96 525.653 147.772 525.303 147.15C524.777 146.212 524.26 144.754 523.781 142.833C522.831 139.023 522.145 133.87 521.656 128.628C521.169 123.406 520.885 118.176 520.723 114.245C520.642 112.281 520.592 110.645 520.562 109.501C520.547 108.929 520.537 108.481 520.53 108.176C520.527 108.023 520.525 107.906 520.524 107.828L520.522 107.713C520.522 107.713 520.522 107.712 518.655 107.74C516.788 107.768 516.788 107.768 516.788 107.768L516.79 107.893C516.792 107.974 516.794 108.094 516.797 108.25C516.804 108.562 516.814 109.018 516.829 109.598C516.86 110.757 516.911 112.411 516.992 114.396C517.156 118.362 517.443 123.66 517.938 128.967C518.431 134.255 519.137 139.63 520.156 143.717C520.661 145.745 521.272 147.577 522.039 148.942C522.736 150.183 523.942 151.702 525.868 151.702H535.712H545.555C545.555 151.702 545.556 151.702 545.556 149.856L545.555 151.702C546.586 151.702 547.423 150.875 547.423 149.856C547.423 148.836 546.587 148.009 545.556 148.009V149.856C545.556 148.009 545.556 148.009 545.556 148.009H525.958Z" fill="#536F62"/>
<path fill-rule="evenodd" clip-rule="evenodd" d="M205.933 93.7441C207.489 93.7441 208.751 93.7441 208.751 96.4678L208.751 159.927C208.751 161.432 207.489 162.651 205.933 162.651C204.378 162.651 203.116 161.432 203.116 159.927L203.116 96.4678C203.116 93.7441 204.378 93.7441 205.933 93.7441Z" fill="#536F62"/>
<path fill-rule="evenodd" clip-rule="evenodd" d="M155.603 44.7496L205.931 93.7177L256.259 44.7496L155.603 44.7496ZM203.543 96.0496C204.862 97.3337 207 97.3337 208.319 96.0496L258.647 47.0816C260.78 45.0066 259.272 41.4546 256.259 41.4546L155.603 41.4546C152.59 41.4546 151.082 45.0066 153.215 47.0815L203.543 96.0496Z" fill="#536F62"/>
<path d="M285.779 45.0628C285.779 59.3576 273.89 70.9458 259.223 70.9458C252.228 70.9458 245.865 68.3096 241.122 64.001L239.441 65.6366C244.614 70.3643 251.572 73.2594 259.223 73.2594C275.201 73.2594 288.153 60.6353 288.153 45.0628C288.153 29.4903 275.201 16.8662 259.223 16.8662C244.438 16.8662 232.243 27.6769 230.506 41.6308H232.899C234.621 28.9583 245.751 19.1798 259.223 19.1798C273.89 19.1798 285.779 30.768 285.779 45.0628Z" fill="#536F62"/>
<path fill-rule="evenodd" clip-rule="evenodd" d="M163.321 55.7399C163.322 55.1333 163.828 54.6426 164.45 54.6438L247.891 54.8057L247.887 57.0024L164.446 56.8405C163.823 56.8392 163.32 56.3465 163.321 55.7399Z" fill="#536F62"/>
<path fill-rule="evenodd" clip-rule="evenodd" d="M212.05 76.3771C212.915 76.3771 213.617 75.6934 213.617 74.85C213.617 74.0066 212.915 73.3229 212.05 73.3229C211.185 73.3229 210.483 74.0066 210.483 74.85C210.483 75.6934 211.185 76.3771 212.05 76.3771ZM212.05 77.4755C213.538 77.4755 214.744 76.3 214.744 74.85C214.744 73.4001 213.538 72.2246 212.05 72.2246C210.562 72.2246 209.356 73.4001 209.356 74.85C209.356 76.3 210.562 77.4755 212.05 77.4755Z" fill="#536F62"/>
<path fill-rule="evenodd" clip-rule="evenodd" d="M214.74 81.6136C214.92 81.6136 215.066 81.4715 215.066 81.2964C215.066 81.1212 214.92 80.9792 214.74 80.9792C214.561 80.9792 214.415 81.1212 214.415 81.2964C214.415 81.4715 214.561 81.6136 214.74 81.6136ZM214.74 82.7119C215.542 82.7119 216.193 82.0781 216.193 81.2964C216.193 80.5146 215.542 79.8809 214.74 79.8809C213.938 79.8809 213.288 80.5146 213.288 81.2964C213.288 82.0781 213.938 82.7119 214.74 82.7119Z" fill="#536F62"/>
<path fill-rule="evenodd" clip-rule="evenodd" d="M194.884 77.3867C196.283 77.3867 197.417 76.2813 197.417 74.9178C197.417 73.5543 196.283 72.4489 194.884 72.4489C193.485 72.4489 192.351 73.5543 192.351 74.9178C192.351 76.2813 193.485 77.3867 194.884 77.3867ZM194.884 78.485C196.905 78.485 198.544 76.8879 198.544 74.9178C198.544 72.9477 196.905 71.3506 194.884 71.3506C192.862 71.3506 191.224 72.9477 191.224 74.9178C191.224 76.8879 192.862 78.485 194.884 78.485Z" fill="#536F62"/>
<path fill-rule="evenodd" clip-rule="evenodd" d="M199.444 83.6193C199.733 83.6193 199.967 83.391 199.967 83.1093C199.967 82.8276 199.733 82.5993 199.444 82.5993C199.155 82.5993 198.921 82.8276 198.921 83.1093C198.921 83.391 199.155 83.6193 199.444 83.6193ZM199.444 84.7176C200.355 84.7176 201.094 83.9975 201.094 83.1093C201.094 82.221 200.355 81.501 199.444 81.501C198.533 81.501 197.794 82.221 197.794 83.1093C197.794 83.9975 198.533 84.7176 199.444 84.7176Z" fill="#536F62"/>
<path fill-rule="evenodd" clip-rule="evenodd" d="M204.275 78.7842C205.079 78.7842 205.73 78.1491 205.73 77.3656C205.73 76.5821 205.079 75.947 204.275 75.947C203.471 75.947 202.819 76.5821 202.819 77.3656C202.819 78.1491 203.471 78.7842 204.275 78.7842ZM204.275 79.8826C205.701 79.8826 206.857 78.7557 206.857 77.3656C206.857 75.9755 205.701 74.8486 204.275 74.8486C202.849 74.8486 201.692 75.9755 201.692 77.3656C201.692 78.7557 202.849 79.8826 204.275 79.8826Z" fill="#536F62"/>
<path fill-rule="evenodd" clip-rule="evenodd" d="M207.936 87.2109C208.786 87.2109 209.476 86.5388 209.476 85.7098C209.476 84.8808 208.786 84.2087 207.936 84.2087C207.085 84.2087 206.395 84.8808 206.395 85.7098C206.395 86.5388 207.085 87.2109 207.936 87.2109ZM207.936 88.3092C209.409 88.3092 210.603 87.1454 210.603 85.7098C210.603 84.2742 209.409 83.1104 207.936 83.1104C206.463 83.1104 205.269 84.2742 205.269 85.7098C205.269 87.1454 206.463 88.3092 207.936 88.3092Z" fill="#536F62"/>
<path fill-rule="evenodd" clip-rule="evenodd" d="M279.793 63.3943L240.519 25.1151L242.909 22.7852L282.184 61.0643L279.793 63.3943Z" fill="#536F62"/>
<path fill-rule="evenodd" clip-rule="evenodd" d="M260.362 72.2629L258.57 17.8949L261.949 17.7891L263.741 72.1571L260.362 72.2629Z" fill="#536F62"/>
<path fill-rule="evenodd" clip-rule="evenodd" d="M259.834 41.8692L276.365 25.1172L278.802 27.4014L262.27 44.1533L259.834 41.8692Z" fill="#536F62"/>
<path fill-rule="evenodd" clip-rule="evenodd" d="M259.331 42.4747L286.63 44.2543L286.404 47.542L259.105 45.7623L259.331 42.4747Z" fill="#536F62"/>
<path fill-rule="evenodd" clip-rule="evenodd" d="M236.024 56.5744C235.539 55.4939 235.03 54.7032 234.547 54.2519C231.176 51.1067 230.415 47.1273 229.941 42.2345L233.307 41.9248C233.776 46.7716 234.483 49.6311 236.885 51.8718C237.844 52.767 238.568 54.0224 239.121 55.2535C239.686 56.5119 240.133 57.8863 240.477 59.1364C240.822 60.3919 241.072 61.5547 241.235 62.4022C241.317 62.8269 241.378 63.1749 241.419 63.4188C241.439 63.5408 241.454 63.6368 241.465 63.7036L241.476 63.7814L241.48 63.8031L241.481 63.8115C241.481 63.8118 241.481 63.8128 239.807 64.0441C238.134 64.2753 238.134 64.2755 238.134 64.2757L238.134 64.273L238.131 64.259L238.122 64.197C238.113 64.1411 238.1 64.0564 238.082 63.9465C238.045 63.7265 237.989 63.4059 237.913 63.0114C237.76 62.2205 237.528 61.1427 237.211 59.9892C236.893 58.8305 236.497 57.6276 236.024 56.5744Z" fill="#536F62" fill-opacity="0.19"/>
<path d="M205.162 160.047C205.673 159.978 206.191 159.978 206.702 160.047L230.308 163.222H181.556L205.162 160.047Z" fill="#536F62"/>
<path fill-rule="evenodd" clip-rule="evenodd" d="M380.89 84.7319C382.743 84.7337 384.244 86.2998 384.242 88.2299L384.177 158.721C384.176 160.651 382.672 162.214 380.818 162.212C378.965 162.211 377.464 160.644 377.466 158.714L377.531 88.2231C377.533 86.2931 379.037 84.73 380.89 84.7319Z" fill="#536F62"/>
<path fill-rule="evenodd" clip-rule="evenodd" d="M345.474 36.6615C345.474 35.8895 346.075 35.2637 346.816 35.2637H414.806V38.0594H346.816C346.075 38.0594 345.474 37.4335 345.474 36.6615Z" fill="#536F62"/>
<path fill-rule="evenodd" clip-rule="evenodd" d="M358.234 3.30562C358.233 3.30568 358.234 3.30555 358.234 3.30562L358.23 3.31316L358.217 3.34266L358.164 3.46631C358.116 3.57708 358.044 3.74395 357.951 3.96369C357.765 4.40318 357.494 5.05395 357.158 5.89009C356.485 7.56273 355.551 9.97506 354.512 12.92C352.433 18.8177 349.947 26.8151 348.293 35.266C346.634 43.744 345.843 52.5293 347.046 60.0612C348.242 67.5514 351.361 73.5902 357.379 77.0608C373.114 86.1348 388.659 86.1348 404.393 77.0608C410.411 73.5902 413.531 67.5514 414.727 60.0612C415.929 52.5293 415.138 43.744 413.479 35.266C411.826 26.8151 409.34 18.8177 407.26 12.92C406.221 9.97506 405.287 7.56273 404.614 5.89009C404.278 5.05395 404.007 4.40318 403.821 3.96369C403.728 3.74395 403.657 3.57708 403.609 3.46631L403.555 3.34266L403.542 3.31316L403.539 3.30662C403.075 2.25433 403.518 1.00839 404.528 0.52496C405.538 0.0415349 406.734 0.50269 407.198 1.55498L405.369 2.4303C407.198 1.55498 407.198 1.55565 407.199 1.55656L407.205 1.56966L407.221 1.60642L407.281 1.74496C407.333 1.86581 407.409 2.04312 407.507 2.27363C407.702 2.73464 407.982 3.40863 408.328 4.26958C409.021 5.9911 409.978 8.46219 411.04 11.4743C413.162 17.4906 415.718 25.7018 417.425 34.4286C419.127 43.1283 420.017 52.4899 418.699 60.749C417.374 69.0498 413.771 76.4461 406.344 80.7294C389.396 90.5033 372.376 90.5033 355.429 80.7294C348.001 76.4461 344.399 69.0498 343.074 60.749C341.755 52.4899 342.645 43.1283 344.347 34.4286C346.055 25.7018 348.611 17.4906 350.733 11.4743C351.795 8.46219 352.751 5.9911 353.444 4.26958C353.79 3.40863 354.071 2.73464 354.266 2.27363C354.363 2.04312 354.439 1.86581 354.492 1.74496L354.552 1.60642L354.568 1.56966L354.574 1.55656C354.574 1.55565 354.574 1.55498 356.404 2.4303L354.574 1.55498C355.039 0.50269 356.234 0.0415349 357.244 0.52496C358.255 1.00836 358.698 2.25337 358.234 3.30562Z" fill="#536F62"/>
<path fill-rule="evenodd" clip-rule="evenodd" d="M354.812 2.43174C354.812 1.27372 355.714 0.334961 356.826 0.334961L404.947 0.334961C406.059 0.334961 406.96 1.27372 406.96 2.43174C406.96 3.58976 406.059 4.52852 404.947 4.52852H356.826C355.714 4.52852 354.812 3.58976 354.812 2.43174Z" fill="#536F62"/>
<path fill-rule="evenodd" clip-rule="evenodd" d="M350.785 53.183C351.889 53.0411 352.894 53.8578 353.03 55.0071C353.915 62.4667 355.604 66.4412 358.198 69.1786C360.891 72.0198 364.766 73.7865 370.793 76.2973C371.826 76.7274 372.328 77.9477 371.915 79.0228C371.502 80.098 370.33 80.621 369.298 80.1909C363.443 77.752 358.721 75.7001 355.332 72.1244C351.845 68.4448 349.968 63.404 349.034 55.5209C348.898 54.3716 349.682 53.3249 350.785 53.183Z" fill="#536F62"/>
<path d="M379.971 159.18C380.58 159.092 381.197 159.092 381.806 159.18L409.924 163.221H351.854L379.971 159.18Z" fill="#536F62"/>
<path fill-rule="evenodd" clip-rule="evenodd" d="M84.2871 157.945C84.0431 157.143 83.1782 156.685 82.3553 156.923C82.3552 156.923 82.3553 156.923 82.3553 156.923L82.7969 158.376C82.3552 156.923 82.3552 156.923 82.3553 156.923L82.3489 156.925L82.3262 156.932L82.2327 156.958C82.1494 156.982 82.0251 157.017 81.8633 157.061C81.5397 157.15 81.0667 157.278 80.4742 157.432C79.2885 157.741 77.6275 158.152 75.7293 158.563C71.9023 159.391 67.2259 160.192 63.541 160.192H40.1419C40.1418 160.192 40.1417 160.192 40.1417 161.707C40.1417 163.222 40.1418 163.222 40.1419 163.222H63.541C67.5822 163.222 72.5338 162.358 76.4032 161.52C78.3532 161.098 80.0576 160.676 81.2752 160.36C81.8843 160.202 82.3724 160.069 82.7095 159.976C82.8781 159.93 83.009 159.893 83.0984 159.868L83.201 159.839L83.2282 159.831L83.2376 159.828C83.2378 159.828 83.2387 159.828 82.7969 158.376L83.2387 159.828C84.0617 159.59 84.531 158.747 84.2871 157.945ZM40.1417 161.707L40.1419 163.222C39.2835 163.222 38.5875 162.544 38.5875 161.707C38.5875 160.87 39.2835 160.192 40.1419 160.192L40.1417 161.707Z" fill="#536F62"/>
<path fill-rule="evenodd" clip-rule="evenodd" d="M7.30182 157.945C7.54579 157.143 8.41067 156.685 9.23361 156.923C9.23365 156.923 9.23358 156.923 9.23361 156.923L8.79194 158.376C9.23371 156.923 9.23366 156.923 9.23361 156.923L9.23994 156.925L9.26267 156.932L9.35618 156.958C9.43942 156.982 9.56379 157.017 9.72557 157.061C10.0492 157.15 10.5221 157.278 11.1147 157.432C12.3004 157.741 13.9614 158.152 15.8595 158.563C19.6865 159.391 24.363 160.192 28.0479 160.192H51.447C51.4471 160.192 51.4472 160.192 51.4472 161.707C51.4472 163.222 51.4471 163.222 51.447 163.222H28.0479C24.0067 163.222 19.0551 162.358 15.1857 161.52C13.2356 161.098 11.5313 160.676 10.3137 160.36C9.7046 160.202 9.21646 160.069 8.87934 159.976C8.71076 159.93 8.57988 159.893 8.49045 159.868L8.38784 159.839L8.36072 159.831L8.35124 159.828C8.35102 159.828 8.35018 159.828 8.79194 158.376L8.35018 159.828C7.52721 159.59 7.05784 158.747 7.30182 157.945ZM51.4472 161.707L51.447 163.222C52.3054 163.222 53.0014 162.544 53.0014 161.707C53.0014 160.87 52.3054 160.192 51.447 160.192L51.4472 161.707Z" fill="#536F62"/>
<path fill-rule="evenodd" clip-rule="evenodd" d="M34.4611 157.711L22.3398 161.194H69.2506L57.1293 157.711H34.4611Z" fill="#536F62"/>
<path fill-rule="evenodd" clip-rule="evenodd" d="M45.7939 156.467C23.0358 156.467 3.97742 134.202 3.97742 105.924C3.97742 104.937 3.15656 104.137 2.14398 104.137C1.1314 104.137 0.310547 104.937 0.310547 105.924C0.310547 135.448 20.3377 160.041 45.7939 160.041C71.2501 160.041 91.2772 135.448 91.2772 105.924C91.2772 104.937 90.4564 104.137 89.4438 104.137C88.4312 104.137 87.6104 104.937 87.6104 105.924C87.6104 134.202 68.552 156.467 45.7939 156.467Z" fill="#536F62"/>
<path fill-rule="evenodd" clip-rule="evenodd" d="M0.310547 105.922C0.310547 104.935 1.1314 104.135 2.14398 104.135L89.4438 104.135C90.4564 104.135 91.2772 104.935 91.2772 105.922C91.2772 106.909 90.4564 107.709 89.4438 107.709L2.14398 107.709C1.1314 107.709 0.310547 106.909 0.310547 105.922Z" fill="#536F62"/>
<path fill-rule="evenodd" clip-rule="evenodd" d="M104.416 114.334C106.334 115.563 107.813 117.383 108.151 119.978C108.711 124.276 106.685 128.004 103.688 131.005C100.694 134.003 96.6203 136.399 92.7324 138.112C88.8479 139.824 85.0338 140.905 82.4941 141.207C81.8551 141.283 81.2614 141.314 80.748 141.283C80.2766 141.255 79.6993 141.166 79.2321 140.866C78.9744 140.701 78.7128 140.447 78.566 140.078C78.4181 139.707 78.4344 139.339 78.52 139.033C78.6739 138.482 79.0793 138.016 79.4771 137.645C80.7167 136.491 81.9309 134.423 83.0521 131.813C84.1585 129.239 85.1193 126.271 85.9102 123.442C86.6998 120.617 87.3135 117.952 87.7299 115.993C87.938 115.014 88.0965 114.213 88.2027 113.658C88.2558 113.38 88.2959 113.164 88.3225 113.018C88.3359 112.945 88.3459 112.889 88.3524 112.852L88.3598 112.811L88.3619 112.799C88.4541 112.271 88.8968 111.867 89.4437 111.813L89.5669 112.998C89.4437 111.813 89.4432 111.813 89.4437 111.813L89.4493 111.813L89.4608 111.812L89.5011 111.808C89.5356 111.805 89.5851 111.8 89.6487 111.795C89.7758 111.785 89.9593 111.772 90.1915 111.758C90.6556 111.73 91.3157 111.7 92.1099 111.693C93.6928 111.679 95.8345 111.753 98.0294 112.113C100.21 112.472 102.533 113.128 104.416 114.334ZM90.6007 114.121C91.0047 114.1 91.5261 114.081 92.1326 114.076C93.6292 114.062 95.617 114.133 97.6228 114.463C99.6432 114.795 101.591 115.376 103.073 116.325C104.518 117.251 105.495 118.506 105.726 120.278C106.158 123.595 104.638 126.638 101.936 129.343C99.2318 132.052 95.4548 134.298 91.7253 135.941C87.9924 137.586 84.4226 138.577 82.1979 138.842C81.9952 138.866 81.8085 138.884 81.6379 138.895C83.0549 137.373 84.2715 135.143 85.3069 132.734C86.4703 130.026 87.4634 126.95 88.2688 124.068C89.0754 121.182 89.7004 118.468 90.1237 116.477C90.3321 115.496 90.492 114.689 90.6007 114.121Z" fill="#536F62"/>
<path fill-rule="evenodd" clip-rule="evenodd" d="M98.8989 118.479C100.169 119.278 101.149 120.46 101.373 122.145C101.744 124.937 100.402 127.358 98.4171 129.308C96.4343 131.255 93.7363 132.811 91.1615 133.924C88.5889 135.036 86.0629 135.738 84.3809 135.934C83.9578 135.983 83.5646 136.004 83.2246 135.983C82.9124 135.965 82.53 135.907 82.2206 135.713C82.05 135.605 81.8767 135.44 81.7795 135.201C81.6815 134.96 81.6924 134.721 81.7491 134.522C81.851 134.164 82.1195 133.861 82.3829 133.621C83.2038 132.871 84.008 131.527 84.7505 129.833C85.4832 128.16 86.1195 126.233 86.6433 124.395C87.1663 122.56 87.5727 120.829 87.8485 119.557C87.9863 118.921 88.0912 118.401 88.1616 118.04C88.1968 117.859 88.2233 117.719 88.2409 117.624C88.2498 117.577 88.2564 117.541 88.2607 117.517L88.2656 117.49L88.267 117.482C88.3281 117.139 88.6213 116.877 88.9834 116.842L89.0651 117.612C88.9834 116.842 88.9834 116.842 88.9834 116.842L88.9871 116.841L88.9947 116.841L89.0215 116.838C89.0443 116.836 89.0771 116.834 89.1192 116.83C89.2034 116.824 89.3249 116.815 89.4787 116.806C89.786 116.788 90.2232 116.768 90.7492 116.764C91.7975 116.754 93.2159 116.802 94.6695 117.037C96.1134 117.27 97.6523 117.696 98.8989 118.479ZM89.7497 118.341C90.0172 118.327 90.3626 118.315 90.7642 118.311C91.7553 118.303 93.0718 118.349 94.4002 118.563C95.7382 118.779 97.0284 119.156 98.0096 119.772C98.9669 120.374 99.6138 121.189 99.7667 122.34C100.053 124.494 99.046 126.471 97.257 128.228C95.4658 129.987 92.9644 131.446 90.4945 132.514C88.0223 133.582 85.6582 134.226 84.1848 134.398C84.0506 134.413 83.9269 134.425 83.8139 134.432C84.7523 133.444 85.5581 131.995 86.2438 130.43C87.0143 128.672 87.6719 126.673 88.2053 124.802C88.7395 122.927 89.1535 121.164 89.4338 119.871C89.5718 119.234 89.6777 118.71 89.7497 118.341Z" fill="#536F62"/>
<path d="M88.9834 116.842C88.6213 116.877 88.3281 117.139 88.267 117.482L88.2656 117.49L88.2607 117.517C88.2564 117.541 88.2498 117.577 88.2409 117.624C88.2233 117.719 88.1968 117.859 88.1616 118.04C88.0912 118.401 87.9863 118.921 87.8485 119.557C87.5727 120.829 87.1663 122.56 86.6433 124.395C86.1195 126.233 85.4832 128.16 84.7505 129.833C84.008 131.527 83.2038 132.871 82.3829 133.621C82.1195 133.861 81.851 134.164 81.7491 134.522C81.6924 134.721 81.6815 134.96 81.7795 135.201C81.8767 135.44 82.05 135.605 82.2206 135.713C82.53 135.907 82.9124 135.965 83.2246 135.983C83.5646 136.004 83.9578 135.983 84.3809 135.934C86.0629 135.738 88.5889 135.036 91.1615 133.924C93.7363 132.811 96.4343 131.255 98.4171 129.308C100.402 127.358 101.744 124.937 101.373 122.145C101.149 120.46 100.169 119.278 98.8989 118.479C97.6523 117.696 96.1134 117.27 94.6695 117.037C93.2159 116.802 91.7975 116.754 90.7492 116.764C90.2232 116.768 89.786 116.788 89.4787 116.806C89.3249 116.815 89.2034 116.824 89.1192 116.83C89.0771 116.834 89.0443 116.836 89.0215 116.838L88.9947 116.841L88.9871 116.841L88.9834 116.842ZM88.9834 116.842L89.0651 117.612C88.9834 116.842 88.9834 116.842 88.9834 116.842ZM89.7497 118.341C90.0172 118.327 90.3626 118.315 90.7642 118.311C91.7553 118.303 93.0718 118.349 94.4002 118.563C95.7382 118.779 97.0284 119.156 98.0096 119.772C98.9669 120.374 99.6138 121.189 99.7667 122.34C100.053 124.494 99.046 126.471 97.257 128.228C95.4658 129.987 92.9644 131.446 90.4945 132.514C88.0223 133.582 85.6582 134.226 84.1848 134.398C84.0506 134.413 83.9269 134.425 83.8139 134.432C84.7523 133.444 85.5581 131.995 86.2438 130.43C87.0143 128.672 87.6719 126.673 88.2053 124.802C88.7395 122.927 89.1535 121.164 89.4338 119.871C89.5718 119.234 89.6777 118.71 89.7497 118.341Z" stroke="#536F62" stroke-linecap="round" stroke-linejoin="round"/>
</svg>
