<svg width="426" height="122" viewBox="0 0 426 122" fill="none" xmlns="http://www.w3.org/2000/svg">
<path fill-rule="evenodd" clip-rule="evenodd" d="M45.0177 64.0332C46.3008 64.0332 47.341 64.0332 47.341 66.2794L47.341 118.614C47.341 119.855 46.3008 120.86 45.0177 120.86C43.7345 120.86 42.6943 119.855 42.6943 118.614L42.6943 66.2794C42.6943 64.0332 43.7345 64.0332 45.0177 64.0332Z" fill="#C7B8A4"/>
<path fill-rule="evenodd" clip-rule="evenodd" d="M3.51233 23.6274L45.0176 64.0111L86.5228 23.6274L3.51233 23.6274ZM43.0478 65.9343C44.1362 66.9933 45.8989 66.9933 46.9873 65.9343L88.4925 25.5506C90.2512 23.8394 89.0078 20.9101 86.5228 20.9101L3.51233 20.9101C1.02731 20.9101 -0.216085 23.8394 1.54261 25.5506L43.0478 65.9343Z" fill="#C7B8A4"/>
<path d="M110.869 23.8859C110.869 35.6747 101.064 45.2314 88.9683 45.2314C83.1995 45.2314 77.9515 43.0574 74.04 39.5042L72.6537 40.853C76.9203 44.7519 82.6583 47.1395 88.9683 47.1395C102.145 47.1395 112.826 36.7285 112.826 23.8859C112.826 11.0433 102.145 0.632324 88.9683 0.632324C76.7749 0.632324 66.7179 9.54786 65.2852 21.0555H67.2587C68.6792 10.6046 77.8575 2.54036 88.9683 2.54036C101.064 2.54036 110.869 12.0971 110.869 23.8859Z" fill="#C7B8A4"/>
<path fill-rule="evenodd" clip-rule="evenodd" d="M9.8751 32.6905C9.87612 32.1902 10.293 31.7855 10.8063 31.7865L79.6196 31.92L79.6159 33.7316L10.8026 33.598C10.2893 33.5971 9.87408 33.1907 9.8751 32.6905Z" fill="#C7B8A4"/>
<path fill-rule="evenodd" clip-rule="evenodd" d="M50.0613 49.7107C50.7749 49.7107 51.3534 49.1468 51.3534 48.4513C51.3534 47.7558 50.7749 47.1919 50.0613 47.1919C49.3477 47.1919 48.7692 47.7558 48.7692 48.4513C48.7692 49.1468 49.3477 49.7107 50.0613 49.7107ZM50.0613 50.6165C51.2882 50.6165 52.2828 49.6471 52.2828 48.4513C52.2828 47.2555 51.2882 46.2861 50.0613 46.2861C48.8344 46.2861 47.8398 47.2555 47.8398 48.4513C47.8398 49.6471 48.8344 50.6165 50.0613 50.6165Z" fill="#C7B8A4"/>
<path fill-rule="evenodd" clip-rule="evenodd" d="M52.2827 54.0295C52.4309 54.0295 52.5511 53.9124 52.5511 53.768C52.5511 53.6235 52.4309 53.5064 52.2827 53.5064C52.1345 53.5064 52.0143 53.6235 52.0143 53.768C52.0143 53.9124 52.1345 54.0295 52.2827 54.0295ZM52.2827 54.9353C52.9442 54.9353 53.4804 54.4127 53.4804 53.768C53.4804 53.1232 52.9442 52.6006 52.2827 52.6006C51.6212 52.6006 51.085 53.1232 51.085 53.768C51.085 54.4127 51.6212 54.9353 52.2827 54.9353Z" fill="#C7B8A4"/>
<path fill-rule="evenodd" clip-rule="evenodd" d="M35.906 50.5434C37.0598 50.5434 37.9951 49.6318 37.9951 48.5073C37.9951 47.3828 37.0598 46.4712 35.906 46.4712C34.7523 46.4712 33.817 47.3828 33.817 48.5073C33.817 49.6318 34.7523 50.5434 35.906 50.5434ZM35.906 51.4492C37.573 51.4492 38.9244 50.132 38.9244 48.5073C38.9244 46.8825 37.573 45.5654 35.906 45.5654C34.2391 45.5654 32.8877 46.8825 32.8877 48.5073C32.8877 50.132 34.2391 51.4492 35.906 51.4492Z" fill="#C7B8A4"/>
<path fill-rule="evenodd" clip-rule="evenodd" d="M39.6665 55.6825C39.9048 55.6825 40.098 55.4942 40.098 55.2619C40.098 55.0296 39.9048 54.8413 39.6665 54.8413C39.4282 54.8413 39.235 55.0296 39.235 55.2619C39.235 55.4942 39.4282 55.6825 39.6665 55.6825ZM39.6665 56.5883C40.4181 56.5883 41.0274 55.9945 41.0274 55.2619C41.0274 54.5294 40.4181 53.9355 39.6665 53.9355C38.9149 53.9355 38.3057 54.5294 38.3057 55.2619C38.3057 55.9945 38.9149 56.5883 39.6665 56.5883Z" fill="#C7B8A4"/>
<path fill-rule="evenodd" clip-rule="evenodd" d="M43.6512 51.6959C44.3141 51.6959 44.8515 51.1721 44.8515 50.5259C44.8515 49.8798 44.3141 49.356 43.6512 49.356C42.9882 49.356 42.4508 49.8798 42.4508 50.5259C42.4508 51.1721 42.9882 51.6959 43.6512 51.6959ZM43.6512 52.6017C44.8274 52.6017 45.7809 51.6723 45.7809 50.5259C45.7809 49.3795 44.8274 48.4502 43.6512 48.4502C42.475 48.4502 41.5215 49.3795 41.5215 50.5259C41.5215 51.6723 42.475 52.6017 43.6512 52.6017Z" fill="#C7B8A4"/>
<path fill-rule="evenodd" clip-rule="evenodd" d="M46.6702 58.6454C47.3717 58.6454 47.9403 58.0911 47.9403 57.4074C47.9403 56.7237 47.3717 56.1695 46.6702 56.1695C45.9687 56.1695 45.4 56.7237 45.4 57.4074C45.4 58.0911 45.9687 58.6454 46.6702 58.6454ZM46.6702 59.5512C47.8849 59.5512 48.8697 58.5914 48.8697 57.4074C48.8697 56.2235 47.8849 55.2637 46.6702 55.2637C45.4554 55.2637 44.4707 56.2235 44.4707 57.4074C44.4707 58.5914 45.4554 59.5512 46.6702 59.5512Z" fill="#C7B8A4"/>
<path fill-rule="evenodd" clip-rule="evenodd" d="M105.931 39.0028L73.5413 7.43417L75.5127 5.5127L107.902 37.0813L105.931 39.0028Z" fill="#C7B8A4"/>
<path fill-rule="evenodd" clip-rule="evenodd" d="M89.9061 46.3168L88.4283 1.47983L91.2148 1.39258L92.6926 46.2296L89.9061 46.3168Z" fill="#C7B8A4"/>
<path fill-rule="evenodd" clip-rule="evenodd" d="M89.4715 21.2504L103.105 7.43512L105.114 9.31885L91.4809 23.1341L89.4715 21.2504Z" fill="#C7B8A4"/>
<path fill-rule="evenodd" clip-rule="evenodd" d="M89.0543 21.7512L111.568 23.2189L111.382 25.9302L88.8683 24.4625L89.0543 21.7512Z" fill="#C7B8A4"/>
<path fill-rule="evenodd" clip-rule="evenodd" d="M69.8335 33.3792C69.4334 32.4882 69.0141 31.8361 68.6152 31.4639C65.8353 28.8701 65.2076 25.5883 64.8168 21.5532L67.5924 21.2978C67.9796 25.295 68.5627 27.6532 70.5432 29.5011C71.3344 30.2393 71.9319 31.2746 72.3877 32.2899C72.8536 33.3277 73.2221 34.4611 73.5055 35.4922C73.7902 36.5275 73.9962 37.4865 74.1312 38.1854C74.1988 38.5357 74.2489 38.8227 74.2824 39.0238C74.2991 39.1244 74.3117 39.2036 74.3203 39.2587L74.3301 39.3229L74.3328 39.3407L74.3338 39.3477C74.3338 39.3479 74.334 39.3487 72.9538 39.5395C71.5735 39.7302 71.5736 39.7304 71.5736 39.7305L71.5733 39.7283L71.5715 39.7167L71.5637 39.6656C71.5565 39.6194 71.5455 39.5497 71.5304 39.459C71.5002 39.2776 71.454 39.0132 71.3912 38.6878C71.2653 38.0356 71.074 37.1467 70.8125 36.1954C70.5498 35.2398 70.2234 34.2478 69.8335 33.3792Z" fill="black" fill-opacity="0.07"/>
<path fill-rule="evenodd" clip-rule="evenodd" d="M162.726 70.5461C164.009 70.5473 165.048 71.5621 165.047 72.8128L165.002 118.49C165.001 119.741 163.959 120.754 162.676 120.752C161.393 120.751 160.354 119.736 160.355 118.486L160.4 72.8084C160.401 71.5578 161.443 70.5449 162.726 70.5461Z" fill="#C7B8A4"/>
<path fill-rule="evenodd" clip-rule="evenodd" d="M138.206 39.396C138.206 38.8958 138.622 38.4902 139.135 38.4902H186.209V40.3018H139.135C138.622 40.3018 138.206 39.8963 138.206 39.396Z" fill="#C7B8A4"/>
<path fill-rule="evenodd" clip-rule="evenodd" d="M147.039 17.7817C147.039 17.7817 147.039 17.7816 147.039 17.7817L147.037 17.7866L147.028 17.8057L146.99 17.8858C146.957 17.9576 146.908 18.0657 146.843 18.2081C146.715 18.4929 146.527 18.9146 146.294 19.4564C145.828 20.5402 145.182 22.1034 144.462 24.0117C143.022 27.8333 141.301 33.0155 140.156 38.4915C139.008 43.9852 138.46 49.678 139.293 54.5585C140.121 59.412 142.281 63.3251 146.447 65.574C157.341 71.4538 168.104 71.4538 178.998 65.574C183.165 63.3251 185.325 59.412 186.153 54.5585C186.985 49.678 186.438 43.9852 185.289 38.4915C184.144 33.0155 182.423 27.8333 180.983 24.0117C180.264 22.1034 179.617 20.5402 179.151 19.4564C178.919 18.9146 178.731 18.4929 178.602 18.2081C178.538 18.0657 178.488 17.9576 178.455 17.8858L178.418 17.8057L178.409 17.7866L178.407 17.7823C178.086 17.1005 178.392 16.2931 179.092 15.9799C179.791 15.6666 180.619 15.9654 180.94 16.6473L179.674 17.2145C180.94 16.6473 180.941 16.6477 180.941 16.6483L180.945 16.6568L180.956 16.6806L180.998 16.7704C181.034 16.8487 181.086 16.9636 181.154 17.113C181.289 17.4117 181.483 17.8484 181.723 18.4063C182.202 19.5218 182.865 21.1231 183.6 23.0749C185.069 26.9734 186.839 32.2941 188.021 37.9489C189.2 43.5862 189.816 49.6524 188.903 55.0042C187.986 60.383 185.491 65.1757 180.349 67.9512C168.615 74.2846 156.831 74.2846 145.097 67.9512C139.954 65.1757 137.46 60.383 136.543 55.0042C135.63 49.6524 136.246 43.5862 137.424 37.9489C138.607 32.2941 140.376 26.9734 141.845 23.0749C142.581 21.1231 143.243 19.5218 143.723 18.4063C143.963 17.8484 144.157 17.4117 144.292 17.113C144.359 16.9636 144.412 16.8487 144.448 16.7704L144.49 16.6806L144.501 16.6568L144.505 16.6483C144.505 16.6477 144.505 16.6473 145.772 17.2145L144.505 16.6473C144.827 15.9654 145.654 15.6666 146.354 15.9799C147.054 16.2931 147.36 17.0998 147.039 17.7817Z" fill="#C7B8A4"/>
<path fill-rule="evenodd" clip-rule="evenodd" d="M144.669 17.2142C144.669 16.4638 145.293 15.8555 146.063 15.8555H179.38C180.15 15.8555 180.774 16.4638 180.774 17.2142C180.774 17.9645 180.15 18.5728 179.38 18.5728H146.063C145.293 18.5728 144.669 17.9645 144.669 17.2142Z" fill="#C7B8A4"/>
<path fill-rule="evenodd" clip-rule="evenodd" d="M141.883 50.1002C142.647 50.0083 143.343 50.5375 143.437 51.2822C144.049 56.116 145.219 58.6913 147.015 60.4651C148.879 62.3062 151.562 63.451 155.735 65.078C156.45 65.3566 156.798 66.1474 156.512 66.8441C156.226 67.5408 155.415 67.8796 154.7 67.601C150.646 66.0206 147.377 64.691 145.031 62.374C142.616 59.9897 141.317 56.7233 140.67 51.6151C140.575 50.8704 141.118 50.1922 141.883 50.1002Z" fill="#C7B8A4"/>
<path fill-rule="evenodd" clip-rule="evenodd" d="M422.579 27.4126C422.066 27.4126 421.65 27.0011 421.65 26.4935C421.65 20.26 417.091 15.3797 411.659 15.3797C411.541 15.3797 411.424 15.3796 411.307 15.3796C408.358 15.3785 405.766 15.3776 403.863 16.0679C402.913 16.4124 402.196 16.9115 401.705 17.6319C401.211 18.3579 400.884 19.3988 400.884 20.933C400.884 21.4405 400.468 21.852 399.955 21.852C399.442 21.852 399.026 21.4405 399.026 20.933C399.026 19.1447 399.407 17.7155 400.164 16.6049C400.924 15.4888 402.001 14.7851 403.223 14.3421C405.449 13.5347 408.352 13.538 411.142 13.5411C411.314 13.5413 411.487 13.5415 411.659 13.5415C418.302 13.5415 423.509 19.4375 423.509 26.4935C423.509 27.0011 423.093 27.4126 422.579 27.4126Z" fill="#C7B8A4"/>
<path fill-rule="evenodd" clip-rule="evenodd" d="M378.214 22.4741C377.7 22.4741 377.284 22.0626 377.284 21.555C377.284 19.6876 377.649 18.19 378.368 17.0137C379.094 15.8271 380.132 15.0445 381.336 14.5345C383.665 13.5476 386.742 13.5422 389.667 13.5422C391.151 13.5422 392.585 13.5467 393.881 13.6689C395.176 13.791 396.404 14.0358 397.463 14.5561C398.545 15.088 399.425 15.8956 400.02 17.0807C400.603 18.2442 400.885 19.7179 400.885 21.5549C400.885 22.0625 400.469 22.474 399.955 22.474C399.442 22.474 399.026 22.0625 399.026 21.5549C399.026 19.8867 398.768 18.7212 398.355 17.8974C397.952 17.0952 397.379 16.5675 396.636 16.2023C395.869 15.8255 394.898 15.6113 393.704 15.4987C392.511 15.3863 391.167 15.3803 389.667 15.3803C386.622 15.3803 383.973 15.4166 382.068 16.2241C381.154 16.6112 380.449 17.1639 379.959 17.9646C379.463 18.7756 379.143 19.9173 379.143 21.555C379.143 22.0626 378.727 22.4741 378.214 22.4741Z" fill="#C7B8A4"/>
<path fill-rule="evenodd" clip-rule="evenodd" d="M356.633 27.4126C356.12 27.4126 355.704 27.0011 355.704 26.4935C355.704 19.4427 360.879 13.5415 367.492 13.5415C370.445 13.5415 373.351 13.6078 375.506 14.6274C376.623 15.1561 377.557 15.9457 378.198 17.1004C378.831 18.2409 379.144 19.6725 379.144 21.4359C379.144 21.9435 378.727 22.355 378.214 22.355C377.701 22.355 377.285 21.9435 377.285 21.4359C377.285 19.877 377.008 18.7755 376.569 17.9852C376.138 17.2091 375.516 16.6701 374.704 16.2856C372.998 15.4787 370.543 15.3797 367.492 15.3797C362.099 15.3797 357.562 20.2549 357.562 26.4935C357.562 27.0011 357.146 27.4126 356.633 27.4126Z" fill="#C7B8A4"/>
<path fill-rule="evenodd" clip-rule="evenodd" d="M356.262 30.5605C356.294 30.0538 356.734 29.6681 357.247 29.699C383.388 31.2744 397.716 31.4177 422.514 29.6995L422.644 31.5332C397.75 33.258 383.339 33.113 357.134 31.5338C356.621 31.5029 356.231 31.0671 356.262 30.5605Z" fill="#C7B8A4"/>
<path fill-rule="evenodd" clip-rule="evenodd" d="M355.341 9.41672C356.108 9.3474 356.785 9.93086 356.852 10.7199L366.17 119.843C366.237 120.632 365.67 121.327 364.903 121.397C364.136 121.466 363.46 120.883 363.393 120.094L354.075 10.9709C354.007 10.1819 354.574 9.48604 355.341 9.41672Z" fill="#C7B8A4"/>
<path fill-rule="evenodd" clip-rule="evenodd" d="M424.42 9.41622C423.652 9.35007 422.978 9.93681 422.914 10.7268L414.039 119.847C413.974 120.637 414.544 121.331 415.311 121.397C416.079 121.463 416.753 120.877 416.817 120.087L425.692 10.9663C425.757 10.1764 425.187 9.48238 424.42 9.41622Z" fill="#C7B8A4"/>
<path fill-rule="evenodd" clip-rule="evenodd" d="M354.223 10.823C354.223 10.0616 354.847 9.44434 355.617 9.44434H424.342C425.112 9.44434 425.736 10.0616 425.736 10.823C425.736 11.5843 425.112 12.2016 424.342 12.2016H355.617C354.847 12.2016 354.223 11.5843 354.223 10.823Z" fill="#C7B8A4"/>
<path fill-rule="evenodd" clip-rule="evenodd" d="M363.743 120.387C363.743 119.827 364.203 119.372 364.769 119.372H415.368C415.935 119.372 416.395 119.827 416.395 120.387C416.395 120.948 415.935 121.402 415.368 121.402H364.769C364.203 121.402 363.743 120.948 363.743 120.387Z" fill="#C7B8A4"/>
<path fill-rule="evenodd" clip-rule="evenodd" d="M409.11 89.4553C409.824 89.4553 410.402 88.8832 410.402 88.1774C410.402 87.4717 409.824 86.8995 409.11 86.8995C408.397 86.8995 407.818 87.4717 407.818 88.1774C407.818 88.8832 408.397 89.4553 409.11 89.4553ZM409.11 90.3744C410.337 90.3744 411.332 89.3907 411.332 88.1774C411.332 86.9641 410.337 85.9805 409.11 85.9805C407.883 85.9805 406.889 86.9641 406.889 88.1774C406.889 89.3907 407.883 90.3744 409.11 90.3744Z" fill="#C7B8A4"/>
<path fill-rule="evenodd" clip-rule="evenodd" d="M397.671 105.385C397.82 105.385 397.94 105.267 397.94 105.12C397.94 104.973 397.82 104.855 397.671 104.855C397.523 104.855 397.403 104.973 397.403 105.12C397.403 105.267 397.523 105.385 397.671 105.385ZM397.671 106.305C398.333 106.305 398.869 105.774 398.869 105.12C398.869 104.466 398.333 103.936 397.671 103.936C397.01 103.936 396.474 104.466 396.474 105.12C396.474 105.774 397.01 106.305 397.671 106.305Z" fill="#C7B8A4"/>
<path fill-rule="evenodd" clip-rule="evenodd" d="M415.426 68.6501C415.574 68.6501 415.695 68.5313 415.695 68.3847C415.695 68.2381 415.574 68.1193 415.426 68.1193C415.278 68.1193 415.158 68.2381 415.158 68.3847C415.158 68.5313 415.278 68.6501 415.426 68.6501ZM415.426 69.5692C416.088 69.5692 416.624 69.0389 416.624 68.3847C416.624 67.7305 416.088 67.2002 415.426 67.2002C414.765 67.2002 414.229 67.7305 414.229 68.3847C414.229 69.0389 414.765 69.5692 415.426 69.5692Z" fill="#C7B8A4"/>
<path fill-rule="evenodd" clip-rule="evenodd" d="M408.248 100.139C408.397 100.139 408.517 100.021 408.517 99.8739C408.517 99.7274 408.397 99.6085 408.248 99.6085C408.1 99.6085 407.98 99.7274 407.98 99.8739C407.98 100.021 408.1 100.139 408.248 100.139ZM408.248 101.058C408.91 101.058 409.446 100.528 409.446 99.8739C409.446 99.2198 408.91 98.6895 408.248 98.6895C407.587 98.6895 407.051 99.2198 407.051 99.8739C407.051 100.528 407.587 101.058 408.248 101.058Z" fill="#C7B8A4"/>
<path fill-rule="evenodd" clip-rule="evenodd" d="M411.266 82.3342C412.42 82.3342 413.355 81.4092 413.355 80.2682C413.355 79.1272 412.42 78.2023 411.266 78.2023C410.113 78.2023 409.177 79.1272 409.177 80.2682C409.177 81.4092 410.113 82.3342 411.266 82.3342ZM411.266 83.2533C412.933 83.2533 414.285 81.9168 414.285 80.2682C414.285 78.6196 412.933 77.2832 411.266 77.2832C409.599 77.2832 408.248 78.6196 408.248 80.2682C408.248 81.9168 409.599 83.2533 411.266 83.2533Z" fill="#C7B8A4"/>
<path fill-rule="evenodd" clip-rule="evenodd" d="M404.759 109.268C405.422 109.268 405.959 108.736 405.959 108.081C405.959 107.425 405.422 106.894 404.759 106.894C404.096 106.894 403.558 107.425 403.558 108.081C403.558 108.736 404.096 109.268 404.759 109.268ZM404.759 110.187C405.935 110.187 406.888 109.244 406.888 108.081C406.888 106.918 405.935 105.975 404.759 105.975C403.582 105.975 402.629 106.918 402.629 108.081C402.629 109.244 403.582 110.187 404.759 110.187Z" fill="#C7B8A4"/>
<path fill-rule="evenodd" clip-rule="evenodd" d="M366.287 78.5968C367.057 78.5854 367.69 79.1933 367.702 79.9546L366.308 79.9753L364.914 79.996C364.903 79.2347 365.517 78.6083 366.287 78.5968ZM371.761 110.044C371.706 110.007 371.533 109.867 371.272 109.402C370.879 108.702 370.493 107.613 370.136 106.179C369.426 103.334 368.914 99.4862 368.549 95.5724C368.185 91.6733 367.973 87.7677 367.852 84.8328C367.792 83.3664 367.754 82.1449 367.732 81.2906C367.72 80.8636 367.713 80.5285 367.708 80.3006C367.706 80.1867 367.704 80.0997 367.703 80.0413L367.702 79.9556C367.702 79.9556 367.702 79.9546 366.308 79.9753C364.914 79.996 364.914 79.996 364.914 79.996L364.916 80.0897C364.917 80.1504 364.919 80.2399 364.921 80.3563C364.926 80.5891 364.933 80.9297 364.945 81.3625C364.967 82.228 365.006 83.4633 365.067 84.9451C365.189 87.9065 365.403 91.8628 365.773 95.8256C366.141 99.7736 366.668 103.788 367.429 106.839C367.806 108.353 368.262 109.721 368.835 110.741C369.355 111.667 370.256 112.801 371.694 112.801H379.044H386.394C386.394 112.801 386.394 112.801 386.394 111.423L386.394 112.801C387.164 112.801 387.788 112.184 387.788 111.423C387.788 110.661 387.164 110.044 386.394 110.044V111.423C386.394 110.044 386.394 110.044 386.394 110.044H371.761Z" fill="#C7B8A4"/>
<path d="M44.3827 118.713C44.8043 118.657 45.2318 118.657 45.6533 118.713L65.121 121.332H24.915L44.3827 118.713Z" fill="#C7B8A4"/>
<path d="M162.088 118.784C162.509 118.727 162.937 118.727 163.358 118.784L182.826 121.402H142.62L162.088 118.784Z" fill="#C7B8A4"/>
<path fill-rule="evenodd" clip-rule="evenodd" d="M270.389 116.024C253.085 116.024 238.595 99.0948 238.595 77.5945C238.595 76.8441 237.971 76.2358 237.201 76.2358C236.431 76.2358 235.807 76.8441 235.807 77.5945C235.807 100.043 251.034 118.741 270.389 118.741C289.744 118.741 304.971 100.043 304.971 77.5945C304.971 76.8441 304.347 76.2358 303.577 76.2358C302.807 76.2358 302.183 76.8441 302.183 77.5945C302.183 99.0948 287.692 116.024 270.389 116.024Z" fill="#C7B8A4"/>
<path fill-rule="evenodd" clip-rule="evenodd" d="M235.807 77.594C235.807 76.8437 236.431 76.2354 237.201 76.2354L303.577 76.2354C304.347 76.2354 304.971 76.8437 304.971 77.594C304.971 78.3444 304.347 78.9527 303.577 78.9527L237.201 78.9527C236.431 78.9527 235.807 78.3444 235.807 77.594Z" fill="#C7B8A4"/>
<path fill-rule="evenodd" clip-rule="evenodd" d="M304.913 116.669C304.694 115.95 303.918 115.539 303.18 115.753C303.18 115.753 303.18 115.753 303.18 115.753L303.576 117.055C303.18 115.753 303.18 115.753 303.18 115.753L303.175 115.754L303.154 115.76L303.07 115.784C302.996 115.805 302.884 115.836 302.739 115.876C302.449 115.956 302.024 116.071 301.493 116.209C300.43 116.486 298.94 116.855 297.237 117.223C293.805 117.966 289.611 118.685 286.305 118.685H265.319C265.318 118.685 265.318 118.685 265.318 120.043C265.318 121.402 265.318 121.402 265.319 121.402H286.305C289.93 121.402 294.371 120.627 297.842 119.876C299.591 119.497 301.119 119.119 302.211 118.835C302.758 118.693 303.196 118.574 303.498 118.491C303.649 118.449 303.767 118.416 303.847 118.394L303.939 118.368L303.963 118.361L303.972 118.358C303.972 118.358 303.973 118.358 303.576 117.055L303.973 118.358C304.711 118.145 305.132 117.389 304.913 116.669ZM265.318 120.043L265.319 121.402C264.549 121.402 263.924 120.794 263.924 120.043C263.924 119.293 264.549 118.685 265.319 118.685L265.318 120.043Z" fill="#C7B8A4"/>
<path fill-rule="evenodd" clip-rule="evenodd" d="M235.865 116.669C236.083 115.95 236.859 115.539 237.597 115.753C237.597 115.753 237.597 115.753 237.597 115.753L237.201 117.055C237.597 115.753 237.597 115.753 237.597 115.753L237.603 115.754L237.623 115.76L237.707 115.784C237.782 115.805 237.893 115.836 238.038 115.876C238.329 115.956 238.753 116.071 239.284 116.209C240.348 116.486 241.838 116.855 243.54 117.223C246.973 117.966 251.167 118.685 254.472 118.685H275.459C275.459 118.685 275.459 118.685 275.459 120.043C275.459 121.402 275.459 121.402 275.459 121.402H254.472C250.847 121.402 246.406 120.627 242.936 119.876C241.187 119.497 239.658 119.119 238.566 118.835C238.02 118.693 237.582 118.574 237.279 118.491C237.128 118.449 237.011 118.416 236.931 118.394L236.839 118.368L236.814 118.361L236.806 118.358C236.806 118.358 236.805 118.358 237.201 117.055L236.805 118.358C236.067 118.145 235.646 117.389 235.865 116.669ZM275.459 120.043L275.459 121.402C276.229 121.402 276.853 120.794 276.853 120.043C276.853 119.293 276.229 118.685 275.459 118.685L275.459 120.043Z" fill="#C7B8A4"/>
<path fill-rule="evenodd" clip-rule="evenodd" d="M260.223 116.458L249.352 119.582H291.426L280.555 116.458H260.223Z" fill="#C7B8A4"/>
<path fill-rule="evenodd" clip-rule="evenodd" d="M314.961 83.9907C316.42 84.9253 317.544 86.3092 317.801 88.2818C318.227 91.5498 316.687 94.3842 314.408 96.6662C312.132 98.9456 309.034 100.767 306.078 102.07C303.125 103.371 300.225 104.193 298.294 104.423C297.808 104.481 297.356 104.504 296.966 104.481C296.608 104.459 296.169 104.392 295.813 104.164C295.618 104.038 295.419 103.845 295.307 103.565C295.195 103.282 295.207 103.003 295.272 102.77C295.389 102.351 295.697 101.997 296 101.715C296.942 100.837 297.865 99.2646 298.718 97.2807C299.559 95.3231 300.29 93.0669 300.891 90.9155C301.491 88.7674 301.958 86.7419 302.275 85.2523C302.433 84.508 302.553 83.8988 302.634 83.4765C302.674 83.2653 302.705 83.101 302.725 82.9899C302.735 82.9344 302.743 82.8922 302.748 82.8642L302.753 82.8328L302.755 82.8236C302.825 82.422 303.162 82.1152 303.578 82.0741L303.671 82.9753C303.578 82.0741 303.577 82.0741 303.578 82.0741L303.582 82.0737L303.591 82.0728L303.621 82.07C303.647 82.0676 303.685 82.0644 303.733 82.0605C303.83 82.0527 303.97 82.0424 304.146 82.0317C304.499 82.0105 305.001 81.9882 305.605 81.9827C306.808 81.9718 308.437 82.0279 310.106 82.3023C311.763 82.5749 313.53 83.0736 314.961 83.9907ZM304.457 83.8289C304.764 83.8131 305.161 83.7984 305.622 83.7942C306.76 83.7839 308.271 83.8379 309.796 84.0887C311.333 84.3412 312.814 84.7827 313.94 85.5044C315.039 86.2087 315.782 87.1625 315.957 88.51C316.286 91.0321 315.13 93.3459 313.076 95.4026C311.02 97.4618 308.148 99.1695 305.312 100.419C302.474 101.67 299.76 102.423 298.068 102.625C297.914 102.643 297.772 102.656 297.643 102.665C298.72 101.508 299.645 99.8126 300.432 97.9805C301.317 95.922 302.072 93.5827 302.684 91.3917C303.298 89.1974 303.773 87.1338 304.095 85.6198C304.253 84.8741 304.375 84.2606 304.457 83.8289Z" fill="#C7B8A4"/>
<path fill-rule="evenodd" clip-rule="evenodd" d="M310.768 87.142C311.733 87.7491 312.478 88.6479 312.648 89.9292C312.93 92.0519 311.91 93.8929 310.401 95.3751C308.894 96.8557 306.842 98.0388 304.884 98.8849C302.928 99.7303 301.008 100.264 299.729 100.413C299.407 100.451 299.108 100.466 298.85 100.451C298.613 100.437 298.322 100.393 298.087 100.245C297.957 100.164 297.825 100.038 297.751 99.8559C297.677 99.6726 297.685 99.491 297.728 99.3396C297.805 99.0675 298.01 98.8374 298.21 98.6544C298.834 98.0843 299.446 97.0628 300.01 95.7742C300.567 94.5027 301.051 93.0372 301.449 91.6399C301.847 90.2446 302.156 88.929 302.366 87.9614C302.47 87.478 302.55 87.0823 302.604 86.808C302.63 86.6708 302.651 86.5641 302.664 86.492C302.671 86.4559 302.676 86.4285 302.679 86.4103L302.683 86.3899L302.684 86.3839C302.73 86.1231 302.953 85.9238 303.228 85.8971L303.291 86.4824C303.228 85.8971 303.228 85.8971 303.228 85.8971L303.231 85.8968L303.237 85.8963L303.257 85.8944C303.275 85.8929 303.3 85.8908 303.332 85.8882C303.396 85.8832 303.488 85.8765 303.605 85.8696C303.839 85.8558 304.171 85.8413 304.571 85.8377C305.368 85.8307 306.447 85.8671 307.552 86.0453C308.65 86.2224 309.82 86.5463 310.768 87.142ZM303.811 87.0369C304.015 87.0266 304.277 87.0171 304.582 87.0144C305.336 87.0077 306.337 87.0427 307.347 87.2056C308.364 87.3697 309.345 87.6564 310.091 88.1252C310.819 88.5826 311.311 89.2022 311.427 90.0774C311.645 91.7156 310.879 93.2185 309.519 94.5544C308.157 95.8919 306.255 97.0011 304.377 97.8127C302.498 98.6251 300.7 99.1146 299.58 99.2453C299.478 99.2572 299.384 99.2658 299.298 99.2715C300.011 98.52 300.624 97.4188 301.145 96.2288C301.731 94.8917 302.231 93.3722 302.637 91.9491C303.043 90.5239 303.358 89.1835 303.571 88.2001C303.676 87.7158 303.756 87.3173 303.811 87.0369Z" fill="#C7B8A4"/>
<path d="M303.228 85.8971C302.953 85.9238 302.73 86.1231 302.684 86.3839L302.683 86.3899L302.679 86.4103C302.676 86.4285 302.671 86.4559 302.664 86.492C302.651 86.5641 302.63 86.6708 302.604 86.808C302.55 87.0823 302.47 87.478 302.366 87.9614C302.156 88.929 301.847 90.2446 301.449 91.6399C301.051 93.0372 300.567 94.5027 300.01 95.7742C299.446 97.0628 298.834 98.0843 298.21 98.6544C298.01 98.8374 297.805 99.0675 297.728 99.3396C297.685 99.491 297.677 99.6726 297.751 99.8559C297.825 100.038 297.957 100.164 298.087 100.245C298.322 100.393 298.613 100.437 298.85 100.451C299.108 100.466 299.407 100.451 299.729 100.413C301.008 100.264 302.928 99.7303 304.884 98.8849C306.842 98.0388 308.894 96.8557 310.401 95.3751C311.91 93.8929 312.93 92.0519 312.648 89.9292C312.478 88.6479 311.733 87.7491 310.768 87.142C309.82 86.5463 308.65 86.2224 307.552 86.0453C306.447 85.8671 305.368 85.8307 304.571 85.8377C304.171 85.8413 303.839 85.8558 303.605 85.8696C303.488 85.8765 303.396 85.8832 303.332 85.8882C303.3 85.8908 303.275 85.8929 303.257 85.8944L303.237 85.8963L303.231 85.8968L303.228 85.8971ZM303.228 85.8971L303.291 86.4824C303.228 85.8971 303.228 85.8971 303.228 85.8971ZM303.811 87.0369C304.015 87.0266 304.277 87.0171 304.582 87.0144C305.336 87.0077 306.337 87.0427 307.347 87.2056C308.364 87.3697 309.345 87.6564 310.091 88.1252C310.819 88.5826 311.311 89.2022 311.427 90.0774C311.645 91.7156 310.879 93.2185 309.519 94.5544C308.157 95.8919 306.255 97.0011 304.377 97.8127C302.498 98.6251 300.7 99.1146 299.58 99.2453C299.478 99.2572 299.384 99.2658 299.298 99.2715C300.011 98.52 300.624 97.4188 301.145 96.2288C301.731 94.8917 302.231 93.3722 302.637 91.9491C303.043 90.5239 303.358 89.1835 303.571 88.2001C303.676 87.7158 303.756 87.3173 303.811 87.0369Z" stroke="#C7B8A4" stroke-linecap="round" stroke-linejoin="round"/>
</svg>
