<svg width="184" height="98" viewBox="0 0 184 98" fill="none" xmlns="http://www.w3.org/2000/svg">
<path d="M84.1563 22.1825C83.9001 17.8193 85.0574 13.4647 87.5426 9.88544C89.8244 6.54728 93.1519 3.94242 96.9566 2.55202C100.923 1.12221 105.326 0.987386 109.398 2.18328C113.308 3.37819 116.766 5.78193 119.251 8.98747C122.176 12.8015 123.6 17.6564 123.248 22.4601C123.203 23.2272 124.414 23.2345 124.459 22.4675C124.81 17.9464 123.626 13.3353 121.145 9.56436C118.784 5.95572 115.288 3.14789 111.259 1.5484C107.069 -0.0924481 102.386 -0.322796 98.0569 0.902886C93.89 2.08916 90.1595 4.57043 87.4736 7.94652C84.2991 11.9658 82.6529 17.0444 82.9448 22.1751C82.9806 22.9427 84.1921 22.95 84.1563 22.1825Z" fill="#C7B8A4" stroke="#C8B8A3" stroke-width="0.25"/>
<path d="M106.036 17.3877C105.3 18.9583 103.197 19.3898 102.075 17.9695C101.755 17.5637 101.596 16.9973 101.397 16.5518C101.118 15.904 100.88 15.2968 100.601 14.6489C100.243 13.7986 99.8842 12.9887 99.5259 12.1385C99.2471 11.4906 98.9686 10.8024 98.6898 10.1545C98.5305 9.79006 98.3308 9.42538 98.2928 9.02129C98.2576 8.17298 98.2625 7.36531 98.832 6.68221C99.2794 6.15991 99.8874 5.80012 100.495 5.5615C102.033 4.92466 103.851 4.81455 105.505 5.10728C106.837 5.31729 108.489 5.81194 109.249 7.06851C109.649 7.7171 109.724 8.68681 109.558 9.41274C109.434 9.85623 109.149 10.2987 108.985 10.742C108.002 12.8765 107.019 15.1321 106.036 17.3877C105.709 18.1127 106.755 18.7248 107.083 17.9998C108.025 15.8247 109.008 13.6095 109.95 11.4344C110.154 10.951 110.4 10.4679 110.605 9.94411C110.974 9.01748 110.941 7.80571 110.543 6.87443C109.866 5.2549 108.175 4.39654 106.562 4.02328C104.707 3.56778 102.687 3.59591 100.827 4.10963C99.2082 4.58443 97.5868 5.58423 97.132 7.31805C96.9249 8.16489 96.9592 9.17474 97.2773 9.98438C97.516 10.5916 97.7952 11.1587 98.0339 11.7659C98.4717 12.8186 98.9497 13.9119 99.3876 14.9646C99.6262 15.5718 99.9052 16.1793 100.144 16.7866C100.383 17.3534 100.581 17.9604 100.901 18.447C102.062 20.1502 104.483 20.488 106.066 19.1649C106.472 18.8442 106.798 18.402 107.003 17.9186C107.41 17.2749 106.364 16.6628 106.036 17.3877Z" fill="#C7B8A4"/>
<path d="M106.036 17.3877C105.3 18.9583 103.197 19.3898 102.075 17.9695C101.755 17.5637 101.596 16.9973 101.397 16.5518C101.118 15.904 100.88 15.2968 100.601 14.6489C100.243 13.7986 99.8842 12.9887 99.5259 12.1385C99.2471 11.4906 98.9686 10.8024 98.6898 10.1545C98.5305 9.79006 98.3308 9.42538 98.2928 9.02129C98.2576 8.17298 98.2625 7.36531 98.832 6.68221C99.2794 6.15991 99.8874 5.80012 100.495 5.5615C102.033 4.92466 103.851 4.81455 105.505 5.10728C106.837 5.31729 108.489 5.81194 109.249 7.06851C109.649 7.7171 109.724 8.68681 109.558 9.41274C109.434 9.85623 109.149 10.2987 108.985 10.742C108.002 12.8765 107.019 15.1321 106.036 17.3877ZM106.036 17.3877C105.709 18.1127 106.755 18.7248 107.083 17.9998C108.025 15.8247 109.008 13.6095 109.95 11.4344C110.154 10.951 110.4 10.4679 110.605 9.94411C110.974 9.01748 110.941 7.80571 110.543 6.87443C109.866 5.2549 108.175 4.39654 106.562 4.02328C104.707 3.56778 102.687 3.59591 100.827 4.10963C99.2082 4.58443 97.5868 5.58423 97.132 7.31805C96.9249 8.16489 96.9592 9.17474 97.2773 9.98438C97.516 10.5916 97.7952 11.1587 98.0339 11.7659C98.4717 12.8186 98.9497 13.9119 99.3876 14.9646C99.6262 15.5718 99.9052 16.1793 100.144 16.7866C100.383 17.3534 100.581 17.9604 100.901 18.4469C102.062 20.1502 104.483 20.488 106.066 19.1649C106.472 18.8442 106.798 18.402 107.003 17.9186C107.41 17.2749 106.364 16.6628 106.036 17.3877Z" stroke="#C8B8A3" stroke-width="0.25"/>
<path d="M100.561 20.6263C100.365 19.7366 99.8452 18.8449 99.4462 18.0348C99.2069 17.5487 99.0079 17.0629 98.7685 16.5768C98.0511 14.9974 97.3742 13.4183 96.5758 11.8788C96.0567 10.9064 94.9314 10.0111 93.8018 9.80228C92.6723 9.5935 91.5396 9.90971 90.527 10.3882C88.2584 11.5456 86.3471 13.7148 85.4846 16.0923C85.0737 17.261 84.904 18.5927 85.4626 19.7269C85.8214 20.4964 86.4237 21.0655 87.1073 21.5542C87.4692 21.7988 88.1134 22.1257 88.598 22.1287C89.3653 22.1333 89.3727 20.9218 88.6054 20.9172C88.7669 20.9181 88.7667 20.9585 88.6056 20.8768C88.5251 20.8359 88.4042 20.7948 88.3234 20.7943C88.0816 20.7121 87.9206 20.6303 87.7194 20.5079C87.1964 20.1817 86.7551 19.6944 86.5162 19.1275C86.1579 18.2773 86.3657 17.3093 86.6535 16.4629C87.3929 14.4077 89.1006 12.52 91.0048 11.5219C91.7745 11.1227 92.7459 10.7651 93.6332 10.9724C94.4396 11.1793 95.2434 11.8303 95.6022 12.5998C96.2799 14.0578 96.9574 15.5562 97.6755 17.0144C97.8747 17.4599 98.114 17.946 98.3133 18.3914C98.6718 19.2013 99.1917 20.0525 99.3882 20.9422C99.5855 21.7107 100.759 21.3948 100.561 20.6263Z" fill="#C7B8A4" stroke="#C8B8A3" stroke-width="0.25"/>
<path d="M108.072 20.9536C108.198 20.1466 108.687 19.4227 109.096 18.6982C109.381 18.2153 109.627 17.6918 109.912 17.2089C110.647 15.8806 111.342 14.5521 112.077 13.2239C112.445 12.5395 112.69 12.0564 113.339 11.5757C114.15 11.0152 115.039 10.9399 115.926 11.2279C117.941 11.8863 119.626 13.7947 120.543 15.658C121.022 16.6301 121.419 17.7633 121.291 18.853C121.248 19.297 121.043 19.74 120.758 20.1017C120.555 20.3832 120.271 20.5834 119.987 20.7836C119.825 20.9037 119.662 21.0239 119.46 21.1035C119.339 21.1431 119.096 21.182 119.338 21.1835C118.571 21.1788 118.564 22.3904 119.331 22.395C119.937 22.3987 120.586 21.8776 120.992 21.557C121.479 21.1561 121.886 20.7143 122.131 20.1504C122.582 19.1031 122.548 17.9721 122.272 16.88C121.641 14.4531 119.877 12.2212 117.786 10.8757C116.86 10.2643 115.732 9.81326 114.641 9.88742C113.389 9.96059 112.133 10.7203 111.44 11.7661C111.072 12.3697 110.786 13.0141 110.419 13.6177C109.969 14.463 109.52 15.3084 109.03 16.1535C108.744 16.6768 108.499 17.1599 108.213 17.6832C107.723 18.6091 107.03 19.6145 106.822 20.6633C106.777 21.39 107.946 21.7201 108.072 20.9536Z" fill="#C7B8A4" stroke="#C8B8A3" stroke-width="0.25"/>
<path d="M88.0499 79.149C87.4578 83.5475 85.3734 87.6138 82.2046 90.7042C79.1985 93.5938 75.3101 95.4683 71.1875 96.0087C66.9031 96.5884 62.4663 95.673 58.7238 93.4695C55.102 91.3475 52.2543 88.0993 50.5815 84.2526C48.5503 79.5555 48.5425 74.1842 50.3483 69.4296C50.6354 68.7044 49.4663 68.3743 49.1792 69.0995C47.4556 73.6122 47.3437 78.7405 48.9314 83.3137C50.4001 87.5227 53.1645 91.1742 56.8243 93.7003C60.6047 96.3079 65.2413 97.588 69.8064 97.333C74.2503 97.0773 78.5012 95.3665 81.9106 92.5602C85.9696 89.1924 88.5026 84.4019 89.2208 79.1966C89.2631 78.8737 88.9014 78.5888 88.6187 78.5871C88.2958 78.5448 88.0922 78.8262 88.0499 79.149Z" fill="#C7B8A4" stroke="#C8B8A3" stroke-width="0.25"/>
<path d="M65.6753 79.4167C66.6932 78.0498 68.9533 78.3058 69.6303 79.885C69.8295 80.3304 69.8664 80.8961 69.9844 81.4218C70.1016 82.0687 70.2186 82.7559 70.3762 83.403C70.5324 84.2925 70.7287 85.2225 70.8848 86.112C71.0018 86.7992 71.1589 87.5271 71.2759 88.2144C71.354 88.6591 71.4326 89.023 71.3895 89.467C71.0032 93.2205 65.8779 92.624 63.3799 91.6396C62.131 91.1474 60.6419 90.2903 60.206 88.9145C59.9684 88.1458 60.0952 87.2177 60.5032 86.5336C60.7479 86.1312 61.0732 85.7697 61.3583 85.3676C62.7838 83.3974 64.2499 81.387 65.6753 79.4167C66.1235 78.7733 65.0772 78.1612 64.629 78.8046C63.2442 80.7347 61.819 82.6646 60.4342 84.5947C60.1084 85.0369 59.7425 85.4386 59.4972 85.9217C58.9671 86.7666 58.7985 87.9367 58.9943 88.9476C59.307 90.6457 60.9153 91.8266 62.3649 92.522C64.0965 93.3402 66.1133 93.7563 68.0126 93.5659C69.7097 93.4146 71.4908 92.7389 72.2277 91.0875C72.5555 90.3222 72.7226 89.3944 72.566 88.5857C72.4488 87.9388 72.3315 87.2919 72.2143 86.645C72.0193 85.5131 71.7835 84.4212 71.5885 83.2892C71.4715 82.602 71.3139 81.9549 71.1969 81.2676C71.0794 80.6611 71.0026 80.0145 70.7637 79.4476C69.9673 77.585 67.6297 76.8035 65.8467 77.8024C65.3603 78.0821 64.9947 78.4434 64.6689 78.8856C64.1407 79.4074 65.187 80.0196 65.6753 79.4167Z" fill="#C7B8A4"/>
<path d="M65.6753 79.4167C66.6932 78.0498 68.9533 78.3058 69.6303 79.885C69.8295 80.3304 69.8664 80.8961 69.9844 81.4218C70.1016 82.0687 70.2186 82.7559 70.3762 83.403C70.5324 84.2925 70.7287 85.2225 70.8848 86.112C71.0018 86.7992 71.1589 87.5271 71.2759 88.2144C71.354 88.6591 71.4326 89.023 71.3895 89.467C71.0032 93.2205 65.8779 92.624 63.3799 91.6396C62.131 91.1474 60.6419 90.2903 60.206 88.9145C59.9684 88.1458 60.0952 87.2177 60.5032 86.5336C60.7479 86.1312 61.0732 85.7697 61.3583 85.3676C62.7838 83.3974 64.2499 81.387 65.6753 79.4167ZM65.6753 79.4167C66.1235 78.7733 65.0772 78.1612 64.629 78.8046C63.2442 80.7347 61.819 82.6646 60.4342 84.5947C60.1084 85.0369 59.7425 85.4386 59.4972 85.9217C58.9671 86.7666 58.7985 87.9367 58.9943 88.9476C59.307 90.6457 60.9153 91.8266 62.3649 92.522C64.0965 93.3402 66.1133 93.7563 68.0126 93.5659C69.7097 93.4146 71.4908 92.7389 72.2277 91.0875C72.5555 90.3222 72.7226 89.3944 72.566 88.5857C72.4488 87.9388 72.3315 87.2919 72.2143 86.645C72.0193 85.5131 71.7835 84.4212 71.5885 83.2892C71.4715 82.602 71.3139 81.9549 71.1969 81.2676C71.0794 80.6611 71.0026 80.0145 70.7637 79.4476C69.9673 77.585 67.6297 76.8035 65.8467 77.8024C65.3603 78.0821 64.9947 78.4434 64.6689 78.8856C64.1407 79.4074 65.187 80.0196 65.6753 79.4167Z" stroke="#C8B8A3" stroke-width="0.25"/>
<path d="M81.874 78.7885C81.3894 78.7855 81.5115 78.6247 81.6319 78.7466C81.672 78.7872 81.7526 78.8281 81.793 78.8283C81.9941 78.9507 82.1953 79.0731 82.3965 79.1955C82.7989 79.4402 83.2416 79.6852 83.644 79.93C84.5293 80.4604 85.1284 81.5544 85.0415 82.5635C84.9541 83.6534 84.3019 84.6591 83.57 85.4624C82.7161 86.4264 81.6612 87.2278 80.4864 87.8264C79.4736 88.3453 78.3 88.742 77.17 88.614C76.0804 88.4862 75.1564 87.6729 74.7991 86.6611C74.5607 86.0135 74.4846 85.2457 74.3272 84.5582C74.131 83.6281 73.8945 82.6574 73.6983 81.7274C73.5805 81.1613 73.4224 80.5949 73.3047 80.0288C73.0693 78.8966 72.592 77.6821 73.0428 76.5944C73.3299 75.8692 72.1608 75.5391 71.8737 76.2643C71.3817 77.4728 71.7378 78.6865 72.0134 79.8594C72.171 80.5065 72.2883 81.1534 72.4459 81.8005C72.682 82.8116 72.8781 83.7821 73.1142 84.7931C73.2714 85.521 73.3879 86.2891 73.6258 87.0174C74.0617 88.3932 75.3067 89.5315 76.7187 89.7824C78.0499 90.0328 79.3848 89.6774 80.5997 89.1194C81.9361 88.5217 83.1933 87.6409 84.2096 86.5567C85.1039 85.5928 85.9187 84.4266 86.1689 83.1358C86.4609 81.6029 85.7846 79.9026 84.4571 79.0464C84.0146 78.761 83.5718 78.516 83.1293 78.2307C82.8075 78.0268 82.2852 77.5794 81.8813 77.5769C81.0736 77.572 81.0663 78.7836 81.874 78.7885Z" fill="#C7B8A4" stroke="#C8B8A3" stroke-width="0.25"/>
<path d="M57.5255 71.5734C56.5967 71.5678 55.7078 71.6432 54.7785 71.7183C54.2936 71.7557 53.8494 71.753 53.3645 71.7905C52.6777 71.8267 51.9489 72.1454 51.3813 72.5054C48.7862 74.2262 49.4908 77.9056 50.6068 80.3355C51.7231 82.725 54.128 85.7281 57.1211 84.979C57.8089 84.7812 58.6188 84.4226 59.1066 83.9006C59.3503 83.6598 59.5542 83.3379 59.798 83.0971C60.5709 82.1729 61.3842 81.249 62.1572 80.3248C62.6452 79.7623 63.1335 79.1595 63.6619 78.5973C64.6789 77.3919 65.8569 76.2683 65.6652 74.5709C65.5891 73.8032 64.3776 73.7958 64.4537 74.5636C64.6074 75.8569 63.7544 76.6594 62.9414 77.543C62.5346 78.0251 62.0874 78.507 61.6806 78.9892C61.0301 79.7122 60.4197 80.4758 59.7691 81.1988C59.2404 81.8013 58.792 82.4852 58.1829 83.0469C55.9894 85.1336 53.4185 82.8564 52.2188 80.9106C51.499 79.7351 50.9417 78.399 50.7885 77.0249C50.6737 75.9742 50.7217 74.7226 51.5342 73.9198C51.9812 73.4783 52.6699 73.119 53.2764 73.0015C53.7211 72.9234 54.2055 72.9668 54.65 72.9291C55.579 72.8943 56.549 72.779 57.4778 72.7847C58.2855 72.7896 58.2928 71.5781 57.5255 71.5734Z" fill="#C7B8A4" stroke="#C8B8A3" stroke-width="0.25"/>
<path d="M28.7905 48.2994C29.5366 45.1539 31.8539 42.6236 34.2491 40.5785C37.6998 37.6109 41.7116 35.3737 45.8024 33.4196C56.6569 28.2758 68.5086 25.1976 80.313 23.25C93.532 21.109 107.105 20.626 120.38 22.5239C132.364 24.2524 144.095 27.7968 155.13 32.7908C163.749 36.7201 171.958 41.495 179.679 46.9939C180.604 47.6457 181.489 48.2569 181.926 49.3499C182.364 50.4026 182.316 51.6139 181.785 52.6203C181.295 53.5866 180.443 54.1468 179.551 54.7472C178.781 55.2675 178.05 55.7881 177.28 56.3084C173.793 58.6296 170.266 60.789 166.619 62.8266C157.745 67.7401 148.351 71.7621 138.601 74.6106C126.909 78.0129 114.783 79.7162 102.628 79.5213C88.8575 79.3166 75.0594 77.052 61.9182 73.0145C55.6296 71.1186 49.4244 68.779 43.6275 65.7149C39.1187 63.3451 34.4917 60.4901 31.2852 56.4724C30.1628 55.0925 29.2435 53.5119 28.8101 51.7323C28.6128 50.9638 27.4397 51.2797 27.637 52.0483C28.6617 56.2142 32.0346 59.4251 35.3309 61.949C40.2355 65.6539 45.8728 68.3939 51.5535 70.6496C64.4857 75.8571 78.4005 78.8493 92.2449 80.1449C105.242 81.3545 118.331 80.6262 131.11 77.796C141.746 75.4374 152.067 71.6231 161.83 66.7553C165.921 64.7205 169.933 62.4428 173.825 60.0433C175.527 58.9632 177.23 57.8832 178.893 56.7625C180.596 55.6016 182.541 54.5634 183.2 52.4673C183.9 50.2504 183.025 47.9835 181.216 46.6398C179.527 45.418 177.797 44.2363 176.068 43.095C172.046 40.4051 167.861 37.9162 163.593 35.6691C153.207 30.154 142.127 25.8867 130.674 23.2729C117.284 20.2031 103.517 19.5138 89.8583 20.8848C77.0889 22.14 64.3106 24.849 52.2881 29.4608C47.4305 31.3294 42.6519 33.4813 38.2329 36.2814C34.9491 38.3616 31.7438 40.8056 29.5031 44.0229C28.6476 45.2292 27.9931 46.5984 27.6613 48.0503C27.4552 48.7356 28.6243 49.0657 28.7905 48.2994Z" fill="#C7B8A4" stroke="#C8B8A3" stroke-width="0.25"/>
<path d="M27.6389 51.8874C27.286 56.8123 25.52 61.6478 22.4271 65.5465C19.5375 69.204 15.5632 71.9261 11.0331 73.0698C8.04001 73.819 4.88981 73.8402 1.86492 73.1757C1.86247 73.5795 1.86027 73.943 1.85782 74.3468C10.1885 72.4993 16.5704 65.6725 18.9213 57.6096C21.3961 49.1033 19.5561 39.5208 13.7007 32.7812C10.6928 29.3302 6.6294 26.7612 2.15314 25.6841C2.15069 26.0879 2.14848 26.4513 2.14603 26.8552C7.16028 25.7952 12.3644 26.7153 16.71 29.3667C20.7334 31.8546 23.8202 35.6292 25.6517 39.9616C26.7667 42.553 27.396 45.3435 27.6214 48.1314C27.6571 48.899 28.909 48.9066 28.8329 48.1388C28.4607 42.9268 26.6334 37.9079 23.3873 33.7689C20.3815 29.9544 16.199 27.0616 11.441 25.8212C8.29569 25.0348 4.98444 24.9743 1.83007 25.6821C1.26396 25.7998 1.25833 26.7286 1.82297 26.8532C9.72722 28.7185 15.705 35.2569 17.8391 42.9431C20.092 51.0339 18.2999 60.1905 12.648 66.4968C9.72025 69.7906 5.86932 72.15 1.5421 73.1334C0.975989 73.2511 0.970352 74.1799 1.53499 74.3045C6.85858 75.508 12.4372 74.613 17.0985 71.8143C21.3952 69.2153 24.7312 65.197 26.738 60.6052C27.926 57.8258 28.6307 54.8416 28.8507 51.8544C28.8958 51.0873 27.684 51.1204 27.6389 51.8874Z" fill="#C7B8A4" stroke="#C8B8A3" stroke-width="0.25"/>
<path d="M153.609 50.5101C153.598 52.1829 154.946 53.5471 156.619 53.5573C158.292 53.5674 159.656 52.2196 159.666 50.5469C159.676 48.8741 158.329 47.5098 156.656 47.4997C154.983 47.4895 153.619 48.8373 153.609 50.5101Z" fill="#C7B8A4" stroke="#C8B8A3" stroke-width="0.25" stroke-miterlimit="10"/>
<path d="M123.577 41.4421C121.154 41.387 119.147 39.4363 119.162 36.9729C119.177 34.5095 121.207 32.5833 123.631 32.5576C124.398 32.5623 124.405 31.3507 123.638 31.3461C121.296 31.3723 119.187 32.8133 118.326 34.9889C117.464 37.1645 118.135 39.7533 119.943 41.2585C120.988 42.1129 122.237 42.6051 123.61 42.6135C124.337 42.6583 124.344 41.4468 123.577 41.4421Z" fill="#C7B8A4" stroke="#C8B8A3" stroke-width="0.25"/>
<path d="M123.517 51.4167C121.094 51.3616 119.087 49.4109 119.102 46.9475C119.117 44.4841 121.148 42.5579 123.571 42.5322C124.339 42.5369 124.346 41.3254 123.579 41.3207C121.236 41.3469 119.127 42.7879 118.266 44.9635C117.405 47.1391 118.075 49.7279 119.884 51.2331C120.929 52.0876 122.177 52.5798 123.551 52.5881C124.277 52.6733 124.284 51.4618 123.517 51.4167Z" fill="#C7B8A4" stroke="#C8B8A3" stroke-width="0.25"/>
<path d="M123.454 61.5134C121.031 61.4583 119.024 59.5076 119.039 57.0442C119.053 54.5808 121.084 52.6546 123.508 52.6289C124.275 52.6336 124.282 51.422 123.515 51.4174C121.173 51.4435 119.064 52.8846 118.202 55.0602C117.341 57.2358 118.012 59.8246 119.82 61.3298C120.865 62.1842 122.114 62.6764 123.487 62.6848C124.214 62.77 124.221 61.5584 123.454 61.5134Z" fill="#C7B8A4" stroke="#C8B8A3" stroke-width="0.25"/>
<path d="M100.46 57.74C98.0369 57.6849 96.0294 55.7342 96.0444 53.2707C96.0593 50.8073 98.0903 48.8811 100.514 48.8555C101.281 48.8601 101.288 47.6486 100.521 47.6439C98.1784 47.6701 96.0696 49.1112 95.2083 51.2868C94.347 53.4624 95.0179 56.0511 96.8261 57.5564C97.8709 58.4108 99.1199 58.903 100.493 58.9113C101.219 58.9965 101.227 57.785 100.46 57.74Z" fill="#C7B8A4" stroke="#C8B8A3" stroke-width="0.25"/>
<path d="M78.7312 44.2795C76.3084 44.2244 74.3009 42.2737 74.3159 39.8103C74.3308 37.3469 76.3618 35.4207 78.7851 35.395C79.5524 35.3997 79.5597 34.1881 78.7924 34.1835C76.4499 34.2097 74.3411 35.6507 73.4798 37.8263C72.6185 40.0019 73.2894 42.5907 75.0976 44.0959C76.1424 44.9504 77.3914 45.4426 78.7644 45.4509C79.4908 45.5361 79.4982 44.3245 78.7312 44.2795Z" fill="#C7B8A4" stroke="#C8B8A3" stroke-width="0.25"/>
<path d="M63.2614 64.7829C60.8386 64.7278 58.8312 62.7771 58.8461 60.3137C58.8611 57.8503 60.8921 55.9241 63.3153 55.8984C64.0826 55.9031 64.09 54.6916 63.3227 54.6869C60.9802 54.7131 58.8714 56.1542 58.0101 58.3298C57.1488 60.5053 57.8196 63.0941 59.6278 64.5993C60.6727 65.4538 61.9216 65.946 63.2947 65.9543C64.0211 66.0395 64.0285 64.828 63.2614 64.7829Z" fill="#C7B8A4" stroke="#C8B8A3" stroke-width="0.25"/>
<path d="M100.4 67.8356C97.9773 67.7806 95.9699 65.8299 95.9848 63.3665C95.9998 60.903 98.0307 58.9768 100.454 58.9512C101.221 58.9558 101.229 57.7443 100.461 57.7396C98.1189 57.7658 96.01 59.2069 95.1487 61.3825C94.2874 63.5581 94.9583 66.1468 96.7665 67.6521C97.8114 68.5065 99.0603 68.9987 100.433 69.007C101.16 69.0922 101.167 67.8807 100.4 67.8356Z" fill="#C7B8A4" stroke="#C8B8A3" stroke-width="0.25"/>
</svg>
