<svg width="44" height="56" viewBox="0 0 44 56" fill="none" xmlns="http://www.w3.org/2000/svg">
<path d="M13.2988 14.5199C12.7026 14.7627 12.128 15.0437 11.5802 15.3675C10.8928 15.7723 10.2537 16.2389 9.68445 16.7628C9.06685 17.3294 8.54055 17.9675 8.08943 18.6485C7.68664 19.2628 7.32145 19.9152 7.07441 20.5914C6.97774 20.8533 6.89719 21.1199 6.87034 21.3961C6.85422 21.5771 6.84885 21.7771 6.95089 21.939C7.16034 22.2676 7.69201 22.1295 8.0035 22.02C8.64795 21.7961 9.23333 21.4247 9.77038 21.0438C10.4417 20.5676 11.0647 20.0295 11.6071 19.439C12.2462 18.7437 12.7671 17.9628 13.1538 17.1294C13.476 16.4389 13.7016 15.7199 13.8466 14.9865C13.8734 14.8437 13.9003 14.7008 13.9217 14.558C13.9271 14.5151 13.8519 14.4913 13.8466 14.5389C13.7445 15.2008 13.578 15.8532 13.3417 16.4913C13.0302 17.3151 12.5899 18.1056 12.0367 18.8199C11.5319 19.4675 10.925 20.0533 10.2645 20.5818C9.70593 21.0295 9.09907 21.4438 8.43314 21.7628C8.19684 21.8771 7.94443 21.9819 7.68127 22.0342C7.52016 22.0676 7.31608 22.0961 7.16034 22.02C7.0046 21.9438 6.95626 21.7819 6.94552 21.6342C6.92404 21.3961 6.97774 21.158 7.04756 20.9295C7.23553 20.2771 7.55775 19.6533 7.91757 19.0628C8.32573 18.3913 8.79833 17.7485 9.36222 17.1723C9.91001 16.6104 10.5384 16.1056 11.215 15.6675C11.7682 15.3104 12.3536 15.0008 12.9658 14.7294C13.0893 14.677 13.2128 14.6246 13.3364 14.5723C13.3901 14.5627 13.3471 14.5008 13.2988 14.5199Z" fill="black" stroke="#7E684D" stroke-width="0.35" stroke-linejoin="round"/>
<path d="M14.2971 14.5578C14.3884 15.1626 14.5334 15.7578 14.7429 16.3435C15.006 17.0864 15.3712 17.8007 15.8331 18.4674C16.3487 19.2055 16.9824 19.8722 17.6966 20.4626C18.2981 20.9626 18.9533 21.4341 19.6783 21.7865C19.9361 21.915 20.2154 22.0341 20.5054 22.1007C20.6934 22.1436 20.9082 22.1722 21.0854 22.096C21.2519 22.0293 21.3271 21.8769 21.3539 21.7246C21.3915 21.5007 21.3486 21.2674 21.2948 21.0484C21.1337 20.3912 20.8115 19.7626 20.4624 19.1674C20.0543 18.4769 19.5817 17.8198 19.0124 17.2245C18.4539 16.6388 17.8202 16.115 17.122 15.6626C16.5527 15.2912 15.9459 14.9673 15.3175 14.6864C15.1886 14.6292 15.0598 14.5769 14.9309 14.5245C14.8825 14.5054 14.8449 14.5673 14.8879 14.5864C15.4733 14.8245 16.0372 15.1007 16.5742 15.415C17.2509 15.8102 17.8792 16.2674 18.4431 16.7816C19.0554 17.3436 19.5817 17.9674 20.0328 18.6388C20.4409 19.2483 20.8008 19.896 21.0532 20.5674C21.1498 20.8245 21.2358 21.096 21.268 21.3674C21.2895 21.5436 21.3002 21.7531 21.1982 21.9103C21.1123 22.0436 20.9458 22.0769 20.7847 22.0722C20.5322 22.0627 20.2852 21.9769 20.0596 21.8817C19.3615 21.596 18.7331 21.1722 18.1531 20.7293C17.4389 20.1817 16.789 19.5674 16.2466 18.8864C15.7257 18.2293 15.3068 17.515 14.9953 16.7626C14.7483 16.1626 14.5657 15.5388 14.4422 14.9102C14.4207 14.7864 14.3992 14.6673 14.3777 14.5435C14.367 14.4959 14.2918 14.515 14.2971 14.5578Z" fill="black" stroke="#7E684D" stroke-width="0.35" stroke-linejoin="round"/>
<path d="M14.3347 14.5151C14.1843 14.5151 14.0393 14.5151 13.8889 14.5151C13.8352 14.5151 13.8352 14.5866 13.8889 14.5866C14.0393 14.5866 14.1843 14.5866 14.3347 14.5866C14.3884 14.5866 14.3884 14.5151 14.3347 14.5151Z" fill="black" stroke="#7E684D" stroke-width="0.35" stroke-linejoin="round"/>
<path d="M12.2837 18.5105C12.3965 19.02 12.622 19.4962 12.9174 19.9438C13.1913 20.3486 13.5135 20.7343 13.9163 21.0438C14.2654 21.3152 14.7004 21.5486 15.1784 21.5343C15.6563 21.52 16.0538 21.2533 16.333 20.9295C16.6338 20.5771 16.8378 20.1629 16.9828 19.7438C16.999 19.7009 16.9184 19.6819 16.9077 19.7248C16.7841 20.0819 16.6177 20.4295 16.3867 20.7438C16.1343 21.0819 15.7799 21.3962 15.3073 21.4581C14.8454 21.52 14.3997 21.3105 14.0506 21.0581C13.6532 20.7724 13.3309 20.4057 13.0624 20.0248C12.7294 19.5533 12.4717 19.0438 12.3535 18.4962C12.3535 18.4485 12.273 18.4676 12.2837 18.5105Z" fill="black" stroke="#7E684D" stroke-width="0.35" stroke-linejoin="round"/>
<path d="M14.0612 17.1723C13.7282 17.2485 13.4114 17.4295 13.2503 17.7057C13.159 17.858 13.0838 18.0485 13.116 18.2199C13.1428 18.3723 13.2878 18.439 13.449 18.4247C13.7175 18.4057 13.9699 18.258 14.174 18.1104C14.1525 18.1104 14.1364 18.1104 14.1149 18.1104C14.3082 18.2676 14.5445 18.4295 14.8131 18.4723C14.9903 18.5009 15.1514 18.4438 15.189 18.2723C15.2266 18.0771 15.1406 17.858 15.0332 17.6914C14.9205 17.5152 14.7379 17.3818 14.5338 17.2914C14.3942 17.2295 14.2438 17.1914 14.088 17.1723C14.0397 17.1676 14.0129 17.2342 14.0666 17.239C14.3566 17.2771 14.6519 17.3866 14.8506 17.5818C14.9956 17.7247 15.0923 17.9199 15.1138 18.1152C15.1245 18.1914 15.1245 18.2866 15.0708 18.3485C15.0279 18.4009 14.9527 18.4104 14.8829 18.4057C14.6143 18.3914 14.3619 18.2152 14.174 18.058C14.1579 18.0438 14.1364 18.0438 14.1149 18.058C13.943 18.1866 13.739 18.3009 13.5134 18.3438C13.363 18.3723 13.2073 18.3438 13.1858 18.1866C13.1697 18.0295 13.2395 17.858 13.3201 17.7247C13.4114 17.5723 13.551 17.4533 13.7175 17.3676C13.8303 17.3104 13.9484 17.2676 14.0773 17.239C14.1364 17.2295 14.1149 17.1628 14.0612 17.1723Z" fill="black" stroke="#7E684D" stroke-width="0.35" stroke-linejoin="round"/>
<path d="M15.1936 14.5147C14.6082 14.5147 14.0175 14.5147 13.4321 14.5147C13.3462 14.5147 13.2656 14.5147 13.1797 14.5147C13.1904 14.5242 13.2065 14.5385 13.2226 14.5528C13.2226 14.1575 13.2226 13.7671 13.2226 13.3718C13.2226 13.1099 13.2226 12.848 13.2226 12.5861C13.2226 12.4432 13.2012 12.2813 13.2441 12.1432C13.3032 11.948 13.4804 11.7909 13.7006 11.7432C13.8188 11.7147 13.953 11.729 14.0712 11.729C14.2108 11.729 14.3504 11.729 14.4954 11.729C14.678 11.729 14.8445 11.7766 14.9734 11.8909C15.0969 12.0004 15.156 12.1432 15.156 12.2956C15.156 12.348 15.156 12.4004 15.156 12.448C15.156 12.6861 15.156 12.9194 15.156 13.1575C15.156 13.6147 15.156 14.0671 15.156 14.5242C15.156 14.5337 15.156 14.5433 15.156 14.548C15.156 14.5956 15.2366 14.5956 15.2366 14.548C15.2366 14.1337 15.2366 13.7242 15.2366 13.3099C15.2366 13.048 15.2366 12.7861 15.2366 12.5242C15.2366 12.3528 15.2527 12.1766 15.1667 12.0147C15.0755 11.8385 14.8929 11.7099 14.678 11.667C14.5545 11.6432 14.4256 11.6528 14.3021 11.6528C14.1571 11.6528 14.0175 11.6528 13.8725 11.6528C13.6952 11.6528 13.5288 11.7004 13.3891 11.8004C13.228 11.9194 13.1367 12.1004 13.1367 12.2813C13.1367 12.3194 13.1367 12.3575 13.1367 12.4004C13.1367 12.629 13.1367 12.8623 13.1367 13.0909C13.1367 13.5671 13.1367 14.0433 13.1367 14.5195C13.1367 14.529 13.1367 14.5385 13.1367 14.548C13.1367 14.5671 13.1528 14.5861 13.1797 14.5861C13.7651 14.5861 14.3558 14.5861 14.9412 14.5861C15.0271 14.5861 15.1077 14.5861 15.1936 14.5861C15.2419 14.5861 15.2419 14.5147 15.1936 14.5147Z" fill="black" stroke="#7E684D" stroke-width="0.35" stroke-linejoin="round"/>
<path d="M28.3841 25.1057C28.5774 26.3676 29.0768 27.5914 29.9093 28.6343C30.3228 29.1533 30.8169 29.62 31.3539 30.039C31.805 30.3914 32.2991 30.7295 32.8362 30.9724C33.0241 31.0581 33.2228 31.1343 33.4323 31.1724C33.5719 31.1962 33.7277 31.2057 33.8566 31.1391C33.9801 31.0724 34.0338 30.9486 34.0499 30.8248C34.0767 30.6391 34.0391 30.4533 33.9908 30.2724C33.8566 29.7486 33.5934 29.2438 33.3141 28.7676C32.9919 28.22 32.6106 27.6962 32.1595 27.2247C31.3486 26.3723 30.3282 25.6914 29.2057 25.1961C29.1037 25.1533 29.0017 25.1057 28.8996 25.0676C28.8513 25.0485 28.8137 25.1104 28.8567 25.1295C29.9093 25.5581 30.8867 26.139 31.6976 26.8771C32.1863 27.32 32.6052 27.82 32.9651 28.3533C33.2873 28.839 33.5773 29.3486 33.7814 29.8819C33.8619 30.0914 33.9317 30.3057 33.964 30.5295C33.9854 30.6724 33.9962 30.8391 33.921 30.9724C33.7706 31.2343 33.3249 31.0914 33.1047 31.0057C32.5891 30.8152 32.1219 30.5152 31.6923 30.2057C31.1713 29.8295 30.688 29.4057 30.2691 28.9438C29.3454 27.9295 28.7654 26.7009 28.513 25.42C28.4915 25.3104 28.4754 25.2009 28.4539 25.0914C28.4539 25.0438 28.3787 25.0628 28.3841 25.1057Z" fill="black" stroke="#7E684D" stroke-width="0.35" stroke-linejoin="round"/>
<path d="M27.5888 25.0672C26.4986 25.5149 25.489 26.1244 24.6566 26.8958C24.1679 27.353 23.749 27.8673 23.3891 28.4101C23.0669 28.9054 22.7769 29.4292 22.5836 29.9768C22.5084 30.1816 22.4493 30.3959 22.4332 30.6102C22.4225 30.753 22.4278 30.9197 22.5191 31.0435C22.7178 31.3054 23.1797 31.1578 23.4375 31.0625C24.0014 30.8482 24.5116 30.5102 24.9734 30.1625C25.5588 29.7244 26.0959 29.2292 26.5416 28.6768C27.3257 27.7101 27.8251 26.5815 28.0507 25.4101C28.0722 25.3101 28.0883 25.2053 28.1044 25.1053C28.1098 25.0625 28.0346 25.0387 28.0292 25.0863C27.8627 26.1673 27.4761 27.2196 26.837 28.1577C26.4342 28.7435 25.9401 29.272 25.3762 29.7435C24.9036 30.1435 24.3881 30.5149 23.8242 30.8054C23.6147 30.9149 23.3945 31.0149 23.1582 31.0721C23.0132 31.1102 22.836 31.1435 22.6964 31.0863C22.5675 31.034 22.5191 30.9102 22.5084 30.7911C22.4869 30.6054 22.5299 30.4149 22.5836 30.234C22.7286 29.7149 22.9864 29.2197 23.2656 28.753C23.5932 28.2101 23.9692 27.6911 24.4256 27.2244C25.2312 26.3958 26.2301 25.7339 27.3364 25.2482C27.4331 25.2053 27.5298 25.1625 27.6318 25.1244C27.6748 25.1101 27.6372 25.0482 27.5888 25.0672Z" fill="black" stroke="#7E684D" stroke-width="0.35" stroke-linejoin="round"/>
<path d="M28.4216 25.063C28.3034 25.063 28.1853 25.063 28.0671 25.063C28.0134 25.063 28.0134 25.1344 28.0671 25.1344C28.1853 25.1344 28.3034 25.1344 28.4216 25.1344C28.4753 25.1344 28.4753 25.063 28.4216 25.063Z" fill="black" stroke="#7E684D" stroke-width="0.35" stroke-linejoin="round"/>
<path d="M25.9353 29.2627C26.0374 29.5579 26.177 29.8532 26.3757 30.1103C26.5852 30.3865 26.8752 30.6389 27.2619 30.6913C27.6378 30.7437 27.9976 30.6008 28.2876 30.4008C28.6259 30.1675 28.9052 29.8627 29.1361 29.5389C29.4154 29.1484 29.6302 28.7294 29.7269 28.2722C29.7376 28.2294 29.6571 28.2103 29.6517 28.2532C29.5658 28.6484 29.3939 29.0151 29.163 29.3627C28.9535 29.6722 28.7065 29.9722 28.4058 30.2151C28.1372 30.4341 27.7989 30.6294 27.4176 30.6294C27.0363 30.6294 26.7248 30.4103 26.51 30.1532C26.2844 29.8817 26.1287 29.5627 26.0159 29.2436C25.9944 29.2008 25.9192 29.2151 25.9353 29.2627Z" fill="black" stroke="#7E684D" stroke-width="0.35" stroke-linejoin="round"/>
<path d="M28.2658 27.2624C28.5773 27.3338 28.8297 27.5147 28.9371 27.7909C28.9801 27.91 29.0391 28.129 28.8297 28.1433C28.6202 28.1576 28.4 28.0243 28.2497 27.91C28.2336 27.8957 28.2121 27.8957 28.1906 27.91C28.051 28.0243 27.8791 28.1433 27.6858 28.1767C27.6321 28.1862 27.5676 28.1909 27.5139 28.1671C27.4548 28.1338 27.4495 28.0624 27.4495 28.01C27.4548 27.71 27.6911 27.4481 27.9919 27.3338C28.0832 27.3005 28.1852 27.2767 28.2819 27.2624C28.3356 27.2576 28.3087 27.1862 28.2604 27.1957C27.9758 27.229 27.6965 27.3528 27.5354 27.5671C27.4011 27.7386 27.2024 28.2862 27.6321 28.2576C27.8684 28.2433 28.0832 28.0957 28.2497 27.9624C28.2282 27.9624 28.2121 27.9624 28.1906 27.9624C28.3463 28.0719 28.5236 28.1814 28.7223 28.21C28.8458 28.229 28.9854 28.21 29.0338 28.1005C29.0928 27.9719 29.0284 27.8052 28.9693 27.6862C28.8995 27.5433 28.7867 27.4243 28.6417 27.3386C28.5343 27.2767 28.4108 27.229 28.2873 27.2005C28.2389 27.1814 28.2175 27.2481 28.2658 27.2624Z" fill="black" stroke="#7E684D" stroke-width="0.35" stroke-linejoin="round"/>
<path d="M27.3798 25.1341C27.8524 25.1341 28.325 25.1341 28.7923 25.1341C28.8621 25.1341 28.9265 25.1341 28.9963 25.1341C29.0178 25.1341 29.0393 25.1198 29.0393 25.096C29.0393 24.7626 29.0393 24.4293 29.0393 24.1007C29.0393 23.8912 29.0393 23.6817 29.0393 23.4722C29.0393 23.3341 29.05 23.1912 28.9802 23.0579C28.905 22.9198 28.76 22.815 28.5882 22.7817C28.4915 22.7626 28.3841 22.7674 28.2874 22.7674C28.0404 22.7674 27.7665 22.7341 27.557 22.8817C27.4228 22.9769 27.3422 23.1245 27.3422 23.2817C27.3422 23.3103 27.3422 23.3436 27.3422 23.3722C27.3422 23.5579 27.3422 23.7388 27.3422 23.9245C27.3422 24.3055 27.3369 24.6912 27.3422 25.0722C27.3422 25.0817 27.3422 25.0865 27.3422 25.096C27.3422 25.1436 27.4228 25.1436 27.4228 25.096C27.4228 24.7817 27.4228 24.4674 27.4228 24.1531C27.4228 23.9436 27.4228 23.7341 27.4228 23.5293C27.4228 23.4198 27.4067 23.296 27.4335 23.1864C27.4765 23.0245 27.6215 22.8912 27.8041 22.8531C27.8954 22.8341 27.9974 22.8388 28.0941 22.8388C28.3411 22.8388 28.6311 22.8007 28.8191 22.9722C28.9587 23.1007 28.9587 23.2531 28.9587 23.415C28.9587 23.6055 28.9587 23.7912 28.9587 23.9817C28.9587 24.2055 28.9587 24.4341 28.9587 24.6579C28.9587 24.796 28.948 24.9388 28.9587 25.0722C28.9587 25.0769 28.9587 25.0865 28.9587 25.0912C28.9695 25.0817 28.9856 25.0674 29.0017 25.0531C28.5291 25.0531 28.0565 25.0531 27.5893 25.0531C27.5195 25.0531 27.455 25.0531 27.3852 25.0531C27.3261 25.0626 27.3261 25.1341 27.3798 25.1341Z" fill="black" stroke="#7E684D" stroke-width="0.35" stroke-linejoin="round"/>
<path d="M33.4965 9.05325C33.0185 9.43897 32.5728 9.85326 32.1646 10.2961C31.6544 10.8533 31.2087 11.458 30.8435 12.1009C30.4515 12.7961 30.1615 13.5295 29.9574 14.2819C29.7748 14.9676 29.6513 15.6676 29.6244 16.3724C29.6137 16.6533 29.6244 16.9343 29.6727 17.2105C29.7103 17.4009 29.764 17.6057 29.9037 17.7629C30.1776 18.0724 30.6287 17.8629 30.9133 17.6724C31.1657 17.5057 31.3913 17.3009 31.5954 17.0914C31.8531 16.8295 32.0894 16.5486 32.3096 16.2628C32.8091 15.6105 33.228 14.9104 33.5556 14.1819C33.9315 13.3438 34.1571 12.458 34.243 11.5628C34.3128 10.8199 34.286 10.0723 34.1732 9.3342C34.1517 9.19134 34.1248 9.05325 34.098 8.91039C34.0873 8.86753 34.0121 8.88658 34.0228 8.92944C34.1517 9.58659 34.2161 10.258 34.2 10.9247C34.1839 11.7914 34.0336 12.658 33.7435 13.4866C33.475 14.2581 33.083 15.0009 32.6158 15.6914C32.2237 16.2771 31.7726 16.8486 31.2248 17.3295C31.0368 17.4962 30.8274 17.6533 30.5911 17.7629C30.4461 17.8295 30.2635 17.8867 30.1078 17.82C29.9466 17.7533 29.8661 17.5819 29.8124 17.4343C29.7318 17.2009 29.7103 16.9486 29.6996 16.7057C29.6781 16.039 29.7802 15.3676 29.9252 14.7152C30.0916 13.9771 30.3279 13.2533 30.6716 12.5676C31.0046 11.9009 31.4235 11.2723 31.9122 10.6866C32.315 10.2056 32.7608 9.75802 33.2441 9.34373C33.3408 9.25801 33.4428 9.17706 33.5448 9.0961C33.5932 9.07229 33.5341 9.01991 33.4965 9.05325Z" fill="black" stroke="#7E684D" stroke-width="0.35" stroke-linejoin="round"/>
<path d="M34.4577 8.82413C34.7262 9.33366 35.043 9.82414 35.3975 10.2908C35.854 10.8861 36.3857 11.4384 36.9818 11.9289C37.6799 12.5004 38.464 12.9766 39.3018 13.367C40.0644 13.7194 40.87 14.0194 41.7024 14.2099C42.0193 14.2813 42.3469 14.3432 42.6798 14.3575C42.9054 14.367 43.1471 14.3623 43.3565 14.2766C43.7808 14.1004 43.6143 13.6385 43.4532 13.348C43.3082 13.0813 43.1202 12.8385 42.9215 12.6004C42.6798 12.3146 42.4167 12.048 42.1374 11.7908C41.5306 11.2289 40.8646 10.7099 40.1396 10.2718C39.3716 9.80986 38.5392 9.43842 37.6638 9.16699C36.9549 8.94318 36.2192 8.78128 35.4781 8.67651C35.3277 8.65746 35.1827 8.63842 35.0323 8.61937C34.9786 8.61461 34.984 8.68604 35.0323 8.6908C35.7144 8.76699 36.3857 8.8908 37.0409 9.06223C37.8733 9.28128 38.6788 9.58128 39.4361 9.967C40.2148 10.367 40.9291 10.8575 41.5843 11.4051C42.1482 11.8813 42.6906 12.3956 43.1148 12.9766C43.2706 13.1861 43.4156 13.4099 43.4961 13.648C43.5445 13.7908 43.5767 13.9766 43.4693 14.1099C43.3565 14.2385 43.1471 14.2766 42.9698 14.2861C42.6798 14.3051 42.3898 14.2718 42.1106 14.2242C41.3157 14.0861 40.5478 13.8242 39.8174 13.5194C38.9742 13.167 38.174 12.7337 37.4544 12.2051C36.8153 11.7337 36.2407 11.1956 35.7466 10.6051C35.3492 10.1337 35.0001 9.6289 34.6993 9.10509C34.6403 9.00033 34.5812 8.89556 34.5275 8.7908C34.506 8.74794 34.4362 8.78127 34.4577 8.82413Z" fill="black" stroke="#7E684D" stroke-width="0.35" stroke-linejoin="round"/>
<path d="M34.4842 8.77239C34.3446 8.81049 34.1996 8.85334 34.06 8.89144C34.0116 8.90572 34.0331 8.97239 34.0814 8.95811C34.2211 8.92001 34.3661 8.87715 34.5057 8.83906C34.554 8.82953 34.5326 8.7581 34.4842 8.77239Z" fill="black" stroke="#7E684D" stroke-width="0.35" stroke-linejoin="round"/>
<path d="M33.8835 13.129C34.1627 13.5814 34.5333 13.9766 34.9683 14.3195C35.3711 14.6338 35.8168 14.9195 36.3109 15.1147C36.7406 15.2814 37.2508 15.3862 37.7072 15.2338C38.153 15.0862 38.4269 14.729 38.5826 14.3433C38.7491 13.9338 38.7974 13.4861 38.7921 13.0528C38.7921 13.0052 38.7115 13.0052 38.7115 13.0528C38.7115 13.4195 38.6793 13.7861 38.5665 14.1433C38.4484 14.5242 38.2282 14.9195 37.82 15.1147C37.3958 15.3147 36.8963 15.2481 36.4667 15.1004C35.978 14.9338 35.5376 14.6623 35.1402 14.3671C34.6622 14.01 34.254 13.5909 33.9533 13.1052C33.9264 13.0528 33.8566 13.0909 33.8835 13.129Z" fill="black" stroke="#7E684D" stroke-width="0.35" stroke-linejoin="round"/>
<path d="M35.1296 11.382C34.8235 11.5487 34.5818 11.8153 34.5281 12.1391C34.5012 12.3058 34.4905 12.5106 34.5925 12.6629C34.6785 12.7868 34.8342 12.7963 34.9792 12.7439C35.2263 12.6534 35.4142 12.4487 35.5539 12.2582C35.5377 12.2629 35.5163 12.2677 35.5002 12.2725C35.7311 12.3725 36.005 12.4582 36.2628 12.4344C36.4292 12.4201 36.585 12.3439 36.5796 12.1772C36.5742 11.982 36.4131 11.782 36.2574 11.6534C36.0855 11.5058 35.8653 11.4153 35.629 11.3867C35.4679 11.3629 35.3014 11.3677 35.1403 11.3915C35.092 11.401 35.1135 11.4677 35.1618 11.4582C35.4626 11.4106 35.8009 11.4487 36.0587 11.601C36.2359 11.7058 36.3916 11.8725 36.4668 12.0534C36.4937 12.1201 36.5205 12.2106 36.4776 12.2772C36.44 12.3296 36.3702 12.3487 36.3057 12.3629C36.0479 12.4058 35.7687 12.3153 35.5377 12.2201C35.5163 12.2106 35.4948 12.2153 35.484 12.2344C35.3659 12.401 35.2155 12.5629 35.0168 12.6629C34.8987 12.7249 34.7429 12.763 34.657 12.6391C34.5711 12.5058 34.5818 12.3153 34.6033 12.1725C34.6355 11.9963 34.7214 11.8344 34.8503 11.701C34.9416 11.6106 35.049 11.5296 35.1618 11.4677C35.2101 11.4201 35.1726 11.3582 35.1296 11.382Z" fill="black" stroke="#7E684D" stroke-width="0.35" stroke-linejoin="round"/>
<path d="M35.3016 8.54356C34.7431 8.70071 34.1792 8.85785 33.6207 9.015C33.5401 9.03881 33.4596 9.05786 33.379 9.08166C33.3951 9.09119 33.4112 9.09595 33.4273 9.10547C33.2931 8.72928 33.1588 8.35309 33.0245 7.98165C32.9386 7.73403 32.8473 7.48641 32.7614 7.23879C32.7131 7.10545 32.6379 6.95307 32.6271 6.81021C32.6164 6.60545 32.7292 6.40545 32.9332 6.30068C33.0353 6.24354 33.1642 6.21973 33.277 6.1864C33.4112 6.1483 33.5455 6.11021 33.6797 6.07211C33.8516 6.02449 34.0342 6.02449 34.2007 6.10544C34.351 6.17687 34.4585 6.29592 34.5068 6.43878C34.5229 6.49116 34.5444 6.53878 34.5605 6.59116C34.6411 6.81497 34.7216 7.03879 34.7968 7.2626C34.9525 7.69594 35.1083 8.12927 35.2587 8.56737C35.264 8.5769 35.264 8.58166 35.2694 8.59118C35.2855 8.63404 35.3607 8.61499 35.3446 8.57214C35.2049 8.17689 35.0653 7.78641 34.9257 7.39117C34.8398 7.14355 34.7485 6.89593 34.6625 6.64831C34.6035 6.4864 34.5605 6.31497 34.4316 6.1864C34.2866 6.03878 34.061 5.95782 33.8409 5.97687C33.7173 5.9864 33.5938 6.02925 33.4757 6.06259C33.1803 6.14354 32.8366 6.19592 32.654 6.44354C32.5412 6.60069 32.5144 6.79593 32.5734 6.97212C32.5842 7.01021 32.6003 7.04831 32.6164 7.08641C32.6969 7.30546 32.7721 7.52927 32.8527 7.74832C33.0138 8.2007 33.1749 8.65309 33.336 9.10071C33.3414 9.11024 33.3414 9.11976 33.3468 9.12928C33.3521 9.14833 33.3736 9.15786 33.3951 9.15309C33.9536 8.99595 34.5175 8.8388 35.0761 8.68166C35.1566 8.65785 35.2372 8.6388 35.3177 8.61499C35.3714 8.60071 35.35 8.52928 35.3016 8.54356Z" fill="black" stroke="#7E684D" stroke-width="0.35" stroke-linejoin="round"/>
<path d="M36.4013 25.7106C36.1918 25.8058 35.9824 25.901 35.7729 26.001C35.7891 26.0058 35.8105 26.0106 35.8267 26.0153C35.6763 25.7582 35.5259 25.501 35.3755 25.2439C35.2842 25.0867 35.1929 24.9296 35.0963 24.7725C35.0211 24.6486 34.9513 24.5248 34.9298 24.382C34.8815 24.0963 35.005 23.801 35.252 23.6105C35.542 23.3867 35.9717 23.3344 36.3154 23.4867C36.5248 23.5772 36.6698 23.7296 36.7772 23.9105C36.8578 24.0486 36.9383 24.182 37.0189 24.3201C37.1263 24.501 37.2283 24.6772 37.3357 24.8582C37.3787 24.9296 37.4217 25.0058 37.4646 25.0772C37.4915 25.1201 37.513 25.1677 37.5398 25.2058C37.5452 25.2106 37.5452 25.2153 37.5506 25.2248C37.5559 25.2106 37.5613 25.1915 37.5667 25.1772C37.3465 25.2772 37.1263 25.382 36.9061 25.482C36.8578 25.501 36.9007 25.5629 36.9491 25.5439C37.1693 25.4439 37.3895 25.3439 37.6096 25.2391C37.6311 25.2296 37.6311 25.2058 37.6258 25.1915C37.4646 24.9153 37.3035 24.6439 37.1424 24.3677C37.0511 24.2153 36.9598 24.0582 36.8739 23.9058C36.7772 23.7439 36.6698 23.601 36.498 23.4963C36.1918 23.3058 35.7837 23.2772 35.4454 23.4201C35.1446 23.5439 34.9298 23.7963 34.8653 24.0867C34.817 24.3058 34.8653 24.5201 34.9781 24.7106C35.0533 24.8391 35.1285 24.9629 35.2037 25.0915C35.3863 25.4058 35.5635 25.7201 35.7568 26.0296C35.7622 26.0344 35.7622 26.0439 35.7676 26.0487C35.7783 26.0677 35.8052 26.0725 35.8213 26.0629C36.0307 25.9677 36.2402 25.8677 36.4496 25.7725C36.4926 25.7487 36.4496 25.6915 36.4013 25.7106Z" fill="black" stroke="#7E684D" stroke-width="0.35" stroke-linejoin="round"/>
<path d="M6.7629 28.8107C6.80587 28.4631 6.84883 28.1155 6.89179 27.7679C6.91865 27.5536 6.9455 27.3345 6.97235 27.1202C6.99383 26.9631 7.00457 26.8012 7.07976 26.6536C7.24087 26.3393 7.59532 26.1155 7.98737 26.1012C8.39015 26.0869 8.77682 26.2774 8.96479 26.5964C9.08294 26.7964 9.09368 27.0059 9.06683 27.225C9.04534 27.4155 9.01849 27.606 8.99701 27.7964C8.94868 28.1964 8.90034 28.5964 8.85201 28.9964C8.85201 29.006 8.85201 29.0107 8.84664 29.0203C8.85738 29.0107 8.87349 28.9964 8.8896 28.9822C8.417 28.9345 7.94977 28.8917 7.47717 28.8488C7.36439 28.8393 7.25161 28.825 7.13883 28.8155C7.08513 28.8107 7.08513 28.8822 7.13883 28.8869C7.61143 28.9345 8.08403 28.9774 8.562 29.0203C8.66941 29.0298 8.78219 29.0393 8.8896 29.0536C8.91108 29.0536 8.92719 29.0345 8.93256 29.0155C8.97553 28.6488 9.01849 28.2869 9.06683 27.9202C9.09368 27.706 9.12053 27.4917 9.14738 27.2726C9.16886 27.0774 9.18498 26.8869 9.10979 26.6964C8.9809 26.3726 8.66404 26.1202 8.28274 26.0488C7.90144 25.9774 7.49328 26.0869 7.22476 26.3393C7.0368 26.5155 6.9455 26.7345 6.91865 26.9774C6.89716 27.1631 6.87568 27.344 6.8542 27.5298C6.80587 27.9488 6.75216 28.3631 6.70383 28.7822C6.70383 28.7917 6.70383 28.8012 6.69846 28.806C6.67698 28.8583 6.75753 28.8583 6.7629 28.8107Z" fill="black" stroke="#7E684D" stroke-width="0.35" stroke-linejoin="round"/>
<path d="M7.1333 28.8198C6.99904 28.8055 6.85941 28.7913 6.72514 28.7817C6.73589 28.7913 6.752 28.8055 6.76811 28.8198C6.76811 28.7865 6.72514 28.777 6.69829 28.796C6.03773 29.2675 5.37179 29.7246 4.66289 30.1389C4.26548 30.3722 3.84658 30.5722 3.45991 30.8246C3.05176 31.096 2.67045 31.4056 2.33212 31.7437C1.80044 32.2675 1.35469 32.8675 1.07543 33.5294C0.925058 33.8818 0.83913 34.2437 0.790796 34.6151C0.747833 34.9294 0.726351 35.258 0.796167 35.5723C0.860612 35.8485 1.0271 36.1151 1.35469 36.1866C1.65544 36.2485 1.9723 36.1532 2.24619 36.0485C2.8262 35.8247 3.34176 35.4818 3.8251 35.1294C4.63067 34.5389 5.30735 33.8246 5.85513 33.0389C6.34384 32.3389 6.73589 31.5818 7.00978 30.796C7.11719 30.4865 7.20849 30.1675 7.27293 29.8484C7.32126 29.6103 7.35349 29.3675 7.34812 29.1246C7.34812 29.0389 7.33738 28.9532 7.32126 28.8722C7.31052 28.8294 7.23534 28.8484 7.24608 28.8913C7.28904 29.0817 7.2783 29.277 7.25682 29.4675C7.2246 29.7532 7.16552 30.0341 7.08496 30.3103C6.87552 31.0532 6.55329 31.7675 6.15051 32.4389C5.66717 33.2484 5.05493 34.0008 4.31918 34.6437C3.83584 35.0628 3.2988 35.4437 2.71879 35.7532C2.42341 35.9104 2.10656 36.058 1.76822 36.1151C1.47821 36.1675 1.17747 36.1199 1.01098 35.8818C0.823019 35.6104 0.823019 35.2485 0.844501 34.9389C0.865983 34.6008 0.919687 34.2627 1.01636 33.9389C1.23117 33.2389 1.6447 32.6008 2.15489 32.0437C2.51471 31.6532 2.92287 31.296 3.37398 30.9818C3.68547 30.7627 4.02381 30.5865 4.36215 30.4008C5.0979 30.0008 5.80143 29.5389 6.47273 29.0579C6.5694 28.9913 6.6607 28.9198 6.75737 28.8532C6.73589 28.8436 6.70903 28.8341 6.68755 28.8294C6.68755 28.8484 6.70366 28.8627 6.73051 28.8675C6.86478 28.8817 7.00441 28.896 7.13867 28.9055C7.18163 28.896 7.18163 28.8246 7.1333 28.8198Z" fill="black" stroke="#7E684D" stroke-width="0.35" stroke-linejoin="round"/>
<path d="M4.87793 34.1053C4.8833 34.3196 4.92089 34.5339 5.01219 34.7339C5.09812 34.9196 5.22164 35.0863 5.37201 35.2339C5.66202 35.5101 6.03795 35.7101 6.44073 35.8196C6.83277 35.9291 7.26241 35.9577 7.65982 35.853C8.04113 35.753 8.35261 35.5196 8.5728 35.2291C8.70706 35.0529 8.8091 34.8577 8.89503 34.6577C8.93799 34.5482 8.98095 34.4387 9.01318 34.3291C9.02929 34.272 9.0454 34.2148 9.06151 34.1577C9.07225 34.1101 9.0991 34.0529 9.0991 34.0006C9.0991 33.9529 9.01855 33.9529 9.01855 34.0006C9.01855 34.0434 8.99707 34.0958 8.98632 34.1387C8.97558 34.1863 8.95947 34.2339 8.94336 34.2815C8.91651 34.3768 8.88429 34.4672 8.84669 34.5625C8.78225 34.7339 8.69632 34.9006 8.59428 35.0577C8.40094 35.353 8.12168 35.6149 7.75649 35.7434C7.01537 36.0053 6.10239 35.7434 5.53312 35.2815C5.36127 35.1387 5.2109 34.9768 5.10886 34.7863C4.99071 34.572 4.94775 34.3387 4.937 34.1006C4.95849 34.0577 4.87793 34.0577 4.87793 34.1053Z" fill="black" stroke="#7E684D" stroke-width="0.35" stroke-linejoin="round"/>
<path d="M8.79793 29.0348C9.11478 29.6491 9.49072 30.2348 9.92572 30.7824C10.1513 31.0681 10.3983 31.3443 10.6561 31.611C10.8602 31.8205 11.075 32.0205 11.2844 32.23C11.4832 32.4253 11.6765 32.63 11.8483 32.8491C12.0363 33.0919 12.2028 33.3491 12.3478 33.611C12.6324 34.13 12.8687 34.6824 12.9815 35.2491C13.046 35.5634 13.1319 36.1682 12.6432 36.2586C12.4122 36.3015 12.1545 36.2301 11.9396 36.1586C11.6389 36.0586 11.3543 35.9158 11.0857 35.7634C10.4842 35.4205 9.93109 35.0015 9.49072 34.4967C9.02349 33.9681 8.68515 33.3586 8.44885 32.7205C8.22329 32.1157 8.0944 31.4872 8.02995 30.8538C7.97625 30.3253 7.97088 29.7919 8.0031 29.2586C8.00847 29.1538 8.01921 29.0443 8.02458 28.9395C8.02995 28.8919 7.9494 28.8919 7.94403 28.9395C7.90106 29.4491 7.89032 29.9633 7.92254 30.4776C7.96014 31.1062 8.05681 31.7348 8.2394 32.3443C8.43274 32.9919 8.72811 33.6253 9.13627 34.1777C9.54979 34.7396 10.0815 35.211 10.6937 35.6063C10.9676 35.7872 11.2576 35.9491 11.5637 36.0872C11.8108 36.1967 12.0793 36.3015 12.3585 36.3348C12.5519 36.3586 12.7721 36.3491 12.9171 36.2205C13.0674 36.092 13.105 35.8967 13.1104 35.7205C13.1211 35.4634 13.0621 35.2015 12.9922 34.9539C12.9117 34.6634 12.7989 34.3777 12.6754 34.0967C12.4284 33.5539 12.1222 33.03 11.7087 32.5681C11.3059 32.1157 10.8387 31.7157 10.4305 31.2681C9.90424 30.6872 9.45312 30.0586 9.07719 29.3967C9.002 29.2681 8.93219 29.1395 8.86774 29.0062C8.84626 28.9586 8.77645 28.9919 8.79793 29.0348Z" fill="black" stroke="#7E684D" stroke-width="0.35" stroke-linejoin="round"/>
<path d="M35.7741 26.0149C35.3874 26.953 35.092 27.9197 34.888 28.9006C34.7269 29.6863 34.6194 30.4864 34.555 31.2864C34.4959 32.0578 34.4637 32.8483 34.5819 33.615C34.6248 33.8911 34.6893 34.1769 34.8235 34.4292C34.9202 34.6054 35.0706 34.7864 35.3015 34.8293C35.6828 34.9054 36.0641 34.6388 36.3273 34.4292C36.6817 34.1483 36.9878 33.8102 37.251 33.4578C37.3262 33.353 37.4013 33.2483 37.4658 33.1388C37.4926 33.1007 37.4228 33.0626 37.396 33.1007C37.1597 33.4816 36.8643 33.8388 36.526 34.1531C36.3648 34.3054 36.193 34.4483 35.9997 34.5626C35.8439 34.6578 35.6667 34.7483 35.4734 34.7626C35.2263 34.7816 35.0437 34.6435 34.9256 34.4626C34.7806 34.234 34.7161 33.9673 34.6678 33.715C34.5335 32.9769 34.555 32.2149 34.6087 31.4721C34.657 30.7245 34.7537 29.9721 34.888 29.234C35.0706 28.2387 35.3552 27.253 35.7258 26.3006C35.7634 26.2101 35.7956 26.1196 35.8332 26.0339C35.8708 25.9911 35.7902 25.972 35.7741 26.0149Z" fill="black" stroke="#7E684D" stroke-width="0.35" stroke-linejoin="round"/>
<path d="M40.9023 32.534C40.8755 32.9626 40.811 33.4198 40.5855 33.8055C40.4888 33.9722 40.3546 34.1198 40.1666 34.215C39.984 34.3103 39.7638 34.3388 39.5544 34.3245C39.0656 34.2912 38.5984 34.0626 38.2171 33.8055C37.8573 33.5626 37.5458 33.2579 37.3417 32.9007C37.084 32.4483 37.0034 31.9388 36.9551 31.4388C36.8799 30.6959 36.853 29.9531 36.7886 29.2102C36.6973 28.1721 36.5576 27.1388 36.3589 26.1149C36.3375 26.0102 36.316 25.9102 36.2999 25.8054C36.2891 25.7626 36.2139 25.7816 36.2247 25.8245C36.4395 26.8673 36.5952 27.9245 36.6919 28.9816C36.7671 29.7721 36.7939 30.5626 36.8691 31.3483C36.9175 31.8626 36.9927 32.3959 37.2451 32.8674C37.4277 33.215 37.7123 33.515 38.0453 33.7626C38.4266 34.0483 38.8884 34.2912 39.3825 34.3674C39.592 34.4007 39.8121 34.4055 40.0162 34.3483C40.2149 34.2912 40.3868 34.1817 40.5157 34.0388C40.811 33.7102 40.9077 33.2721 40.9614 32.8674C40.9775 32.7531 40.9883 32.6436 40.9936 32.5293C40.9883 32.4864 40.9077 32.4864 40.9023 32.534Z" fill="black" stroke="#7E684D" stroke-width="0.35" stroke-linejoin="round"/>
<path d="M36.9069 25.4772C36.7619 25.5439 36.6169 25.6106 36.4665 25.6772C36.445 25.6868 36.4235 25.6963 36.402 25.7058C36.3537 25.7249 36.3967 25.7868 36.445 25.7677C36.59 25.701 36.735 25.6344 36.8854 25.5677C36.9069 25.5582 36.9284 25.5487 36.9498 25.5391C36.9928 25.5201 36.9498 25.4582 36.9069 25.4772Z" fill="black" stroke="#7E684D" stroke-width="0.35" stroke-linejoin="round"/>
<path d="M37.5354 25.2485C38.2658 25.6961 38.964 26.1818 39.6192 26.7152C40.1401 27.139 40.6342 27.5866 41.0907 28.058C41.5686 28.5485 42.0305 29.058 42.4548 29.5866C42.6857 29.8676 42.9005 30.158 43.0885 30.4628C43.2549 30.7342 43.3946 31.0152 43.4698 31.3152C43.5342 31.5676 43.5396 31.839 43.4375 32.0866C43.314 32.3771 43.0455 32.6152 42.7448 32.7676C42.4225 32.9343 42.0251 33.02 41.6546 32.9295C41.3323 32.8533 41.0853 32.639 40.8919 32.4057C40.6234 32.0866 40.4247 31.7295 40.2314 31.3723C39.9468 30.8485 39.6836 30.32 39.4097 29.7914C39.0391 29.0818 38.6578 28.3723 38.2497 27.6771C37.8952 27.0628 37.5193 26.4533 37.1326 25.8532C37.0628 25.7485 36.993 25.639 36.9232 25.5342C36.9232 25.5485 36.9232 25.558 36.9232 25.5723C36.9393 25.558 36.95 25.539 36.9662 25.5199C36.9984 25.4818 36.9286 25.4485 36.8963 25.4818C36.8802 25.4961 36.8695 25.5151 36.8534 25.5342C36.8426 25.5437 36.848 25.558 36.8534 25.5723C37.2186 26.1247 37.5676 26.6818 37.906 27.2485C38.341 27.9771 38.7545 28.7152 39.1466 29.4628C39.4473 30.0342 39.7373 30.6104 40.038 31.1819C40.2475 31.5723 40.4569 31.9724 40.7308 32.3295C40.8812 32.5295 41.0584 32.72 41.2894 32.8581C41.5955 33.039 41.9714 33.0771 42.3259 32.9962C42.9757 32.8533 43.5557 32.3628 43.5933 31.7485C43.6094 31.4723 43.5342 31.1914 43.4268 30.9342C43.2979 30.6247 43.1153 30.3342 42.922 30.058C42.4923 29.4533 41.9821 28.8961 41.472 28.3437C41.0477 27.8818 40.5912 27.439 40.1079 27.0199C39.4956 26.4913 38.8458 26.0009 38.1584 25.5485C37.9704 25.4247 37.7771 25.3009 37.5784 25.1818C37.53 25.1628 37.4925 25.2247 37.5354 25.2485Z" fill="black" stroke="#7E684D" stroke-width="0.35" stroke-linejoin="round"/>
<path d="M14.1636 11.7006C14.2656 11.1768 14.3838 10.6435 14.5878 10.1435C14.663 9.95774 14.7543 9.76727 14.8886 9.60536C14.9745 9.49583 15.098 9.38631 15.2538 9.36726C15.4417 9.33869 15.6136 9.45298 15.7425 9.5625C15.9466 9.73869 16.1023 9.95774 16.2419 10.172C16.634 10.7816 16.924 11.4482 17.1871 12.1101C17.4557 12.7768 17.6973 13.4578 17.9229 14.134C18.1968 14.9626 18.4492 15.7959 18.6533 16.6435C18.6694 16.7102 18.6855 16.7769 18.7016 16.8435C18.7123 16.8816 18.7177 16.9197 18.7285 16.9578C18.7338 16.9911 18.7553 17.0292 18.7553 17.0626C18.7553 17.1102 18.8359 17.1102 18.8359 17.0626C18.8359 17.0007 18.809 16.9292 18.7929 16.8721C18.7768 16.7959 18.7553 16.7197 18.7392 16.6483C18.7016 16.5007 18.6694 16.353 18.6318 16.2102C18.562 15.9292 18.4814 15.6483 18.4009 15.3721C18.2934 15.0102 18.1807 14.653 18.0625 14.2959C17.837 13.6149 17.6007 12.934 17.3375 12.2625C17.069 11.5768 16.7736 10.8863 16.3816 10.2435C16.2366 10.0101 16.0755 9.77203 15.8714 9.57679C15.7371 9.44821 15.5599 9.31488 15.3504 9.30059C15.0121 9.27678 14.7919 9.59107 14.663 9.81965C14.416 10.2673 14.2871 10.7673 14.1797 11.253C14.1475 11.3959 14.1152 11.5435 14.0884 11.6863C14.0776 11.7244 14.1582 11.7435 14.1636 11.7006Z" fill="black" stroke="#7E684D" stroke-width="0.35" stroke-linejoin="round"/>
<path d="M20.6451 38.3437C20.629 37.1628 20.6022 35.9866 20.57 34.8056C20.5377 33.6627 20.4948 32.5246 20.4411 31.3817C20.3927 30.2865 20.3283 29.1912 20.2531 28.096C20.1833 27.0531 20.1027 26.0103 20.0007 24.9674C19.9094 23.996 19.8074 23.0293 19.6838 22.0578C19.6677 21.9436 19.6516 21.8245 19.6409 21.7102C19.6355 21.6674 19.5549 21.6626 19.5603 21.7102C19.6892 22.6721 19.7966 23.6388 19.8879 24.6055C19.99 25.6341 20.0705 26.6674 20.1457 27.696C20.2209 28.7865 20.2853 29.8722 20.339 30.9627C20.3927 32.1056 20.4411 33.2437 20.4733 34.3865C20.5109 35.558 20.5377 36.7294 20.5538 37.8961C20.5538 38.0437 20.5592 38.1961 20.5592 38.3437C20.5646 38.3913 20.6451 38.3913 20.6451 38.3437Z" fill="black" stroke="#7E684D" stroke-width="0.35" stroke-linejoin="round"/>
<path d="M19.6668 54.6626C19.5111 53.553 19.35 52.4483 19.1835 51.3387C19.0278 50.3054 18.8666 49.272 18.6948 48.2387C18.6035 47.6815 18.5122 47.1244 18.4155 46.5672C18.4102 46.5196 18.3296 46.5434 18.3403 46.5863C18.5122 47.5815 18.6733 48.5815 18.8344 49.5768C19.0009 50.6435 19.162 51.7102 19.3178 52.7768C19.4091 53.4054 19.5004 54.0292 19.5863 54.6578C19.5917 54.7054 19.6722 54.7054 19.6668 54.6626Z" fill="black" stroke="#7E684D" stroke-width="0.35" stroke-linejoin="round"/>
<path d="M8.40625 26.1434C8.94866 25.6529 9.68441 25.2005 10.5007 25.3291C10.7854 25.372 11.0485 25.4815 11.2902 25.6196C11.5856 25.7958 11.838 26.0148 12.0689 26.2529C12.3589 26.5529 12.6059 26.8863 12.8315 27.2244C13.1108 27.6482 13.3578 28.0863 13.578 28.5339C13.8519 29.0768 14.0936 29.6291 14.3137 30.1863C14.5769 30.8387 14.8132 31.5006 15.0334 32.1673C15.2912 32.9387 15.5221 33.7149 15.7423 34.4959C15.9893 35.3768 16.2203 36.2625 16.4351 37.1483C16.6767 38.1435 16.9023 39.1388 17.1117 40.134C17.1655 40.3959 17.2245 40.6578 17.2782 40.9197C17.289 40.9626 17.3642 40.9435 17.3534 40.9007C17.1386 39.8626 16.913 38.8245 16.666 37.7911C16.4458 36.8625 16.2149 35.934 15.9625 35.0149C15.7423 34.2054 15.506 33.3958 15.2482 32.5958C15.0226 31.9006 14.7863 31.2053 14.5178 30.5196C14.2923 29.9339 14.0506 29.3577 13.7767 28.7863C13.5511 28.3148 13.3041 27.8482 13.0195 27.4005C12.7939 27.0386 12.5415 26.6863 12.2515 26.3577C12.0206 26.0958 11.7628 25.8529 11.462 25.6529C11.2204 25.491 10.9518 25.3624 10.6618 25.291C10.0711 25.1529 9.46422 25.3148 8.97014 25.6196C8.74458 25.7577 8.53514 25.9196 8.3418 26.0958C8.30958 26.1243 8.36865 26.1767 8.40625 26.1434Z" fill="black" stroke="#7E684D" stroke-width="0.35" stroke-linejoin="round"/>
<path d="M34.3075 38.6722C33.9423 38.7055 33.5771 38.7388 33.2119 38.7769C33.2226 38.7865 33.2387 38.8008 33.2549 38.815C33.228 38.6008 33.2012 38.3865 33.1743 38.1722C33.1582 38.0388 33.1421 37.9007 33.126 37.7674C33.1152 37.6722 33.0937 37.5722 33.1152 37.4769C33.1582 37.2579 33.3462 37.0769 33.5932 37.0245C33.8402 36.9674 34.1088 37.0531 34.2591 37.2341C34.3451 37.3341 34.3773 37.4484 34.388 37.5722C34.4041 37.6912 34.4149 37.815 34.431 37.9341C34.4632 38.1865 34.4901 38.4341 34.5223 38.6865C34.5277 38.7293 34.6082 38.7341 34.6028 38.6865C34.576 38.4531 34.5491 38.2246 34.5169 37.9912C34.5008 37.8579 34.4847 37.7246 34.4686 37.5865C34.4525 37.4674 34.431 37.3531 34.3612 37.2436C34.2377 37.0626 34.0175 36.9388 33.7758 36.9293C33.5288 36.9198 33.2871 37.0245 33.1475 37.2055C33.04 37.3388 33.0078 37.5007 33.0239 37.6627C33.04 37.7769 33.0508 37.8912 33.0669 38.0055C33.0991 38.2769 33.1313 38.5436 33.1636 38.815C33.1636 38.8341 33.1797 38.8531 33.2065 38.8531C33.5717 38.815 33.9369 38.7817 34.3021 38.7484C34.3612 38.7389 34.3612 38.6674 34.3075 38.6722Z" fill="black" stroke="#7E684D" stroke-width="0.35" stroke-linejoin="round"/>
<path d="M34.1841 38.7055C34.1572 38.8293 34.1626 38.9578 34.1734 39.0817C34.1948 39.2626 34.2324 39.4483 34.2808 39.6245C34.415 40.1007 34.6245 40.5626 34.8823 40.996C35.3924 41.8436 36.1389 42.6055 37.0841 43.096C37.3741 43.2484 37.9004 43.4817 38.1743 43.1817C38.314 43.0245 38.3301 42.8007 38.3301 42.6103C38.3247 42.4055 38.2979 42.196 38.2495 41.996C38.0562 41.2055 37.4601 40.5198 36.7619 40.0198C36.5632 39.8817 36.3538 39.7626 36.1389 39.6483C35.6663 39.3959 35.2206 39.1055 34.791 38.7959C34.7265 38.7483 34.6621 38.7055 34.603 38.6578C34.5761 38.6388 34.5332 38.6483 34.5332 38.6816C34.5439 38.6721 34.56 38.6578 34.5761 38.6436C34.4902 38.6531 34.4043 38.6578 34.3184 38.6674C34.27 38.6721 34.2646 38.7436 34.3184 38.7388C34.4043 38.7293 34.4902 38.7245 34.5761 38.715C34.5976 38.715 34.6191 38.7007 34.6191 38.6769C34.5976 38.6864 34.5708 38.6959 34.5493 38.7007C34.9413 38.9817 35.3441 39.2578 35.763 39.5102C36.0262 39.6674 36.3054 39.8007 36.5632 39.9626C37.1754 40.3579 37.7071 40.9007 38.0025 41.5198C38.1153 41.7483 38.1904 41.9912 38.2227 42.2388C38.2495 42.4245 38.271 42.6103 38.2495 42.796C38.228 42.9722 38.1582 43.1865 37.938 43.2341C37.7554 43.2769 37.5514 43.2103 37.3849 43.1436C37.0412 43.0055 36.7297 42.796 36.4343 42.5817C35.9349 42.215 35.516 41.7722 35.1776 41.2817C34.8769 40.8531 34.6406 40.3912 34.4687 39.9055C34.3506 39.5769 34.2485 39.2198 34.2539 38.8721C34.2539 38.8197 34.2593 38.7674 34.27 38.7197C34.27 38.6816 34.1895 38.6626 34.1841 38.7055Z" fill="black" stroke="#7E684D" stroke-width="0.35" stroke-linejoin="round"/>
<path d="M33.0562 41.9338C33.0562 41.9862 33.083 42.0528 33.0991 42.1052C33.1206 42.1719 33.1367 42.2338 33.1636 42.2957C33.2065 42.4148 33.2656 42.529 33.3354 42.6338C33.4643 42.8243 33.6415 42.9862 33.8778 43.0719C34.3719 43.2481 34.9788 43.0767 35.3493 42.7671C35.5964 42.5624 35.7199 42.2909 35.7306 41.9909C35.7306 41.9433 35.6501 41.9433 35.6501 41.9909C35.6393 42.2481 35.548 42.4814 35.344 42.6671C35.1667 42.829 34.9412 42.9481 34.6995 43.01C34.4686 43.0719 34.2162 43.0909 33.9852 43.029C33.7543 42.9671 33.5717 42.829 33.4375 42.6529C33.3569 42.5481 33.2978 42.429 33.2495 42.31C33.2226 42.2481 33.2012 42.1862 33.1797 42.1195C33.1636 42.0624 33.126 41.9909 33.126 41.929C33.1367 41.8862 33.0562 41.8862 33.0562 41.9338Z" fill="black" stroke="#7E684D" stroke-width="0.35" stroke-linejoin="round"/>
<path d="M33.7329 38.7572C33.792 39.4477 33.7598 40.1524 33.5664 40.8239C33.4536 41.2096 33.2872 41.6096 33.0455 41.9382C32.7877 42.2905 32.4762 42.5953 32.0949 42.8477C31.9284 42.9572 31.7512 43.062 31.5686 43.1477C31.4129 43.2239 31.2464 43.2906 31.0692 43.3191C30.951 43.3382 30.806 43.3429 30.7201 43.2572C30.6342 43.1667 30.6288 43.0334 30.6342 42.9239C30.6503 42.5763 30.7953 42.2239 30.9456 41.9096C31.1014 41.581 31.3001 41.2667 31.5632 40.9905C31.821 40.7143 32.111 40.462 32.3581 40.1762C32.6642 39.8286 32.9273 39.4572 33.1529 39.0619C33.1959 38.981 33.2442 38.9 33.2818 38.8191C33.3033 38.7762 33.2335 38.7429 33.212 38.781C33.0079 39.1762 32.7609 39.5572 32.4762 39.9096C32.2077 40.2429 31.8962 40.5334 31.5955 40.8382C31.3216 41.1143 31.1068 41.4143 30.9349 41.7477C30.7631 42.0763 30.618 42.4334 30.5643 42.7953C30.5321 43.0096 30.5375 43.3334 30.8436 43.3906C30.9886 43.4144 31.1444 43.381 31.284 43.3382C31.472 43.2763 31.6492 43.1906 31.821 43.1001C32.2077 42.8858 32.5622 42.6239 32.8468 42.3048C33.1475 41.9715 33.3677 41.6001 33.5235 41.1953C33.8027 40.481 33.8725 39.7096 33.8296 38.9619C33.8242 38.8905 33.8188 38.8238 33.8135 38.7524C33.8081 38.7143 33.7275 38.7096 33.7329 38.7572Z" fill="black" stroke="#7E684D" stroke-width="0.35" stroke-linejoin="round"/>
<path d="M26.5205 54.8773C26.687 53.7011 26.8588 52.5249 27.0468 51.3487C27.2133 50.3011 27.3905 49.2582 27.5839 48.2153C27.7557 47.2915 27.9383 46.3725 28.137 45.4534C28.3089 44.6534 28.4968 43.8534 28.7063 43.0629C28.8835 42.3867 29.0768 41.7105 29.2917 41.0391C29.4689 40.4819 29.6676 39.9295 29.8932 39.3867C30.0757 38.9486 30.2745 38.5152 30.5108 38.1009C30.6933 37.7819 30.8921 37.4724 31.1391 37.1914C31.3217 36.9866 31.5311 36.7914 31.7835 36.6581C32.0843 36.5009 32.4173 36.4533 32.7556 36.5581C33.0456 36.6485 33.2926 36.8295 33.5075 37.02C33.5451 37.0533 33.5988 37.0009 33.5665 36.9676C33.2336 36.6724 32.8039 36.3962 32.3045 36.4295C32.1863 36.439 32.0736 36.4628 31.9608 36.5009C31.703 36.5914 31.4828 36.7485 31.2948 36.9247C31.0371 37.1628 30.833 37.439 30.6504 37.7247C30.4087 38.1009 30.2046 38.4962 30.022 38.8962C29.7911 39.4057 29.587 39.9295 29.4044 40.4581C29.1843 41.0962 28.9855 41.7438 28.8083 42.3962C28.5935 43.1677 28.4002 43.9439 28.2229 44.7248C28.0189 45.6201 27.8309 46.5248 27.659 47.4248C27.4603 48.4534 27.2777 49.4868 27.1059 50.5201C26.9179 51.663 26.7407 52.8106 26.5742 53.9582C26.5312 54.263 26.4883 54.5678 26.4453 54.8725C26.4346 54.9202 26.5151 54.9202 26.5205 54.8773Z" fill="black" stroke="#7E684D" stroke-width="0.35" stroke-linejoin="round"/>
<path d="M22.8652 31.1474C22.8061 31.9283 22.7524 32.7045 22.7041 33.4855C22.6557 34.3426 22.6074 35.195 22.5698 36.0522C22.5483 36.5712 22.5269 37.0855 22.5054 37.6046C22.5054 37.6522 22.5859 37.6522 22.5859 37.6046C22.6182 36.7046 22.6557 35.8046 22.7041 34.9093C22.747 34.0855 22.7954 33.2617 22.8491 32.4426C22.8759 32.0093 22.9082 31.5807 22.9404 31.1474C22.9511 31.1045 22.8706 31.1045 22.8652 31.1474Z" fill="black" stroke="#7E684D" stroke-width="0.35" stroke-linejoin="round"/>
<path d="M23.1475 28.9481C23.2763 27.6766 23.4267 26.4052 23.6469 25.1433C23.8026 24.2432 23.9906 23.3385 24.2699 22.4575C24.4471 21.9099 24.6512 21.3337 25.0164 20.8575C25.2312 20.5813 25.5588 20.3051 25.9669 20.3813C26.3268 20.448 26.6168 20.7146 26.8423 20.9575C27.2344 21.3766 27.5297 21.8623 27.8036 22.348C27.8896 22.5051 27.9755 22.6623 28.056 22.8194C28.0775 22.8623 28.1473 22.8242 28.1259 22.7813C27.8359 22.2194 27.519 21.6575 27.1162 21.1527C26.8745 20.8527 26.5899 20.5337 26.2086 20.3718C25.9938 20.2813 25.7575 20.2575 25.5373 20.3384C25.3601 20.4051 25.2097 20.5194 25.0862 20.648C24.9197 20.8242 24.7854 21.0289 24.6727 21.2385C24.5223 21.5146 24.4041 21.8051 24.2967 22.1004C23.996 22.9432 23.8026 23.8194 23.6415 24.6909C23.4106 25.9242 23.2495 27.1623 23.1152 28.4052C23.0937 28.5814 23.0776 28.7576 23.0615 28.9338C23.0669 28.9957 23.1475 28.9957 23.1475 28.9481Z" fill="black" stroke="#7E684D" stroke-width="0.35" stroke-linejoin="round"/>
<path d="M21.2686 36.311C21.3223 34.2205 21.3921 32.13 21.4995 30.0442C21.5908 28.1728 21.7143 26.3013 21.8647 24.4299C21.9989 22.7918 22.16 21.1584 22.3641 19.5251C22.5414 18.106 22.7454 16.687 23.0032 15.2727C23.218 14.0869 23.4651 12.906 23.7712 11.7345C24.0236 10.7679 24.3136 9.80594 24.6788 8.86784C24.9688 8.12021 25.3018 7.38211 25.7207 6.68687C26.0429 6.15353 26.4188 5.63448 26.8968 5.19638C27.2674 4.85352 27.7024 4.56304 28.2072 4.39637C29.5015 3.97732 30.828 4.56304 31.8376 5.26781C32.2726 5.57257 32.6808 5.91543 33.0621 6.27258C33.0997 6.30591 33.1534 6.25353 33.1211 6.2202C31.9987 5.17733 30.3768 3.92493 28.61 4.22018C28.1051 4.30589 27.6433 4.52494 27.2459 4.8059C26.7518 5.15828 26.3597 5.61067 26.0214 6.0821C25.5757 6.70115 25.2319 7.37259 24.9258 8.05355C24.5392 8.92975 24.233 9.82975 23.9645 10.7393C23.6369 11.8583 23.3684 12.9917 23.1428 14.1346C22.8743 15.4774 22.6541 16.8298 22.4662 18.1822C22.246 19.7775 22.0688 21.3775 21.9184 22.9775C21.7465 24.8109 21.6176 26.6442 21.5102 28.4823C21.3921 30.549 21.3061 32.6205 21.2417 34.6919C21.2256 35.23 21.2095 35.7681 21.1987 36.3062C21.188 36.3538 21.2686 36.3538 21.2686 36.311Z" fill="black" stroke="#7E684D" stroke-width="0.35" stroke-linejoin="round"/>
<path d="M28.1807 30.3865C27.8531 31.3627 27.5255 32.3389 27.1926 33.3151C26.865 34.2865 26.5374 35.2579 26.2098 36.2294C25.8822 37.2056 25.5546 38.1818 25.2216 39.158C24.894 40.1342 24.5664 41.1104 24.2334 42.0866C23.9058 43.0628 23.5782 44.039 23.2453 45.0152C23.2023 45.1342 23.1647 45.2533 23.1218 45.3723C23.1056 45.4152 23.1862 45.4342 23.1969 45.3914C23.5245 44.4152 23.8521 43.439 24.1851 42.4628C24.5127 41.4913 24.8403 40.5199 25.1679 39.5485C25.4955 38.5723 25.8231 37.5961 26.1561 36.6199C26.4837 35.6437 26.8113 34.6675 27.1442 33.6913C27.4718 32.7151 27.7994 31.7389 28.1324 30.7627C28.1753 30.6436 28.2129 30.5246 28.2559 30.4055C28.272 30.3627 28.1968 30.3436 28.1807 30.3865Z" fill="black" stroke="#7E684D" stroke-width="0.35" stroke-linejoin="round"/>
<path d="M30.0001 25.6293C30.4083 24.8579 30.9024 24.0722 31.622 23.4912C31.8798 23.2817 32.1752 23.1007 32.5028 22.9912C32.8518 22.8721 33.2332 22.8388 33.6037 22.8912C34.1998 22.9817 34.7369 23.2674 35.2041 23.596C35.2417 23.6245 35.3008 23.5722 35.2632 23.5436C34.8335 23.2388 34.3556 22.9721 33.8185 22.8531C33.4265 22.7674 33.0183 22.7674 32.6317 22.8721C31.8798 23.0721 31.2998 23.6055 30.854 24.1579C30.4889 24.6055 30.1935 25.0912 29.9303 25.5912C29.9088 25.6341 29.9787 25.6722 30.0001 25.6293Z" fill="black" stroke="#7E684D" stroke-width="0.35" stroke-linejoin="round"/>
<path d="M19.6188 54.6244C19.635 54.6196 19.6564 54.6339 19.6564 54.6339C19.6564 54.6339 19.6564 54.6339 19.6511 54.6291C19.6457 54.6149 19.6403 54.5958 19.635 54.5815C19.6188 54.5244 19.6027 54.4672 19.5866 54.4149C19.5329 54.2101 19.4738 54.0101 19.4148 53.8053C19.1946 53.0863 18.9153 52.3815 18.5877 51.691C18.0936 50.6529 17.4868 49.6577 16.794 48.7148C16.0529 47.71 15.2097 46.7672 14.2806 45.891C13.475 45.1243 12.605 44.4148 11.6974 43.7433C10.9241 43.1767 10.1185 42.6433 9.29684 42.129C8.65239 41.7243 7.99719 41.3385 7.35811 40.9385C6.95532 40.6862 6.52032 40.429 6.20346 40.0957C6.1229 40.01 6.03698 39.9004 6.02086 39.7861C5.99401 39.5719 6.26253 39.4528 6.46124 39.4004C6.9768 39.2623 7.56218 39.2909 8.08849 39.348C8.6309 39.4052 9.16795 39.51 9.68351 39.6719C10.3924 39.8909 11.0637 40.2052 11.6759 40.5862C12.3097 40.9814 12.8897 41.4433 13.416 41.9481C13.9691 42.4767 14.4686 43.0481 14.9251 43.6433C15.3869 44.2481 15.8112 44.8814 16.1925 45.5291C16.5738 46.1767 16.9283 46.8386 17.2451 47.51C17.5512 48.1529 17.8305 48.8005 18.0883 49.4577C18.3192 50.0529 18.534 50.6482 18.7327 51.2529C18.8992 51.7577 19.0496 52.2672 19.1892 52.7815C19.2912 53.1625 19.3879 53.5434 19.4685 53.9291C19.5114 54.1434 19.5598 54.353 19.5813 54.5672C19.5813 54.5911 19.5866 54.6101 19.5866 54.6339C19.5866 54.6625 19.5813 54.6387 19.5974 54.6339C19.549 54.653 19.592 54.7149 19.6403 54.6958C19.6779 54.6815 19.6672 54.6101 19.6672 54.5815C19.6618 54.4958 19.6457 54.4149 19.635 54.3339C19.5813 54.0291 19.5114 53.7244 19.4416 53.4244C19.3288 52.9672 19.2053 52.5101 19.0711 52.0529C18.8992 51.4815 18.7112 50.9101 18.5125 50.3434C18.2816 49.7005 18.0292 49.0624 17.7553 48.4291C17.4599 47.7481 17.1377 47.0767 16.7886 46.4148C16.4288 45.7433 16.0368 45.0814 15.6071 44.4433C15.1775 43.81 14.7103 43.2005 14.1947 42.6243C13.6952 42.0671 13.1421 41.5433 12.5352 41.0814C11.9552 40.6385 11.3161 40.2433 10.6287 39.9385C9.77481 39.5623 8.84572 39.329 7.89515 39.2528C7.59978 39.229 7.29366 39.2195 6.99829 39.2433C6.77273 39.2576 6.5418 39.2861 6.33235 39.3623C6.13901 39.429 5.9242 39.5623 5.94031 39.7719C5.94568 39.8957 6.02623 40.01 6.11216 40.1052C6.24105 40.2481 6.3968 40.3719 6.55254 40.4862C7.04662 40.8528 7.58904 41.1671 8.12071 41.4909C8.87257 41.9481 9.62444 42.41 10.3494 42.8957C11.2463 43.4957 12.1163 44.129 12.938 44.8052C13.8725 45.5767 14.7425 46.4053 15.5373 47.291C16.4234 48.2862 17.2075 49.3529 17.8573 50.4767C18.3407 51.3101 18.7542 52.172 19.0818 53.0625C19.259 53.5387 19.3987 54.0196 19.5329 54.5101C19.5437 54.5482 19.5651 54.7101 19.6403 54.6911C19.6887 54.6815 19.6672 54.6149 19.6188 54.6244Z" fill="black" stroke="#7E684D" stroke-width="0.35" stroke-linejoin="round"/>
<path d="M16.6336 49.3102C16.0644 48.7721 15.4307 48.2911 14.7594 47.853C14.174 47.4768 13.5564 47.134 12.9066 46.8387C12.4393 46.6244 11.9506 46.4292 11.4458 46.3006C11.29 46.2625 11.1343 46.2292 10.9732 46.2197C10.8926 46.2149 10.7799 46.2149 10.7154 46.272C10.6563 46.3244 10.6778 46.4006 10.71 46.4578C10.7637 46.5625 10.855 46.6482 10.9356 46.734C11.2847 47.0911 11.6821 47.4149 12.0634 47.7435C12.724 48.3054 13.3791 48.8721 14.029 49.4435C14.711 50.0435 15.3823 50.6483 16.0429 51.2578C16.639 51.8102 17.2351 52.3673 17.8205 52.9293C18.3361 53.4245 18.8409 53.9197 19.3457 54.4198C19.4585 54.5293 19.5659 54.6388 19.6787 54.7531C19.7055 54.7817 19.7539 54.7531 19.7485 54.7198C19.5981 54.0912 19.3941 53.4769 19.1363 52.8769C18.7926 52.0816 18.3522 51.3197 17.8151 50.615C17.4607 50.1578 17.0633 49.7197 16.6336 49.3102C16.5961 49.2768 16.5423 49.3292 16.5746 49.3626C17.3103 50.0578 17.9333 50.8388 18.4327 51.6769C18.8355 52.3531 19.1578 53.0626 19.3994 53.7959C19.5015 54.1055 19.5928 54.4245 19.6679 54.7388C19.6894 54.7293 19.7109 54.715 19.7378 54.7055C19.2652 54.234 18.7872 53.7626 18.3092 53.2959C17.7561 52.7626 17.2029 52.2293 16.639 51.7054C16.0107 51.1197 15.3716 50.5388 14.7271 49.9626C14.0505 49.3578 13.363 48.7578 12.6702 48.1673C12.203 47.7673 11.7304 47.3721 11.2739 46.9578C11.145 46.8387 11.0162 46.7244 10.9034 46.5959C10.8443 46.5292 10.7745 46.453 10.7584 46.3721C10.753 46.3578 10.7584 46.334 10.7637 46.3292C10.7852 46.3101 10.8013 46.3054 10.8389 46.2959C10.9517 46.2768 11.0806 46.3006 11.1934 46.3197C11.6445 46.4054 12.0795 46.5673 12.4984 46.7435C13.1106 47.0006 13.7014 47.3006 14.2599 47.634C14.9258 48.0292 15.5596 48.4768 16.1396 48.9721C16.2846 49.0959 16.4296 49.2245 16.5692 49.3578C16.6122 49.3959 16.6712 49.3435 16.6336 49.3102Z" fill="black"/>
<path d="M16.6336 49.3102C16.0644 48.7721 15.4307 48.2911 14.7594 47.853C14.174 47.4768 13.5564 47.134 12.9066 46.8387C12.4393 46.6244 11.9506 46.4292 11.4458 46.3006C11.29 46.2625 11.1343 46.2292 10.9732 46.2197C10.8926 46.2149 10.7799 46.2149 10.7154 46.272C10.6563 46.3244 10.6778 46.4006 10.71 46.4578C10.7637 46.5625 10.855 46.6482 10.9356 46.734C11.2847 47.0911 11.6821 47.4149 12.0634 47.7435C12.724 48.3054 13.3791 48.8721 14.029 49.4435C14.711 50.0435 15.3823 50.6483 16.0429 51.2578C16.639 51.8102 17.2351 52.3673 17.8205 52.9293C18.3361 53.4245 18.8409 53.9197 19.3457 54.4198C19.4585 54.5293 19.5659 54.6388 19.6787 54.7531C19.7055 54.7817 19.7539 54.7531 19.7485 54.7198C19.5981 54.0912 19.3941 53.4769 19.1363 52.8769C18.7926 52.0816 18.3522 51.3197 17.8151 50.615C17.4607 50.1578 17.0633 49.7197 16.6336 49.3102ZM16.6336 49.3102C16.5961 49.2768 16.5423 49.3292 16.5746 49.3626C17.3103 50.0578 17.9333 50.8388 18.4327 51.6769C18.8355 52.3531 19.1578 53.0626 19.3994 53.7959C19.5015 54.1055 19.5928 54.4245 19.6679 54.7388C19.6894 54.7293 19.7109 54.715 19.7378 54.7055C19.2652 54.234 18.7872 53.7626 18.3092 53.2959C17.7561 52.7626 17.2029 52.2293 16.639 51.7054C16.0107 51.1197 15.3716 50.5388 14.7271 49.9626C14.0505 49.3578 13.363 48.7578 12.6702 48.1673C12.203 47.7673 11.7304 47.3721 11.2739 46.9578C11.145 46.8387 11.0162 46.7244 10.9034 46.5959C10.8443 46.5292 10.7745 46.453 10.7584 46.3721C10.753 46.3578 10.7584 46.334 10.7637 46.3292C10.7852 46.3101 10.8013 46.3054 10.8389 46.2959C10.9517 46.2768 11.0806 46.3006 11.1934 46.3197C11.6445 46.4054 12.0795 46.5673 12.4984 46.7435C13.1106 47.0006 13.7014 47.3006 14.2599 47.634C14.9258 48.0292 15.5596 48.4768 16.1396 48.9721C16.2846 49.0959 16.4296 49.2245 16.5692 49.3578C16.6122 49.3959 16.6712 49.3435 16.6336 49.3102Z" stroke="#7E684D" stroke-width="0.35" stroke-linejoin="round"/>
<path d="M26.6011 54.8767C26.7085 53.8386 27.0092 52.81 27.5302 51.8719C28.0672 50.9053 28.8405 50.0529 29.775 49.3624C30.5645 48.7767 31.4506 48.3005 32.385 47.9195C33.2014 47.5909 34.0553 47.3338 34.9306 47.1576C35.5536 47.029 36.1927 46.9338 36.8318 46.929C37.009 46.929 37.1916 46.929 37.3581 46.9671C37.3688 46.9719 37.3849 46.9719 37.3957 46.9766C37.4064 46.9814 37.4279 46.9862 37.4279 46.9862C37.444 46.9957 37.4709 47.01 37.4709 47.01C37.487 47.0243 37.4816 47.0195 37.487 47.029C37.487 47.0243 37.487 47.0338 37.487 47.0338C37.4816 47.0481 37.487 47.0385 37.4816 47.0528C37.4601 47.0909 37.401 47.129 37.3527 47.1576C37.2668 47.2147 37.1701 47.2624 37.0788 47.31C36.7673 47.4671 36.4505 47.6147 36.139 47.7719C35.0112 48.329 33.9264 48.9433 32.8791 49.61C31.6869 50.3719 30.5483 51.2053 29.4743 52.0957C28.6096 52.8148 27.7826 53.5767 27.0038 54.3672C26.8481 54.5291 26.6924 54.691 26.5366 54.8529C26.5044 54.8862 26.5581 54.9386 26.5957 54.9053C27.3207 54.1386 28.0887 53.4005 28.8889 52.6957C29.92 51.7957 31.0156 50.9481 32.1702 50.1671C33.3034 49.4005 34.4903 48.6957 35.7201 48.0624C36.096 47.8719 36.4773 47.6862 36.8533 47.5052C37.0627 47.4052 37.2829 47.31 37.4655 47.1766C37.5407 47.1243 37.6266 47.0338 37.5299 46.9576C37.4333 46.8862 37.2722 46.8766 37.154 46.8671C36.9231 46.8481 36.6868 46.8576 36.4505 46.8719C36.1229 46.8957 35.7953 46.9338 35.4677 46.9862C34.6191 47.1243 33.7867 47.3385 32.9865 47.6147C32.0413 47.9433 31.1284 48.3671 30.3067 48.9005C29.4098 49.4767 28.615 50.1814 27.9974 51.0052C27.2563 51.9957 26.7944 53.1338 26.5957 54.3005C26.5635 54.491 26.5366 54.6862 26.5151 54.8767C26.5151 54.9196 26.5957 54.9196 26.6011 54.8767Z" fill="black" stroke="#7E684D" stroke-width="0.35" stroke-linejoin="round"/>
<path d="M22.3203 52.0576C22.3096 51.8433 22.2988 51.6338 22.2827 51.4195C22.2827 51.3719 22.2021 51.3719 22.2021 51.4195C22.2129 51.6338 22.229 51.8433 22.2397 52.0576C22.2397 52.1052 22.3203 52.1052 22.3203 52.0576Z" fill="black" stroke="#7E684D" stroke-width="0.35" stroke-linejoin="round"/>
<path d="M20.0446 44.739C19.9962 43.7437 20.0123 42.7437 20.0929 41.7532C20.1466 41.1199 20.2271 40.4913 20.3399 39.8675C20.4151 39.4437 20.4957 39.0246 20.587 38.6056C20.7105 38.0484 20.8447 37.4865 21.0273 36.9437C21.1025 36.7151 21.1885 36.4865 21.2959 36.2722C21.3657 36.1341 21.4516 35.9722 21.5859 35.877C21.6879 35.8056 21.7846 35.8246 21.8759 35.9056C22.0209 36.0389 22.1014 36.2294 22.1712 36.4008C22.3968 36.9579 22.515 37.5484 22.6224 38.1294C22.7244 38.6627 22.7996 39.1961 22.8748 39.7294C22.9768 40.4818 23.0466 41.2342 23.0896 41.9866C23.1433 42.958 23.1487 43.9342 23.1057 44.9056C23.095 45.1675 23.0789 45.4342 23.0627 45.6961C23.0574 45.7437 23.1379 45.7437 23.1433 45.6961C23.2131 44.6628 23.2292 43.6294 23.197 42.5961C23.1702 41.7342 23.1003 40.877 22.9929 40.0199C22.9285 39.5104 22.8587 39.0008 22.7674 38.4913C22.66 37.877 22.5472 37.2579 22.3485 36.6627C22.2787 36.4437 22.1927 36.2198 22.0638 36.0198C21.994 35.9103 21.8812 35.7675 21.7201 35.7627C21.5751 35.7627 21.4677 35.8722 21.3925 35.9675C21.2636 36.1294 21.1777 36.3198 21.1025 36.5056C20.8823 37.0294 20.7427 37.577 20.6084 38.1246C20.4903 38.6199 20.3883 39.1199 20.297 39.6199C20.2057 40.1056 20.1305 40.5961 20.0768 41.0913C19.964 42.0437 19.921 43.0009 19.9318 43.958C19.9371 44.2247 19.9425 44.4914 19.9586 44.758C19.964 44.7818 20.0446 44.7818 20.0446 44.739Z" fill="black" stroke="#7E684D" stroke-width="0.35" stroke-linejoin="round"/>
<path d="M22.4928 55.0919C22.2511 53.1252 22.2028 51.1395 22.4337 49.1728C22.6055 47.6871 22.9331 46.2157 23.4433 44.7918C23.83 43.7156 24.3241 42.6728 24.9148 41.668C25.3391 40.9489 25.801 40.2442 26.2843 39.5537C26.6871 38.9822 27.1006 38.4061 27.5947 37.8918C27.7075 37.7727 27.8471 37.606 28.0136 37.5441C28.0512 37.5299 28.078 37.5251 28.0995 37.5632C28.1425 37.6394 28.1102 37.7632 28.0941 37.8394C28.0243 38.2013 27.8954 38.5537 27.7773 38.9061C27.686 39.1775 27.5893 39.4442 27.4926 39.7156C27.4551 39.8299 27.4121 39.9394 27.3745 40.0537C27.2349 40.4632 27.0952 40.8775 26.9556 41.287C26.6656 42.1537 26.3702 43.0204 26.0802 43.8871C25.5808 45.3728 25.0867 46.8585 24.5872 48.3442C24.0019 50.0919 23.4111 51.8348 22.8633 53.5919C22.7076 54.0872 22.5572 54.5872 22.4068 55.0824C22.3961 55.1253 22.4713 55.1443 22.482 55.1015C23.0298 53.2824 23.6206 51.4728 24.2274 49.6681C24.7806 48.0061 25.3337 46.349 25.8923 44.6871C26.2252 43.6966 26.5582 42.7013 26.8912 41.7108C27.0576 41.2156 27.2241 40.7156 27.396 40.2204C27.4497 40.0632 27.5034 39.9013 27.5571 39.7442C27.7021 39.3299 27.8525 38.9156 27.9867 38.4965C28.0404 38.3299 28.0941 38.1584 28.1371 37.987C28.164 37.8727 28.1908 37.7537 28.1908 37.6394C28.1854 37.5203 28.121 37.4203 27.976 37.4775C27.8095 37.5441 27.6699 37.6965 27.5517 37.8156C27.3423 38.0299 27.1489 38.2632 26.961 38.4965C26.4454 39.1442 25.9728 39.8251 25.5271 40.5108C24.8235 41.5918 24.1898 42.7061 23.7011 43.8823C23.1533 45.1871 22.7666 46.549 22.525 47.9252C22.1974 49.7681 22.1276 51.6395 22.2511 53.4967C22.2887 54.03 22.337 54.5634 22.4015 55.0919C22.4176 55.1348 22.4981 55.1348 22.4928 55.0919Z" fill="black" stroke="#7E684D" stroke-width="0.35" stroke-linejoin="round"/>
<path d="M22.5303 55.2104C22.5196 54.1628 22.4551 53.1152 22.3209 52.077C22.2081 51.1723 22.0416 50.277 21.8214 49.3913C21.6281 48.6103 21.3918 47.8389 21.1071 47.0818C20.8601 46.4294 20.5808 45.7817 20.264 45.1532C19.9955 44.6198 19.7001 44.096 19.3779 43.5817C19.0879 43.1198 18.7764 42.6722 18.4434 42.2341C17.9225 41.5484 17.3693 40.8865 16.7893 40.2436C16.2952 39.696 15.7904 39.1484 15.2211 38.6626C15.1352 38.5912 14.4961 38.0483 14.4746 38.4245C14.4693 38.5245 14.5069 38.6245 14.5337 38.7198C14.5874 38.8817 14.6572 39.0341 14.7271 39.1912C14.9311 39.6341 15.1567 40.0626 15.3715 40.5007C15.3822 40.5198 15.393 40.5388 15.3984 40.5579C15.4359 40.6293 15.4682 40.7007 15.5058 40.7674C15.5756 40.9103 15.6454 41.0484 15.7152 41.1912C15.828 41.4246 15.9461 41.6579 16.0589 41.8912C16.2254 42.2341 16.3919 42.577 16.5584 42.9151C16.7893 43.3912 17.0202 43.8627 17.2512 44.3389C17.5519 44.9627 17.858 45.5817 18.1588 46.2056C18.5454 46.996 18.9267 47.7913 19.3134 48.5818C19.7753 49.5342 20.2371 50.4866 20.699 51.4389C21.0696 52.2056 21.4347 52.9771 21.7892 53.7485C22.0148 54.239 22.2403 54.7342 22.4605 55.2295C22.482 55.2723 22.5572 55.2533 22.5357 55.2104C22.1222 54.2866 21.6979 53.3628 21.2629 52.4437C20.8816 51.6389 20.4949 50.8389 20.1029 50.0389C19.6732 49.158 19.249 48.2722 18.8193 47.3913C18.4756 46.6865 18.1319 45.9818 17.7936 45.277C17.5251 44.7294 17.2619 44.1817 16.9934 43.6341C16.7947 43.2246 16.596 42.8151 16.3919 42.4055C16.2523 42.115 16.1073 41.8246 15.9676 41.5341C15.8763 41.3436 15.7797 41.1531 15.6884 40.9674C15.6347 40.8579 15.581 40.7484 15.5272 40.6388C15.5058 40.5912 15.4789 40.5436 15.4574 40.496C15.2856 40.1579 15.1137 39.8198 14.9526 39.4817C14.8076 39.1817 14.6358 38.8674 14.5659 38.5436C14.5552 38.5007 14.5337 38.4055 14.5874 38.3769C14.6143 38.3626 14.6841 38.3912 14.7163 38.4055C14.915 38.496 15.0815 38.6531 15.2426 38.7864C15.495 39.0055 15.7367 39.2436 15.9676 39.4817C16.5691 40.096 17.133 40.7388 17.6754 41.396C18.1104 41.9246 18.5293 42.4627 18.916 43.0246C19.2275 43.477 19.5175 43.9436 19.786 44.4198C20.1082 44.9913 20.3982 45.577 20.656 46.1722C20.9568 46.8627 21.2146 47.5675 21.4347 48.277C21.6872 49.0961 21.8912 49.9294 22.047 50.7675C22.2242 51.7294 22.3423 52.7009 22.4068 53.6771C22.439 54.1914 22.4605 54.7056 22.4659 55.2247C22.4551 55.2533 22.5357 55.2533 22.5303 55.2104Z" fill="black" stroke="#7E684D" stroke-width="0.35" stroke-linejoin="round"/>
<path d="M22.7296 16.972C22.4503 16.1767 22.2355 15.3719 22.0744 14.5529C21.8274 13.2815 21.7307 11.9814 21.8059 10.691C21.8972 9.12903 22.257 7.57663 22.9176 6.12424C23.5996 4.6147 24.6146 3.22897 25.8284 2.01944C26.2795 1.56705 26.7682 1.12895 27.2999 0.752758C27.4825 0.624185 27.6758 0.500374 27.8799 0.395611C28.0034 0.333706 28.143 0.267039 28.288 0.262277C28.4438 0.262277 28.4545 0.371802 28.4384 0.49085C28.4115 0.700376 28.3095 0.90514 28.2236 1.10038C27.8745 1.86229 27.4502 2.6004 27.0636 3.34802C26.4674 4.49565 25.9035 5.65757 25.3987 6.84329C24.7435 8.37664 24.185 9.93856 23.7392 11.5243C23.3096 13.0529 22.982 14.6005 22.7565 16.1577C22.7189 16.4291 22.6813 16.7053 22.649 16.9815C22.6437 17.0291 22.7242 17.0291 22.7296 16.9815C22.9068 15.5386 23.17 14.1053 23.5191 12.6862C23.938 10.9957 24.4804 9.32427 25.1356 7.69568C25.6511 6.40996 26.2419 5.14328 26.8756 3.90041C27.2999 3.06707 27.7617 2.24801 28.1752 1.40514C28.2934 1.16705 28.4115 0.919426 28.4921 0.667042C28.5297 0.547994 28.578 0.376563 28.4921 0.267039C28.3525 0.0860844 28.0141 0.252753 27.8584 0.324182C27.3804 0.557518 26.9561 0.900378 26.5641 1.23371C25.3343 2.28611 24.2817 3.5385 23.4815 4.88137C22.6222 6.33376 22.0798 7.91949 21.8435 9.54808C21.6448 10.9243 21.6609 12.3195 21.8542 13.6957C21.9885 14.6672 22.2087 15.6243 22.5094 16.5624C22.5577 16.7053 22.6007 16.8482 22.6544 16.991C22.6705 17.0339 22.7457 17.0148 22.7296 16.972Z" fill="black" stroke="#7E684D" stroke-width="0.35" stroke-linejoin="round"/>
<path d="M18.0352 41.7291C17.9708 40.0482 17.7721 38.372 17.4391 36.7196C17.0363 34.7195 16.4241 32.7576 15.64 30.8528C14.9848 29.2623 14.2222 27.7099 13.3844 26.1861C12.8205 25.1575 12.2029 24.148 11.6551 23.1099C11.5262 22.8623 11.3651 22.5908 11.3114 22.3194C11.3007 22.2718 11.2953 22.1956 11.3329 22.167C11.4403 22.0861 11.7088 22.2908 11.7894 22.3432C12.3748 22.748 12.8742 23.267 13.3522 23.7623C13.9 24.329 14.4102 24.9194 14.872 25.5385C15.8924 26.9099 16.698 28.4004 17.3263 29.9481C17.9493 31.4671 18.4058 33.0338 18.7388 34.6243C19.0556 36.1291 19.2704 37.6529 19.394 39.1815C19.5014 40.5005 19.5497 41.8244 19.539 43.1482C19.539 43.4244 19.5336 43.7053 19.5282 43.9815C19.5282 44.0292 19.6088 44.0292 19.6088 43.9815C19.6356 42.7006 19.6195 41.4196 19.5443 40.1386C19.453 38.6386 19.2865 37.1386 19.0234 35.6529C18.7334 34.0386 18.3306 32.4386 17.7721 30.8814C17.2082 29.31 16.4778 27.7814 15.5433 26.3575C14.6894 25.0623 13.6529 23.8575 12.4661 22.7956C12.2405 22.5908 12.0042 22.3861 11.7411 22.2242C11.639 22.1575 11.4296 22.0242 11.3007 22.1099C11.1557 22.2004 11.2685 22.4527 11.3114 22.567C11.4457 22.9051 11.6283 23.2289 11.8055 23.5528C12.0848 24.0575 12.3748 24.5575 12.6648 25.0575C13.4703 26.4766 14.2437 27.9195 14.9204 29.3909C15.7743 31.2528 16.4832 33.1624 16.9934 35.1195C17.466 36.9386 17.7667 38.7958 17.901 40.6577C17.9278 41.0196 17.9493 41.3767 17.96 41.7387C17.96 41.7767 18.0406 41.7767 18.0352 41.7291Z" fill="black" stroke="#7E684D" stroke-width="0.35" stroke-linejoin="round"/>
</svg>
