<svg width="258" height="274" viewBox="0 0 258 274" fill="none" xmlns="http://www.w3.org/2000/svg">
<path d="M115.037 246.886C51.8399 226.592 9.02446 183.934 19.4055 151.607C29.7865 119.279 85.8427 90.6669 113.16 146.303C129.106 178.779 223.989 191.929 213.981 224.776C205.376 253.019 178.234 267.18 115.037 246.886Z" fill="#F5EBDE"/>
<path d="M109.333 62.4594C106.448 63.4969 103.667 64.6972 101.016 66.0806C97.6894 67.8099 94.5965 69.8036 91.8414 72.0415C88.8524 74.4624 86.3053 77.1885 84.1221 80.0977C82.1727 82.7221 80.4053 85.5093 79.2097 88.3981C78.7419 89.517 78.352 90.6563 78.2221 91.8363C78.1441 92.6093 78.1181 93.4638 78.6119 94.1555C79.6256 95.5592 82.1987 94.9693 83.7062 94.5013C86.8251 93.5452 89.6582 91.9583 92.2573 90.3308C95.5062 88.2964 98.5212 85.9975 101.146 83.4748C104.239 80.5046 106.76 77.1682 108.632 73.608C110.191 70.6581 111.283 67.5861 111.985 64.4531C112.115 63.8428 112.244 63.2325 112.348 62.6221C112.374 62.4391 112.011 62.3373 111.985 62.5408C111.491 65.3686 110.685 68.1557 109.541 70.8818C108.034 74.4014 105.903 77.7785 103.226 80.8301C100.782 83.5969 97.8454 86.0992 94.6485 88.3574C91.9454 90.2698 89.0084 92.0397 85.7855 93.4028C84.6419 93.891 83.4203 94.3386 82.1467 94.5624C81.367 94.7048 80.3793 94.8269 79.6256 94.5013C78.8718 94.1758 78.6379 93.4841 78.5859 92.8535C78.482 91.8363 78.7419 90.8191 79.0798 89.8425C79.9895 87.0554 81.5489 84.3903 83.2903 81.8677C85.2657 78.9991 87.5529 76.2527 90.282 73.7911C92.9331 71.3905 95.974 69.234 99.2489 67.3623C101.926 65.8365 104.759 64.5141 107.722 63.3545C108.32 63.1307 108.918 62.907 109.515 62.6832C109.775 62.6425 109.567 62.378 109.333 62.4594Z" fill="black" stroke="#7E684D" stroke-width="2" stroke-linejoin="round"/>
<path d="M114.164 62.6236C114.606 65.2073 115.308 67.7503 116.321 70.2526C117.595 73.4263 119.362 76.4779 121.598 79.3261C124.093 82.4794 127.16 85.3276 130.617 87.8503C133.528 89.9864 136.699 92.0005 140.207 93.5059C141.455 94.0552 142.806 94.5638 144.21 94.8487C145.12 95.0317 146.159 95.1538 147.017 94.8283C147.823 94.5435 148.187 93.8925 148.317 93.2415C148.498 92.2853 148.291 91.2884 148.031 90.3526C147.251 87.5451 145.691 84.8597 144.002 82.3167C142.027 79.3668 139.739 76.5593 136.984 74.0163C134.281 71.514 131.214 69.2761 127.836 67.3434C125.08 65.7566 122.143 64.3732 119.102 63.1729C118.479 62.9288 117.855 62.705 117.231 62.4812C116.997 62.3998 116.815 62.6643 117.023 62.7457C119.856 63.7629 122.585 64.9428 125.184 66.2856C128.459 67.9741 131.5 69.9271 134.229 72.1243C137.192 74.5249 139.739 77.19 141.923 80.0585C143.898 82.6625 145.639 85.4293 146.861 88.2979C147.329 89.3964 147.745 90.5561 147.901 91.7157C148.005 92.4684 148.057 93.3635 147.563 94.0349C147.147 94.6045 146.341 94.7469 145.561 94.7266C144.34 94.6859 143.144 94.3197 142.053 93.9128C138.674 92.6922 135.633 90.8816 132.826 88.9896C129.369 86.65 126.224 84.0256 123.599 81.1164C121.078 78.3089 119.051 75.2573 117.543 72.0429C116.347 69.4796 115.464 66.8145 114.866 64.1291C114.762 63.6001 114.658 63.0915 114.554 62.5626C114.502 62.3591 114.138 62.4405 114.164 62.6236Z" fill="black" stroke="#7E684D" stroke-width="2" stroke-linejoin="round"/>
<path d="M114.346 62.4375C113.618 62.4375 112.917 62.4375 112.189 62.4375C111.929 62.4375 111.929 62.7427 112.189 62.7427C112.917 62.7427 113.618 62.7427 114.346 62.7427C114.606 62.7427 114.606 62.4375 114.346 62.4375Z" fill="black" stroke="#7E684D" stroke-width="2" stroke-linejoin="round"/>
<path d="M104.42 79.5064C104.966 81.6832 106.057 83.7176 107.487 85.63C108.813 87.3592 110.372 89.0071 112.321 90.3295C114.011 91.4891 116.116 92.486 118.429 92.4249C120.743 92.3639 122.666 91.2246 124.017 89.8412C125.473 88.3358 126.461 86.5658 127.162 84.7755C127.24 84.5924 126.85 84.5111 126.798 84.6942C126.201 86.22 125.395 87.7051 124.277 89.0478C123.056 90.4922 121.34 91.8349 119.053 92.0994C116.818 92.3639 114.661 91.4688 112.971 90.3905C111.048 89.1699 109.488 87.6034 108.189 85.9758C106.577 83.9618 105.33 81.785 104.758 79.4454C104.758 79.2419 104.368 79.3233 104.42 79.5064Z" fill="black" stroke="#7E684D" stroke-width="2" stroke-linejoin="round"/>
<path d="M113.023 73.7901C111.412 74.1156 109.878 74.8887 109.099 76.0686C108.657 76.7196 108.293 77.5334 108.449 78.2658C108.579 78.9168 109.281 79.2016 110.06 79.1406C111.36 79.0592 112.581 78.4285 113.569 77.7979C113.465 77.7979 113.387 77.7979 113.283 77.7979C114.219 78.4692 115.363 79.1609 116.662 79.344C117.52 79.4661 118.3 79.222 118.481 78.4896C118.663 77.6555 118.248 76.7196 117.728 76.0076C117.182 75.2549 116.298 74.6852 115.311 74.2987C114.635 74.0342 113.907 73.8715 113.153 73.7901C112.919 73.7698 112.789 74.0546 113.049 74.0749C114.453 74.2377 115.882 74.7056 116.844 75.5397C117.546 76.15 118.014 76.9841 118.118 77.8182C118.17 78.1437 118.17 78.5506 117.91 78.8151C117.702 79.0389 117.338 79.0796 117 79.0592C115.7 78.9982 114.479 78.2455 113.569 77.5741C113.491 77.5131 113.387 77.5131 113.283 77.5741C112.451 78.1234 111.464 78.6117 110.372 78.7947C109.644 78.9168 108.891 78.7947 108.787 78.1234C108.709 77.452 109.047 76.7197 109.437 76.15C109.878 75.499 110.554 74.9904 111.36 74.6242C111.906 74.3801 112.477 74.197 113.101 74.0749C113.387 74.0342 113.283 73.7494 113.023 73.7901Z" fill="black" stroke="#7E684D" stroke-width="2" stroke-linejoin="round"/>
<path d="M118.502 62.4409C115.669 62.4409 112.81 62.4409 109.977 62.4409C109.561 62.4409 109.171 62.4409 108.755 62.4409C108.807 62.4816 108.885 62.5426 108.963 62.6036C108.963 60.9151 108.963 59.2469 108.963 57.5583C108.963 56.4394 108.963 55.3205 108.963 54.2015C108.963 53.5912 108.859 52.8995 109.067 52.3095C109.353 51.4754 110.211 50.8041 111.276 50.6006C111.848 50.4786 112.498 50.5396 113.07 50.5396C113.745 50.5396 114.421 50.5396 115.123 50.5396C116.007 50.5396 116.812 50.743 117.436 51.2313C118.034 51.6992 118.32 52.3095 118.32 52.9605C118.32 53.1843 118.32 53.4081 118.32 53.6116C118.32 54.6288 118.32 55.6256 118.32 56.6428C118.32 58.5959 118.32 60.5285 118.32 62.4816C118.32 62.5223 118.32 62.563 118.32 62.5833C118.32 62.7867 118.71 62.7867 118.71 62.5833C118.71 60.8134 118.71 59.0638 118.71 57.2938C118.71 56.1749 118.71 55.056 118.71 53.9371C118.71 53.2047 118.788 52.4519 118.372 51.7602C117.93 51.0075 117.046 50.4582 116.007 50.2751C115.409 50.1734 114.785 50.2141 114.187 50.2141C113.485 50.2141 112.81 50.2141 112.108 50.2141C111.25 50.2141 110.444 50.4175 109.769 50.8448C108.989 51.3534 108.547 52.1264 108.547 52.8995C108.547 53.0623 108.547 53.225 108.547 53.4081C108.547 54.3846 108.547 55.3815 108.547 56.358C108.547 58.3924 108.547 60.4268 108.547 62.4612C108.547 62.5019 108.547 62.5426 108.547 62.5833C108.547 62.6647 108.625 62.7461 108.755 62.7461C111.588 62.7461 114.447 62.7461 117.28 62.7461C117.696 62.7461 118.086 62.7461 118.502 62.7461C118.736 62.7461 118.736 62.4409 118.502 62.4409Z" fill="black" stroke="#7E684D" stroke-width="2" stroke-linejoin="round"/>
<path d="M182.341 107.685C183.276 113.076 185.694 118.305 189.722 122.76C191.723 124.978 194.115 126.971 196.714 128.762C198.897 130.267 201.288 131.712 203.887 132.749C204.797 133.115 205.759 133.441 206.772 133.604C207.448 133.705 208.202 133.746 208.826 133.461C209.423 133.176 209.683 132.647 209.761 132.118C209.891 131.325 209.709 130.532 209.475 129.758C208.826 127.521 207.552 125.364 206.201 123.33C204.641 120.99 202.796 118.752 200.612 116.738C196.688 113.097 191.749 110.187 186.317 108.072C185.823 107.889 185.33 107.685 184.836 107.522C184.602 107.441 184.42 107.705 184.628 107.787C189.722 109.618 194.453 112.1 198.377 115.253C200.742 117.145 202.77 119.281 204.511 121.56C206.071 123.635 207.474 125.812 208.462 128.09C208.852 128.985 209.19 129.901 209.345 130.857C209.449 131.467 209.501 132.179 209.138 132.749C208.41 133.868 206.253 133.258 205.187 132.891C202.692 132.078 200.431 130.796 198.351 129.474C195.83 127.866 193.491 126.056 191.464 124.082C186.993 119.749 184.186 114.5 182.964 109.028C182.86 108.56 182.783 108.092 182.679 107.624C182.679 107.421 182.315 107.502 182.341 107.685Z" fill="black" stroke="#7E684D" stroke-width="2" stroke-linejoin="round"/>
<path d="M178.492 107.519C173.215 109.431 168.329 112.035 164.3 115.331C161.935 117.284 159.908 119.481 158.167 121.801C156.607 123.916 155.204 126.154 154.268 128.494C153.904 129.369 153.618 130.284 153.54 131.199C153.488 131.81 153.514 132.522 153.956 133.051C154.918 134.17 157.153 133.539 158.4 133.132C161.13 132.217 163.599 130.772 165.834 129.287C168.667 127.415 171.266 125.3 173.423 122.94C177.218 118.81 179.635 113.988 180.727 108.984C180.831 108.557 180.909 108.109 180.987 107.682C181.013 107.499 180.649 107.397 180.623 107.6C179.817 112.218 177.946 116.714 174.853 120.722C172.904 123.225 170.512 125.483 167.783 127.497C165.496 129.206 163.001 130.793 160.272 132.034C159.258 132.502 158.193 132.929 157.049 133.173C156.347 133.336 155.489 133.478 154.814 133.234C154.19 133.01 153.956 132.481 153.904 131.973C153.8 131.179 154.008 130.365 154.268 129.592C154.97 127.375 156.217 125.259 157.569 123.265C159.154 120.946 160.974 118.729 163.183 116.735C167.082 113.195 171.916 110.367 177.27 108.292C177.738 108.109 178.206 107.926 178.7 107.763C178.908 107.702 178.726 107.438 178.492 107.519Z" fill="black" stroke="#7E684D" stroke-width="2" stroke-linejoin="round"/>
<path d="M182.522 107.505C181.95 107.505 181.379 107.505 180.807 107.505C180.547 107.505 180.547 107.81 180.807 107.81C181.379 107.81 181.95 107.81 182.522 107.81C182.782 107.81 182.782 107.505 182.522 107.505Z" fill="black" stroke="#7E684D" stroke-width="2" stroke-linejoin="round"/>
<path d="M170.489 125.447C170.983 126.709 171.659 127.97 172.62 129.069C173.634 130.249 175.038 131.327 176.909 131.551C178.728 131.774 180.47 131.164 181.873 130.31C183.511 129.313 184.862 128.011 185.98 126.627C187.331 124.959 188.371 123.169 188.839 121.216C188.891 121.033 188.501 120.951 188.475 121.134C188.059 122.823 187.227 124.39 186.11 125.875C185.096 127.197 183.901 128.479 182.445 129.516C181.146 130.452 179.508 131.286 177.663 131.286C175.817 131.286 174.31 130.35 173.27 129.252C172.179 128.092 171.425 126.729 170.879 125.366C170.775 125.183 170.411 125.244 170.489 125.447Z" fill="black" stroke="#7E684D" stroke-width="2" stroke-linejoin="round"/>
<path d="M181.769 116.897C183.277 117.202 184.498 117.975 185.018 119.155C185.226 119.664 185.512 120.6 184.498 120.661C183.485 120.722 182.419 120.152 181.691 119.664C181.613 119.603 181.509 119.603 181.405 119.664C180.729 120.152 179.898 120.661 178.962 120.803C178.702 120.844 178.39 120.864 178.13 120.762C177.844 120.62 177.818 120.315 177.818 120.091C177.844 118.809 178.988 117.69 180.444 117.202C180.885 117.06 181.379 116.958 181.847 116.897C182.107 116.877 181.977 116.571 181.743 116.612C180.366 116.755 179.014 117.283 178.234 118.199C177.585 118.931 176.623 121.271 178.702 121.149C179.846 121.088 180.885 120.457 181.691 119.888C181.587 119.888 181.509 119.888 181.405 119.888C182.159 120.355 183.017 120.823 183.978 120.945C184.576 121.027 185.252 120.945 185.486 120.478C185.772 119.928 185.46 119.216 185.174 118.708C184.836 118.097 184.29 117.589 183.589 117.222C183.069 116.958 182.471 116.755 181.873 116.632C181.639 116.551 181.535 116.836 181.769 116.897Z" fill="black" stroke="#7E684D" stroke-width="2" stroke-linejoin="round"/>
<path d="M177.48 107.809C179.768 107.809 182.055 107.809 184.316 107.809C184.654 107.809 184.966 107.809 185.304 107.809C185.408 107.809 185.512 107.748 185.512 107.647C185.512 106.223 185.512 104.798 185.512 103.395C185.512 102.5 185.512 101.604 185.512 100.709C185.512 100.119 185.564 99.509 185.226 98.9394C184.862 98.3494 184.16 97.9018 183.328 97.7594C182.861 97.678 182.341 97.6984 181.873 97.6984C180.677 97.6984 179.352 97.5559 178.338 98.1866C177.688 98.5935 177.298 99.2242 177.298 99.8955C177.298 100.018 177.298 100.16 177.298 100.282C177.298 101.075 177.298 101.849 177.298 102.642C177.298 104.27 177.272 105.917 177.298 107.545C177.298 107.586 177.298 107.606 177.298 107.647C177.298 107.85 177.688 107.85 177.688 107.647C177.688 106.304 177.688 104.961 177.688 103.618C177.688 102.723 177.688 101.828 177.688 100.953C177.688 100.485 177.61 99.9566 177.74 99.4886C177.948 98.7969 178.65 98.2273 179.534 98.0646C179.976 97.9832 180.469 98.0035 180.937 98.0035C182.133 98.0035 183.536 97.8408 184.446 98.5732C185.122 99.1224 185.122 99.7735 185.122 100.465C185.122 101.279 185.122 102.072 185.122 102.886C185.122 103.842 185.122 104.819 185.122 105.775C185.122 106.365 185.07 106.975 185.122 107.545C185.122 107.565 185.122 107.606 185.122 107.626C185.174 107.586 185.252 107.525 185.33 107.464C183.042 107.464 180.755 107.464 178.494 107.464C178.156 107.464 177.844 107.464 177.506 107.464C177.22 107.504 177.22 107.809 177.48 107.809Z" fill="black" stroke="#7E684D" stroke-width="2" stroke-linejoin="round"/>
<path d="M207.083 39.1042C204.769 40.752 202.612 42.522 200.637 44.414C198.168 46.7942 196.01 49.3779 194.243 52.1244C192.346 55.0946 190.942 58.2276 189.954 61.442C189.071 64.3715 188.473 67.3621 188.343 70.373C188.291 71.5733 188.343 72.7736 188.577 73.9536C188.759 74.7674 189.019 75.6422 189.694 76.3135C191.02 77.6359 193.203 76.7407 194.581 75.927C195.802 75.2149 196.894 74.3401 197.882 73.445C199.129 72.3261 200.273 71.1258 201.338 69.9051C203.756 67.118 205.783 64.1274 207.368 61.0147C209.188 57.4342 210.279 53.6502 210.695 49.8255C211.033 46.6518 210.903 43.4578 210.357 40.3045C210.253 39.6941 210.123 39.1042 209.994 38.4938C209.942 38.3107 209.578 38.3921 209.63 38.5752C210.253 41.3827 210.565 44.2512 210.487 47.0994C210.409 50.802 209.682 54.5046 208.278 58.0445C206.979 61.3403 205.081 64.5139 202.82 67.4638C200.923 69.9662 198.739 72.4074 196.088 74.4622C195.179 75.1742 194.165 75.8456 193.021 76.3135C192.32 76.5983 191.436 76.8425 190.682 76.5576C189.902 76.2728 189.512 75.5404 189.253 74.9098C188.863 73.9129 188.759 72.8347 188.707 71.7971C188.603 68.9489 189.097 66.0804 189.798 63.2933C190.604 60.14 191.748 57.0476 193.411 54.1181C195.023 51.2699 197.05 48.5845 199.415 46.0822C201.364 44.0274 203.522 42.1151 205.861 40.3451C206.329 39.979 206.823 39.6331 207.316 39.2873C207.55 39.1855 207.264 38.9617 207.083 39.1042Z" fill="black" stroke="#7E684D" stroke-width="2" stroke-linejoin="round"/>
<path d="M211.734 38.1267C213.034 40.3036 214.567 42.399 216.283 44.3927C218.492 46.9357 221.065 49.2957 223.95 51.3911C227.329 53.8324 231.124 55.8668 235.178 57.535C238.869 59.0405 242.768 60.3222 246.796 61.1359C248.33 61.4411 249.915 61.7056 251.527 61.7666C252.618 61.8073 253.788 61.7869 254.802 61.4207C256.855 60.668 256.049 58.6946 255.269 57.4536C254.568 56.3144 253.658 55.2768 252.696 54.2596C251.527 53.039 250.253 51.8997 248.902 50.8011C245.965 48.4005 242.742 46.183 239.233 44.3114C235.516 42.338 231.488 40.7511 227.251 39.5915C223.82 38.6353 220.259 37.9437 216.673 37.4961C215.945 37.4147 215.243 37.3333 214.515 37.2519C214.255 37.2316 214.281 37.5368 214.515 37.5571C217.816 37.8826 221.065 38.4116 224.236 39.1439C228.265 40.0798 232.163 41.3615 235.828 43.0093C239.597 44.7182 243.054 46.8137 246.225 49.1532C248.954 51.1877 251.579 53.3848 253.632 55.8668C254.386 56.7619 255.087 57.7181 255.477 58.7353C255.711 59.3456 255.867 60.1391 255.347 60.7087C254.802 61.258 253.788 61.4207 252.93 61.4614C251.527 61.5428 250.123 61.4004 248.772 61.197C244.925 60.607 241.208 59.488 237.673 58.186C233.593 56.6806 229.72 54.8292 226.237 52.5711C223.144 50.557 220.363 48.2581 217.972 45.7354C216.049 43.7214 214.359 41.5649 212.904 39.3271C212.618 38.8795 212.332 38.4319 212.072 37.9843C211.968 37.8012 211.63 37.9436 211.734 38.1267Z" fill="black" stroke="#7E684D" stroke-width="2" stroke-linejoin="round"/>
<path d="M211.862 37.9055C211.186 38.0683 210.484 38.2514 209.809 38.4141C209.575 38.4751 209.679 38.76 209.913 38.6989C210.588 38.5362 211.29 38.3531 211.966 38.1903C212.2 38.1496 212.096 37.8445 211.862 37.9055Z" fill="black" stroke="#7E684D" stroke-width="2" stroke-linejoin="round"/>
<path d="M208.955 56.5152C210.307 58.4479 212.1 60.1364 214.205 61.6012C216.155 62.9439 218.312 64.1646 220.703 64.9987C222.782 65.7107 225.251 66.1583 227.461 65.5073C229.618 64.8766 230.944 63.3508 231.697 61.7029C232.503 59.9533 232.737 58.041 232.711 56.1897C232.711 55.9862 232.321 55.9862 232.321 56.1897C232.321 57.7562 232.165 59.3227 231.619 60.8485C231.048 62.476 229.982 64.1646 228.007 64.9987C225.953 65.8531 223.536 65.5683 221.457 64.9377C219.092 64.2256 216.96 63.066 215.037 61.8047C212.724 60.2789 210.748 58.4886 209.293 56.4135C209.163 56.1897 208.825 56.3524 208.955 56.5152Z" fill="black" stroke="#7E684D" stroke-width="2" stroke-linejoin="round"/>
<path d="M214.986 49.0534C213.505 49.7654 212.335 50.9047 212.075 52.2881C211.945 53.0001 211.893 53.8749 212.387 54.5259C212.803 55.0549 213.557 55.0956 214.259 54.8718C215.454 54.4852 216.364 53.6104 217.04 52.7967C216.962 52.817 216.858 52.8374 216.78 52.8577C217.897 53.2849 219.223 53.6511 220.47 53.5494C221.276 53.4884 222.03 53.1629 222.004 52.4508C221.978 51.6167 221.198 50.7623 220.444 50.213C219.613 49.5823 218.547 49.1958 217.403 49.0737C216.624 48.972 215.818 48.9923 215.038 49.0941C214.804 49.1347 214.908 49.4196 215.142 49.3789C216.598 49.1754 218.235 49.3382 219.483 49.9892C220.34 50.4368 221.094 51.1488 221.458 51.9219C221.588 52.2067 221.718 52.5932 221.51 52.8781C221.328 53.1018 220.99 53.1832 220.678 53.2443C219.431 53.4273 218.079 53.0408 216.962 52.6339C216.858 52.5932 216.754 52.6136 216.702 52.695C216.13 53.407 215.402 54.0987 214.441 54.5259C213.869 54.7904 213.115 54.9532 212.699 54.4242C212.283 53.8546 212.335 53.0408 212.439 52.4305C212.595 51.6778 213.011 50.9861 213.635 50.4164C214.077 50.0299 214.596 49.684 215.142 49.4196C215.376 49.2161 215.194 48.9516 214.986 49.0534Z" fill="black" stroke="#7E684D" stroke-width="2" stroke-linejoin="round"/>
<path d="M215.816 36.9264C213.113 37.5978 210.384 38.2691 207.681 38.9405C207.291 39.0422 206.901 39.1236 206.511 39.2253C206.589 39.266 206.667 39.2864 206.745 39.327C206.095 37.7199 205.446 36.1127 204.796 34.5258C204.38 33.4679 203.938 32.41 203.522 31.3522C203.288 30.7825 202.924 30.1315 202.872 29.5212C202.82 28.6464 203.366 27.7919 204.354 27.3444C204.848 27.1002 205.472 26.9985 206.017 26.8561C206.667 26.6934 207.317 26.5306 207.967 26.3679C208.798 26.1644 209.682 26.1644 210.488 26.5103C211.216 26.8154 211.735 27.324 211.969 27.9343C212.047 28.1581 212.151 28.3616 212.229 28.5854C212.619 29.5415 213.009 30.4977 213.373 31.4539C214.127 33.3052 214.88 35.1565 215.608 37.0282C215.634 37.0688 215.634 37.0892 215.66 37.1299C215.738 37.313 216.102 37.2316 216.024 37.0485C215.348 35.3599 214.672 33.6917 213.997 32.0032C213.581 30.9453 213.139 29.8874 212.723 28.8295C212.437 28.1378 212.229 27.4054 211.605 26.8561C210.904 26.2254 209.812 25.8796 208.746 25.961C208.149 26.0017 207.551 26.1848 206.979 26.3272C205.55 26.673 203.886 26.8968 203.002 27.9547C202.457 28.626 202.327 29.4602 202.613 30.2129C202.664 30.3756 202.742 30.5384 202.82 30.7011C203.21 31.637 203.574 32.5931 203.964 33.529C204.744 35.4617 205.524 37.3944 206.303 39.3067C206.329 39.3474 206.329 39.3881 206.355 39.4288C206.381 39.5101 206.485 39.5508 206.589 39.5305C209.292 38.8591 212.021 38.1878 214.724 37.5164C215.114 37.4147 215.504 37.3333 215.894 37.2316C216.154 37.1706 216.05 36.8654 215.816 36.9264Z" fill="black" stroke="#7E684D" stroke-width="2" stroke-linejoin="round"/>
<path d="M221.141 110.27C220.127 110.676 219.114 111.083 218.1 111.511C218.178 111.531 218.282 111.551 218.36 111.572C217.632 110.473 216.904 109.374 216.177 108.276C215.735 107.604 215.293 106.933 214.825 106.262C214.461 105.733 214.123 105.204 214.019 104.594C213.785 103.373 214.383 102.112 215.579 101.298C216.982 100.342 219.062 100.118 220.725 100.769C221.739 101.155 222.441 101.806 222.96 102.579C223.35 103.169 223.74 103.739 224.13 104.329C224.65 105.102 225.144 105.855 225.663 106.628C225.871 106.933 226.079 107.259 226.287 107.564C226.417 107.747 226.521 107.95 226.651 108.113C226.677 108.133 226.677 108.154 226.703 108.194C226.729 108.133 226.755 108.052 226.781 107.991C225.715 108.418 224.65 108.866 223.584 109.293C223.35 109.374 223.558 109.639 223.792 109.558C224.858 109.13 225.923 108.703 226.989 108.256C227.093 108.215 227.093 108.113 227.067 108.052C226.287 106.872 225.508 105.712 224.728 104.533C224.286 103.882 223.844 103.21 223.428 102.559C222.96 101.867 222.441 101.257 221.609 100.81C220.127 99.9958 218.152 99.8737 216.515 100.484C215.059 101.013 214.019 102.091 213.708 103.332C213.474 104.268 213.708 105.184 214.253 105.997C214.617 106.547 214.981 107.076 215.345 107.625C216.229 108.968 217.086 110.31 218.022 111.633C218.048 111.653 218.048 111.694 218.074 111.714C218.126 111.795 218.256 111.816 218.334 111.775C219.348 111.368 220.361 110.941 221.375 110.534C221.583 110.432 221.375 110.188 221.141 110.27Z" fill="black" stroke="#7E684D" stroke-width="2" stroke-linejoin="round"/>
<path d="M77.7006 123.512C77.9085 122.027 78.1164 120.542 78.3244 119.057C78.4543 118.141 78.5843 117.206 78.7142 116.29C78.8182 115.619 78.8702 114.927 79.234 114.296C80.0138 112.954 81.7292 111.998 83.6266 111.937C85.5759 111.875 87.4473 112.689 88.3569 114.052C88.9288 114.907 88.9807 115.802 88.8508 116.738C88.7468 117.551 88.6169 118.365 88.5129 119.179C88.279 120.888 88.0451 122.597 87.8111 124.306C87.8111 124.346 87.8111 124.367 87.7851 124.407C87.8371 124.367 87.9151 124.306 87.9931 124.245C85.7058 124.041 83.4446 123.858 81.1574 123.675C80.6116 123.634 80.0658 123.573 79.52 123.533C79.26 123.512 79.26 123.817 79.52 123.838C81.8072 124.041 84.0944 124.224 86.4076 124.407C86.9274 124.448 87.4732 124.489 87.9931 124.55C88.097 124.55 88.175 124.468 88.201 124.387C88.4089 122.821 88.6169 121.274 88.8508 119.708C88.9807 118.792 89.1107 117.877 89.2406 116.941C89.3446 116.107 89.4226 115.293 89.0587 114.48C88.4349 113.096 86.9014 112.018 85.0561 111.713C83.2107 111.408 81.2354 111.875 79.9358 112.954C79.0261 113.706 78.5843 114.642 78.4543 115.68C78.3503 116.473 78.2464 117.246 78.1424 118.04C77.9085 119.83 77.6486 121.6 77.4147 123.39C77.4147 123.431 77.4147 123.472 77.3887 123.492C77.2847 123.716 77.6746 123.716 77.7006 123.512Z" fill="black" stroke="#7E684D" stroke-width="2" stroke-linejoin="round"/>
<path d="M79.4933 123.554C78.8435 123.493 78.1677 123.432 77.5179 123.392C77.5699 123.432 77.6479 123.493 77.7259 123.554C77.7259 123.412 77.5179 123.371 77.388 123.453C74.1911 125.467 70.9682 127.42 67.5373 129.19C65.614 130.187 63.5867 131.041 61.7153 132.119C59.74 133.279 57.8946 134.601 56.2572 136.046C53.684 138.283 51.5268 140.847 50.1752 143.675C49.4475 145.18 49.0316 146.726 48.7977 148.313C48.5898 149.656 48.4858 151.06 48.8237 152.402C49.1356 153.582 49.9413 154.722 51.5268 155.027C52.9823 155.291 54.5157 154.884 55.8413 154.437C58.6483 153.481 61.1435 152.016 63.4827 150.51C67.3814 147.988 70.6563 144.936 73.3074 141.579C75.6726 138.589 77.5699 135.354 78.8955 131.997C79.4153 130.675 79.8571 129.312 80.169 127.949C80.403 126.931 80.5589 125.894 80.5329 124.856C80.5329 124.49 80.4809 124.124 80.4029 123.778C80.351 123.595 79.9871 123.676 80.0391 123.86C80.247 124.673 80.195 125.507 80.0911 126.321C79.9351 127.542 79.6492 128.742 79.2593 129.922C78.2457 133.096 76.6862 136.147 74.7369 139.016C72.3977 142.474 69.4347 145.689 65.8739 148.435C63.5347 150.225 60.9356 151.853 58.1285 153.175C56.699 153.847 55.1655 154.477 53.5281 154.722C52.1246 154.945 50.6691 154.742 49.8633 153.725C48.9536 152.565 48.9536 151.019 49.0576 149.697C49.1616 148.252 49.4215 146.808 49.8893 145.424C50.929 142.434 52.9303 139.708 55.3995 137.327C57.1409 135.659 59.1162 134.133 61.2994 132.791C62.8069 131.855 64.4444 131.102 66.0818 130.309C69.6426 128.6 73.0474 126.626 76.2963 124.572C76.7642 124.287 77.206 123.982 77.6739 123.697C77.5699 123.656 77.44 123.615 77.336 123.595C77.336 123.676 77.414 123.737 77.5439 123.758C78.1937 123.819 78.8695 123.88 79.5193 123.921C79.7272 123.88 79.7272 123.575 79.4933 123.554Z" fill="black" stroke="#7E684D" stroke-width="2" stroke-linejoin="round"/>
<path d="M68.5786 146.134C68.6046 147.05 68.7865 147.965 69.2284 148.82C69.6443 149.613 70.242 150.325 70.9698 150.956C72.3733 152.136 74.1927 152.99 76.142 153.458C78.0394 153.926 80.1187 154.048 82.042 153.601C83.8874 153.173 85.3949 152.177 86.4605 150.936C87.1103 150.183 87.6041 149.349 88.02 148.494C88.2279 148.026 88.4359 147.558 88.5918 147.091C88.6698 146.846 88.7478 146.602 88.8257 146.358C88.8777 146.155 89.0077 145.911 89.0077 145.687C89.0077 145.483 88.6178 145.483 88.6178 145.687C88.6178 145.87 88.5138 146.094 88.4619 146.277C88.4099 146.48 88.3319 146.684 88.2539 146.887C88.124 147.294 87.968 147.68 87.7861 148.087C87.4742 148.82 87.0583 149.532 86.5645 150.203C85.6288 151.464 84.2773 152.583 82.5099 153.133C78.9231 154.252 74.5046 153.133 71.7495 151.159C70.9178 150.549 70.1901 149.857 69.6962 149.044C69.1244 148.128 68.9165 147.131 68.8645 146.114C68.9685 145.931 68.5786 145.931 68.5786 146.134Z" fill="black" stroke="#7E684D" stroke-width="2" stroke-linejoin="round"/>
<path d="M87.5489 124.469C89.0824 127.093 90.9018 129.595 93.0071 131.935C94.0987 133.156 95.2943 134.336 96.5419 135.475C97.5295 136.37 98.5692 137.224 99.5828 138.12C100.544 138.954 101.48 139.828 102.312 140.764C103.222 141.802 104.027 142.9 104.729 144.019C106.107 146.237 107.25 148.597 107.796 151.018C108.108 152.36 108.524 154.944 106.159 155.331C105.041 155.514 103.793 155.209 102.754 154.903C101.298 154.476 99.9207 153.866 98.6211 153.215C95.7101 151.75 93.0331 149.96 90.9018 147.803C88.6405 145.545 87.0031 142.941 85.8595 140.215C84.7679 137.631 84.1441 134.946 83.8322 132.24C83.5723 129.982 83.5463 127.703 83.7022 125.425C83.7282 124.977 83.7802 124.509 83.8062 124.062C83.8322 123.858 83.4423 123.858 83.4163 124.062C83.2084 126.239 83.1564 128.436 83.3124 130.633C83.4943 133.318 83.9621 136.004 84.8458 138.608C85.7815 141.375 87.211 144.08 89.1864 146.44C91.1877 148.841 93.7608 150.855 96.7238 152.543C98.0493 153.317 99.4529 154.008 100.934 154.598C102.13 155.066 103.43 155.514 104.781 155.656C105.717 155.758 106.782 155.717 107.484 155.168C108.212 154.619 108.394 153.784 108.42 153.032C108.472 151.933 108.186 150.814 107.848 149.756C107.458 148.515 106.912 147.295 106.315 146.094C105.119 143.775 103.637 141.537 101.636 139.564C99.6868 137.631 97.4256 135.922 95.4502 134.01C92.9031 131.528 90.7198 128.843 88.9005 126.015C88.5366 125.465 88.1987 124.916 87.8868 124.347C87.7828 124.143 87.4449 124.286 87.5489 124.469Z" fill="black" stroke="#7E684D" stroke-width="2" stroke-linejoin="round"/>
<path d="M218.105 111.571C216.234 115.579 214.805 119.709 213.817 123.9C213.037 127.256 212.517 130.674 212.205 134.092C211.92 137.388 211.764 140.765 212.335 144.04C212.543 145.22 212.855 146.441 213.505 147.519C213.973 148.272 214.701 149.045 215.818 149.228C217.664 149.553 219.509 148.414 220.783 147.519C222.498 146.319 223.979 144.874 225.253 143.369C225.617 142.921 225.981 142.474 226.293 142.006C226.423 141.843 226.085 141.68 225.955 141.843C224.811 143.471 223.382 144.996 221.744 146.339C220.964 146.99 220.133 147.6 219.197 148.089C218.443 148.496 217.586 148.882 216.65 148.943C215.454 149.024 214.571 148.434 213.999 147.661C213.297 146.685 212.985 145.546 212.751 144.467C212.102 141.314 212.205 138.059 212.465 134.885C212.699 131.691 213.167 128.477 213.817 125.324C214.701 121.072 216.078 116.86 217.872 112.792C218.053 112.405 218.209 112.019 218.391 111.652C218.573 111.469 218.183 111.388 218.105 111.571Z" fill="black" stroke="#7E684D" stroke-width="2" stroke-linejoin="round"/>
<path d="M242.923 139.421C242.793 141.252 242.482 143.205 241.39 144.853C240.922 145.565 240.272 146.195 239.363 146.602C238.479 147.009 237.413 147.131 236.4 147.07C234.034 146.928 231.773 145.951 229.928 144.853C228.186 143.815 226.679 142.513 225.691 140.987C224.444 139.055 224.054 136.878 223.82 134.742C223.456 131.568 223.326 128.394 223.014 125.221C222.572 120.786 221.897 116.371 220.935 111.997C220.831 111.549 220.727 111.122 220.649 110.674C220.597 110.491 220.233 110.573 220.285 110.756C221.325 115.211 222.078 119.728 222.546 124.244C222.91 127.621 223.04 130.998 223.404 134.355C223.638 136.552 224.002 138.831 225.223 140.845C226.107 142.33 227.485 143.612 229.096 144.669C230.941 145.89 233.177 146.928 235.568 147.253C236.582 147.396 237.647 147.416 238.635 147.172C239.597 146.928 240.428 146.46 241.052 145.849C242.482 144.446 242.949 142.574 243.209 140.845C243.287 140.357 243.339 139.889 243.365 139.4C243.339 139.217 242.949 139.217 242.923 139.421Z" fill="black" stroke="#7E684D" stroke-width="2" stroke-linejoin="round"/>
<path d="M223.585 109.272C222.883 109.557 222.182 109.842 221.454 110.127C221.35 110.167 221.246 110.208 221.142 110.249C220.908 110.33 221.116 110.595 221.35 110.513C222.052 110.228 222.753 109.944 223.481 109.659C223.585 109.618 223.689 109.577 223.793 109.537C224.001 109.455 223.793 109.191 223.585 109.272Z" fill="black" stroke="#7E684D" stroke-width="2" stroke-linejoin="round"/>
<path d="M226.63 108.296C230.165 110.209 233.544 112.284 236.715 114.562C239.236 116.373 241.627 118.285 243.836 120.299C246.15 122.395 248.385 124.572 250.438 126.83C251.556 128.03 252.595 129.271 253.505 130.573C254.311 131.733 254.987 132.933 255.35 134.215C255.662 135.293 255.688 136.452 255.195 137.51C254.597 138.751 253.297 139.769 251.842 140.42C250.282 141.132 248.359 141.498 246.565 141.111C245.006 140.786 243.81 139.87 242.875 138.873C241.575 137.51 240.613 135.985 239.678 134.459C238.3 132.221 237.027 129.963 235.701 127.704C233.908 124.673 232.062 121.642 230.087 118.672C228.372 116.047 226.552 113.443 224.681 110.88C224.343 110.432 224.005 109.964 223.667 109.517C223.667 109.578 223.667 109.619 223.667 109.68C223.745 109.619 223.797 109.537 223.875 109.456C224.031 109.293 223.693 109.151 223.537 109.293C223.459 109.354 223.407 109.436 223.329 109.517C223.277 109.558 223.303 109.619 223.329 109.68C225.097 112.04 226.786 114.42 228.424 116.841C230.529 119.953 232.53 123.107 234.428 126.301C235.883 128.742 237.287 131.204 238.742 133.645C239.756 135.313 240.769 137.022 242.095 138.548C242.823 139.402 243.68 140.216 244.798 140.806C246.28 141.579 248.099 141.742 249.814 141.396C252.959 140.786 255.766 138.69 255.948 136.066C256.026 134.886 255.662 133.686 255.143 132.587C254.519 131.265 253.635 130.024 252.699 128.844C250.62 126.26 248.151 123.88 245.682 121.52C243.628 119.547 241.419 117.655 239.08 115.864C236.117 113.606 232.972 111.511 229.645 109.578C228.736 109.049 227.8 108.52 226.838 108.011C226.604 107.93 226.422 108.195 226.63 108.296Z" fill="black" stroke="#7E684D" stroke-width="2" stroke-linejoin="round"/>
<path d="M113.516 50.4181C114.01 48.1802 114.582 45.9017 115.57 43.7655C115.934 42.9721 116.375 42.1584 117.025 41.4667C117.441 40.9987 118.039 40.5308 118.793 40.4495C119.702 40.3274 120.534 40.8156 121.158 41.2836C122.145 42.0363 122.899 42.9721 123.575 43.8876C125.472 46.4917 126.876 49.3398 128.149 52.1677C129.449 55.0158 130.619 57.925 131.71 60.8139C133.036 64.3538 134.257 67.914 135.245 71.5352C135.323 71.8201 135.401 72.1049 135.479 72.3897C135.531 72.5524 135.557 72.7152 135.609 72.8779C135.635 73.0204 135.739 73.1831 135.739 73.3255C135.739 73.529 136.129 73.529 136.129 73.3255C136.129 73.061 135.999 72.7559 135.921 72.5117C135.843 72.1862 135.739 71.8607 135.661 71.5556C135.479 70.9249 135.323 70.2942 135.141 69.6839C134.803 68.4836 134.413 67.2833 134.023 66.1034C133.504 64.5572 132.958 63.0314 132.386 61.5056C131.294 58.5964 130.151 55.6872 128.877 52.8187C127.578 49.8891 126.148 46.9392 124.251 44.1928C123.549 43.1959 122.769 42.1787 121.782 41.3446C121.132 40.7953 120.274 40.2257 119.26 40.1646C117.623 40.0629 116.557 41.4056 115.934 42.3821C114.738 44.2945 114.114 46.4306 113.594 48.5057C113.438 49.116 113.282 49.7467 113.152 50.357C113.1 50.5198 113.49 50.6012 113.516 50.4181Z" fill="black" stroke="#7E684D" stroke-width="2" stroke-linejoin="round"/>
<path d="M144.885 164.244C144.807 159.199 144.677 154.174 144.521 149.128C144.365 144.246 144.157 139.384 143.897 134.501C143.663 129.822 143.351 125.143 142.987 120.464C142.65 116.008 142.26 111.553 141.766 107.098C141.324 102.947 140.83 98.8175 140.232 94.6673C140.154 94.179 140.076 93.6704 140.024 93.1822C139.998 92.9991 139.609 92.9787 139.635 93.1822C140.258 97.2917 140.778 101.422 141.22 105.551C141.714 109.946 142.104 114.36 142.468 118.755C142.831 123.413 143.143 128.052 143.403 132.711C143.663 137.593 143.897 142.456 144.053 147.338C144.235 152.343 144.365 157.347 144.443 162.332C144.443 162.962 144.469 163.613 144.469 164.244C144.495 164.448 144.885 164.448 144.885 164.244Z" fill="black" stroke="#7E684D" stroke-width="2" stroke-linejoin="round"/>
<path d="M140.153 233.959C139.399 229.219 138.62 224.499 137.814 219.759C137.06 215.344 136.28 210.929 135.449 206.515C135.007 204.134 134.565 201.754 134.097 199.374C134.071 199.17 133.681 199.272 133.733 199.455C134.565 203.707 135.345 207.979 136.124 212.231C136.93 216.788 137.71 221.345 138.464 225.902C138.906 228.588 139.347 231.253 139.763 233.938C139.789 234.142 140.179 234.142 140.153 233.959Z" fill="black" stroke="#7E684D" stroke-width="2" stroke-linejoin="round"/>
<path d="M85.6556 112.119C88.2807 110.024 91.8415 108.091 95.7922 108.64C97.1697 108.823 98.4433 109.291 99.6129 109.881C101.042 110.634 102.264 111.57 103.382 112.587C104.785 113.869 105.981 115.293 107.072 116.737C108.424 118.548 109.619 120.419 110.685 122.332C112.011 124.651 113.18 127.011 114.246 129.391C115.519 132.178 116.663 135.006 117.729 137.854C118.976 141.15 120.094 144.466 121.16 147.803C122.355 151.566 123.473 155.35 124.512 159.134C125.682 163.386 126.774 167.638 127.787 171.89C128.047 173.009 128.333 174.128 128.593 175.247C128.645 175.43 129.009 175.348 128.957 175.165C127.917 170.73 126.826 166.295 125.63 161.881C124.564 157.914 123.447 153.946 122.225 150.02C121.16 146.562 120.016 143.103 118.768 139.685C117.677 136.715 116.533 133.745 115.234 130.815C114.142 128.313 112.972 125.851 111.647 123.41C110.555 121.396 109.36 119.402 107.982 117.49C106.89 115.944 105.669 114.438 104.265 113.034C103.148 111.916 101.9 110.878 100.445 110.024C99.275 109.332 97.9755 108.783 96.5719 108.477C93.7129 107.887 90.7759 108.579 88.3847 109.881C87.2931 110.471 86.2794 111.163 85.3437 111.916C85.1878 112.038 85.4737 112.261 85.6556 112.119Z" fill="black" stroke="#7E684D" stroke-width="2" stroke-linejoin="round"/>
<path d="M211.007 165.644C209.24 165.786 207.473 165.929 205.705 166.091C205.757 166.132 205.835 166.193 205.913 166.254C205.783 165.339 205.653 164.423 205.523 163.508C205.445 162.938 205.367 162.348 205.289 161.778C205.237 161.372 205.133 160.944 205.237 160.537C205.445 159.602 206.355 158.829 207.551 158.605C208.746 158.361 210.046 158.727 210.774 159.5C211.189 159.927 211.345 160.415 211.397 160.944C211.475 161.453 211.527 161.982 211.605 162.49C211.761 163.569 211.891 164.627 212.047 165.705C212.073 165.888 212.463 165.908 212.437 165.705C212.307 164.708 212.177 163.731 212.021 162.735C211.943 162.165 211.865 161.595 211.787 161.005C211.709 160.497 211.605 160.008 211.267 159.541C210.67 158.767 209.604 158.239 208.434 158.198C207.239 158.157 206.069 158.605 205.393 159.378C204.874 159.947 204.718 160.639 204.796 161.331C204.874 161.819 204.925 162.307 205.003 162.796C205.159 163.955 205.315 165.095 205.471 166.254C205.471 166.336 205.549 166.417 205.679 166.417C207.447 166.254 209.214 166.112 210.981 165.969C211.267 165.929 211.267 165.623 211.007 165.644Z" fill="black" stroke="#7E684D" stroke-width="2" stroke-linejoin="round"/>
<path d="M210.41 165.787C210.28 166.316 210.306 166.865 210.358 167.394C210.462 168.167 210.644 168.961 210.878 169.713C211.528 171.748 212.541 173.721 213.789 175.572C216.258 179.194 219.871 182.449 224.445 184.544C225.849 185.195 228.396 186.192 229.721 184.91C230.397 184.239 230.475 183.283 230.475 182.469C230.449 181.594 230.319 180.699 230.085 179.845C229.15 176.468 226.265 173.538 222.886 171.402C221.924 170.812 220.91 170.303 219.871 169.815C217.584 168.737 215.426 167.496 213.347 166.173C213.035 165.97 212.723 165.787 212.437 165.583C212.307 165.502 212.099 165.543 212.099 165.685C212.151 165.645 212.229 165.583 212.307 165.522C211.891 165.563 211.476 165.583 211.06 165.624C210.826 165.645 210.8 165.95 211.06 165.929C211.476 165.889 211.891 165.868 212.307 165.828C212.411 165.828 212.515 165.767 212.515 165.665C212.411 165.706 212.281 165.746 212.177 165.767C214.075 166.967 216.024 168.147 218.051 169.225C219.325 169.896 220.677 170.466 221.924 171.158C224.887 172.846 227.46 175.166 228.89 177.81C229.436 178.787 229.799 179.824 229.955 180.882C230.085 181.676 230.189 182.469 230.085 183.263C229.981 184.015 229.643 184.931 228.578 185.134C227.694 185.317 226.706 185.032 225.901 184.748C224.237 184.158 222.73 183.263 221.3 182.347C218.883 180.781 216.856 178.889 215.218 176.793C213.763 174.962 212.619 172.989 211.788 170.914C211.216 169.51 210.722 167.984 210.748 166.499C210.748 166.275 210.774 166.051 210.826 165.848C210.826 165.685 210.436 165.604 210.41 165.787Z" fill="black" stroke="#7E684D" stroke-width="2" stroke-linejoin="round"/>
<path d="M204.952 179.579C204.952 179.803 205.082 180.088 205.16 180.311C205.264 180.596 205.342 180.861 205.472 181.125C205.68 181.634 205.966 182.122 206.304 182.57C206.927 183.383 207.785 184.075 208.929 184.441C211.32 185.194 214.257 184.462 216.05 183.139C217.246 182.264 217.844 181.105 217.896 179.823C217.896 179.62 217.506 179.62 217.506 179.823C217.454 180.922 217.012 181.919 216.024 182.712C215.167 183.404 214.075 183.912 212.905 184.177C211.788 184.441 210.566 184.523 209.449 184.258C208.331 183.994 207.447 183.404 206.798 182.651C206.408 182.203 206.122 181.695 205.888 181.186C205.758 180.922 205.654 180.657 205.55 180.372C205.472 180.128 205.29 179.823 205.29 179.559C205.342 179.376 204.952 179.376 204.952 179.579Z" fill="black" stroke="#7E684D" stroke-width="2" stroke-linejoin="round"/>
<path d="M208.229 166.008C208.515 168.958 208.359 171.969 207.423 174.837C206.877 176.485 206.071 178.194 204.902 179.598C203.654 181.103 202.147 182.405 200.301 183.483C199.496 183.951 198.638 184.399 197.754 184.765C197 185.091 196.195 185.375 195.337 185.497C194.765 185.579 194.063 185.599 193.648 185.233C193.232 184.846 193.206 184.277 193.232 183.809C193.31 182.324 194.011 180.818 194.739 179.476C195.493 178.072 196.455 176.729 197.728 175.549C198.976 174.369 200.379 173.291 201.575 172.07C203.056 170.585 204.33 168.998 205.422 167.31C205.63 166.964 205.863 166.618 206.045 166.272C206.149 166.089 205.811 165.947 205.707 166.11C204.72 167.798 203.524 169.426 202.147 170.931C200.847 172.355 199.34 173.596 197.884 174.898C196.559 176.078 195.519 177.36 194.687 178.784C193.856 180.188 193.154 181.713 192.894 183.26C192.738 184.175 192.764 185.559 194.245 185.803C194.947 185.904 195.701 185.762 196.377 185.579C197.286 185.314 198.144 184.948 198.976 184.562C200.847 183.646 202.563 182.527 203.94 181.164C205.396 179.74 206.461 178.153 207.215 176.424C208.567 173.372 208.904 170.077 208.696 166.883C208.67 166.577 208.644 166.293 208.618 165.987C208.593 165.825 208.203 165.804 208.229 166.008Z" fill="black" stroke="#7E684D" stroke-width="2" stroke-linejoin="round"/>
<path d="M173.321 234.876C174.126 229.851 174.958 224.826 175.868 219.801C176.673 215.325 177.531 210.869 178.467 206.414C179.299 202.467 180.182 198.541 181.144 194.615C181.976 191.197 182.885 187.779 183.899 184.402C184.757 181.513 185.692 178.624 186.732 175.756C187.59 173.375 188.551 171.015 189.643 168.696C190.527 166.825 191.488 164.973 192.632 163.203C193.516 161.84 194.477 160.518 195.673 159.318C196.557 158.443 197.57 157.609 198.792 157.039C200.247 156.368 201.859 156.164 203.496 156.612C204.9 156.998 206.095 157.771 207.135 158.585C207.317 158.728 207.577 158.504 207.421 158.361C205.81 157.1 203.73 155.92 201.313 156.062C200.741 156.103 200.195 156.205 199.65 156.368C198.402 156.754 197.336 157.426 196.427 158.178C195.179 159.195 194.191 160.375 193.308 161.596C192.138 163.203 191.15 164.892 190.267 166.601C189.149 168.778 188.162 171.015 187.278 173.274C186.212 176 185.25 178.766 184.393 181.554C183.353 184.849 182.417 188.165 181.56 191.502C180.572 195.327 179.662 199.192 178.831 203.037C177.869 207.431 176.985 211.846 176.154 216.261C175.244 221.143 174.386 226.046 173.58 230.949C173.373 232.251 173.165 233.553 172.957 234.855C172.905 235.059 173.295 235.059 173.321 234.876Z" fill="black" stroke="#7E684D" stroke-width="2" stroke-linejoin="round"/>
<path d="M155.631 133.496C155.345 136.832 155.085 140.148 154.851 143.485C154.617 147.147 154.383 150.788 154.201 154.45C154.097 156.668 153.993 158.865 153.889 161.082C153.889 161.286 154.279 161.286 154.279 161.082C154.435 157.237 154.617 153.392 154.851 149.568C155.059 146.048 155.293 142.529 155.553 139.029C155.683 137.178 155.839 135.347 155.995 133.496C156.047 133.313 155.657 133.313 155.631 133.496Z" fill="black" stroke="#7E684D" stroke-width="2" stroke-linejoin="round"/>
<path d="M156.997 124.101C157.62 118.669 158.348 113.237 159.414 107.846C160.168 104.001 161.077 100.135 162.429 96.3715C163.287 94.032 164.274 91.5703 166.042 89.5359C167.081 88.356 168.667 87.176 170.642 87.5015C172.383 87.7863 173.787 88.9256 174.879 89.9631C176.776 91.7534 178.205 93.8285 179.531 95.9036C179.947 96.575 180.363 97.2463 180.753 97.9177C180.857 98.1008 181.194 97.938 181.09 97.7549C179.687 95.3543 178.153 92.9537 176.204 90.7972C175.035 89.5156 173.657 88.1525 171.812 87.4608C170.772 87.0743 169.628 86.9725 168.563 87.3184C167.705 87.6032 166.977 88.0915 166.379 88.6408C165.574 89.3935 164.924 90.2683 164.378 91.1634C163.65 92.3434 163.079 93.5844 162.559 94.8457C161.103 98.4466 160.168 102.19 159.388 105.913C158.27 111.182 157.491 116.472 156.841 121.781C156.737 122.534 156.659 123.287 156.581 124.04C156.607 124.304 156.997 124.304 156.997 124.101Z" fill="black" stroke="#7E684D" stroke-width="2" stroke-linejoin="round"/>
<path d="M147.904 155.558C148.164 146.627 148.501 137.696 149.021 128.785C149.463 120.79 150.061 112.795 150.789 104.799C151.438 97.801 152.218 90.823 153.206 83.845C154.064 77.7824 155.051 71.7199 156.299 65.6777C157.338 60.612 158.534 55.5667 160.016 50.562C161.237 46.4322 162.641 42.3227 164.408 38.3149C165.812 35.1209 167.423 31.9675 169.45 28.9973C171.01 26.7188 172.829 24.5013 175.142 22.6296C176.936 21.1648 179.041 19.9238 181.484 19.2118C187.748 17.4215 194.168 19.9238 199.054 22.9348C201.16 24.2368 203.135 25.7016 204.98 27.2274C205.162 27.3698 205.422 27.146 205.266 27.0036C199.834 22.5482 191.985 17.1977 183.434 18.4591C180.99 18.8253 178.755 19.7611 176.832 20.9614C174.441 22.4668 172.543 24.3995 170.906 26.4136C168.749 29.0583 167.085 31.9269 165.604 34.8361C163.732 38.5794 162.251 42.4244 160.951 46.3101C159.366 51.091 158.066 55.9329 156.975 60.8155C155.675 66.5525 154.609 72.3302 153.7 78.1079C152.634 84.9232 151.776 91.7588 151.049 98.5945C150.217 106.427 149.593 114.259 149.073 122.112C148.501 130.942 148.086 139.791 147.774 148.641C147.696 150.94 147.618 153.239 147.566 155.538C147.514 155.741 147.904 155.741 147.904 155.558Z" fill="black" stroke="#7E684D" stroke-width="2" stroke-linejoin="round"/>
<path d="M181.354 130.245C179.769 134.415 178.183 138.586 176.572 142.756C174.986 146.907 173.401 151.057 171.816 155.207C170.23 159.378 168.645 163.548 167.033 167.719C165.448 171.889 163.862 176.06 162.251 180.23C160.665 184.401 159.08 188.571 157.468 192.742C157.26 193.25 157.079 193.759 156.871 194.268C156.793 194.451 157.183 194.532 157.234 194.349C158.82 190.179 160.405 186.008 162.017 181.837C163.602 177.687 165.188 173.537 166.773 169.387C168.359 165.216 169.944 161.046 171.556 156.875C173.141 152.705 174.727 148.534 176.338 144.364C177.923 140.193 179.509 136.023 181.12 131.852C181.328 131.343 181.51 130.835 181.718 130.326C181.796 130.143 181.432 130.062 181.354 130.245Z" fill="black" stroke="#7E684D" stroke-width="2" stroke-linejoin="round"/>
<path d="M190.16 109.922C192.136 106.626 194.527 103.269 198.01 100.787C199.257 99.8921 200.687 99.119 202.272 98.6511C203.962 98.1425 205.807 98.0001 207.601 98.2239C210.486 98.6104 213.085 99.8311 215.346 101.235C215.528 101.357 215.814 101.133 215.632 101.011C213.553 99.709 211.239 98.5697 208.64 98.0611C206.743 97.6949 204.768 97.6949 202.896 98.1425C199.257 98.997 196.45 101.275 194.293 103.635C192.526 105.548 191.096 107.623 189.823 109.759C189.719 109.942 190.057 110.105 190.16 109.922Z" fill="black" stroke="#7E684D" stroke-width="2" stroke-linejoin="round"/>
<path d="M139.918 233.794C139.996 233.773 140.1 233.834 140.1 233.834C140.1 233.834 140.1 233.834 140.074 233.814C140.048 233.753 140.022 233.672 139.996 233.611C139.918 233.367 139.84 233.122 139.763 232.899C139.503 232.024 139.217 231.169 138.931 230.295C137.865 227.223 136.514 224.212 134.928 221.262C132.537 216.827 129.6 212.575 126.247 208.547C122.66 204.254 118.58 200.226 114.083 196.483C110.185 193.207 105.974 190.176 101.582 187.308C97.8388 184.887 93.9401 182.608 89.9635 180.411C86.8445 178.682 83.6736 177.034 80.5806 175.325C78.6313 174.247 76.526 173.148 74.9925 171.724C74.6027 171.358 74.1868 170.89 74.1088 170.402C73.9789 169.486 75.2784 168.978 76.2401 168.754C78.7353 168.164 81.5683 168.286 84.1154 168.53C86.7406 168.774 89.3397 169.222 91.8348 169.913C95.2657 170.849 98.5145 172.192 101.478 173.819C104.544 175.508 107.352 177.481 109.899 179.638C112.576 181.896 114.993 184.337 117.202 186.88C119.437 189.464 121.491 192.17 123.336 194.937C125.181 197.703 126.897 200.531 128.43 203.4C129.912 206.146 131.263 208.913 132.511 211.72C133.629 214.263 134.668 216.806 135.63 219.39C136.436 221.547 137.163 223.723 137.839 225.921C138.333 227.548 138.801 229.176 139.191 230.824C139.399 231.739 139.633 232.634 139.737 233.55C139.737 233.651 139.763 233.733 139.763 233.834C139.763 233.957 139.737 233.855 139.815 233.834C139.581 233.916 139.789 234.18 140.022 234.099C140.204 234.038 140.152 233.733 140.152 233.611C140.126 233.244 140.048 232.899 139.996 232.553C139.737 231.251 139.399 229.949 139.061 228.667C138.515 226.714 137.917 224.761 137.267 222.808C136.436 220.367 135.526 217.925 134.564 215.504C133.447 212.758 132.225 210.032 130.9 207.326C129.47 204.417 127.911 201.548 126.221 198.721C124.48 195.852 122.582 193.024 120.503 190.298C118.424 187.592 116.163 184.988 113.667 182.527C111.25 180.146 108.573 177.909 105.636 175.935C102.829 174.043 99.7361 172.355 96.4093 171.053C92.2767 169.445 87.7802 168.449 83.1798 168.123C81.7502 168.021 80.2688 167.981 78.8392 168.082C77.7476 168.143 76.63 168.265 75.6163 168.591C74.6807 168.876 73.641 169.445 73.719 170.341C73.745 170.87 74.1348 171.358 74.5507 171.765C75.1745 172.375 75.9282 172.904 76.682 173.392C79.0732 174.959 81.6983 176.301 84.2714 177.685C87.9102 179.638 91.5489 181.611 95.0577 183.686C99.3983 186.25 103.609 188.955 107.585 191.844C112.108 195.14 116.319 198.68 120.165 202.464C124.454 206.716 128.248 211.273 131.393 216.074C133.733 219.634 135.734 223.317 137.319 227.121C138.177 229.155 138.853 231.21 139.503 233.306C139.555 233.468 139.659 234.16 140.022 234.079C140.256 234.038 140.152 233.753 139.918 233.794Z" fill="black" stroke="#7E684D" stroke-width="2" stroke-linejoin="round"/>
<path d="M125.471 211.092C122.716 208.793 119.649 206.739 116.4 204.867C113.567 203.26 110.578 201.795 107.433 200.534C105.172 199.618 102.807 198.784 100.364 198.235C99.6099 198.072 98.8562 197.93 98.0765 197.889C97.6866 197.869 97.1408 197.869 96.8289 198.113C96.543 198.337 96.6469 198.662 96.8029 198.906C97.0628 199.354 97.5046 199.72 97.8945 200.086C99.5839 201.612 101.507 202.995 103.353 204.399C106.55 206.8 109.72 209.221 112.865 211.662C116.166 214.225 119.415 216.809 122.612 219.413C125.497 221.773 128.382 224.153 131.215 226.554C133.71 228.67 136.154 230.785 138.597 232.922C139.142 233.389 139.662 233.857 140.208 234.346C140.338 234.468 140.572 234.346 140.546 234.203C139.818 231.518 138.831 228.893 137.583 226.33C135.92 222.933 133.788 219.677 131.189 216.667C129.474 214.714 127.55 212.842 125.471 211.092C125.289 210.95 125.029 211.174 125.185 211.316C128.746 214.286 131.761 217.623 134.178 221.203C136.128 224.092 137.687 227.123 138.857 230.256C139.35 231.579 139.792 232.942 140.156 234.285C140.26 234.244 140.364 234.183 140.494 234.142C138.207 232.128 135.894 230.114 133.58 228.12C130.903 225.842 128.226 223.563 125.497 221.325C122.456 218.823 119.363 216.341 116.244 213.879C112.969 211.296 109.643 208.732 106.29 206.21C104.028 204.501 101.741 202.812 99.532 201.042C98.9082 200.534 98.2844 200.045 97.7386 199.496C97.4527 199.211 97.1148 198.886 97.0368 198.54C97.0108 198.479 97.0368 198.377 97.0628 198.357C97.1668 198.276 97.2447 198.255 97.4267 198.214C97.9725 198.133 98.5963 198.235 99.1421 198.316C101.325 198.682 103.431 199.374 105.458 200.127C108.421 201.225 111.28 202.507 113.983 203.931C117.206 205.62 120.273 207.532 123.08 209.648C123.782 210.177 124.483 210.726 125.159 211.296C125.367 211.458 125.653 211.235 125.471 211.092Z" fill="black"/>
<path d="M125.471 211.092C122.716 208.793 119.649 206.739 116.4 204.867C113.567 203.26 110.578 201.795 107.433 200.534C105.172 199.618 102.807 198.784 100.364 198.235C99.6099 198.072 98.8562 197.93 98.0765 197.889C97.6866 197.869 97.1408 197.869 96.8289 198.113C96.543 198.337 96.6469 198.662 96.8029 198.906C97.0628 199.354 97.5046 199.72 97.8945 200.086C99.5839 201.612 101.507 202.995 103.353 204.399C106.55 206.8 109.72 209.221 112.865 211.662C116.166 214.225 119.415 216.809 122.612 219.413C125.497 221.773 128.382 224.153 131.215 226.554C133.71 228.67 136.154 230.785 138.597 232.922C139.142 233.389 139.662 233.857 140.208 234.346C140.338 234.468 140.572 234.346 140.546 234.203C139.818 231.518 138.831 228.893 137.583 226.33C135.92 222.933 133.788 219.677 131.189 216.667C129.474 214.714 127.55 212.842 125.471 211.092ZM125.471 211.092C125.289 210.95 125.029 211.174 125.185 211.316C128.746 214.286 131.761 217.623 134.178 221.203C136.128 224.092 137.687 227.123 138.857 230.256C139.35 231.579 139.792 232.942 140.156 234.285C140.26 234.244 140.364 234.183 140.494 234.142C138.207 232.128 135.894 230.114 133.58 228.12C130.903 225.842 128.226 223.563 125.497 221.325C122.456 218.823 119.363 216.341 116.244 213.879C112.969 211.296 109.643 208.732 106.29 206.21C104.028 204.501 101.741 202.812 99.532 201.042C98.9082 200.534 98.2844 200.045 97.7386 199.496C97.4527 199.211 97.1148 198.886 97.0368 198.54C97.0108 198.479 97.0368 198.377 97.0628 198.357C97.1668 198.276 97.2447 198.255 97.4267 198.214C97.9725 198.133 98.5963 198.235 99.1421 198.316C101.325 198.682 103.431 199.374 105.458 200.127C108.421 201.225 111.28 202.507 113.983 203.931C117.206 205.62 120.273 207.532 123.08 209.648C123.782 210.177 124.483 210.726 125.159 211.296C125.367 211.458 125.653 211.235 125.471 211.092Z" stroke="#7E684D" stroke-width="2" stroke-linejoin="round"/>
<path d="M173.71 234.873C174.23 230.438 175.685 226.043 178.207 222.036C180.806 217.906 184.548 214.264 189.071 211.314C192.892 208.812 197.18 206.778 201.703 205.15C205.653 203.746 209.786 202.648 214.022 201.895C217.037 201.346 220.13 200.939 223.223 200.918C224.081 200.918 224.965 200.918 225.77 201.081C225.822 201.102 225.9 201.102 225.952 201.122C226.004 201.142 226.108 201.163 226.108 201.163C226.186 201.203 226.316 201.264 226.316 201.264C226.394 201.325 226.368 201.305 226.394 201.346C226.394 201.325 226.394 201.366 226.394 201.366C226.368 201.427 226.394 201.386 226.368 201.447C226.264 201.61 225.978 201.773 225.744 201.895C225.329 202.139 224.861 202.343 224.419 202.546C222.911 203.217 221.378 203.848 219.87 204.519C214.412 206.9 209.162 209.524 204.094 212.372C198.324 215.627 192.814 219.187 187.615 222.992C183.431 226.064 179.428 229.319 175.659 232.696C174.906 233.388 174.152 234.079 173.398 234.771C173.242 234.913 173.502 235.137 173.684 234.995C177.193 231.719 180.91 228.566 184.782 225.555C189.773 221.71 195.075 218.089 200.663 214.752C206.147 211.477 211.891 208.466 217.843 205.76C219.662 204.947 221.508 204.153 223.327 203.38C224.341 202.953 225.406 202.546 226.29 201.976C226.654 201.753 227.07 201.366 226.602 201.041C226.134 200.735 225.355 200.695 224.783 200.654C223.665 200.573 222.521 200.613 221.378 200.674C219.792 200.776 218.207 200.939 216.621 201.163C212.515 201.753 208.486 202.668 204.614 203.848C200.039 205.252 195.621 207.062 191.644 209.341C187.303 211.803 183.457 214.813 180.468 218.333C176.881 222.565 174.646 227.427 173.684 232.411C173.528 233.225 173.398 234.059 173.294 234.873C173.294 235.056 173.684 235.056 173.71 234.873Z" fill="black" stroke="#7E684D" stroke-width="2" stroke-linejoin="round"/>
<path d="M152.994 222.831C152.942 221.915 152.89 221.02 152.812 220.105C152.812 219.901 152.423 219.901 152.423 220.105C152.475 221.02 152.553 221.915 152.605 222.831C152.605 223.034 152.994 223.034 152.994 222.831Z" fill="black" stroke="#7E684D" stroke-width="2" stroke-linejoin="round"/>
<path d="M141.979 191.562C141.745 187.311 141.823 183.038 142.213 178.807C142.473 176.101 142.863 173.416 143.408 170.75C143.772 168.94 144.162 167.15 144.604 165.359C145.202 162.979 145.852 160.578 146.735 158.259C147.099 157.283 147.515 156.306 148.035 155.391C148.373 154.801 148.789 154.109 149.438 153.702C149.932 153.397 150.4 153.478 150.842 153.824C151.544 154.394 151.933 155.208 152.271 155.94C153.363 158.32 153.935 160.843 154.455 163.325C154.948 165.603 155.312 167.882 155.676 170.16C156.17 173.375 156.508 176.589 156.716 179.804C156.976 183.954 157.002 188.124 156.794 192.275C156.742 193.393 156.664 194.533 156.586 195.652C156.56 195.855 156.95 195.855 156.976 195.652C157.314 191.237 157.392 186.822 157.236 182.408C157.106 178.725 156.768 175.063 156.248 171.401C155.936 169.225 155.598 167.048 155.156 164.871C154.637 162.247 154.091 159.602 153.129 157.059C152.791 156.123 152.375 155.167 151.752 154.312C151.414 153.845 150.868 153.234 150.088 153.214C149.386 153.214 148.866 153.682 148.503 154.089C147.879 154.78 147.463 155.594 147.099 156.388C146.033 158.625 145.358 160.965 144.708 163.305C144.136 165.42 143.642 167.556 143.2 169.693C142.759 171.768 142.395 173.863 142.135 175.979C141.589 180.048 141.381 184.137 141.433 188.226C141.459 189.365 141.485 190.505 141.563 191.644C141.589 191.746 141.979 191.746 141.979 191.562Z" fill="black" stroke="#7E684D" stroke-width="2" stroke-linejoin="round"/>
<path d="M153.826 235.792C152.657 227.39 152.423 218.907 153.541 210.504C154.372 204.157 155.958 197.871 158.427 191.788C160.298 187.19 162.689 182.735 165.549 178.442C167.602 175.37 169.837 172.359 172.176 169.409C174.126 166.968 176.127 164.506 178.518 162.309C179.064 161.801 179.74 161.089 180.545 160.824C180.727 160.763 180.857 160.743 180.961 160.906C181.169 161.231 181.013 161.76 180.935 162.086C180.597 163.632 179.974 165.137 179.402 166.643C178.96 167.802 178.492 168.941 178.024 170.101C177.842 170.589 177.634 171.057 177.452 171.546C176.777 173.295 176.101 175.065 175.425 176.815C174.022 180.517 172.592 184.22 171.189 187.923C168.771 194.27 166.38 200.617 163.963 206.965C161.13 214.431 158.271 221.877 155.62 229.384C154.866 231.5 154.138 233.636 153.411 235.752C153.359 235.935 153.723 236.016 153.775 235.833C156.426 228.061 159.285 220.331 162.222 212.62C164.899 205.52 167.576 198.44 170.279 191.34C171.89 187.109 173.502 182.857 175.113 178.625C175.919 176.51 176.725 174.373 177.556 172.258C177.816 171.586 178.076 170.895 178.336 170.223C179.038 168.453 179.766 166.683 180.415 164.893C180.675 164.181 180.935 163.449 181.143 162.716C181.273 162.228 181.403 161.719 181.403 161.231C181.377 160.722 181.065 160.295 180.363 160.539C179.558 160.824 178.882 161.475 178.31 161.984C177.297 162.899 176.361 163.896 175.451 164.893C172.956 167.66 170.669 170.569 168.512 173.499C165.107 178.117 162.04 182.877 159.675 187.902C157.023 193.476 155.152 199.295 153.982 205.174C152.397 213.048 152.059 221.043 152.657 228.977C152.839 231.255 153.073 233.534 153.385 235.792C153.463 235.975 153.852 235.975 153.826 235.792Z" fill="black" stroke="#7E684D" stroke-width="2" stroke-linejoin="round"/>
<path d="M154.012 236.299C153.96 231.824 153.648 227.348 152.999 222.913C152.453 219.048 151.647 215.223 150.581 211.439C149.646 208.102 148.502 204.807 147.125 201.572C145.929 198.785 144.577 196.018 143.044 193.333C141.744 191.054 140.315 188.816 138.755 186.619C137.352 184.646 135.844 182.733 134.233 180.862C131.712 177.932 129.035 175.104 126.228 172.358C123.836 170.018 121.393 167.679 118.638 165.604C118.222 165.299 115.129 162.979 115.025 164.586C114.999 165.014 115.181 165.441 115.311 165.848C115.571 166.54 115.909 167.191 116.247 167.862C117.235 169.754 118.326 171.585 119.366 173.457C119.418 173.538 119.47 173.619 119.496 173.701C119.678 174.006 119.834 174.311 120.016 174.596C120.354 175.206 120.692 175.796 121.029 176.406C121.575 177.403 122.147 178.4 122.693 179.397C123.499 180.862 124.304 182.327 125.11 183.771C126.228 185.805 127.345 187.819 128.463 189.854C129.918 192.519 131.4 195.164 132.855 197.829C134.727 201.206 136.572 204.603 138.443 207.98C140.679 212.049 142.914 216.118 145.149 220.187C146.943 223.462 148.71 226.758 150.425 230.054C151.517 232.149 152.609 234.265 153.674 236.381C153.778 236.564 154.142 236.483 154.038 236.299C152.037 232.353 149.984 228.406 147.878 224.48C146.033 221.041 144.162 217.624 142.264 214.206C140.185 210.442 138.132 206.658 136.052 202.894C134.389 199.883 132.725 196.873 131.088 193.862C129.788 191.522 128.515 189.182 127.215 186.843C126.254 185.093 125.292 183.344 124.304 181.594C123.629 180.353 122.927 179.112 122.251 177.871C121.809 177.057 121.341 176.244 120.899 175.45C120.64 174.982 120.38 174.514 120.12 174.046C120.016 173.843 119.886 173.64 119.782 173.436C118.95 171.992 118.118 170.547 117.339 169.103C116.637 167.821 115.805 166.478 115.467 165.095C115.415 164.912 115.311 164.505 115.571 164.383C115.701 164.322 116.039 164.444 116.195 164.505C117.157 164.892 117.962 165.563 118.742 166.133C119.964 167.068 121.133 168.086 122.251 169.103C125.162 171.727 127.891 174.474 130.516 177.281C132.621 179.539 134.649 181.838 136.52 184.239C138.028 186.172 139.431 188.165 140.731 190.2C142.29 192.641 143.694 195.143 144.941 197.686C146.397 200.636 147.644 203.647 148.71 206.678C149.932 210.178 150.919 213.738 151.673 217.318C152.531 221.428 153.103 225.578 153.414 229.749C153.57 231.946 153.674 234.143 153.7 236.36C153.648 236.483 154.038 236.483 154.012 236.299Z" fill="black" stroke="#7E684D" stroke-width="2" stroke-linejoin="round"/>
<path d="M154.974 72.9359C153.623 69.5385 152.583 66.1003 151.803 62.6011C150.608 57.1693 150.14 51.6153 150.504 46.1021C150.946 39.4292 152.687 32.797 155.884 26.5921C159.185 20.143 164.097 14.2229 169.971 9.05548C172.155 7.12279 174.52 5.25114 177.093 3.64395C177.977 3.09466 178.912 2.56571 179.9 2.11814C180.498 1.85367 181.173 1.56885 181.875 1.54851C182.629 1.54851 182.681 2.01642 182.603 2.52503C182.473 3.42017 181.979 4.29496 181.563 5.12907C179.874 8.38413 177.821 11.5375 175.949 14.7315C173.064 19.6344 170.335 24.5984 167.892 29.6641C164.721 36.2149 162.018 42.8877 159.861 49.6623C157.781 56.1928 156.196 62.8046 155.104 69.4571C154.922 70.6167 154.74 71.7967 154.585 72.9766C154.559 73.1801 154.948 73.1801 154.974 72.9766C155.832 66.8124 157.106 60.6888 158.795 54.6263C160.822 47.4041 163.448 40.2633 166.618 33.3056C169.114 27.8127 171.973 22.4012 175.04 17.0914C177.093 13.5312 179.328 10.032 181.329 6.43109C181.901 5.41389 182.473 4.35599 182.863 3.27776C183.045 2.76916 183.279 2.03677 182.863 1.56885C182.187 0.795778 180.55 1.50782 179.796 1.81298C177.483 2.80984 175.429 4.27462 173.532 5.69871C167.58 10.1948 162.486 15.5452 158.613 21.2823C154.455 27.4872 151.829 34.2618 150.686 41.2195C149.724 47.0989 149.802 53.0598 150.738 58.9392C151.388 63.0894 152.453 67.1786 153.909 71.1863C154.143 71.7967 154.351 72.407 154.611 73.0173C154.689 73.2004 155.052 73.119 154.974 72.9359Z" fill="black" stroke="#7E684D" stroke-width="2" stroke-linejoin="round"/>
<path d="M132.254 178.705C131.942 171.524 130.98 164.363 129.369 157.303C127.42 148.759 124.457 140.377 120.662 132.239C117.491 125.444 113.8 118.812 109.746 112.302C107.017 107.908 104.028 103.595 101.377 99.1598C100.753 98.1019 99.973 96.9423 99.7131 95.7827C99.6611 95.5793 99.6351 95.2538 99.8171 95.1317C100.337 94.7858 101.636 95.6606 102.026 95.8844C104.859 97.6137 107.277 99.8312 109.59 101.947C112.241 104.368 114.71 106.891 116.945 109.535C121.884 115.394 125.782 121.762 128.823 128.374C131.838 134.864 134.047 141.557 135.659 148.352C137.192 154.781 138.232 161.291 138.83 167.821C139.35 173.456 139.584 179.112 139.532 184.768C139.532 185.948 139.506 187.148 139.48 188.328C139.48 188.531 139.869 188.531 139.869 188.328C139.999 182.855 139.921 177.383 139.558 171.91C139.116 165.502 138.31 159.094 137.036 152.746C135.633 145.85 133.684 139.014 130.98 132.361C128.251 125.648 124.717 119.117 120.194 113.035C116.062 107.501 111.045 102.354 105.301 97.8171C104.21 96.9423 103.066 96.0675 101.792 95.3758C101.299 95.091 100.285 94.5214 99.6611 94.8876C98.9594 95.2741 99.5052 96.3523 99.7131 96.8406C100.363 98.285 101.247 99.6684 102.104 101.052C103.456 103.208 104.859 105.344 106.263 107.481C110.162 113.543 113.904 119.707 117.179 125.994C121.312 133.948 124.743 142.106 127.212 150.468C129.499 158.239 130.954 166.173 131.604 174.128C131.734 175.674 131.838 177.2 131.89 178.746C131.89 178.909 132.28 178.909 132.254 178.705Z" fill="black" stroke="#7E684D" stroke-width="2" stroke-linejoin="round"/>
</svg>
