<svg width="43" height="57" viewBox="0 0 43 57" fill="none" xmlns="http://www.w3.org/2000/svg">
<path d="M13.0084 15.3343C12.4353 15.5772 11.8828 15.8581 11.3561 16.182C10.6952 16.5867 10.0807 17.0534 9.5334 17.5772C8.9396 18.1439 8.43359 18.782 7.99986 19.4629C7.6126 20.0772 7.26148 20.7296 7.02396 21.4058C6.93102 21.6677 6.85357 21.9344 6.82775 22.2106C6.81226 22.3915 6.8071 22.5915 6.9052 22.7535C7.10658 23.082 7.61776 22.9439 7.91724 22.8344C8.53685 22.6106 9.09967 22.2392 9.61602 21.8582C10.2614 21.382 10.8604 20.8439 11.3819 20.2534C11.9964 19.5582 12.4972 18.7772 12.869 17.9439C13.1788 17.2534 13.3957 16.5343 13.5351 15.801C13.5609 15.6581 13.5867 15.5153 13.6074 15.3724C13.6125 15.3296 13.5402 15.3058 13.5351 15.3534C13.437 16.0153 13.2769 16.6677 13.0497 17.3058C12.7502 18.1296 12.3268 18.9201 11.795 19.6344C11.3096 20.282 10.7262 20.8677 10.0911 21.3963C9.55406 21.8439 8.97058 22.2582 8.33032 22.5773C8.10312 22.6915 7.86044 22.7963 7.60743 22.8487C7.45253 22.882 7.25632 22.9106 7.10658 22.8344C6.95684 22.7582 6.91037 22.5963 6.90004 22.4487C6.87939 22.2106 6.93102 21.9725 6.99815 21.7439C7.17887 21.0915 7.48867 20.4677 7.83463 19.8772C8.22705 19.2058 8.68143 18.5629 9.22359 17.9867C9.75027 17.4248 10.3544 16.9201 11.005 16.482C11.5368 16.1248 12.0996 15.8153 12.6883 15.5439C12.807 15.4915 12.9258 15.4391 13.0445 15.3867C13.0962 15.3772 13.0549 15.3153 13.0084 15.3343Z" fill="black" stroke="#7E684D" stroke-width="0.35" stroke-linejoin="round"/>
<path d="M13.9685 15.3723C14.0563 15.977 14.1957 16.5723 14.3971 17.158C14.6501 17.9009 15.0012 18.6152 15.4453 19.2818C15.941 20.0199 16.5503 20.6866 17.237 21.2771C17.8153 21.7771 18.4452 22.2485 19.1423 22.6009C19.3901 22.7295 19.6586 22.8485 19.9375 22.9152C20.1182 22.9581 20.3247 22.9866 20.4951 22.9104C20.6552 22.8438 20.7275 22.6914 20.7533 22.539C20.7894 22.3152 20.7481 22.0819 20.6965 21.8628C20.5416 21.2057 20.2318 20.5771 19.8962 19.9818C19.5037 19.2914 19.0494 18.6342 18.502 18.039C17.965 17.4532 17.3558 16.9294 16.6845 16.477C16.1372 16.1056 15.5537 15.7818 14.9496 15.5008C14.8257 15.4437 14.7017 15.3913 14.5778 15.3389C14.5313 15.3199 14.4952 15.3818 14.5365 15.4008C15.0993 15.6389 15.6415 15.9151 16.1578 16.2294C16.8084 16.6247 17.4125 17.0818 17.9547 17.5961C18.5433 18.158 19.0494 18.7818 19.4831 19.4533C19.8755 20.0628 20.2215 20.7104 20.4641 21.3819C20.5571 21.639 20.6397 21.9104 20.6707 22.1819C20.6913 22.3581 20.7017 22.5676 20.6036 22.7247C20.5209 22.8581 20.3609 22.8914 20.206 22.8866C19.9633 22.8771 19.7258 22.7914 19.5089 22.6962C18.8377 22.4104 18.2335 21.9866 17.6759 21.5438C16.9891 20.9961 16.3644 20.3818 15.8429 19.7009C15.342 19.0437 14.9393 18.3294 14.6398 17.5771C14.4023 16.977 14.2267 16.3532 14.1079 15.7247C14.0873 15.6008 14.0666 15.4818 14.046 15.358C14.0357 15.3104 13.9634 15.3294 13.9685 15.3723Z" fill="black" stroke="#7E684D" stroke-width="0.35" stroke-linejoin="round"/>
<path d="M14.0046 15.3296C13.8601 15.3296 13.7207 15.3296 13.5761 15.3296C13.5244 15.3296 13.5244 15.401 13.5761 15.401C13.7207 15.401 13.8601 15.401 14.0046 15.401C14.0563 15.401 14.0563 15.3296 14.0046 15.3296Z" fill="black" stroke="#7E684D" stroke-width="0.35" stroke-linejoin="round"/>
<path d="M12.0324 19.3249C12.1409 19.8344 12.3577 20.3106 12.6417 20.7583C12.9051 21.163 13.2149 21.5487 13.6021 21.8583C13.9378 22.1297 14.356 22.363 14.8155 22.3487C15.2751 22.3345 15.6572 22.0678 15.9257 21.744C16.2148 21.3916 16.411 20.9773 16.5505 20.5583C16.566 20.5154 16.4885 20.4963 16.4782 20.5392C16.3594 20.8964 16.1993 21.244 15.9773 21.5583C15.7346 21.8964 15.3938 22.2106 14.9395 22.2726C14.4954 22.3345 14.0668 22.1249 13.7312 21.8726C13.3491 21.5868 13.0393 21.2202 12.7811 20.8392C12.461 20.3678 12.2132 19.8582 12.0996 19.3106C12.0996 19.263 12.0221 19.282 12.0324 19.3249Z" fill="black" stroke="#7E684D" stroke-width="0.35" stroke-linejoin="round"/>
<path d="M13.7418 17.9868C13.4216 18.063 13.117 18.2439 12.9621 18.5201C12.8743 18.6725 12.802 18.863 12.833 19.0344C12.8588 19.1868 12.9982 19.2534 13.1531 19.2392C13.4113 19.2201 13.654 19.0725 13.8502 18.9249C13.8295 18.9249 13.814 18.9249 13.7934 18.9249C13.9793 19.082 14.2065 19.2439 14.4646 19.2868C14.635 19.3154 14.7899 19.2582 14.8261 19.0868C14.8622 18.8915 14.7796 18.6725 14.6763 18.5058C14.5679 18.3296 14.3923 18.1963 14.1961 18.1058C14.0619 18.0439 13.9173 18.0058 13.7676 17.9868C13.7211 17.982 13.6953 18.0487 13.7469 18.0534C14.0257 18.0915 14.3097 18.2011 14.5008 18.3963C14.6402 18.5392 14.7331 18.7344 14.7538 18.9296C14.7641 19.0058 14.7641 19.1011 14.7125 19.163C14.6712 19.2154 14.5989 19.2249 14.5318 19.2201C14.2736 19.2058 14.0309 19.0296 13.8502 18.8725C13.8347 18.8582 13.814 18.8582 13.7934 18.8725C13.6282 19.0011 13.4319 19.1154 13.2151 19.1582C13.0705 19.1868 12.9208 19.1582 12.9001 19.0011C12.8846 18.8439 12.9517 18.6725 13.0292 18.5392C13.117 18.3868 13.2512 18.2677 13.4113 18.182C13.5197 18.1249 13.6333 18.082 13.7572 18.0534C13.814 18.0439 13.7934 17.9772 13.7418 17.9868Z" fill="black" stroke="#7E684D" stroke-width="0.35" stroke-linejoin="round"/>
<path d="M14.8304 15.3291C14.2676 15.3291 13.6996 15.3291 13.1368 15.3291C13.0542 15.3291 12.9767 15.3291 12.8941 15.3291C12.9044 15.3387 12.9199 15.353 12.9354 15.3672C12.9354 14.972 12.9354 14.5815 12.9354 14.1863C12.9354 13.9244 12.9354 13.6625 12.9354 13.4006C12.9354 13.2577 12.9147 13.0958 12.9561 12.9577C13.0129 12.7625 13.1832 12.6053 13.3949 12.5577C13.5085 12.5291 13.6376 12.5434 13.7512 12.5434C13.8855 12.5434 14.0197 12.5434 14.1591 12.5434C14.3347 12.5434 14.4948 12.591 14.6187 12.7053C14.7374 12.8148 14.7942 12.9577 14.7942 13.1101C14.7942 13.1625 14.7942 13.2148 14.7942 13.2625C14.7942 13.5006 14.7942 13.7339 14.7942 13.972C14.7942 14.4291 14.7942 14.8815 14.7942 15.3387C14.7942 15.3482 14.7942 15.3577 14.7942 15.3625C14.7942 15.4101 14.8717 15.4101 14.8717 15.3625C14.8717 14.9482 14.8717 14.5387 14.8717 14.1244C14.8717 13.8625 14.8717 13.6006 14.8717 13.3387C14.8717 13.1672 14.8872 12.991 14.8046 12.8291C14.7168 12.6529 14.5412 12.5244 14.3347 12.4815C14.2159 12.4577 14.092 12.4672 13.9733 12.4672C13.8338 12.4672 13.6996 12.4672 13.5602 12.4672C13.3898 12.4672 13.2297 12.5148 13.0955 12.6148C12.9406 12.7339 12.8528 12.9148 12.8528 13.0958C12.8528 13.1339 12.8528 13.172 12.8528 13.2148C12.8528 13.4434 12.8528 13.6767 12.8528 13.9053C12.8528 14.3815 12.8528 14.8577 12.8528 15.3339C12.8528 15.3434 12.8528 15.353 12.8528 15.3625C12.8528 15.3815 12.8683 15.4006 12.8941 15.4006C13.4569 15.4006 14.0249 15.4006 14.5877 15.4006C14.6703 15.4006 14.7478 15.4006 14.8304 15.4006C14.8769 15.4006 14.8769 15.3291 14.8304 15.3291Z" fill="black" stroke="#7E684D" stroke-width="0.35" stroke-linejoin="round"/>
<path d="M27.5125 25.9201C27.6984 27.182 28.1786 28.4059 28.9789 29.4487C29.3765 29.9678 29.8515 30.4345 30.3679 30.8535C30.8016 31.2059 31.2766 31.544 31.793 31.7868C31.9737 31.8726 32.1647 31.9487 32.3661 31.9868C32.5004 32.0107 32.6501 32.0202 32.774 31.9535C32.8928 31.8868 32.9444 31.763 32.9599 31.6392C32.9857 31.4535 32.9496 31.2678 32.9031 31.0868C32.774 30.563 32.521 30.0583 32.2525 29.5821C31.9427 29.0344 31.5761 28.5106 31.1424 28.0392C30.3627 27.1868 29.3816 26.5058 28.3025 26.0106C28.2044 25.9677 28.1063 25.9201 28.0082 25.882C27.9617 25.863 27.9255 25.9249 27.9669 25.9439C28.9789 26.3725 29.9186 26.9535 30.6983 27.6916C31.1682 28.1344 31.5709 28.6344 31.9169 29.1678C32.2267 29.6535 32.5055 30.163 32.7017 30.6964C32.7792 30.9059 32.8463 31.1202 32.8773 31.344C32.8979 31.4868 32.9083 31.6535 32.836 31.7868C32.6914 32.0488 32.2628 31.9059 32.0511 31.8202C31.5555 31.6297 31.1062 31.3297 30.6932 31.0202C30.1923 30.644 29.7276 30.2202 29.3248 29.7583C28.4367 28.744 27.8791 27.5154 27.6364 26.2344C27.6157 26.1249 27.6002 26.0154 27.5796 25.9058C27.5796 25.8582 27.5073 25.8773 27.5125 25.9201Z" fill="black" stroke="#7E684D" stroke-width="0.35" stroke-linejoin="round"/>
<path d="M26.7479 25.8817C25.6997 26.3293 24.729 26.9388 23.9286 27.7103C23.4588 28.1674 23.056 28.6817 22.7101 29.2246C22.4002 29.7198 22.1214 30.2436 21.9355 30.7913C21.8633 30.996 21.8065 31.2103 21.791 31.4246C21.7806 31.5675 21.7858 31.7341 21.8736 31.8579C22.0646 32.1199 22.5087 31.9722 22.7565 31.877C23.2987 31.6627 23.7892 31.3246 24.2333 30.977C24.7961 30.5389 25.3124 30.0436 25.741 29.4913C26.4949 28.5246 26.9751 27.396 27.1919 26.2246C27.2126 26.1246 27.2281 26.0198 27.2436 25.9198C27.2487 25.8769 27.1764 25.8531 27.1713 25.9007C27.0112 26.9817 26.6394 28.0341 26.025 28.9722C25.6377 29.5579 25.1627 30.0865 24.6205 30.5579C24.1662 30.9579 23.6705 31.3294 23.1283 31.6198C22.9269 31.7294 22.7152 31.8294 22.488 31.8865C22.3486 31.9246 22.1782 31.9579 22.044 31.9008C21.92 31.8484 21.8736 31.7246 21.8633 31.6056C21.8426 31.4198 21.8839 31.2294 21.9355 31.0484C22.075 30.5294 22.3228 30.0341 22.5913 29.5674C22.9063 29.0246 23.2677 28.5055 23.7066 28.0389C24.4811 27.2103 25.4415 26.5484 26.5052 26.0626C26.5981 26.0198 26.6911 25.9769 26.7892 25.9388C26.8305 25.9245 26.7943 25.8626 26.7479 25.8817Z" fill="black" stroke="#7E684D" stroke-width="0.35" stroke-linejoin="round"/>
<path d="M27.5487 25.8774C27.4351 25.8774 27.3215 25.8774 27.2079 25.8774C27.1563 25.8774 27.1563 25.9489 27.2079 25.9489C27.3215 25.9489 27.4351 25.9489 27.5487 25.9489C27.6003 25.9489 27.6003 25.8774 27.5487 25.8774Z" fill="black" stroke="#7E684D" stroke-width="0.35" stroke-linejoin="round"/>
<path d="M25.1577 30.0771C25.2558 30.3724 25.39 30.6676 25.5811 30.9248C25.7825 31.201 26.0613 31.4534 26.433 31.5057C26.7945 31.5581 27.1404 31.4153 27.4193 31.2153C27.7446 30.9819 28.0131 30.6772 28.2351 30.3533C28.5036 29.9629 28.7101 29.5438 28.8031 29.0867C28.8134 29.0438 28.7359 29.0248 28.7308 29.0676C28.6482 29.4629 28.4829 29.8295 28.2609 30.1771C28.0595 30.4867 27.822 30.7867 27.5329 31.0295C27.2747 31.2486 26.9494 31.4438 26.5828 31.4438C26.2162 31.4438 25.9167 31.2248 25.7102 30.9676C25.4933 30.6962 25.3436 30.3772 25.2351 30.0581C25.2145 30.0152 25.1422 30.0295 25.1577 30.0771Z" fill="black" stroke="#7E684D" stroke-width="0.35" stroke-linejoin="round"/>
<path d="M27.3988 28.0768C27.6982 28.1482 27.9409 28.3292 28.0442 28.6054C28.0855 28.7244 28.1423 28.9435 27.9409 28.9578C27.7396 28.9721 27.5278 28.8387 27.3833 28.7244C27.3678 28.7102 27.3471 28.7102 27.3265 28.7244C27.1922 28.8387 27.027 28.9578 26.8411 28.9911C26.7895 29.0006 26.7275 29.0054 26.6759 28.9816C26.6191 28.9483 26.6139 28.8768 26.6139 28.8244C26.6191 28.5244 26.8463 28.2625 27.1354 28.1482C27.2232 28.1149 27.3213 28.0911 27.4143 28.0768C27.4659 28.0721 27.4401 28.0006 27.3936 28.0102C27.1199 28.0435 26.8514 28.1673 26.6965 28.3816C26.5674 28.553 26.3764 29.1006 26.7895 29.0721C27.0167 29.0578 27.2232 28.9102 27.3833 28.7768C27.3626 28.7768 27.3471 28.7768 27.3265 28.7768C27.4762 28.8864 27.6466 28.9959 27.8377 29.0244C27.9564 29.0435 28.0907 29.0244 28.1371 28.9149C28.1939 28.7863 28.132 28.6197 28.0752 28.5006C28.008 28.3578 27.8996 28.2387 27.7602 28.153C27.6569 28.0911 27.5382 28.0435 27.4194 28.0149C27.3729 27.9959 27.3523 28.0625 27.3988 28.0768Z" fill="black" stroke="#7E684D" stroke-width="0.35" stroke-linejoin="round"/>
<path d="M26.5467 25.9485C27.0011 25.9485 27.4555 25.9485 27.9047 25.9485C27.9719 25.9485 28.0338 25.9485 28.1009 25.9485C28.1216 25.9485 28.1422 25.9342 28.1422 25.9104C28.1422 25.5771 28.1422 25.2438 28.1422 24.9152C28.1422 24.7057 28.1422 24.4961 28.1422 24.2866C28.1422 24.1485 28.1526 24.0057 28.0854 23.8723C28.0132 23.7342 27.8737 23.6295 27.7085 23.5961C27.6156 23.5771 27.5123 23.5818 27.4194 23.5818C27.1818 23.5818 26.9185 23.5485 26.7171 23.6961C26.588 23.7914 26.5106 23.939 26.5106 24.0961C26.5106 24.1247 26.5106 24.158 26.5106 24.1866C26.5106 24.3723 26.5106 24.5533 26.5106 24.739C26.5106 25.12 26.5054 25.5057 26.5106 25.8866C26.5106 25.8961 26.5106 25.9009 26.5106 25.9104C26.5106 25.9581 26.588 25.9581 26.588 25.9104C26.588 25.5961 26.588 25.2819 26.588 24.9676C26.588 24.758 26.588 24.5485 26.588 24.3438C26.588 24.2342 26.5726 24.1104 26.5984 24.0009C26.6397 23.839 26.7791 23.7057 26.9547 23.6676C27.0424 23.6485 27.1405 23.6533 27.2335 23.6533C27.471 23.6533 27.7498 23.6152 27.9305 23.7866C28.0648 23.9152 28.0648 24.0676 28.0648 24.2295C28.0648 24.4199 28.0648 24.6057 28.0648 24.7961C28.0648 25.0199 28.0648 25.2485 28.0648 25.4723C28.0648 25.6104 28.0545 25.7533 28.0648 25.8866C28.0648 25.8914 28.0648 25.9009 28.0648 25.9057C28.0751 25.8961 28.0906 25.8819 28.1061 25.8676C27.6517 25.8676 27.1973 25.8676 26.7481 25.8676C26.681 25.8676 26.619 25.8676 26.5519 25.8676C26.4951 25.8771 26.4951 25.9485 26.5467 25.9485Z" fill="black" stroke="#7E684D" stroke-width="0.35" stroke-linejoin="round"/>
<path d="M32.4279 9.8677C31.9684 10.2534 31.5398 10.6677 31.1474 11.1106C30.6569 11.6677 30.2283 12.2725 29.8772 12.9153C29.5002 13.6106 29.2214 14.3439 29.0252 15.0963C28.8497 15.782 28.7309 16.482 28.7051 17.1868C28.6947 17.4678 28.7051 17.7487 28.7515 18.0249C28.7877 18.2154 28.8393 18.4202 28.9736 18.5773C29.2369 18.8868 29.6706 18.6773 29.9443 18.4868C30.187 18.3202 30.4039 18.1154 30.6001 17.9059C30.8479 17.644 31.0751 17.363 31.2868 17.0773C31.767 16.4249 32.1698 15.7249 32.4847 14.9963C32.8462 14.1582 33.063 13.2725 33.1456 12.3772C33.2128 11.6344 33.187 10.8868 33.0785 10.1487C33.0579 10.0058 33.032 9.8677 33.0062 9.72484C32.9959 9.68198 32.9236 9.70103 32.9339 9.74389C33.0579 10.401 33.1198 11.0725 33.1043 11.7391C33.0888 12.6058 32.9443 13.4725 32.6654 14.3011C32.4073 15.0725 32.0303 15.8154 31.5811 16.5059C31.2042 17.0916 30.7705 17.663 30.2438 18.144C30.0631 18.3106 29.8617 18.4678 29.6345 18.5773C29.4951 18.644 29.3195 18.7011 29.1698 18.6345C29.0149 18.5678 28.9374 18.3964 28.8858 18.2487C28.8083 18.0154 28.7877 17.763 28.7774 17.5202C28.7567 16.8535 28.8548 16.182 28.9942 15.5297C29.1543 14.7916 29.3815 14.0677 29.7119 13.382C30.0321 12.7153 30.4348 12.0868 30.9047 11.501C31.292 11.0201 31.7205 10.5725 32.1852 10.1582C32.2782 10.0725 32.3763 9.99151 32.4744 9.91056C32.5209 9.88675 32.4641 9.83437 32.4279 9.8677Z" fill="black" stroke="#7E684D" stroke-width="0.35" stroke-linejoin="round"/>
<path d="M33.3523 9.63858C33.6105 10.1481 33.9151 10.6386 34.2559 11.1053C34.6948 11.7005 35.206 12.2529 35.7791 12.7434C36.4504 13.3148 37.2042 13.791 38.0097 14.1815C38.7429 14.5339 39.5175 14.8339 40.3178 15.0244C40.6224 15.0958 40.9374 15.1577 41.2575 15.172C41.4744 15.1815 41.7068 15.1767 41.9081 15.091C42.316 14.9148 42.156 14.4529 42.0011 14.1624C41.8617 13.8958 41.6809 13.6529 41.4899 13.4148C41.2575 13.1291 41.0045 12.8624 40.736 12.6053C40.1526 12.0434 39.5123 11.5243 38.8152 11.0862C38.0768 10.6243 37.2765 10.2529 36.4349 9.98145C35.7533 9.75763 35.0459 9.59573 34.3333 9.49097C34.1888 9.47192 34.0494 9.45287 33.9048 9.43382C33.8531 9.42906 33.8583 9.50049 33.9048 9.50525C34.5605 9.58144 35.206 9.70525 35.8359 9.87668C36.6362 10.0957 37.4108 10.3957 38.1388 10.7815C38.8875 11.1815 39.5742 11.6719 40.2042 12.2196C40.7464 12.6958 41.2679 13.21 41.6758 13.791C41.8255 14.0005 41.9649 14.2243 42.0424 14.4624C42.0889 14.6053 42.1198 14.791 42.0166 14.9244C41.9081 15.0529 41.7068 15.091 41.5364 15.1005C41.2575 15.1196 40.9787 15.0863 40.7102 15.0386C39.946 14.9005 39.2076 14.6386 38.5054 14.3339C37.6948 13.9815 36.9254 13.5481 36.2335 13.0196C35.619 12.5481 35.0666 12.01 34.5915 11.4196C34.2094 10.9481 33.8738 10.4434 33.5846 9.91954C33.5278 9.81478 33.471 9.71002 33.4194 9.60525C33.3988 9.56239 33.3316 9.59573 33.3523 9.63858Z" fill="black" stroke="#7E684D" stroke-width="0.35" stroke-linejoin="round"/>
<path d="M33.3775 9.58684C33.2432 9.62494 33.1038 9.6678 32.9696 9.70589C32.9231 9.72018 32.9437 9.78684 32.9902 9.77256C33.1245 9.73446 33.2639 9.69161 33.3981 9.65351C33.4446 9.64399 33.4239 9.57256 33.3775 9.58684Z" fill="black" stroke="#7E684D" stroke-width="0.35" stroke-linejoin="round"/>
<path d="M32.7998 13.9434C33.0683 14.3958 33.4245 14.7911 33.8428 15.1339C34.23 15.4482 34.6586 15.7339 35.1336 15.9292C35.5467 16.0959 36.0372 16.2006 36.4761 16.0482C36.9047 15.9006 37.168 15.5435 37.3178 15.1577C37.4778 14.7482 37.5243 14.3006 37.5191 13.8673C37.5191 13.8196 37.4417 13.8196 37.4417 13.8673C37.4417 14.2339 37.4107 14.6006 37.3023 14.9577C37.1887 15.3387 36.977 15.7339 36.5846 15.9292C36.1766 16.1292 35.6965 16.0625 35.2834 15.9149C34.8135 15.7482 34.3901 15.4768 34.008 15.1816C33.5485 14.8244 33.156 14.4054 32.8669 13.9196C32.8411 13.8673 32.7739 13.9054 32.7998 13.9434Z" fill="black" stroke="#7E684D" stroke-width="0.35" stroke-linejoin="round"/>
<path d="M33.9978 12.1964C33.7035 12.3631 33.4711 12.6298 33.4195 12.9536C33.3937 13.1203 33.3833 13.325 33.4814 13.4774C33.5641 13.6012 33.7138 13.6107 33.8532 13.5584C34.0907 13.4679 34.2715 13.2631 34.4057 13.0726C34.3902 13.0774 34.3696 13.0822 34.3541 13.0869C34.5761 13.1869 34.8394 13.2726 35.0873 13.2488C35.2473 13.2345 35.3971 13.1584 35.3919 12.9917C35.3868 12.7964 35.2319 12.5964 35.0821 12.4679C34.9169 12.3202 34.7052 12.2298 34.478 12.2012C34.3231 12.1774 34.163 12.1822 34.0081 12.206C33.9616 12.2155 33.9823 12.2822 34.0288 12.2726C34.3179 12.225 34.6432 12.2631 34.8911 12.4155C35.0615 12.5203 35.2112 12.6869 35.2835 12.8679C35.3093 12.9345 35.3351 13.025 35.2938 13.0917C35.2577 13.1441 35.1905 13.1631 35.1286 13.1774C34.8807 13.2203 34.6122 13.1298 34.3902 13.0345C34.3696 13.025 34.3489 13.0298 34.3386 13.0488C34.225 13.2155 34.0804 13.3774 33.8894 13.4774C33.7758 13.5393 33.626 13.5774 33.5434 13.4536C33.4608 13.3203 33.4711 13.1298 33.4918 12.9869C33.5228 12.8107 33.6054 12.6488 33.7293 12.5155C33.8171 12.425 33.9203 12.3441 34.0288 12.2822C34.0752 12.2345 34.0391 12.1726 33.9978 12.1964Z" fill="black" stroke="#7E684D" stroke-width="0.35" stroke-linejoin="round"/>
<path d="M34.1628 9.35802C33.6258 9.51516 33.0837 9.67231 32.5467 9.82945C32.4692 9.85326 32.3918 9.87231 32.3143 9.89612C32.3298 9.90564 32.3453 9.9104 32.3608 9.91993C32.2317 9.54373 32.1026 9.16754 31.9735 8.79611C31.8909 8.54849 31.8031 8.30086 31.7205 8.05324C31.674 7.91991 31.6017 7.76752 31.5914 7.62467C31.5811 7.4199 31.6895 7.2199 31.8857 7.11514C31.9838 7.05799 32.1078 7.03418 32.2162 7.00085C32.3453 6.96275 32.4744 6.92466 32.6035 6.88656C32.7687 6.83894 32.9442 6.83894 33.1043 6.9199C33.2489 6.99133 33.3522 7.11038 33.3986 7.25323C33.4141 7.30562 33.4348 7.35323 33.4503 7.40562C33.5277 7.62943 33.6052 7.85324 33.6775 8.07705C33.8272 8.51039 33.9769 8.94373 34.1215 9.38183C34.1267 9.39135 34.1267 9.39611 34.1318 9.40564C34.1473 9.44849 34.2196 9.42945 34.2041 9.38659C34.0699 8.99135 33.9356 8.60087 33.8014 8.20562C33.7188 7.958 33.631 7.71038 33.5484 7.46276C33.4916 7.30085 33.4503 7.12942 33.3263 7.00085C33.1869 6.85323 32.9701 6.77228 32.7584 6.79132C32.6396 6.80085 32.5208 6.84371 32.4072 6.87704C32.1233 6.95799 31.7928 7.01037 31.6172 7.258C31.5088 7.41514 31.483 7.61038 31.5398 7.78657C31.5501 7.82467 31.5656 7.86276 31.5811 7.90086C31.6585 8.11991 31.7308 8.34372 31.8083 8.56277C31.9632 9.01516 32.1181 9.46754 32.273 9.91517C32.2782 9.92469 32.2782 9.93421 32.2833 9.94374C32.2885 9.96279 32.3091 9.97231 32.3298 9.96755C32.8668 9.8104 33.409 9.65326 33.946 9.49611C34.0234 9.4723 34.1009 9.45326 34.1783 9.42945C34.2299 9.41516 34.2093 9.34373 34.1628 9.35802Z" fill="black" stroke="#7E684D" stroke-width="0.35" stroke-linejoin="round"/>
<path d="M35.221 26.525C35.0196 26.6203 34.8183 26.7155 34.6169 26.8155C34.6324 26.8203 34.653 26.825 34.6685 26.8298C34.5239 26.5726 34.3794 26.3155 34.2348 26.0583C34.147 25.9012 34.0592 25.7441 33.9663 25.5869C33.894 25.4631 33.8269 25.3393 33.8062 25.1964C33.7598 24.9107 33.8785 24.6155 34.116 24.425C34.3949 24.2012 34.8079 24.1488 35.1384 24.3012C35.3398 24.3917 35.4792 24.544 35.5825 24.725C35.6599 24.8631 35.7374 24.9964 35.8148 25.1345C35.9181 25.3155 36.0162 25.4917 36.1194 25.6726C36.1608 25.7441 36.2021 25.8202 36.2434 25.8917C36.2692 25.9345 36.2898 25.9822 36.3157 26.0203C36.3208 26.025 36.3208 26.0298 36.326 26.0393C36.3312 26.025 36.3363 26.006 36.3415 25.9917C36.1298 26.0917 35.9148 26.2008 35.7031 26.3008C35.6567 26.3198 35.7012 26.3774 35.7477 26.3584C35.9594 26.2583 36.1711 26.1583 36.3828 26.0536C36.4034 26.0441 36.4034 26.0203 36.3983 26.006C36.2434 25.7298 36.0885 25.4583 35.9336 25.1821C35.8458 25.0298 35.758 24.8726 35.6754 24.7202C35.5825 24.5583 35.4792 24.4155 35.314 24.3107C35.0196 24.1202 34.6272 24.0917 34.3019 24.2345C34.0128 24.3583 33.8062 24.6107 33.7443 24.9012C33.6978 25.1202 33.7443 25.3345 33.8527 25.525C33.925 25.6536 33.9973 25.7774 34.0696 25.906C34.2451 26.2203 34.4155 26.5345 34.6014 26.8441C34.6066 26.8488 34.6066 26.8584 34.6117 26.8631C34.6221 26.8822 34.6479 26.8869 34.6634 26.8774C34.8647 26.7822 35.0661 26.6822 35.2675 26.5869C35.3088 26.5631 35.2675 26.506 35.221 26.525Z" fill="black" stroke="#7E684D" stroke-width="0.35" stroke-linejoin="round"/>
<path d="M6.72463 29.6252C6.76594 29.2776 6.80725 28.9299 6.84856 28.5823C6.87437 28.368 6.90019 28.149 6.92601 27.9347C6.94666 27.7775 6.95699 27.6156 7.02928 27.468C7.18418 27.1537 7.52497 26.9299 7.9019 26.9156C8.28916 26.9013 8.66093 27.0918 8.84165 27.4109C8.95525 27.6109 8.96557 27.8204 8.93976 28.0394C8.9191 28.2299 8.89328 28.4204 8.87263 28.6109C8.82616 29.0109 8.77969 29.4109 8.73322 29.8109C8.73322 29.8204 8.73322 29.8252 8.72805 29.8347C8.73838 29.8252 8.75387 29.8109 8.76936 29.7966C8.31498 29.749 7.86576 29.7061 7.41137 29.6633C7.30294 29.6537 7.19451 29.6395 7.08608 29.6299C7.03444 29.6252 7.03444 29.6966 7.08608 29.7014C7.54046 29.749 7.99484 29.7918 8.45439 29.8347C8.55766 29.8442 8.66609 29.8538 8.76936 29.868C8.79001 29.868 8.80551 29.849 8.81067 29.8299C8.85198 29.4633 8.89328 29.1014 8.93976 28.7347C8.96557 28.5204 8.99139 28.3061 9.01721 28.0871C9.03786 27.8918 9.05335 27.7013 8.98106 27.5109C8.85714 27.1871 8.5525 26.9347 8.18589 26.8632C7.81929 26.7918 7.42686 26.9013 7.16869 27.1537C6.98797 27.3299 6.90019 27.549 6.87437 27.7918C6.85372 27.9775 6.83307 28.1585 6.81241 28.3442C6.76594 28.7633 6.71431 29.1776 6.66784 29.5966C6.66784 29.6061 6.66784 29.6157 6.66267 29.6204C6.64202 29.6728 6.71947 29.6728 6.72463 29.6252Z" fill="black" stroke="#7E684D" stroke-width="0.35" stroke-linejoin="round"/>
<path d="M7.08066 29.6343C6.95157 29.62 6.81732 29.6057 6.68824 29.5962C6.69856 29.6057 6.71405 29.62 6.72954 29.6343C6.72954 29.601 6.68824 29.5914 6.66242 29.6105C6.02731 30.0819 5.38705 30.5391 4.70547 30.9533C4.32337 31.1867 3.92063 31.3867 3.54886 31.6391C3.15643 31.9105 2.78983 32.22 2.46453 32.5581C1.95335 33.0819 1.52478 33.6819 1.25628 34.3439C1.11171 34.6962 1.02909 35.0581 0.982621 35.4296C0.941313 35.7439 0.920659 36.0724 0.987784 36.3867C1.04975 36.6629 1.20981 36.9296 1.52478 37.001C1.81394 37.0629 2.11858 36.9677 2.38192 36.8629C2.93957 36.6391 3.43526 36.2963 3.89997 35.9439C4.67449 35.3534 5.32508 34.6391 5.85176 33.8534C6.32163 33.1534 6.69856 32.3962 6.9619 31.6105C7.06517 31.301 7.15295 30.9819 7.21491 30.6629C7.26138 30.4248 7.29236 30.1819 7.2872 29.939C7.2872 29.8533 7.27687 29.7676 7.26138 29.6867C7.25105 29.6438 7.17876 29.6629 7.18909 29.7057C7.2304 29.8962 7.22007 30.0914 7.19942 30.2819C7.16844 30.5676 7.11164 30.8486 7.03419 31.1248C6.83281 31.8676 6.523 32.5819 6.13575 33.2534C5.67104 34.0629 5.0824 34.8153 4.37501 35.4582C3.9103 35.8772 3.39395 36.2582 2.8363 36.5677C2.55231 36.7248 2.24767 36.8725 1.92237 36.9296C1.64354 36.982 1.35439 36.9344 1.19432 36.6963C1.0136 36.4248 1.0136 36.0629 1.03426 35.7534C1.05491 35.4153 1.10654 35.0772 1.19949 34.7534C1.40602 34.0534 1.80361 33.4153 2.29414 32.8581C2.64009 32.4676 3.03251 32.1105 3.46624 31.7962C3.76572 31.5772 4.09102 31.401 4.41632 31.2153C5.12371 30.8153 5.80012 30.3533 6.44555 29.8724C6.5385 29.8057 6.62627 29.7343 6.71922 29.6676C6.69856 29.6581 6.67274 29.6486 6.65209 29.6438C6.65209 29.6629 6.66758 29.6771 6.6934 29.6819C6.82249 29.6962 6.95674 29.7105 7.08582 29.72C7.12713 29.7105 7.12713 29.639 7.08066 29.6343Z" fill="black" stroke="#7E684D" stroke-width="0.35" stroke-linejoin="round"/>
<path d="M4.91211 34.9198C4.91727 35.1341 4.95342 35.3484 5.0412 35.5484C5.12381 35.7341 5.24257 35.9007 5.38715 36.0484C5.66597 36.3246 6.02742 36.5246 6.41467 36.6341C6.79161 36.7436 7.20468 36.7722 7.58678 36.6674C7.95338 36.5674 8.25286 36.3341 8.46456 36.0436C8.59365 35.8674 8.69176 35.6722 8.77437 35.4722C8.81568 35.3626 8.85699 35.2531 8.88797 35.1436C8.90346 35.0864 8.91895 35.0293 8.93444 34.9722C8.94477 34.9245 8.97058 34.8674 8.97058 34.815C8.97058 34.7674 8.89313 34.7674 8.89313 34.815C8.89313 34.8579 8.87248 34.9103 8.86215 34.9531C8.85182 35.0007 8.83633 35.0483 8.82084 35.096C8.79503 35.1912 8.76405 35.2817 8.7279 35.3769C8.66594 35.5484 8.58332 35.715 8.48522 35.8722C8.29933 36.1674 8.03083 36.4293 7.67972 36.5579C6.96716 36.8198 6.08938 36.5579 5.54205 36.096C5.37682 35.9531 5.23224 35.7912 5.13414 35.6007C5.02054 35.3864 4.97923 35.1531 4.96891 34.915C4.98956 34.8722 4.91211 34.8722 4.91211 34.9198Z" fill="black" stroke="#7E684D" stroke-width="0.35" stroke-linejoin="round"/>
<path d="M8.68095 29.8492C8.98559 30.4635 9.34703 31.0492 9.76527 31.5969C9.98214 31.8826 10.2197 32.1588 10.4675 32.4254C10.6637 32.635 10.8702 32.835 11.0716 33.0445C11.2627 33.2397 11.4486 33.4445 11.6138 33.6635C11.7945 33.9064 11.9546 34.1635 12.094 34.4254C12.3677 34.9445 12.5948 35.4969 12.7033 36.0636C12.7652 36.3779 12.8479 36.9826 12.378 37.0731C12.1559 37.116 11.9081 37.0445 11.7016 36.9731C11.4124 36.8731 11.1387 36.7302 10.8806 36.5779C10.3023 36.235 9.77043 35.8159 9.34703 35.3112C8.89781 34.7826 8.57251 34.1731 8.34532 33.535C8.12846 32.9302 8.00453 32.3016 7.94257 31.6683C7.89094 31.1397 7.88577 30.6064 7.91675 30.073C7.92192 29.9683 7.93225 29.8587 7.93741 29.754C7.94257 29.7064 7.86512 29.7064 7.85996 29.754C7.81865 30.2635 7.80832 30.7778 7.8393 31.2921C7.87545 31.9207 7.96839 32.5492 8.14395 33.1588C8.32983 33.8064 8.61382 34.4397 9.00624 34.9921C9.40383 35.554 9.91501 36.0255 10.5036 36.4207C10.767 36.6017 11.0458 36.7636 11.3401 36.9017C11.5776 37.0112 11.8358 37.116 12.1043 37.1493C12.2902 37.1731 12.5019 37.1636 12.6413 37.035C12.7859 36.9064 12.822 36.7112 12.8272 36.535C12.8375 36.2778 12.7807 36.0159 12.7136 35.7683C12.6361 35.4778 12.5277 35.1921 12.409 34.9112C12.1714 34.3683 11.8771 33.8445 11.4795 33.3826C11.0923 32.9302 10.6431 32.5302 10.2506 32.0826C9.74462 31.5016 9.31089 30.873 8.94944 30.2111C8.87716 30.0825 8.81003 29.954 8.74807 29.8206C8.72742 29.773 8.66029 29.8064 8.68095 29.8492Z" fill="black" stroke="#7E684D" stroke-width="0.35" stroke-linejoin="round"/>
<path d="M34.6174 26.8293C34.2456 27.7674 33.9616 28.7341 33.7654 29.7151C33.6105 30.5008 33.5073 31.3008 33.4453 32.1008C33.3885 32.8723 33.3575 33.6627 33.4711 34.4294C33.5124 34.7056 33.5744 34.9913 33.7035 35.2437C33.7964 35.4199 33.941 35.6008 34.163 35.6437C34.5296 35.7199 34.8962 35.4532 35.1492 35.2437C35.49 34.9627 35.7843 34.6246 36.0373 34.2723C36.1096 34.1675 36.1819 34.0627 36.2439 33.9532C36.2697 33.9151 36.2026 33.877 36.1768 33.9151C35.9496 34.2961 35.6656 34.6532 35.3403 34.9675C35.1854 35.1199 35.0201 35.2627 34.8343 35.377C34.6845 35.4723 34.5141 35.5628 34.3282 35.577C34.0907 35.5961 33.9152 35.458 33.8016 35.277C33.6622 35.0485 33.6002 34.7818 33.5537 34.5294C33.4246 33.7913 33.4453 33.0294 33.4969 32.2865C33.5434 31.5389 33.6363 30.7865 33.7654 30.0484C33.941 29.0532 34.2146 28.0674 34.5709 27.1151C34.6071 27.0246 34.638 26.9341 34.6742 26.8484C34.7103 26.8055 34.6329 26.7865 34.6174 26.8293Z" fill="black" stroke="#7E684D" stroke-width="0.35" stroke-linejoin="round"/>
<path d="M39.5484 33.3485C39.5226 33.7771 39.4606 34.2342 39.2438 34.6199C39.1508 34.7866 39.0217 34.9342 38.841 35.0295C38.6655 35.1247 38.4538 35.1533 38.2524 35.139C37.7825 35.1057 37.3333 34.8771 36.9667 34.6199C36.6207 34.3771 36.3213 34.0723 36.1251 33.7152C35.8772 33.2628 35.7998 32.7533 35.7533 32.2532C35.681 31.5104 35.6552 30.7675 35.5932 30.0247C35.5054 28.9866 35.3712 27.9532 35.1801 26.9294C35.1595 26.8246 35.1388 26.7246 35.1233 26.6199C35.113 26.577 35.0407 26.5961 35.0511 26.6389C35.2576 27.6818 35.4073 28.7389 35.5003 29.7961C35.5726 30.5866 35.5984 31.377 35.6707 32.1628C35.7171 32.6771 35.7894 33.2104 36.0321 33.6818C36.2077 34.0295 36.4813 34.3295 36.8015 34.5771C37.1681 34.8628 37.6121 35.1057 38.0872 35.1818C38.2885 35.2152 38.5002 35.2199 38.6965 35.1628C38.8875 35.1057 39.0527 34.9961 39.1767 34.8533C39.4606 34.5247 39.5536 34.0866 39.6052 33.6818C39.6207 33.5675 39.631 33.458 39.6362 33.3437C39.631 33.3009 39.5536 33.3009 39.5484 33.3485Z" fill="black" stroke="#7E684D" stroke-width="0.35" stroke-linejoin="round"/>
<path d="M35.7006 26.3014C35.5611 26.3681 35.4217 26.4348 35.2772 26.5015C35.2565 26.511 35.2359 26.5205 35.2152 26.53C35.1687 26.5491 35.21 26.611 35.2565 26.5919C35.3959 26.5253 35.5353 26.4586 35.6799 26.3919C35.7006 26.3824 35.7212 26.3729 35.7419 26.3634C35.7832 26.3443 35.7419 26.2824 35.7006 26.3014Z" fill="black" stroke="#7E684D" stroke-width="0.35" stroke-linejoin="round"/>
<path d="M36.3109 26.0629C37.0131 26.5106 37.6844 26.9963 38.3143 27.5296C38.8152 27.9534 39.2902 28.401 39.7291 28.8725C40.1886 29.363 40.6327 29.8725 41.0406 30.4011C41.2626 30.682 41.4692 30.9725 41.6499 31.2773C41.81 31.5487 41.9442 31.8297 42.0165 32.1297C42.0785 32.382 42.0836 32.6535 41.9855 32.9011C41.8668 33.1916 41.6086 33.4297 41.3194 33.582C41.0096 33.7487 40.6275 33.8344 40.2713 33.744C39.9615 33.6678 39.7239 33.4535 39.538 33.2201C39.2799 32.9011 39.0888 32.5439 38.9029 32.1868C38.6293 31.663 38.3763 31.1344 38.1129 30.6058C37.7567 29.8963 37.3901 29.1868 36.9976 28.4915C36.6568 27.8772 36.2954 27.2677 35.9236 26.6677C35.8565 26.5629 35.7894 26.4534 35.7223 26.3486C35.7223 26.3629 35.7223 26.3725 35.7223 26.3867C35.7377 26.3725 35.7481 26.3534 35.7636 26.3344C35.7945 26.2963 35.7532 26.2727 35.7223 26.306C35.7068 26.3203 35.6706 26.3296 35.6551 26.3486C35.6448 26.3582 35.65 26.3725 35.6551 26.3867C36.0062 26.9391 36.3419 27.4963 36.6672 28.0629C37.0854 28.7915 37.483 29.5296 37.8599 30.2773C38.1491 30.8487 38.4279 31.4249 38.7171 31.9963C38.9184 32.3868 39.1198 32.7868 39.3831 33.144C39.5277 33.344 39.6981 33.5344 39.9201 33.6725C40.2145 33.8535 40.5759 33.8916 40.9167 33.8106C41.5415 33.6678 42.0991 33.1773 42.1353 32.563C42.1508 32.2868 42.0785 32.0058 41.9752 31.7487C41.8513 31.4392 41.6757 31.1487 41.4898 30.8725C41.0768 30.2677 40.5862 29.7106 40.0957 29.1582C39.6878 28.6963 39.2489 28.2534 38.7842 27.8344C38.1956 27.3058 37.5708 26.8153 36.9099 26.3629C36.7291 26.2391 36.5432 26.1153 36.3522 25.9963C36.3057 25.9772 36.2696 26.0391 36.3109 26.0629Z" fill="black" stroke="#7E684D" stroke-width="0.35" stroke-linejoin="round"/>
<path d="M13.8398 12.5151C13.9379 11.9913 14.0515 11.4579 14.2477 10.9579C14.32 10.7722 14.4078 10.5817 14.5369 10.4198C14.6195 10.3103 14.7383 10.2008 14.888 10.1817C15.0687 10.1531 15.234 10.2674 15.3579 10.377C15.5541 10.5531 15.7038 10.7722 15.8381 10.9865C16.215 11.596 16.4939 12.2627 16.7469 12.9246C17.005 13.5913 17.2374 14.2722 17.4543 14.9484C17.7176 15.777 17.9603 16.6103 18.1565 17.458C18.172 17.5246 18.1875 17.5913 18.203 17.658C18.2133 17.6961 18.2184 17.7342 18.2288 17.7723C18.2339 17.8056 18.2546 17.8437 18.2546 17.877C18.2546 17.9246 18.332 17.9246 18.332 17.877C18.332 17.8151 18.3062 17.7437 18.2907 17.6865C18.2752 17.6104 18.2546 17.5342 18.2391 17.4627C18.203 17.3151 18.172 17.1675 18.1358 17.0246C18.0687 16.7437 17.9913 16.4627 17.9138 16.1865C17.8105 15.8246 17.7021 15.4675 17.5885 15.1103C17.3716 14.4294 17.1444 13.7484 16.8914 13.077C16.6333 12.3913 16.3493 11.7008 15.9723 11.0579C15.8329 10.8246 15.678 10.5865 15.4818 10.3912C15.3527 10.2627 15.1823 10.1293 14.981 10.115C14.6557 10.0912 14.444 10.4055 14.32 10.6341C14.0825 11.0817 13.9586 11.5817 13.8553 12.0674C13.8243 12.2103 13.7934 12.3579 13.7675 12.5008C13.7572 12.5389 13.8347 12.5579 13.8398 12.5151Z" fill="black" stroke="#7E684D" stroke-width="0.35" stroke-linejoin="round"/>
<path d="M20.0716 39.1582C20.0561 37.9772 20.0303 36.801 19.9993 35.62C19.9683 34.4772 19.927 33.3391 19.8754 32.1962C19.8289 31.1009 19.7669 30.0057 19.6947 28.9105C19.6275 27.8676 19.5501 26.8247 19.452 25.7818C19.3642 24.8104 19.2661 23.8437 19.1473 22.8723C19.1318 22.758 19.1163 22.639 19.106 22.5247C19.1009 22.4818 19.0234 22.4771 19.0286 22.5247C19.1525 23.4866 19.2558 24.4533 19.3435 25.4199C19.4416 26.4485 19.5191 27.4819 19.5914 28.5104C19.6637 29.6009 19.7256 30.6867 19.7773 31.7771C19.8289 32.92 19.8754 34.0581 19.9064 35.201C19.9425 36.3724 19.9683 37.5439 19.9838 38.7105C19.9838 38.8582 19.989 39.0105 19.989 39.1582C19.9941 39.2058 20.0716 39.2058 20.0716 39.1582Z" fill="black" stroke="#7E684D" stroke-width="0.35" stroke-linejoin="round"/>
<path d="M19.1313 55.477C18.9816 54.3675 18.8267 53.2627 18.6666 52.1532C18.5168 51.1198 18.3619 50.0865 18.1967 49.0531C18.1089 48.496 18.0212 47.9388 17.9282 47.3817C17.9231 47.3341 17.8456 47.3579 17.8559 47.4007C18.0212 48.396 18.1761 49.396 18.331 50.3912C18.491 51.4579 18.6459 52.5246 18.7957 53.5913C18.8835 54.2199 18.9712 54.8437 19.0538 55.4723C19.059 55.5199 19.1365 55.5199 19.1313 55.477Z" fill="black" stroke="#7E684D" stroke-width="0.35" stroke-linejoin="round"/>
<path d="M8.30477 26.9578C8.82628 26.4674 9.53367 26.015 10.3185 26.1436C10.5922 26.1864 10.8452 26.2959 11.0775 26.434C11.3615 26.6102 11.6042 26.8293 11.8262 27.0674C12.1051 27.3674 12.3426 27.7007 12.5595 28.0388C12.828 28.4626 13.0655 28.9007 13.2772 29.3483C13.5405 29.8912 13.7729 30.4436 13.9846 31.0007C14.2376 31.6531 14.4648 32.315 14.6765 32.9817C14.9243 33.7531 15.1463 34.5293 15.358 35.3103C15.5956 36.1913 15.8176 37.077 16.0241 37.9627C16.2565 38.958 16.4734 39.9532 16.6747 40.9485C16.7264 41.2104 16.7832 41.4723 16.8348 41.7342C16.8451 41.777 16.9174 41.758 16.9071 41.7151C16.7005 40.677 16.4837 39.6389 16.2462 38.6056C16.0345 37.677 15.8124 36.7484 15.5698 35.8294C15.358 35.0198 15.1309 34.2103 14.883 33.4103C14.6661 32.715 14.439 32.0198 14.1808 31.3341C13.9639 30.7484 13.7316 30.1722 13.4682 29.6007C13.2514 29.1293 13.0138 28.6626 12.7402 28.215C12.5233 27.8531 12.2806 27.5007 12.0018 27.1721C11.7798 26.9102 11.5319 26.6674 11.2428 26.4674C11.0104 26.3055 10.7522 26.1769 10.4734 26.1055C9.90544 25.9674 9.32197 26.1293 8.84693 26.434C8.63007 26.5721 8.42869 26.734 8.24281 26.9102C8.21183 26.9388 8.26863 26.9912 8.30477 26.9578Z" fill="black" stroke="#7E684D" stroke-width="0.35" stroke-linejoin="round"/>
<path d="M33.2073 39.4866C32.8562 39.52 32.5051 39.5533 32.154 39.5914C32.1643 39.6009 32.1798 39.6152 32.1953 39.6295C32.1695 39.4152 32.1436 39.2009 32.1178 38.9866C32.1023 38.8533 32.0868 38.7152 32.0713 38.5819C32.061 38.4866 32.0404 38.3866 32.061 38.2914C32.1023 38.0723 32.2831 37.8914 32.5206 37.839C32.7581 37.7819 33.0163 37.8676 33.1608 38.0485C33.2435 38.1485 33.2744 38.2628 33.2848 38.3866C33.3003 38.5057 33.3106 38.6295 33.3261 38.7485C33.357 39.0009 33.3829 39.2485 33.4138 39.5009C33.419 39.5438 33.4965 39.5485 33.4913 39.5009C33.4655 39.2676 33.4397 39.039 33.4087 38.8057C33.3932 38.6723 33.3777 38.539 33.3622 38.4009C33.3467 38.2819 33.3261 38.1676 33.2589 38.058C33.1402 37.8771 32.9285 37.7533 32.6961 37.7438C32.4586 37.7342 32.2263 37.839 32.092 38.02C31.9887 38.1533 31.9578 38.3152 31.9732 38.4771C31.9887 38.5914 31.9991 38.7057 32.0146 38.82C32.0455 39.0914 32.0765 39.3581 32.1075 39.6295C32.1075 39.6485 32.123 39.6676 32.1488 39.6676C32.4999 39.6295 32.851 39.5962 33.2021 39.5628C33.2589 39.5533 33.2589 39.4819 33.2073 39.4866Z" fill="black" stroke="#7E684D" stroke-width="0.35" stroke-linejoin="round"/>
<path d="M33.0886 39.5199C33.0628 39.6437 33.068 39.7723 33.0783 39.8961C33.0989 40.0771 33.1351 40.2628 33.1816 40.439C33.3106 40.9152 33.512 41.3771 33.7599 41.8104C34.2504 42.658 34.9681 43.42 35.8769 43.9104C36.1557 44.0628 36.6617 44.2961 36.9251 43.9961C37.0593 43.839 37.0748 43.6152 37.0748 43.4247C37.0696 43.2199 37.0438 43.0104 36.9973 42.8104C36.8115 42.0199 36.2383 41.3342 35.5671 40.8342C35.376 40.6961 35.1746 40.5771 34.9681 40.4628C34.5137 40.2104 34.0852 39.9199 33.6721 39.6104C33.6101 39.5628 33.5482 39.5199 33.4914 39.4723C33.4655 39.4532 33.4242 39.4628 33.4242 39.4961C33.4346 39.4866 33.4501 39.4723 33.4655 39.458C33.3829 39.4675 33.3003 39.4723 33.2177 39.4818C33.1712 39.4866 33.1661 39.558 33.2177 39.5532C33.3003 39.5437 33.3829 39.539 33.4655 39.5294C33.4862 39.5294 33.5069 39.5152 33.5069 39.4913C33.4862 39.5009 33.4604 39.5104 33.4397 39.5152C33.8167 39.7961 34.2039 40.0723 34.6067 40.3247C34.8597 40.4818 35.1282 40.6152 35.376 40.7771C35.9647 41.1723 36.4758 41.7152 36.7598 42.3342C36.8683 42.5628 36.9405 42.8057 36.9715 43.0533C36.9973 43.239 37.018 43.4247 36.9973 43.6104C36.9767 43.7866 36.9096 44.0009 36.6979 44.0485C36.5223 44.0914 36.3261 44.0247 36.166 43.9581C35.8356 43.82 35.5361 43.6104 35.2521 43.3961C34.7719 43.0295 34.3691 42.5866 34.0439 42.0961C33.7547 41.6676 33.5275 41.2056 33.3623 40.7199C33.2487 40.3914 33.1506 40.0342 33.1557 39.6866C33.1557 39.6342 33.1609 39.5818 33.1712 39.5342C33.1712 39.4961 33.0938 39.4771 33.0886 39.5199Z" fill="black" stroke="#7E684D" stroke-width="0.35" stroke-linejoin="round"/>
<path d="M32.0046 42.7482C32.0046 42.8006 32.0305 42.8673 32.0459 42.9197C32.0666 42.9863 32.0821 43.0483 32.1079 43.1102C32.1492 43.2292 32.206 43.3435 32.2731 43.4483C32.3971 43.6387 32.5675 43.8006 32.7946 43.8864C33.2697 44.0625 33.8532 43.8911 34.2094 43.5816C34.4469 43.3768 34.5657 43.1054 34.576 42.8054C34.576 42.7578 34.4986 42.7578 34.4986 42.8054C34.4883 43.0625 34.4005 43.2959 34.2043 43.4816C34.0339 43.6435 33.817 43.7625 33.5847 43.8244C33.3626 43.8864 33.1199 43.9054 32.8979 43.8435C32.6759 43.7816 32.5003 43.6435 32.3712 43.4673C32.2938 43.3625 32.237 43.2435 32.1905 43.1244C32.1647 43.0625 32.1441 43.0006 32.1234 42.934C32.1079 42.8768 32.0718 42.8054 32.0718 42.7435C32.0821 42.7006 32.0046 42.7006 32.0046 42.7482Z" fill="black" stroke="#7E684D" stroke-width="0.35" stroke-linejoin="round"/>
<path d="M32.6552 39.5716C32.712 40.2621 32.681 40.9669 32.4951 41.6383C32.3867 42.024 32.2266 42.424 31.9943 42.7526C31.7464 43.105 31.447 43.4098 31.0803 43.6621C30.9203 43.7717 30.7499 43.8764 30.5743 43.9622C30.4246 44.0383 30.2645 44.105 30.0941 44.1336C29.9805 44.1526 29.8411 44.1574 29.7585 44.0717C29.6759 43.9812 29.6707 43.8479 29.6759 43.7383C29.6914 43.3907 29.8308 43.0383 29.9754 42.724C30.1251 42.3955 30.3162 42.0812 30.5692 41.805C30.817 41.5288 31.0958 41.2764 31.3334 40.9907C31.6277 40.6431 31.8807 40.2716 32.0975 39.8764C32.1389 39.7954 32.1853 39.7145 32.2215 39.6335C32.2421 39.5907 32.175 39.5573 32.1543 39.5954C31.9581 39.9907 31.7206 40.3716 31.4469 40.724C31.1888 41.0574 30.8893 41.3478 30.6001 41.6526C30.3368 41.9288 30.1303 42.2288 29.965 42.5621C29.7998 42.8907 29.6604 43.2479 29.6088 43.6098C29.5778 43.8241 29.5829 44.1479 29.8773 44.205C30.0167 44.2288 30.1664 44.1955 30.3007 44.1526C30.4814 44.0907 30.6518 44.005 30.817 43.9145C31.1888 43.7002 31.5296 43.4383 31.8032 43.1193C32.0924 42.786 32.3041 42.4145 32.4538 42.0098C32.7223 41.2955 32.7894 40.524 32.7481 39.7764C32.743 39.705 32.7378 39.6383 32.7326 39.5669C32.7275 39.5288 32.65 39.524 32.6552 39.5716Z" fill="black" stroke="#7E684D" stroke-width="0.35" stroke-linejoin="round"/>
<path d="M25.7207 55.6917C25.8808 54.5155 26.046 53.3393 26.2267 52.1631C26.3868 51.1155 26.5572 50.0726 26.7431 49.0298C26.9083 48.106 27.0838 47.1869 27.2749 46.2678C27.4401 45.4678 27.6208 44.6678 27.8222 43.8773C27.9926 43.2012 28.1785 42.525 28.385 41.8535C28.5554 41.2964 28.7465 40.744 28.9633 40.2011C29.1389 39.763 29.3299 39.3297 29.5571 38.9154C29.7327 38.5963 29.9237 38.2868 30.1613 38.0059C30.3368 37.8011 30.5382 37.6059 30.7809 37.4725C31.07 37.3154 31.3902 37.2678 31.7155 37.3725C31.9943 37.463 32.2318 37.644 32.4383 37.8344C32.4745 37.8678 32.5261 37.8154 32.4951 37.7821C32.175 37.4868 31.7619 37.2106 31.2817 37.244C31.1681 37.2535 31.0597 37.2773 30.9513 37.3154C30.7034 37.4059 30.4917 37.563 30.311 37.7392C30.0632 37.9773 29.8669 38.2535 29.6914 38.5392C29.459 38.9154 29.2628 39.3106 29.0873 39.7106C28.8652 40.2202 28.669 40.744 28.4935 41.2726C28.2818 41.9107 28.0907 42.5583 27.9203 43.2107C27.7138 43.9821 27.5279 44.7583 27.3575 45.5393C27.1613 46.4345 26.9806 47.3393 26.8153 48.2393C26.6243 49.2679 26.4487 50.3012 26.2835 51.3346C26.1028 52.4774 25.9324 53.6251 25.7723 54.7727C25.731 55.0775 25.6897 55.3822 25.6484 55.687C25.6381 55.7346 25.7155 55.7346 25.7207 55.6917Z" fill="black" stroke="#7E684D" stroke-width="0.35" stroke-linejoin="round"/>
<path d="M22.2055 31.9612C22.1481 32.7279 22.096 33.4898 22.049 34.2564C22.002 35.0979 21.9551 35.9346 21.9186 36.776C21.8977 37.2855 21.8768 37.7904 21.856 38.2999C21.856 38.3466 21.9342 38.3466 21.9342 38.2999C21.9655 37.4164 22.002 36.5329 22.049 35.6541C22.0907 34.8454 22.1377 34.0367 22.1899 33.2327C22.216 32.8073 22.2473 32.3866 22.2786 31.9612C22.289 31.9192 22.2108 31.9192 22.2055 31.9612Z" fill="black" stroke="#7E684D" stroke-width="0.35" stroke-linejoin="round"/>
<path d="M22.4776 29.7625C22.6016 28.4911 22.7461 27.2196 22.9578 25.9577C23.1076 25.0577 23.2883 24.1529 23.5568 23.272C23.7272 22.7243 23.9234 22.1481 24.2745 21.672C24.4811 21.3958 24.796 21.1196 25.1884 21.1958C25.5344 21.2624 25.8132 21.5291 26.0301 21.772C26.407 22.191 26.691 22.6767 26.9543 23.1624C27.037 23.3196 27.1196 23.4767 27.197 23.6339C27.2177 23.6767 27.2848 23.6386 27.2642 23.5958C26.9853 23.0339 26.6807 22.472 26.2934 21.9672C26.0611 21.6672 25.7874 21.3481 25.4208 21.1862C25.2143 21.0958 24.9871 21.0719 24.7754 21.1529C24.605 21.2196 24.4604 21.3339 24.3416 21.4624C24.1816 21.6386 24.0525 21.8434 23.9441 22.0529C23.7995 22.3291 23.6859 22.6196 23.5826 22.9148C23.2935 23.7577 23.1076 24.6339 22.9527 25.5053C22.7306 26.7387 22.5757 27.9768 22.4467 29.2196C22.426 29.3958 22.4105 29.572 22.395 29.7482C22.4002 29.8101 22.4776 29.8101 22.4776 29.7625Z" fill="black" stroke="#7E684D" stroke-width="0.35" stroke-linejoin="round"/>
<path d="M20.6357 37.0903C20.6873 34.9998 20.7545 32.9093 20.8577 30.8235C20.9455 28.9521 21.0643 27.0806 21.2088 25.2092C21.3379 23.5711 21.4928 21.9377 21.689 20.3044C21.8594 18.8853 22.0556 17.4663 22.3035 16.052C22.51 14.8662 22.7476 13.6853 23.0419 12.5138C23.2846 11.5472 23.5634 10.5852 23.9145 9.64714C24.1933 8.89951 24.5135 8.16141 24.9162 7.46616C25.226 6.93282 25.5875 6.41377 26.047 5.97567C26.4033 5.63281 26.8215 5.34233 27.3069 5.17566C28.5513 4.75661 29.8266 5.34233 30.7974 6.0471C31.2156 6.35187 31.608 6.69473 31.9746 7.05187C32.0108 7.08521 32.0624 7.03283 32.0314 6.99949C30.9523 5.95662 29.3929 4.70423 27.6941 4.99947C27.2088 5.08519 26.7647 5.30424 26.3826 5.58519C25.9076 5.93758 25.5307 6.38996 25.2054 6.8614C24.7768 7.48045 24.4463 8.15188 24.152 8.83284C23.7802 9.70904 23.4859 10.6091 23.2278 11.5186C22.9128 12.6376 22.6546 13.771 22.4377 14.9139C22.1796 16.2567 21.9679 17.6091 21.7872 18.9615C21.5754 20.5568 21.4051 22.1568 21.2605 23.7568C21.0952 25.5901 20.9713 27.4235 20.8681 29.2616C20.7545 31.3283 20.6718 33.3997 20.6099 35.4712C20.5944 36.0093 20.5789 36.5474 20.5686 37.0855C20.5582 37.1331 20.6357 37.1331 20.6357 37.0903Z" fill="black" stroke="#7E684D" stroke-width="0.35" stroke-linejoin="round"/>
<path d="M27.3167 31.2009C27.0017 32.1771 26.6868 33.1533 26.3666 34.1295C26.0517 35.101 25.7367 36.0724 25.4217 37.0438C25.1067 38.02 24.7918 38.9962 24.4716 39.9724C24.1567 40.9486 23.8417 41.9248 23.5216 42.901C23.2066 43.8772 22.8916 44.8534 22.5715 45.8296C22.5302 45.9487 22.494 46.0677 22.4527 46.1868C22.4372 46.2296 22.5147 46.2487 22.525 46.2058C22.84 45.2296 23.155 44.2534 23.4751 43.2772C23.7901 42.3058 24.105 41.3343 24.42 40.3629C24.735 39.3867 25.0499 38.4105 25.3701 37.4343C25.685 36.4581 26 35.4819 26.3201 34.5057C26.6351 33.5295 26.9501 32.5533 27.2702 31.5771C27.3115 31.4581 27.3477 31.339 27.389 31.22C27.4045 31.1771 27.3322 31.1581 27.3167 31.2009Z" fill="black" stroke="#7E684D" stroke-width="0.35" stroke-linejoin="round"/>
<path d="M29.0661 26.4438C29.4586 25.6723 29.9336 24.8866 30.6255 24.3057C30.8734 24.0961 31.1573 23.9152 31.4723 23.8056C31.8079 23.6866 32.1745 23.6533 32.5308 23.7056C33.104 23.7961 33.6203 24.0818 34.0695 24.4104C34.1057 24.439 34.1625 24.3866 34.1263 24.358C33.7132 24.0533 33.2537 23.7866 32.7374 23.6676C32.3604 23.5818 31.968 23.5818 31.5962 23.6866C30.8733 23.8866 30.3157 24.4199 29.8871 24.9723C29.536 25.42 29.252 25.9057 28.999 26.4057C28.9784 26.4485 29.0455 26.4866 29.0661 26.4438Z" fill="black" stroke="#7E684D" stroke-width="0.35" stroke-linejoin="round"/>
<path d="M19.085 55.4388C19.1005 55.4341 19.1211 55.4484 19.1211 55.4484C19.1211 55.4484 19.1211 55.4484 19.116 55.4436C19.1108 55.4293 19.1057 55.4103 19.1005 55.396C19.085 55.3388 19.0695 55.2817 19.054 55.2293C19.0024 55.0245 18.9456 54.8246 18.8888 54.6198C18.6771 53.9007 18.4086 53.196 18.0936 52.5055C17.6186 51.4674 17.0351 50.4721 16.369 49.5293C15.6565 48.5245 14.8458 47.5816 13.9525 46.7054C13.178 45.9387 12.3415 45.2292 11.4689 44.5578C10.7254 43.9911 9.95085 43.4578 9.16084 42.9435C8.54123 42.5387 7.91128 42.153 7.29683 41.753C6.90957 41.5006 6.49134 41.2435 6.18669 40.9101C6.10924 40.8244 6.02662 40.7149 6.01113 40.6006C5.98532 40.3863 6.24349 40.2673 6.43454 40.2149C6.93023 40.0768 7.49305 40.1054 7.99906 40.1625C8.52057 40.2196 9.03692 40.3244 9.53261 40.4863C10.2142 40.7054 10.8596 41.0197 11.4482 41.4006C12.0575 41.7958 12.6152 42.2578 13.1212 42.7625C13.653 43.2911 14.1332 43.8625 14.5721 44.4578C15.0162 45.0625 15.4241 45.6959 15.7907 46.3435C16.1573 46.9911 16.4981 47.653 16.8028 48.3245C17.0971 48.9673 17.3656 49.615 17.6134 50.2721C17.8354 50.8674 18.042 51.4626 18.233 52.0674C18.3931 52.5721 18.5377 53.0817 18.6719 53.596C18.77 53.9769 18.863 54.3579 18.9404 54.7436C18.9817 54.9579 19.0282 55.1674 19.0489 55.3817C19.0489 55.4055 19.054 55.4246 19.054 55.4484C19.054 55.4769 19.0489 55.4531 19.0643 55.4484C19.0179 55.4674 19.0592 55.5293 19.1057 55.5103C19.1418 55.496 19.1315 55.4246 19.1315 55.396C19.1263 55.3103 19.1108 55.2293 19.1005 55.1484C19.0489 54.8436 18.9817 54.5388 18.9146 54.2388C18.8062 53.7817 18.6874 53.3245 18.5583 52.8674C18.3931 52.296 18.2124 51.7245 18.0213 51.1578C17.7993 50.515 17.5566 49.8769 17.2933 49.2435C17.0093 48.5626 16.6995 47.8911 16.3639 47.2292C16.0179 46.5578 15.641 45.8959 15.2279 45.2578C14.8148 44.6244 14.3656 44.0149 13.8699 43.4387C13.3897 42.8816 12.8579 42.3578 12.2744 41.8959C11.7167 41.453 11.1023 41.0577 10.4414 40.753C9.62039 40.3768 8.72711 40.1435 7.81318 40.0673C7.52919 40.0435 7.23487 40.0339 6.95088 40.0577C6.73402 40.072 6.51199 40.1006 6.31061 40.1768C6.12473 40.2435 5.91819 40.3768 5.93368 40.5863C5.93885 40.7101 6.0163 40.8244 6.09891 40.9197C6.22284 41.0625 6.37258 41.1863 6.52232 41.3006C6.99735 41.6673 7.51886 41.9816 8.03004 42.3054C8.75293 42.7625 9.47581 43.2244 10.1729 43.7102C11.0352 44.3102 11.8717 44.9435 12.6617 45.6197C13.5601 46.3911 14.3966 47.2197 15.1608 48.1054C16.0127 49.1007 16.7666 50.1674 17.3914 51.2912C17.8561 52.1245 18.2537 52.9864 18.5687 53.8769C18.739 54.3531 18.8733 54.8341 19.0024 55.3246C19.0127 55.3626 19.0334 55.5246 19.1057 55.5055C19.1521 55.496 19.1315 55.4293 19.085 55.4388Z" fill="black" stroke="#7E684D" stroke-width="0.35" stroke-linejoin="round"/>
<path d="M16.2146 50.1246C15.6673 49.5865 15.058 49.1056 14.4126 48.6675C13.8498 48.2913 13.256 47.9484 12.6312 47.6532C12.182 47.4389 11.7121 47.2437 11.2267 47.1151C11.077 47.077 10.9273 47.0436 10.7724 47.0341C10.6949 47.0294 10.5865 47.0294 10.5245 47.0865C10.4677 47.1389 10.4884 47.2151 10.5194 47.2722C10.571 47.377 10.6588 47.4627 10.7362 47.5484C11.0718 47.9056 11.4539 48.2294 11.8205 48.5579C12.4557 49.1199 13.0856 49.6865 13.7104 50.258C14.3661 50.858 15.0116 51.4627 15.6467 52.0723C16.2198 52.6247 16.793 53.1818 17.3558 53.7437C17.8515 54.239 18.3368 54.7342 18.8222 55.2342C18.9306 55.3437 19.0339 55.4533 19.1423 55.5675C19.1681 55.5961 19.2146 55.5675 19.2094 55.5342C19.0649 54.9056 18.8687 54.2913 18.6208 53.6913C18.2904 52.8961 17.8669 52.1342 17.3506 51.4294C17.0098 50.9723 16.6277 50.5342 16.2146 50.1246C16.1785 50.0913 16.1269 50.1437 16.1578 50.177C16.8652 50.8723 17.4642 51.6532 17.9444 52.4913C18.3317 53.1675 18.6415 53.877 18.8738 54.6104C18.9719 54.9199 19.0597 55.239 19.132 55.5533C19.1526 55.5437 19.1733 55.5294 19.1991 55.5199C18.7447 55.0485 18.2852 54.5771 17.8256 54.1104C17.2938 53.577 16.762 53.0437 16.2198 52.5199C15.6157 51.9342 15.0012 51.3532 14.3816 50.777C13.731 50.1722 13.0701 49.5722 12.404 48.9818C11.9548 48.5818 11.5004 48.1865 11.0615 47.7722C10.9376 47.6532 10.8137 47.5389 10.7052 47.4103C10.6484 47.3436 10.5813 47.2675 10.5658 47.1865C10.5607 47.1722 10.5658 47.1484 10.571 47.1436C10.5916 47.1246 10.6071 47.1198 10.6433 47.1103C10.7517 47.0913 10.8756 47.1151 10.9841 47.1341C11.4178 47.2198 11.836 47.3817 12.2388 47.5579C12.8274 47.8151 13.3954 48.1151 13.9324 48.4484C14.5727 48.8437 15.182 49.2913 15.7396 49.7865C15.879 49.9103 16.0184 50.0389 16.1527 50.1722C16.194 50.2103 16.2508 50.158 16.2146 50.1246Z" fill="black"/>
<path d="M16.2146 50.1246C15.6673 49.5865 15.058 49.1056 14.4126 48.6675C13.8498 48.2913 13.256 47.9484 12.6312 47.6532C12.182 47.4389 11.7121 47.2437 11.2267 47.1151C11.077 47.077 10.9273 47.0436 10.7724 47.0341C10.6949 47.0294 10.5865 47.0294 10.5245 47.0865C10.4677 47.1389 10.4884 47.2151 10.5194 47.2722C10.571 47.377 10.6588 47.4627 10.7362 47.5484C11.0718 47.9056 11.4539 48.2294 11.8205 48.5579C12.4557 49.1199 13.0856 49.6865 13.7104 50.258C14.3661 50.858 15.0116 51.4627 15.6467 52.0723C16.2198 52.6247 16.793 53.1818 17.3558 53.7437C17.8515 54.239 18.3368 54.7342 18.8222 55.2342C18.9306 55.3437 19.0339 55.4533 19.1423 55.5675C19.1681 55.5961 19.2146 55.5675 19.2094 55.5342C19.0649 54.9056 18.8687 54.2913 18.6208 53.6913C18.2904 52.8961 17.8669 52.1342 17.3506 51.4294C17.0098 50.9723 16.6277 50.5342 16.2146 50.1246ZM16.2146 50.1246C16.1785 50.0913 16.1269 50.1437 16.1578 50.177C16.8652 50.8723 17.4642 51.6532 17.9444 52.4913C18.3317 53.1675 18.6415 53.877 18.8738 54.6104C18.9719 54.9199 19.0597 55.239 19.132 55.5533C19.1526 55.5437 19.1733 55.5294 19.1991 55.5199C18.7447 55.0485 18.2852 54.5771 17.8256 54.1104C17.2938 53.577 16.762 53.0437 16.2198 52.5199C15.6157 51.9342 15.0012 51.3532 14.3816 50.777C13.731 50.1722 13.0701 49.5722 12.404 48.9818C11.9548 48.5818 11.5004 48.1865 11.0615 47.7722C10.9376 47.6532 10.8137 47.5389 10.7052 47.4103C10.6484 47.3436 10.5813 47.2675 10.5658 47.1865C10.5607 47.1722 10.5658 47.1484 10.571 47.1436C10.5916 47.1246 10.6071 47.1198 10.6433 47.1103C10.7517 47.0913 10.8756 47.1151 10.9841 47.1341C11.4178 47.2198 11.836 47.3817 12.2388 47.5579C12.8274 47.8151 13.3954 48.1151 13.9324 48.4484C14.5727 48.8437 15.182 49.2913 15.7396 49.7865C15.879 49.9103 16.0184 50.0389 16.1527 50.1722C16.194 50.2103 16.2508 50.158 16.2146 50.1246Z" stroke="#7E684D" stroke-width="0.35" stroke-linejoin="round"/>
<path d="M25.7977 55.6912C25.901 54.6531 26.1901 53.6245 26.691 52.6864C27.2073 51.7197 27.9509 50.8673 28.8493 50.1768C29.6083 49.5911 30.4603 49.1149 31.3587 48.734C32.1436 48.4054 32.9646 48.1482 33.8062 47.972C34.4052 47.8435 35.0196 47.7482 35.6341 47.7435C35.8045 47.7435 35.98 47.7435 36.1401 47.7816C36.1504 47.7863 36.1659 47.7863 36.1762 47.7911C36.1866 47.7959 36.2072 47.8006 36.2072 47.8006C36.2227 47.8101 36.2485 47.8244 36.2485 47.8244C36.264 47.8387 36.2589 47.8339 36.264 47.8435C36.264 47.8387 36.264 47.8482 36.264 47.8482C36.2589 47.8625 36.264 47.853 36.2589 47.8673C36.2382 47.9054 36.1814 47.9435 36.1349 47.972C36.0523 48.0292 35.9594 48.0768 35.8716 48.1244C35.5721 48.2816 35.2675 48.4292 34.968 48.5863C33.8837 49.1435 32.8407 49.7578 31.8338 50.4245C30.6875 51.1864 29.5928 52.0197 28.5602 52.9102C27.7288 53.6292 26.9337 54.3912 26.185 55.1816C26.0352 55.3435 25.8855 55.5055 25.7357 55.6674C25.7048 55.7007 25.7564 55.7531 25.7925 55.7197C26.4896 54.9531 27.228 54.215 27.9973 53.5102C28.9887 52.6102 30.0421 51.7626 31.1522 50.9816C32.2417 50.2149 33.3828 49.5102 34.5652 48.8768C34.9267 48.6863 35.2933 48.5006 35.6547 48.3197C35.8561 48.2197 36.0678 48.1244 36.2434 47.9911C36.3157 47.9387 36.3983 47.8482 36.3053 47.772C36.2124 47.7006 36.0575 47.6911 35.9439 47.6816C35.7219 47.6625 35.4947 47.672 35.2675 47.6863C34.9525 47.7101 34.6375 47.7482 34.3226 47.8006C33.5067 47.9387 32.7064 48.153 31.937 48.4292C31.0283 48.7578 30.1505 49.1816 29.3605 49.7149C28.4982 50.2911 27.734 50.9959 27.1402 51.8197C26.4276 52.8102 25.9836 53.9483 25.7925 55.115C25.7616 55.3055 25.7357 55.5007 25.7151 55.6912C25.7151 55.734 25.7925 55.734 25.7977 55.6912Z" fill="black" stroke="#7E684D" stroke-width="0.35" stroke-linejoin="round"/>
<path d="M21.6827 52.8721C21.6724 52.6578 21.662 52.4482 21.6465 52.234C21.6465 52.1863 21.5691 52.1863 21.5691 52.234C21.5794 52.4482 21.5949 52.6578 21.6052 52.8721C21.6052 52.9197 21.6827 52.9197 21.6827 52.8721Z" fill="black" stroke="#7E684D" stroke-width="0.35" stroke-linejoin="round"/>
<path d="M19.494 45.5534C19.4475 44.5582 19.463 43.5582 19.5405 42.5677C19.5921 41.9343 19.6696 41.3058 19.778 40.682C19.8503 40.2581 19.9277 39.8391 20.0155 39.42C20.1343 38.8629 20.2634 38.301 20.4389 37.7581C20.5112 37.5295 20.5938 37.301 20.6971 37.0867C20.7642 36.9486 20.8468 36.7867 20.9759 36.6914C21.074 36.62 21.167 36.6391 21.2547 36.72C21.3942 36.8533 21.4716 37.0438 21.5387 37.2153C21.7556 37.7724 21.8692 38.3629 21.9725 38.9438C22.0706 39.4772 22.1429 40.0105 22.2151 40.5439C22.3132 41.2962 22.3804 42.0486 22.4217 42.801C22.4733 43.7725 22.4785 44.7487 22.4372 45.7201C22.4268 45.982 22.4113 46.2487 22.3959 46.5106C22.3907 46.5582 22.4681 46.5582 22.4733 46.5106C22.5404 45.4772 22.5559 44.4439 22.5249 43.4105C22.4991 42.5486 22.432 41.6915 22.3287 40.8343C22.2668 40.3248 22.1996 39.8153 22.1119 39.3057C22.0086 38.6915 21.9002 38.0724 21.7091 37.4772C21.642 37.2581 21.5594 37.0343 21.4355 36.8343C21.3683 36.7248 21.2599 36.5819 21.105 36.5771C20.9656 36.5771 20.8623 36.6867 20.79 36.7819C20.6661 36.9438 20.5835 37.1343 20.5112 37.32C20.2995 37.8438 20.1652 38.3915 20.0362 38.9391C19.9226 39.4343 19.8245 39.9343 19.7367 40.4343C19.6489 40.92 19.5766 41.4105 19.525 41.9058C19.4165 42.8582 19.3752 43.8153 19.3856 44.7725C19.3907 45.0391 19.3959 45.3058 19.4114 45.5725C19.4165 45.5963 19.494 45.5963 19.494 45.5534Z" fill="black" stroke="#7E684D" stroke-width="0.35" stroke-linejoin="round"/>
<path d="M21.8479 55.9064C21.6156 53.9397 21.5691 51.954 21.7911 49.9873C21.9564 48.5015 22.2713 47.0301 22.7619 45.6063C23.1336 44.5301 23.6087 43.4872 24.1767 42.4824C24.5846 41.7634 25.0286 41.0586 25.4933 40.3681C25.8806 39.7967 26.2782 39.2205 26.7532 38.7062C26.8616 38.5872 26.9959 38.4205 27.156 38.3586C27.1921 38.3443 27.2179 38.3395 27.2386 38.3776C27.2799 38.4538 27.2489 38.5776 27.2334 38.6538C27.1663 39.0157 27.0424 39.3681 26.9288 39.7205C26.841 39.9919 26.748 40.2586 26.6551 40.53C26.619 40.6443 26.5777 40.7539 26.5415 40.8681C26.4073 41.2777 26.273 41.692 26.1388 42.1015C25.8599 42.9682 25.5759 43.8348 25.2971 44.7015C24.8169 46.1872 24.3419 47.673 23.8617 49.1587C23.2989 50.9063 22.7309 52.6492 22.2042 54.4064C22.0545 54.9016 21.9099 55.4016 21.7653 55.8969C21.755 55.9397 21.8273 55.9588 21.8376 55.9159C22.3643 54.0968 22.9323 52.2873 23.5157 50.4825C24.0476 48.8206 24.5794 47.1634 25.1164 45.5015C25.4365 44.511 25.7567 43.5158 26.0768 42.5253C26.2369 42.0301 26.3969 41.5301 26.5622 41.0348C26.6138 40.8777 26.6654 40.7158 26.7171 40.5586C26.8565 40.1443 27.0011 39.73 27.1301 39.311C27.1818 39.1443 27.2334 38.9729 27.2747 38.8015C27.3005 38.6872 27.3264 38.5681 27.3264 38.4538C27.3212 38.3348 27.2592 38.2348 27.1198 38.2919C26.9598 38.3586 26.8255 38.511 26.7119 38.63C26.5105 38.8443 26.3246 39.0776 26.1439 39.311C25.6482 39.9586 25.1939 40.6396 24.7653 41.3253C24.0889 42.4063 23.4796 43.5205 23.0097 44.6967C22.483 46.0015 22.1113 47.3634 21.8789 48.7396C21.5639 50.5825 21.4968 52.454 21.6156 54.3111C21.6517 54.8445 21.6982 55.3778 21.7602 55.9064C21.7756 55.9492 21.8531 55.9492 21.8479 55.9064Z" fill="black" stroke="#7E684D" stroke-width="0.35" stroke-linejoin="round"/>
<path d="M21.8843 56.0249C21.874 54.9772 21.8121 53.9296 21.683 52.8915C21.5745 51.9867 21.4145 51.0915 21.2028 50.2058C21.0169 49.4248 20.7897 48.6534 20.516 47.8962C20.2785 47.2438 20.01 46.5962 19.7054 45.9676C19.4472 45.4343 19.1632 44.9105 18.8534 44.3962C18.5746 43.9343 18.2751 43.4866 17.955 43.0485C17.4541 42.3628 16.9223 41.7009 16.3646 41.0581C15.8896 40.5104 15.4042 39.9628 14.8569 39.4771C14.7743 39.4057 14.1598 38.8628 14.1392 39.239C14.134 39.339 14.1702 39.439 14.196 39.5342C14.2476 39.6961 14.3147 39.8485 14.3819 40.0057C14.5781 40.4485 14.7949 40.8771 15.0015 41.3152C15.0118 41.3342 15.0221 41.3533 15.0273 41.3723C15.0634 41.4438 15.0944 41.5152 15.1306 41.5819C15.1977 41.7247 15.2648 41.8628 15.3319 42.0057C15.4404 42.239 15.554 42.4724 15.6624 42.7057C15.8225 43.0485 15.9825 43.3914 16.1426 43.7295C16.3646 44.2057 16.5866 44.6771 16.8087 45.1533C17.0978 45.7771 17.3921 46.3962 17.6813 47.02C18.0531 47.8105 18.4197 48.6057 18.7914 49.3962C19.2355 50.3486 19.6796 51.301 20.1236 52.2534C20.4799 53.0201 20.831 53.7915 21.1718 54.5629C21.3887 55.0534 21.6055 55.5487 21.8172 56.0439C21.8379 56.0868 21.9102 56.0677 21.8895 56.0249C21.4919 55.101 21.084 54.1772 20.6658 53.2582C20.2992 52.4534 19.9274 51.6534 19.5505 50.8534C19.1374 49.9724 18.7295 49.0867 18.3164 48.2057C17.9859 47.501 17.6555 46.7962 17.3302 46.0914C17.072 45.5438 16.819 44.9962 16.5608 44.4486C16.3698 44.039 16.1787 43.6295 15.9825 43.22C15.8483 42.9295 15.7089 42.639 15.5746 42.3485C15.4868 42.1581 15.3939 41.9676 15.3061 41.7819C15.2545 41.6723 15.2028 41.5628 15.1512 41.4533C15.1306 41.4057 15.1047 41.3581 15.0841 41.3104C14.9189 40.9723 14.7536 40.6342 14.5987 40.2961C14.4593 39.9961 14.2941 39.6818 14.2269 39.358C14.2166 39.3152 14.196 39.2199 14.2476 39.1914C14.2734 39.1771 14.3405 39.2057 14.3715 39.2199C14.5626 39.3104 14.7226 39.4676 14.8775 39.6009C15.1202 39.8199 15.3526 40.058 15.5746 40.2961C16.1529 40.9104 16.6951 41.5533 17.2166 42.2104C17.6348 42.739 18.0376 43.2771 18.4093 43.839C18.7088 44.2914 18.9877 44.7581 19.2458 45.2343C19.5556 45.8057 19.8345 46.3914 20.0823 46.9867C20.3715 47.6772 20.6193 48.3819 20.831 49.0915C21.0737 49.9105 21.2699 50.7439 21.4196 51.582C21.59 52.5439 21.7036 53.5153 21.7656 54.4915C21.7966 55.0058 21.8172 55.5201 21.8224 56.0391C21.8121 56.0677 21.8895 56.0677 21.8843 56.0249Z" fill="black" stroke="#7E684D" stroke-width="0.35" stroke-linejoin="round"/>
<path d="M22.0755 17.7864C21.807 16.9912 21.6004 16.1864 21.4455 15.3673C21.208 14.0959 21.1151 12.7959 21.1874 11.5054C21.2751 9.94348 21.6211 8.39109 22.2562 6.93869C22.912 5.42915 23.8879 4.04343 25.0548 2.83389C25.4885 2.3815 25.9584 1.94341 26.4696 1.56721C26.6451 1.43864 26.831 1.31483 27.0272 1.21006C27.146 1.14816 27.2802 1.08149 27.4197 1.07673C27.5694 1.07673 27.5797 1.18625 27.5642 1.3053C27.5384 1.51483 27.4403 1.71959 27.3577 1.91483C27.0221 2.67675 26.6142 3.41485 26.2424 4.16247C25.6692 5.3101 25.1271 6.47202 24.6417 7.65775C24.0118 9.1911 23.4748 10.753 23.0462 12.3387C22.6331 13.8673 22.3182 15.415 22.1013 16.9721C22.0652 17.2436 22.029 17.5197 21.998 17.7959C21.9929 17.8436 22.0703 17.8436 22.0755 17.7959C22.2459 16.3531 22.4989 14.9197 22.8345 13.5007C23.2373 11.8102 23.7588 10.1387 24.3887 8.51014C24.8844 7.22441 25.4524 5.95773 26.0617 4.71486C26.4696 3.88152 26.9136 3.06246 27.3112 2.2196C27.4248 1.9815 27.5384 1.73388 27.6159 1.4815C27.652 1.36245 27.6985 1.19102 27.6159 1.08149C27.4816 0.900537 27.1563 1.06721 27.0066 1.13864C26.547 1.37197 26.1391 1.71483 25.7622 2.04817C24.5798 3.10056 23.5677 4.35295 22.7984 5.69582C21.9722 7.14822 21.4507 8.73395 21.2235 10.3625C21.0325 11.7387 21.048 13.134 21.2338 14.5102C21.3629 15.4816 21.5746 16.4388 21.8638 17.3769C21.9102 17.5197 21.9516 17.6626 22.0032 17.8055C22.0187 17.8483 22.091 17.8293 22.0755 17.7864Z" fill="black" stroke="#7E684D" stroke-width="0.35" stroke-linejoin="round"/>
<path d="M17.5627 42.5436C17.5007 40.8626 17.3097 39.1864 16.9895 37.534C16.6023 35.534 16.0137 33.5721 15.2598 31.6673C14.6298 30.0768 13.8966 28.5244 13.0911 27.0006C12.549 25.972 11.9552 24.9625 11.4285 23.9244C11.3046 23.6767 11.1497 23.4053 11.098 23.1339C11.0877 23.0862 11.0826 23.0101 11.1187 22.9815C11.222 22.9005 11.4801 23.1053 11.5576 23.1577C12.1204 23.5624 12.6006 24.0815 13.0602 24.5767C13.5868 25.1434 14.0774 25.7339 14.5214 26.3529C15.5025 27.7244 16.277 29.2149 16.8811 30.7625C17.4801 32.2816 17.919 33.8483 18.2391 35.4387C18.5437 36.9435 18.7503 38.4674 18.869 39.9959C18.9723 41.315 19.0188 42.6388 19.0085 43.9626C19.0085 44.2388 19.0033 44.5198 18.9981 44.796C18.9981 44.8436 19.0756 44.8436 19.0756 44.796C19.1014 43.515 19.0859 42.2341 19.0136 40.9531C18.9258 39.4531 18.7658 37.9531 18.5128 36.4673C18.2339 34.853 17.8467 33.253 17.3097 31.6959C16.7675 30.1244 16.0653 28.5958 15.1668 27.172C14.3459 25.8768 13.3493 24.672 12.2082 23.6101C11.9913 23.4053 11.7641 23.2005 11.5111 23.0386C11.413 22.972 11.2116 22.8386 11.0877 22.9243C10.9483 23.0148 11.0567 23.2672 11.098 23.3815C11.2271 23.7196 11.4027 24.0434 11.5731 24.3672C11.8416 24.872 12.1204 25.372 12.3992 25.872C13.1738 27.2911 13.9173 28.7339 14.5679 30.2054C15.3889 32.0673 16.0704 33.9768 16.561 35.934C17.0154 37.7531 17.3045 39.6102 17.4336 41.4721C17.4594 41.8341 17.4801 42.1912 17.4904 42.5531C17.4904 42.5912 17.5678 42.5912 17.5627 42.5436Z" fill="black" stroke="#7E684D" stroke-width="0.35" stroke-linejoin="round"/>
</svg>
