<svg width="77" height="75" viewBox="0 0 77 75" fill="none" xmlns="http://www.w3.org/2000/svg">
<path fill-rule="evenodd" clip-rule="evenodd" d="M46.2422 33.3174C46.0429 33.4317 45.9787 33.6883 46.0987 33.8906C48.2578 37.5312 48.66 39.8473 48.2132 41.4555C47.7664 43.0636 46.4365 44.0999 44.7466 45.0872C44.328 45.3318 43.894 45.5699 43.4511 45.8126L43.4298 45.8243C42.9954 46.0623 42.5529 46.3048 42.1178 46.5577C41.2341 47.0713 40.3637 47.6375 39.6157 48.326C38.0974 49.7236 37.1056 51.6081 37.4209 54.5089C37.4461 54.7405 37.6539 54.9132 37.8852 54.8946C38.1164 54.8759 38.2835 54.673 38.2583 54.4414C37.9742 51.8274 38.8491 50.1918 40.1958 48.9521C40.8803 48.3221 41.692 47.7905 42.5565 47.288C42.9827 47.0403 43.4175 46.802 43.8546 46.5625L43.8721 46.553C44.3134 46.3111 44.7572 46.0678 45.187 45.8166C46.891 44.821 48.4853 43.6456 49.0254 41.7016C49.5654 39.7576 49.0171 37.1811 46.8203 33.477C46.7003 33.2746 46.4415 33.2032 46.2422 33.3174Z" fill="#7E684D"/>
<path fill-rule="evenodd" clip-rule="evenodd" d="M37.794 54.0697C37.5632 54.0928 37.4002 54.2989 37.4297 54.5301C38.019 59.1366 34.6728 63.5535 29.7291 65.2957C24.8239 67.0244 18.3863 66.085 12.9216 59.9561C12.7648 59.7802 12.4984 59.7606 12.3266 59.9124C12.1548 60.0642 12.1427 60.3299 12.2996 60.5058C17.9934 66.8917 24.795 67.9347 30.0291 66.0902C35.2247 64.2592 38.9177 59.5474 38.2653 54.4466C38.2357 54.2154 38.0247 54.0467 37.794 54.0697Z" fill="#7E684D"/>
<path fill-rule="evenodd" clip-rule="evenodd" d="M43.0806 29.7711C42.9443 29.956 42.682 29.9905 42.4947 29.8482C39.1245 27.2875 36.8695 26.6234 35.2208 26.8836C33.5722 27.1438 32.3908 28.3467 31.217 29.9127C30.9262 30.3007 30.6401 30.7047 30.3484 31.1169L30.3344 31.1368C30.0483 31.5411 29.7569 31.9531 29.4559 32.3565C28.8447 33.1757 28.1829 33.9757 27.4134 34.6402C25.8516 35.989 23.8661 36.7591 21.0203 36.1145C20.7931 36.0631 20.6453 35.8368 20.6902 35.6092C20.7351 35.3816 20.9557 35.2388 21.183 35.2903C23.7475 35.8711 25.4723 35.1887 26.8576 33.9923C27.5617 33.3843 28.1826 32.6386 28.7805 31.8371C29.0752 31.442 29.3616 31.0373 29.6494 30.6304L29.6609 30.6142C29.9516 30.2033 30.2441 29.7902 30.5426 29.3919C31.7263 27.8128 33.0761 26.3632 35.0691 26.0486C37.062 25.7341 39.559 26.5731 42.9881 29.1785C43.1754 29.3209 43.2168 29.5862 43.0806 29.7711Z" fill="#7E684D"/>
<path fill-rule="evenodd" clip-rule="evenodd" d="M21.5006 35.7928C21.4513 36.0194 21.2279 36.1578 21.0016 36.102C16.4925 34.9906 11.7223 37.8104 9.42695 42.5228C7.14942 47.1985 7.34741 53.7012 12.8122 59.8301C12.969 60.0061 12.958 60.2729 12.7876 60.4263C12.6172 60.5796 12.3519 60.5612 12.195 60.3853C6.50117 53.9995 6.24178 47.1232 8.672 42.134C11.0844 37.1816 16.1871 34.0508 21.1799 35.2815C21.4063 35.3373 21.5498 35.5662 21.5006 35.7928Z" fill="#7E684D"/>
<path fill-rule="evenodd" clip-rule="evenodd" d="M61.6795 11.0421C61.5664 11.003 61.4257 10.9711 61.2787 10.9896C61.0973 11.0123 60.8957 11.0879 60.6979 11.1814C60.4927 11.2784 60.2613 11.4093 60.0135 11.5664C59.5173 11.881 58.9353 12.3129 58.3331 12.8221C57.1319 13.8378 55.8206 15.1863 54.9396 16.5652C54.5501 17.1747 54.1549 17.9953 53.8612 18.6506C53.7132 18.9808 53.5888 19.274 53.5014 19.4847C53.4579 19.5897 53.4235 19.6744 53.3998 19.7332L33.8982 36.7381L34.4597 37.3813L53.7255 20.582L56.4711 23.6613L37.6052 40.91L38.181 41.5406L57.2767 24.0817C57.3379 24.065 57.4258 24.0407 57.5348 24.0098C57.7545 23.9475 58.0605 23.858 58.406 23.7493C59.0916 23.5337 59.9534 23.2362 60.6045 22.9194C62.0765 22.2033 63.6552 20.9896 64.8445 19.8809C65.4405 19.3252 65.9492 18.7862 66.3039 18.3375C66.4804 18.1143 66.627 17.9032 66.7268 17.7166C66.7767 17.6234 66.8205 17.5261 66.8489 17.4289C66.8728 17.3468 66.8947 17.2354 66.8781 17.1137C66.8621 16.8788 66.76 16.6198 66.6407 16.3797C66.5095 16.1156 66.3288 15.819 66.1179 15.5086C65.6954 14.8869 65.1316 14.1801 64.5437 13.5185C63.9562 12.8574 63.3347 12.2303 62.7941 11.7718C62.5248 11.5434 62.2651 11.3479 62.0325 11.2109C61.9161 11.1424 61.7969 11.0827 61.6795 11.0421ZM57.1928 23.2238L54.2426 19.9151C54.2538 19.8878 54.2659 19.8585 54.2789 19.8274C54.364 19.622 54.4853 19.3361 54.6295 19.0144C54.9201 18.3658 55.2954 17.5909 55.651 17.0344C56.4737 15.7467 57.7212 14.4577 58.8854 13.4733C59.4659 12.9824 60.0181 12.5737 60.4767 12.283C60.7063 12.1375 60.9074 12.0246 61.0735 11.9462C61.232 11.8713 61.3362 11.8386 61.3919 11.8286C61.3982 11.83 61.4093 11.8328 61.4257 11.8385C61.4712 11.8542 61.5364 11.8844 61.6224 11.935C61.7945 12.0364 62.0114 12.1967 62.2621 12.4093C62.7614 12.8328 63.353 13.4279 63.9233 14.0696C64.4932 14.7109 65.0318 15.3875 65.4276 15.97C65.6259 16.2618 65.7832 16.5225 65.8905 16.7385C66.0047 16.9683 66.0379 17.1002 66.0397 17.1507L66.0406 17.1744C66.033 17.1991 66.0161 17.241 65.9837 17.3015C65.9158 17.4285 65.8015 17.5973 65.6397 17.802C65.3179 18.209 64.8399 18.7178 64.263 19.2556C63.1064 20.3339 61.5941 21.4905 60.2205 22.1586C59.6264 22.4477 58.8126 22.7306 58.134 22.944C57.7975 23.0499 57.4991 23.1371 57.2851 23.1978C57.2522 23.2071 57.2214 23.2158 57.1928 23.2238Z" fill="#7E684D"/>
<path d="M29.8263 37.9736C27.7304 39.8423 27.5494 43.0598 29.4219 45.1599C31.2945 47.2601 34.5116 47.4477 36.6074 45.579C38.7033 43.7102 38.8843 40.4928 37.0118 38.3926C35.1392 36.2925 31.9221 36.1048 29.8263 37.9736Z" fill="#7E684D"/>
<path fill-rule="evenodd" clip-rule="evenodd" d="M30.0413 44.6077C28.4967 42.8753 28.6251 40.1885 30.3945 38.6109C32.1639 37.0333 34.8477 37.2125 36.3924 38.9449C37.937 40.6772 37.8086 43.364 36.0392 44.9417C34.2698 46.5193 31.5859 46.3401 30.0413 44.6077ZM29.4219 45.1599C27.5494 43.0598 27.7304 39.8423 29.8263 37.9736C31.9221 36.1048 35.1392 36.2925 37.0118 38.3926C38.8843 40.4928 38.7033 43.7102 36.6074 45.579C34.5116 47.4477 31.2945 47.2601 29.4219 45.1599Z" fill="#7E684D"/>
<path fill-rule="evenodd" clip-rule="evenodd" d="M41.2617 37.6355L37.7361 33.6814L38.0244 33.4243L41.55 37.3784L41.2617 37.6355Z" fill="#7E684D"/>
<path fill-rule="evenodd" clip-rule="evenodd" d="M45.2539 34.3718L41.7283 30.4177L42.0166 30.1606L45.5422 34.1147L45.2539 34.3718Z" fill="#7E684D"/>
<path fill-rule="evenodd" clip-rule="evenodd" d="M49.0976 31.0359L45.5721 27.0818L45.8604 26.8247L49.3859 30.7788L49.0976 31.0359Z" fill="#7E684D"/>
<path fill-rule="evenodd" clip-rule="evenodd" d="M52.5688 27.5525L49.0432 23.5984L49.3315 23.3413L52.8571 27.2954L52.5688 27.5525Z" fill="#7E684D"/>
<path d="M54.0746 15.1082C54.3076 14.7605 54.7831 14.6761 55.1365 14.9199V14.9199C55.4899 15.1637 55.5874 15.6433 55.3544 15.9911L54.9269 16.6289C54.6939 16.9767 54.2184 17.061 53.865 16.8172V16.8172C53.5116 16.5734 53.4141 16.0939 53.6471 15.7461L54.0746 15.1082Z" fill="#7E684D"/>
<path d="M61.9424 23.9352C62.3145 23.7434 62.4526 23.2807 62.2508 22.9018V22.9018C62.0489 22.5228 61.5836 22.3712 61.2115 22.563L60.529 22.9148C60.1569 23.1066 60.0189 23.5693 60.2207 23.9482V23.9482C60.4225 24.3272 60.8878 24.4788 61.2599 24.287L61.9424 23.9352Z" fill="#7E684D"/>
<path d="M56.4173 12.4747C56.7062 12.1726 57.1913 12.1698 57.5007 12.4683V12.4683C57.8101 12.7668 57.8267 13.2538 57.5378 13.5558L57.0079 14.1099C56.719 14.412 56.234 14.4148 55.9245 14.1163V14.1163C55.6151 13.8177 55.5985 13.3308 55.8874 13.0287L56.4173 12.4747Z" fill="#7E684D"/>
<path d="M64.827 21.9069C65.1601 21.6544 65.2184 21.1729 64.9571 20.8314V20.8314C64.6959 20.4899 64.214 20.4178 63.8809 20.6703L63.27 21.1334C62.9369 21.386 62.8787 21.8675 63.1399 22.209V22.209C63.4012 22.5505 63.883 22.6226 64.2161 22.3701L64.827 21.9069Z" fill="#7E684D"/>
<path d="M59.0986 10.3255C59.4395 10.0834 59.9193 10.1701 60.1704 10.5191V10.5191C60.4214 10.8681 60.3486 11.3472 60.0077 11.5893L59.3825 12.0332C59.0416 12.2753 58.5618 12.1886 58.3108 11.8396V11.8396C58.0597 11.4906 58.1326 11.0115 58.4734 10.7694L59.0986 10.3255Z" fill="#7E684D"/>
<path d="M67.3149 19.5426C67.5943 19.2316 67.563 18.745 67.2449 18.4558V18.4558C66.9269 18.1665 66.4426 18.1841 66.1632 18.4952L65.6508 19.0655C65.3714 19.3765 65.4027 19.8631 65.7207 20.1524V20.1524C66.0388 20.4416 66.5231 20.424 66.8025 20.113L67.3149 19.5426Z" fill="#7E684D"/>
<path fill-rule="evenodd" clip-rule="evenodd" d="M16.3446 47.0986C16.8007 46.692 17.5096 46.7427 17.9281 47.212L26.0676 56.3408C26.486 56.8101 26.4555 57.5202 25.9994 57.9269C25.5433 58.3336 24.8343 58.2828 24.4159 57.8135L16.2764 48.6847C15.858 48.2154 15.8885 47.5053 16.3446 47.0986Z" fill="#7E684D"/>
<line y1="-0.175" x2="12.0634" y2="-0.175" transform="matrix(0.771374 -0.636382 0.638272 0.769811 19.2617 50.0293)" stroke="#7E684D" stroke-width="0.35"/>
<line y1="-0.175" x2="11.4704" y2="-0.175" transform="matrix(0.76463 -0.64447 0.64583 0.763481 20.8496 51.3721)" stroke="#7E684D" stroke-width="0.35"/>
<line y1="-0.175" x2="11.9786" y2="-0.175" transform="matrix(0.750167 -0.661248 0.661521 0.749926 22.1313 53.1494)" stroke="#7E684D" stroke-width="0.35"/>
<line y1="-0.175" x2="11.7414" y2="-0.175" transform="matrix(0.733978 -0.679173 0.678305 0.73478 23.897 54.6025)" stroke="#7E684D" stroke-width="0.35"/>
</svg>
