<svg width="38" height="57" viewBox="0 0 38 57" fill="none" xmlns="http://www.w3.org/2000/svg">
<path fill-rule="evenodd" clip-rule="evenodd" d="M20.8315 19.6455C20.7803 19.838 20.9362 20.0244 21.1797 20.0619C25.5618 20.7366 27.6631 21.7891 28.609 22.9858C29.5548 24.1825 29.4278 25.6222 29.008 27.2653C28.904 27.6723 28.784 28.0855 28.6614 28.507L28.6555 28.5274C28.5352 28.9408 28.4127 29.3619 28.3035 29.7843C28.0819 30.6419 27.9109 31.5208 27.9224 32.3905C27.9457 34.1555 28.7231 35.8584 31.2217 37.2975C31.4212 37.4124 31.7036 37.3767 31.8524 37.2178C32.0012 37.0589 31.9601 36.8369 31.7606 36.722C29.5091 35.4251 28.8443 33.9381 28.8236 32.3725C28.8131 31.5768 28.9698 30.755 29.1866 29.916C29.2935 29.5024 29.4139 29.0885 29.5349 28.6725L29.5398 28.6559C29.662 28.2358 29.7847 27.8134 29.8915 27.3954C30.3148 25.7387 30.5194 24.0505 29.3761 22.6039C28.2327 21.1573 25.8238 20.0512 21.3653 19.3648C21.1217 19.3273 20.8827 19.453 20.8315 19.6455Z" fill="#7E684D"/>
<path fill-rule="evenodd" clip-rule="evenodd" d="M31.1614 36.8082C31.0208 36.969 31.0666 37.1903 31.2637 37.3025C35.1904 39.5385 36.2727 44.1863 34.214 48.3395C32.1713 52.4604 27.0372 56.0489 18.6021 56.0705C18.36 56.0711 18.1623 56.2305 18.1605 56.4266C18.1588 56.6227 18.3536 56.7811 18.5958 56.7805C27.3845 56.758 32.8475 52.9953 35.0272 48.5981C37.1909 44.2333 36.121 39.1961 31.773 36.7203C31.5759 36.608 31.3021 36.6474 31.1614 36.8082Z" fill="#7E684D"/>
<path fill-rule="evenodd" clip-rule="evenodd" d="M16.8198 19.6512C16.8686 19.8434 16.7175 20.03 16.4825 20.0681C12.2531 20.7528 10.2227 21.8093 9.30635 23.007C8.39003 24.2047 8.50781 25.6425 8.90729 27.2827C9.00625 27.6891 9.12063 28.1015 9.23752 28.5223L9.24316 28.5425C9.35782 28.9552 9.47463 29.3756 9.5785 29.7972C9.78947 30.6534 9.95148 31.5308 9.93754 32.3996C9.90923 34.1627 9.15363 35.8656 6.73868 37.3093C6.54586 37.4246 6.2736 37.3896 6.13057 37.2312C5.98754 37.0729 6.0279 36.851 6.22072 36.7357C8.39694 35.4347 9.04311 33.9478 9.06822 32.3838C9.08098 31.589 8.93261 30.7685 8.72623 29.9309C8.62449 29.518 8.50972 29.1049 8.39434 28.6897L8.38973 28.6731C8.27324 28.2538 8.15625 27.8321 8.05463 27.4149C7.65182 25.761 7.45997 24.0752 8.5677 22.6274C9.67538 21.1796 12.0027 20.0688 16.3058 19.3722C16.5409 19.3341 16.771 19.459 16.8198 19.6512Z" fill="#7E684D"/>
<path fill-rule="evenodd" clip-rule="evenodd" d="M6.81841 36.8201C6.95774 36.9807 6.9122 37.2018 6.71669 37.3141C2.82156 39.5501 1.74499 44.1942 3.78329 48.3425C5.80573 52.4585 10.8937 56.0409 19.2574 56.0579C19.4975 56.0584 19.6934 56.2176 19.695 56.4135C19.6966 56.6094 19.5033 56.7678 19.2632 56.7673C10.5488 56.7496 5.13477 52.9933 2.97675 48.6013C0.834574 44.2417 1.8991 39.2086 6.21214 36.7326C6.40764 36.6204 6.67908 36.6596 6.81841 36.8201Z" fill="#7E684D"/>
<path fill-rule="evenodd" clip-rule="evenodd" d="M15.7457 1.27579C15.6604 1.32188 15.5646 1.38805 15.496 1.48437C15.4114 1.6032 15.3479 1.76172 15.2974 1.92735C15.245 2.09919 15.1991 2.30427 15.1602 2.53286C15.0823 2.99044 15.0294 3.56029 15.0125 4.18257C14.9788 5.42389 15.088 6.90495 15.4494 8.14848C15.6092 8.6981 15.8943 9.36207 16.134 9.87937C16.2548 10.1401 16.3658 10.3673 16.4467 10.5295C16.487 10.6104 16.5199 10.6751 16.5429 10.72L16.3094 31.1436L17.0062 31.1507L17.2368 10.974L20.6037 10.974L20.8641 31.1511L21.5609 31.1432L21.2973 10.7201C21.3204 10.6753 21.3534 10.6108 21.3937 10.5303C21.4751 10.3681 21.5868 10.1409 21.7083 9.88018C21.9493 9.36293 22.2361 8.69887 22.3968 8.14889C22.7601 6.90534 22.8782 5.33762 22.8487 4.05439C22.8339 3.4113 22.7819 2.82845 22.7013 2.38367C22.6611 2.16244 22.6122 1.96519 22.5527 1.80831C22.523 1.73 22.4875 1.65307 22.4438 1.58531C22.4068 1.52806 22.3508 1.45661 22.2677 1.40244C22.1159 1.28851 21.9027 1.21258 21.6916 1.15672C21.4595 1.09529 21.1806 1.04598 20.877 1.00719C20.2689 0.929482 19.5321 0.890341 18.8098 0.889187C18.088 0.888034 17.3685 0.924785 16.7955 1.00245C16.5102 1.04113 16.25 1.09141 16.0402 1.1565C15.9353 1.18906 15.8342 1.22797 15.7457 1.27579ZM20.7292 10.3189L17.1115 10.3189C17.1009 10.298 17.0896 10.2755 17.0777 10.2515C16.9988 10.0934 16.8905 9.87176 16.7729 9.6178C16.5357 9.10582 16.2675 8.47764 16.1216 7.97582C15.7841 6.81459 15.6764 5.40233 15.7091 4.19928C15.7254 3.59937 15.7763 3.05928 15.8483 2.63635C15.8843 2.42468 15.9249 2.24686 15.9673 2.10782C16.0078 1.97504 16.0444 1.89648 16.0686 1.85845C16.0728 1.85544 16.0806 1.8504 16.093 1.84369C16.1273 1.82517 16.181 1.80261 16.2586 1.77854C16.4138 1.73039 16.6293 1.68681 16.895 1.65079C17.4241 1.57907 18.1079 1.54312 18.8086 1.54423C19.5087 1.54535 20.2133 1.58346 20.7832 1.65627C21.0686 1.69274 21.3129 1.73701 21.5028 1.78726C21.7047 1.8407 21.8031 1.89042 21.8348 1.91587L21.8497 1.92779C21.8607 1.94533 21.877 1.97721 21.8963 2.02814C21.9367 2.13488 21.9775 2.29086 22.0143 2.49373C22.0875 2.89716 22.1377 3.44605 22.152 4.06853C22.1807 5.31643 22.0638 6.81509 21.7248 7.9754C21.5782 8.47734 21.3085 9.10543 21.07 9.61735C20.9517 9.87126 20.8428 10.0928 20.7635 10.2509C20.7513 10.2751 20.7399 10.2978 20.7292 10.3189Z" fill="#7E684D"/>
<path d="M14.8498 34.1912C14.8498 36.4079 16.7113 38.2048 19.0076 38.2048C21.304 38.2048 23.1655 36.4078 23.1655 34.1912C23.1655 31.9746 21.304 30.1777 19.0076 30.1777C16.7113 30.1777 14.8498 31.9746 14.8498 34.1912Z" fill="#7E684D"/>
<path fill-rule="evenodd" clip-rule="evenodd" d="M19.0076 37.5497C17.1135 37.5497 15.5466 36.0626 15.5466 34.1912C15.5466 32.3199 17.1135 30.8328 19.0076 30.8328C20.9018 30.8328 22.4687 32.3199 22.4687 34.1912C22.4687 36.0625 20.9018 37.5497 19.0076 37.5497ZM19.0076 38.2048C16.7113 38.2048 14.8498 36.4079 14.8498 34.1912C14.8498 31.9746 16.7113 30.1777 19.0076 30.1777C21.304 30.1777 23.1655 31.9746 23.1655 34.1912C23.1655 36.4078 21.304 38.2048 19.0076 38.2048Z" fill="#7E684D"/>
<path fill-rule="evenodd" clip-rule="evenodd" d="M20.8547 27.2766H16.5312V26.9717H20.8547V27.2766Z" fill="#7E684D"/>
<path fill-rule="evenodd" clip-rule="evenodd" d="M21.0349 23.2092H16.7114V22.9043H21.0349V23.2092Z" fill="#7E684D"/>
<path fill-rule="evenodd" clip-rule="evenodd" d="M21.09 19.1921H16.7666V18.8872H21.09V19.1921Z" fill="#7E684D"/>
<path fill-rule="evenodd" clip-rule="evenodd" d="M20.8537 15.3176H16.5303V15.0127H20.8537V15.3176Z" fill="#7E684D"/>
<path d="M14.0914 7.89294C14.0061 7.57291 14.213 7.2485 14.5534 7.16835V7.16835C14.8939 7.0882 15.239 7.28266 15.3242 7.60269L15.4806 8.18961C15.5659 8.50964 15.359 8.83405 15.0186 8.9142V8.9142C14.6781 8.99435 14.333 8.79989 14.2478 8.47987L14.0914 7.89294Z" fill="#7E684D"/>
<path d="M23.7411 7.89392C23.8264 7.57389 23.6195 7.24948 23.2791 7.16933V7.16933C22.9386 7.08918 22.5935 7.28364 22.5083 7.60366L22.3519 8.19059C22.2666 8.51062 22.4735 8.83503 22.8139 8.91518V8.91518C23.1544 8.99533 23.4995 8.80087 23.5848 8.48084L23.7411 7.89392Z" fill="#7E684D"/>
<path d="M13.7595 5.12829C13.7324 4.79936 13.9941 4.51207 14.344 4.4866V4.4866C14.6939 4.46113 14.9996 4.70713 15.0266 5.03606L15.0763 5.63931C15.1034 5.96824 14.8417 6.25553 14.4918 6.281V6.281C14.1419 6.30647 13.8363 6.06047 13.8092 5.73154L13.7595 5.12829Z" fill="#7E684D"/>
<path d="M24.072 5.12878C24.0991 4.79985 23.8374 4.51256 23.4875 4.48709V4.48709C23.1376 4.46162 22.832 4.70762 22.8049 5.03655L22.7552 5.6398C22.7281 5.96872 22.9898 6.25602 23.3397 6.28149V6.28149C23.6896 6.30696 23.9953 6.06096 24.0223 5.73203L24.072 5.12878Z" fill="#7E684D"/>
<path d="M13.9064 2.42008C13.9441 2.09207 14.2575 1.8549 14.6064 1.89033V1.89033C14.9553 1.92576 15.2076 2.22039 15.1699 2.54839L15.1008 3.14994C15.0631 3.47795 14.7497 3.71512 14.4008 3.67969V3.67969C14.0518 3.64426 13.7995 3.34963 13.8372 3.02163L13.9064 2.42008Z" fill="#7E684D"/>
<path d="M23.9838 2.42105C23.9461 2.09305 23.6327 1.85587 23.2837 1.89131V1.89131C22.9348 1.92674 22.6825 2.22136 22.7202 2.54937L22.7893 3.15092C22.827 3.47893 23.1404 3.7161 23.4894 3.68067V3.68067C23.8383 3.64523 24.0906 3.35061 24.0529 3.02261L23.9838 2.42105Z" fill="#7E684D"/>
<path fill-rule="evenodd" clip-rule="evenodd" d="M13.0859 46.9291C13.0859 46.4467 13.5019 46.0557 14.0151 46.0557H23.9965C24.5097 46.0557 24.9256 46.4467 24.9256 46.9291C24.9256 47.4114 24.5097 47.8025 23.9965 47.8025H14.0151C13.5019 47.8025 13.0859 47.4114 13.0859 46.9291Z" fill="#7E684D"/>
<line y1="-0.175" x2="9.52359" y2="-0.175" transform="matrix(0.0396597 -0.999213 0.999396 0.0347372 16.4551 46.75)" stroke="#7E684D" stroke-width="0.35"/>
<line y1="-0.175" x2="9.05461" y2="-0.175" transform="matrix(0.0287794 -0.999586 0.999682 0.0252051 18.1357 46.5195)" stroke="#7E684D" stroke-width="0.35"/>
<line y1="-0.175" x2="9.45574" y2="-0.175" transform="matrix(0.00588219 -0.999983 0.999987 0.0051511 19.9141 46.6973)" stroke="#7E684D" stroke-width="0.35"/>
<line x1="21.5379" y1="46.522" x2="21.4069" y2="37.1565" stroke="#7E684D" stroke-width="0.35"/>
</svg>
