<svg width="234" height="333" viewBox="0 0 234 333" fill="none" xmlns="http://www.w3.org/2000/svg">
<path d="M115.102 306.176C51.9054 285.882 9.08988 243.224 19.4709 210.897C29.8519 178.569 85.9081 149.957 113.226 205.593C129.172 238.069 224.054 251.219 214.046 284.066C205.442 312.309 178.299 326.47 115.102 306.176Z" fill="#F5EBDE"/>
<path fill-rule="evenodd" clip-rule="evenodd" d="M155.648 90.9935C155.425 91.9259 156.102 92.8289 157.159 93.0105C176.181 96.2781 185.303 101.376 189.409 107.171C193.514 112.967 192.963 119.94 191.141 127.898C190.689 129.869 190.168 131.87 189.636 133.912L189.61 134.01C189.088 136.012 188.556 138.052 188.083 140.098C187.12 144.251 186.378 148.508 186.428 152.72C186.529 161.268 189.904 169.516 200.75 176.486C201.616 177.042 202.842 176.869 203.488 176.1C204.134 175.33 203.955 174.255 203.089 173.698C193.316 167.417 190.43 160.216 190.34 152.633C190.295 148.779 190.975 144.799 191.916 140.735C192.38 138.732 192.903 136.728 193.428 134.713L193.449 134.633C193.979 132.598 194.512 130.552 194.976 128.528C196.813 120.504 197.702 112.328 192.738 105.322C187.775 98.3159 177.319 92.9588 157.965 89.6342C156.907 89.4526 155.87 90.0612 155.648 90.9935Z" fill="#7E684D"/>
<path fill-rule="evenodd" clip-rule="evenodd" d="M200.489 174.117C199.878 174.896 200.077 175.968 200.932 176.511C217.978 187.34 222.676 209.851 213.739 229.965C204.872 249.924 182.586 267.303 145.97 267.408C144.919 267.411 144.061 268.183 144.054 269.133C144.046 270.082 144.892 270.85 145.943 270.847C184.094 270.738 207.808 252.514 217.27 231.218C226.662 210.078 222.017 185.682 203.143 173.691C202.288 173.148 201.099 173.338 200.489 174.117Z" fill="#7E684D"/>
<path fill-rule="evenodd" clip-rule="evenodd" d="M138.232 91.0148C138.444 91.9455 137.788 92.8494 136.768 93.0337C118.409 96.3499 109.595 101.467 105.617 107.268C101.64 113.068 102.151 120.032 103.885 127.976C104.315 129.944 104.811 131.941 105.319 133.979L105.343 134.077C105.841 136.076 106.348 138.112 106.799 140.154C107.714 144.3 108.418 148.55 108.357 152.757C108.234 161.297 104.954 169.544 94.4714 176.536C93.6344 177.094 92.4526 176.925 91.8317 176.158C91.2109 175.391 91.3861 174.317 92.2231 173.758C101.67 167.457 104.475 160.256 104.584 152.681C104.639 148.832 103.995 144.858 103.099 140.801C102.657 138.802 102.159 136.801 101.658 134.79L101.638 134.709C101.133 132.679 100.625 130.636 100.184 128.616C98.4353 120.606 97.6025 112.441 102.411 105.429C107.219 98.4172 117.322 93.0374 136.001 89.6634C137.021 89.4791 138.02 90.0841 138.232 91.0148Z" fill="#7E684D"/>
<path fill-rule="evenodd" clip-rule="evenodd" d="M94.8168 174.168C95.4216 174.946 95.2239 176.017 94.3752 176.561C77.467 187.39 72.7937 209.882 81.6417 229.973C90.4209 249.908 112.507 267.258 148.813 267.34C149.855 267.343 150.705 268.114 150.712 269.062C150.719 270.011 149.88 270.778 148.838 270.776C111.01 270.69 87.5083 252.498 78.1406 231.227C68.8418 210.112 73.4627 185.736 92.185 173.745C93.0337 173.201 94.2119 173.391 94.8168 174.168Z" fill="#7E684D"/>
<path fill-rule="evenodd" clip-rule="evenodd" d="M133.568 2.02194C133.198 2.24513 132.782 2.56562 132.484 3.03213C132.117 3.60762 131.842 4.37536 131.622 5.17753C131.395 6.00983 131.196 7.00307 131.027 8.11013C130.689 10.3263 130.459 13.0862 130.385 16.1C130.239 22.1119 130.713 29.285 132.282 35.3076C132.976 37.9695 134.213 41.1852 135.254 43.6906C135.778 44.9532 136.26 46.0539 136.611 46.8395C136.786 47.2309 136.929 47.5446 137.029 47.7617L136.015 146.677L139.04 146.711L140.041 48.9919L154.656 48.9919L155.786 146.713L158.811 146.675L157.667 47.7626C157.767 47.5456 157.91 47.2329 158.086 46.8431C158.439 46.0576 158.924 44.957 159.451 43.6945C160.497 41.1894 161.742 37.9732 162.44 35.3096C164.017 29.2869 164.529 21.6941 164.401 15.4792C164.337 12.3646 164.111 9.54174 163.761 7.38759C163.587 6.31613 163.375 5.36084 163.117 4.60104C162.988 4.22173 162.834 3.84916 162.644 3.521C162.483 3.24372 162.24 2.89766 161.879 2.63534C161.221 2.08352 160.295 1.71579 159.379 1.44526C158.371 1.14775 157.161 0.908941 155.843 0.721058C153.203 0.3447 150.004 0.155133 146.869 0.149544C143.736 0.14396 140.612 0.321951 138.125 0.698092C136.887 0.885414 135.757 1.12895 134.847 1.44419C134.391 1.60187 133.952 1.79032 133.568 2.02194ZM155.201 45.8194L139.497 45.8194C139.451 45.718 139.402 45.609 139.35 45.4928C139.008 44.7272 138.538 43.6537 138.027 42.4238C136.997 39.9441 135.833 36.9018 135.2 34.4713C133.735 28.8473 133.268 22.0075 133.409 16.1809C133.48 13.2754 133.701 10.6597 134.014 8.61138C134.17 7.5862 134.346 6.725 134.53 6.05159C134.706 5.40852 134.865 5.02806 134.97 4.84385C134.988 4.82929 135.022 4.80488 135.076 4.77238C135.225 4.68269 135.458 4.57343 135.795 4.45686C136.469 4.22362 137.404 4.01256 138.557 3.83813C140.854 3.49076 143.822 3.31664 146.864 3.32206C149.903 3.32747 152.962 3.51204 155.435 3.86467C156.674 4.04128 157.735 4.25568 158.559 4.49906C159.435 4.75787 159.862 4.99868 160 5.12198L160.065 5.17971C160.113 5.26462 160.183 5.41905 160.267 5.66571C160.443 6.18267 160.62 6.93808 160.779 7.92062C161.097 9.8745 161.315 12.5329 161.377 15.5476C161.502 21.5915 160.994 28.8498 159.523 34.4694C158.886 36.9003 157.716 39.9423 156.68 42.4216C156.167 43.6513 155.694 44.7245 155.35 45.4898C155.297 45.6072 155.247 45.7172 155.201 45.8194Z" fill="#7E684D"/>
<path d="M129.682 161.439C129.682 172.175 137.762 180.877 147.731 180.877C157.699 180.877 165.779 172.175 165.779 161.439C165.779 150.704 157.699 142.001 147.731 142.001C137.762 142.001 129.682 150.704 129.682 161.439Z" fill="#7E684D"/>
<path fill-rule="evenodd" clip-rule="evenodd" d="M147.731 177.705C139.508 177.705 132.707 170.502 132.707 161.439C132.707 152.376 139.508 145.173 147.731 145.173C155.953 145.173 162.754 152.376 162.754 161.439C162.754 170.502 155.953 177.705 147.731 177.705ZM147.731 180.877C137.762 180.877 129.682 172.175 129.682 161.439C129.682 150.704 137.762 142.001 147.731 142.001C157.699 142.001 165.779 150.704 165.779 161.439C165.779 172.175 157.699 180.877 147.731 180.877Z" fill="#7E684D"/>
<path fill-rule="evenodd" clip-rule="evenodd" d="M155.749 127.948H136.982V126.472H155.749V127.948Z" fill="#7E684D"/>
<path fill-rule="evenodd" clip-rule="evenodd" d="M156.53 108.255H137.763V106.778H156.53V108.255Z" fill="#7E684D"/>
<path fill-rule="evenodd" clip-rule="evenodd" d="M156.77 88.7951H138.002V87.3184H156.77V88.7951Z" fill="#7E684D"/>
<path fill-rule="evenodd" clip-rule="evenodd" d="M155.745 70.0324H136.978V68.5557H155.745V70.0324Z" fill="#7E684D"/>
<path d="M126.39 34.0701C126.02 32.5202 126.918 30.949 128.396 30.5608C129.873 30.1726 131.371 31.1144 131.742 32.6644L132.42 35.507C132.79 37.0569 131.892 38.6281 130.415 39.0163C128.937 39.4044 127.439 38.4627 127.069 36.9127L126.39 34.0701Z" fill="#7E684D"/>
<path d="M168.278 34.074C168.648 32.5241 167.75 30.9529 166.272 30.5647C164.794 30.1765 163.296 31.1183 162.926 32.6683L162.247 35.5109C161.877 37.0608 162.775 38.632 164.253 39.0202C165.731 39.4084 167.229 38.4666 167.599 36.9166L168.278 34.074Z" fill="#7E684D"/>
<path d="M124.95 20.6814C124.833 19.0883 125.969 17.6969 127.488 17.5735C129.007 17.4502 130.333 18.6416 130.451 20.2347L130.667 23.1563C130.784 24.7494 129.648 26.1408 128.129 26.2641C126.61 26.3875 125.284 25.1961 125.166 23.603L124.95 20.6814Z" fill="#7E684D"/>
<path d="M169.716 20.6882C169.833 19.0951 168.697 17.7037 167.178 17.5804C165.659 17.457 164.333 18.6484 164.215 20.2415L163.999 23.1631C163.882 24.7562 165.018 26.1476 166.537 26.271C168.056 26.3943 169.382 25.2029 169.5 23.6098L169.716 20.6882Z" fill="#7E684D"/>
<path d="M125.588 7.56388C125.752 5.9753 127.112 4.82662 128.627 4.99823C130.142 5.16984 131.237 6.59675 131.073 8.18533L130.773 11.0988C130.61 12.6873 129.249 13.836 127.734 13.6644C126.22 13.4928 125.125 12.0659 125.288 10.4773L125.588 7.56388Z" fill="#7E684D"/>
<path d="M169.333 7.56779C169.169 5.97921 167.809 4.83052 166.294 5.00213C164.779 5.17374 163.684 6.60066 163.848 8.18924L164.148 11.1027C164.312 12.6913 165.672 13.8399 167.187 13.6683C168.701 13.4967 169.797 12.0698 169.633 10.4812L169.333 7.56779Z" fill="#7E684D"/>
<path fill-rule="evenodd" clip-rule="evenodd" d="M122.026 223.134C122.026 220.798 123.832 218.904 126.06 218.904H169.388C171.615 218.904 173.421 220.798 173.421 223.134C173.421 225.47 171.615 227.364 169.388 227.364H126.06C123.832 227.364 122.026 225.47 122.026 223.134Z" fill="#7E684D"/>
<line y1="-0.175" x2="46.1184" y2="-0.175" transform="matrix(0.0355518 -0.999368 0.999249 0.0387513 136.652 222.263)" stroke="#7E684D" stroke-width="0.35"/>
<line y1="-0.175" x2="43.8495" y2="-0.175" transform="matrix(0.0257966 -0.999667 0.999605 0.0281196 143.948 221.149)" stroke="#7E684D" stroke-width="0.35"/>
<line y1="-0.175" x2="45.7958" y2="-0.175" transform="matrix(0.00527212 -0.999986 0.999983 0.00574717 151.667 222.006)" stroke="#7E684D" stroke-width="0.35"/>
<line y1="-0.175" x2="45.362" y2="-0.175" transform="matrix(-0.0125376 -0.999921 0.999878 -0.0156065 159.473 221.146)" stroke="#7E684D" stroke-width="0.35"/>
</svg>
