<svg width="268" height="173" viewBox="0 0 268 173" fill="none" xmlns="http://www.w3.org/2000/svg">
<path d="M127.576 160.607C59.3191 204.093 57.4383 114.622 9.38806 82.2943C-38.6621 49.9662 115.092 -34.312 135.782 17.2085C175.465 116.021 267.13 64.5856 267.13 123.028C267.13 181.471 195.832 117.121 127.576 160.607Z" fill="#F5EBDE"/>
<g filter="url(#filter0_d_1485_760)">
<path d="M130.32 128.349C131.103 128.263 131.897 128.297 132.662 128.489C133.297 128.648 133.892 128.913 134.477 129.199C135.574 129.736 136.756 130.369 138.016 130.292C139.106 130.225 139.969 129.594 140.955 129.212C141.465 129.013 142.004 128.924 142.545 129.022C143.239 129.149 143.869 129.504 144.431 129.918C145.63 130.802 146.566 131.963 147.141 133.34C147.197 133.476 147.396 133.501 147.444 133.34C147.715 132.437 147.987 131.533 148.254 130.63L148.104 130.745C151.666 130.432 155.267 131.029 158.541 132.467C159.205 132.757 159.853 133.083 160.486 133.434C160.624 133.511 160.776 133.357 160.701 133.219C159.922 131.821 158.883 130.53 157.492 129.703C156.456 129.087 155.336 128.828 154.137 128.815C153.494 128.809 152.85 128.828 152.207 128.79C151.317 128.738 150.435 128.587 149.573 128.362C148.096 127.977 146.606 127.413 145.38 126.484C144.319 125.679 143.495 124.576 142.915 123.386C142.631 122.805 142.338 122.232 142.021 121.668C140.964 119.799 139.779 117.998 138.582 116.214C137.686 114.881 136.775 113.559 135.852 112.245C135.294 111.449 134.73 110.653 134.166 109.861C133.859 109.431 133.552 109 133.242 108.57C133.096 108.367 132.95 108.165 132.804 107.962C132.724 107.851 132.645 107.741 132.566 107.632C132.486 107.523 132.323 107.373 132.311 107.237C132.3 107.137 132.407 106.951 132.438 106.851C132.476 106.738 132.513 106.625 132.551 106.514C132.641 106.243 132.733 105.969 132.822 105.697C132.887 105.505 132.584 105.424 132.52 105.614C132.346 106.136 132.116 106.667 131.991 107.202C131.941 107.415 132.144 107.582 132.263 107.749C132.43 107.981 132.599 108.215 132.766 108.447C133.374 109.293 133.98 110.139 134.584 110.989C135.597 112.42 136.602 113.857 137.59 115.307C138.914 117.25 140.222 119.212 141.411 121.24C141.768 121.848 142.112 122.464 142.428 123.095C143.005 124.257 143.644 125.333 144.601 126.231C145.422 127.002 146.414 127.557 147.45 127.988C149.117 128.677 150.916 129.08 152.721 129.124C153.943 129.153 155.154 129.049 156.322 129.483C157.672 129.987 158.792 130.971 159.633 132.122C159.926 132.521 160.189 132.943 160.429 133.375L160.645 133.16C157.774 131.562 154.576 130.584 151.292 130.384C150.228 130.319 149.163 130.336 148.104 130.43C148.033 130.436 147.974 130.474 147.954 130.545C147.684 131.449 147.412 132.352 147.143 133.254H147.446C146.942 132.051 146.186 130.958 145.188 130.112C144.189 129.266 143.009 128.514 141.686 128.692C140.608 128.838 139.741 129.567 138.712 129.855C137.393 130.225 136.115 129.653 134.947 129.078C134.293 128.757 133.635 128.433 132.931 128.234C132.085 127.996 131.197 127.94 130.324 128.034C130.125 128.055 130.123 128.368 130.324 128.347L130.32 128.349Z" fill="black" stroke="#536F62" stroke-linejoin="round"/>
<path d="M128.833 105.196L128.956 106.439C128.969 106.565 128.961 106.711 129.009 106.83C129.09 107.03 129.293 107.233 129.418 107.411C129.832 107.998 130.247 108.587 130.661 109.174C131.188 109.92 131.712 110.663 132.238 111.409C134.02 113.931 135.577 116.598 137.189 119.231C137.992 120.542 138.81 121.844 139.677 123.114C140.102 123.735 140.555 124.345 140.91 125.011C141.188 125.533 141.493 126.239 141.15 126.803C140.709 127.53 139.588 127.662 138.823 127.716C137.977 127.777 137.093 127.748 136.27 127.541C135.19 127.269 134.238 126.693 133.101 126.634C131.791 126.567 130.536 127.042 129.433 127.716C129.261 127.821 129.418 128.092 129.591 127.988C130.651 127.34 131.843 126.885 133.101 126.95C134.135 127.002 135.008 127.512 135.984 127.789C136.815 128.028 137.697 128.082 138.56 128.046C139.423 128.011 140.361 127.906 141.042 127.378C142.011 126.626 141.518 125.404 140.998 124.53C140.59 123.847 140.116 123.208 139.673 122.55C139.23 121.892 138.811 121.238 138.391 120.574C136.698 117.889 135.127 115.128 133.362 112.491C132.704 111.507 132.011 110.546 131.327 109.579C130.893 108.963 130.458 108.347 130.024 107.73C129.913 107.572 129.8 107.413 129.69 107.256C129.562 107.074 129.353 106.865 129.291 106.65C129.228 106.435 129.241 106.153 129.218 105.925L129.144 105.2C129.126 105.002 128.81 105 128.831 105.2L128.833 105.196Z" fill="black" stroke="#536F62" stroke-linejoin="round"/>
<path d="M114.907 99.1239C114.722 100.056 114.536 100.985 114.35 101.917L114.218 102.577C114.18 102.769 114.068 103.053 114.093 103.25C114.112 103.404 114.231 103.584 114.293 103.726C114.385 103.939 114.475 104.154 114.565 104.367C115.252 106.007 115.889 107.668 116.474 109.348C117.652 112.73 118.62 116.185 119.368 119.686C119.739 121.427 120.059 123.179 120.324 124.938L120.475 124.74C117.299 124.857 114.366 126.229 112.077 128.4C111.657 128.799 111.26 129.221 110.884 129.662C110.754 129.814 110.959 130.027 111.105 129.883C112.883 128.143 115.348 127.025 117.863 127.228C118.837 127.307 119.79 127.585 120.667 128.011L120.59 127.876C120.23 131.659 120.232 135.469 120.59 139.253C120.604 139.418 120.855 139.478 120.897 139.294C121.62 136.134 122.342 132.973 123.063 129.814L122.802 129.883C125.794 132.666 128.06 136.167 129.368 140.038C129.646 140.861 129.88 141.699 130.074 142.545C130.116 142.729 130.364 142.668 130.381 142.503C130.803 138.507 129.794 134.418 127.544 131.084C127.078 130.393 126.56 129.737 126 129.119L125.89 129.386C128.697 129.486 131.455 130.211 133.937 131.531C134.066 131.6 134.244 131.454 134.152 131.316C132.7 129.175 130.429 127.677 127.87 127.247C127.302 127.151 126.727 127.105 126.151 127.107C125.938 127.107 125.725 127.117 125.514 127.132C125.326 127.146 125.161 127.201 124.996 127.103C123.784 126.384 122.817 125.308 122.296 123.992C122.06 123.392 121.931 122.759 121.789 122.135C121.636 121.46 121.488 120.785 121.34 120.111C120.882 118.019 120.437 115.926 119.998 113.831C119.29 110.463 118.599 107.094 117.916 103.722L117.876 103.874C118.778 103.062 119.681 102.249 120.585 101.436C120.682 101.351 120.617 101.215 120.517 101.175C118.712 100.453 116.905 99.7297 115.1 99.009C114.912 98.9338 114.83 99.2367 115.016 99.3119C116.821 100.035 118.628 100.758 120.433 101.478L120.364 101.217C119.668 101.844 118.971 102.471 118.275 103.097C118.108 103.248 117.939 103.398 117.772 103.551C117.604 103.703 117.6 103.736 117.646 103.96C117.734 104.397 117.824 104.831 117.912 105.268C118.254 106.954 118.601 108.64 118.95 110.325C119.499 112.976 120.055 115.625 120.623 118.27C120.951 119.793 121.277 121.318 121.632 122.837C121.9 123.982 122.344 125.043 123.117 125.943C123.571 126.472 124.112 126.921 124.701 127.289C124.799 127.349 124.927 127.46 125.039 127.483C125.121 127.5 125.217 127.472 125.301 127.464C125.518 127.443 125.735 127.431 125.952 127.424C128.864 127.345 131.674 128.632 133.483 130.921C133.625 131.101 133.757 131.285 133.887 131.473L134.102 131.258C131.57 129.912 128.76 129.171 125.896 129.068C125.754 129.064 125.697 129.24 125.785 129.336C128.422 132.242 129.988 136.035 130.155 139.959C130.191 140.807 130.164 141.655 130.074 142.499L130.381 142.457C129.506 138.638 127.764 135.041 125.263 132.02C124.571 131.185 123.824 130.395 123.028 129.655C122.946 129.578 122.794 129.605 122.766 129.724C122.044 132.885 121.321 136.046 120.6 139.205L120.907 139.246C120.55 135.463 120.548 131.653 120.907 127.869C120.911 127.819 120.874 127.756 120.83 127.734C119.234 126.956 117.441 126.691 115.695 127.038C114.302 127.314 112.99 127.961 111.864 128.818C111.523 129.077 111.195 129.355 110.89 129.655L111.112 129.877C112.787 127.909 114.937 126.319 117.425 125.557C118.417 125.252 119.445 125.085 120.481 125.047C120.592 125.043 120.648 124.951 120.631 124.849C120.147 121.638 119.485 118.452 118.645 115.314C117.707 111.811 116.547 108.368 115.175 105.011C115.006 104.597 114.832 104.184 114.657 103.77C114.575 103.578 114.404 103.319 114.431 103.108C114.465 102.853 114.534 102.598 114.584 102.345C114.793 101.296 115.004 100.246 115.212 99.197C115.252 99.0006 114.949 98.915 114.91 99.1134L114.907 99.1239Z" fill="black" stroke="#536F62" stroke-linejoin="round"/>
<path d="M177.75 37.5733C179.363 37.45 180.976 37.3268 182.59 37.2035C185.152 37.0071 187.711 36.8108 190.272 36.6165C190.861 36.5705 191.448 36.5266 192.037 36.4807L191.958 36.1882C190.512 36.8964 189.066 37.6046 187.621 38.3128C185.333 39.4325 183.048 40.5523 180.76 41.6741C180.232 41.9331 179.703 42.1922 179.177 42.4512C178.995 42.539 179.154 42.8105 179.336 42.7228C180.781 42.0146 182.227 41.3064 183.673 40.5982C185.96 39.4785 188.245 38.3587 190.533 37.2369C191.061 36.9779 191.59 36.7188 192.116 36.4598C192.254 36.3929 192.19 36.1569 192.037 36.1673C190.424 36.2906 188.812 36.4138 187.197 36.5371C184.636 36.7335 182.076 36.9298 179.515 37.1241C178.926 37.1701 178.339 37.2139 177.75 37.2599C177.549 37.2745 177.549 37.5879 177.75 37.5733Z" fill="black" stroke="#536F62" stroke-linejoin="round"/>
<path d="M99.5037 74.7816C98.4404 75.5503 97.3749 76.3191 96.2991 77.0712C96.134 77.1861 96.2907 77.4577 96.4578 77.3428C97.5337 76.5907 98.5991 75.8219 99.6625 75.0532C99.8254 74.9362 99.6687 74.6646 99.5037 74.7816Z" fill="black" stroke="#536F62" stroke-linejoin="round"/>
<path d="M74.7086 92.3732C69.346 96.0123 63.9918 99.6619 58.6459 103.326C54.029 106.493 49.4206 109.671 44.8247 112.867C40.9996 115.528 37.1808 118.202 33.3808 120.901C30.3057 123.084 27.2432 125.28 24.2015 127.509C21.9161 129.182 19.6432 130.872 17.4016 132.604C15.8557 133.799 14.3161 135.009 12.8412 136.291C12.0578 136.972 11.2117 137.672 10.5975 138.518C10.2487 138.999 10.1818 139.584 10.9715 139.515C11.7152 139.45 12.4589 139.12 13.142 138.844C14.4435 138.322 15.7157 137.722 16.9775 137.11C21.3833 134.975 25.691 132.638 29.984 130.287C31.3983 129.512 32.8084 128.733 34.2185 127.952L34.0284 127.705C29.3949 131.459 24.7467 135.199 20.1654 139.018C19.57 139.515 18.8953 139.991 18.3647 140.561C18.2686 140.664 18.1077 140.856 18.3375 140.937C18.442 140.975 18.584 140.871 18.6717 140.827C20.2573 140.018 21.7698 139.03 23.2948 138.115C26.4034 136.254 29.5014 134.378 32.5995 132.5C36.6711 130.035 40.7406 127.563 44.81 125.096C49.2556 122.401 53.7011 119.706 58.1487 117.018C62.3602 114.471 66.5759 111.931 70.7979 109.403C74.2261 107.352 77.6563 105.307 81.1074 103.293C83.1046 102.127 85.0975 100.928 87.1615 99.8833C90.27 98.3082 93.742 97.5352 97.2224 97.7379C98.7537 97.8277 100.266 98.1118 101.764 98.4231C103.828 98.8513 105.875 99.359 107.916 99.8875C110.131 100.46 112.337 101.062 114.541 101.669C114.735 101.724 114.819 101.421 114.624 101.367C110.39 100.203 106.149 99.0143 101.845 98.1202C98.7558 97.4788 95.6473 97.1028 92.5137 97.7149C89.144 98.375 86.2465 99.969 83.3155 101.649C80.2634 103.399 77.2364 105.194 74.2135 106.994C70.2088 109.378 66.2145 111.781 62.2244 114.187C57.827 116.838 53.4337 119.5 49.0404 122.161C44.6471 124.822 40.6027 127.279 36.3849 129.836C32.9066 131.944 29.4283 134.054 25.9458 136.154C23.8108 137.44 21.68 138.734 19.5241 139.983C19.265 140.133 19.0039 140.284 18.7407 140.43C18.6529 140.478 18.3751 140.618 18.373 140.624C18.3751 140.618 18.5945 140.858 18.4963 140.871C18.5213 140.866 18.5945 140.77 18.6133 140.754C18.8159 140.564 19.0269 140.384 19.2379 140.204C22.549 137.371 25.9605 134.654 29.3406 131.906C30.9742 130.58 32.6099 129.253 34.2457 127.929C34.3877 127.814 34.206 127.599 34.0556 127.682C29.28 130.333 24.4877 132.966 19.6181 135.445C17.107 136.724 14.5417 138.13 11.8468 138.988C11.4917 139.101 10.8733 139.304 10.6163 139.166C10.6372 139.179 10.6038 139.16 10.6289 139.093C10.6623 139.003 10.6832 138.951 10.75 138.844C11.2222 138.073 12.0139 137.44 12.6824 136.847C16.0207 133.879 19.6661 131.236 23.2593 128.589C29.6226 123.901 36.084 119.349 42.5643 114.826C51.9295 108.29 61.3512 101.837 70.7958 95.4127C72.1495 94.4915 73.5053 93.5702 74.8611 92.651C75.0262 92.5382 74.8695 92.2666 74.7024 92.3794L74.7086 92.3732Z" fill="black" stroke="#536F62" stroke-linejoin="round"/>
<path d="M133.435 50.7294C134.933 49.641 136.431 48.5526 137.929 47.4642C138.202 47.2658 138.236 47.1968 138.332 46.8856C138.405 46.6453 138.482 46.4072 138.564 46.1711C138.756 45.6071 138.969 45.0493 139.205 44.4999C140.427 41.6462 142.218 39.0432 144.49 36.9228C148.253 33.4153 153.183 31.5059 158.264 31.0129C160.881 30.7601 163.609 30.7977 166.196 31.32C170.067 32.1034 174.249 33.3735 176.883 36.5092C180.857 41.2388 178.926 48.1265 175.429 52.4926C174.903 53.1506 174.333 53.7711 173.731 54.3602C173.691 54.3999 173.677 54.4584 173.691 54.5127C175.21 60.1803 175.582 66.1508 174.667 71.9522C173.804 77.4234 171.936 82.7777 169.072 87.5261C165.761 93.0161 161.071 97.5389 155.443 100.616C150.016 103.583 143.878 105.248 137.707 105.559C131.893 105.851 126.023 104.784 120.487 103.054C120.213 102.968 119.94 102.881 119.666 102.791C119.453 102.722 119.169 102.559 118.945 102.559C118.743 102.559 118.743 102.872 118.945 102.872C119.046 102.872 119.219 102.973 119.324 103.008C119.47 103.056 119.614 103.104 119.76 103.152C120.069 103.253 120.381 103.351 120.692 103.447C121.367 103.654 122.046 103.85 122.727 104.032C124.36 104.47 126.013 104.838 127.678 105.137C130.389 105.622 133.118 105.941 135.875 105.924C142.032 105.889 148.207 104.496 153.76 101.832C159.559 99.0493 164.541 94.8211 168.172 89.5065C171.41 84.7644 173.572 79.2952 174.677 73.6715C175.828 67.8179 175.711 61.7617 174.37 55.95C174.253 55.4423 174.126 54.9347 173.99 54.4312L173.95 54.5837C178.074 50.5539 181.101 43.9671 178.419 38.3225C176.44 34.159 171.774 32.2684 167.545 31.2949C165.068 30.7246 162.552 30.4906 160.006 30.5846C155.117 30.7685 150.231 32.1556 146.252 35.0636C143.726 36.9103 141.622 39.3044 140.08 42.0264C139.427 43.1817 138.871 44.3954 138.418 45.6426C138.328 45.8933 138.24 46.1439 138.158 46.3967C138.083 46.6244 138.046 46.9315 137.889 47.107C137.745 47.2699 137.473 47.4078 137.298 47.5373C137.122 47.6669 136.943 47.7943 136.765 47.9238C136.351 48.2246 135.938 48.5255 135.524 48.8263C134.776 49.3715 134.026 49.9147 133.278 50.4599C133.118 50.5769 133.272 50.8485 133.437 50.7315L133.435 50.7294Z" fill="black" stroke="#536F62" stroke-linejoin="round"/>
<path d="M87.056 92.4463C86.4815 92.791 85.907 93.1378 85.3346 93.4825C83.772 94.4226 82.2093 95.3648 80.6488 96.3048L73.7173 100.481C70.8971 102.179 68.079 103.878 65.2587 105.576C62.1711 107.437 59.0814 109.297 55.9938 111.158C52.8748 113.036 49.7579 114.914 46.639 116.792C43.731 118.543 40.823 120.296 37.915 122.046C35.45 123.529 32.987 125.015 30.5219 126.498C28.7566 127.561 26.9893 128.625 25.224 129.688C24.3884 130.191 23.5465 130.687 22.7172 131.198C22.6816 131.219 22.6461 131.242 22.6106 131.263C22.4372 131.368 22.596 131.639 22.7694 131.535C23.3439 131.19 23.9184 130.843 24.4908 130.499L29.1765 127.676C31.487 126.285 33.7975 124.894 36.108 123.5C38.9282 121.802 41.7464 120.103 44.5666 118.405C47.6542 116.544 50.744 114.684 53.8316 112.823C56.9505 110.945 60.0674 109.067 63.1864 107.189C66.0944 105.438 69.0023 103.685 71.9103 101.935C74.3754 100.452 76.8384 98.9663 79.3035 97.4831C81.0687 96.4197 82.8361 95.3564 84.6013 94.2931C85.4369 93.7896 86.2788 93.2945 87.1082 92.7827C87.1437 92.7618 87.1792 92.7388 87.2147 92.7179C87.3881 92.6135 87.2293 92.3419 87.056 92.4463Z" fill="black" stroke="#536F62" stroke-linejoin="round"/>
<path d="M93.4614 92.0052C89.5632 94.345 85.665 96.6847 81.7668 99.0265C77.8687 101.366 73.9705 103.708 70.0723 106.048C66.1741 108.388 62.2759 110.729 58.3778 113.069C54.4796 115.409 50.5814 117.751 46.6832 120.091C42.785 122.43 38.8868 124.772 34.9887 127.112C34.5103 127.4 34.0319 127.686 33.5535 127.975C33.3801 128.079 33.5389 128.349 33.7122 128.246C37.6104 125.906 41.5086 123.565 45.4068 121.225C49.305 118.885 53.2032 116.543 57.1013 114.204C60.9995 111.864 64.8977 109.522 68.7959 107.182C72.6941 104.842 76.5922 102.501 80.4904 100.161C84.3886 97.8212 88.2868 95.4793 92.185 93.1396C92.6634 92.8513 93.1418 92.5651 93.6202 92.2768C93.7936 92.1723 93.6348 91.9029 93.4614 92.0052Z" fill="black" stroke="#536F62" stroke-linejoin="round"/>
<path d="M125.001 56.2324C120.419 59.5018 115.867 62.8088 111.336 66.1471C108.098 68.5328 104.873 70.9352 101.622 73.3021C99.015 75.2011 96.3849 77.0708 93.6921 78.8486C90.9993 80.6263 88.1456 82.3728 85.2899 83.996C80.8339 86.5321 76.2568 88.851 71.5877 90.9672C70.8566 91.2993 70.1212 91.6252 69.3838 91.947C69.225 92.0159 69.3274 92.2248 69.4632 92.2394C73.6601 92.6698 77.8779 92.8808 82.0957 92.8682C87.5085 92.8515 92.9212 92.4776 98.2838 91.7527C103.646 91.0278 109.078 89.9143 114.353 88.452C118.136 87.4033 121.857 86.1624 125.54 84.8045C130.286 83.0538 134.957 81.1152 139.513 78.9133C141.517 77.9461 143.547 76.9768 145.469 75.8549C147.515 74.66 149.403 73.1726 150.993 71.4157C153.458 68.6957 155.526 64.9981 155.173 61.2044C154.847 57.7136 152.238 55.2234 149.292 53.6462C146.069 51.9206 142.405 51.0119 138.799 50.5293C138.039 50.4269 137.276 50.3455 136.511 50.2911C136.173 50.2661 135.833 50.2473 135.494 50.2347C135.131 50.2222 134.767 50.2159 134.406 50.2159C134.145 50.2159 133.8 50.1679 133.547 50.2347C133.23 50.3183 132.889 50.6609 132.62 50.851C132.223 51.1289 131.826 51.4067 131.429 51.6866C130.441 52.3802 129.457 53.0758 128.471 53.7715C127.313 54.5904 126.156 55.4135 125.001 56.2366C124.838 56.3536 124.995 56.6252 125.16 56.5082C127.282 54.9936 129.409 53.4874 131.54 51.9895C131.926 51.718 132.312 51.4464 132.699 51.1769C132.985 50.9763 133.363 50.5941 133.71 50.5439C134.314 50.4562 134.991 50.5293 135.599 50.5544C135.929 50.5669 136.261 50.5878 136.591 50.6129C140.038 50.8677 143.514 51.5696 146.74 52.8252C149.894 54.0535 153.314 56.0695 154.482 59.4475C155.649 62.8255 154.131 66.7989 152.052 69.6358C150.692 71.4909 148.994 73.0974 147.12 74.4239C145.246 75.7505 143.278 76.6989 141.285 77.6975C136.57 80.0623 131.728 82.1681 126.785 84.0127C123.457 85.2557 120.106 86.4339 116.703 87.4534C111.873 88.899 106.955 90.048 101.981 90.8815C96.4162 91.8153 90.7841 92.3564 85.1416 92.5131C81.0324 92.628 76.919 92.534 72.8224 92.229C71.7026 92.1454 70.5829 92.0451 69.4632 91.9302L69.5426 92.2227C74.5375 90.0417 79.4322 87.631 84.1931 84.9799C87.147 83.3338 90.0508 81.5978 92.8857 79.7573C95.5597 78.0213 98.1689 76.1913 100.751 74.3257C103.897 72.0529 107.008 69.7319 110.131 67.4277C114.464 64.2293 118.815 61.054 123.192 57.9162C123.846 57.4462 124.501 56.9782 125.157 56.5103C125.32 56.3933 125.164 56.1217 124.999 56.2387L125.001 56.2324Z" fill="black" stroke="#536F62" stroke-linejoin="round"/>
<path d="M191.881 36.2234C188.505 37.0966 185.129 37.9698 181.754 38.843C180.797 39.0916 179.84 39.3381 178.881 39.5867C178.687 39.6369 178.768 39.9398 178.965 39.8896C182.341 39.0164 185.716 38.1432 189.092 37.27C190.049 37.0214 191.006 36.7749 191.965 36.5263C192.159 36.4761 192.078 36.1732 191.881 36.2234Z" fill="black" stroke="#536F62" stroke-linejoin="round"/>
<path d="M166.662 42.8226C167.334 42.8226 167.88 42.2773 167.88 41.6046C167.88 40.932 167.334 40.3867 166.662 40.3867C165.989 40.3867 165.444 40.932 165.444 41.6046C165.444 42.2773 165.989 42.8226 166.662 42.8226Z" fill="black" stroke="#536F62" stroke-linejoin="round"/>
<path d="M167.457 33.842C167.049 35.8851 165.418 37.5563 163.444 38.1601C161.599 38.7241 159.687 38.2499 158.16 37.1239C157.799 36.8565 157.444 36.5557 157.153 36.211L156.932 36.4324C158.403 38.0702 159.006 40.6857 157.542 42.522C156.813 43.437 155.727 44.0094 154.613 44.3186C153.406 44.6549 152.138 44.6863 150.934 44.3144C149.923 44.0011 148.981 43.4391 148.212 42.7121C148.064 42.5721 147.861 42.7811 147.991 42.9336C149.292 44.4607 150.982 47.8031 148.62 49.1736C147.615 49.7564 146.359 49.8755 145.221 49.8755C143.944 49.8755 142.674 49.6812 141.483 49.2112C140.293 48.7411 139.139 47.9661 138.191 47.0469L138.231 47.1994C139.064 44.375 140.399 41.6968 142.225 39.3801C144.23 36.8356 146.792 34.7674 149.706 33.349C152.1 32.1833 154.699 31.4584 157.337 31.1178C159.351 30.8567 161.392 30.8087 163.416 30.9612C164.35 31.0322 165.29 31.1325 166.205 31.3267C166.629 31.4166 167.053 31.5127 167.478 31.6088L167.369 31.5001C167.549 32.271 167.597 33.0628 167.457 33.8441C167.421 34.0404 167.722 34.1261 167.76 33.9276C167.912 33.0899 167.866 32.2438 167.672 31.4166C167.659 31.3664 167.613 31.3184 167.563 31.3079C166.366 31.0343 165.19 30.8108 163.966 30.6938C161.998 30.5078 160.009 30.5162 158.041 30.7209C155.434 30.9925 152.862 31.6171 150.454 32.6617C147.546 33.9214 144.928 35.8057 142.825 38.1768C140.721 40.5478 139.154 43.3535 138.166 46.3575C138.082 46.6082 138.005 46.861 137.93 47.1158C137.915 47.1681 137.93 47.2307 137.97 47.2684C138.851 48.1228 139.871 48.8414 140.995 49.3428C142.258 49.9068 143.616 50.1596 144.997 50.1868C146.213 50.2097 147.531 50.0948 148.63 49.5266C149.094 49.2864 149.516 48.9417 149.779 48.4863C150.132 47.8742 150.157 47.1409 150.053 46.4599C149.842 45.0769 149.115 43.7692 148.214 42.7142L147.993 42.9356C148.689 43.5937 149.514 44.116 150.406 44.4648C151.668 44.9558 153.032 45.0143 154.346 44.7134C155.532 44.4419 156.71 43.8924 157.55 42.9921C158.53 41.9413 158.898 40.4914 158.614 39.0918C158.401 38.0452 157.868 37.0111 157.153 36.2151C157.018 36.0647 156.802 36.2841 156.932 36.4366C157.738 37.385 158.923 38.1099 160.103 38.4692C162.205 39.1085 164.505 38.4755 166.069 36.9568C166.913 36.1399 167.526 35.085 167.757 33.9276C167.797 33.7313 167.494 33.6456 167.455 33.8441L167.457 33.842Z" fill="black" stroke="#536F62" stroke-linejoin="round"/>
<path d="M173.689 54.5135C174.434 57.2961 174.909 60.1519 175.082 63.0285C175.289 66.4567 175.074 69.9057 174.432 73.2795C174.058 75.2474 173.553 77.1902 172.924 79.0934L173.227 79.1769C174.292 74.7293 174.804 69.8744 173.29 65.4644C172.544 63.2917 171.29 61.3447 169.634 59.7571C168.198 58.3825 166.521 57.2836 164.762 56.3707C163.287 55.604 161.75 54.9752 160.214 54.3422C159.648 54.1082 159.078 53.8764 158.53 53.6006C158.198 53.4335 157.803 53.2455 157.569 52.9446C157.434 52.7712 157.402 52.5665 157.613 52.4036C157.964 52.132 158.551 52.1215 158.971 52.086C159.809 52.015 160.651 51.9983 161.49 51.9565C162.642 51.9001 163.793 51.8124 164.937 51.6682C167.655 51.3235 170.34 50.6676 172.874 49.6189C174.698 48.8647 176.404 47.8996 178.053 46.8216C178.343 46.6315 178.633 46.4393 178.926 46.2513L178.696 46.0737C177.89 49.2512 176.062 52.0839 173.73 54.3589C173.586 54.501 173.808 54.7224 173.952 54.5804C176.321 52.2699 178.18 49.3849 178.997 46.1573C179.028 46.0299 178.886 45.9045 178.767 45.9797C177.28 46.9407 175.805 47.9037 174.207 48.6788C171.744 49.8737 169.097 50.6717 166.402 51.1355C164.196 51.5136 161.977 51.6097 159.748 51.7225C159.138 51.7539 158.497 51.7664 157.904 51.9356C157.574 52.0296 157.216 52.2093 157.156 52.5811C157.032 53.329 158.177 53.7865 158.691 54.0268C160.02 54.6472 161.403 55.1465 162.742 55.7461C166.502 57.4298 170.116 59.7717 172.103 63.5069C174.388 67.802 174.2 72.9432 173.26 77.5809C173.158 78.0885 173.045 78.592 172.924 79.0955C172.876 79.2918 173.162 79.3691 173.227 79.179C174.276 76.0078 174.988 72.7217 175.297 69.3939C175.625 65.8508 175.489 62.2702 174.921 58.7585C174.685 57.3024 174.374 55.8568 173.991 54.432C173.939 54.2378 173.636 54.3192 173.689 54.5156V54.5135Z" fill="black" stroke="#536F62" stroke-linejoin="round"/>
<path d="M74.815 92.668C74.9299 92.6743 75.0469 92.6805 75.1618 92.6868C75.2015 92.6889 75.2454 92.668 75.2725 92.6408C75.2997 92.6137 75.3206 92.5698 75.3185 92.5301C75.3164 92.4904 75.3039 92.4466 75.2725 92.4194C75.2412 92.3922 75.2057 92.3755 75.1618 92.3734C75.0469 92.3672 74.9299 92.3609 74.815 92.3546C74.7753 92.3525 74.7315 92.3734 74.7043 92.4006C74.6771 92.4278 74.6563 92.4716 74.6583 92.5113C74.6604 92.551 74.673 92.5949 74.7043 92.622C74.7356 92.6492 74.7712 92.6659 74.815 92.668Z" fill="black" stroke="#536F62" stroke-linejoin="round"/>
<path d="M81.564 92.5779C85.9302 90.7584 89.9286 88.1262 93.5511 85.1033C97.0043 82.2225 100.228 78.951 102.833 75.2743C103.771 73.9519 104.721 72.5209 105.202 70.9562C105.239 70.8329 105.085 70.6971 104.972 70.7786C102.148 72.8531 99.3336 74.9484 96.4611 76.9539C93.4382 79.0638 90.3256 81.0442 87.1481 82.914C85.0319 84.159 82.8864 85.3561 80.7138 86.503C80.5362 86.597 80.6929 86.8685 80.8726 86.7745C84.5869 84.815 88.226 82.7092 91.7691 80.4551C94.7293 78.5729 97.5955 76.557 100.43 74.4909C101.999 73.3482 103.566 72.1992 105.131 71.0502L104.901 70.8726C104.489 72.2096 103.708 73.4401 102.929 74.587C101.778 76.2812 100.468 77.8689 99.0871 79.3814C95.9305 82.8388 92.3519 85.9452 88.4433 88.5231C86.2393 89.975 83.9184 91.2597 81.4805 92.275C81.2966 92.3523 81.3781 92.6552 81.564 92.5779Z" fill="black" stroke="#536F62" stroke-linejoin="round"/>
<path d="M104.63 82.0215C102.552 84.8376 100.513 87.7288 98.1291 90.3005C97.9035 90.5449 97.6737 90.783 97.4397 91.0191C97.3269 91.1319 97.2141 91.2426 97.0992 91.3534C97.001 91.4495 96.8924 91.5852 96.7691 91.6375C96.6584 91.6834 96.4788 91.673 96.3576 91.6876C96.2364 91.7022 96.1173 91.7148 95.9983 91.7294C95.71 91.7628 95.4196 91.7941 95.1292 91.8255C94.5902 91.884 94.0534 91.9383 93.5144 91.9884C91.4671 92.1827 89.4136 92.3248 87.36 92.4146C85.3065 92.5044 83.0963 92.5483 80.9633 92.5358L81.0427 92.8282C84.7967 91.0692 88.415 88.9593 91.7241 86.4587C93.0819 85.433 94.3897 84.3425 95.6995 83.2541C97.6298 81.6497 99.5643 80.0516 101.505 78.4618C103.151 77.1122 104.797 75.7627 106.471 74.4466C107.513 73.6256 108.56 72.8004 109.669 72.0714C109.985 71.8645 110.306 71.6598 110.649 71.501C110.751 71.453 110.856 71.4133 110.971 71.3841C111.05 71.3632 111.102 71.3694 111.14 71.3715C111.163 71.3715 111.167 71.3861 111.161 71.3778C111.19 71.4112 111.194 71.407 111.209 71.4697C111.236 71.5804 111.2 71.7496 111.169 71.8771C111.039 72.3784 110.791 72.8506 110.549 73.3039C109.792 74.7161 108.89 76.0531 107.981 77.3713C107.072 78.6895 106.122 80.0035 105.169 81.3008C104.992 81.5411 104.814 81.7834 104.637 82.0236C104.517 82.1866 104.789 82.3432 104.908 82.1824C106.834 79.5732 108.8 76.9556 110.436 74.15C110.749 73.611 111.054 73.0616 111.292 72.4829C111.426 72.1612 111.608 71.735 111.512 71.3778C111.359 70.8033 110.655 71.1459 110.323 71.3172C109.383 71.806 108.526 72.4787 107.687 73.118C106.203 74.244 104.756 75.4159 103.312 76.59C101.294 78.232 99.2802 79.8844 97.2768 81.5452C95.7476 82.8133 94.2309 84.1001 92.6746 85.3369C89.4345 87.9085 85.8956 90.0957 82.1917 91.9341C81.7593 92.1493 81.3268 92.3582 80.8902 92.5608C80.744 92.6298 80.8234 92.8512 80.9696 92.8533C84.9764 92.8763 88.9832 92.7133 92.9733 92.354C94.0722 92.2558 95.1689 92.1409 96.2636 92.0135C96.4662 91.9905 96.7796 92.0135 96.9613 91.9174C97.0804 91.8568 97.1911 91.7085 97.2893 91.6145C97.5212 91.3931 97.7489 91.1653 97.9724 90.9335C99.0274 89.8388 99.9946 88.6606 100.933 87.4656C102.295 85.7317 103.602 83.9539 104.91 82.1782C105.029 82.0153 104.758 81.8586 104.639 82.0194L104.63 82.0215Z" fill="black" stroke="#536F62" stroke-linejoin="round"/>
<path d="M109.665 89.5992C110.896 87.8047 111.806 85.8076 112.671 83.8167C113.536 81.8258 114.32 79.9164 115.115 77.9548C115.794 76.2794 116.471 74.5914 116.971 72.8533C117.144 72.2475 117.313 71.6208 117.344 70.9899C117.361 70.6723 117.347 70.219 117.027 70.0414C116.615 69.8137 116.116 70.2587 115.83 70.5073C115.072 71.1654 114.418 71.955 113.762 72.7113C111.046 75.8448 108.382 79.0223 105.602 82.1016C104.261 83.5869 102.905 85.0576 101.541 86.522C100.312 87.8402 99.061 89.1438 97.8849 90.5121C97.5611 90.8902 97.2415 91.2746 96.9448 91.6736C96.8237 91.8366 97.0973 91.9912 97.2164 91.8324C98.3278 90.3345 99.6648 88.9975 100.933 87.6355C102.157 86.3215 103.381 85.0095 104.591 83.683C107.459 80.5431 110.233 77.3218 112.993 74.0879C113.785 73.1604 114.568 72.2224 115.414 71.345C115.757 70.9899 116.254 70.3924 116.741 70.3005C116.768 70.2942 116.851 70.3047 116.849 70.3047C116.948 70.3652 116.983 70.4446 117.01 70.5595C117.115 71.0296 116.968 71.579 116.862 72.0365C116.48 73.6764 115.849 75.2662 115.232 76.8309C114.497 78.6922 113.726 80.5431 112.949 82.3878C112.118 84.3578 111.267 86.334 110.192 88.187C109.943 88.6153 109.678 89.0372 109.398 89.4467C109.283 89.6138 109.554 89.7705 109.669 89.6055L109.665 89.5992Z" fill="black" stroke="#536F62" stroke-linejoin="round"/>
<path d="M110.078 89.5029C112.1 86.2899 114.143 83.0895 116.269 79.9455C117.475 78.1593 118.699 76.3774 120.034 74.6852C120.406 74.2152 120.786 73.7514 121.198 73.3148C121.427 73.0704 121.703 72.7967 121.941 72.6338C121.985 72.6024 122.033 72.5753 122.079 72.5481C122.098 72.5377 122.119 72.5272 122.138 72.5189C122.175 72.5022 122.115 72.5251 122.167 72.5063C122.198 72.4959 122.286 72.475 122.232 72.4854C122.28 72.475 122.301 72.4875 122.278 72.4833C122.305 72.4896 122.307 72.4645 122.328 72.523C122.386 72.6797 122.388 72.8385 122.378 73.0035C122.34 73.647 122.154 74.2883 121.983 74.9046C121.492 76.6573 120.87 78.3724 120.255 80.0854C119.553 82.0471 118.751 83.9836 117.87 85.8638C117.634 86.3651 117.393 86.8644 117.145 87.3595C117.055 87.5392 117.324 87.698 117.416 87.5183C117.68 86.9919 117.937 86.4633 118.185 85.9306C118.283 85.7196 118.373 85.5003 118.465 85.2914C118.392 85.4564 118.482 85.2872 118.501 85.2454C118.526 85.1932 118.549 85.1389 118.572 85.0866C118.632 84.9529 118.693 84.8171 118.751 84.6834C119.186 83.7037 119.597 82.7114 119.984 81.7128C120.713 79.8306 121.388 77.9149 121.989 75.9888C122.223 75.2388 122.451 74.4805 122.597 73.7075C122.67 73.3211 122.814 72.7466 122.604 72.3768C122.466 72.1366 122.213 72.1407 121.991 72.2431C121.737 72.3601 121.517 72.5606 121.315 72.7528C120.941 73.1059 120.604 73.4965 120.276 73.8914C119.004 75.4227 117.863 77.0647 116.737 78.7025C114.676 81.7045 112.703 84.7691 110.754 87.8463C110.437 88.3456 110.121 88.8469 109.806 89.3483C109.697 89.5196 109.969 89.6763 110.078 89.5071V89.5029Z" fill="black" stroke="#536F62" stroke-linejoin="round"/>
<path d="M124.353 84.928C124.353 84.928 124.347 84.9406 124.343 84.9468C124.332 84.9656 124.326 84.9844 124.324 85.0053C124.32 85.0262 124.32 85.0471 124.326 85.068C124.33 85.0889 124.34 85.1056 124.353 85.1223C124.363 85.139 124.378 85.1536 124.397 85.162L124.434 85.1787C124.462 85.1871 124.491 85.1871 124.518 85.1787L124.556 85.162C124.579 85.1474 124.597 85.1286 124.612 85.1056C124.614 85.0993 124.618 85.0931 124.622 85.0868C124.633 85.068 124.639 85.0492 124.641 85.0283C124.645 85.0074 124.645 84.9865 124.639 84.9656C124.635 84.9447 124.625 84.928 124.612 84.9113C124.602 84.8946 124.587 84.88 124.568 84.8716L124.531 84.8549C124.503 84.8465 124.474 84.8465 124.447 84.8549L124.409 84.8716C124.386 84.8862 124.368 84.905 124.353 84.928Z" fill="black" stroke="#536F62" stroke-linejoin="round"/>
<path d="M127.194 78.5103C127.194 78.41 127.275 78.2512 127.304 78.151C127.35 77.988 127.394 77.8251 127.438 77.6621C127.501 77.4219 127.561 77.1816 127.62 76.9393C127.753 76.392 127.875 75.8405 127.985 75.2869C128.182 74.305 128.409 73.2647 128.374 72.2577C128.363 71.9736 128.32 71.4555 127.931 71.466C127.764 71.4702 127.609 71.5746 127.482 71.6707C126.876 72.1261 126.4 72.78 125.94 73.3754C124.944 74.6685 124.029 76.0222 123.126 77.3822C121.574 79.724 120.08 82.1055 118.605 84.4975C118.488 84.6855 118.374 84.8756 118.257 85.0637C118.217 85.1263 118.148 85.2078 118.148 85.2893C118.148 85.4919 118.461 85.4919 118.461 85.2893C118.461 85.3519 118.399 85.4313 118.501 85.2663C118.555 85.1786 118.61 85.0908 118.664 85.0031C118.77 84.8297 118.877 84.6584 118.984 84.485C119.205 84.1257 119.429 83.7643 119.652 83.4049C120.049 82.7657 120.448 82.1285 120.849 81.4935C121.518 80.4364 122.19 79.3814 122.875 78.3348C123.822 76.8892 124.783 75.4477 125.813 74.0606C126.318 73.3796 126.836 72.6714 127.463 72.0948C127.551 72.0133 127.628 71.9465 127.695 71.9005C127.728 71.8775 127.762 71.8566 127.797 71.8357C127.816 71.8253 127.908 71.7814 127.856 71.8044C127.881 71.794 127.906 71.7877 127.933 71.7814C127.954 71.7752 127.91 71.7981 127.969 71.7814C127.948 71.7877 127.954 71.7814 127.952 71.7772C127.975 71.8274 128.023 71.9089 128.04 71.9966C128.113 72.3935 128.054 72.828 128.01 73.225C127.944 73.8329 127.837 74.4366 127.718 75.0362C127.599 75.6357 127.465 76.2541 127.319 76.8578C127.256 77.1169 127.191 77.3738 127.123 77.6308C127.077 77.8042 127.029 77.9755 126.98 78.1468C126.949 78.2575 126.88 78.3975 126.88 78.5124C126.88 78.715 127.194 78.715 127.194 78.5124V78.5103Z" fill="black" stroke="#536F62" stroke-linejoin="round"/>
<path d="M124.94 84.6921C124.702 84.7632 124.466 84.8509 124.229 84.9282L124.422 85.1204C125.147 82.9227 126.026 80.7773 127.1 78.7279C127.61 77.7544 128.278 76.7934 128.884 75.8533C129.396 75.0574 129.918 74.2698 130.463 73.4969C130.866 72.9266 131.28 72.3625 131.727 71.8256C132.013 71.483 132.314 71.1321 132.667 70.8584C132.759 70.7874 132.884 70.7017 132.976 70.6683C133.016 70.6537 133.077 70.6391 133.079 70.6391C133.121 70.6349 133.148 70.6432 133.144 70.6411C133.21 70.6725 133.246 70.7498 133.275 70.8563C133.321 71.0318 133.317 71.2219 133.311 71.4016C133.286 72.1453 133.114 72.889 132.945 73.6118C132.661 74.8255 132.312 76.0226 131.946 77.2154C131.888 77.4097 132.189 77.4912 132.249 77.299C132.596 76.1646 132.93 75.024 133.206 73.8687C133.382 73.1355 133.549 72.3897 133.609 71.6355C133.651 71.1321 133.62 70.0416 132.824 70.3925C132.502 70.5346 132.233 70.8062 131.992 71.0569C131.568 71.4977 131.188 71.9844 130.82 72.4732C129.567 74.1424 128.451 75.9181 127.355 77.6917C125.968 79.9374 124.952 82.5091 124.119 85.0389C124.083 85.1496 124.2 85.2687 124.311 85.2311C124.547 85.1517 124.783 85.0661 125.021 84.9951C125.213 84.9366 125.132 84.6357 124.938 84.6921H124.94Z" fill="black" stroke="#536F62" stroke-linejoin="round"/>
<path d="M129.965 83.0474C130.538 80.9917 131.333 79.003 132.349 77.1249C133.364 75.2468 134.484 73.5255 135.821 71.9378C136.31 71.357 136.834 70.7575 137.463 70.325C137.688 70.1683 138.083 69.8968 138.357 70.0931C138.378 70.1078 138.43 70.1725 138.468 70.2456C138.509 70.325 138.543 70.4441 138.566 70.5548C138.641 70.9204 138.626 71.309 138.603 71.6787C138.48 73.6905 137.933 75.6939 137.423 77.6346C137.371 77.8289 137.674 77.9125 137.726 77.7182C138.221 75.838 138.722 73.914 138.896 71.9712C138.936 71.52 138.959 71.0562 138.892 70.605C138.856 70.3647 138.791 70.1015 138.622 69.9177C137.952 69.1844 136.736 70.488 136.312 70.9225C134.847 72.4287 133.652 74.2357 132.595 76.0428C131.327 78.2154 130.337 80.5405 129.662 82.9638C129.608 83.1581 129.911 83.2417 129.965 83.0474Z" fill="black" stroke="#536F62" stroke-linejoin="round"/>
<path d="M140.551 78.4042C141.622 77.884 142.671 77.3054 143.711 76.7246C143.801 76.6745 143.931 76.6306 144.002 76.5554C144.066 76.4864 144.073 76.3736 144.098 76.2859C144.185 75.9746 144.271 75.6613 144.355 75.35C144.505 74.7859 144.649 74.2219 144.785 73.6558C145.011 72.7032 145.217 71.7401 145.349 70.7687C145.439 70.1148 145.516 69.4317 145.42 68.7736C145.366 68.3997 145.224 67.938 144.808 67.8336C144.455 67.7437 144.083 67.9589 143.801 68.1469C143.408 68.406 143.045 68.7193 142.702 69.041C141.29 70.3676 140.2 72.0221 139.274 73.7122C138.167 75.7323 137.277 77.8694 136.514 80.042C136.448 80.2321 136.751 80.3136 136.817 80.1256C137.459 78.2997 138.192 76.5031 139.069 74.7755C139.947 73.0478 140.864 71.527 142.082 70.1399C142.66 69.4797 143.314 68.8154 144.066 68.3516C144.282 68.22 144.637 68.009 144.871 68.2138C144.99 68.3182 145.042 68.4916 145.078 68.6399C145.211 69.1998 145.146 69.8203 145.082 70.3864C144.983 71.2638 144.808 72.1328 144.616 72.9935C144.493 73.545 144.357 74.0945 144.217 74.6418C144.137 74.9489 144.056 75.2539 143.974 75.561C143.903 75.8221 143.874 76.2566 143.642 76.4071C143.143 76.7267 142.592 76.9878 142.069 77.2657C141.516 77.5602 140.96 77.861 140.396 78.1347C140.214 78.2224 140.373 78.494 140.555 78.4063L140.551 78.4042Z" fill="black" stroke="#536F62" stroke-linejoin="round"/>
</g>
<defs>
<filter id="filter0_d_1485_760" x="5.84961" y="30.0605" width="190.841" height="121.097" filterUnits="userSpaceOnUse" color-interpolation-filters="sRGB">
<feFlood flood-opacity="0" result="BackgroundImageFix"/>
<feColorMatrix in="SourceAlpha" type="matrix" values="0 0 0 0 0 0 0 0 0 0 0 0 0 0 0 0 0 0 127 0" result="hardAlpha"/>
<feOffset dy="4"/>
<feGaussianBlur stdDeviation="2"/>
<feComposite in2="hardAlpha" operator="out"/>
<feColorMatrix type="matrix" values="0 0 0 0 0 0 0 0 0 0 0 0 0 0 0 0 0 0 0.25 0"/>
<feBlend mode="normal" in2="BackgroundImageFix" result="effect1_dropShadow_1485_760"/>
<feBlend mode="normal" in="SourceGraphic" in2="effect1_dropShadow_1485_760" result="shape"/>
</filter>
</defs>
</svg>
