<svg width="50" height="60" viewBox="0 0 50 60" fill="none" xmlns="http://www.w3.org/2000/svg">
<path d="M23.4681 48.5522C25.8417 48.6826 28.2414 48.4153 30.5172 47.7371C32.3301 47.1959 34.0711 46.3873 35.6492 45.3439C36.986 44.4571 38.2054 43.4072 39.2944 42.2334C40.2335 41.2161 41.0747 40.1141 41.8246 38.9469C42.4115 38.0339 42.9331 37.0884 43.4092 36.1168C44.0678 34.7734 44.6547 33.404 45.0981 31.976C45.7371 29.9219 46.1154 27.7895 46.2327 25.6441C46.3371 23.7856 46.2458 21.9206 45.9915 20.0752C45.7828 18.5754 45.4698 17.0886 45.0459 15.6344C44.772 14.6889 44.459 13.7564 44.0873 12.85C44.0352 12.7261 43.983 12.5957 43.9308 12.4718C43.9178 12.4979 43.9113 12.5239 43.8982 12.5565C43.9048 12.55 43.9113 12.55 43.9178 12.5435C44.0026 12.4979 43.9243 12.374 43.8461 12.4196C43.8395 12.4261 43.833 12.4261 43.8265 12.4326C43.8004 12.4457 43.7809 12.4848 43.7939 12.5174C44.1069 13.2608 44.3808 14.0172 44.6286 14.7867C45.0459 16.0909 45.385 17.4212 45.6328 18.771C45.9523 20.5186 46.1219 22.2989 46.1284 24.0791C46.1349 26.1527 45.9067 28.2329 45.4241 30.2544C44.9938 32.0672 44.3482 33.8018 43.5526 35.4842C43.1418 36.358 42.6984 37.2188 42.2093 38.047C41.5442 39.1751 40.8008 40.251 39.9596 41.2553C38.9684 42.4421 37.8533 43.5311 36.6274 44.4701C35.2188 45.5461 33.6669 46.4264 32.0171 47.072C29.8456 47.9197 27.5176 48.3762 25.1896 48.4348C24.6158 48.4479 24.0419 48.4414 23.4746 48.4088C23.3703 48.4022 23.3703 48.5457 23.4681 48.5522Z" fill="#C7B8A4" stroke="#C7B8A4" stroke-width="0.65" stroke-linejoin="round"/>
<path d="M20.9516 48.1091C18.3693 47.6331 15.8783 46.681 13.6872 45.2203C11.6788 43.877 9.98985 42.1163 8.68566 40.0948C7.51189 38.282 6.65112 36.2931 5.95338 34.2521C5.64037 33.3261 5.35345 32.3871 5.08609 31.4415C4.79917 30.4373 4.51225 29.4265 4.29706 28.4028C3.89928 26.5443 3.74278 24.6532 3.49498 22.7687C3.20154 20.5059 2.68638 18.3018 1.98212 16.1303C1.74736 15.413 1.51261 14.6761 1.38871 13.9328C1.36263 13.7632 1.23221 13.2024 1.43436 13.085C1.59086 12.9937 1.8843 13.2676 1.98864 13.3589C2.5364 13.8219 2.99287 14.4023 3.44933 14.95C3.60584 15.1391 3.75582 15.3413 3.93188 15.5173C3.99057 15.576 4.17316 15.6934 4.1536 15.5108C4.14708 15.4456 4.06882 15.3674 4.0297 15.3152C3.93188 15.1783 3.82755 15.0478 3.72973 14.9044C3.40369 14.4479 3.12328 13.9523 2.92114 13.4306C2.47119 12.2764 2.39294 10.9136 2.71899 9.71369C2.77115 9.52459 2.82984 9.33548 2.92114 9.15941C2.95374 9.10072 3.03851 8.91814 3.12329 8.93118C3.19502 8.9377 3.24066 9.10725 3.26023 9.16593C3.32543 9.342 3.3776 9.53111 3.42977 9.70717C3.79494 10.8875 4.3101 12.0026 5.02088 13.0133C5.28824 13.3915 5.57517 13.7567 5.88165 14.1023C5.9273 14.1479 6.00555 14.1088 6.00555 14.0501C5.99903 13.5024 5.99903 12.9546 6.07076 12.4069C6.10336 12.1786 6.12945 11.8721 6.27943 11.683C6.56635 11.3048 7.15976 12.0547 7.31626 12.2438C7.94879 13.0198 8.46395 13.8936 9.03779 14.7153C9.66381 15.6217 10.3355 16.5085 11.131 17.2715C12.5526 18.6278 14.2937 19.6255 16.1196 20.3363C18.0498 21.0862 20.1104 21.5231 22.1775 21.5884C24.1273 21.6536 26.1162 21.3797 27.9094 20.5841C29.5788 19.8407 30.9482 18.6213 31.9916 17.1345C33.0219 15.6739 33.7392 14.024 34.4174 12.3742C35.076 10.7831 35.6824 9.15289 36.5693 7.66611C37.3844 6.30976 38.4799 5.1099 39.9732 4.50345C41.7013 3.80571 43.9836 3.4927 45.3595 5.04469C45.7508 5.48811 46.0181 6.02935 46.1877 6.59668C46.2138 6.68797 46.3572 6.64884 46.3312 6.55755C46.0051 5.47507 45.3139 4.50997 44.2444 4.06655C43.2924 3.66877 42.2164 3.72093 41.2252 3.94917C39.758 4.28826 38.4604 5.01208 37.4692 6.15325C36.3802 7.40528 35.6824 8.94422 35.0434 10.4571C34.3261 12.1591 33.687 13.8936 32.8067 15.5173C31.9198 17.1541 30.7656 18.6604 29.2006 19.7038C27.5182 20.8189 25.5097 21.321 23.5143 21.4253C21.3754 21.5362 19.217 21.2101 17.1759 20.5515C15.2001 19.9125 13.2895 18.9474 11.7049 17.591C10.8571 16.8672 10.1464 16.0129 9.49426 15.113C8.86825 14.2458 8.31397 13.3263 7.67491 12.4655C7.46624 12.1786 7.24453 11.8917 6.97065 11.6635C6.81415 11.533 6.60548 11.4026 6.39028 11.4287C6.00555 11.4874 5.95338 12.1004 5.92078 12.3873C5.84905 12.9285 5.84905 13.4828 5.85557 14.0306C5.89469 14.011 5.94034 13.998 5.97946 13.9784C5.17739 13.072 4.51225 12.0482 4.0297 10.9331C3.80146 10.4049 3.63192 9.86368 3.46237 9.32244C3.41673 9.16593 3.35152 8.82032 3.15589 8.76816C2.94722 8.71599 2.79724 9.02247 2.73203 9.16593C2.54944 9.57675 2.46467 10.0332 2.4125 10.4766C2.26904 11.7482 2.49727 13.0459 3.10372 14.174C3.31891 14.5718 3.57975 14.95 3.85363 15.3152C3.88624 15.3608 3.91884 15.413 3.95145 15.4521C3.96449 15.4652 3.97753 15.4978 3.99057 15.5043C4.01014 15.5173 4.09491 15.4978 4.08839 15.4521C4.08839 15.4326 3.97101 15.3348 3.95145 15.3152C3.49498 14.8066 3.08416 14.2588 2.61465 13.7567C2.39294 13.5154 2.15818 13.2741 1.89082 13.0785C1.75388 12.9807 1.54521 12.8372 1.36915 12.922C1.167 13.0133 1.17352 13.3198 1.18004 13.5089C1.1996 13.9001 1.2909 14.2979 1.38871 14.6761C1.61694 15.5826 1.93647 16.4564 2.19731 17.3497C2.54292 18.53 2.83636 19.7299 3.05155 20.9363C3.39717 22.8339 3.52758 24.751 3.82103 26.6551C4.14055 28.7288 4.70136 30.7503 5.31433 32.7522C5.93382 34.7998 6.67721 36.8148 7.69448 38.6994C8.80956 40.7665 10.2572 42.6445 12.057 44.1574C14.0589 45.8463 16.4456 47.0592 18.9562 47.77C19.5952 47.9526 20.2408 48.1026 20.8929 48.22C21.0038 48.2656 21.0429 48.1287 20.9516 48.1091Z" fill="#C7B8A4" stroke="#C7B8A4" stroke-width="0.65" stroke-linejoin="round"/>
<path d="M37.9838 11.8726C37.9773 12.1269 37.8208 12.3617 37.5795 12.4464C37.3383 12.5312 37.0579 12.4595 36.8948 12.2573C36.7318 12.0617 36.7123 11.7748 36.8427 11.5596C36.9731 11.3444 37.2339 11.227 37.4817 11.2727C37.7687 11.3248 37.9773 11.5792 37.9838 11.8726C37.9838 11.9639 38.1338 11.9704 38.1273 11.8726C38.1208 11.5596 37.9317 11.2727 37.6317 11.1618C37.3383 11.051 36.9861 11.1423 36.784 11.39C36.5818 11.6378 36.5558 11.99 36.7188 12.2639C36.8818 12.5377 37.2013 12.6747 37.5143 12.6225C37.873 12.5573 38.1273 12.2378 38.1338 11.8791C38.1273 11.7813 37.9838 11.7813 37.9838 11.8726Z" fill="#C7B8A4"/>
<path d="M37.9838 11.8726C37.9773 12.1269 37.8208 12.3617 37.5795 12.4464C37.3383 12.5312 37.0579 12.4595 36.8948 12.2573C36.7318 12.0617 36.7123 11.7748 36.8427 11.5596C36.9731 11.3444 37.2339 11.227 37.4817 11.2727C37.7687 11.3248 37.9773 11.5792 37.9838 11.8726ZM37.9838 11.8726C37.9838 11.9639 38.1338 11.9704 38.1273 11.8726C38.1208 11.5596 37.9317 11.2727 37.6317 11.1618C37.3383 11.051 36.9861 11.1423 36.784 11.39C36.5818 11.6378 36.5558 11.99 36.7188 12.2639C36.8818 12.5377 37.2013 12.6747 37.5143 12.6225C37.873 12.5573 38.1273 12.2378 38.1338 11.8791C38.1273 11.7813 37.9838 11.7813 37.9838 11.8726Z" stroke="#C7B8A4" stroke-width="0.65" stroke-linejoin="round"/>
<path d="M43.1227 6.60338C43.3496 6.60338 43.5336 6.41945 43.5336 6.19256C43.5336 5.96567 43.3496 5.78174 43.1227 5.78174C42.8958 5.78174 42.7119 5.96567 42.7119 6.19256C42.7119 6.41945 42.8958 6.60338 43.1227 6.60338Z" fill="#C7B8A4" stroke="#C7B8A4" stroke-width="0.65" stroke-linejoin="round"/>
<path d="M44.9549 7.56215C45.5287 7.47085 46.0373 7.13176 46.3373 6.63617C46.3243 6.64921 46.3112 6.65573 46.2917 6.66878C46.9112 6.51879 47.5698 6.61661 48.1045 6.97526C48.4892 7.2361 48.7892 7.61431 48.9979 8.02513C49.05 8.13599 49.1022 8.24685 49.1348 8.3577C49.1674 8.3251 49.1935 8.29901 49.2261 8.26641C48.3784 7.99253 47.4589 7.96645 46.5981 8.19468C46.5069 8.22076 46.546 8.3577 46.6373 8.33814C47.4785 8.11643 48.3653 8.14251 49.187 8.40987C49.2391 8.42943 49.2913 8.37075 49.2783 8.31858C49.1218 7.84907 48.8348 7.40564 48.4697 7.07307C48.1501 6.77963 47.7524 6.57748 47.322 6.49271C47.0872 6.44706 46.8525 6.44054 46.6112 6.46011C46.5199 6.46663 46.4286 6.48619 46.3373 6.49923C46.3047 6.50575 46.2656 6.50575 46.233 6.52531C46.1938 6.5514 46.1678 6.61009 46.1417 6.64921C45.8548 7.06655 45.4048 7.32739 44.9092 7.40564C44.8244 7.43173 44.8636 7.57519 44.9549 7.56215Z" fill="#C7B8A4" stroke="#C7B8A4" stroke-width="0.65" stroke-linejoin="round"/>
<path d="M49.273 8.31148C49.273 8.22671 49.097 8.16802 49.0383 8.13542C48.9339 8.07673 48.8296 8.02456 48.7253 7.97239C48.4905 7.86154 48.2427 7.7572 47.9949 7.67243C47.395 7.47028 46.769 7.3529 46.1365 7.33334C45.7582 7.3203 45.3865 7.34638 45.0149 7.41159C44.9236 7.42463 44.9627 7.56809 45.054 7.55505C46.2212 7.35942 47.4406 7.55505 48.5166 8.0376C48.7383 8.13542 48.96 8.25279 49.1687 8.37669C49.1557 8.35713 49.1426 8.33757 49.1296 8.31148C49.1231 8.4093 49.273 8.4093 49.273 8.31148Z" fill="#C7B8A4" stroke="#C7B8A4" stroke-width="0.65" stroke-linejoin="round"/>
<path d="M41.4536 3.97539C41.0102 3.20592 40.6254 2.143 41.2188 1.34744C41.6753 0.740993 42.5296 0.414945 43.2729 0.473634C43.4686 0.486676 43.6642 0.532322 43.8337 0.623616C44.062 0.740993 44.2315 0.92358 44.3489 1.14529C44.375 1.19746 44.4467 1.19094 44.4728 1.14529C44.6097 0.943143 44.7923 0.740993 45.0336 0.675783C45.2423 0.617095 45.4575 0.682304 45.6401 0.78664C46.1422 1.08008 46.4878 1.66697 46.6117 2.22125C46.6834 2.56034 46.6638 2.90595 46.566 3.23852C46.553 3.27765 46.5921 3.33633 46.6378 3.32981C46.8856 3.30373 47.1529 3.31025 47.3746 3.44067C47.5377 3.53848 47.6485 3.68847 47.7268 3.85801C47.9485 4.33404 47.9093 4.92093 47.8115 5.42304C47.7333 5.82082 47.6029 6.21208 47.4398 6.58377C47.4007 6.66854 47.5311 6.74679 47.5637 6.6555C47.8441 6.00993 48.0528 5.30566 48.0202 4.59488C48.0006 4.13841 47.8767 3.61674 47.479 3.34285C47.2312 3.17331 46.9182 3.14723 46.6247 3.18635C46.6508 3.21896 46.6704 3.24504 46.6964 3.27765C46.8921 2.61903 46.7551 1.92129 46.39 1.34744C46.1096 0.910538 45.6009 0.401903 45.0271 0.519281C44.7271 0.58449 44.4989 0.825765 44.3359 1.06704C44.375 1.06704 44.4206 1.06704 44.4598 1.06704C44.2511 0.669262 43.8924 0.421466 43.4555 0.349736C43.0512 0.278005 42.6209 0.330173 42.2361 0.460592C41.8449 0.597532 41.4666 0.819245 41.1862 1.12573C40.8406 1.51047 40.7037 1.99954 40.7559 2.50817C40.8145 3.04289 41.0363 3.57761 41.3036 4.0406C41.3688 4.13189 41.4992 4.05364 41.4536 3.97539Z" fill="#C7B8A4" stroke="#C7B8A4" stroke-width="0.65" stroke-linejoin="round"/>
<path d="M46.1826 6.66211C46.1694 6.66211 46.1629 6.66211 46.1563 6.66867C46.1497 6.66867 46.1366 6.67524 46.13 6.6818C46.1235 6.68836 46.1169 6.69493 46.1169 6.70806C46.1103 6.71462 46.1104 6.72775 46.1104 6.73431C46.1104 6.74088 46.1104 6.74744 46.1104 6.75401C46.1169 6.76713 46.1169 6.78026 46.13 6.78683C46.1366 6.79339 46.1432 6.79339 46.1432 6.79995C46.1563 6.80652 46.1694 6.81308 46.1826 6.81308C46.1957 6.81308 46.2022 6.81308 46.2088 6.80652C46.2154 6.80652 46.2285 6.79996 46.2351 6.79339C46.2416 6.78683 46.2482 6.78026 46.2482 6.76713C46.2548 6.76057 46.2548 6.74744 46.2548 6.74088C46.2548 6.73431 46.2548 6.72775 46.2548 6.72119C46.2482 6.70806 46.2482 6.69493 46.2351 6.68837C46.2285 6.6818 46.2219 6.6818 46.2219 6.67524C46.2088 6.66867 46.1957 6.66211 46.1826 6.66211Z" fill="#C7B8A4" stroke="#C7B8A4" stroke-width="0.65" stroke-linejoin="round"/>
<path d="M46.591 8.3575C46.7671 8.52704 46.9105 8.73571 47.0344 8.94439C47.2887 9.37477 47.4452 9.87036 47.4322 10.3725C47.3996 11.5006 46.4867 12.5374 45.3781 12.7331C44.8238 12.8309 44.2565 12.6809 43.8065 12.3418C43.3957 12.0288 43.0958 11.5789 42.9327 11.0963C42.5741 10.0464 43.024 8.91178 43.7935 8.16839C44.0804 7.88799 44.4586 7.61411 44.8695 7.56194C45.4107 7.49673 45.9715 7.76409 46.3693 8.12274C46.4475 8.201 46.5193 8.27925 46.591 8.3575C46.6562 8.42923 46.7605 8.32489 46.6953 8.25316C46.3236 7.84234 45.8411 7.52282 45.2803 7.43804C45.0455 7.40544 44.8108 7.40544 44.5825 7.48369C44.3673 7.55542 44.1717 7.6728 43.9891 7.80974C43.1023 8.47488 42.4893 9.64213 42.6849 10.7637C42.8741 11.8527 43.7739 12.8504 44.9151 12.9091C46.1019 12.9743 47.1974 12.0418 47.4909 10.9202C47.7322 9.99426 47.3735 9.00959 46.741 8.31185C46.7214 8.29229 46.7084 8.27273 46.6888 8.25316C46.6301 8.18795 46.5258 8.29229 46.591 8.3575Z" fill="#C7B8A4"/>
<path d="M46.591 8.3575C46.7671 8.52704 46.9105 8.73571 47.0344 8.94439C47.2887 9.37477 47.4452 9.87036 47.4322 10.3725C47.3996 11.5006 46.4867 12.5374 45.3781 12.7331C44.8238 12.8309 44.2565 12.6809 43.8065 12.3418C43.3957 12.0288 43.0958 11.5789 42.9327 11.0963C42.5741 10.0464 43.024 8.91178 43.7935 8.16839C44.0804 7.88799 44.4586 7.61411 44.8695 7.56194C45.4107 7.49673 45.9715 7.76409 46.3693 8.12274C46.4475 8.201 46.5193 8.27925 46.591 8.3575ZM46.591 8.3575C46.6562 8.42923 46.7605 8.32489 46.6953 8.25316C46.3236 7.84234 45.8411 7.52282 45.2803 7.43804C45.0455 7.40544 44.8108 7.40544 44.5825 7.48369C44.3673 7.55542 44.1717 7.6728 43.9891 7.80974C43.1023 8.47488 42.4893 9.64213 42.6849 10.7637C42.8741 11.8527 43.7739 12.8504 44.9151 12.9091C46.1019 12.9743 47.1974 12.0418 47.4909 10.9202C47.7322 9.99426 47.3735 9.00959 46.741 8.31185C46.7214 8.29229 46.7084 8.27273 46.6888 8.25316C46.6301 8.18795 46.5258 8.29229 46.591 8.3575Z" stroke="#C7B8A4" stroke-width="0.65" stroke-linejoin="round"/>
<path d="M8.52192 20.3499C8.22196 20.6955 7.98068 21.0867 7.77853 21.491C7.40684 22.241 7.19165 23.0756 7.2699 23.9168C7.4264 25.5797 8.69147 26.8904 10.2108 27.4708C11.1629 27.8359 12.1997 27.9142 13.1974 27.7446C13.1714 27.7055 13.1453 27.6729 13.1127 27.6338C12.7475 28.1881 12.4475 28.8336 12.4867 29.5118C12.5062 29.8509 12.604 30.1835 12.7671 30.4834C13.1257 31.1355 13.7517 31.6181 14.3777 31.9963C15.2711 32.531 16.2688 32.8962 17.2665 33.1896C18.5642 33.5744 19.901 33.8287 21.2378 34.0243C22.8485 34.2591 24.4722 34.396 26.0959 34.4743C26.3111 34.4873 26.5328 34.4938 26.748 34.5004C26.8393 34.5069 26.8393 34.3569 26.748 34.3569C25.1178 34.2982 23.4875 34.1808 21.8703 33.9656C20.514 33.7896 19.1576 33.5483 17.8273 33.1962C16.797 32.9223 15.7667 32.5832 14.8212 32.0811C14.1495 31.729 13.4778 31.2855 13.0344 30.6595C12.8584 30.4117 12.7214 30.1378 12.6562 29.8379C12.5388 29.2966 12.6692 28.7424 12.904 28.2533C12.9953 28.0642 13.1062 27.8816 13.217 27.712C13.2561 27.6534 13.1909 27.5947 13.1322 27.6012C11.4824 27.8751 9.68917 27.4251 8.50236 26.2122C7.96112 25.6579 7.56986 24.9602 7.43292 24.1972C7.28294 23.3691 7.45248 22.5148 7.79157 21.7519C8.00024 21.2889 8.2676 20.8324 8.60017 20.4477C8.68495 20.3825 8.58713 20.2782 8.52192 20.3499Z" fill="#C7B8A4" stroke="#C7B8A4" stroke-width="0.65" stroke-linejoin="round"/>
<path d="M29.3119 47.9864C29.6184 48.8667 29.9966 49.7275 30.4987 50.51C30.8443 51.0578 31.2486 51.5729 31.7246 52.0164C32.0376 52.3098 32.3832 52.5707 32.7549 52.7793C32.8723 52.8445 32.9832 52.9032 33.1071 52.9554C33.5766 53.1706 34.0657 53.3466 34.5612 53.5032C35.2003 53.7053 35.8524 53.8683 36.511 53.9727C37.2348 54.0835 37.9717 54.0705 38.689 54.2009C39.5563 54.3639 40.3519 54.8399 40.9127 55.5246C41.0105 55.642 41.1083 55.779 41.1604 55.9224C41.1735 55.9616 41.1865 56.0072 41.18 56.0463C41.18 56.0528 41.167 56.0789 41.1735 56.0659C41.1604 56.0854 41.167 56.0724 41.1604 56.0789C41.1539 56.0855 41.1148 56.092 41.1083 56.0985C41.0757 56.105 41.0366 56.0985 41.0039 56.0985C40.9061 56.092 40.8083 56.0659 40.717 56.0398C40.404 55.955 40.0975 55.8507 39.791 55.7529C39.3476 55.6159 38.9042 55.4855 38.4543 55.3747C37.4826 55.1399 36.4914 54.9964 35.5003 54.9508C35.3242 54.9443 35.1481 54.9378 34.9721 54.9312C34.9264 54.9312 34.8873 54.9769 34.9003 55.0225C34.9786 55.3095 35.0503 55.6485 34.9525 55.942C34.9264 56.0137 34.8938 56.0789 34.8416 56.1311C34.7112 56.2615 34.5221 56.268 34.346 56.2485C34.2548 56.2354 34.2548 56.3854 34.346 56.3919C34.5352 56.418 34.7373 56.3985 34.8938 56.2746C34.9786 56.2093 35.0438 56.1181 35.0829 56.0137C35.2133 55.6877 35.1286 55.3029 35.0438 54.9834C35.0177 55.016 34.9981 55.0421 34.9721 55.0747C35.898 55.0877 36.8175 55.1856 37.7239 55.3616C38.6238 55.5377 39.4846 55.8116 40.3584 56.0789C40.554 56.1376 41.3691 56.4571 41.33 55.9876C41.317 55.8572 41.2452 55.7268 41.1735 55.6225C41.0626 55.4594 40.9322 55.3095 40.7953 55.166C40.4627 54.8334 40.078 54.5465 39.6541 54.3444C38.8716 53.9727 38.0043 53.9661 37.1566 53.8879C36.6153 53.8357 36.0937 53.7444 35.5655 53.614C34.7177 53.4053 33.87 53.138 33.0875 52.7663C32.768 52.6098 32.4615 52.4207 32.1876 52.199C31.7311 51.8338 31.3268 51.3969 30.9812 50.9274C30.4661 50.2296 30.0618 49.4536 29.7357 48.6581C29.6379 48.4168 29.5466 48.1755 29.4619 47.9277C29.4227 47.856 29.2858 47.8951 29.3119 47.9864Z" fill="#C7B8A4" stroke="#C7B8A4" stroke-width="0.65" stroke-linejoin="round"/>
<path d="M26.9901 48.4286C27.7269 49.3546 28.379 50.3393 28.992 51.3565C29.2267 51.7413 29.455 52.1325 29.6115 52.5564C29.7289 52.8564 29.8006 53.1824 29.7615 53.5085C29.7028 54.0627 29.3441 54.5127 28.9333 54.8583C28.8616 54.917 28.9659 55.0213 29.0376 54.9626C29.4354 54.6301 29.781 54.1997 29.8854 53.678C29.9506 53.352 29.9114 53.0194 29.8136 52.6999C29.6832 52.2825 29.4745 51.8978 29.2528 51.5261C28.9398 50.9914 28.6073 50.4632 28.2616 49.948C27.8965 49.3937 27.5052 48.859 27.0879 48.3373C27.0357 48.2526 26.9314 48.3569 26.9901 48.4286Z" fill="#C7B8A4" stroke="#C7B8A4" stroke-width="0.65" stroke-linejoin="round"/>
<path d="M20.4288 47.1638C20.7157 47.8615 21.0026 48.5527 21.3026 49.2439C21.5243 49.7656 21.7656 50.2808 21.9808 50.8025C22.209 51.3633 22.3916 51.9501 22.4307 52.5566C22.4438 52.7979 22.4372 53.0457 22.4177 53.2869C22.3851 53.6456 22.3133 53.9977 22.2677 54.3564C22.2286 54.6368 22.1895 54.9563 22.3199 55.2171C22.4699 55.5171 22.822 55.5888 23.1285 55.5628C23.1024 55.5367 23.0763 55.5106 23.0567 55.491C23.0633 55.9801 23.2719 56.4431 23.7284 56.6648C24.1588 56.8735 24.6609 56.8735 25.1239 56.88C25.639 56.8865 26.1477 56.9256 26.6563 57.0561C27.0932 57.1734 27.5171 57.343 27.9214 57.5516C28.2539 57.7277 28.5735 57.9299 28.8865 58.1451C29.1082 58.295 29.3234 58.4581 29.5581 58.595C29.682 58.6667 29.8646 58.758 30.0016 58.6733C30.1059 58.608 30.132 58.4841 30.1255 58.3668C30.1124 58.1451 30.0146 57.9233 29.9233 57.7277C29.7342 57.3234 29.4994 56.9387 29.2582 56.5605C29.1734 56.43 29.0886 56.2931 28.9973 56.1627C28.9778 56.2018 28.9582 56.2344 28.9321 56.2735C29.969 56.254 31.0058 56.3061 32.0296 56.4366C32.5773 56.5083 33.1186 56.6061 33.6663 56.6909C33.8359 56.717 34.0054 56.743 34.175 56.743C34.2663 56.743 34.3836 56.7365 34.4554 56.6648C34.6314 56.4822 34.3184 56.1692 34.2011 56.0518C33.875 55.7323 33.4837 55.4715 33.0729 55.2693C32.6947 55.0802 32.2904 54.9367 31.8666 54.8781C31.5144 54.8259 31.1623 54.8324 30.8036 54.8455C30.3863 54.865 29.969 54.8846 29.5451 54.8715C29.1473 54.8585 28.7495 54.8194 28.3648 54.7607C27.9735 54.702 27.5888 54.6237 27.2041 54.5259C26.7932 54.4151 26.3824 54.2846 26.0173 54.0695C25.4369 53.7238 24.9935 53.2022 24.6609 52.6218C24.3088 52.0088 24.074 51.3372 23.8979 50.659C23.7349 50.0265 23.6306 49.3809 23.5654 48.7288C23.5197 48.2658 23.4871 47.8093 23.4806 47.3464C23.4806 47.2811 23.4806 47.2159 23.4806 47.1507C23.4806 47.1181 23.4545 47.092 23.4284 47.079C22.4764 46.766 21.4395 46.766 20.4875 47.079C20.3962 47.1116 20.4353 47.2485 20.5266 47.2225C21.4526 46.916 22.4568 46.916 23.3893 47.2225C23.3697 47.1964 23.3502 47.1768 23.3371 47.1507C23.3371 47.5355 23.3567 47.9267 23.3893 48.3115C23.435 48.9244 23.5132 49.5374 23.6371 50.1373C23.774 50.8155 23.9697 51.4872 24.2501 52.1197C24.524 52.7327 24.8891 53.313 25.3847 53.7695C25.6325 53.9977 25.9064 54.1868 26.2129 54.3303C26.6172 54.5194 27.0541 54.6433 27.4845 54.7411C28.2474 54.9172 29.0299 55.0215 29.8124 55.0215C30.5558 55.028 31.3123 54.9041 32.0491 55.0606C32.4926 55.1519 32.9164 55.341 33.3077 55.5693C33.6533 55.7714 34.0119 56.0192 34.2597 56.3453C34.2923 56.3909 34.325 56.4366 34.3445 56.4887C34.351 56.5018 34.3576 56.5344 34.3576 56.5409C34.3576 56.5605 34.3576 56.5735 34.3576 56.567C34.351 56.58 34.351 56.58 34.3445 56.58C34.325 56.5865 34.3184 56.5931 34.2989 56.5996C34.2467 56.6126 34.1945 56.6126 34.1358 56.6126C33.9598 56.6061 33.7837 56.58 33.6076 56.5474C33.3599 56.5083 33.1186 56.4626 32.8708 56.4235C31.7883 56.2475 30.6928 56.1496 29.5973 56.1366C29.3755 56.1366 29.1604 56.1366 28.9386 56.1366C28.8865 56.1366 28.8408 56.2018 28.8734 56.2475C29.1538 56.6648 29.4277 57.0952 29.6625 57.5451C29.7864 57.7734 29.9037 58.0146 29.9624 58.269C29.9755 58.3342 29.9885 58.3863 29.982 58.4581C29.982 58.4776 29.982 58.4515 29.982 58.4646C29.982 58.4711 29.982 58.4776 29.982 58.4841C29.982 58.4972 29.9755 58.5037 29.9755 58.5167C29.969 58.5298 29.982 58.5102 29.969 58.5298C29.9624 58.5363 29.9494 58.5559 29.9624 58.5428C29.9429 58.5689 29.9494 58.5689 29.9233 58.5754C29.9429 58.5689 29.9103 58.582 29.8972 58.582C29.9103 58.582 29.8842 58.582 29.8711 58.582C29.8255 58.582 29.7472 58.5494 29.6886 58.5167C29.4734 58.4059 29.2777 58.2559 29.0821 58.119C28.7952 57.9233 28.5083 57.7277 28.2083 57.5582C27.4258 57.1147 26.5585 56.8213 25.6586 56.7691C24.837 56.7235 23.5002 56.9126 23.2524 55.8497C23.2263 55.7388 23.2198 55.628 23.2132 55.5171C23.2132 55.478 23.1806 55.4389 23.1415 55.4454C22.8742 55.4649 22.5611 55.4193 22.4438 55.1454C22.346 54.9107 22.3916 54.6237 22.4242 54.3825C22.509 53.7956 22.6198 53.2152 22.5872 52.6218C22.5285 51.4806 21.9743 50.4438 21.5308 49.4135C21.2113 48.6636 20.8918 47.9072 20.5788 47.1507C20.5331 47.0399 20.3962 47.0725 20.4288 47.1638Z" fill="#C7B8A4" stroke="#C7B8A4" stroke-width="0.65" stroke-linejoin="round"/>
<path d="M20.946 28.0379C20.7438 28.1814 20.5417 28.3379 20.3917 28.5335C20.3069 28.6509 20.2352 28.7944 20.2678 28.9378C20.3069 29.0878 20.4439 29.1856 20.5743 29.2508C20.8025 29.3617 21.0568 29.4073 21.3046 29.4399C21.6959 29.4986 22.0871 29.5182 22.4849 29.5247C23.1109 29.5378 23.7369 29.5247 24.3564 29.4921C24.4216 29.4921 24.4216 29.3943 24.3564 29.3943C23.4305 29.44 22.4914 29.4726 21.5655 29.3747C21.2981 29.3487 21.0242 29.3095 20.7699 29.2182C20.633 29.1726 20.4699 29.1074 20.3917 28.977C20.333 28.8791 20.3656 28.7618 20.4178 28.6705C20.5482 28.4422 20.783 28.2662 20.9916 28.1162C21.0503 28.0836 20.9981 27.9988 20.946 28.0379Z" fill="#C7B8A4" stroke="#C7B8A4" stroke-width="0.65" stroke-linejoin="round"/>
<path d="M41.9231 18.8828C41.9557 19.2219 42.0796 19.5806 42.3143 19.8349C42.4773 20.0109 42.7773 20.187 43.0251 20.0957C43.2077 20.0305 43.312 19.8414 43.3772 19.6653C43.4946 19.3393 43.4946 18.9676 43.462 18.6285C43.4555 18.5633 43.3577 18.5633 43.3642 18.6285C43.3903 18.9154 43.3968 19.2154 43.3251 19.5023C43.2859 19.6784 43.2077 19.887 43.0447 19.9849C42.836 20.1022 42.5556 19.9392 42.4056 19.7892C42.2622 19.6458 42.1709 19.4632 42.1122 19.2741C42.0731 19.1502 42.0404 19.0132 42.0274 18.8893C42.0078 18.8176 41.91 18.8176 41.9231 18.8828Z" fill="#C7B8A4" stroke="#C7B8A4" stroke-width="0.65" stroke-linejoin="round"/>
<path d="M42.8364 22.9249C42.8169 23.1857 42.9147 23.4922 43.1494 23.6226C43.2342 23.6683 43.332 23.6813 43.4233 23.6422C43.5276 23.5965 43.6124 23.5118 43.6711 23.414C43.7624 23.2705 43.795 23.0944 43.782 22.9249C43.7754 22.8597 43.6776 22.8597 43.6841 22.9249C43.7037 23.1466 43.6255 23.4205 43.4233 23.5379C43.2603 23.6357 43.1038 23.4857 43.0255 23.3487C42.9538 23.2183 42.9277 23.0683 42.9408 22.9249C42.9342 22.8597 42.8364 22.8597 42.8364 22.9249Z" fill="#C7B8A4" stroke="#C7B8A4" stroke-width="0.65" stroke-linejoin="round"/>
<path d="M40.4875 25.0772C40.481 25.2859 40.6114 25.5076 40.8266 25.5533C41.0483 25.5989 41.244 25.4294 41.2961 25.2207C41.3092 25.162 41.2179 25.1359 41.2048 25.1946C41.1657 25.3511 41.0157 25.4946 40.8462 25.4554C40.6766 25.4163 40.5788 25.2468 40.5854 25.0772C40.5854 25.012 40.4875 25.012 40.4875 25.0772Z" fill="#C7B8A4" stroke="#C7B8A4" stroke-width="0.65" stroke-linejoin="round"/>
<path d="M42.6409 27.0337C42.6409 27.1967 42.6801 27.3598 42.7583 27.5032C42.817 27.6076 42.9018 27.7119 43.0192 27.7641C43.2409 27.8684 43.4495 27.6793 43.5474 27.4902C43.6321 27.3272 43.6647 27.1446 43.6517 26.962C43.6452 26.8968 43.5474 26.8968 43.5539 26.962C43.5734 27.2033 43.5017 27.4967 43.293 27.6402C43.2278 27.6858 43.1561 27.7119 43.0778 27.6793C42.9865 27.6467 42.9148 27.5619 42.8627 27.4837C42.7779 27.3467 42.7388 27.1837 42.7388 27.0272C42.7322 26.9685 42.6344 26.9685 42.6409 27.0337Z" fill="#C7B8A4" stroke="#C7B8A4" stroke-width="0.65" stroke-linejoin="round"/>
<path d="M18.1657 23.7791C17.9962 23.8182 17.8332 23.8769 17.6832 23.9486C17.5528 24.0139 17.3637 24.1378 17.4093 24.3138C17.4615 24.5029 17.6962 24.6073 17.8527 24.679C18.0875 24.7833 18.3418 24.8551 18.5961 24.8942C18.9026 24.9333 19.2156 24.9203 19.5156 24.8485C19.5743 24.8355 19.5482 24.7377 19.4895 24.7572C19.0135 24.8616 18.5309 24.829 18.0744 24.666C17.8918 24.6007 17.6701 24.5225 17.5397 24.3725C17.4223 24.229 17.5788 24.1182 17.7027 24.053C17.8527 23.9747 18.0223 23.9226 18.1918 23.8769C18.2505 23.8574 18.2244 23.7661 18.1657 23.7791Z" fill="#C7B8A4" stroke="#C7B8A4" stroke-width="0.65" stroke-linejoin="round"/>
<path d="M16.3169 26.9944C16.1147 27.1183 15.5604 27.4705 15.8474 27.7639C15.9321 27.8552 16.0626 27.9009 16.1734 27.9335C16.3625 27.9922 16.5647 28.0182 16.7603 28.0443C17.0929 28.0834 17.432 28.0965 17.7645 28.103C17.8297 28.103 17.8297 28.0052 17.7645 28.0052C17.295 27.9987 16.8059 27.9856 16.3495 27.8813C16.2125 27.8487 15.8408 27.777 15.8669 27.5683C15.88 27.4835 15.9452 27.4118 16.0039 27.3531C16.1147 27.2488 16.2386 27.1575 16.369 27.0792C16.4212 27.0401 16.369 26.9553 16.3169 26.9944Z" fill="#C7B8A4" stroke="#C7B8A4" stroke-width="0.65" stroke-linejoin="round"/>
<path d="M26.1687 25.4751C26.1165 25.586 26.0774 25.7164 26.0969 25.8403C26.1165 25.9577 26.1947 26.049 26.2991 26.1012C26.5599 26.2446 26.8925 26.1859 27.1468 26.0686C27.2055 26.0425 27.1533 25.9577 27.0946 25.9838C26.8729 26.0881 26.5925 26.1468 26.3643 26.0294C26.2795 25.9903 26.2143 25.9251 26.1947 25.8273C26.1752 25.7229 26.2078 25.6121 26.2534 25.5208C26.2795 25.4686 26.1947 25.4165 26.1687 25.4751Z" fill="#C7B8A4" stroke="#C7B8A4" stroke-width="0.65" stroke-linejoin="round"/>
</svg>
