<svg width="328" height="233" viewBox="0 0 328 233" fill="none" xmlns="http://www.w3.org/2000/svg">
<path d="M168.085 173.438C99.8284 216.924 97.9475 127.453 49.8973 95.1253C1.84714 62.7972 155.601 -21.4809 176.292 30.0395C215.975 128.852 307.64 77.4167 307.64 135.859C307.64 194.302 236.341 129.952 168.085 173.438Z" fill="#F5EBDE"/>
<g filter="url(#filter0_d_1420_1776)">
<path d="M223.725 25.3306C223.469 20.4458 224.626 15.5706 227.112 11.5632C229.394 7.82584 232.721 4.90929 236.526 3.35234C240.492 1.75126 244.895 1.59992 248.966 2.9384C252.876 4.2758 256.335 6.96658 258.819 10.5551C261.743 14.8247 263.167 20.2599 262.814 25.6379C262.769 26.4966 263.981 26.5048 264.026 25.646C264.377 20.5845 263.194 15.4222 260.713 11.2008C258.353 7.16096 254.856 4.0178 250.828 2.22747C246.638 0.390849 241.955 0.133385 237.626 1.50597C233.46 2.83443 229.729 5.61264 227.043 9.39255C223.868 13.8926 222.222 19.5784 222.513 25.3224C222.549 26.1817 223.76 26.1899 223.725 25.3306Z" fill="#536F62" stroke="#536F62" stroke-width="0.25"/>
<path d="M245.603 19.9603C244.867 21.7186 242.764 22.2018 241.642 20.6119C241.322 20.1577 241.164 19.5237 240.964 19.025C240.686 18.2998 240.447 17.62 240.169 16.8948C239.81 15.943 239.452 15.0364 239.094 14.0846C238.815 13.3594 238.537 12.5889 238.258 11.8637C238.099 11.4558 237.899 11.0475 237.861 10.5952C237.826 9.64554 237.831 8.74138 238.4 7.97664C238.848 7.39191 239.456 6.98909 240.063 6.7219C241.601 6.00886 243.419 5.88543 245.073 6.21298C246.404 6.44796 248.057 7.00155 248.816 8.40815C249.216 9.13418 249.291 10.2197 249.125 11.0324C249.001 11.5289 248.716 12.0243 248.552 12.5205C247.569 14.91 246.586 17.4352 245.603 19.9603C245.276 20.7719 246.322 21.4571 246.649 20.6455C247.592 18.2105 248.574 15.7305 249.516 13.2955C249.721 12.7543 249.967 12.2135 250.172 11.6271C250.541 10.5898 250.508 9.23326 250.11 8.19077C249.433 6.37784 247.743 5.4171 246.13 4.9994C244.275 4.48965 242.256 4.52132 240.395 5.09657C238.777 5.62824 237.155 6.74761 236.7 8.68858C236.493 9.6366 236.527 10.7671 236.846 11.6734C237.084 12.3532 237.363 12.988 237.602 13.6677C238.04 14.8461 238.517 16.07 238.955 17.2484C239.194 17.9281 239.473 18.6081 239.711 19.2879C239.95 19.9224 240.148 20.6019 240.468 21.1465C241.629 23.0531 244.05 23.431 245.633 21.9497C246.038 21.5908 246.364 21.0957 246.569 20.5545C246.977 19.8339 245.931 19.1487 245.603 19.9603Z" fill="#536F62"/>
<path d="M245.603 19.9603C244.867 21.7186 242.764 22.2018 241.642 20.6119C241.322 20.1577 241.164 19.5237 240.964 19.025C240.686 18.2998 240.447 17.62 240.169 16.8948C239.81 15.943 239.452 15.0364 239.094 14.0846C238.815 13.3594 238.537 12.5889 238.258 11.8637C238.099 11.4558 237.899 11.0475 237.861 10.5952C237.826 9.64554 237.831 8.74138 238.4 7.97664C238.848 7.39191 239.456 6.98909 240.063 6.7219C241.601 6.00886 243.419 5.88543 245.073 6.21298C246.404 6.44796 248.057 7.00155 248.816 8.40815C249.216 9.13418 249.291 10.2197 249.125 11.0324C249.001 11.5289 248.716 12.0243 248.552 12.5205C247.569 14.91 246.586 17.4352 245.603 19.9603ZM245.603 19.9603C245.276 20.7719 246.322 21.4571 246.649 20.6455C247.592 18.2105 248.574 15.7305 249.516 13.2955C249.721 12.7543 249.967 12.2135 250.172 11.6271C250.541 10.5898 250.508 9.23326 250.11 8.19077C249.433 6.37784 247.743 5.4171 246.13 4.9994C244.275 4.48965 242.256 4.52132 240.395 5.09657C238.777 5.62824 237.155 6.74761 236.7 8.68858C236.493 9.6366 236.527 10.7671 236.846 11.6734C237.084 12.3532 237.363 12.988 237.602 13.6677C238.04 14.8461 238.517 16.07 238.955 17.2484C239.194 17.9281 239.473 18.6081 239.711 19.2879C239.95 19.9224 240.148 20.6019 240.468 21.1465C241.629 23.0531 244.05 23.431 245.633 21.9497C246.038 21.5908 246.364 21.0957 246.569 20.5545C246.977 19.8339 245.931 19.1487 245.603 19.9603Z" stroke="#536F62" stroke-width="0.25"/>
<path d="M240.129 23.5865C239.932 22.5905 239.413 21.5924 239.014 20.6855C238.775 20.1413 238.576 19.5975 238.336 19.0533C237.619 17.2853 236.942 15.5175 236.144 13.7941C235.625 12.7056 234.5 11.7034 233.371 11.4697C232.241 11.2361 231.108 11.5902 230.096 12.1259C227.827 13.4218 225.916 15.8504 225.053 18.512C224.642 19.8204 224.473 21.3112 225.031 22.5809C225.39 23.4423 225.992 24.0793 226.675 24.6264C227.037 24.9001 227.681 25.2662 228.166 25.2694C228.933 25.2746 228.941 23.9183 228.174 23.9131C228.335 23.9142 228.335 23.9594 228.174 23.8679C228.093 23.8222 227.972 23.7761 227.892 23.7756C227.65 23.6835 227.489 23.592 227.288 23.4551C226.765 23.0899 226.323 22.5444 226.085 21.9098C225.726 20.958 225.934 19.8743 226.222 18.9268C226.962 16.626 228.669 14.5125 230.574 13.395C231.343 12.9481 232.315 12.5477 233.202 12.7797C234.008 13.0112 234.812 13.74 235.171 14.6014C235.848 16.2335 236.525 17.9109 237.243 19.5433C237.443 20.042 237.682 20.5861 237.881 21.0848C238.239 21.9914 238.759 22.9443 238.956 23.9403C239.153 24.8006 240.326 24.4468 240.129 23.5865Z" fill="#536F62" stroke="#536F62" stroke-width="0.25"/>
<path d="M247.641 23.9542C247.767 23.0508 248.256 22.2403 248.664 21.4293C248.95 20.8886 249.195 20.3025 249.481 19.7619C250.216 18.2749 250.911 16.7876 251.646 15.3005C252.013 14.5344 252.259 13.9935 252.908 13.4553C253.719 12.8278 254.608 12.7433 255.494 13.0658C257.509 13.8027 259.194 15.9389 260.111 18.0247C260.59 19.113 260.987 20.3816 260.859 21.6014C260.816 22.0985 260.611 22.5944 260.326 22.9994C260.122 23.3145 259.839 23.5387 259.555 23.7628C259.392 23.8974 259.23 24.0319 259.028 24.121C258.906 24.1654 258.664 24.209 258.906 24.2106C258.139 24.2054 258.131 25.5617 258.899 25.5669C259.504 25.5709 260.154 24.9876 260.559 24.6286C261.047 24.1797 261.453 23.6851 261.699 23.0538C262.149 21.8814 262.116 20.6152 261.84 19.3927C261.209 16.6758 259.446 14.1773 257.354 12.6713C256.429 11.987 255.301 11.4821 254.21 11.5652C252.958 11.6472 251.701 12.4978 251.009 13.6686C250.641 14.3444 250.355 15.0658 249.988 15.7415C249.538 16.6879 249.089 17.6344 248.599 18.5805C248.313 19.1663 248.068 19.7072 247.782 20.2931C247.292 21.3296 246.599 22.4553 246.391 23.6294C246.346 24.4429 247.515 24.8124 247.641 23.9542Z" fill="#536F62" stroke="#536F62" stroke-width="0.25"/>
<path d="M227.616 89.0932C227.024 94.0173 224.939 98.5697 221.77 102.03C218.764 105.265 214.876 107.364 210.753 107.969C206.469 108.618 202.033 107.594 198.291 105.127C194.669 102.752 191.822 99.1159 190.15 94.8096C188.119 89.5514 188.112 83.5381 189.918 78.2152C190.205 77.4033 189.036 77.0338 188.749 77.8457C187.025 82.8978 186.913 88.639 188.5 93.7586C189.968 98.4705 192.732 102.558 196.391 105.386C200.171 108.305 204.807 109.737 209.372 109.452C213.816 109.165 218.067 107.249 221.476 104.108C225.535 100.337 228.069 94.9738 228.787 89.1463C228.83 88.7848 228.468 88.4659 228.185 88.464C227.862 88.4167 227.659 88.7318 227.616 89.0932Z" fill="#536F62" stroke="#536F62" stroke-width="0.25"/>
<path d="M205.243 89.394C206.261 87.8637 208.521 88.1501 209.198 89.9179C209.397 90.4165 209.434 91.0497 209.552 91.6382C209.669 92.3623 209.786 93.1317 209.943 93.8561C210.099 94.8517 210.296 95.8929 210.452 96.8886C210.568 97.6579 210.726 98.4727 210.842 99.2421C210.92 99.7399 210.999 100.147 210.956 100.644C210.569 104.846 205.444 104.179 202.947 103.077C201.698 102.526 200.209 101.567 199.774 100.027C199.536 99.1662 199.663 98.1272 200.071 97.3614C200.316 96.9109 200.641 96.5062 200.926 96.056C202.352 93.8503 203.818 91.5997 205.243 89.394C205.691 88.6736 204.645 87.9885 204.197 88.7088C202.812 90.8696 201.387 93.0301 200.002 95.1909C199.676 95.686 199.31 96.1356 199.065 96.6765C198.535 97.6223 198.366 98.9323 198.562 100.064C198.874 101.965 200.482 103.287 201.932 104.065C203.663 104.981 205.68 105.446 207.579 105.233C209.276 105.064 211.057 104.307 211.794 102.458C212.122 101.602 212.289 100.563 212.132 99.6577C212.015 98.9335 211.898 98.2093 211.781 97.4852C211.586 96.218 211.35 94.9958 211.155 93.7286C211.039 92.9592 210.881 92.2348 210.764 91.4655C210.647 90.7865 210.57 90.0627 210.331 89.4281C209.535 87.3431 207.198 86.4685 205.415 87.5867C204.928 87.8999 204.563 88.3044 204.237 88.7995C203.709 89.3837 204.755 90.0688 205.243 89.394Z" fill="#536F62"/>
<path d="M205.243 89.394C206.261 87.8637 208.521 88.1501 209.198 89.9179C209.397 90.4165 209.434 91.0497 209.552 91.6382C209.669 92.3623 209.786 93.1317 209.943 93.8561C210.099 94.8517 210.296 95.8929 210.452 96.8886C210.568 97.6579 210.726 98.4727 210.842 99.2421C210.92 99.7399 210.999 100.147 210.956 100.644C210.569 104.846 205.444 104.179 202.947 103.077C201.698 102.526 200.209 101.567 199.774 100.027C199.536 99.1662 199.663 98.1272 200.071 97.3614C200.316 96.9109 200.641 96.5062 200.926 96.056C202.352 93.8503 203.818 91.5997 205.243 89.394ZM205.243 89.394C205.691 88.6736 204.645 87.9885 204.197 88.7088C202.812 90.8696 201.387 93.0301 200.002 95.1909C199.676 95.686 199.31 96.1356 199.065 96.6765C198.535 97.6223 198.366 98.9323 198.562 100.064C198.874 101.965 200.482 103.287 201.932 104.065C203.663 104.981 205.68 105.446 207.579 105.233C209.276 105.064 211.057 104.307 211.794 102.458C212.122 101.602 212.289 100.563 212.132 99.6577C212.015 98.9335 211.898 98.2093 211.781 97.4852C211.586 96.218 211.35 94.9958 211.155 93.7286C211.039 92.9592 210.881 92.2348 210.764 91.4655C210.647 90.7865 210.57 90.0627 210.331 89.4281C209.535 87.3431 207.198 86.4685 205.415 87.5867C204.928 87.8999 204.563 88.3044 204.237 88.7995C203.709 89.3837 204.755 90.0688 205.243 89.394Z" stroke="#536F62" stroke-width="0.25"/>
<path d="M221.441 88.6909C220.957 88.6876 221.079 88.5076 221.199 88.6441C221.24 88.6896 221.32 88.7353 221.36 88.7356C221.562 88.8725 221.763 89.0095 221.964 89.1465C222.366 89.4205 222.809 89.6947 223.211 89.9687C224.096 90.5623 224.695 91.7871 224.608 92.9167C224.521 94.1368 223.869 95.2627 223.137 96.162C222.283 97.2413 221.228 98.1385 220.053 98.8087C219.04 99.3897 217.867 99.8339 216.737 99.6907C215.647 99.5477 214.724 98.6373 214.366 97.5046C214.128 96.7797 214.052 95.9202 213.895 95.1505C213.699 94.1094 213.462 93.0227 213.266 91.9816C213.148 91.3479 212.99 90.7138 212.873 90.0801C212.637 88.8126 212.16 87.4531 212.611 86.2355C212.898 85.4236 211.729 85.0541 211.442 85.8659C210.95 87.2189 211.306 88.5776 211.582 89.8906C211.739 90.615 211.856 91.3392 212.014 92.0636C212.25 93.1954 212.446 94.2818 212.682 95.4137C212.839 96.2285 212.955 97.0883 213.193 97.9037C213.629 99.4437 214.874 100.718 216.286 100.999C217.617 101.279 218.951 100.881 220.166 100.256C221.503 99.587 222.76 98.6009 223.776 97.387C224.67 96.3079 225.485 95.0023 225.736 93.5573C226.028 91.8412 225.352 89.9378 224.024 88.9795C223.582 88.66 223.139 88.3858 222.697 88.0664C222.375 87.8382 221.853 87.3373 221.449 87.3346C220.641 87.3292 220.634 88.6855 221.441 88.6909Z" fill="#536F62" stroke="#536F62" stroke-width="0.25"/>
<path d="M197.093 80.6141C196.165 80.6079 195.276 80.6923 194.347 80.7765C193.862 80.8185 193.418 80.8155 192.933 80.8575C192.246 80.8981 191.517 81.2549 190.95 81.658C188.354 83.5847 189.059 87.7036 190.175 90.4237C191.291 93.0986 193.695 96.4604 196.688 95.6214C197.376 95.4 198.186 94.9985 198.673 94.414C198.917 94.1444 199.121 93.7841 199.365 93.5145C200.138 92.4798 200.951 91.4454 201.724 90.4107C202.212 89.781 202.7 89.1061 203.229 88.4767C204.246 87.1272 205.424 85.8692 205.232 83.9691C205.156 83.1095 203.945 83.1014 204.021 83.9609C204.175 85.4087 203.322 86.3072 202.508 87.2964C202.102 87.8362 201.654 88.3758 201.248 88.9156C200.597 89.725 199.987 90.5799 199.336 91.3893C198.807 92.064 198.359 92.8296 197.75 93.4584C195.556 95.7947 192.986 93.2456 191.786 91.0675C191.067 89.7515 190.51 88.2558 190.356 86.7176C190.242 85.5414 190.29 84.1402 191.102 83.2414C191.549 82.7471 192.238 82.3448 192.845 82.2132C193.289 82.1258 193.774 82.1742 194.218 82.132C195.147 82.093 196.117 81.9639 197.046 81.9701C197.853 81.9755 197.861 80.6192 197.093 80.6141Z" fill="#536F62" stroke="#536F62" stroke-width="0.25"/>
<path d="M168.362 54.571C169.108 51.0488 171.426 48.2154 173.821 45.9251C177.272 42.6018 181.284 40.0962 185.375 37.9077C196.229 32.1466 208.081 28.6983 219.885 26.516C233.104 24.1169 246.675 23.5743 259.95 25.6977C271.933 27.6315 283.663 31.5986 294.697 37.189C303.315 41.5876 311.524 46.9331 319.243 53.0892C320.168 53.8189 321.053 54.5031 321.49 55.727C321.928 56.9056 321.88 58.2619 321.349 59.3889C320.858 60.4709 320.007 61.0983 319.115 61.7707C318.344 62.3534 317.614 62.9364 316.843 63.5191C313.356 66.1187 309.829 68.5371 306.182 70.819C297.308 76.322 287.914 80.8266 278.164 84.0175C266.472 87.8286 254.346 89.7375 242.192 89.5208C228.422 89.2934 214.625 86.7596 201.485 82.2405C195.197 80.1184 188.992 77.4995 183.196 74.0694C178.688 71.4166 174.061 68.2203 170.855 63.7221C169.733 62.1772 168.814 60.4075 168.381 58.4149C168.184 57.5544 167.011 57.9083 167.208 58.7688C168.232 63.4333 171.604 67.0282 174.9 69.8538C179.804 74.0016 185.441 77.0689 191.121 79.5938C204.052 85.423 217.966 88.7716 231.809 90.2204C244.805 91.5732 257.894 90.756 270.673 87.5852C281.308 84.9429 291.63 80.6705 301.393 75.2187C305.484 72.9397 309.496 70.3889 313.388 67.7016C315.09 66.492 316.793 65.2824 318.456 64.0273C320.159 62.7273 322.104 61.5645 322.763 59.2174C323.463 56.735 322.589 54.1968 320.78 52.6925C319.091 51.3246 317.362 50.0017 315.633 48.724C311.611 45.7127 307.427 42.9264 303.16 40.4108C292.775 34.2369 281.696 29.4602 270.243 26.535C256.855 23.0995 243.088 22.3294 229.43 23.8664C216.661 25.2736 203.883 28.3086 191.86 33.4741C187.003 35.567 182.224 37.9771 177.805 41.1131C174.521 43.4427 171.316 46.1797 169.075 49.7824C168.219 51.1333 167.565 52.6665 167.233 54.2922C167.026 55.0596 168.195 55.4291 168.362 54.571Z" fill="#536F62" stroke="#536F62" stroke-width="0.25"/>
<path d="M167.203 58.577C166.85 64.0902 165.083 69.5035 161.991 73.8682C159.101 77.963 155.127 81.0108 150.598 82.2917C147.606 83.1307 144.456 83.1549 141.432 82.4113C141.429 82.8634 141.427 83.2703 141.425 83.7224C149.754 81.6531 156.135 74.01 158.487 64.9838C160.962 55.461 159.124 44.7341 153.27 37.1902C150.264 33.3273 146.201 30.452 141.726 29.2467C141.724 29.6988 141.721 30.1057 141.719 30.5577C146.732 29.3705 151.935 30.3999 156.279 33.3675C160.302 36.1521 163.387 40.3772 165.218 45.2268C166.332 48.1277 166.961 51.2514 167.186 54.3723C167.222 55.2315 168.473 55.2399 168.397 54.3804C168.026 48.5459 166.2 42.9277 162.955 38.2947C159.95 34.0249 155.769 30.7871 151.012 29.3991C147.868 28.5191 144.557 28.4518 141.403 29.2446C140.837 29.3764 140.831 30.4162 141.396 30.5556C149.298 32.6428 155.274 39.9614 157.407 48.5655C159.658 57.6224 157.865 67.873 152.213 74.9333C149.286 78.6209 145.436 81.2626 141.109 82.364C140.543 82.4958 140.537 83.5356 141.102 83.675C146.424 85.0216 152.002 84.019 156.662 80.8854C160.958 77.9755 164.294 73.4767 166.301 68.3362C167.489 65.2247 168.194 61.8839 168.415 58.5398C168.46 57.6811 167.248 57.7183 167.203 58.577Z" fill="#536F62" stroke="#536F62" stroke-width="0.25"/>
<path d="M293.176 57.0367C293.166 58.9092 294.514 60.4363 296.186 60.4477C297.859 60.459 299.223 58.9503 299.234 57.0779C299.244 55.2054 297.896 53.6783 296.223 53.6669C294.55 53.6556 293.186 55.1643 293.176 57.0367Z" fill="#536F62" stroke="#536F62" stroke-width="0.25" stroke-miterlimit="10"/>
<path d="M263.144 46.8867C260.721 46.8253 258.714 44.6418 258.729 41.8842C258.744 39.1266 260.775 36.9701 263.198 36.9412C263.965 36.9463 263.973 35.5901 263.206 35.585C260.863 35.6145 258.755 37.2279 257.893 39.6634C257.032 42.0988 257.703 44.9967 259.51 46.6815C260.555 47.6379 261.804 48.1888 263.177 48.198C263.903 48.2481 263.911 46.8919 263.144 46.8867Z" fill="#536F62" stroke="#536F62" stroke-width="0.25"/>
<path d="M263.084 58.0527C260.661 57.9913 258.654 55.8078 258.67 53.0501C258.685 50.2925 260.716 48.1361 263.139 48.1072C263.906 48.1123 263.913 46.7561 263.146 46.751C260.804 46.7805 258.695 48.3938 257.834 50.8293C256.972 53.2648 257.643 56.1627 259.451 57.8475C260.495 58.8039 261.744 59.3548 263.117 59.364C263.843 59.4593 263.851 58.1031 263.084 58.0527Z" fill="#536F62" stroke="#536F62" stroke-width="0.25"/>
<path d="M263.02 69.3545C260.598 69.2931 258.591 67.1096 258.606 64.352C258.621 61.5943 260.652 59.4379 263.075 59.409C263.842 59.4141 263.85 58.0579 263.083 58.0527C260.74 58.0823 258.632 59.6956 257.77 62.1311C256.909 64.5666 257.58 67.4645 259.387 69.1493C260.432 70.1057 261.681 70.6566 263.054 70.6658C263.78 70.7611 263.787 69.4049 263.02 69.3545Z" fill="#536F62" stroke="#536F62" stroke-width="0.25"/>
<path d="M240.026 65.1309C237.604 65.0694 235.597 62.886 235.612 60.1283C235.627 57.3707 237.658 55.2143 240.081 55.1853C240.848 55.1905 240.856 53.8343 240.088 53.8291C237.746 53.8586 235.638 55.472 234.776 57.9075C233.915 60.343 234.585 63.2408 236.393 64.9257C237.438 65.8821 238.687 66.4329 240.059 66.4421C240.786 66.5374 240.793 65.1812 240.026 65.1309Z" fill="#536F62" stroke="#536F62" stroke-width="0.25"/>
<path d="M218.298 50.0625C215.875 50.001 213.868 47.8175 213.883 45.0599C213.899 42.3023 215.929 40.1459 218.352 40.117C219.12 40.1221 219.127 38.7659 218.36 38.7608C216.018 38.7902 213.909 40.4036 213.048 42.8391C212.186 45.2746 212.857 48.1724 214.665 49.8573C215.709 50.8137 216.958 51.3646 218.331 51.3738C219.057 51.4691 219.065 50.1129 218.298 50.0625Z" fill="#536F62" stroke="#536F62" stroke-width="0.25"/>
<path d="M202.829 73.0137C200.407 72.9522 198.4 70.7687 198.415 68.0111C198.43 65.2535 200.461 63.0971 202.884 63.0681C203.651 63.0733 203.658 61.7171 202.891 61.7119C200.549 61.7414 198.44 63.3548 197.579 65.7902C196.718 68.2257 197.388 71.1236 199.196 72.8085C200.241 73.7649 201.489 74.3157 202.862 74.325C203.588 74.4203 203.596 73.064 202.829 73.0137Z" fill="#536F62" stroke="#536F62" stroke-width="0.25"/>
<path d="M239.967 76.4326C237.544 76.3712 235.537 74.1877 235.552 71.4301C235.568 68.6724 237.598 66.516 240.021 66.4871C240.789 66.4922 240.796 65.136 240.029 65.1309C237.687 65.1604 235.578 66.7738 234.717 69.2093C233.855 71.6447 234.526 74.5426 236.334 76.2274C237.378 77.1838 238.627 77.7347 240 77.7439C240.726 77.8392 240.734 76.483 239.967 76.4326Z" fill="#536F62" stroke="#536F62" stroke-width="0.25"/>
</g>
<g filter="url(#filter1_d_1420_1776)">
<path d="M71.5585 198.569C65.3902 198.896 59.1541 198.226 53.24 196.528C48.5291 195.172 44.0046 193.147 39.9037 190.533C36.4298 188.312 33.2609 185.682 30.4309 182.742C27.9907 180.194 25.8047 177.434 23.8559 174.511C22.3308 172.224 20.9751 169.856 19.7381 167.422C18.0266 164.057 16.5014 160.627 15.3491 157.05C13.6884 151.905 12.7056 146.564 12.4005 141.191C12.1294 136.536 12.3666 131.864 13.0275 127.242C13.5698 123.485 14.3832 119.761 15.4847 116.119C16.1964 113.751 17.0098 111.415 17.9757 109.145C18.1113 108.835 18.2469 108.508 18.3824 108.198C18.4163 108.263 18.4333 108.328 18.4672 108.41C18.4502 108.394 18.4333 108.394 18.4163 108.377C18.196 108.263 18.3994 107.953 18.6027 108.067C18.6197 108.083 18.6366 108.083 18.6536 108.1C18.7213 108.132 18.7722 108.23 18.7383 108.312C17.9249 110.174 17.2132 112.069 16.5692 113.996C15.4847 117.262 14.6035 120.594 13.9596 123.975C13.1292 128.353 12.6886 132.812 12.6717 137.271C12.6547 142.465 13.2478 147.675 14.5018 152.738C15.6203 157.279 17.2979 161.624 19.3653 165.838C20.4329 168.026 21.5852 170.182 22.8561 172.257C24.5846 175.082 26.5164 177.777 28.7024 180.292C31.2782 183.265 34.176 185.993 37.3618 188.345C41.0221 191.04 45.0552 193.245 49.3425 194.862C54.9855 196.985 61.0351 198.128 67.0848 198.275C68.576 198.308 70.0673 198.292 71.5416 198.21C71.8127 198.194 71.8127 198.553 71.5585 198.569Z" fill="#536F62" stroke="#536F62" stroke-width="0.85" stroke-linejoin="round"/>
<path d="M78.0986 197.457C84.8091 196.264 91.2824 193.88 96.9763 190.221C102.196 186.856 106.585 182.446 109.974 177.383C113.024 172.842 115.261 167.861 117.074 162.748C117.887 160.429 118.633 158.077 119.328 155.709C120.073 153.194 120.819 150.662 121.378 148.098C122.412 143.443 122.819 138.706 123.463 133.986C124.225 128.318 125.564 122.797 127.394 117.358C128.004 115.562 128.614 113.716 128.936 111.854C129.004 111.429 129.343 110.025 128.817 109.731C128.411 109.502 127.648 110.188 127.377 110.417C125.954 111.576 124.767 113.03 123.581 114.402C123.175 114.876 122.785 115.382 122.327 115.823C122.175 115.97 121.7 116.264 121.751 115.807C121.768 115.643 121.971 115.447 122.073 115.317C122.327 114.974 122.598 114.647 122.853 114.288C123.7 113.144 124.429 111.903 124.954 110.596C126.123 107.705 126.326 104.292 125.479 101.286C125.344 100.813 125.191 100.339 124.954 99.8981C124.869 99.7511 124.649 99.2938 124.429 99.3265C124.242 99.3428 124.123 99.7675 124.073 99.9145C123.903 100.355 123.768 100.829 123.632 101.27C122.683 104.226 121.344 107.019 119.497 109.551C118.803 110.498 118.057 111.413 117.26 112.279C117.142 112.393 116.938 112.295 116.938 112.148C116.955 110.776 116.955 109.404 116.769 108.032C116.684 107.46 116.616 106.693 116.227 106.219C115.481 105.272 113.939 107.15 113.532 107.624C111.889 109.567 110.55 111.756 109.059 113.814C107.432 116.084 105.686 118.306 103.619 120.217C99.9248 123.614 95.4003 126.113 90.6554 127.893C85.6395 129.772 80.2846 130.866 74.9128 131.029C69.8459 131.193 64.6775 130.507 60.0174 128.514C55.6792 126.652 52.1206 123.598 49.4093 119.874C46.7318 116.215 44.8678 112.083 43.1054 107.95C41.3939 103.965 39.8179 99.8818 37.5133 96.1578C35.395 92.7605 32.5481 89.7552 28.6675 88.2362C24.1769 86.4885 18.2459 85.7046 14.6703 89.5919C13.6535 90.7025 12.9587 92.0582 12.5182 93.4792C12.4504 93.7078 12.0776 93.6098 12.1453 93.3812C12.9926 90.6699 14.7889 88.2525 17.568 87.1419C20.0421 86.1455 22.8382 86.2762 25.4139 86.8479C29.2268 87.6972 32.599 89.5102 35.1748 92.3685C38.0047 95.5045 39.8179 99.3591 41.4786 103.148C43.3427 107.411 45.0033 111.756 47.291 115.823C49.5957 119.923 52.5951 123.696 56.6621 126.309C61.0341 129.102 66.2534 130.36 71.4389 130.621C76.9971 130.899 82.6062 130.082 87.9102 128.432C93.0448 126.832 98.0099 124.414 102.128 121.017C104.331 119.204 106.178 117.064 107.872 114.81C109.499 112.638 110.94 110.335 112.6 108.179C113.143 107.46 113.719 106.742 114.43 106.17C114.837 105.843 115.379 105.517 115.939 105.582C116.938 105.729 117.074 107.264 117.159 107.983C117.345 109.339 117.345 110.727 117.328 112.099C117.227 112.05 117.108 112.017 117.006 111.968C119.091 109.698 120.819 107.134 122.073 104.341C122.666 103.018 123.107 101.662 123.547 100.306C123.666 99.9145 123.835 99.0488 124.344 98.9181C124.886 98.7875 125.276 99.5551 125.445 99.9145C125.92 100.943 126.14 102.087 126.276 103.197C126.648 106.382 126.055 109.633 124.479 112.458C123.92 113.455 123.242 114.402 122.531 115.317C122.446 115.431 122.361 115.562 122.276 115.66C122.243 115.692 122.209 115.774 122.175 115.79C122.124 115.823 121.904 115.774 121.921 115.66C121.921 115.611 122.226 115.366 122.276 115.317C123.463 114.043 124.53 112.671 125.75 111.413C126.326 110.809 126.937 110.204 127.631 109.714C127.987 109.469 128.529 109.11 128.987 109.322C129.512 109.551 129.495 110.319 129.478 110.792C129.428 111.772 129.19 112.769 128.936 113.716C128.343 115.986 127.513 118.175 126.835 120.413C125.937 123.369 125.174 126.374 124.615 129.396C123.717 134.149 123.378 138.951 122.615 143.72C121.785 148.914 120.328 153.978 118.735 158.992C117.125 164.12 115.193 169.167 112.549 173.888C109.652 179.065 105.89 183.769 101.213 187.559C96.0103 191.789 89.8082 194.827 83.284 196.607C81.6233 197.065 79.9457 197.44 78.2511 197.734C77.963 197.849 77.8613 197.506 78.0986 197.457Z" fill="#536F62" stroke="#536F62" stroke-width="0.85" stroke-linejoin="round"/>
<path d="M33.843 106.699C33.86 107.336 34.2667 107.924 34.8937 108.136C35.5207 108.348 36.2494 108.169 36.673 107.662C37.0966 107.172 37.1475 106.454 36.8086 105.915C36.4696 105.376 35.7918 105.082 35.1479 105.196C34.4023 105.327 33.86 105.964 33.843 106.699C33.843 106.927 33.4533 106.944 33.4702 106.699C33.4872 105.915 33.9786 105.196 34.7581 104.918C35.5207 104.641 36.4358 104.869 36.9611 105.49C37.4864 106.111 37.5542 106.993 37.1305 107.679C36.7069 108.365 35.8765 108.708 35.0631 108.577C34.1311 108.414 33.4702 107.613 33.4533 106.715C33.4702 106.47 33.843 106.47 33.843 106.699Z" fill="#536F62"/>
<path d="M33.843 106.699C33.86 107.336 34.2667 107.924 34.8937 108.136C35.5207 108.348 36.2494 108.169 36.673 107.662C37.0966 107.172 37.1475 106.454 36.8086 105.915C36.4696 105.376 35.7918 105.082 35.1479 105.196C34.4023 105.327 33.86 105.964 33.843 106.699ZM33.843 106.699C33.843 106.927 33.4533 106.944 33.4702 106.699C33.4872 105.915 33.9786 105.196 34.7581 104.918C35.5207 104.641 36.4358 104.869 36.9611 105.49C37.4864 106.111 37.5542 106.993 37.1305 107.679C36.7069 108.365 35.8765 108.708 35.0631 108.577C34.1311 108.414 33.4702 107.613 33.4533 106.715C33.4702 106.47 33.843 106.47 33.843 106.699Z" stroke="#536F62" stroke-width="0.85" stroke-linejoin="round"/>
<path d="M20.4812 93.5004C19.8916 93.5004 19.4137 93.0397 19.4137 92.4714C19.4137 91.9031 19.8916 91.4424 20.4812 91.4424C21.0709 91.4424 21.5488 91.9031 21.5488 92.4714C21.5488 93.0397 21.0709 93.5004 20.4812 93.5004Z" fill="#536F62" stroke="#536F62" stroke-width="0.85" stroke-linejoin="round"/>
<path d="M15.7175 95.9016C14.2262 95.6729 12.9045 94.8236 12.125 93.5823C12.1588 93.6149 12.1927 93.6313 12.2436 93.6639C10.6337 93.2883 8.9222 93.5333 7.53264 94.4316C6.53283 95.0849 5.75332 96.0323 5.21105 97.0613C5.07549 97.3389 4.93991 97.6166 4.85518 97.8943C4.77046 97.8126 4.70268 97.7473 4.61795 97.6656C6.82091 96.9796 9.21027 96.9143 11.4471 97.4859C11.6844 97.5513 11.5827 97.8943 11.3455 97.8453C9.15944 97.2899 6.8548 97.3553 4.71962 98.0249C4.58405 98.0739 4.44849 97.9269 4.48238 97.7963C4.88908 96.6203 5.63469 95.5096 6.58366 94.6766C7.41401 93.9416 8.44771 93.4353 9.56614 93.2229C10.1762 93.1086 10.7862 93.0923 11.4132 93.1413C11.6505 93.1576 11.8877 93.2066 12.125 93.2393C12.2097 93.2556 12.3114 93.2556 12.3961 93.3046C12.4978 93.3699 12.5655 93.5169 12.6333 93.6149C13.3789 94.6603 14.5482 95.3136 15.8361 95.5096C16.0564 95.5749 15.9547 95.9343 15.7175 95.9016Z" fill="#536F62" stroke="#536F62" stroke-width="0.85" stroke-linejoin="round"/>
<path d="M4.49953 97.7755C4.49953 97.5632 4.95706 97.4162 5.10957 97.3345C5.38071 97.1875 5.65185 97.0569 5.92298 96.9262C6.53303 96.6485 7.17697 96.3872 7.82091 96.1749C9.37993 95.6685 11.0067 95.3745 12.6505 95.3255C13.6333 95.2929 14.5993 95.3582 15.5652 95.5216C15.8024 95.5542 15.7007 95.9135 15.4635 95.8809C12.4302 95.3909 9.26131 95.8809 6.46524 97.0895C5.88908 97.3345 5.31292 97.6285 4.77066 97.9389C4.80455 97.8899 4.83845 97.8409 4.87234 97.7755C4.88928 98.0205 4.49953 98.0205 4.49953 97.7755Z" fill="#536F62" stroke="#536F62" stroke-width="0.85" stroke-linejoin="round"/>
<path d="M24.8161 86.9143C25.9684 84.9869 26.9682 82.3246 25.4262 80.332C24.2399 78.813 22.02 77.9963 20.0882 78.1433C19.5798 78.176 19.0715 78.2903 18.6309 78.519C18.0378 78.813 17.5972 79.2703 17.2922 79.8256C17.2244 79.9563 17.038 79.94 16.9702 79.8256C16.6143 79.3193 16.1398 78.813 15.5128 78.6497C14.9706 78.5027 14.4114 78.666 13.9369 78.9273C12.632 79.6623 11.7339 81.1323 11.4119 82.5206C11.2255 83.37 11.2764 84.2356 11.5306 85.0686C11.5645 85.1666 11.4628 85.3136 11.3442 85.2973C10.7002 85.2319 10.0054 85.2483 9.42928 85.5749C9.00563 85.8199 8.71756 86.1956 8.51421 86.6203C7.93805 87.8126 8.03972 89.2826 8.29391 90.5403C8.49726 91.5366 8.83617 92.5166 9.25982 93.4476C9.36149 93.6599 9.02258 93.8559 8.93785 93.6272C8.20918 92.0102 7.66691 90.2463 7.75164 88.4659C7.80248 87.3226 8.12445 86.0159 9.15815 85.3299C9.80209 84.9053 10.6155 84.84 11.378 84.938C11.3103 85.0196 11.2594 85.0849 11.1916 85.1666C10.6833 83.517 11.0391 81.7693 11.9881 80.332C12.7168 79.2376 14.0385 77.9637 15.5298 78.2577C16.3093 78.421 16.9024 79.0253 17.326 79.6296C17.2244 79.6296 17.1057 79.6296 17.0041 79.6296C17.5463 78.6333 18.4784 78.0127 19.6137 77.833C20.6644 77.6533 21.7828 77.784 22.7826 78.1107C23.7994 78.4537 24.7822 79.009 25.5109 79.7766C26.409 80.7403 26.7649 81.9653 26.6293 83.2393C26.4768 84.5786 25.9006 85.9179 25.2059 87.0776C25.0364 87.3063 24.6975 87.1103 24.8161 86.9143Z" fill="#536F62" stroke="#536F62" stroke-width="0.85" stroke-linejoin="round"/>
<path d="M12.5301 93.6416C12.5643 93.6416 12.5813 93.6416 12.5984 93.658C12.6154 93.658 12.6495 93.6745 12.6666 93.6909C12.6837 93.7074 12.7007 93.7238 12.7007 93.7567C12.7178 93.7731 12.7178 93.806 12.7178 93.8225C12.7178 93.8389 12.7178 93.8553 12.7178 93.8718C12.7007 93.9047 12.7007 93.9375 12.6666 93.954C12.6495 93.9704 12.6325 93.9704 12.6325 93.9869C12.5984 94.0033 12.5643 94.0197 12.5301 94.0197C12.496 94.0197 12.479 94.0198 12.4619 94.0033C12.4448 94.0033 12.4107 93.9869 12.3937 93.9704C12.3766 93.954 12.3596 93.9375 12.3596 93.9047C12.3425 93.8882 12.3425 93.8553 12.3425 93.8389C12.3425 93.8225 12.3425 93.806 12.3425 93.7896C12.3596 93.7567 12.3596 93.7238 12.3937 93.7074C12.4107 93.6909 12.4278 93.6909 12.4278 93.6745C12.4619 93.658 12.496 93.6416 12.5301 93.6416Z" fill="#536F62" stroke="#536F62" stroke-width="0.85" stroke-linejoin="round"/>
<path d="M11.4684 97.8975C11.0109 98.3221 10.6381 98.8448 10.3161 99.3675C9.65523 100.445 9.24854 101.687 9.28243 102.944C9.36716 105.77 11.7396 108.367 14.6204 108.857C16.0608 109.102 17.5351 108.726 18.7043 107.877C19.7719 107.093 20.5514 105.966 20.9751 104.757C21.9071 102.128 20.7378 99.2858 18.7382 97.4238C17.9926 96.7215 17.0097 96.0355 15.9421 95.9048C14.5356 95.7415 13.0783 96.4111 12.0446 97.3095C11.8412 97.5055 11.6548 97.7015 11.4684 97.8975C11.299 98.0771 11.0278 97.8158 11.1973 97.6361C12.1632 96.6071 13.4172 95.8068 14.8746 95.5945C15.4846 95.5128 16.0947 95.5128 16.6878 95.7088C17.247 95.8885 17.7553 96.1825 18.2298 96.5255C20.5345 98.1915 22.1274 101.115 21.619 103.924C21.1276 106.652 18.789 109.151 15.8235 109.298C12.7394 109.461 9.89248 107.126 9.12991 104.316C8.50292 101.997 9.43494 99.5308 11.0787 97.7831C11.1295 97.7341 11.1634 97.6851 11.2142 97.6361C11.3668 97.4728 11.6379 97.7341 11.4684 97.8975Z" fill="#536F62"/>
<path d="M11.4684 97.8975C11.0109 98.3221 10.6381 98.8448 10.3161 99.3675C9.65523 100.445 9.24854 101.687 9.28243 102.944C9.36716 105.77 11.7396 108.367 14.6204 108.857C16.0608 109.102 17.5351 108.726 18.7043 107.877C19.7719 107.093 20.5514 105.966 20.9751 104.757C21.9071 102.128 20.7378 99.2858 18.7382 97.4238C17.9926 96.7215 17.0097 96.0355 15.9421 95.9048C14.5356 95.7415 13.0783 96.4111 12.0446 97.3095C11.8412 97.5055 11.6548 97.7015 11.4684 97.8975ZM11.4684 97.8975C11.299 98.0771 11.0278 97.8158 11.1973 97.6361C12.1632 96.6071 13.4172 95.8068 14.8746 95.5945C15.4846 95.5128 16.0947 95.5128 16.6878 95.7088C17.247 95.8885 17.7553 96.1825 18.2298 96.5255C20.5345 98.1915 22.1274 101.115 21.619 103.924C21.1276 106.652 18.789 109.151 15.8235 109.298C12.7394 109.461 9.89248 107.126 9.12991 104.316C8.50292 101.997 9.43494 99.5308 11.0787 97.7831C11.1295 97.7341 11.1634 97.6851 11.2142 97.6361C11.3668 97.4728 11.6379 97.7341 11.4684 97.8975Z" stroke="#536F62" stroke-width="0.85" stroke-linejoin="round"/>
<path d="M110.394 127.928C111.174 128.793 111.801 129.773 112.326 130.786C113.292 132.664 113.851 134.755 113.648 136.862C113.241 141.027 109.954 144.31 106.005 145.764C103.531 146.678 100.837 146.874 98.2441 146.45C98.3119 146.352 98.3797 146.27 98.4644 146.172C99.4134 147.56 100.193 149.177 100.091 150.876C100.04 151.725 99.7862 152.558 99.3625 153.31C98.4305 154.943 96.8037 156.152 95.1769 157.099C92.8553 158.438 90.2626 159.353 87.6699 160.088C84.2977 161.052 80.8238 161.689 77.3499 162.179C73.1643 162.767 68.9448 163.11 64.7252 163.306C64.166 163.338 63.5899 163.355 63.0307 163.371C62.7934 163.387 62.7934 163.012 63.0307 163.012C67.2671 162.865 71.5036 162.571 75.7061 162.032C79.2309 161.591 82.7556 160.986 86.2126 160.104C88.89 159.418 91.5675 158.569 94.0246 157.311C95.77 156.429 97.5155 155.319 98.6678 153.751C99.1253 153.13 99.4812 152.444 99.6506 151.693C99.9557 150.337 99.6167 148.949 99.0067 147.724C98.7694 147.25 98.4814 146.793 98.1933 146.368C98.0916 146.221 98.2611 146.074 98.4136 146.09C102.701 146.776 107.361 145.649 110.445 142.611C111.852 141.223 112.868 139.475 113.224 137.564C113.614 135.49 113.173 133.35 112.292 131.439C111.75 130.28 111.055 129.136 110.191 128.173C109.971 128.009 110.225 127.748 110.394 127.928Z" fill="#536F62" stroke="#536F62" stroke-width="0.85" stroke-linejoin="round"/>
<path d="M56.3675 197.15C55.571 199.355 54.5882 201.511 53.2833 203.471C52.3852 204.843 51.3345 206.133 50.0975 207.244C49.2841 207.979 48.386 208.632 47.4201 209.155C47.115 209.318 46.827 209.465 46.505 209.596C45.2849 210.135 44.0139 210.576 42.726 210.968C41.0654 211.474 39.3708 211.883 37.6592 212.144C35.7783 212.422 33.8634 212.389 31.9993 212.716C29.7455 213.124 27.6781 214.316 26.2208 216.031C25.9666 216.325 25.7124 216.668 25.5769 217.028C25.543 217.126 25.5091 217.24 25.526 217.338C25.526 217.354 25.5599 217.42 25.543 217.387C25.5769 217.436 25.5599 217.403 25.5769 217.42C25.5938 217.436 25.6955 217.452 25.7124 217.469C25.7972 217.485 25.8988 217.469 25.9836 217.469C26.2377 217.452 26.4919 217.387 26.7292 217.322C27.5426 217.109 28.339 216.848 29.1355 216.603C30.2878 216.26 31.4401 215.933 32.6094 215.656C35.1343 215.068 37.7101 214.708 40.2859 214.594C40.7434 214.578 41.2009 214.561 41.6585 214.545C41.7771 214.545 41.8788 214.659 41.8449 214.774C41.6415 215.492 41.4551 216.342 41.7093 217.077C41.7771 217.256 41.8618 217.42 41.9974 217.55C42.3363 217.877 42.8277 217.893 43.2853 217.844C43.5225 217.812 43.5225 218.187 43.2853 218.204C42.7938 218.269 42.2685 218.22 41.8618 217.91C41.6415 217.746 41.4721 217.518 41.3704 217.256C41.0315 216.44 41.2518 215.476 41.4721 214.676C41.5398 214.757 41.5907 214.823 41.6585 214.904C39.2522 214.937 36.8628 215.182 34.5073 215.623C32.1688 216.064 29.9319 216.75 27.6612 217.42C27.1528 217.567 25.0346 218.367 25.1363 217.191C25.1702 216.864 25.3566 216.538 25.543 216.276C25.831 215.868 26.17 215.492 26.5258 215.133C27.3901 214.3 28.3899 213.581 29.4913 213.075C31.5248 212.144 33.7786 212.128 35.9816 211.932C37.3881 211.801 38.7438 211.572 40.1164 211.246C42.3194 210.723 44.5223 210.053 46.5558 209.122C47.3862 208.73 48.1826 208.257 48.8943 207.701C50.0806 206.787 51.1312 205.692 52.0293 204.516C53.368 202.769 54.4187 200.825 55.266 198.832C55.5202 198.228 55.7574 197.624 55.9777 197.003C56.0794 196.823 56.4352 196.921 56.3675 197.15Z" fill="#536F62" stroke="#536F62" stroke-width="0.85" stroke-linejoin="round"/>
<path d="M62.4089 198.256C60.494 200.576 58.7994 203.042 57.2065 205.59C56.5965 206.554 56.0034 207.534 55.5967 208.595C55.2916 209.347 55.1052 210.163 55.2069 210.98C55.3594 212.368 56.2914 213.495 57.359 214.361C57.5454 214.508 57.2743 214.769 57.0879 214.622C56.0542 213.789 55.1561 212.711 54.8849 211.405C54.7155 210.588 54.8171 209.755 55.0713 208.955C55.4103 207.909 55.9525 206.946 56.5287 206.015C57.3421 204.675 58.2063 203.352 59.1044 202.062C60.0534 200.674 61.0702 199.334 62.1547 198.028C62.2903 197.815 62.5614 198.077 62.4089 198.256Z" fill="#536F62" stroke="#536F62" stroke-width="0.85" stroke-linejoin="round"/>
<path d="M79.4627 195.088C78.7171 196.836 77.9715 198.567 77.1919 200.299C76.6158 201.605 75.9888 202.896 75.4296 204.202C74.8365 205.607 74.362 207.077 74.2603 208.596C74.2264 209.2 74.2434 209.821 74.2942 210.425C74.3789 211.324 74.5653 212.206 74.684 213.104C74.7856 213.806 74.8873 214.607 74.5484 215.26C74.1586 216.011 73.2436 216.191 72.4471 216.126C72.5149 216.06 72.5827 215.995 72.6335 215.946C72.6166 217.171 72.0743 218.331 70.8881 218.886C69.7697 219.409 68.4648 219.409 67.2617 219.425C65.923 219.441 64.6012 219.539 63.2794 219.866C62.144 220.16 61.0425 220.585 59.9919 221.107C59.1277 221.548 58.2973 222.055 57.4839 222.594C56.9078 222.969 56.3485 223.378 55.7385 223.721C55.4165 223.9 54.942 224.129 54.5862 223.917C54.315 223.753 54.2473 223.443 54.2642 223.149C54.2981 222.594 54.5523 222.038 54.7895 221.548C55.281 220.536 55.891 219.572 56.518 218.625C56.7383 218.298 56.9586 217.955 57.1958 217.628C57.2467 217.726 57.2975 217.808 57.3653 217.906C54.6709 217.857 51.9765 217.988 49.316 218.314C47.8926 218.494 46.4861 218.739 45.0626 218.951C44.622 219.017 44.1814 219.082 43.7408 219.082C43.5036 219.082 43.1986 219.066 43.0122 218.886C42.5546 218.429 43.368 217.645 43.6731 217.351C44.5203 216.55 45.5371 215.897 46.6047 215.391C47.5875 214.917 48.6382 214.558 49.7397 214.411C50.6547 214.28 51.5698 214.296 52.5018 214.329C53.5864 214.378 54.6709 214.427 55.7724 214.394C56.8061 214.362 57.8398 214.264 58.8396 214.117C59.8563 213.97 60.8561 213.774 61.8559 213.529C62.9235 213.251 63.9911 212.924 64.9401 212.385C66.4483 211.52 67.6006 210.213 68.4648 208.759C69.3799 207.224 69.99 205.542 70.4475 203.843C70.8711 202.259 71.1423 200.642 71.3117 199.008C71.4304 197.849 71.5151 196.705 71.532 195.546C71.532 195.382 71.532 195.219 71.532 195.056C71.532 194.974 71.5998 194.909 71.6676 194.876C74.1417 194.092 76.8361 194.092 79.3102 194.876C79.5474 194.958 79.4457 195.301 79.2085 195.235C76.8022 194.468 74.1925 194.468 71.7693 195.235C71.8201 195.17 71.8709 195.121 71.9048 195.056C71.9048 196.019 71.854 196.999 71.7693 197.963C71.6506 199.498 71.4473 201.034 71.1253 202.536C70.7695 204.235 70.2611 205.917 69.5324 207.502C68.8207 209.037 67.8717 210.491 66.5838 211.634C65.9399 212.206 65.2282 212.679 64.4317 213.039C63.3811 213.512 62.2457 213.823 61.1273 214.068C59.1446 214.509 57.1111 214.77 55.0776 214.77C53.1458 214.786 51.1801 214.476 49.2652 214.868C48.1129 215.097 47.0114 215.57 45.9946 216.142C45.0965 216.648 44.1645 217.269 43.5205 218.086C43.4358 218.2 43.3511 218.314 43.3002 218.445C43.2833 218.478 43.2664 218.559 43.2664 218.576C43.2664 218.625 43.2664 218.657 43.2664 218.641C43.2833 218.674 43.2833 218.674 43.3002 218.674C43.3511 218.69 43.368 218.706 43.4189 218.723C43.5544 218.755 43.69 218.755 43.8425 218.755C44.3 218.739 44.7576 218.674 45.2151 218.592C45.8591 218.494 46.4861 218.38 47.13 218.282C49.943 217.841 52.7899 217.596 55.6368 217.563C56.213 217.563 56.7722 217.563 57.3484 217.563C57.4839 217.563 57.6025 217.726 57.5178 217.841C56.7891 218.886 56.0774 219.964 55.4674 221.091C55.1454 221.663 54.8404 222.267 54.6879 222.904C54.654 223.067 54.6201 223.198 54.637 223.378C54.637 223.427 54.637 223.361 54.637 223.394C54.637 223.41 54.637 223.427 54.637 223.443C54.637 223.476 54.654 223.492 54.654 223.525C54.6709 223.557 54.637 223.508 54.6709 223.557C54.6879 223.574 54.7217 223.623 54.6879 223.59C54.7387 223.655 54.7217 223.655 54.7895 223.672C54.7387 223.655 54.8234 223.688 54.8573 223.688C54.8234 223.688 54.8912 223.688 54.9251 223.688C55.0437 223.688 55.2471 223.606 55.3996 223.525C55.9588 223.247 56.4672 222.871 56.9755 222.528C57.7212 222.038 58.4668 221.548 59.2463 221.124C61.2798 220.013 63.5336 219.278 65.8721 219.147C68.0073 219.033 71.4812 219.507 72.1251 216.844C72.1929 216.567 72.2099 216.289 72.2268 216.011C72.2268 215.913 72.3115 215.815 72.4132 215.832C73.108 215.881 73.9214 215.766 74.2264 215.08C74.4806 214.492 74.362 213.774 74.2773 213.169C74.057 211.699 73.7689 210.246 73.8536 208.759C74.0061 205.901 75.4465 203.304 76.5988 200.723C77.4292 198.845 78.2595 196.95 79.0729 195.056C79.1916 194.778 79.5474 194.86 79.4627 195.088Z" fill="#536F62" stroke="#536F62" stroke-width="0.85" stroke-linejoin="round"/>
<path d="M78.1054 147.185C78.6308 147.545 79.1561 147.937 79.5458 148.427C79.7661 148.721 79.9525 149.08 79.8678 149.439C79.7661 149.815 79.4103 150.06 79.0713 150.223C78.4782 150.501 77.8174 150.615 77.1734 150.697C76.1567 150.844 75.1399 150.893 74.1062 150.909C72.4794 150.942 70.8526 150.909 69.2428 150.828C69.0733 150.828 69.0733 150.583 69.2428 150.583C71.6491 150.697 74.0893 150.779 76.4956 150.534C77.1904 150.468 77.9021 150.37 78.563 150.142C78.9188 150.027 79.3425 149.864 79.5458 149.537C79.6983 149.292 79.6136 148.998 79.478 148.77C79.1391 148.198 78.5291 147.757 77.9868 147.381C77.8343 147.3 77.9699 147.087 78.1054 147.185Z" fill="#536F62" stroke="#536F62" stroke-width="0.85" stroke-linejoin="round"/>
<path d="M23.6014 124.254C23.5167 125.103 23.1947 126.001 22.5846 126.638C22.161 127.079 21.3815 127.52 20.7375 127.292C20.2631 127.128 19.9919 126.655 19.8225 126.214C19.5174 125.397 19.5174 124.466 19.6022 123.617C19.6191 123.453 19.8733 123.453 19.8564 123.617C19.7886 124.335 19.7716 125.087 19.958 125.805C20.0597 126.246 20.2631 126.769 20.6867 127.014C21.229 127.308 21.9576 126.9 22.3474 126.524C22.7202 126.165 22.9574 125.707 23.11 125.234C23.2116 124.923 23.2964 124.58 23.3303 124.27C23.3811 124.09 23.6353 124.09 23.6014 124.254Z" fill="#536F62" stroke="#536F62" stroke-width="0.85" stroke-linejoin="round"/>
<path d="M21.232 134.376C21.2828 135.03 21.0286 135.797 20.4186 136.124C20.1983 136.238 19.9441 136.271 19.7068 136.173C19.4357 136.059 19.2154 135.846 19.0629 135.601C18.8256 135.242 18.7409 134.801 18.7748 134.376C18.7918 134.213 19.0459 134.213 19.029 134.376C18.9782 134.932 19.1815 135.618 19.7068 135.912C20.1305 136.157 20.5372 135.781 20.7405 135.438C20.9269 135.111 20.9947 134.736 20.9608 134.376C20.9778 134.213 21.232 134.213 21.232 134.376Z" fill="#536F62" stroke="#536F62" stroke-width="0.85" stroke-linejoin="round"/>
<path d="M27.3324 139.772C27.3493 140.295 27.0104 140.85 26.4512 140.964C25.8751 141.079 25.3667 140.654 25.2311 140.131C25.1972 139.984 25.4345 139.919 25.4684 140.066C25.57 140.458 25.9598 140.817 26.4004 140.719C26.841 140.621 27.0952 140.197 27.0782 139.772C27.0782 139.609 27.3324 139.609 27.3324 139.772Z" fill="#536F62" stroke="#536F62" stroke-width="0.85" stroke-linejoin="round"/>
<path d="M21.7384 144.667C21.7384 145.076 21.6368 145.484 21.4334 145.843C21.2809 146.105 21.0606 146.366 20.7556 146.497C20.1794 146.758 19.6372 146.284 19.383 145.811C19.1627 145.402 19.0779 144.945 19.1118 144.488C19.1288 144.324 19.383 144.324 19.366 144.488C19.3152 145.092 19.5016 145.827 20.0439 146.186C20.2133 146.301 20.3997 146.366 20.6031 146.284C20.8403 146.203 21.0267 145.99 21.1623 145.794C21.3826 145.451 21.4843 145.043 21.4843 144.651C21.5012 144.504 21.7554 144.504 21.7384 144.667Z" fill="#536F62" stroke="#536F62" stroke-width="0.85" stroke-linejoin="round"/>
<path d="M85.3365 136.516C85.7771 136.614 86.2008 136.761 86.5905 136.941C86.9294 137.104 87.4209 137.414 87.3022 137.855C87.1667 138.329 86.5566 138.59 86.1499 138.77C85.5399 139.031 84.879 139.211 84.2181 139.309C83.4216 139.407 82.6082 139.374 81.8287 139.195C81.6762 139.162 81.744 138.917 81.8965 138.966C83.1336 139.227 84.3876 139.146 85.5738 138.737C86.0482 138.574 86.6244 138.378 86.9633 138.002C87.2683 137.643 86.8616 137.365 86.5397 137.202C86.1499 137.006 85.7093 136.875 85.2687 136.761C85.1162 136.712 85.184 136.483 85.3365 136.516Z" fill="#536F62" stroke="#536F62" stroke-width="0.85" stroke-linejoin="round"/>
<path d="M90.1403 144.573C90.6657 144.883 92.1061 145.765 91.3604 146.5C91.1401 146.729 90.8012 146.843 90.5132 146.925C90.0217 147.072 89.4964 147.137 88.988 147.203C88.1238 147.301 87.2426 147.333 86.3784 147.35C86.2089 147.35 86.2089 147.105 86.3784 147.105C87.5985 147.088 88.8694 147.056 90.0556 146.794C90.4115 146.713 91.3774 146.533 91.3096 146.01C91.2757 145.798 91.1063 145.618 90.9537 145.471C90.6657 145.21 90.3437 144.981 90.0048 144.785C89.8692 144.687 90.0048 144.475 90.1403 144.573Z" fill="#536F62" stroke="#536F62" stroke-width="0.85" stroke-linejoin="round"/>
<path d="M64.5425 140.765C64.678 141.043 64.7797 141.369 64.7289 141.68C64.678 141.974 64.4747 142.202 64.2035 142.333C63.5257 142.692 62.6615 142.545 62.0006 142.251C61.8481 142.186 61.9836 141.974 62.1362 142.039C62.7123 142.3 63.441 142.447 64.0341 142.153C64.2544 142.055 64.4238 141.892 64.4747 141.647C64.5255 141.386 64.4408 141.108 64.3222 140.879C64.2544 140.749 64.4747 140.618 64.5425 140.765Z" fill="#536F62" stroke="#536F62" stroke-width="0.85" stroke-linejoin="round"/>
</g>
<defs>
<filter id="filter0_d_1420_1776" x="136.557" y="0.510742" width="190.572" height="117.102" filterUnits="userSpaceOnUse" color-interpolation-filters="sRGB">
<feFlood flood-opacity="0" result="BackgroundImageFix"/>
<feColorMatrix in="SourceAlpha" type="matrix" values="0 0 0 0 0 0 0 0 0 0 0 0 0 0 0 0 0 0 127 0" result="hardAlpha"/>
<feOffset dy="4"/>
<feGaussianBlur stdDeviation="2"/>
<feComposite in2="hardAlpha" operator="out"/>
<feColorMatrix type="matrix" values="0 0 0 0 0 0 0 0 0 0 0 0 0 0 0 0 0 0 0.25 0"/>
<feBlend mode="normal" in2="BackgroundImageFix" result="effect1_dropShadow_1420_1776"/>
<feBlend mode="normal" in="SourceGraphic" in2="effect1_dropShadow_1420_1776" result="shape"/>
</filter>
<filter id="filter1_d_1420_1776" x="0.0517578" y="77.3271" width="133.857" height="155.1" filterUnits="userSpaceOnUse" color-interpolation-filters="sRGB">
<feFlood flood-opacity="0" result="BackgroundImageFix"/>
<feColorMatrix in="SourceAlpha" type="matrix" values="0 0 0 0 0 0 0 0 0 0 0 0 0 0 0 0 0 0 127 0" result="hardAlpha"/>
<feOffset dy="4"/>
<feGaussianBlur stdDeviation="2"/>
<feComposite in2="hardAlpha" operator="out"/>
<feColorMatrix type="matrix" values="0 0 0 0 0 0 0 0 0 0 0 0 0 0 0 0 0 0 0.25 0"/>
<feBlend mode="normal" in2="BackgroundImageFix" result="effect1_dropShadow_1420_1776"/>
<feBlend mode="normal" in="SourceGraphic" in2="effect1_dropShadow_1420_1776" result="shape"/>
</filter>
</defs>
</svg>
