<svg width="265" height="315" viewBox="0 0 265 315" fill="none" xmlns="http://www.w3.org/2000/svg">
<path d="M189.669 189.652C134.541 255.858 68.699 291.916 42.6068 270.19C16.5146 248.464 19.471 175.555 89.4897 161.196C130.361 152.814 196.06 48.1439 222.872 69.6008C245.925 88.0494 244.796 123.445 189.669 189.652Z" fill="#F5EBDE"/>
<path d="M62.7535 72.9497C60.4922 71.377 58.0938 70.5906 55.4214 69.8647C53.5713 69.3808 51.7897 68.4735 50.2136 67.4452C45.8966 64.7231 42.2649 61.0333 39.4554 57.041C36.0977 52.3833 33.6994 47.1812 32.7401 41.7371C31.8493 36.898 32.3974 31.9984 33.905 27.3407C36.6459 18.9931 43.1557 9.19382 54.325 9.07284C63.5072 8.95187 71.3874 15.3033 76.5953 21.2917C83.1735 28.7924 85.9145 38.4102 85.3663 47.8466C85.0922 52.1413 84.2014 56.5571 82.2142 60.4889C81.4604 61.9406 80.5696 63.3924 79.3362 64.6021C78.0343 65.8724 76.4582 66.8403 75.2933 68.2315C73.2376 70.7116 72.6894 73.857 73.1691 76.821C73.5117 78.9382 74.5396 80.8738 75.4304 82.8095C77.349 86.8623 79.1992 90.9755 81.1178 95.0283C82.1457 97.206 83.105 99.3836 84.1329 101.622C86.3941 106.703 88.5869 111.784 90.7111 116.865C93.5891 123.821 96.3986 130.778 99.0711 137.855C101.881 145.295 104.484 152.735 106.746 160.296C108.664 166.708 110.446 173.241 111.337 179.895C111.679 182.375 111.885 184.855 111.679 187.335C111.542 188.968 111.268 190.844 110.446 192.174C110.035 192.779 109.418 193.445 108.733 193.626C108.459 193.687 108.801 193.626 108.459 193.687C108.048 193.687 107.705 193.687 107.362 193.566C105.718 193.203 104.279 192.295 103.182 191.207C101.949 189.997 100.853 188.364 99.8933 186.73C96.9468 181.77 94.8226 176.447 92.8354 171.124C90.2315 164.107 87.9702 157.03 85.846 149.892C83.5847 142.271 81.4604 134.588 79.4733 126.906C77.6231 119.829 75.91 112.812 74.1969 105.735C72.9635 100.533 71.7986 95.3308 70.6337 90.0682C70.154 87.9511 69.6744 85.8339 69.2632 83.6563C68.3039 79.664 66.4538 75.6717 62.7535 72.9497C61.7256 72.2238 60.2866 73.4941 61.3145 74.22C64.8092 76.821 66.3852 80.4504 67.2075 84.3217C67.3446 85.0476 67.5501 85.8339 67.6872 86.5598C68.578 90.6731 69.5373 94.8469 70.4281 98.9602C71.9356 105.553 73.5117 112.147 75.1563 118.74C77.0749 126.483 79.1306 134.225 81.2549 141.908C83.3791 149.529 85.6404 157.091 88.2443 164.591C90.3685 170.822 92.6298 177.052 95.5763 183.101C96.6042 185.279 97.7691 187.396 99.1396 189.452C100.099 190.904 101.195 192.356 102.703 193.445C104.347 194.654 106.814 195.925 109.076 195.501C110.583 195.199 111.748 193.989 112.365 192.779C113.324 191.025 113.598 189.029 113.735 187.093C114.078 181.347 112.776 175.479 111.405 169.854C109.624 162.353 107.225 155.034 104.69 147.715C102.018 140.093 99.2081 132.592 96.193 125.092C93.7262 118.922 91.1223 112.752 88.4499 106.582C87.0109 103.255 85.5033 99.928 83.9958 96.6011C81.4604 91.0965 78.8565 85.6525 76.3897 80.2084C75.1563 77.4259 74.471 74.2805 75.773 71.377C76.6638 69.2598 78.4454 68.05 80.1585 66.5983C83.105 64.1182 84.6811 60.5494 85.7775 57.162C88.861 47.4836 87.9017 36.4746 83.1735 27.3407C79.6788 20.5658 73.4432 14.2749 66.2482 10.4641C61.6571 7.98403 56.2437 6.71376 50.8303 7.68159C45.554 8.64943 41.3055 11.7344 38.1535 15.4847C31.7122 23.1669 29.0398 33.6921 30.9585 43.0679C32.0548 48.5725 34.5902 53.8955 38.0849 58.5532C41.0314 62.5455 44.6632 66.2354 49.0487 69.0179C50.6933 70.0462 52.4064 70.9536 54.2565 71.498C55.0788 71.7399 55.9696 71.9214 56.8604 72.1633C58.505 72.6472 60.0125 73.3731 61.383 74.2805C62.2738 74.9458 63.7813 73.6756 62.7535 72.9497Z" fill="#7E684D"/>
<path d="M62.7535 72.9497C60.4922 71.377 58.0938 70.5906 55.4214 69.8647C53.5713 69.3808 51.7897 68.4735 50.2136 67.4452C45.8966 64.7231 42.2649 61.0333 39.4554 57.041C36.0977 52.3833 33.6994 47.1812 32.7401 41.7371C31.8493 36.898 32.3974 31.9984 33.905 27.3407C36.6459 18.9931 43.1557 9.19382 54.325 9.07284C63.5072 8.95187 71.3874 15.3033 76.5953 21.2917C83.1735 28.7924 85.9145 38.4102 85.3663 47.8466C85.0922 52.1413 84.2014 56.5571 82.2142 60.4889C81.4604 61.9406 80.5696 63.3924 79.3362 64.6021C78.0343 65.8724 76.4582 66.8403 75.2933 68.2315C73.2376 70.7116 72.6894 73.857 73.1691 76.821C73.5117 78.9382 74.5396 80.8738 75.4304 82.8095C77.349 86.8622 79.1992 90.9755 81.1178 95.0283C82.1457 97.206 83.105 99.3836 84.1329 101.622C86.3941 106.703 88.5869 111.784 90.7111 116.865C93.5891 123.821 96.3986 130.778 99.0711 137.855C101.881 145.295 104.484 152.735 106.746 160.296C108.664 166.708 110.446 173.241 111.337 179.895C111.679 182.375 111.885 184.855 111.679 187.335C111.542 188.968 111.268 190.844 110.446 192.174C110.035 192.779 109.418 193.445 108.733 193.626C108.459 193.687 108.801 193.626 108.459 193.687C108.048 193.687 107.705 193.687 107.362 193.566C105.718 193.203 104.279 192.295 103.182 191.207C101.949 189.997 100.853 188.364 99.8933 186.73C96.9468 181.77 94.8226 176.447 92.8354 171.124C90.2315 164.107 87.9702 157.03 85.846 149.892C83.5847 142.271 81.4604 134.588 79.4733 126.906C77.6231 119.829 75.91 112.812 74.1969 105.735C72.9635 100.533 71.7986 95.3308 70.6337 90.0682C70.154 87.9511 69.6744 85.8339 69.2632 83.6563C68.3039 79.664 66.4538 75.6717 62.7535 72.9497ZM62.7535 72.9497C61.7256 72.2238 60.2866 73.4941 61.3145 74.22C64.8092 76.821 66.3852 80.4504 67.2075 84.3217C67.3446 85.0476 67.5501 85.8339 67.6872 86.5598C68.578 90.6731 69.5373 94.8469 70.4281 98.9601C71.9356 105.553 73.5117 112.147 75.1563 118.74C77.0749 126.483 79.1306 134.225 81.2549 141.908C83.3791 149.529 85.6404 157.091 88.2443 164.591C90.3685 170.822 92.6298 177.052 95.5763 183.101C96.6042 185.279 97.7691 187.396 99.1396 189.452C100.099 190.904 101.195 192.356 102.703 193.445C104.347 194.654 106.814 195.925 109.076 195.501C110.583 195.199 111.748 193.989 112.365 192.779C113.324 191.025 113.598 189.029 113.735 187.093C114.078 181.347 112.776 175.479 111.405 169.854C109.624 162.353 107.225 155.034 104.69 147.715C102.018 140.093 99.2081 132.592 96.193 125.092C93.7262 118.922 91.1223 112.752 88.4499 106.582C87.0109 103.255 85.5034 99.928 83.9958 96.6011C81.4605 91.0965 78.8565 85.6525 76.3897 80.2084C75.1563 77.4259 74.471 74.2805 75.773 71.377C76.6638 69.2598 78.4454 68.05 80.1585 66.5983C83.105 64.1182 84.6811 60.5494 85.7775 57.162C88.861 47.4836 87.9017 36.4746 83.1735 27.3407C79.6788 20.5658 73.4432 14.2749 66.2482 10.4641C61.6571 7.98403 56.2437 6.71376 50.8303 7.68159C45.554 8.64943 41.3055 11.7344 38.1535 15.4847C31.7122 23.1669 29.0398 33.6921 30.9585 43.0679C32.0548 48.5725 34.5902 53.8955 38.0849 58.5532C41.0314 62.5455 44.6632 66.2354 49.0487 69.0179C50.6933 70.0462 52.4064 70.9536 54.2565 71.498C55.0788 71.7399 55.9696 71.9214 56.8604 72.1633C58.505 72.6472 60.0125 73.3731 61.383 74.2805C62.2738 74.9458 63.7813 73.6756 62.7535 72.9497Z" stroke="#7E684D" stroke-width="0.15"/>
<path d="M148.949 22.3038C148.538 15.4685 148.264 8.57272 148.264 1.73742C148.264 1.2535 147.784 0.830078 147.236 0.830078C145.66 0.830078 144.015 0.830078 142.439 0.830078C141.891 0.830078 141.411 1.2535 141.411 1.73742C141.411 6.39511 141.411 10.9923 141.411 15.65C141.411 23.0297 141.411 30.4094 141.411 37.7891C141.411 39.4828 141.411 41.1765 141.411 42.8702C141.754 42.5678 142.097 42.2653 142.439 41.9629C141.274 41.9629 140.178 41.9629 139.013 41.9629C139.356 42.2653 139.698 42.5678 140.041 42.8702C140.041 38.2125 140.041 33.6153 140.041 28.9577C140.041 21.578 140.041 14.1983 140.041 6.81855C140.041 5.12484 140.041 3.43112 140.041 1.73742C140.041 1.2535 139.561 0.830078 139.013 0.830078C137.437 0.830078 135.792 0.830078 134.216 0.830078C133.668 0.830078 133.189 1.2535 133.189 1.73742C133.189 6.39511 133.189 10.9923 133.189 15.65C133.189 23.0297 133.189 30.4094 133.189 37.7891C133.189 39.4828 133.189 41.1765 133.189 42.8702C133.531 42.5678 133.874 42.2653 134.216 41.9629C133.051 41.9629 131.955 41.9629 130.79 41.9629C131.133 42.2653 131.475 42.5678 131.818 42.8702C131.818 38.2125 131.818 33.6153 131.818 28.9577C131.818 21.578 131.818 14.1983 131.818 6.81855C131.818 5.12484 131.818 3.43112 131.818 1.73742C131.818 1.2535 131.338 0.830078 130.79 0.830078C129.214 0.830078 127.57 0.830078 125.994 0.830078C125.445 0.830078 124.966 1.2535 124.966 1.73742C124.966 6.39511 124.966 10.9923 124.966 15.65C124.966 23.0297 124.966 30.4094 124.966 37.7891C124.966 39.4828 124.966 41.1765 124.966 42.8702C125.308 42.5678 125.651 42.2653 125.994 41.9629C124.829 41.9629 123.732 41.9629 122.567 41.9629C122.91 42.2653 123.253 42.5678 123.595 42.8702C123.732 29.2601 123.801 15.65 123.938 2.03987C123.938 1.55595 123.458 1.13253 122.91 1.13253C121.334 1.13253 119.689 1.13253 118.113 1.13253C117.497 1.13253 117.154 1.55595 117.085 2.03987C116.263 12.928 115.441 23.8766 114.619 34.7647C114.344 38.6965 113.728 42.7493 113.796 46.6811C113.865 50.6734 114.687 54.6657 116.4 58.3555C118.593 63.0132 122.156 67.066 126.61 70.0905C126.542 69.8485 126.405 69.6671 126.336 69.4251C125.582 81.7045 124.829 93.9838 123.938 106.324C123.253 115.941 122.567 125.499 122.019 135.117C121.471 145.944 121.128 156.772 121.402 167.599C121.539 171.955 121.677 176.249 122.225 180.544C122.567 183.327 122.978 186.17 123.869 188.892C124.76 191.735 126.268 194.88 129.557 196.029C134.011 197.481 137.643 195.122 139.356 191.735C140.383 189.678 140.932 187.5 141.343 185.323C142.028 181.814 142.371 178.306 142.576 174.798C143.262 163.728 142.987 152.598 142.576 141.529C142.234 132.455 141.548 123.382 140.932 114.308C140.041 101.726 139.15 89.1447 138.396 76.5629C138.259 74.2038 138.122 71.8447 137.985 69.4856C137.848 69.7275 137.643 70.03 137.505 70.272C143.33 66.5821 148.058 61.259 149.771 55.0286C151.347 49.2821 150.662 43.2332 150.182 37.4262C149.771 32.4056 149.292 27.3244 148.949 22.3038C148.88 21.1545 146.825 21.1545 146.893 22.3038C147.373 29.8045 148.332 37.2447 148.606 44.7454C148.743 49.4636 148.469 54.2422 146.208 58.5975C144.495 61.7429 142.097 64.5255 139.082 66.8845C138.465 67.3685 137.848 67.8524 137.163 68.2758C136.409 68.7597 135.929 69.0622 135.998 69.9695C136.067 71.4818 136.204 72.994 136.272 74.5667C136.82 83.3377 137.368 92.1691 137.985 100.94C138.876 114.006 139.972 127.132 140.521 140.258C140.863 148.001 141.069 155.743 141 163.547C140.932 169.535 140.795 175.584 140.041 181.573C139.63 184.657 139.013 188.226 137.711 190.948C137.506 191.432 137.231 191.916 136.889 192.34C136.752 192.521 136.615 192.703 136.478 192.884C136.272 193.126 136.409 193.005 136.135 193.247C135.45 193.912 135.313 194.033 134.422 194.457C134.216 194.517 134.285 194.517 134.353 194.457C134.285 194.457 134.216 194.517 134.148 194.517C133.6 194.699 133.051 194.759 132.435 194.82C131.681 194.82 130.927 194.699 130.242 194.517C130.036 194.457 130.448 194.578 130.173 194.517C130.105 194.457 129.968 194.457 129.899 194.396C129.762 194.336 129.557 194.215 129.42 194.154C129.351 194.094 129.283 194.033 129.214 194.033C129.077 193.973 129.351 194.094 129.077 193.973C128.734 193.731 128.46 193.428 128.186 193.126C128.323 193.247 127.981 192.884 127.844 192.763C127.707 192.582 127.57 192.34 127.433 192.158C127.158 191.674 126.884 191.251 126.747 190.827C126.131 189.497 125.719 188.045 125.445 186.654C124.349 181.996 124.075 177.217 123.801 172.499C123.458 164.575 123.527 156.651 123.732 148.787C124.075 136.387 124.897 123.987 125.788 111.647C126.405 102.997 127.021 94.3468 127.57 85.6968C127.844 81.7045 128.049 77.7122 128.323 73.7803C128.392 72.994 128.392 72.2681 128.46 71.4818C128.529 70.8164 128.803 69.8485 128.323 69.3041C127.844 68.6992 126.884 68.2758 126.268 67.7919C125.445 67.1265 124.692 66.4611 123.938 65.7353C118.045 59.9888 115.509 52.3066 116.058 44.6244C116.743 35.43 117.497 26.2357 118.182 17.0413C118.524 12.1416 118.936 7.30247 119.278 2.40283C118.936 2.70527 118.593 3.00772 118.25 3.31017C119.826 3.31017 121.471 3.31017 123.047 3.31017C122.704 3.00772 122.362 2.70527 122.019 2.40283C121.882 16.0129 121.814 29.6231 121.677 43.2332C121.677 43.7171 122.156 44.1405 122.704 44.1405C123.869 44.1405 124.966 44.1405 126.131 44.1405C126.679 44.1405 127.158 43.7171 127.158 43.2332C127.158 38.5755 127.158 33.9783 127.158 29.3206C127.158 21.9409 127.158 14.5612 127.158 7.18147C127.158 5.48776 127.158 3.79408 127.158 2.10038C126.816 2.40283 126.473 2.70527 126.131 3.00772C127.707 3.00772 129.351 3.00772 130.927 3.00772C130.585 2.70527 130.242 2.40283 129.899 2.10038C129.899 6.75806 129.899 11.3553 129.899 16.0129C129.899 23.3927 129.899 30.7724 129.899 38.1521C129.899 39.8458 129.899 41.5395 129.899 43.2332C129.899 43.7171 130.379 44.1405 130.927 44.1405C132.092 44.1405 133.189 44.1405 134.353 44.1405C134.902 44.1405 135.381 43.7171 135.381 43.2332C135.381 38.5755 135.381 33.9783 135.381 29.3206C135.381 21.9409 135.381 14.5612 135.381 7.18147C135.381 5.48776 135.381 3.79408 135.381 2.10038C135.039 2.40283 134.696 2.70527 134.353 3.00772C135.929 3.00772 137.574 3.00772 139.15 3.00772C138.807 2.70527 138.465 2.40283 138.122 2.10038C138.122 6.75806 138.122 11.3553 138.122 16.0129C138.122 23.3927 138.122 30.7724 138.122 38.1521C138.122 39.8458 138.122 41.5395 138.122 43.2332C138.122 43.7171 138.602 44.1405 139.15 44.1405C140.315 44.1405 141.411 44.1405 142.576 44.1405C143.124 44.1405 143.604 43.7171 143.604 43.2332C143.604 38.5755 143.604 33.9783 143.604 29.3206C143.604 21.9409 143.604 14.5612 143.604 7.18147C143.604 5.48776 143.604 3.79408 143.604 2.10038C143.262 2.40283 142.919 2.70527 142.576 3.00772C144.152 3.00772 145.797 3.00772 147.373 3.00772C147.03 2.70527 146.688 2.40283 146.345 2.10038C146.345 8.93568 146.619 15.8315 147.03 22.6668C146.962 23.4531 149.017 23.5136 148.949 22.3038Z" fill="#7E684D"/>
<path d="M148.949 22.3038C148.538 15.4685 148.264 8.57273 148.264 1.73742C148.264 1.2535 147.784 0.830078 147.236 0.830078C145.66 0.830078 144.015 0.830078 142.439 0.830078C141.891 0.830078 141.411 1.2535 141.411 1.73742C141.411 6.39511 141.411 10.9923 141.411 15.65C141.411 23.0297 141.411 30.4094 141.411 37.7891C141.411 39.4828 141.411 41.1765 141.411 42.8702C141.754 42.5678 142.097 42.2653 142.439 41.9629C141.274 41.9629 140.178 41.9629 139.013 41.9629C139.356 42.2653 139.698 42.5678 140.041 42.8702C140.041 38.2125 140.041 33.6153 140.041 28.9577C140.041 21.578 140.041 14.1983 140.041 6.81855C140.041 5.12484 140.041 3.43112 140.041 1.73742C140.041 1.2535 139.561 0.830078 139.013 0.830078C137.437 0.830078 135.792 0.830078 134.216 0.830078C133.668 0.830078 133.189 1.2535 133.189 1.73742C133.189 6.39511 133.189 10.9923 133.189 15.65C133.189 23.0297 133.189 30.4094 133.189 37.7891C133.189 39.4828 133.189 41.1765 133.189 42.8702C133.531 42.5678 133.874 42.2653 134.216 41.9629C133.051 41.9629 131.955 41.9629 130.79 41.9629C131.133 42.2653 131.475 42.5678 131.818 42.8702C131.818 38.2125 131.818 33.6153 131.818 28.9577C131.818 21.578 131.818 14.1983 131.818 6.81855C131.818 5.12484 131.818 3.43112 131.818 1.73742C131.818 1.2535 131.338 0.830078 130.79 0.830078C129.214 0.830078 127.57 0.830078 125.994 0.830078C125.445 0.830078 124.966 1.2535 124.966 1.73742C124.966 6.39511 124.966 10.9923 124.966 15.65C124.966 23.0297 124.966 30.4094 124.966 37.7891C124.966 39.4828 124.966 41.1765 124.966 42.8702C125.308 42.5678 125.651 42.2653 125.994 41.9629C124.829 41.9629 123.732 41.9629 122.567 41.9629C122.91 42.2653 123.253 42.5678 123.595 42.8702C123.732 29.2601 123.801 15.65 123.938 2.03987C123.938 1.55595 123.458 1.13253 122.91 1.13253C121.334 1.13253 119.689 1.13253 118.113 1.13253C117.497 1.13253 117.154 1.55595 117.085 2.03987C116.263 12.928 115.441 23.8766 114.619 34.7647C114.344 38.6965 113.728 42.7493 113.796 46.6811C113.865 50.6734 114.687 54.6657 116.4 58.3555C118.593 63.0132 122.156 67.066 126.61 70.0905C126.542 69.8485 126.405 69.6671 126.336 69.4251C125.582 81.7045 124.829 93.9838 123.938 106.324C123.253 115.941 122.567 125.499 122.019 135.117C121.471 145.944 121.128 156.772 121.402 167.599C121.539 171.955 121.677 176.249 122.225 180.544C122.567 183.327 122.978 186.17 123.869 188.892C124.76 191.735 126.268 194.88 129.557 196.029C134.011 197.481 137.643 195.122 139.356 191.735C140.383 189.678 140.932 187.5 141.343 185.323C142.028 181.814 142.371 178.306 142.576 174.798C143.262 163.728 142.987 152.598 142.576 141.529C142.234 132.455 141.548 123.382 140.932 114.308C140.041 101.726 139.15 89.1446 138.396 76.5628C138.259 74.2038 138.122 71.8447 137.985 69.4856C137.848 69.7275 137.643 70.03 137.505 70.272C143.33 66.5821 148.058 61.259 149.771 55.0286C151.347 49.2821 150.662 43.2332 150.182 37.4262C149.771 32.4056 149.292 27.3244 148.949 22.3038ZM148.949 22.3038C148.88 21.1545 146.825 21.1545 146.893 22.3038C147.373 29.8045 148.332 37.2447 148.606 44.7454C148.743 49.4636 148.469 54.2422 146.208 58.5975C144.495 61.7429 142.097 64.5255 139.082 66.8845C138.465 67.3685 137.848 67.8524 137.163 68.2758C136.409 68.7597 135.929 69.0622 135.998 69.9695C136.067 71.4818 136.204 72.994 136.272 74.5667C136.82 83.3377 137.368 92.1691 137.985 100.94C138.876 114.006 139.972 127.132 140.521 140.258C140.863 148.001 141.069 155.744 141 163.547C140.932 169.535 140.795 175.584 140.041 181.573C139.63 184.657 139.013 188.226 137.711 190.948C137.506 191.432 137.231 191.916 136.889 192.34C136.752 192.521 136.615 192.703 136.478 192.884C136.272 193.126 136.409 193.005 136.135 193.247C135.45 193.912 135.313 194.033 134.422 194.457C134.216 194.517 134.285 194.517 134.353 194.457C134.285 194.457 134.216 194.517 134.148 194.517C133.6 194.699 133.051 194.759 132.435 194.82C131.681 194.82 130.927 194.699 130.242 194.517C130.036 194.457 130.448 194.578 130.173 194.517C130.105 194.457 129.968 194.457 129.899 194.396C129.762 194.336 129.557 194.215 129.42 194.154C129.351 194.094 129.283 194.033 129.214 194.033C129.077 193.973 129.351 194.094 129.077 193.973C128.734 193.731 128.46 193.428 128.186 193.126C128.323 193.247 127.981 192.884 127.844 192.763C127.707 192.582 127.57 192.34 127.433 192.158C127.158 191.674 126.884 191.251 126.747 190.827C126.131 189.497 125.719 188.045 125.445 186.654C124.349 181.996 124.075 177.217 123.801 172.499C123.458 164.575 123.527 156.651 123.732 148.787C124.075 136.387 124.897 123.987 125.788 111.647C126.405 102.997 127.021 94.3468 127.57 85.6968C127.844 81.7045 128.049 77.7122 128.323 73.7804C128.392 72.994 128.392 72.2681 128.46 71.4818C128.529 70.8164 128.803 69.8485 128.323 69.3041C127.844 68.6992 126.884 68.2758 126.268 67.7919C125.445 67.1265 124.692 66.4611 123.938 65.7353C118.045 59.9888 115.509 52.3066 116.058 44.6244C116.743 35.43 117.497 26.2357 118.182 17.0413C118.524 12.1416 118.936 7.30247 119.278 2.40283C118.936 2.70527 118.593 3.00772 118.25 3.31017C119.826 3.31017 121.471 3.31017 123.047 3.31017C122.704 3.00772 122.362 2.70527 122.019 2.40283C121.882 16.0129 121.814 29.6231 121.677 43.2332C121.677 43.7171 122.156 44.1405 122.704 44.1405C123.869 44.1405 124.966 44.1405 126.131 44.1405C126.679 44.1405 127.158 43.7171 127.158 43.2332C127.158 38.5755 127.158 33.9783 127.158 29.3206C127.158 21.9409 127.158 14.5612 127.158 7.18147C127.158 5.48776 127.158 3.79408 127.158 2.10038C126.816 2.40283 126.473 2.70527 126.131 3.00772C127.707 3.00772 129.351 3.00772 130.927 3.00772C130.585 2.70527 130.242 2.40283 129.899 2.10038C129.899 6.75806 129.899 11.3553 129.899 16.0129C129.899 23.3927 129.899 30.7724 129.899 38.1521C129.899 39.8458 129.899 41.5395 129.899 43.2332C129.899 43.7171 130.379 44.1405 130.927 44.1405C132.092 44.1405 133.189 44.1405 134.353 44.1405C134.902 44.1405 135.381 43.7171 135.381 43.2332C135.381 38.5755 135.381 33.9783 135.381 29.3206C135.381 21.9409 135.381 14.5612 135.381 7.18147C135.381 5.48776 135.381 3.79408 135.381 2.10038C135.039 2.40283 134.696 2.70527 134.353 3.00772C135.929 3.00772 137.574 3.00772 139.15 3.00772C138.807 2.70527 138.465 2.40283 138.122 2.10038C138.122 6.75806 138.122 11.3553 138.122 16.0129C138.122 23.3927 138.122 30.7724 138.122 38.1521C138.122 39.8458 138.122 41.5395 138.122 43.2332C138.122 43.7171 138.602 44.1405 139.15 44.1405C140.315 44.1405 141.411 44.1405 142.576 44.1405C143.124 44.1405 143.604 43.7171 143.604 43.2332C143.604 38.5755 143.604 33.9783 143.604 29.3206C143.604 21.9409 143.604 14.5612 143.604 7.18147C143.604 5.48776 143.604 3.79408 143.604 2.10038C143.262 2.40283 142.919 2.70527 142.576 3.00772C144.152 3.00772 145.797 3.00772 147.373 3.00772C147.03 2.70527 146.688 2.40283 146.345 2.10038C146.345 8.93568 146.619 15.8315 147.03 22.6668C146.962 23.4531 149.017 23.5136 148.949 22.3038Z" stroke="#7E684D" stroke-width="0.15"/>
<path d="M217.782 8.26713C215.452 7.48077 212.986 9.05348 211.273 10.2633C209.491 11.5336 207.915 12.9248 206.407 14.437C203.118 17.8244 200.377 21.5748 197.842 25.3856C193.799 31.616 190.373 38.2699 187.495 44.9842C184 53.0293 181.122 61.3768 178.724 69.7244C177.696 73.4747 176.737 77.2251 176.188 81.0359C175.777 83.4555 175.503 85.9355 175.64 88.3551C175.709 89.1415 175.777 89.9278 175.983 90.6537C176.462 92.6499 176.737 94.646 176.874 96.7026C176.942 98.0334 176.942 99.4247 176.874 100.755C176.874 101.3 176.805 101.905 176.737 102.449C176.668 102.812 176.668 103.175 176.6 103.538C176.6 103.78 176.6 103.477 176.6 103.598C176.462 104.324 176.325 104.99 176.12 105.716C174.749 110.676 172.831 115.515 170.981 120.294C168.377 127.189 165.636 134.025 163.1 140.92C160.359 148.3 157.687 155.68 155.426 163.12C153.507 169.35 151.725 175.762 151.04 182.235C150.629 185.864 150.218 190.885 153.164 193.909C155.563 196.329 159.537 195.905 162.072 194.03C165.156 191.792 166.938 188.223 168.377 185.078C171.186 178.908 172.694 172.375 174.407 165.903C175.777 160.882 177.285 155.861 178.861 150.841C180.917 144.187 183.041 137.473 185.165 130.819C187.632 123.197 190.099 115.515 192.566 107.893C195.169 99.8481 197.773 91.803 200.377 83.7579C202.913 76.0153 205.379 68.2121 207.846 60.4695C210.039 53.5737 212.163 46.6174 214.219 39.7216C215.795 34.3381 217.371 28.9545 218.673 23.5104C219.495 20.244 220.386 16.9171 220.523 13.5297C220.592 11.6545 220.112 9.29543 218.056 8.3276C216.891 7.7832 215.864 9.35591 217.029 9.90031C217.988 10.3842 218.193 11.3521 218.399 12.1989C218.468 12.5619 218.399 12.1384 218.399 12.3199C218.399 12.4409 218.399 12.5014 218.399 12.6223C218.399 13.1063 218.399 13.5297 218.331 14.0136C218.331 14.3161 218.262 14.6185 218.262 14.921C218.262 15.0419 218.193 15.2234 218.193 15.3444C218.125 15.6468 218.193 15.5863 218.125 15.7073C217.988 16.4937 217.851 17.28 217.714 18.0059C216.823 22.5426 215.59 26.9584 214.356 31.4346C212.643 37.665 210.793 43.8349 208.874 50.0048C206.613 57.3845 204.283 64.7037 201.953 72.023C199.418 79.8866 196.883 87.6897 194.347 95.5534C191.812 103.357 189.276 111.099 186.741 118.902C184.411 126.04 182.15 133.117 179.889 140.255C178.039 146.123 176.188 151.99 174.475 157.857C173.105 162.394 171.94 166.991 170.707 171.589C169.679 175.339 168.582 179.089 167.075 182.719C165.704 185.985 164.128 189.614 161.319 192.155C160.359 193.002 159.195 193.728 157.824 193.849C157.481 193.849 157.07 193.849 156.728 193.788C156.385 193.728 155.974 193.607 155.631 193.486C155.426 193.365 155.22 193.244 155.015 193.123C155.083 193.183 155.152 193.183 155.015 193.123C154.878 193.002 154.74 192.941 154.603 192.82C154.535 192.76 154.192 192.397 154.329 192.578C153.301 191.369 152.959 189.735 152.753 188.223C152.205 182.961 153.439 177.456 154.74 172.314C156.454 165.237 158.783 158.281 161.182 151.385C163.717 144.187 166.458 136.989 169.199 129.851C171.46 123.983 173.79 118.116 175.914 112.188C176.6 110.192 177.285 108.196 177.901 106.139C178.655 103.296 178.861 100.272 178.724 97.3075C178.655 95.0694 178.381 92.8918 177.901 90.7142C177.833 90.2908 177.696 89.9278 177.627 89.5044C177.559 89.2625 177.627 89.5044 177.559 89.202C177.559 89.0205 177.49 88.7785 177.49 88.5971C177.285 86.359 177.559 84.0604 177.901 81.8223C179.203 72.9908 182.15 64.2803 185.234 55.8118C187.358 50.0048 189.688 44.2583 192.497 38.6328C196.334 30.9506 200.788 23.1475 206.887 16.6147C208.258 15.1024 209.765 13.7112 211.41 12.3804C212.78 11.3521 215.11 9.35592 217.097 10.0213C218.468 10.4447 219.016 8.69056 217.782 8.26713Z" fill="#7E684D"/>
<path d="M155.015 193.123C155.22 193.244 155.426 193.365 155.631 193.486C155.974 193.607 156.385 193.728 156.728 193.788C157.07 193.849 157.481 193.849 157.824 193.849C159.195 193.728 160.359 193.002 161.319 192.155C164.128 189.614 165.704 185.985 167.075 182.719C168.582 179.089 169.679 175.339 170.707 171.589C171.94 166.991 173.105 162.394 174.475 157.857C176.188 151.99 178.039 146.123 179.889 140.255C182.15 133.117 184.411 126.04 186.741 118.902C189.276 111.099 191.812 103.357 194.347 95.5534C196.883 87.6897 199.418 79.8866 201.953 72.023C204.283 64.7037 206.613 57.3845 208.874 50.0048C210.793 43.8349 212.643 37.665 214.356 31.4346C215.59 26.9584 216.823 22.5426 217.714 18.0059C217.851 17.28 217.988 16.4937 218.125 15.7073C218.193 15.5863 218.125 15.6468 218.193 15.3444C218.193 15.2234 218.262 15.0419 218.262 14.921C218.262 14.6185 218.331 14.3161 218.331 14.0136C218.399 13.5297 218.399 13.1063 218.399 12.6223C218.399 12.5014 218.399 12.4409 218.399 12.3199C218.399 12.1384 218.468 12.5619 218.399 12.1989C218.193 11.3521 217.988 10.3842 217.029 9.90031C215.864 9.35591 216.891 7.7832 218.056 8.3276C220.112 9.29543 220.592 11.6545 220.523 13.5297C220.386 16.9171 219.495 20.244 218.673 23.5104C217.371 28.9545 215.795 34.3381 214.219 39.7216C212.163 46.6174 210.039 53.5737 207.846 60.4695C205.379 68.2121 202.913 76.0153 200.377 83.7579C197.773 91.803 195.169 99.8481 192.566 107.893C190.099 115.515 187.632 123.197 185.165 130.819C183.041 137.473 180.917 144.187 178.861 150.841C177.285 155.861 175.777 160.882 174.407 165.903C172.694 172.375 171.186 178.908 168.377 185.078C166.938 188.223 165.156 191.792 162.072 194.03C159.537 195.905 155.563 196.329 153.164 193.909C150.218 190.885 150.629 185.864 151.04 182.235C151.725 175.762 153.507 169.35 155.426 163.12C157.687 155.68 160.359 148.3 163.1 140.92C165.636 134.025 168.377 127.189 170.981 120.294C172.831 115.515 174.749 110.676 176.12 105.716C176.325 104.99 176.462 104.324 176.6 103.598C176.6 103.477 176.6 103.78 176.6 103.538C176.668 103.175 176.668 102.812 176.737 102.449C176.805 101.905 176.874 101.3 176.874 100.755C176.942 99.4247 176.942 98.0334 176.874 96.7026C176.737 94.646 176.462 92.6499 175.983 90.6537C175.777 89.9278 175.709 89.1415 175.64 88.3551C175.503 85.9355 175.777 83.4555 176.188 81.0359C176.737 77.2251 177.696 73.4747 178.724 69.7244C181.122 61.3768 184 53.0293 187.495 44.9842C190.373 38.2699 193.799 31.616 197.842 25.3856C200.377 21.5748 203.118 17.8244 206.407 14.437C207.915 12.9248 209.491 11.5336 211.273 10.2633C212.986 9.05348 215.452 7.48077 217.782 8.26713C219.016 8.69056 218.468 10.4447 217.097 10.0213C215.11 9.35592 212.78 11.3521 211.41 12.3804C209.765 13.7112 208.258 15.1024 206.887 16.6147C200.788 23.1475 196.334 30.9506 192.497 38.6328C189.688 44.2583 187.358 50.0048 185.234 55.8118C182.15 64.2803 179.203 72.9908 177.901 81.8223C177.559 84.0604 177.285 86.359 177.49 88.5971C177.49 88.7786 177.559 89.0205 177.559 89.202C177.627 89.5044 177.559 89.2625 177.627 89.5044C177.696 89.9279 177.833 90.2908 177.901 90.7142C178.381 92.8918 178.655 95.0694 178.724 97.3075C178.861 100.272 178.655 103.296 177.901 106.139C177.285 108.196 176.6 110.192 175.914 112.188C173.79 118.116 171.46 123.983 169.199 129.851C166.458 136.989 163.717 144.187 161.182 151.385C158.783 158.281 156.454 165.237 154.74 172.314C153.439 177.456 152.205 182.961 152.753 188.223C152.959 189.735 153.301 191.369 154.329 192.578C154.192 192.397 154.535 192.76 154.603 192.82C154.74 192.941 154.878 193.002 155.015 193.123ZM155.015 193.123C155.083 193.183 155.152 193.183 155.015 193.123Z" stroke="#7E684D" stroke-width="0.15"/>
</svg>
