<svg width="49" height="57" viewBox="0 0 49 57" fill="none" xmlns="http://www.w3.org/2000/svg">
<path d="M8.29711 21.6122C7.72816 21.1639 7.12472 20.9398 6.45232 20.7329C5.98681 20.595 5.53855 20.3364 5.14201 20.0433C4.05582 19.2674 3.14205 18.2157 2.43517 17.0778C1.59037 15.7503 0.986929 14.2675 0.745556 12.7158C0.521423 11.3366 0.659353 9.94005 1.03865 8.6125C1.72829 6.23324 3.36618 3.4402 6.17646 3.40572C8.48675 3.37124 10.4695 5.18154 11.7798 6.8884C13.4349 9.02628 14.1246 11.7676 13.9866 14.4572C13.9177 15.6813 13.6935 16.9399 13.1935 18.0606C13.0039 18.4743 12.7798 18.8881 12.4694 19.2329C12.1418 19.595 11.7453 19.8709 11.4522 20.2674C10.935 20.9743 10.797 21.8708 10.9177 22.7156C11.0039 23.3191 11.2626 23.8708 11.4867 24.4225C11.9694 25.5776 12.4349 26.75 12.9177 27.9051C13.1763 28.5258 13.4177 29.1465 13.6763 29.7844C14.2452 31.2327 14.797 32.6809 15.3314 34.1291C16.0555 36.1119 16.7624 38.0946 17.4348 40.1118C18.1417 42.2324 18.7969 44.353 19.3658 46.5082C19.8486 48.3357 20.2968 50.1977 20.521 52.0942C20.6072 52.8011 20.6589 53.508 20.6072 54.2149C20.5727 54.6804 20.5037 55.2149 20.2968 55.5942C20.1934 55.7666 20.0382 55.9562 19.8658 56.0079C19.7968 56.0252 19.883 56.0079 19.7968 56.0252C19.6934 56.0252 19.6072 56.0252 19.521 55.9907C19.1072 55.8873 18.7451 55.6286 18.4693 55.3183C18.1589 54.9735 17.8831 54.508 17.6417 54.0425C16.9004 52.6287 16.3659 51.1115 15.8659 49.5943C15.2107 47.5943 14.6418 45.5772 14.1073 43.5427C13.5384 41.3704 13.0039 39.1807 12.5039 36.9911C12.0384 34.974 11.6074 32.974 11.1763 30.9568C10.866 29.4741 10.5729 27.9914 10.2798 26.4914C10.1591 25.888 10.0384 25.2845 9.935 24.6638C9.69363 23.5259 9.22812 22.388 8.29711 21.6122C8.03849 21.4053 7.67643 21.7674 7.93505 21.9743C8.81434 22.7156 9.21088 23.7501 9.41777 24.8535C9.45225 25.0604 9.50397 25.2845 9.53845 25.4914C9.76259 26.6638 10.004 27.8534 10.2281 29.0258C10.6074 30.9051 11.0039 32.7843 11.4177 34.6636C11.9005 36.8705 12.4177 39.0773 12.9522 41.2669C13.4866 43.4393 14.0556 45.5944 14.7107 47.7323C15.2452 49.5081 15.8142 51.2839 16.5555 53.008C16.8141 53.6287 17.1072 54.2321 17.4521 54.8183C17.6934 55.2321 17.9693 55.6459 18.3486 55.9562C18.7624 56.301 19.3831 56.6631 19.952 56.5424C20.3313 56.4562 20.6244 56.1114 20.7796 55.7666C21.0209 55.2666 21.0899 54.6976 21.1244 54.1459C21.2106 52.508 20.883 50.8357 20.5382 49.2322C20.0899 47.0944 19.4865 45.0082 18.8486 42.922C18.1762 40.7497 17.4693 38.6118 16.7107 36.4739C16.09 34.7153 15.4349 32.9568 14.7625 31.1982C14.4004 30.2499 14.0211 29.3017 13.6418 28.3534C13.0039 26.7845 12.3487 25.2328 11.7281 23.6811C11.4177 22.888 11.2453 21.9915 11.5729 21.1639C11.797 20.5605 12.2453 20.2157 12.6763 19.8019C13.4177 19.095 13.8142 18.0778 14.0901 17.1123C14.8659 14.3537 14.6245 11.2159 13.4349 8.6125C12.5556 6.68151 10.9867 4.88844 9.1764 3.80226C8.02125 3.09538 6.65922 2.73332 5.29718 3.00918C3.96962 3.28504 2.90068 4.16432 2.1076 5.23326C0.486945 7.42286 -0.185453 10.4228 0.297294 13.0952C0.57315 14.6641 1.21107 16.1813 2.09036 17.5088C2.83172 18.6467 3.74549 19.6984 4.84891 20.4915C5.2627 20.7846 5.69372 21.0432 6.15923 21.1984C6.36612 21.2674 6.59025 21.3191 6.81438 21.3881C7.22817 21.526 7.60747 21.7329 7.95229 21.9915C8.17642 22.1811 8.55572 21.8191 8.29711 21.6122Z" fill="#7E684D"/>
<path d="M8.29711 21.6122C7.72816 21.1639 7.12472 20.9398 6.45232 20.7329C5.98681 20.595 5.53855 20.3364 5.14201 20.0433C4.05582 19.2674 3.14205 18.2157 2.43517 17.0778C1.59037 15.7503 0.986929 14.2675 0.745556 12.7158C0.521423 11.3366 0.659353 9.94005 1.03865 8.6125C1.72829 6.23324 3.36618 3.4402 6.17646 3.40572C8.48675 3.37124 10.4695 5.18154 11.7798 6.8884C13.4349 9.02628 14.1246 11.7676 13.9866 14.4572C13.9177 15.6813 13.6935 16.9399 13.1935 18.0606C13.0039 18.4743 12.7798 18.8881 12.4694 19.2329C12.1418 19.595 11.7453 19.8709 11.4522 20.2674C10.935 20.9743 10.797 21.8708 10.9177 22.7156C11.0039 23.3191 11.2626 23.8708 11.4867 24.4225C11.9694 25.5776 12.4349 26.75 12.9177 27.9051C13.1763 28.5258 13.4177 29.1465 13.6763 29.7844C14.2452 31.2327 14.797 32.6809 15.3314 34.1291C16.0555 36.1119 16.7624 38.0946 17.4348 40.1118C18.1417 42.2324 18.7969 44.353 19.3658 46.5082C19.8486 48.3357 20.2968 50.1977 20.521 52.0942C20.6072 52.8011 20.6589 53.508 20.6072 54.2149C20.5727 54.6804 20.5037 55.2149 20.2968 55.5942C20.1934 55.7666 20.0382 55.9562 19.8658 56.0079C19.7968 56.0252 19.883 56.0079 19.7968 56.0252C19.6934 56.0252 19.6072 56.0252 19.521 55.9907C19.1072 55.8873 18.7451 55.6286 18.4693 55.3183C18.1589 54.9735 17.8831 54.508 17.6417 54.0425C16.9004 52.6287 16.3659 51.1115 15.8659 49.5943C15.2107 47.5943 14.6418 45.5772 14.1073 43.5427C13.5384 41.3704 13.0039 39.1807 12.5039 36.9911C12.0384 34.974 11.6074 32.974 11.1763 30.9568C10.866 29.4741 10.5729 27.9914 10.2798 26.4914C10.1591 25.888 10.0384 25.2845 9.935 24.6638C9.69363 23.5259 9.22812 22.388 8.29711 21.6122ZM8.29711 21.6122C8.03849 21.4053 7.67643 21.7674 7.93505 21.9743C8.81434 22.7156 9.21088 23.7501 9.41777 24.8535C9.45225 25.0604 9.50397 25.2845 9.53845 25.4914C9.76259 26.6638 10.004 27.8534 10.2281 29.0258C10.6074 30.9051 11.0039 32.7843 11.4177 34.6636C11.9005 36.8705 12.4177 39.0773 12.9522 41.2669C13.4866 43.4393 14.0556 45.5944 14.7107 47.7323C15.2452 49.5081 15.8142 51.2839 16.5555 53.008C16.8141 53.6287 17.1072 54.2321 17.4521 54.8183C17.6934 55.2321 17.9693 55.6459 18.3486 55.9562C18.7624 56.301 19.3831 56.6631 19.952 56.5424C20.3313 56.4562 20.6244 56.1114 20.7796 55.7666C21.0209 55.2666 21.0899 54.6976 21.1244 54.1459C21.2106 52.508 20.883 50.8357 20.5382 49.2322C20.0899 47.0944 19.4865 45.0082 18.8486 42.922C18.1762 40.7497 17.4693 38.6118 16.7107 36.4739C16.09 34.7153 15.4349 32.9568 14.7625 31.1982C14.4004 30.2499 14.0211 29.3017 13.6418 28.3534C13.0039 26.7845 12.3487 25.2328 11.7281 23.6811C11.4177 22.888 11.2453 21.9915 11.5729 21.1639C11.797 20.5605 12.2453 20.2157 12.6763 19.8019C13.4177 19.095 13.8142 18.0778 14.0901 17.1123C14.8659 14.3537 14.6245 11.2159 13.4349 8.6125C12.5556 6.68151 10.9867 4.88844 9.1764 3.80226C8.02125 3.09538 6.65922 2.73332 5.29718 3.00918C3.96962 3.28504 2.90068 4.16432 2.1076 5.23326C0.486945 7.42286 -0.185453 10.4228 0.297294 13.0952C0.57315 14.6641 1.21107 16.1813 2.09036 17.5088C2.83172 18.6467 3.74549 19.6984 4.84891 20.4915C5.2627 20.7846 5.69372 21.0432 6.15923 21.1984C6.36612 21.2674 6.59025 21.3191 6.81438 21.3881C7.22817 21.526 7.60747 21.7329 7.95229 21.9915C8.17642 22.1811 8.55572 21.8191 8.29711 21.6122Z" stroke="#7E684D" stroke-width="0.15"/>
<path d="M29.9841 7.1767C29.8807 5.22847 29.8117 3.263 29.8117 1.31477C29.8117 1.17684 29.691 1.05615 29.5531 1.05615C29.1566 1.05615 28.7428 1.05615 28.3462 1.05615C28.2083 1.05615 28.0876 1.17684 28.0876 1.31477C28.0876 2.64232 28.0876 3.95264 28.0876 5.28019C28.0876 7.38359 28.0876 9.487 28.0876 11.5904C28.0876 12.0731 28.0876 12.5559 28.0876 13.0386C28.1738 12.9524 28.26 12.8662 28.3462 12.78C28.0531 12.78 27.7773 12.78 27.4842 12.78C27.5704 12.8662 27.6566 12.9524 27.7428 13.0386C27.7428 11.7111 27.7428 10.4008 27.7428 9.07321C27.7428 6.96981 27.7428 4.86641 27.7428 2.76301C27.7428 2.28027 27.7428 1.79751 27.7428 1.31477C27.7428 1.17684 27.6221 1.05615 27.4842 1.05615C27.0876 1.05615 26.6739 1.05615 26.2773 1.05615C26.1394 1.05615 26.0187 1.17684 26.0187 1.31477C26.0187 2.64232 26.0187 3.95264 26.0187 5.28019C26.0187 7.38359 26.0187 9.487 26.0187 11.5904C26.0187 12.0731 26.0187 12.5559 26.0187 13.0386C26.1049 12.9524 26.1911 12.8662 26.2773 12.78C25.9842 12.78 25.7084 12.78 25.4153 12.78C25.5015 12.8662 25.5877 12.9524 25.6739 13.0386C25.6739 11.7111 25.6739 10.4008 25.6739 9.07321C25.6739 6.96981 25.6739 4.86641 25.6739 2.76301C25.6739 2.28027 25.6739 1.79751 25.6739 1.31477C25.6739 1.17684 25.5532 1.05615 25.4153 1.05615C25.0187 1.05615 24.6049 1.05615 24.2084 1.05615C24.0705 1.05615 23.9498 1.17684 23.9498 1.31477C23.9498 2.64232 23.9498 3.95264 23.9498 5.28019C23.9498 7.38359 23.9498 9.487 23.9498 11.5904C23.9498 12.0731 23.9498 12.5559 23.9498 13.0386C24.036 12.9524 24.1222 12.8662 24.2084 12.78C23.9153 12.78 23.6395 12.78 23.3464 12.78C23.4326 12.8662 23.5188 12.9524 23.605 13.0386C23.6395 9.15941 23.6567 5.28019 23.6912 1.40097C23.6912 1.26304 23.5705 1.14236 23.4326 1.14236C23.036 1.14236 22.6222 1.14236 22.2257 1.14236C22.0705 1.14236 21.9843 1.26304 21.9671 1.40097C21.7602 4.50435 21.5533 7.62497 21.3464 10.7283C21.2774 11.849 21.1223 13.0042 21.1395 14.1248C21.1568 15.2627 21.3636 16.4006 21.7947 17.4523C22.3464 18.7799 23.2429 19.935 24.3636 20.7971C24.3463 20.7281 24.3118 20.6764 24.2946 20.6074C24.105 24.1073 23.9153 27.6073 23.6912 31.1244C23.5188 33.8657 23.3464 36.5898 23.2084 39.3311C23.0705 42.4173 22.9843 45.5034 23.0533 48.5895C23.0877 49.8309 23.1222 51.055 23.2601 52.2791C23.3464 53.0722 23.4498 53.8825 23.6739 54.6584C23.8981 55.4687 24.2774 56.3652 25.1049 56.6928C26.2256 57.1066 27.1394 56.4342 27.5704 55.4687C27.829 54.8825 27.9669 54.2618 28.0704 53.6411C28.2428 52.6412 28.329 51.6412 28.3807 50.6412C28.5531 47.4861 28.4842 44.3138 28.3807 41.1587C28.2945 38.5725 28.1221 35.9864 27.9669 33.4002C27.7428 29.8141 27.5187 26.228 27.329 22.6419C27.2945 21.9695 27.2601 21.2971 27.2256 20.6247C27.1911 20.6936 27.1394 20.7798 27.1049 20.8488C28.5704 19.7971 29.76 18.2799 30.191 16.5041C30.5876 14.8662 30.4152 13.1421 30.2945 11.4869C30.191 10.0559 30.0703 8.6077 29.9841 7.1767C29.9669 6.84912 29.4497 6.84912 29.4669 7.1767C29.5876 9.31458 29.829 11.4352 29.8979 13.5731C29.9324 14.9179 29.8634 16.2799 29.2945 17.5213C28.8635 18.4178 28.26 19.2109 27.5014 19.8833C27.3463 20.0212 27.1911 20.1592 27.0187 20.2798C26.829 20.4178 26.7083 20.504 26.7256 20.7626C26.7428 21.1936 26.7773 21.6246 26.7946 22.0729C26.9325 24.5728 27.0704 27.09 27.2256 29.59C27.4497 33.314 27.7256 37.0553 27.8635 40.7966C27.9497 43.0034 28.0014 45.2103 27.9842 47.4344C27.9669 49.1412 27.9325 50.8653 27.7428 52.5722C27.6394 53.4515 27.4842 54.4687 27.1566 55.2445C27.1049 55.3825 27.0359 55.5204 26.9497 55.6411C26.9152 55.6928 26.8808 55.7445 26.8463 55.7963C26.7945 55.8652 26.829 55.8307 26.7601 55.8997C26.5877 56.0894 26.5532 56.1238 26.329 56.2445C26.2773 56.2618 26.2946 56.2618 26.3118 56.2445C26.2946 56.2445 26.2773 56.2618 26.2601 56.2618C26.1222 56.3135 25.9842 56.3307 25.8291 56.348C25.6394 56.348 25.4498 56.3135 25.2773 56.2618C25.2256 56.2445 25.3291 56.279 25.2601 56.2618C25.2429 56.2445 25.2084 56.2445 25.1911 56.2273C25.1567 56.21 25.1049 56.1756 25.0705 56.1583C25.0532 56.1411 25.036 56.1238 25.0187 56.1238C24.9842 56.1066 25.0532 56.1411 24.9842 56.1066C24.898 56.0376 24.8291 55.9514 24.7601 55.8652C24.7946 55.8997 24.7084 55.7963 24.6739 55.7618C24.6394 55.7101 24.6049 55.6411 24.5705 55.5894C24.5015 55.4514 24.4325 55.3308 24.3981 55.2101C24.2429 54.8308 24.1394 54.417 24.0705 54.0204C23.7946 52.6929 23.7257 51.3308 23.6567 49.9861C23.5705 47.7275 23.5877 45.4689 23.6395 43.2276C23.7257 39.6932 23.9325 36.1588 24.1567 32.6416C24.3119 30.1762 24.467 27.7107 24.6049 25.2452C24.6739 24.1073 24.7256 22.9694 24.7946 21.8488C24.8118 21.6246 24.8118 21.4178 24.8291 21.1936C24.8463 21.004 24.9153 20.7281 24.7946 20.5729C24.6739 20.4005 24.4325 20.2798 24.2774 20.1419C24.0705 19.9523 23.8808 19.7626 23.6912 19.5557C22.2084 17.9178 21.5705 15.7282 21.7085 13.5386C21.8809 10.918 22.0705 8.29737 22.2429 5.67674C22.3291 4.28022 22.4326 2.90094 22.5188 1.50442C22.4326 1.59063 22.3464 1.67683 22.2602 1.76304C22.6567 1.76304 23.0705 1.76304 23.467 1.76304C23.3808 1.67683 23.2946 1.59063 23.2084 1.50442C23.1739 5.38364 23.1567 9.26286 23.1222 13.1421C23.1222 13.28 23.2429 13.4007 23.3808 13.4007C23.6739 13.4007 23.9498 13.4007 24.2429 13.4007C24.3808 13.4007 24.5015 13.28 24.5015 13.1421C24.5015 11.8145 24.5015 10.5042 24.5015 9.17666C24.5015 7.07326 24.5015 4.96985 24.5015 2.86645C24.5015 2.38371 24.5015 1.90097 24.5015 1.41822C24.4153 1.50442 24.3291 1.59063 24.2429 1.67683C24.6394 1.67683 25.0532 1.67683 25.4498 1.67683C25.3636 1.59063 25.2773 1.50442 25.1911 1.41822C25.1911 2.74577 25.1911 4.05609 25.1911 5.38364C25.1911 7.48704 25.1911 9.59044 25.1911 11.6938C25.1911 12.1766 25.1911 12.6593 25.1911 13.1421C25.1911 13.28 25.3118 13.4007 25.4498 13.4007C25.7429 13.4007 26.0187 13.4007 26.3118 13.4007C26.4497 13.4007 26.5704 13.28 26.5704 13.1421C26.5704 11.8145 26.5704 10.5042 26.5704 9.17666C26.5704 7.07326 26.5704 4.96985 26.5704 2.86645C26.5704 2.38371 26.5704 1.90097 26.5704 1.41822C26.4842 1.50442 26.398 1.59063 26.3118 1.67683C26.7083 1.67683 27.1221 1.67683 27.5187 1.67683C27.4325 1.59063 27.3463 1.50442 27.2601 1.41822C27.2601 2.74577 27.2601 4.05609 27.2601 5.38364C27.2601 7.48704 27.2601 9.59044 27.2601 11.6938C27.2601 12.1766 27.2601 12.6593 27.2601 13.1421C27.2601 13.28 27.3807 13.4007 27.5187 13.4007C27.8118 13.4007 28.0876 13.4007 28.3807 13.4007C28.5187 13.4007 28.6393 13.28 28.6393 13.1421C28.6393 11.8145 28.6393 10.5042 28.6393 9.17666C28.6393 7.07326 28.6393 4.96985 28.6393 2.86645C28.6393 2.38371 28.6393 1.90097 28.6393 1.41822C28.5531 1.50442 28.4669 1.59063 28.3807 1.67683C28.7773 1.67683 29.191 1.67683 29.5876 1.67683C29.5014 1.59063 29.4152 1.50442 29.329 1.41822C29.329 3.36645 29.3979 5.33192 29.5014 7.28015C29.4841 7.50428 30.0014 7.52152 29.9841 7.1767Z" fill="#7E684D"/>
<path d="M29.9841 7.1767C29.8807 5.22847 29.8117 3.263 29.8117 1.31477C29.8117 1.17684 29.691 1.05615 29.5531 1.05615C29.1566 1.05615 28.7428 1.05615 28.3462 1.05615C28.2083 1.05615 28.0876 1.17684 28.0876 1.31477C28.0876 2.64232 28.0876 3.95264 28.0876 5.28019C28.0876 7.38359 28.0876 9.487 28.0876 11.5904C28.0876 12.0731 28.0876 12.5559 28.0876 13.0386C28.1738 12.9524 28.26 12.8662 28.3462 12.78C28.0531 12.78 27.7773 12.78 27.4842 12.78C27.5704 12.8662 27.6566 12.9524 27.7428 13.0386C27.7428 11.7111 27.7428 10.4008 27.7428 9.07321C27.7428 6.96981 27.7428 4.86641 27.7428 2.76301C27.7428 2.28027 27.7428 1.79751 27.7428 1.31477C27.7428 1.17684 27.6221 1.05615 27.4842 1.05615C27.0876 1.05615 26.6739 1.05615 26.2773 1.05615C26.1394 1.05615 26.0187 1.17684 26.0187 1.31477C26.0187 2.64232 26.0187 3.95264 26.0187 5.28019C26.0187 7.38359 26.0187 9.487 26.0187 11.5904C26.0187 12.0731 26.0187 12.5559 26.0187 13.0386C26.1049 12.9524 26.1911 12.8662 26.2773 12.78C25.9842 12.78 25.7084 12.78 25.4153 12.78C25.5015 12.8662 25.5877 12.9524 25.6739 13.0386C25.6739 11.7111 25.6739 10.4008 25.6739 9.07321C25.6739 6.96981 25.6739 4.86641 25.6739 2.76301C25.6739 2.28027 25.6739 1.79751 25.6739 1.31477C25.6739 1.17684 25.5532 1.05615 25.4153 1.05615C25.0187 1.05615 24.6049 1.05615 24.2084 1.05615C24.0705 1.05615 23.9498 1.17684 23.9498 1.31477C23.9498 2.64232 23.9498 3.95264 23.9498 5.28019C23.9498 7.38359 23.9498 9.487 23.9498 11.5904C23.9498 12.0731 23.9498 12.5559 23.9498 13.0386C24.036 12.9524 24.1222 12.8662 24.2084 12.78C23.9153 12.78 23.6395 12.78 23.3464 12.78C23.4326 12.8662 23.5188 12.9524 23.605 13.0386C23.6395 9.15941 23.6567 5.28019 23.6912 1.40097C23.6912 1.26304 23.5705 1.14236 23.4326 1.14236C23.036 1.14236 22.6222 1.14236 22.2257 1.14236C22.0705 1.14236 21.9843 1.26304 21.9671 1.40097C21.7602 4.50435 21.5533 7.62497 21.3464 10.7283C21.2774 11.849 21.1223 13.0042 21.1395 14.1248C21.1568 15.2627 21.3636 16.4006 21.7947 17.4523C22.3464 18.7799 23.2429 19.935 24.3636 20.7971C24.3463 20.7281 24.3118 20.6764 24.2946 20.6074C24.105 24.1073 23.9153 27.6073 23.6912 31.1244C23.5188 33.8657 23.3464 36.5898 23.2084 39.3311C23.0705 42.4173 22.9843 45.5034 23.0533 48.5895C23.0877 49.8309 23.1222 51.055 23.2601 52.2791C23.3464 53.0722 23.4498 53.8825 23.6739 54.6584C23.8981 55.4687 24.2774 56.3652 25.1049 56.6928C26.2256 57.1066 27.1394 56.4342 27.5704 55.4687C27.829 54.8825 27.9669 54.2618 28.0704 53.6411C28.2428 52.6412 28.329 51.6412 28.3807 50.6412C28.5531 47.4861 28.4842 44.3138 28.3807 41.1587C28.2945 38.5725 28.1221 35.9864 27.9669 33.4002C27.7428 29.8141 27.5187 26.228 27.329 22.6419C27.2945 21.9695 27.2601 21.2971 27.2256 20.6247C27.1911 20.6936 27.1394 20.7798 27.1049 20.8488C28.5704 19.7971 29.76 18.2799 30.191 16.5041C30.5876 14.8662 30.4152 13.1421 30.2945 11.4869C30.191 10.0559 30.0703 8.6077 29.9841 7.1767ZM29.9841 7.1767C29.9669 6.84912 29.4497 6.84912 29.4669 7.1767C29.5876 9.31458 29.829 11.4352 29.8979 13.5731C29.9324 14.9179 29.8634 16.2799 29.2945 17.5213C28.8635 18.4178 28.26 19.2109 27.5014 19.8833C27.3463 20.0212 27.1911 20.1592 27.0187 20.2798C26.829 20.4178 26.7083 20.504 26.7256 20.7626C26.7428 21.1936 26.7773 21.6246 26.7946 22.0729C26.9325 24.5728 27.0704 27.09 27.2256 29.59C27.4497 33.314 27.7256 37.0553 27.8635 40.7966C27.9497 43.0034 28.0014 45.2103 27.9842 47.4344C27.9669 49.1412 27.9325 50.8653 27.7428 52.5722C27.6394 53.4515 27.4842 54.4687 27.1566 55.2445C27.1049 55.3825 27.0359 55.5204 26.9497 55.6411C26.9152 55.6928 26.8808 55.7445 26.8463 55.7963C26.7945 55.8652 26.829 55.8307 26.7601 55.8997C26.5877 56.0894 26.5532 56.1238 26.329 56.2445C26.2773 56.2618 26.2946 56.2618 26.3118 56.2445C26.2946 56.2445 26.2773 56.2618 26.2601 56.2618C26.1222 56.3135 25.9842 56.3307 25.8291 56.348C25.6394 56.348 25.4498 56.3135 25.2773 56.2618C25.2256 56.2445 25.3291 56.279 25.2601 56.2618C25.2429 56.2445 25.2084 56.2445 25.1911 56.2273C25.1567 56.21 25.1049 56.1756 25.0705 56.1583C25.0532 56.1411 25.036 56.1238 25.0187 56.1238C24.9842 56.1066 25.0532 56.1411 24.9842 56.1066C24.898 56.0376 24.8291 55.9514 24.7601 55.8652C24.7946 55.8997 24.7084 55.7963 24.6739 55.7618C24.6394 55.7101 24.6049 55.6411 24.5705 55.5894C24.5015 55.4514 24.4325 55.3308 24.3981 55.2101C24.2429 54.8308 24.1394 54.417 24.0705 54.0204C23.7946 52.6929 23.7257 51.3308 23.6567 49.9861C23.5705 47.7275 23.5877 45.4689 23.6395 43.2276C23.7257 39.6932 23.9325 36.1588 24.1567 32.6416C24.3119 30.1762 24.467 27.7107 24.6049 25.2452C24.6739 24.1073 24.7256 22.9694 24.7946 21.8488C24.8118 21.6246 24.8118 21.4178 24.8291 21.1936C24.8463 21.004 24.9153 20.7281 24.7946 20.5729C24.6739 20.4005 24.4325 20.2798 24.2774 20.1419C24.0705 19.9523 23.8808 19.7626 23.6912 19.5557C22.2084 17.9178 21.5705 15.7282 21.7085 13.5386C21.8809 10.918 22.0705 8.29737 22.2429 5.67674C22.3291 4.28022 22.4326 2.90094 22.5188 1.50442C22.4326 1.59063 22.3464 1.67683 22.2602 1.76304C22.6567 1.76304 23.0705 1.76304 23.467 1.76304C23.3808 1.67683 23.2946 1.59063 23.2084 1.50442C23.1739 5.38364 23.1567 9.26286 23.1222 13.1421C23.1222 13.28 23.2429 13.4007 23.3808 13.4007C23.6739 13.4007 23.9498 13.4007 24.2429 13.4007C24.3808 13.4007 24.5015 13.28 24.5015 13.1421C24.5015 11.8145 24.5015 10.5042 24.5015 9.17666C24.5015 7.07326 24.5015 4.96985 24.5015 2.86645C24.5015 2.38371 24.5015 1.90097 24.5015 1.41822C24.4153 1.50442 24.3291 1.59063 24.2429 1.67683C24.6394 1.67683 25.0532 1.67683 25.4498 1.67683C25.3636 1.59063 25.2773 1.50442 25.1911 1.41822C25.1911 2.74577 25.1911 4.05609 25.1911 5.38364C25.1911 7.48704 25.1911 9.59044 25.1911 11.6938C25.1911 12.1766 25.1911 12.6593 25.1911 13.1421C25.1911 13.28 25.3118 13.4007 25.4498 13.4007C25.7429 13.4007 26.0187 13.4007 26.3118 13.4007C26.4497 13.4007 26.5704 13.28 26.5704 13.1421C26.5704 11.8145 26.5704 10.5042 26.5704 9.17666C26.5704 7.07326 26.5704 4.96985 26.5704 2.86645C26.5704 2.38371 26.5704 1.90097 26.5704 1.41822C26.4842 1.50442 26.398 1.59063 26.3118 1.67683C26.7083 1.67683 27.1221 1.67683 27.5187 1.67683C27.4325 1.59063 27.3463 1.50442 27.2601 1.41822C27.2601 2.74577 27.2601 4.05609 27.2601 5.38364C27.2601 7.48704 27.2601 9.59044 27.2601 11.6938C27.2601 12.1766 27.2601 12.6593 27.2601 13.1421C27.2601 13.28 27.3807 13.4007 27.5187 13.4007C27.8118 13.4007 28.0876 13.4007 28.3807 13.4007C28.5187 13.4007 28.6393 13.28 28.6393 13.1421C28.6393 11.8145 28.6393 10.5042 28.6393 9.17666C28.6393 7.07326 28.6393 4.96985 28.6393 2.86645C28.6393 2.38371 28.6393 1.90097 28.6393 1.41822C28.5531 1.50442 28.4669 1.59063 28.3807 1.67683C28.7773 1.67683 29.191 1.67683 29.5876 1.67683C29.5014 1.59063 29.4152 1.50442 29.329 1.41822C29.329 3.36645 29.3979 5.33192 29.5014 7.28015C29.4841 7.50428 30.0014 7.52152 29.9841 7.1767Z" stroke="#7E684D" stroke-width="0.15"/>
<path d="M47.3031 3.17648C46.7169 2.95235 46.0962 3.40061 45.6652 3.74543C45.2169 4.10749 44.8204 4.50403 44.4411 4.93505C43.6135 5.90055 42.9239 6.9695 42.286 8.05568C41.2688 9.8315 40.4067 11.728 39.6826 13.6417C38.8033 15.9348 38.0792 18.3141 37.4757 20.6933C37.2171 21.7623 36.9758 22.8312 36.8378 23.9174C36.7344 24.607 36.6654 25.3139 36.6999 26.0035C36.7171 26.2277 36.7344 26.4518 36.7861 26.6587C36.9068 27.2276 36.9758 27.7966 37.0102 28.3828C37.0275 28.7621 37.0275 29.1586 37.0102 29.5379C37.0102 29.6931 36.993 29.8655 36.9758 30.0207C36.9585 30.1241 36.9585 30.2276 36.9413 30.331C36.9413 30.4 36.9413 30.3138 36.9413 30.3483C36.9068 30.5551 36.8723 30.7448 36.8206 30.9517C36.4758 32.3655 35.993 33.7447 35.5275 35.1068C34.8723 37.0722 34.1827 39.0205 33.5448 40.9859C32.8552 43.0893 32.1828 45.1927 31.6138 47.3134C31.1311 49.0892 30.6828 50.9167 30.5104 52.7615C30.4069 53.796 30.3035 55.227 31.0449 56.089C31.6483 56.7787 32.6483 56.658 33.2862 56.1235C34.062 55.4856 34.5103 54.4684 34.8724 53.5719C35.5792 51.8133 35.9585 49.9512 36.3896 48.1065C36.7344 46.6755 37.1137 45.2445 37.5102 43.8135C38.0274 41.9169 38.5619 40.0032 39.0964 38.1067C39.7171 35.9343 40.3377 33.7447 40.9584 31.5724C41.6136 29.2793 42.2687 26.9863 42.9239 24.6932C43.5618 22.4864 44.1825 20.2623 44.8032 18.0554C45.3549 16.09 45.8893 14.1073 46.4066 12.1418C46.8031 10.6073 47.1997 9.07289 47.5272 7.5212C47.7341 6.59019 47.9582 5.64193 47.9927 4.67644C48.01 4.14197 47.8893 3.46958 47.3721 3.19372C47.079 3.03855 46.8203 3.48681 47.1134 3.64198C47.3548 3.77991 47.4065 4.05577 47.4583 4.29715C47.4755 4.40059 47.4583 4.2799 47.4583 4.33162C47.4583 4.3661 47.4583 4.38334 47.4583 4.41783C47.4583 4.55575 47.4583 4.67645 47.441 4.81438C47.441 4.90058 47.4238 4.98679 47.4238 5.07299C47.4238 5.10747 47.4065 5.15919 47.4065 5.19367C47.3893 5.27987 47.4065 5.26264 47.3893 5.29712C47.3548 5.52125 47.3203 5.74538 47.2859 5.95228C47.0617 7.24535 46.7514 8.50394 46.441 9.77978C46.01 11.5556 45.5445 13.3142 45.0618 15.0728C44.4928 17.1762 43.9066 19.2623 43.3204 21.3485C42.6825 23.5898 42.0446 25.8139 41.4067 28.0552C40.7688 30.2793 40.1308 32.4861 39.4929 34.7102C38.9067 36.7447 38.3378 38.7618 37.7688 40.7963C37.3033 42.4687 36.8378 44.141 36.4068 45.8134C36.062 47.1065 35.7689 48.4168 35.4585 49.7271C35.1999 50.7961 34.9241 51.865 34.5448 52.8994C34.1999 53.8305 33.8034 54.8649 33.0965 55.589C32.8552 55.8304 32.5621 56.0373 32.2172 56.0718C32.131 56.0718 32.0276 56.0718 31.9414 56.0545C31.8552 56.0373 31.7517 56.0028 31.6655 55.9683C31.6138 55.9339 31.5621 55.8994 31.5104 55.8649C31.5448 55.8821 31.5276 55.8821 31.5104 55.8649C31.4759 55.8304 31.4414 55.8132 31.4069 55.7787C31.3897 55.7615 31.3035 55.658 31.338 55.7097C31.0793 55.3649 30.9931 54.8994 30.9414 54.4684C30.8035 52.9684 31.1138 51.3995 31.4414 49.934C31.8724 47.9168 32.4586 45.9341 33.062 43.9686C33.7 41.917 34.3896 39.8653 35.0792 37.8308C35.6482 36.1585 36.2344 34.4861 36.7689 32.7965C36.9413 32.2275 37.1137 31.6586 37.2689 31.0724C37.4585 30.2621 37.5102 29.4 37.4757 28.5552C37.4585 27.9173 37.3895 27.2966 37.2689 26.6759C37.2516 26.5552 37.2171 26.4518 37.1999 26.3311C37.1826 26.2621 37.1999 26.3311 37.1826 26.2449C37.1826 26.1932 37.1654 26.1242 37.1654 26.0725C37.1137 25.4346 37.1826 24.7794 37.2689 24.1415C37.5964 21.6243 38.3378 19.1416 39.1136 16.7279C39.6481 15.0728 40.2343 13.4349 40.9412 11.8314C41.9067 9.64184 43.0273 7.41776 44.5618 5.55574C44.9066 5.12471 45.2859 4.72817 45.6997 4.34887C46.0445 4.05577 46.6307 3.48682 47.1307 3.67647C47.4755 3.79715 47.6134 3.29717 47.3031 3.17648Z" fill="#7E684D"/>
<path d="M31.5104 55.8649C31.5621 55.8994 31.6138 55.9339 31.6655 55.9683C31.7517 56.0028 31.8552 56.0373 31.9414 56.0545C32.0276 56.0718 32.131 56.0718 32.2172 56.0718C32.5621 56.0373 32.8552 55.8304 33.0965 55.589C33.8034 54.8649 34.1999 53.8305 34.5448 52.8994C34.9241 51.865 35.1999 50.7961 35.4585 49.7271C35.7689 48.4168 36.062 47.1065 36.4068 45.8134C36.8378 44.141 37.3033 42.4687 37.7688 40.7963C38.3378 38.7618 38.9067 36.7447 39.4929 34.7102C40.1308 32.4861 40.7688 30.2793 41.4067 28.0552C42.0446 25.8139 42.6825 23.5898 43.3204 21.3485C43.9066 19.2623 44.4928 17.1762 45.0618 15.0728C45.5445 13.3142 46.01 11.5556 46.441 9.77978C46.7514 8.50394 47.0617 7.24535 47.2859 5.95228C47.3203 5.74538 47.3548 5.52125 47.3893 5.29712C47.4065 5.26264 47.3893 5.27987 47.4065 5.19367C47.4065 5.15919 47.4238 5.10747 47.4238 5.07299C47.4238 4.98679 47.441 4.90058 47.441 4.81438C47.4583 4.67645 47.4583 4.55575 47.4583 4.41783C47.4583 4.38334 47.4583 4.3661 47.4583 4.33162C47.4583 4.2799 47.4755 4.40059 47.4583 4.29715C47.4065 4.05577 47.3548 3.77991 47.1134 3.64198C46.8203 3.48681 47.079 3.03855 47.3721 3.19372C47.8893 3.46958 48.01 4.14197 47.9927 4.67644C47.9582 5.64193 47.7341 6.59019 47.5272 7.5212C47.1997 9.07289 46.8031 10.6073 46.4066 12.1418C45.8893 14.1073 45.3549 16.09 44.8032 18.0554C44.1825 20.2623 43.5618 22.4864 42.9239 24.6932C42.2687 26.9863 41.6136 29.2793 40.9584 31.5724C40.3377 33.7447 39.7171 35.9343 39.0964 38.1067C38.5619 40.0032 38.0274 41.9169 37.5102 43.8135C37.1137 45.2445 36.7344 46.6755 36.3896 48.1065C35.9585 49.9512 35.5792 51.8133 34.8724 53.5719C34.5103 54.4684 34.062 55.4856 33.2862 56.1235C32.6483 56.658 31.6483 56.7787 31.0449 56.089C30.3035 55.227 30.4069 53.796 30.5104 52.7615C30.6828 50.9167 31.1311 49.0892 31.6138 47.3134C32.1828 45.1927 32.8552 43.0893 33.5448 40.9859C34.1827 39.0205 34.8723 37.0722 35.5275 35.1068C35.993 33.7447 36.4758 32.3655 36.8206 30.9517C36.8723 30.7448 36.9068 30.5551 36.9413 30.3483C36.9413 30.3138 36.9413 30.4 36.9413 30.331C36.9585 30.2276 36.9585 30.1241 36.9758 30.0207C36.993 29.8655 37.0102 29.6931 37.0102 29.5379C37.0275 29.1586 37.0275 28.7621 37.0102 28.3828C36.9758 27.7966 36.9068 27.2276 36.7861 26.6587C36.7344 26.4518 36.7171 26.2277 36.6999 26.0035C36.6654 25.3139 36.7344 24.607 36.8378 23.9174C36.9758 22.8312 37.2171 21.7623 37.4757 20.6933C38.0792 18.3141 38.8033 15.9348 39.6826 13.6417C40.4067 11.728 41.2688 9.8315 42.286 8.05568C42.9239 6.9695 43.6135 5.90055 44.4411 4.93505C44.8204 4.50403 45.2169 4.10749 45.6652 3.74543C46.0962 3.40061 46.7169 2.95235 47.3031 3.17648C47.6134 3.29717 47.4755 3.79715 47.1307 3.67647C46.6307 3.48682 46.0445 4.05577 45.6997 4.34887C45.2859 4.72817 44.9066 5.12471 44.5618 5.55574C43.0273 7.41776 41.9067 9.64184 40.9412 11.8314C40.2343 13.4349 39.6481 15.0728 39.1136 16.7279C38.3378 19.1416 37.5964 21.6243 37.2689 24.1415C37.1826 24.7794 37.1137 25.4346 37.1654 26.0725C37.1654 26.1242 37.1826 26.1932 37.1826 26.2449C37.1999 26.3311 37.1826 26.2621 37.1999 26.3311C37.2171 26.4518 37.2516 26.5552 37.2689 26.6759C37.3895 27.2966 37.4585 27.9173 37.4757 28.5552C37.5102 29.4 37.4585 30.2621 37.2689 31.0724C37.1137 31.6586 36.9413 32.2275 36.7689 32.7965C36.2344 34.4861 35.6482 36.1585 35.0792 37.8308C34.3896 39.8653 33.7 41.917 33.062 43.9686C32.4586 45.9341 31.8724 47.9168 31.4414 49.934C31.1138 51.3995 30.8035 52.9684 30.9414 54.4684C30.9931 54.8994 31.0793 55.3649 31.338 55.7097C31.3035 55.658 31.3897 55.7615 31.4069 55.7787C31.4414 55.8132 31.4759 55.8304 31.5104 55.8649ZM31.5104 55.8649C31.5276 55.8821 31.5448 55.8821 31.5104 55.8649Z" stroke="#7E684D" stroke-width="0.15"/>
</svg>
