<svg width="278" height="359" viewBox="0 0 278 359" fill="none" xmlns="http://www.w3.org/2000/svg">
<ellipse cx="148.712" cy="159.5" rx="128.5" ry="159.5" fill="#F5EBDE"/>
<g filter="url(#filter0_d_1634_37)">
<path d="M138.78 145.38C129.245 155.231 107.863 161.488 107.863 161.488C78.3621 142.668 83.4762 56.0763 36.2596 53.6332C5.40593 48.0507 60.1204 2.8653 82.5149 28.7071C104.909 54.5491 138.819 126.406 138.78 145.38Z" fill="black" fill-opacity="0.76"/>
<path d="M109.6 171.981L108.188 162.139L137.878 146.294L141.301 154.778L109.6 171.981Z" fill="#F5F5F5" stroke="black" stroke-linecap="round" stroke-linejoin="round"/>
<path d="M82.152 187.045L141.741 154.902C186.157 241.666 212.717 286.998 213.116 346.249C149.278 325.7 140.201 303.307 82.152 187.045Z" fill="#D9D9D9" stroke="black" stroke-width="0.15" stroke-linecap="round" stroke-linejoin="round"/>
<path d="M212.245 329.011C166.557 310.341 140.704 261.045 100.457 177.127L82.0762 187.047C128.816 282.827 141.078 325.852 213.983 346.869L212.245 329.011Z" fill="#F5F5F5" stroke="black" stroke-width="0.25" stroke-linecap="round" stroke-linejoin="round"/>
<path d="M165.925 202.092L159.655 189.968L131.159 238.413C133.502 242.878 133.927 243.566 136.576 248.324L165.925 202.092Z" fill="#F3F3F3"/>
<path d="M176.487 223.077L170.787 211.768L142.204 258.113C144.307 261.889 146.311 264.976 148.362 268.242L176.487 223.077Z" fill="#F3F3F3"/>
</g>
<defs>
<filter id="filter0_d_1634_37" x="23.0508" y="16.7861" width="203.058" height="342.208" filterUnits="userSpaceOnUse" color-interpolation-filters="sRGB">
<feFlood flood-opacity="0" result="BackgroundImageFix"/>
<feColorMatrix in="SourceAlpha" type="matrix" values="0 0 0 0 0 0 0 0 0 0 0 0 0 0 0 0 0 0 127 0" result="hardAlpha"/>
<feOffset dx="4" dy="4"/>
<feGaussianBlur stdDeviation="4"/>
<feComposite in2="hardAlpha" operator="out"/>
<feColorMatrix type="matrix" values="0 0 0 0 0.637695 0 0 0 0 0.588778 0 0 0 0 0.525185 0 0 0 1 0"/>
<feBlend mode="normal" in2="BackgroundImageFix" result="effect1_dropShadow_1634_37"/>
<feBlend mode="normal" in="SourceGraphic" in2="effect1_dropShadow_1634_37" result="shape"/>
</filter>
</defs>
</svg>
