<svg width="10" height="17" viewBox="0 0 10 17" fill="none" xmlns="http://www.w3.org/2000/svg">
<path d="M9.6219 12.0955C10.0038 11.7989 10.0132 11.5972 9.61839 11.3103C9.46492 11.1985 9.40283 11.0612 9.40283 10.8655C9.40752 8.27783 9.39346 5.69016 9.41572 3.1025C9.42158 2.39511 9.47429 1.42155 9.8234 0.33252H8.19267C8.18915 0.354397 8.53123 1.27084 8.52655 1.94176C8.54764 2.49356 8.4012 4.91836 7.54717 6.36351C7.08794 7.07576 6.60645 7.76005 6.12848 8.46014C5.78172 8.96941 5.37872 9.71933 5.28031 10.0876C5.11982 9.74 4.98158 9.38752 4.79765 9.06178C4.6067 8.72268 4.37474 8.40909 4.15684 8.087C3.82296 7.59353 3.4926 7.09764 3.14701 6.61389C2.14888 5.21857 1.98253 2.5276 2.00596 1.94297C2.00127 1.27205 2.34335 0.355613 2.33984 0.333735H0.709107C1.05821 1.42277 1.11093 2.39633 1.11679 3.10371C1.13788 5.69138 1.12499 8.27904 1.12968 10.8667C1.12968 11.0624 1.06876 11.1997 0.91412 11.3116C0.519323 11.5984 0.528696 11.8002 0.910606 12.0967C1.00784 12.1721 1.12265 12.2705 1.11679 12.4249C1.08047 13.3741 1.0219 14.733 0.924664 15.6385C0.888347 15.9813 0.778226 16.3325 0.778226 16.3325C1.31477 16.3325 1.80212 16.3289 2.36444 16.3289C2.218 15.8658 2.17114 15.602 2.13483 15.41C1.98839 14.2967 1.96496 13.6343 1.94856 12.5707C1.94504 12.3386 1.99893 12.1842 2.19926 12.0554C2.53665 11.8378 2.54017 11.5717 2.21215 11.3529C2.00948 11.2168 1.94973 11.0502 1.94856 10.8096C1.94387 9.30244 1.90287 6.1654 1.91458 6.05844C1.98136 6.21645 2.03759 6.36108 2.07508 6.44981C2.42419 7.29818 2.97011 8.01651 3.48791 8.75306C3.98346 9.46045 4.42746 10.1994 4.62779 11.0612C4.97338 12.5464 4.85974 14.0366 4.64184 15.5243C4.60318 15.7904 4.53055 16.053 4.4708 16.3264H6.09334C6.01953 16.0603 5.9387 15.8172 5.88481 15.568C5.66808 14.5543 5.65988 13.5249 5.68682 12.4942C5.71728 11.348 6.00547 10.2809 6.63457 9.32675C7.08091 8.64975 7.54483 7.98491 7.9818 7.30062C8.15987 7.02106 8.31802 6.72207 8.46094 6.44738C8.53123 6.29788 8.55818 6.21766 8.62144 6.05601C8.63315 6.16175 8.59215 9.30001 8.58747 10.8071C8.58747 11.0478 8.52655 11.2143 8.32388 11.3504C7.99586 11.5692 7.99937 11.8354 8.33676 12.053C8.53709 12.1818 8.59098 12.3362 8.58747 12.5683C8.57106 13.6318 8.54881 14.2955 8.4012 15.4076C8.36488 15.5996 8.31919 15.8646 8.17158 16.3264C8.7339 16.3264 9.22125 16.3301 9.7578 16.3301C9.7578 16.3301 9.64768 15.9776 9.61136 15.6361C9.51413 14.7306 9.45555 13.3717 9.41923 12.4225C9.41338 12.2681 9.52818 12.1697 9.62542 12.0943L9.6219 12.0955Z" fill="white"/>
</svg>
