<svg width="279" height="339" viewBox="0 0 279 339" fill="none" xmlns="http://www.w3.org/2000/svg">
<ellipse cx="129.421" cy="178.268" rx="128.5" ry="159.5" fill="#F5EBDE"/>
<path d="M155.502 134.625C145.968 144.476 124.586 150.733 124.586 150.733C95.0848 131.913 100.199 45.3214 52.9822 42.8783C22.1286 37.2958 76.843 -7.88959 99.2376 17.9522C121.632 43.7942 155.542 115.651 155.502 134.625Z" fill="black" stroke="black" stroke-linecap="round" stroke-linejoin="round"/>
<path d="M126.323 161.226L124.911 151.384L154.601 135.539L158.023 144.023L126.323 161.226Z" fill="#F5F5F5" stroke="black" stroke-linecap="round" stroke-linejoin="round"/>
<path d="M98.9614 177.809L158.708 145.96C202.697 232.942 229.033 278.403 229.14 337.656C165.404 316.793 156.438 294.355 98.9614 177.809Z" fill="#D9D9D9" stroke="black" stroke-linecap="round" stroke-linejoin="round"/>
<circle cx="88.0707" cy="38.364" r="7.92273" transform="rotate(18.1253 88.0707 38.364)" fill="white"/>
<circle cx="113.859" cy="83.2731" r="7.92273" transform="rotate(18.1253 113.859 83.2731)" fill="white"/>
<circle cx="132.468" cy="128.294" r="7.92273" transform="rotate(18.1253 132.468 128.294)" fill="white"/>
<path d="M158.026 143.973L158.98 146.232L99.0417 177.563L158.026 143.973Z" fill="black" stroke="black" stroke-linecap="round" stroke-linejoin="round"/>
<path d="M228.25 319.572C182.562 300.902 158.25 251.755 118.003 167.837L99.3744 177.724C146.114 273.505 162.654 319.279 229.026 337.34L228.25 319.572Z" fill="#F5F5F5" stroke="black" stroke-linecap="round" stroke-linejoin="round"/>
<path d="M180.731 190.466L172.826 175.005L147.857 227.056L154.613 239.678L180.731 190.466Z" fill="#F3F3F3"/>
<path d="M190.528 210.125L184.353 197.662L160 249.135C162.209 253.031 163.537 255.227 165.972 259.107L190.528 210.125Z" fill="#F3F3F3"/>
</svg>
