<svg width="61" height="57" viewBox="0 0 61 57" fill="none" xmlns="http://www.w3.org/2000/svg">
<path d="M2.92205 23.7279L30.2229 15.083M2.92205 20.8238L29.9543 11.9903M5.12292 19.3299L29.673 11.2803M7.04708 18.0239L29.4085 10.6127M8.97914 16.7125L29.1314 9.91345M11.5457 14.9704L28.96 9.4809M13.7859 13.4498L28.7473 8.94412M16.1338 11.8562L28.4771 8.26212M18.5539 10.2135L28.2519 7.69386M20.4241 8.94412L27.9972 7.05093M22.2661 7.69386L27.794 6.53799M1.11523 22.0501L30.2229 12.6683L27.6971 6.29348H24.3292L1.11523 22.0501Z" stroke="#7E684D" stroke-width="0.6"/>
<path d="M30.2208 12.6162L60.7365 25.4046L45.1183 15.1802L27.7526 6.26105M30.2208 15.1802L59.9074 26.8091M24.3742 6.23743V2.92208L25.5526 1.05615L28.5238 2.92208V6.69056M40.9945 13.1216L40.8716 10.8843L41.56 9.95001L43.5269 11.7448V14.2526M1.47302 22.138L2.879 23.7404L1.72194 49.0652L4.03725 49.6615M4.03725 49.6615L7.85574 50.6448M4.03725 49.6615L4.75941 25.3411M7.85574 50.6448L10.3374 51.2839M7.85574 50.6448L8.76927 21.865M10.3374 51.2839L13.2071 52.023M10.3374 51.2839L11.1128 21.205M13.2071 52.023L22.597 54.4411M13.2071 52.023L13.6454 32.1721M22.597 54.4411L25.5526 55.2022M22.597 54.4411V30.4268M25.5526 55.2022L30.3806 56.4456L30.2112 12.6082M25.5526 55.2022V16.636M6.6151 22.5406L5.95253 46.6873M13.6454 20.3633V29.2082M16.5627 21.865L16.243 47.0832M19.2643 18.569V49.6615M28.1968 15.6934V46.2344M45.7636 49.9909V40.8658V31.7407L51.8385 33.3876V47.7028M34.1617 24.3572V54.8982M37.1561 17.8969V26.7417M37.1561 53.6194V33.815" stroke="#7E684D" stroke-width="0.6"/>
<path d="M30.5634 56.565L60.583 44.0402L59.8661 26.7922L60.5609 24.8872" stroke="#7E684D" stroke-width="0.6"/>
</svg>
