<svg width="566" height="478" viewBox="0 0 566 478" fill="none" xmlns="http://www.w3.org/2000/svg">
<path fill-rule="evenodd" clip-rule="evenodd" d="M185.928 232.419C157.773 239.761 121.746 237.489 68.0924 217.348C67.9956 217.311 67.9466 217.203 67.9829 217.106C68.0193 217.01 68.1273 216.961 68.2241 216.997C121.837 237.124 157.781 239.371 185.834 232.057C213.46 224.853 233.461 208.371 255.181 190.473C255.52 190.194 255.86 189.914 256.2 189.634C278.311 171.417 302.331 151.881 338.016 139.339C373.703 126.797 421.04 121.255 489.79 130.989C489.893 131.003 489.964 131.098 489.949 131.2C489.935 131.303 489.84 131.374 489.738 131.359C421.032 121.632 373.757 127.175 338.141 139.693C302.523 152.21 278.548 171.707 256.438 189.923C256.09 190.21 255.742 190.497 255.394 190.783C233.693 208.666 213.635 225.195 185.928 232.419Z" fill="#8C6D57"/>
<path fill-rule="evenodd" clip-rule="evenodd" d="M337.934 139.104C373.667 126.545 421.047 121.003 489.825 130.741C490.064 130.775 490.231 130.996 490.197 131.235C490.163 131.474 489.942 131.64 489.703 131.607C421.026 121.883 373.794 127.427 338.224 139.928C302.652 152.43 278.706 171.901 256.598 190.115L255.535 190.991C233.846 208.864 213.752 225.422 185.992 232.661C157.768 240.02 121.685 237.733 68.0051 217.581C67.7792 217.496 67.6648 217.245 67.7496 217.019C67.8344 216.793 68.0863 216.678 68.3122 216.763C121.899 236.88 157.786 239.112 185.771 231.815C213.336 224.628 233.297 208.183 255.023 190.281L256.042 189.441C278.154 171.224 302.203 151.661 337.934 139.104Z" fill="#9E8D78"/>
<path fill-rule="evenodd" clip-rule="evenodd" d="M489.95 131.242C489.94 131.345 489.848 131.42 489.745 131.41C419.415 124.371 373.494 134.537 340.215 152.133C308.773 168.756 288.6 192.018 269.775 213.725C268.673 214.997 267.574 216.263 266.479 217.522C246.689 240.271 227.751 260.751 197.917 269.128C168.084 277.505 127.395 273.773 64.114 248.214C64.0181 248.175 63.9718 248.066 64.0105 247.97C64.0492 247.874 64.1584 247.828 64.2543 247.866C127.505 273.414 168.1 277.112 197.815 268.768C227.53 260.424 246.403 240.029 266.196 217.277C267.294 216.015 268.394 214.746 269.5 213.471C288.32 191.77 308.535 168.459 340.04 151.802C373.4 134.164 419.399 123.993 489.783 131.037C489.885 131.047 489.961 131.139 489.95 131.242Z" fill="#8C6D57"/>
<path fill-rule="evenodd" clip-rule="evenodd" d="M489.807 130.789C490.047 130.813 490.222 131.027 490.198 131.267C490.174 131.507 489.96 131.683 489.72 131.659C419.426 124.623 373.556 134.787 340.331 152.354C308.936 168.953 288.79 192.18 269.964 213.889L269.952 213.902C268.853 215.169 267.759 216.431 266.667 217.687C246.879 240.433 227.898 260.969 197.984 269.369C168.073 277.768 127.321 274.013 64.0202 248.445C63.7964 248.355 63.6883 248.1 63.7786 247.877C63.869 247.653 64.1237 247.545 64.3474 247.635C127.578 273.174 168.111 276.85 197.748 268.528C227.382 260.206 246.212 239.869 266.008 217.113C267.103 215.854 268.201 214.587 269.304 213.315L269.32 213.297C288.135 191.601 308.376 168.26 339.923 151.581C373.337 133.914 419.388 123.741 489.807 130.789Z" fill="#9E8D78"/>
<path fill-rule="evenodd" clip-rule="evenodd" d="M489.902 131.248C489.902 131.352 489.818 131.435 489.715 131.435C418.671 131.435 373.955 145.298 342.752 165.141C312.581 184.327 295.028 209.114 278.518 232.428C277.952 233.227 277.388 234.024 276.824 234.819C259.813 258.813 243.487 280.981 215.048 293.392C186.609 305.803 146.09 308.443 80.7153 293.481C80.6145 293.458 80.5514 293.357 80.5745 293.256C80.5976 293.156 80.698 293.093 80.7988 293.116C146.14 308.07 186.565 305.413 214.898 293.049C243.23 280.685 259.503 258.601 276.518 234.603C277.085 233.804 277.652 233.002 278.221 232.199C294.726 208.892 312.317 184.051 342.551 164.825C373.83 144.934 418.622 131.061 489.715 131.061C489.818 131.061 489.902 131.145 489.902 131.248Z" fill="#8C6D57"/>
<path fill-rule="evenodd" clip-rule="evenodd" d="M489.715 130.811C489.957 130.811 490.152 131.007 490.152 131.248C490.152 131.49 489.957 131.685 489.715 131.685C418.705 131.685 374.038 145.541 342.887 165.351C312.762 184.509 295.234 209.257 278.723 232.572C278.157 233.371 277.592 234.168 277.028 234.964C260.02 258.953 243.659 281.179 215.148 293.621C186.638 306.063 146.058 308.692 80.6604 293.724C80.4251 293.67 80.2781 293.436 80.3319 293.201C80.3858 292.965 80.6201 292.818 80.8553 292.872C146.174 307.822 186.537 305.153 214.799 292.82C243.06 280.487 259.298 258.461 276.315 234.458C276.866 233.682 277.417 232.903 277.97 232.123L278.026 232.044C294.528 208.741 312.142 183.867 342.418 164.614C373.748 144.691 418.59 130.811 489.715 130.811Z" fill="#9E8D78"/>
<path fill-rule="evenodd" clip-rule="evenodd" d="M489.95 131.23C489.96 131.332 489.885 131.424 489.782 131.434C419.443 138.431 376.551 155.36 347.595 176.467C319.499 196.949 304.508 221.374 290.293 244.537C289.857 245.246 289.423 245.954 288.988 246.661C274.377 270.445 260.183 292.725 232.909 307.705C205.636 322.685 165.311 330.351 98.4615 324.99C98.3584 324.981 98.2815 324.891 98.2898 324.788C98.2981 324.685 98.3883 324.608 98.4914 324.616C165.308 329.975 205.548 322.306 232.728 307.377C259.907 292.45 274.056 270.251 288.669 246.465C289.106 245.754 289.543 245.042 289.981 244.329C304.193 221.171 319.218 196.69 347.375 176.165C376.4 155.006 419.362 138.063 489.745 131.062C489.848 131.052 489.94 131.127 489.95 131.23Z" fill="#8C6D57"/>
<path fill-rule="evenodd" clip-rule="evenodd" d="M489.722 130.813C489.962 130.789 490.176 130.964 490.2 131.204C490.224 131.444 490.049 131.658 489.809 131.682C419.499 138.676 376.653 155.595 347.744 176.668C319.692 197.117 304.724 221.503 290.507 244.667L290.48 244.712C290.054 245.406 289.628 246.099 289.203 246.791C274.593 270.573 260.37 292.908 233.031 307.924C205.697 322.936 165.315 330.601 98.4436 325.238C98.203 325.218 98.0237 325.008 98.0429 324.767C98.0622 324.527 98.2729 324.347 98.5134 324.367C165.309 329.723 205.491 322.052 232.61 307.158C259.725 292.265 273.845 270.121 288.459 246.334C288.895 245.623 289.332 244.911 289.77 244.197L289.777 244.187C303.986 221.033 319.033 196.517 347.23 175.962C376.301 154.77 419.311 137.816 489.722 130.813Z" fill="#9E8D78"/>
<path fill-rule="evenodd" clip-rule="evenodd" d="M489.948 131.14C489.967 131.242 489.9 131.34 489.798 131.358C420.262 144.058 378.955 164.423 351.91 187.818C325.655 210.531 312.826 236.111 300.662 260.366C300.296 261.096 299.931 261.824 299.566 262.551C287.068 287.445 274.864 310.808 248.996 327.96C223.129 345.11 183.626 356.034 116.562 356.133C116.459 356.134 116.375 356.05 116.375 355.946C116.374 355.843 116.458 355.759 116.562 355.759C183.593 355.659 223.01 344.739 248.789 327.647C274.565 310.557 286.732 287.28 299.232 262.383C299.599 261.652 299.966 260.919 300.334 260.185C312.495 235.936 325.352 210.297 351.665 187.535C378.775 164.083 420.152 143.698 489.731 130.99C489.832 130.971 489.93 131.038 489.948 131.14Z" fill="#8C6D57"/>
<path fill-rule="evenodd" clip-rule="evenodd" d="M489.686 130.744C489.924 130.701 490.151 130.858 490.195 131.096C490.238 131.333 490.081 131.561 489.843 131.604C420.336 144.299 379.075 164.65 352.074 188.007C325.86 210.684 313.05 236.222 300.886 260.478C300.52 261.208 300.155 261.936 299.79 262.663C287.293 287.556 275.064 310.976 249.134 328.168C223.209 345.357 183.649 356.284 116.563 356.383C116.322 356.384 116.126 356.188 116.125 355.947C116.125 355.706 116.32 355.51 116.562 355.509C183.571 355.41 222.931 344.493 248.651 327.44C274.367 310.39 286.508 287.17 299.009 262.271C299.26 261.772 299.51 261.272 299.761 260.772L300.117 260.062C312.276 235.817 325.152 210.141 351.502 187.347C378.656 163.857 420.079 143.458 489.686 130.744Z" fill="#9E8D78"/>
<path d="M235.786 250.252C236.727 254.52 232.6 259.059 226.568 260.389C220.535 261.719 214.882 259.337 213.941 255.069C212.999 250.801 217.127 246.262 223.159 244.932C229.192 243.602 234.845 245.983 235.786 250.252Z" fill="#9E8D78"/>
<path fill-rule="evenodd" clip-rule="evenodd" d="M234.34 254.159C233.513 254.159 232.842 253.488 232.842 252.661L232.842 197.831C232.842 197.004 233.513 196.333 234.34 196.333C235.167 196.333 235.838 197.004 235.838 197.831L235.838 252.661C235.838 253.488 235.167 254.159 234.34 254.159Z" fill="#9E8D78"/>
<path d="M110.985 326.813C111.927 331.082 107.799 335.62 101.767 336.95C95.7344 338.281 90.0811 335.899 89.1398 331.631C88.1986 327.362 92.3259 322.824 98.3583 321.494C104.391 320.163 110.044 322.545 110.985 326.813Z" fill="#9E8D78"/>
<path fill-rule="evenodd" clip-rule="evenodd" d="M109.539 330.72C108.712 330.72 108.041 330.049 108.041 329.222L108.041 274.392C108.041 273.565 108.712 272.894 109.539 272.894C110.367 272.894 111.037 273.565 111.037 274.392L111.037 329.222C111.037 330.049 110.367 330.72 109.539 330.72Z" fill="#9E8D78"/>
<path d="M312.819 177.806C313.761 182.075 309.633 186.613 303.601 187.944C297.568 189.274 291.915 186.892 290.974 182.624C290.033 178.356 294.16 173.817 300.192 172.487C306.225 171.156 311.878 173.538 312.819 177.806Z" fill="#9E8D78"/>
<path d="M349.741 163.023C350.683 167.292 346.555 171.83 340.523 173.16C334.49 174.491 328.837 172.109 327.896 167.841C326.954 163.572 331.082 159.034 337.114 157.704C343.147 156.373 348.8 158.755 349.741 163.023Z" fill="#9E8D78"/>
<path fill-rule="evenodd" clip-rule="evenodd" d="M311.475 180.291C310.647 180.291 309.977 179.62 309.977 178.793L309.977 123.963C309.977 123.136 310.647 122.465 311.475 122.465C312.302 122.465 312.973 123.136 312.973 123.963L312.973 178.793C312.973 179.62 312.302 180.291 311.475 180.291Z" fill="#A18877"/>
<path fill-rule="evenodd" clip-rule="evenodd" d="M348.41 165.459C347.583 165.459 346.912 164.788 346.912 163.961L346.912 110.18C346.912 109.353 347.583 108.682 348.41 108.682C349.238 108.682 349.908 109.353 349.908 110.18L349.908 163.961C349.908 164.788 349.238 165.459 348.41 165.459Z" fill="#A18877"/>
<path fill-rule="evenodd" clip-rule="evenodd" d="M310.126 124.128C309.641 122.837 310.294 121.398 311.585 120.912L346.543 107.774C347.834 107.289 349.274 107.942 349.759 109.233C350.244 110.524 349.591 111.963 348.3 112.449L313.342 125.587C312.051 126.072 310.611 125.419 310.126 124.128Z" fill="#A18877"/>
<path fill-rule="evenodd" clip-rule="evenodd" d="M310.14 136.136C309.635 134.853 310.265 133.403 311.547 132.898L346.506 119.114C347.789 118.608 349.239 119.238 349.744 120.521C350.25 121.804 349.62 123.254 348.337 123.759L313.379 137.543C312.096 138.049 310.646 137.419 310.14 136.136Z" fill="#A18877"/>
<path d="M143.081 273.405C144.022 277.673 139.895 282.212 133.863 283.542C127.83 284.873 122.177 282.491 121.236 278.223C120.294 273.954 124.422 269.416 130.454 268.085C136.487 266.755 142.14 269.137 143.081 273.405Z" fill="#9E8D78"/>
<path d="M180.003 264.049C180.944 268.317 176.817 272.855 170.785 274.186C164.752 275.516 159.099 273.134 158.157 268.866C157.216 264.598 161.343 260.059 167.376 258.729C173.408 257.399 179.062 259.78 180.003 264.049Z" fill="#9E8D78"/>
<path fill-rule="evenodd" clip-rule="evenodd" d="M141.736 275.891C140.909 275.891 140.238 275.22 140.238 274.393L140.238 219.563C140.238 218.735 140.909 218.065 141.736 218.065C142.564 218.065 143.234 218.735 143.234 219.563L143.234 274.393C143.234 275.22 142.564 275.891 141.736 275.891Z" fill="#A18877"/>
<path fill-rule="evenodd" clip-rule="evenodd" d="M178.672 266.965C177.845 266.965 177.174 266.294 177.174 265.467L177.174 205.779C177.174 204.952 177.845 204.281 178.672 204.281C179.499 204.281 180.17 204.952 180.17 205.779L180.17 265.467C180.17 266.294 179.499 266.965 178.672 266.965Z" fill="#A18877"/>
<path fill-rule="evenodd" clip-rule="evenodd" d="M140.381 220.478C139.875 219.195 140.505 217.745 141.788 217.239L176.746 203.456C178.029 202.95 179.479 203.58 179.985 204.862C180.49 206.145 179.861 207.595 178.578 208.101L143.619 221.885C142.337 222.391 140.887 221.761 140.381 220.478Z" fill="#A18877"/>
<path d="M140.621 222.354L177.458 208.578L180.049 215.505L143.212 229.281L140.621 222.354Z" fill="#9E8D78"/>
<path d="M211.669 323.817C212.61 328.085 208.483 332.624 202.451 333.954C196.418 335.285 190.765 332.903 189.823 328.635C188.882 324.366 193.009 319.828 199.042 318.498C205.074 317.167 210.728 319.549 211.669 323.817Z" fill="#9E8D78"/>
<path fill-rule="evenodd" clip-rule="evenodd" d="M210.328 327.724C209.501 327.724 208.83 327.053 208.83 326.226L208.83 271.396C208.83 270.568 209.501 269.898 210.328 269.898C211.156 269.898 211.826 270.568 211.826 271.396L211.826 326.226C211.826 327.053 211.156 327.724 210.328 327.724Z" fill="#9E8D78"/>
<path fill-rule="evenodd" clip-rule="evenodd" d="M213.992 271.377C213.981 270.007 212.867 268.899 211.495 268.899C210.116 268.899 208.998 270.017 208.998 271.396L211.495 271.396C208.998 271.396 208.998 271.398 208.998 271.399L208.998 271.402L208.998 271.409L208.998 271.425C208.998 271.436 208.998 271.45 208.999 271.465C208.999 271.496 209 271.536 209.002 271.583C209.006 271.676 209.012 271.801 209.024 271.952C209.048 272.255 209.094 272.669 209.182 273.167C209.359 274.158 209.709 275.505 210.409 276.967C211.837 279.95 214.669 283.277 220.053 285.019C220.73 285.238 221.114 285.564 221.371 285.932C221.652 286.333 221.879 286.929 221.975 287.795C222.175 289.584 221.763 291.977 220.972 294.567C220.197 297.102 219.136 299.58 218.255 301.445C217.817 302.372 217.43 303.136 217.154 303.664C217.016 303.928 216.906 304.133 216.831 304.269C216.794 304.338 216.766 304.389 216.748 304.422L216.728 304.457L216.724 304.464C216.724 304.465 216.724 304.465 216.724 304.465C216.049 305.667 216.476 307.189 217.678 307.864C218.881 308.539 220.403 308.112 221.078 306.91L218.901 305.687C221.078 306.91 221.078 306.909 221.079 306.909L221.082 306.903L221.09 306.888L221.118 306.838C221.142 306.795 221.176 306.733 221.219 306.654C221.305 306.495 221.428 306.267 221.579 305.978C221.881 305.399 222.3 304.575 222.771 303.577C223.708 301.593 224.876 298.876 225.747 296.027C226.601 293.234 227.252 290.054 226.938 287.24C226.778 285.804 226.353 284.341 225.463 283.069C224.55 281.764 223.246 280.804 221.591 280.268C217.648 278.993 215.816 276.697 214.913 274.81C214.447 273.837 214.214 272.938 214.099 272.292C214.042 271.971 214.015 271.718 214.002 271.559C213.996 271.48 213.993 271.425 213.992 271.396C213.992 271.387 213.992 271.38 213.992 271.377Z" fill="#9E8D78"/>
<path d="M289.124 242.773C290.065 247.042 285.938 251.58 279.906 252.91C273.873 254.241 268.22 251.859 267.279 247.591C266.337 243.322 270.465 238.784 276.497 237.454C282.53 236.123 288.183 238.505 289.124 242.773Z" fill="#9E8D78"/>
<path fill-rule="evenodd" clip-rule="evenodd" d="M287.783 246.68C286.956 246.68 286.285 246.009 286.285 245.182L286.285 190.352C286.285 189.525 286.956 188.854 287.783 188.854C288.611 188.854 289.281 189.525 289.281 190.352L289.281 245.182C289.281 246.009 288.611 246.68 287.783 246.68Z" fill="#9E8D78"/>
<path fill-rule="evenodd" clip-rule="evenodd" d="M291.447 190.333C291.436 188.963 290.323 187.855 288.95 187.855C287.571 187.855 286.453 188.973 286.453 190.352L288.95 190.352C286.453 190.352 286.453 190.354 286.453 190.355L286.453 190.358L286.453 190.365L286.453 190.381C286.453 190.392 286.454 190.406 286.454 190.421C286.454 190.453 286.455 190.492 286.457 190.539C286.461 190.632 286.467 190.757 286.479 190.908C286.503 191.211 286.549 191.625 286.638 192.123C286.814 193.114 287.164 194.462 287.864 195.923C289.292 198.906 292.124 202.233 297.508 203.975C298.185 204.194 298.569 204.52 298.826 204.888C299.107 205.289 299.334 205.885 299.43 206.751C299.63 208.54 299.219 210.933 298.427 213.523C297.652 216.058 296.591 218.536 295.71 220.401C295.272 221.328 294.885 222.092 294.609 222.62C294.471 222.884 294.361 223.089 294.286 223.225C294.249 223.294 294.221 223.345 294.203 223.378L294.183 223.413L294.179 223.42C294.179 223.421 294.179 223.421 294.179 223.421C293.504 224.623 293.931 226.145 295.134 226.82C296.336 227.496 297.858 227.068 298.533 225.866L296.356 224.643C298.533 225.866 298.534 225.865 298.534 225.865L298.537 225.859L298.545 225.844L298.573 225.794C298.597 225.751 298.631 225.689 298.674 225.61C298.76 225.451 298.883 225.223 299.034 224.934C299.336 224.355 299.755 223.531 300.226 222.533C301.163 220.549 302.331 217.832 303.202 214.983C304.056 212.19 304.708 209.01 304.393 206.196C304.233 204.76 303.808 203.297 302.918 202.025C302.005 200.72 300.701 199.76 299.046 199.224C295.103 197.949 293.271 195.653 292.368 193.766C291.902 192.793 291.669 191.894 291.554 191.248C291.497 190.927 291.47 190.675 291.457 190.515C291.451 190.436 291.448 190.381 291.447 190.352C291.447 190.343 291.447 190.336 291.447 190.333Z" fill="#9E8D78"/>
<path d="M265.575 291.737C265.575 296.977 261.326 301.226 256.085 301.226C250.844 301.226 246.596 296.977 246.596 291.737C246.596 286.496 250.844 282.247 256.085 282.247C261.326 282.247 265.575 286.496 265.575 291.737Z" fill="#9E8D78"/>
</svg>
