<svg width="210" height="128" viewBox="0 0 210 128" fill="none" xmlns="http://www.w3.org/2000/svg">
<path d="M9.85225 98.0039L10.5857 97.8474L10.5855 97.8463L9.85225 98.0039ZM23.7906 82.8551L24.4788 83.1532C24.486 83.1368 24.4925 83.1201 24.4984 83.1033L23.7906 82.8551ZM24.5982 69.1755C24.7864 68.8064 24.6397 68.3548 24.2707 68.1666C23.9017 67.9785 23.45 68.1251 23.2619 68.4941L24.5982 69.1755ZM28.9901 52.1929C28.755 52.534 28.8408 53.001 29.1818 53.2361C29.5228 53.4713 29.9899 53.3854 30.225 53.0444L28.9901 52.1929ZM107.334 3.19721L107.439 3.93985C107.467 3.93593 107.494 3.93047 107.521 3.92349L107.334 3.19721ZM201.261 21.2646L201.863 20.8167C201.855 20.8071 201.848 20.7976 201.84 20.7883L201.261 21.2646ZM188.975 84.9844L188.267 84.7377L188.975 84.9844ZM181.83 117.154L182.571 117.267V117.267L181.83 117.154ZM181.246 120.334L180.933 119.653L181.246 120.334ZM175.903 125.401L176.391 125.971C176.41 125.955 176.428 125.938 176.445 125.92L175.903 125.401ZM165.606 124.685L165.893 123.992L165.883 123.988L165.606 124.685ZM164.373 122.223L163.695 121.903L164.373 122.223ZM174.604 108.19L175.248 108.574C175.285 108.513 175.312 108.447 175.33 108.378L174.604 108.19ZM169.989 92.4141L169.65 93.0834L169.989 92.4141ZM97.9363 82.4759L97.8363 81.7326C97.6655 81.7556 97.5078 81.8367 97.3898 81.9623L97.9363 82.4759ZM81.5723 103.268L81.253 102.589C81.1767 102.625 81.107 102.674 81.0468 102.733L81.5723 103.268ZM71.3446 116.989L70.639 116.735C70.6139 116.805 70.5993 116.877 70.5956 116.951L71.3446 116.989ZM69.2418 122.255L69.4879 122.964C69.4953 122.961 69.5027 122.958 69.51 122.956L69.2418 122.255ZM66.9648 124.288L66.9441 125.037L66.9648 124.288ZM65.4777 123.003L65.5961 122.262C65.3626 122.225 65.1251 122.3 64.9554 122.464L65.4777 123.003ZM63.2156 125.522L63.0413 126.252C63.1812 126.285 63.3277 126.278 63.4634 126.23L63.2156 125.522ZM51.1077 123.035L50.358 123.015C50.3533 123.182 50.4046 123.345 50.5037 123.48L51.1077 123.035ZM67.7355 98.6252L67.0557 98.3085C67.0473 98.3265 67.0396 98.3449 67.0326 98.3636L67.7355 98.6252ZM73.277 83.8331L73.9914 84.0611C74.0168 83.9817 74.0287 83.8985 74.0267 83.8152L73.277 83.8331ZM65.2305 87.0353L65.0032 86.3205C64.8688 86.3633 64.7491 86.4431 64.658 86.5508L65.2305 87.0353ZM53.9559 98.2455L54.2813 98.9212C54.2979 98.9132 54.3142 98.9046 54.3302 98.8954L53.9559 98.2455ZM24.2158 109.037L24.2662 109.786H24.2662L24.2158 109.037ZM20.7247 108.018L20.5587 107.287C20.4674 107.307 20.3808 107.345 20.3034 107.398L20.7247 108.018ZM38.8821 96.9195C38.8821 96.5053 38.5463 96.1695 38.1321 96.1695C37.7179 96.1695 37.3821 96.5053 37.3821 96.9195H38.8821ZM194.097 14.3862C193.755 14.619 193.666 15.0855 193.899 15.428C194.131 15.7706 194.598 15.8596 194.94 15.6267L194.097 14.3862ZM193.737 5.20464L193.904 5.93593C193.952 5.92498 193.999 5.90933 194.044 5.88919L193.737 5.20464ZM191.048 9.27112L191.369 9.94874V9.94874L191.048 9.27112ZM188.15 7.18227L188.63 6.60612V6.60612L188.15 7.18227ZM201.17 2.73759L201.722 2.23017V2.23017L201.17 2.73759ZM200.146 20.1224C199.93 20.4756 200.041 20.9373 200.394 21.1536C200.747 21.37 201.209 21.259 201.425 20.9057L200.146 20.1224ZM94.8351 87.3377C94.688 86.9505 94.2549 86.7558 93.8676 86.9029C93.4804 87.05 93.2857 87.4831 93.4328 87.8703L94.8351 87.3377ZM95.9053 111.663L95.2322 111.332L95.9053 111.663ZM92.99 117.553L93.6647 117.225V117.225L92.99 117.553ZM102.694 118.424L102.846 119.159L102.694 118.424ZM104.108 116.186L103.618 115.619L104.108 116.186ZM106.506 116.489L106.809 117.175C106.859 117.153 106.907 117.125 106.951 117.093L106.506 116.489ZM106.674 110.408L107.422 110.35L106.674 110.408ZM109.519 81.8087C109.581 81.3991 109.3 81.0167 108.89 80.9544C108.481 80.8921 108.099 81.1736 108.036 81.5831L109.519 81.8087ZM141.265 79.7087C141.066 79.345 140.611 79.2111 140.247 79.4094C139.883 79.6078 139.749 80.0633 139.948 80.427L141.265 79.7087ZM134.538 109.309L135.069 109.839V109.839L134.538 109.309ZM138.856 116.292L138.893 117.041L138.856 116.292ZM142.139 112.76L141.5 112.367L141.5 112.367L142.139 112.76ZM143.541 113.961L143.472 114.708L143.541 113.961ZM147.415 108.697L146.694 108.488L147.415 108.697ZM159.278 93.8482L159.952 94.1777L159.278 93.8482ZM158.965 88.2828L159.706 88.3947L158.965 88.2828ZM160.851 87.3834C161.22 87.1964 161.368 86.7451 161.181 86.3756C160.994 86.006 160.543 85.8579 160.173 86.0449L160.851 87.3834ZM77.0695 69.4767C77.2451 69.1015 77.0833 68.655 76.7081 68.4795C76.333 68.3039 75.8865 68.4657 75.711 68.8409L77.0695 69.4767ZM162.237 42.4612C162.551 42.1905 162.585 41.7169 162.315 41.4034C162.044 41.0898 161.57 41.0551 161.257 41.3258L162.237 42.4612ZM24.0298 75.2846C23.6377 75.4182 23.4282 75.8443 23.5618 76.2364C23.6954 76.6285 24.1215 76.838 24.5136 76.7044L24.0298 75.2846ZM30.1722 74.1645L30.7768 73.7206C30.7611 73.6993 30.7443 73.6787 30.7264 73.6592L30.1722 74.1645ZM27.533 80.0864C27.4645 80.4949 27.7401 80.8816 28.1486 80.9502C28.5571 81.0187 28.9438 80.7431 29.0123 80.3346L27.533 80.0864ZM97.5138 56.7039C97.5252 56.2898 97.1988 55.9449 96.7848 55.9335C96.3707 55.9221 96.0258 56.2485 96.0144 56.6626L97.5138 56.7039ZM29.7612 53.352C30.1609 53.2433 30.3968 52.8312 30.2881 52.4315C30.1793 52.0318 29.7672 51.7959 29.3675 51.9046L29.7612 53.352ZM17.9122 55.5659L17.5825 54.8922L17.9122 55.5659ZM5.49126 69.607L5.90471 70.2327H5.90471L5.49126 69.607ZM1.65641 71.3232L2.26022 71.7681H2.26022L1.65641 71.3232ZM8.6061 73.8319L8.6899 73.0866H8.6899L8.6061 73.8319ZM25.9833 67.9696L26.2273 68.6788L25.9833 67.9696ZM33.7649 63.6104C34.0624 63.3221 34.0699 62.8473 33.7816 62.5498C33.4934 62.2524 33.0186 62.2449 32.7211 62.5331L33.7649 63.6104ZM15.6273 72.2283C15.2161 72.2783 14.9234 72.6523 14.9734 73.0634C15.0235 73.4746 15.3974 73.7673 15.8086 73.7173L15.6273 72.2283ZM22.1602 73.5913C22.5018 73.8256 22.9686 73.7385 23.2029 73.3969C23.4372 73.0553 23.3501 72.5885 23.0085 72.3542L22.1602 73.5913ZM10.5855 97.8463C10.6445 98.1206 10.4957 98.2798 10.5491 98.2032C10.5716 98.1709 10.6315 98.1001 10.7549 97.983C10.997 97.7531 11.3733 97.4471 11.8773 97.0526C12.8671 96.2778 14.2839 95.2125 15.8187 93.9082C18.8829 91.3044 22.5258 87.6618 24.4788 83.1532L23.1024 82.557C21.289 86.7433 17.8615 90.2039 14.8474 92.7652C13.3431 94.0435 11.9688 95.0761 10.9527 95.8715C10.4537 96.2621 10.0233 96.6092 9.72216 96.8951C9.57386 97.0359 9.42801 97.1886 9.31898 97.3448C9.24084 97.4568 9.03472 97.7694 9.119 98.1615L10.5855 97.8463ZM24.4984 83.1033C24.6388 82.7027 24.604 82.295 24.5284 81.9442C24.4523 81.5916 24.3155 81.2135 24.1706 80.8388C23.871 80.0633 23.498 79.1989 23.2285 78.1278C22.7028 76.0387 22.5731 73.1472 24.5982 69.1755L23.2619 68.4941C21.0641 72.8046 21.1639 76.07 21.7738 78.4938C22.0721 79.6792 22.4935 80.6602 22.7715 81.3794C22.9154 81.752 23.0132 82.0336 23.0621 82.2605C23.1115 82.4892 23.0921 82.5808 23.0829 82.6069L24.4984 83.1033ZM30.225 53.0444C42.3835 35.4108 54.5479 24.155 67.2184 16.7997C79.8903 9.44359 93.1146 5.96172 107.439 3.93985L107.229 2.45457C92.7935 4.49217 79.3627 8.01547 66.4653 15.5024C53.5667 22.9902 41.2478 34.4154 28.9901 52.1929L30.225 53.0444ZM107.521 3.92349C110.177 3.23936 116.092 2.48951 123.828 2.14035C131.546 1.79201 141.025 1.84475 150.785 2.74652C160.549 3.64861 170.572 5.39825 179.391 8.43309C188.218 11.4707 195.775 15.774 200.682 21.741L201.84 20.7883C196.688 14.5224 188.841 10.0986 179.879 7.01472C170.91 3.92802 160.759 2.16163 150.923 1.25289C141.084 0.343834 131.536 0.29095 123.761 0.641878C116.004 0.991988 109.96 1.74631 107.147 2.47092L107.521 3.92349ZM200.659 21.7126C206.632 29.7334 208.538 39.899 207.808 49.3115C207.076 58.7401 203.71 67.2833 199.297 72.0512L200.398 73.0701C205.106 67.9832 208.554 59.0817 209.304 49.4276C210.054 39.7574 208.107 29.2024 201.863 20.8167L200.659 21.7126ZM199.297 72.0512C194.739 76.9765 192.294 79.3483 190.817 80.8934C190.085 81.6591 189.573 82.2393 189.182 82.8234C188.782 83.4205 188.525 83.9966 188.267 84.7377L189.683 85.2312C189.916 84.5638 190.123 84.1145 190.429 83.6578C190.743 83.1882 191.178 82.6863 191.901 81.93C193.334 80.4311 195.836 77.9995 200.398 73.0701L199.297 72.0512ZM188.267 84.7377C187.321 87.4518 187.772 90.8587 188.324 93.7995C188.611 95.3289 188.913 96.669 189.128 97.9021C189.343 99.1348 189.426 100.045 189.322 100.619L190.798 100.888C190.956 100.016 190.818 98.8577 190.606 97.6444C190.394 96.4316 190.066 94.9485 189.798 93.5227C189.24 90.5529 188.885 87.5213 189.683 85.2312L188.267 84.7377ZM189.322 100.619C189.22 101.18 188.786 102.029 188.06 103.192C187.34 104.345 186.458 105.62 185.5 107.109C183.636 110.007 181.626 113.503 181.088 117.042L182.571 117.267C183.056 114.075 184.899 110.816 186.762 107.92C187.668 106.511 188.619 105.128 189.332 103.987C190.039 102.855 190.637 101.773 190.798 100.888L189.322 100.619ZM181.088 117.042C181.03 117.425 181.062 117.811 181.098 118.128C181.139 118.482 181.181 118.726 181.196 118.988C181.21 119.237 181.186 119.377 181.152 119.46C181.129 119.513 181.089 119.581 180.933 119.653L181.56 121.016C182.031 120.799 182.356 120.465 182.534 120.042C182.7 119.649 182.712 119.24 182.694 118.906C182.676 118.586 182.618 118.212 182.588 117.955C182.554 117.661 182.545 117.442 182.571 117.267L181.088 117.042ZM180.933 119.653C179.304 120.403 178.63 120.928 177.975 121.729C177.357 122.485 176.876 123.302 175.361 124.883L176.445 125.92C178.004 124.292 178.632 123.295 179.136 122.679C179.603 122.108 180.064 121.704 181.56 121.016L180.933 119.653ZM175.415 124.832C174.902 125.271 174.107 125.506 173.086 125.548C172.078 125.589 170.946 125.438 169.865 125.206C168.789 124.975 167.793 124.67 167.063 124.422C166.7 124.299 166.404 124.19 166.201 124.113C166.099 124.074 166.021 124.043 165.968 124.022C165.942 124.012 165.922 124.004 165.91 123.999C165.903 123.996 165.899 123.994 165.896 123.993C165.894 123.992 165.893 123.992 165.893 123.992C165.893 123.992 165.892 123.992 165.892 123.992C165.892 123.992 165.892 123.992 165.892 123.992C165.892 123.992 165.893 123.992 165.606 124.685C165.319 125.378 165.319 125.378 165.319 125.378C165.319 125.378 165.32 125.378 165.32 125.378C165.32 125.378 165.321 125.378 165.321 125.379C165.323 125.379 165.325 125.38 165.327 125.381C165.331 125.383 165.337 125.385 165.345 125.388C165.361 125.395 165.384 125.404 165.413 125.416C165.472 125.439 165.558 125.473 165.667 125.514C165.885 125.597 166.198 125.713 166.581 125.843C167.346 126.103 168.401 126.425 169.55 126.672C170.695 126.918 171.963 127.095 173.147 127.047C174.318 126.999 175.509 126.726 176.391 125.971L175.415 124.832ZM165.606 124.685C165.883 123.988 165.883 123.988 165.883 123.988C165.884 123.988 165.884 123.988 165.884 123.988C165.884 123.988 165.885 123.988 165.885 123.989C165.885 123.989 165.886 123.989 165.886 123.989C165.887 123.989 165.887 123.989 165.887 123.989C165.886 123.989 165.884 123.988 165.88 123.986C165.872 123.983 165.858 123.977 165.839 123.968C165.801 123.95 165.744 123.922 165.675 123.882C165.535 123.802 165.368 123.688 165.227 123.547C165.086 123.406 164.998 123.263 164.962 123.122C164.93 122.997 164.924 122.814 165.051 122.543L163.695 121.903C163.431 122.462 163.383 123.002 163.509 123.494C163.63 123.97 163.899 124.339 164.164 124.605C164.43 124.872 164.718 125.063 164.931 125.185C165.039 125.247 165.133 125.293 165.202 125.326C165.237 125.342 165.265 125.355 165.287 125.364C165.297 125.369 165.306 125.372 165.313 125.375C165.317 125.377 165.32 125.378 165.322 125.379C165.324 125.38 165.325 125.38 165.326 125.381C165.326 125.381 165.327 125.381 165.327 125.381C165.328 125.381 165.328 125.381 165.328 125.381C165.328 125.381 165.329 125.382 165.606 124.685ZM165.051 122.543C165.47 121.656 165.748 121.295 166.038 121.011C166.198 120.854 166.368 120.715 166.61 120.511C166.847 120.312 167.126 120.073 167.461 119.745C168.798 118.438 170.953 115.799 175.248 108.574L173.959 107.807C169.68 115.006 167.605 117.507 166.413 118.672C166.116 118.962 165.869 119.174 165.645 119.363C165.426 119.547 165.2 119.732 164.988 119.94C164.533 120.386 164.162 120.913 163.695 121.903L165.051 122.543ZM174.604 108.19C175.33 108.378 175.33 108.378 175.33 108.377C175.33 108.377 175.33 108.377 175.33 108.376C175.33 108.376 175.331 108.375 175.331 108.374C175.331 108.372 175.332 108.369 175.333 108.365C175.335 108.358 175.337 108.348 175.34 108.336C175.347 108.31 175.355 108.274 175.366 108.227C175.388 108.133 175.419 107.997 175.455 107.824C175.526 107.478 175.619 106.983 175.705 106.378C175.878 105.17 176.026 103.51 175.926 101.717C175.728 98.163 174.529 93.8694 170.327 91.7448L169.65 93.0834C173.131 94.8433 174.241 98.4378 174.428 101.801C174.522 103.466 174.383 105.023 174.22 106.166C174.139 106.736 174.052 107.2 173.986 107.52C173.953 107.68 173.925 107.803 173.906 107.885C173.896 107.926 173.889 107.957 173.884 107.977C173.881 107.987 173.88 107.994 173.878 107.998C173.878 108.001 173.878 108.002 173.877 108.003C173.877 108.003 173.877 108.003 173.877 108.004C173.877 108.004 173.877 108.003 173.877 108.003C173.877 108.003 173.877 108.003 174.604 108.19ZM170.327 91.7448C166.023 89.5686 162.951 87.7538 160.721 86.2178L159.87 87.4532C162.172 89.0387 165.307 90.8872 169.65 93.0834L170.327 91.7448ZM160.721 86.2178C157.131 83.7457 155.73 82.0028 154.879 80.6437C154.053 79.3249 153.58 77.9948 152.041 76.7839L151.113 77.9628C152.379 78.9584 152.605 79.8393 153.607 81.4399C154.585 83.0002 156.141 84.8851 159.87 87.4532L160.721 86.2178ZM151.324 76.6672C147.772 77.9383 144.166 78.8081 140.527 79.4057L140.77 80.8859C144.483 80.2763 148.179 79.3861 151.83 78.0795L151.324 76.6672ZM140.527 79.4057C133.41 80.5744 126.189 80.6996 119.004 80.7584C111.839 80.817 104.699 80.809 97.8363 81.7326L98.0364 83.2192C104.785 82.311 111.819 82.3172 119.017 82.2583C126.195 82.1996 133.524 82.0758 140.77 80.8859L140.527 79.4057ZM97.3898 81.9623C92.9262 86.7122 90.3878 93.11 88.6335 96.5813L89.9723 97.2578C91.8139 93.6137 94.2139 87.5324 98.4829 82.9895L97.3898 81.9623ZM88.6335 96.5813C87.8277 98.1758 86.0384 99.6727 84.3464 100.804C83.5162 101.36 82.7391 101.808 82.1695 102.117C81.8851 102.272 81.6535 102.391 81.494 102.471C81.4144 102.511 81.3528 102.541 81.3118 102.561C81.2913 102.571 81.2759 102.578 81.2661 102.583C81.2611 102.585 81.2575 102.587 81.2553 102.588C81.2542 102.589 81.2535 102.589 81.2531 102.589C81.2529 102.589 81.2528 102.589 81.2528 102.589C81.2528 102.589 81.2529 102.589 81.2529 102.589C81.2529 102.589 81.253 102.589 81.5723 103.268C81.8915 103.947 81.8917 103.947 81.8918 103.946C81.8919 103.946 81.8921 103.946 81.8923 103.946C81.8926 103.946 81.8931 103.946 81.8936 103.946C81.8946 103.945 81.8961 103.944 81.8978 103.944C81.9014 103.942 81.9063 103.94 81.9126 103.937C81.9253 103.93 81.9435 103.922 81.9669 103.91C82.0137 103.888 82.0813 103.854 82.1674 103.811C82.3394 103.725 82.5853 103.598 82.8852 103.435C83.4842 103.11 84.3026 102.638 85.1804 102.051C86.9042 100.898 88.9802 99.221 89.9723 97.2578L88.6335 96.5813ZM81.5723 103.268C81.0468 102.733 81.0467 102.733 81.0466 102.733C81.0465 102.733 81.0463 102.733 81.0462 102.733C81.0458 102.734 81.0454 102.734 81.0448 102.735C81.0436 102.736 81.042 102.737 81.0399 102.74C81.0356 102.744 81.0294 102.75 81.0213 102.758C81.0051 102.774 80.9813 102.798 80.9504 102.828C80.8886 102.89 80.7983 102.98 80.683 103.097C80.4523 103.331 80.1214 103.671 79.7183 104.096C78.9125 104.945 77.8162 106.137 76.6543 107.51C74.3531 110.23 71.7138 113.751 70.639 116.735L72.0502 117.243C73.0246 114.538 75.4991 111.198 77.7994 108.479C78.9383 107.133 80.0147 105.962 80.8064 105.128C81.2021 104.711 81.5261 104.379 81.7507 104.151C81.863 104.037 81.9504 103.949 82.0094 103.891C82.0389 103.861 82.0613 103.839 82.0762 103.824C82.0836 103.817 82.0892 103.811 82.0928 103.808C82.0946 103.806 82.0959 103.805 82.0968 103.804C82.0972 103.804 82.0975 103.803 82.0976 103.803C82.0977 103.803 82.0978 103.803 82.0978 103.803C82.0978 103.803 82.0978 103.803 81.5723 103.268ZM70.5956 116.951C70.571 117.439 70.5718 118.038 70.5564 118.496C70.5396 118.997 70.503 119.452 70.4101 119.86C70.3182 120.263 70.1761 120.595 69.9632 120.866C69.7544 121.131 69.4493 121.373 68.9737 121.555L69.51 122.956C70.2151 122.686 70.7508 122.291 71.1419 121.794C71.5291 121.302 71.7464 120.746 71.8725 120.193C71.9976 119.645 72.0377 119.077 72.0555 118.546C72.0748 117.972 72.0683 117.53 72.0937 117.027L70.5956 116.951ZM68.9958 121.547C68.619 121.678 68.3243 121.959 68.1205 122.18C67.9065 122.413 67.6926 122.695 67.5191 122.915C67.3287 123.157 67.1779 123.337 67.0443 123.456C66.8977 123.586 66.8897 123.535 66.9854 123.538L66.9441 125.037C67.4301 125.051 67.8061 124.785 68.0398 124.578C68.2865 124.359 68.5124 124.079 68.6978 123.843C68.9002 123.586 69.0613 123.373 69.2241 123.196C69.3021 123.111 69.3663 123.051 69.4184 123.01C69.4717 122.968 69.4943 122.961 69.4879 122.964L68.9958 121.547ZM66.9854 123.538C67.0439 123.539 67.0832 123.576 67.0711 123.564C67.0331 123.526 66.9871 123.459 66.8818 123.289C66.7327 123.048 66.3718 122.386 65.5961 122.262L65.3593 123.743C65.362 123.744 65.3623 123.744 65.361 123.743C65.3598 123.743 65.3593 123.743 65.3599 123.743C65.3612 123.744 65.3725 123.75 65.3942 123.773C65.4488 123.83 65.5036 123.913 65.6064 124.079C65.6889 124.212 65.827 124.442 66.0143 124.628C66.2275 124.84 66.5331 125.026 66.9441 125.037L66.9854 123.538ZM64.9554 122.464C64.6896 122.722 64.511 123.012 64.3737 123.264C64.2096 123.565 64.1518 123.708 64.0116 123.948C63.8002 124.309 63.5454 124.612 62.9678 124.814L63.4634 126.23C64.4624 125.881 64.9667 125.285 65.3062 124.705C65.4415 124.474 65.6071 124.135 65.6906 123.983C65.8007 123.78 65.8939 123.644 66.0001 123.541L64.9554 122.464ZM63.3899 124.793C63.2475 124.759 63.0827 124.762 63.0086 124.764C62.8987 124.766 62.7627 124.772 62.6123 124.78C62.2996 124.797 61.9163 124.822 61.4407 124.845C60.5027 124.891 59.288 124.926 58.014 124.854C56.7354 124.782 55.4265 124.603 54.2915 124.236C53.1509 123.866 52.2558 123.33 51.7117 122.591L50.5037 123.48C51.306 124.57 52.531 125.242 53.8297 125.663C55.1342 126.085 56.584 126.275 57.9292 126.352C59.2789 126.428 60.5529 126.391 61.5143 126.344C61.9885 126.32 62.4076 126.293 62.6932 126.278C62.8419 126.27 62.9541 126.265 63.0341 126.264C63.15 126.262 63.117 126.27 63.0413 126.252L63.3899 124.793ZM51.8574 123.056C51.8538 123.186 51.8144 123.277 51.8093 123.289C51.7983 123.315 51.79 123.328 51.793 123.323C51.7986 123.314 51.8175 123.284 51.8584 123.228C51.9384 123.118 52.0641 122.959 52.2382 122.747C52.5848 122.326 53.0849 121.741 53.7081 121.009C54.9493 119.551 56.6519 117.539 58.4835 115.198C62.1341 110.534 66.3493 104.5 68.4384 98.8868L67.0326 98.3636C65.0292 103.746 60.9385 109.627 57.3023 114.274C55.4905 116.589 53.8044 118.582 52.5659 120.037C51.9492 120.761 51.4367 121.36 51.0796 121.795C50.9018 122.011 50.7529 122.198 50.6457 122.345C50.5931 122.417 50.5403 122.494 50.4973 122.568C50.476 122.604 50.4493 122.653 50.4256 122.71C50.408 122.752 50.362 122.866 50.358 123.015L51.8574 123.056ZM68.4154 98.9419C69.7337 96.1124 71.1288 92.386 72.1901 89.3826C72.7219 87.8777 73.1719 86.5483 73.489 85.595C73.6476 85.1182 73.773 84.7354 73.8589 84.4714C73.9018 84.3394 73.9349 84.2372 73.9572 84.1677C73.9684 84.133 73.9769 84.1065 73.9826 84.0886C73.9855 84.0797 73.9877 84.0729 73.9892 84.0683C73.9899 84.066 73.9905 84.0642 73.9908 84.063C73.991 84.0625 73.9912 84.062 73.9913 84.0617C73.9913 84.0615 73.9914 84.0614 73.9914 84.0613C73.9914 84.0612 73.9914 84.0611 73.277 83.8331C72.5625 83.6051 72.5625 83.6051 72.5624 83.6051C72.5624 83.6052 72.5624 83.6052 72.5624 83.6054C72.5623 83.6056 72.5622 83.606 72.562 83.6065C72.5617 83.6076 72.5612 83.6091 72.5605 83.6113C72.5591 83.6156 72.557 83.6221 72.5543 83.6307C72.5487 83.648 72.5404 83.6738 72.5294 83.7079C72.5075 83.776 72.4749 83.8769 72.4325 84.0074C72.3475 84.2685 72.2232 84.6482 72.0657 85.1215C71.7508 86.0682 71.3038 87.3886 70.7758 88.8829C69.7175 91.8779 68.3419 95.5476 67.0557 98.3085L68.4154 98.9419ZM73.277 83.8331C72.9293 83.1685 72.9294 83.1685 72.9295 83.1685C72.9295 83.1685 72.9295 83.1684 72.9295 83.1684C72.9295 83.1684 72.9295 83.1684 72.9294 83.1685C72.9293 83.1686 72.9289 83.1687 72.9284 83.169C72.9273 83.1696 72.9254 83.1706 72.9228 83.1719C72.9176 83.1746 72.9094 83.1788 72.8983 83.1846C72.8759 83.196 72.8417 83.2135 72.7959 83.2365C72.7043 83.2825 72.5666 83.3507 72.3853 83.4378C72.0227 83.6121 71.4862 83.8618 70.797 84.1603C69.4183 84.7574 67.4305 85.5485 65.0032 86.3205L65.4578 87.75C67.9408 86.9603 69.9762 86.1504 71.3931 85.5368C72.1017 85.2299 72.6562 84.9719 73.0351 84.7898C73.2246 84.6987 73.3702 84.6266 73.4693 84.5768C73.5189 84.5519 73.5568 84.5326 73.5828 84.5192C73.5958 84.5126 73.6058 84.5074 73.6128 84.5038C73.6163 84.502 73.619 84.5006 73.621 84.4996C73.6219 84.499 73.6227 84.4986 73.6233 84.4983C73.6236 84.4982 73.6239 84.498 73.6241 84.4979C73.6242 84.4979 73.6243 84.4978 73.6244 84.4978C73.6245 84.4977 73.6246 84.4977 73.277 83.8331ZM64.658 86.5508C61.1472 90.6996 58.4173 94.8106 53.5816 97.5956L54.3302 98.8954C59.4617 95.9401 62.4268 91.5095 65.803 87.5197L64.658 86.5508ZM53.6305 97.5698C49.9781 99.3285 43.6848 101.942 37.741 104.155C34.7709 105.261 31.8976 106.263 29.4932 107.006C27.0621 107.758 25.184 108.22 24.1655 108.289L24.2662 109.786C25.4843 109.704 27.5218 109.186 29.9361 108.439C32.377 107.685 35.2789 106.672 38.2643 105.561C44.2318 103.339 50.5719 100.707 54.2813 98.9212L53.6305 97.5698ZM24.1655 108.289C23.6754 108.322 23.3796 108.296 23.1854 108.253C23.005 108.214 22.8828 108.155 22.7377 108.067C22.3886 107.855 21.9268 107.48 20.8627 107.281L20.5868 108.755C21.3306 108.894 21.5488 109.1 21.9605 109.35C22.1958 109.492 22.4741 109.633 22.8656 109.719C23.2433 109.801 23.6907 109.824 24.2662 109.786L24.1655 108.289ZM20.3034 107.398C19.8602 107.699 19.1793 107.748 18.2225 107.38C17.2779 107.017 16.2027 106.292 15.1444 105.304C13.0201 103.32 11.1403 100.446 10.5857 97.8474L9.11876 98.1604C9.75471 101.141 11.8413 104.272 14.1208 106.4C15.2643 107.468 16.5003 108.325 17.6839 108.78C18.8552 109.231 20.1195 109.336 21.146 108.639L20.3034 107.398ZM20.8907 108.749C25.4413 107.716 29.8816 106.478 33.1949 104.686C36.5058 102.894 38.8821 100.437 38.8821 96.9195H37.3821C37.3821 99.6184 35.6008 101.678 32.4811 103.366C29.3638 105.053 25.1004 106.256 20.5587 107.287L20.8907 108.749ZM194.94 15.6267C198.25 13.3775 199.173 10.1878 198.627 7.72278C198.358 6.50619 197.72 5.43627 196.798 4.79591C195.848 4.137 194.649 3.97473 193.431 4.52009L194.044 5.88919C194.777 5.561 195.419 5.66534 195.942 6.02819C196.492 6.40958 196.957 7.11655 197.163 8.04697C197.568 9.87595 196.93 12.4607 194.097 14.3862L194.94 15.6267ZM193.571 4.47335C192.957 4.61317 192.628 5.12444 192.443 5.48677C192.249 5.86805 192.084 6.3596 191.936 6.76405C191.596 7.68882 191.272 8.33483 190.726 8.59351L191.369 9.94874C192.544 9.39135 193.034 8.12498 193.344 7.28096C193.52 6.80102 193.639 6.44406 193.779 6.16773C193.93 5.87244 193.987 5.91698 193.904 5.93593L193.571 4.47335ZM190.726 8.59351C190.365 8.76491 190.213 8.73088 190.168 8.7162C190.108 8.69659 190.009 8.63555 189.861 8.42322C189.703 8.1952 189.585 7.94822 189.387 7.59546C189.215 7.28793 188.979 6.8963 188.63 6.60612L187.67 7.75841C187.788 7.85711 187.913 8.03219 188.079 8.32819C188.219 8.57897 188.416 8.97235 188.63 9.28049C188.856 9.60433 189.19 9.97526 189.703 10.1424C190.231 10.3145 190.793 10.222 191.369 9.94874L190.726 8.59351ZM188.63 6.60612C188.247 6.28645 188.153 6.02057 188.145 5.82581C188.137 5.6099 188.228 5.31499 188.524 4.94488C189.128 4.19089 190.368 3.40069 191.948 2.80808C193.508 2.22293 195.294 1.87077 196.899 1.91252C198.521 1.9547 199.835 2.3925 200.618 3.24502L201.722 2.23017C200.547 0.951093 198.752 0.460221 196.938 0.41303C195.107 0.36541 193.129 0.763182 191.422 1.40363C189.734 2.03663 188.202 2.94771 187.354 4.00707C186.924 4.54363 186.619 5.1834 186.646 5.88474C186.675 6.60723 187.049 7.24116 187.67 7.75842L188.63 6.60612ZM200.618 3.24502C203.516 6.39975 203.473 10.5274 202.613 14.0183C202.186 15.751 201.567 17.2827 201.052 18.3835C200.796 18.9327 200.567 19.3718 200.403 19.6718C200.321 19.8217 200.255 19.9366 200.211 20.013C200.189 20.0512 200.172 20.0797 200.161 20.0981C200.155 20.1073 200.151 20.1139 200.149 20.118C200.148 20.12 200.147 20.1214 200.146 20.1221C200.146 20.1225 200.146 20.1227 200.146 20.1228C200.146 20.1228 200.146 20.1227 200.146 20.1227C200.146 20.1225 200.146 20.1224 200.786 20.514C201.425 20.9057 201.425 20.9055 201.426 20.9051C201.426 20.905 201.426 20.9046 201.426 20.9043C201.427 20.9037 201.427 20.9029 201.428 20.902C201.429 20.9 201.43 20.8975 201.432 20.8942C201.436 20.8877 201.442 20.8786 201.449 20.867C201.463 20.8436 201.482 20.81 201.508 20.7665C201.558 20.6796 201.63 20.5533 201.719 20.3912C201.896 20.0673 202.14 19.5999 202.411 19.0184C202.954 17.8577 203.612 16.2313 204.069 14.3772C204.977 10.6945 205.125 5.93395 201.722 2.23017L200.618 3.24502ZM94.1339 87.604C93.4328 87.8703 93.4328 87.8702 93.4328 87.8702C93.4328 87.8703 93.4328 87.8703 93.4329 87.8705C93.433 87.8708 93.4332 87.8713 93.4335 87.872C93.434 87.8735 93.435 87.876 93.4362 87.8794C93.4388 87.8861 93.4427 87.8966 93.4479 87.9107C93.4584 87.9389 93.4742 87.9816 93.4948 88.0381C93.536 88.1511 93.5964 88.3193 93.672 88.5371C93.8234 88.9728 94.0358 89.6068 94.2782 90.3948C94.7634 91.9718 95.3669 94.1598 95.8416 96.6058C96.3168 99.0542 96.6596 101.744 96.6316 104.329C96.6035 106.92 96.2032 109.357 95.2322 111.332L96.5784 111.994C97.6851 109.742 98.1021 107.058 98.1315 104.345C98.1609 101.626 97.8012 98.8294 97.3141 96.32C96.8266 93.8081 96.2081 91.5666 95.7119 89.9537C95.4636 89.1467 95.2455 88.4955 95.089 88.0449C95.0107 87.8196 94.9478 87.6443 94.9042 87.5246C94.8824 87.4647 94.8654 87.4187 94.8537 87.3874C94.8479 87.3717 94.8433 87.3596 94.8402 87.3513C94.8387 87.3472 94.8374 87.344 94.8366 87.3417C94.8362 87.3406 94.8358 87.3397 94.8356 87.339C94.8354 87.3387 94.8353 87.3383 94.8353 87.3382C94.8352 87.3379 94.8351 87.3377 94.1339 87.604ZM95.2322 111.332C94.9858 111.834 94.6467 112.336 94.2662 112.854C93.9065 113.343 93.4641 113.903 93.1174 114.396C92.7617 114.902 92.4224 115.45 92.2374 116.013C92.0458 116.597 92.006 117.243 92.3153 117.88L93.6647 117.225C93.5708 117.032 93.5557 116.807 93.6625 116.481C93.7759 116.136 94.0088 115.737 94.3446 115.259C94.6895 114.768 95.058 114.309 95.4745 113.742C95.8702 113.204 96.2725 112.616 96.5784 111.994L95.2322 111.332ZM92.3153 117.88C92.9561 119.201 94.4846 119.712 96.2066 119.833C97.9803 119.958 100.259 119.694 102.846 119.159L102.542 117.69C100.004 118.215 97.8826 118.448 96.3118 118.337C94.6893 118.223 93.9285 117.768 93.6647 117.225L92.3153 117.88ZM102.846 119.159C103.257 119.074 103.672 118.916 103.932 118.547C104.177 118.199 104.171 117.798 104.175 117.652C104.181 117.451 104.186 117.349 104.227 117.234C104.263 117.133 104.347 116.971 104.599 116.754L103.618 115.619C103.2 115.98 102.949 116.351 102.813 116.732C102.682 117.1 102.681 117.43 102.675 117.609C102.669 117.84 102.648 117.765 102.705 117.683C102.778 117.58 102.832 117.63 102.542 117.69L102.846 119.159ZM104.599 116.754C104.815 116.567 104.834 116.639 104.725 116.626C104.656 116.618 104.651 116.58 104.812 116.72C104.915 116.81 105.177 117.064 105.498 117.205C105.892 117.378 106.335 117.384 106.809 117.175L106.204 115.802C106.168 115.818 106.143 115.826 106.127 115.829C106.112 115.833 106.104 115.833 106.103 115.833C106.102 115.833 106.104 115.833 106.106 115.834C106.108 115.834 106.106 115.834 106.101 115.832C106.045 115.807 105.999 115.764 105.796 115.588C105.651 115.461 105.339 115.187 104.896 115.136C104.411 115.08 103.986 115.301 103.618 115.619L104.599 116.754ZM106.951 117.093C107.569 116.638 107.958 116.105 108.138 115.489C108.312 114.892 108.268 114.291 108.165 113.738C108.065 113.2 107.886 112.606 107.744 112.067C107.595 111.504 107.467 110.94 107.422 110.35L105.926 110.465C105.982 111.192 106.138 111.86 106.294 112.45C106.456 113.065 106.604 113.547 106.69 114.012C106.774 114.464 106.777 114.797 106.698 115.069C106.624 115.321 106.459 115.592 106.062 115.884L106.951 117.093ZM107.422 110.35C107.047 105.485 107.566 98.3681 108.187 92.4249C108.496 89.4623 108.83 86.8069 109.085 84.8922C109.213 83.935 109.322 83.1632 109.398 82.6311C109.437 82.3651 109.467 82.159 109.488 82.0197C109.498 81.95 109.506 81.897 109.511 81.8616C109.514 81.8439 109.516 81.8305 109.517 81.8216C109.518 81.8172 109.518 81.8139 109.519 81.8117C109.519 81.8107 109.519 81.8099 109.519 81.8093C109.519 81.8091 109.519 81.8089 109.519 81.8088C109.519 81.8087 109.519 81.8087 108.778 81.6959C108.036 81.5831 108.036 81.5833 108.036 81.5834C108.036 81.5836 108.036 81.5839 108.036 81.5842C108.036 81.5848 108.036 81.5857 108.036 81.5869C108.035 81.5893 108.035 81.5928 108.034 81.5975C108.033 81.6068 108.031 81.6207 108.028 81.6389C108.022 81.6753 108.014 81.7292 108.004 81.7999C107.983 81.9412 107.952 82.1494 107.914 82.4176C107.837 82.9541 107.727 83.7308 107.599 84.6935C107.341 86.6185 107.006 89.2887 106.695 92.2691C106.074 98.2119 105.54 105.451 105.926 110.465L107.422 110.35ZM139.948 80.427C139.962 80.4525 139.976 80.478 139.989 80.5035L141.308 79.7882C141.293 79.7616 141.279 79.7351 141.265 79.7087L139.948 80.427ZM139.989 80.5035C142.134 84.4573 143.491 88.6299 142.922 93.2218C142.352 97.8125 139.841 102.943 134.008 108.778L135.069 109.839C141.057 103.848 143.787 98.4264 144.41 93.4065C145.033 88.3877 143.534 83.8917 141.308 79.7882L139.989 80.5035ZM134.008 108.778C133.565 109.221 133.089 109.588 132.602 109.939C132.133 110.276 131.608 110.629 131.161 110.989C130.218 111.749 129.421 112.699 129.378 114.289L130.877 114.33C130.904 113.349 131.342 112.77 132.102 112.157C132.507 111.831 132.95 111.537 133.478 111.156C133.989 110.789 134.541 110.366 135.069 109.839L134.008 108.778ZM129.378 114.289C129.351 115.247 129.842 115.936 130.559 116.37C131.228 116.775 132.108 116.975 133.009 117.077C134.82 117.283 137.098 117.13 138.893 117.041L138.819 115.543C136.957 115.635 134.835 115.775 133.178 115.587C132.346 115.492 131.725 115.323 131.336 115.087C130.994 114.88 130.868 114.656 130.877 114.33L129.378 114.289ZM138.893 117.041C140.163 116.978 140.956 116.23 141.502 115.434C141.771 115.042 141.997 114.615 142.198 114.226C142.406 113.823 142.583 113.468 142.777 113.152L141.5 112.367C141.268 112.743 141.058 113.164 140.865 113.538C140.664 113.927 140.476 114.279 140.265 114.586C139.853 115.186 139.43 115.513 138.819 115.543L138.893 117.041ZM142.777 113.152C142.774 113.158 142.752 113.194 142.703 113.237C142.65 113.282 142.563 113.339 142.442 113.365C142.178 113.423 142 113.296 141.968 113.271C141.935 113.244 141.937 113.236 141.978 113.293C142.014 113.343 142.056 113.409 142.112 113.501C142.211 113.661 142.363 113.922 142.531 114.132C142.675 114.312 142.987 114.663 143.472 114.708L143.61 113.214C143.788 113.231 143.819 113.34 143.702 113.194C143.609 113.078 143.519 112.926 143.391 112.717C143.334 112.624 143.266 112.515 143.195 112.417C143.129 112.325 143.028 112.196 142.893 112.09C142.76 111.985 142.483 111.821 142.123 111.9C141.781 111.974 141.59 112.22 141.5 112.367L142.777 113.152ZM143.472 114.708C144.341 114.788 145.077 114.6 145.682 114.188C146.272 113.785 146.678 113.21 146.975 112.61C147.273 112.011 147.484 111.344 147.658 110.71C147.846 110.026 147.966 109.488 148.135 108.905L146.694 108.488C146.535 109.038 146.365 109.756 146.211 110.313C146.044 110.92 145.864 111.476 145.632 111.943C145.4 112.41 145.139 112.742 144.837 112.949C144.55 113.144 144.169 113.266 143.61 113.214L143.472 114.708ZM148.135 108.905C149.165 105.346 151.214 103.344 153.487 101.397C155.748 99.4606 158.313 97.5292 159.952 94.1777L158.605 93.5188C157.132 96.5301 154.859 98.2477 152.512 100.257C150.178 102.256 147.85 104.497 146.694 108.488L148.135 108.905ZM159.952 94.1777C160.584 92.886 160.352 91.8586 160.086 90.9646C159.822 90.0823 159.557 89.3822 159.706 88.3947L158.223 88.1709C158.014 89.556 158.412 90.6039 158.648 91.3938C158.881 92.172 158.985 92.741 158.605 93.5188L159.952 94.1777ZM159.706 88.3947C159.716 88.3321 159.79 88.1773 160.027 87.9571C160.242 87.7569 160.499 87.5868 160.679 87.48L159.912 86.1909C159.689 86.3236 159.33 86.5563 159.004 86.8595C158.7 87.1427 158.311 87.5918 158.223 88.1709L159.706 88.3947ZM160.679 87.48C160.735 87.4465 160.781 87.4208 160.811 87.4042C160.827 87.396 160.838 87.39 160.845 87.3865C160.848 87.3847 160.85 87.3835 160.851 87.383C160.852 87.3828 160.852 87.3827 160.852 87.3827C160.852 87.3827 160.852 87.3828 160.851 87.3829C160.851 87.383 160.851 87.383 160.851 87.3831C160.851 87.3832 160.851 87.3832 160.851 87.3832C160.851 87.3833 160.851 87.3833 160.851 87.3833C160.851 87.3833 160.851 87.3833 160.851 87.3833C160.851 87.3834 160.851 87.3834 160.512 86.7142C160.173 86.0449 160.173 86.045 160.173 86.045C160.173 86.045 160.173 86.045 160.173 86.045C160.173 86.045 160.173 86.0451 160.173 86.0451C160.173 86.0452 160.173 86.0452 160.173 86.0453C160.172 86.0454 160.172 86.0455 160.172 86.0457C160.171 86.0459 160.171 86.0462 160.17 86.0466C160.169 86.0473 160.167 86.0483 160.165 86.0493C160.161 86.0515 160.155 86.0543 160.148 86.0578C160.135 86.0649 160.117 86.0746 160.094 86.0869C160.049 86.1115 159.986 86.1465 159.912 86.1909L160.679 87.48ZM74.0267 83.8152C73.9581 80.9467 74.0742 78.7569 74.5224 76.5987C74.9706 74.4402 75.7584 72.2785 77.0695 69.4767L75.711 68.8409C74.3726 71.7009 73.5344 73.9791 73.0537 76.2937C72.573 78.6086 72.4571 80.9251 72.5272 83.851L74.0267 83.8152ZM152.301 77.1778C149.366 66.3077 151.877 51.4066 162.237 42.4612L161.257 41.3258C150.372 50.7245 147.801 66.2652 150.853 77.5689L152.301 77.1778ZM28.8959 76.4774C28.8762 77.1926 28.2804 77.7565 27.5651 77.7368L27.5238 79.2363C29.0672 79.2788 30.3528 78.0621 30.3954 76.5187L28.8959 76.4774ZM27.5651 77.7368C26.8498 77.7171 26.2859 77.1213 26.3056 76.406L24.8062 76.3647C24.7637 77.9081 25.9804 79.1937 27.5238 79.2363L27.5651 77.7368ZM26.3056 76.406C26.3253 75.6907 26.9212 75.1268 27.6365 75.1465L27.6778 73.6471C26.1344 73.6045 24.8487 74.8213 24.8062 76.3647L26.3056 76.406ZM27.6365 75.1465C28.3518 75.1662 28.9156 75.7621 28.8959 76.4774L30.3954 76.5187C30.4379 74.9753 29.2212 73.6896 27.6778 73.6471L27.6365 75.1465ZM12.6403 102.271C12.8578 102.57 13.0058 102.843 13.0773 103.029C13.115 103.128 13.1159 103.162 13.1148 103.144C13.1142 103.134 13.111 103.078 13.1351 102.998C13.1613 102.911 13.2252 102.781 13.3641 102.68L14.2467 103.893C14.617 103.623 14.6216 103.206 14.6119 103.051C14.5995 102.853 14.5412 102.657 14.4778 102.492C14.347 102.151 14.1252 101.762 13.8531 101.388L12.6403 102.271ZM13.3641 102.68C13.503 102.579 13.6461 102.558 13.7372 102.56C13.821 102.561 13.8736 102.582 13.883 102.586C13.8993 102.592 13.8669 102.581 13.7849 102.514C13.6296 102.389 13.4151 102.164 13.1975 101.865L11.9846 102.748C12.2567 103.122 12.5588 103.452 12.843 103.682C12.9807 103.793 13.1488 103.909 13.3333 103.981C13.4783 104.038 13.8764 104.162 14.2467 103.893L13.3641 102.68ZM13.1975 101.865C12.9799 101.566 12.8319 101.293 12.7605 101.107C12.7227 101.008 12.7219 100.974 12.723 100.991C12.7236 101.001 12.7267 101.058 12.7026 101.138C12.6765 101.225 12.6125 101.355 12.4736 101.456L11.5911 100.243C11.2207 100.513 11.2162 100.93 11.2259 101.085C11.2383 101.283 11.2966 101.479 11.3599 101.644C11.4907 101.985 11.7126 102.374 11.9846 102.748L13.1975 101.865ZM12.4736 101.456C12.3347 101.557 12.1916 101.578 12.1006 101.576C12.0168 101.574 11.9641 101.554 11.9548 101.55C11.9384 101.544 11.9708 101.555 12.0529 101.622C12.2082 101.747 12.4227 101.972 12.6403 102.271L13.8531 101.388C13.5811 101.014 13.2789 100.683 12.9947 100.454C12.857 100.343 12.689 100.227 12.5044 100.155C12.3595 100.098 11.9614 99.9737 11.5911 100.243L12.4736 101.456ZM24.5136 76.7044C25.2013 76.47 25.777 76.0036 26.249 75.5735C26.7696 75.0993 27.1289 74.7101 27.5543 74.3753C27.9585 74.0572 28.2449 73.9432 28.4836 73.9493C28.7033 73.9549 29.0705 74.0693 29.618 74.6698L30.7264 73.6592C30.0327 72.8982 29.3082 72.4698 28.5219 72.4498C27.7546 72.4302 27.1208 72.8077 26.6266 73.1966C26.1537 73.5688 25.6366 74.1023 25.2388 74.4647C24.7925 74.8714 24.408 75.1557 24.0298 75.2846L24.5136 76.7044ZM29.5676 74.6083C29.9697 75.156 30.015 75.4804 29.9923 75.6823C29.9663 75.9136 29.8342 76.1679 29.5262 76.5574C28.9601 77.2732 27.8252 78.3448 27.533 80.0864L29.0123 80.3346C29.2227 79.0809 29.9757 78.4072 30.7028 77.4878C31.0414 77.0596 31.4072 76.5238 31.4829 75.8499C31.562 75.1466 31.3128 74.4508 30.7768 73.7206L29.5676 74.6083ZM9.49678 98.3817C12.0662 100.281 13.5421 102.139 14.8796 103.896C16.2139 105.649 17.4565 107.373 19.5183 108.81L20.3757 107.579C18.5425 106.302 17.4392 104.782 16.0731 102.988C14.7102 101.197 13.1315 99.2035 10.3885 97.1755L9.49678 98.3817ZM96.0144 56.6626C95.8397 63.0034 97.4081 68.3622 98.2654 72.6607C99.1371 77.0311 99.2493 80.1699 96.7236 82.6734L97.7796 83.7387C100.912 80.6339 100.609 76.7412 99.7364 72.3673C98.8497 67.9213 97.3453 62.8229 97.5138 56.7039L96.0144 56.6626ZM53.8247 119.318C55.5296 121.213 57.6515 122.044 60.4671 122.231C63.2367 122.415 66.7515 121.98 71.3119 121.307L71.0929 119.823C66.5025 120.501 63.1486 120.906 60.5665 120.734C58.0304 120.566 56.3177 119.847 54.9398 118.315L53.8247 119.318ZM94.7889 113.406C95.5616 114.265 96.2064 114.889 96.8968 115.255C97.6346 115.645 98.3561 115.706 99.1985 115.607C99.9956 115.512 100.994 115.259 102.277 114.967C103.586 114.67 105.272 114.312 107.534 113.978L107.315 112.494C105.003 112.835 103.277 113.202 101.945 113.505C100.587 113.813 99.7153 114.035 99.022 114.117C98.3739 114.194 97.9843 114.133 97.5982 113.929C97.1647 113.699 96.6729 113.257 95.9042 112.402L94.7889 113.406ZM132.891 111.156C135.481 112.729 137.563 112.98 139.765 112.756C140.834 112.648 141.939 112.426 143.106 112.209C144.284 111.99 145.559 111.768 147.027 111.639L146.896 110.145C145.354 110.28 144.022 110.513 142.831 110.734C141.629 110.958 140.603 111.163 139.613 111.264C137.697 111.459 135.949 111.258 133.669 109.874L132.891 111.156ZM165.126 121.006C167.895 122.575 170.109 122.826 172.452 122.609C173.594 122.503 174.776 122.284 176.031 122.069C177.297 121.852 178.669 121.633 180.251 121.507L180.132 120.011C178.481 120.143 177.055 120.372 175.777 120.591C174.489 120.812 173.382 121.016 172.313 121.115C170.234 121.308 168.333 121.1 165.865 119.701L165.126 121.006ZM48.1674 61.2262C52.374 62.8683 55.5391 67.4776 58.1436 72.7909C59.4338 75.423 60.5617 78.1731 61.6034 80.7316C62.639 83.2753 63.5978 85.6516 64.5353 87.4805L65.8701 86.7963C64.9696 85.0394 64.0388 82.7354 62.9927 80.166C61.9526 77.6115 60.8067 74.8158 59.4905 72.1307C56.8822 66.8096 53.5042 61.6993 48.7129 59.8289L48.1674 61.2262ZM65.4548 64.5993C68.6632 72.1872 68.7377 77.3075 69.5519 85.3693L71.0443 85.2186C70.2389 77.2438 70.153 71.8589 66.8364 64.0151L65.4548 64.5993ZM29.3675 51.9046C27.3129 52.4634 25.4413 52.7093 23.4926 53.0715C21.5643 53.4299 19.6212 53.8945 17.5825 54.8922L18.2418 56.2395C20.1015 55.3295 21.8905 54.8949 23.7667 54.5462C25.6225 54.2013 27.6278 53.9323 29.7612 53.352L29.3675 51.9046ZM17.5825 54.8922C12.8152 57.2251 10.4496 60.3082 8.86107 63.0689C8.46754 63.7529 8.12216 64.416 7.80375 65.0335C7.48259 65.6562 7.1932 66.2238 6.90028 66.7426C6.30962 67.7889 5.76077 68.53 5.07782 68.9812L5.90471 70.2327C6.89789 69.5765 7.59049 68.5712 8.20649 67.4801C8.5169 66.9302 8.82215 66.3313 9.13691 65.721C9.45442 65.1053 9.78625 64.4687 10.1612 63.8171C11.6465 61.2357 13.8153 58.4057 18.2418 56.2395L17.5825 54.8922ZM5.07782 68.9812C4.53783 69.338 4.00007 69.4097 3.25972 69.5775C2.54585 69.7392 1.70416 69.994 1.05259 70.8783L2.26022 71.7681C2.58186 71.3315 2.97314 71.1804 3.59116 71.0404C4.18271 70.9064 5.07578 70.7804 5.90471 70.2327L5.07782 68.9812ZM1.05259 70.8783C0.774566 71.2557 0.570001 71.6624 0.533218 72.091C0.493091 72.5586 0.660327 72.9629 0.954656 73.2697C1.22485 73.5514 1.58216 73.7327 1.92897 73.8586C2.28407 73.9874 2.68829 74.0792 3.10695 74.1485C3.94214 74.2866 4.92861 74.3493 5.87354 74.4C6.83788 74.4518 7.75643 74.4911 8.5223 74.5772L8.6899 73.0866C7.86775 72.9941 6.88661 72.9522 5.95392 72.9022C5.00182 72.8511 4.09392 72.7914 3.35172 72.6686C2.98169 72.6074 2.67645 72.5341 2.44065 72.4486C2.19655 72.36 2.08149 72.2775 2.03714 72.2313C2.01692 72.2102 2.02745 72.2225 2.02772 72.2193C2.03135 72.177 2.06431 72.034 2.26022 71.7681L1.05259 70.8783ZM8.5223 74.5772C12.0758 74.9767 14.9744 73.9962 17.7381 72.6844C20.5487 71.3504 23.0836 69.7604 26.2273 68.6788L25.7393 67.2604C22.501 68.3745 19.7007 70.0926 17.0949 71.3293C14.4423 72.5883 11.8433 73.4411 8.6899 73.0866L8.5223 74.5772ZM26.2273 68.6788C28.0572 68.0493 29.9517 66.7617 31.355 65.6721C32.0647 65.121 32.6646 64.608 33.0874 64.2324C33.2991 64.0444 33.4669 63.8904 33.5825 63.7827C33.6403 63.7289 33.6851 63.6866 33.7158 63.6573C33.7312 63.6427 33.7431 63.6314 33.7513 63.6235C33.7554 63.6195 33.7586 63.6164 33.7609 63.6143C33.762 63.6132 33.7629 63.6123 33.7636 63.6116C33.7639 63.6113 33.7642 63.611 33.7644 63.6108C33.7645 63.6107 33.7646 63.6106 33.7647 63.6106C33.7648 63.6105 33.7649 63.6104 33.243 63.0717C32.7211 62.5331 32.7212 62.533 32.7212 62.533C32.7212 62.533 32.7212 62.533 32.7212 62.533C32.7212 62.533 32.7211 62.5331 32.721 62.5332C32.7208 62.5334 32.7203 62.5339 32.7195 62.5346C32.7181 62.536 32.7157 62.5383 32.7125 62.5414C32.7059 62.5477 32.6958 62.5574 32.6822 62.5703C32.655 62.5962 32.6139 62.635 32.5601 62.6852C32.4522 62.7856 32.2932 62.9316 32.0913 63.1109C31.6871 63.4699 31.113 63.9609 30.4351 64.4873C29.0632 65.5525 27.3278 66.7139 25.7393 67.2604L26.2273 68.6788ZM15.8086 73.7173C18.1339 73.4341 19.6092 73.3035 20.5934 73.3059C21.5809 73.3083 21.9503 73.4473 22.1602 73.5913L23.0085 72.3542C22.4226 71.9524 21.6821 71.8085 20.5971 71.8059C19.5088 71.8033 17.9487 71.9455 15.6273 72.2283L15.8086 73.7173Z" fill="#536F62"/>
</svg>
