<svg width="200" height="130" viewBox="0 0 200 130" fill="none" xmlns="http://www.w3.org/2000/svg">
<g filter="url(#filter0_d_1503_761)">
<path d="M25.7464 67.6868C21.8763 75.2771 26.1671 78.9716 25.6186 80.5357C22.1669 88.5042 12.6591 93.5552 12.8448 94.4189C13.9358 99.5323 20.1149 105.426 22.8089 103.596M30.9495 52.8256C53.3258 20.373 75.825 11.2535 102.182 7.5332C112.205 4.9511 169.824 1.66946 188.262 24.0911C199.457 39.1269 195.325 62.07 186.966 71.1014C178.607 80.1327 177.902 79.9055 177.002 82.4872C175.404 87.0733 178.478 94.2884 177.996 96.9388C177.514 99.5891 171.391 105.801 170.454 111.969C170.298 112.994 171.069 114.355 169.919 114.884C167.055 116.202 167.839 116.587 165.022 119.527C162.464 121.717 155.585 118.87 155.585 118.87C155.585 118.87 153.738 118.136 154.456 116.614C156.078 113.175 155.974 116.974 163.831 103.754C163.831 103.754 166.643 92.856 159.602 89.2961C142.843 80.8228 146.095 78.1604 142.728 75.512M142.728 75.512C126.532 81.3085 109.236 78.0798 93.5695 80.1882C89.568 84.4464 87.3051 90.1647 85.6574 93.4251C84.0097 96.6856 78.5727 99.2431 78.5727 99.2431C78.5727 99.2431 71.0774 106.604 69.1995 111.818C69.1079 113.634 69.4366 115.815 67.2724 116.644C66.5696 116.888 65.901 118.526 65.1856 118.507C64.5395 118.489 64.5247 117.441 63.8228 117.329C63.141 117.991 63.1946 119.132 61.7497 119.638C61.2611 119.521 53.1212 120.711 50.6533 117.359C50.668 116.827 62.1414 105.065 65.892 94.9883C68.2789 89.8649 70.9704 81.432 70.9704 81.432M142.728 75.512C139.985 65.3514 142.314 51.4022 152.049 42.9965M70.9704 81.432C70.9704 81.432 68.0962 82.9354 63.5962 84.3667C60.4404 88.096 57.8308 92.0099 53.2636 94.6403C46.5168 97.889 30.1079 104.255 26.0083 104.53C24.0552 104.662 24.4658 103.906 22.8089 103.596M70.9704 81.432C70.8433 76.1217 71.3955 73.1725 73.8236 67.9837M22.8089 103.596C31.1415 101.705 38.7618 99.1222 38.7618 93.4251M182.083 18.3558C187.712 14.5299 184.943 7.77177 181.367 9.37292C180.393 9.59445 180.478 12.3518 178.902 13.0996C177.184 13.9147 177.101 11.8981 176.246 11.1853C172.565 8.11733 184.589 3.20499 188.178 7.11199C193.953 13.3975 187.826 23.4032 187.826 23.4032M90.0848 84.8879C90.0848 84.8879 95.5163 99.1881 91.7082 106.937C90.6958 108.997 88.2974 110.811 89.0364 112.334C89.8654 114.042 93.2325 114.106 97.9297 113.133C99.2153 112.867 97.9989 112.142 99.2259 111.082C100.296 110.158 100.345 111.834 101.423 111.359C103.284 109.99 101.763 108.2 101.577 105.786C100.881 96.7323 103.505 79.4734 103.505 79.4734M132.674 77.9813C136.711 85.3821 137.982 93.9065 127.113 104.779C125.335 106.558 123.135 107.007 123.071 109.362C123.007 111.717 127.718 111.345 131.071 111.179C132.794 111.094 133.299 109.21 134.079 107.942C134.425 107.379 134.802 108.991 135.364 109.043C137.983 109.285 138.313 106.293 138.914 104.218C140.917 97.2988 146.935 96.4416 149.787 90.6104C150.714 88.7139 149.171 87.6843 149.499 85.51C149.617 84.7303 150.917 84.0724 150.917 84.0724" stroke="#536F62" stroke-width="1.5" stroke-linecap="round" stroke-linejoin="round"/>
<circle cx="29.1115" cy="74.6581" r="1.87474" transform="rotate(1.57838 29.1115 74.6581)" fill="#536F62"/>
<ellipse cx="15.6559" cy="98.143" rx="0.37154" ry="1.38083" transform="rotate(-36.0428 15.6559 98.143)" fill="#536F62"/>
<path d="M26.0603 74.2483C28.0141 73.5825 29.1929 70.0758 31.4679 72.5712C33.1874 74.9133 30.1876 75.367 29.727 78.1121" stroke="#536F62" stroke-width="1.5" stroke-linecap="round" stroke-linejoin="round"/>
<path d="M12.9287 94.2129C17.7972 97.8123 18.5277 101.272 22.0972 103.758" stroke="#536F62" stroke-width="1.5" stroke-linejoin="round"/>
<path d="M93.2456 56.5707C93.257 56.1566 92.9306 55.8117 92.5165 55.8003C92.1024 55.7889 91.7575 56.1153 91.7461 56.5294L93.2456 56.5707ZM91.7461 56.5294C91.5858 62.3497 93.0258 67.2717 93.8103 71.2048C94.6091 75.2099 94.704 78.055 92.4146 80.3242L93.4706 81.3896C96.3666 78.519 96.0808 74.9201 95.2813 70.9114C94.4674 66.8308 93.0913 62.1692 93.2456 56.5707L91.7461 56.5294Z" fill="#536F62"/>
<path d="M53.6553 113.493C56.4805 116.634 60.6838 116.334 69.0701 115.096" stroke="#536F62" stroke-width="1.5" stroke-linejoin="round"/>
<path d="M91.1972 108.074C94.0224 111.215 93.8802 109.616 102.266 108.378" stroke="#536F62" stroke-width="1.5" stroke-linejoin="round"/>
<path d="M125.961 105.885C130.424 108.595 132.981 106.714 138.499 106.23" stroke="#536F62" stroke-width="1.5" stroke-linejoin="round"/>
<path d="M155.484 114.901C160.284 117.621 163.027 115.745 168.953 115.273" stroke="#536F62" stroke-width="1.5" stroke-linejoin="round"/>
<path d="M48.209 60.0733C56.455 63.2925 60.2021 77.8883 63.5711 84.4609" stroke="#536F62" stroke-width="1.5" stroke-linejoin="round"/>
<path d="M64.4355 63.5371C67.4255 70.6083 67.499 75.422 68.2411 82.7704" stroke="#536F62" stroke-width="1.5" stroke-linejoin="round"/>
<path d="M30.9107 52.834C27.0726 53.8779 23.8047 53.7777 20.232 55.5261C11.8064 59.6493 11.9211 66.3642 8.8489 68.3941C7.59435 69.223 6.22634 68.7563 5.33444 69.9669C3.59708 72.325 8.79281 71.9387 11.7035 72.266C17.85 72.9571 21.78 68.9057 27.6288 66.8935C30.7617 65.8157 34.282 62.4048 34.282 62.4048" stroke="#536F62" stroke-width="1.5" stroke-linecap="round" stroke-linejoin="round"/>
<path d="M18.2197 71.4788C22.4782 70.9601 23.7831 70.9786 24.5125 71.4788" stroke="#536F62" stroke-linecap="round" stroke-linejoin="round"/>
</g>
<defs>
<filter id="filter0_d_1503_761" x="0.237305" y="4.91504" width="199.597" height="124.19" filterUnits="userSpaceOnUse" color-interpolation-filters="sRGB">
<feFlood flood-opacity="0" result="BackgroundImageFix"/>
<feColorMatrix in="SourceAlpha" type="matrix" values="0 0 0 0 0 0 0 0 0 0 0 0 0 0 0 0 0 0 127 0" result="hardAlpha"/>
<feOffset dy="4"/>
<feGaussianBlur stdDeviation="2"/>
<feComposite in2="hardAlpha" operator="out"/>
<feColorMatrix type="matrix" values="0 0 0 0 0 0 0 0 0 0 0 0 0 0 0 0 0 0 0.25 0"/>
<feBlend mode="normal" in2="BackgroundImageFix" result="effect1_dropShadow_1503_761"/>
<feBlend mode="normal" in="SourceGraphic" in2="effect1_dropShadow_1503_761" result="shape"/>
</filter>
</defs>
</svg>
