<svg width="152" height="93" viewBox="0 0 152 93" fill="none" xmlns="http://www.w3.org/2000/svg">
<path d="M7.6186 71.0055L8.22984 70.8751L8.22964 70.8742L7.6186 71.0055ZM17.677 60.0736L18.2505 60.322C18.2564 60.3084 18.2619 60.2945 18.2668 60.2804L17.677 60.0736ZM18.3344 50.24C18.4912 49.9325 18.369 49.5561 18.0615 49.3993C17.754 49.2425 17.3776 49.3647 17.2208 49.6722L18.3344 50.24ZM21.3601 37.8992C21.1642 38.1834 21.2357 38.5726 21.5199 38.7686C21.8041 38.9645 22.1933 38.893 22.3892 38.6088L21.3601 37.8992ZM77.9647 2.58985L78.052 3.20871C78.0751 3.20545 78.098 3.2009 78.1206 3.19509L77.9647 2.58985ZM145.745 15.6279L146.247 15.2546C146.241 15.2466 146.235 15.2387 146.228 15.2309L145.745 15.6279ZM136.88 61.6102L136.289 61.4046L136.289 61.4046L136.88 61.6102ZM131.723 84.8251L132.341 84.919L132.341 84.919L131.723 84.8251ZM131.302 87.1199L131.041 86.5521L131.041 86.5521L131.302 87.1199ZM127.446 90.7764L127.853 91.2512C127.868 91.2378 127.883 91.2236 127.898 91.2087L127.446 90.7764ZM120.015 90.2592L120.254 89.6817L120.246 89.6785L120.015 90.2592ZM119.126 88.4828L118.561 88.2161L118.561 88.2161L119.126 88.4828ZM126.509 78.3565L127.046 78.6758C127.076 78.6249 127.099 78.57 127.114 78.5126L126.509 78.3565ZM123.178 66.9717L122.896 67.5295L122.896 67.5295L123.178 66.9717ZM71.183 59.7999L71.0996 59.1805C70.9573 59.1997 70.8259 59.2673 70.7275 59.372L71.183 59.7999ZM59.3741 74.8042L59.1081 74.2386C59.0445 74.2685 58.9864 74.309 58.9362 74.3582L59.3741 74.8042ZM51.9935 84.7058L51.4055 84.494C51.3846 84.552 51.3724 84.6128 51.3693 84.6743L51.9935 84.7058ZM50.4761 88.506L50.6812 89.0964C50.6873 89.0943 50.6934 89.0921 50.6995 89.0897L50.4761 88.506ZM48.8329 89.9727L48.8501 89.3479L48.8329 89.9727ZM47.7598 89.0454L47.8584 88.4283C47.6638 88.3971 47.4659 88.4597 47.3245 88.597L47.7598 89.0454ZM46.1274 90.8637L45.9821 91.4716C46.0987 91.4995 46.2208 91.4932 46.3339 91.4536L46.1274 90.8637ZM37.3899 89.069L36.7651 89.0517C36.7613 89.1909 36.804 89.3274 36.8865 89.4395L37.3899 89.069ZM49.3891 71.4539L48.8226 71.1899C48.8155 71.205 48.8091 71.2203 48.8033 71.2358L49.3891 71.4539ZM53.388 60.7794L53.9834 60.9694C54.0045 60.9032 54.0144 60.8339 54.0128 60.7644L53.388 60.7794ZM47.5814 63.0902L47.3919 62.4946C47.2799 62.5302 47.1802 62.5967 47.1043 62.6864L47.5814 63.0902ZM39.4453 71.1798L39.7164 71.743C39.7303 71.7363 39.7439 71.7291 39.7572 71.7214L39.4453 71.1798ZM17.9838 78.9676L18.0258 79.5911L18.0258 79.5911L17.9838 78.9676ZM15.4645 78.232L15.3262 77.6225C15.2501 77.6398 15.178 77.6711 15.1134 77.715L15.4645 78.232ZM28.6513 70.223C28.6513 69.8778 28.3714 69.598 28.0263 69.598C27.6811 69.598 27.4013 69.8778 27.4013 70.223L28.6513 70.223ZM140.529 10.5949C140.243 10.7889 140.169 11.1776 140.363 11.4631C140.557 11.7486 140.946 11.8227 141.231 11.6287L140.529 10.5949ZM140.316 4.03848L140.455 4.64789C140.495 4.63877 140.534 4.62572 140.572 4.60894L140.316 4.03848ZM138.375 6.97299L138.643 7.53767L138.643 7.53767L138.375 6.97299ZM136.284 5.4656L136.684 4.98548L136.684 4.98548L136.284 5.4656ZM145.68 2.25818L146.14 1.83533L146.14 1.83533L145.68 2.25818ZM144.869 14.7599C144.689 15.0542 144.782 15.439 145.076 15.6193C145.37 15.7995 145.755 15.707 145.935 15.4126L144.869 14.7599ZM69.0233 63.2787C68.9008 62.956 68.5398 62.7938 68.2171 62.9163C67.8945 63.0389 67.7322 63.3998 67.8548 63.7225L69.0233 63.2787ZM69.7173 80.8624L69.1564 80.5868L69.1564 80.5868L69.7173 80.8624ZM67.6135 85.1125L68.1758 84.8396L68.1758 84.8396L67.6135 85.1125ZM74.6163 85.7416L74.7429 86.3536L74.743 86.3536L74.6163 85.7416ZM75.6369 84.1265L75.2284 83.6535L75.2284 83.6535L75.6369 84.1265ZM77.3674 84.3446L77.6194 84.9166C77.6612 84.8981 77.7009 84.8752 77.7377 84.8481L77.3674 84.3446ZM77.4883 79.9564L78.1114 79.9085L78.1114 79.9085L77.4883 79.9564ZM79.6244 59.3311C79.6763 58.9898 79.4417 58.6711 79.1004 58.6192C78.7592 58.5673 78.4405 58.8019 78.3886 59.1431L79.6244 59.3311ZM102.524 57.7629C102.358 57.4599 101.979 57.3483 101.676 57.5135C101.373 57.6788 101.261 58.0585 101.426 58.3615L102.524 57.7629ZM97.5961 79.1633L98.0381 79.6052L98.0381 79.6052L97.5961 79.1633ZM100.712 84.2027L100.743 84.8269L100.743 84.8269L100.712 84.2027ZM103.081 81.6537L102.548 81.3264L102.548 81.3264L103.081 81.6537ZM104.093 82.5206L104.035 83.143L104.035 83.143L104.093 82.5206ZM106.888 78.7218L106.288 78.5479L106.288 78.5479L106.888 78.7218ZM115.45 68.0066L116.011 68.2812L116.011 68.2812L115.45 68.0066ZM115.223 63.9905L115.841 64.0837L115.841 64.0837L115.223 63.9905ZM116.622 63.4161C116.93 63.2603 117.053 62.8843 116.897 62.5763C116.741 62.2683 116.365 62.1449 116.057 62.3007L116.622 63.4161ZM56.2007 50.4548C56.347 50.1422 56.2122 49.7701 55.8995 49.6238C55.5869 49.4775 55.2148 49.6124 55.0685 49.925L56.2007 50.4548ZM117.639 30.9874C117.901 30.7619 117.929 30.3672 117.704 30.1059C117.478 29.8447 117.084 29.8157 116.822 30.0413L117.639 30.9874ZM17.8225 54.5312C17.4958 54.6425 17.3212 54.9976 17.4325 55.3244C17.5439 55.6511 17.899 55.8257 18.2257 55.7144L17.8225 54.5312ZM22.2821 53.8022L22.786 53.4323C22.7729 53.4145 22.7589 53.3974 22.744 53.3811L22.2821 53.8022ZM20.295 58.0618C20.2379 58.4022 20.4675 58.7245 20.808 58.7816C21.1484 58.8387 21.4706 58.609 21.5278 58.2686L20.295 58.0618ZM70.9618 41.2043C70.9713 40.8593 70.6993 40.5719 70.3543 40.5624C70.0092 40.5528 69.7218 40.8249 69.7123 41.1699L70.9618 41.2043ZM22.0075 38.8641C22.3406 38.7735 22.5372 38.43 22.4466 38.0969C22.356 37.7639 22.0125 37.5673 21.6795 37.6579L22.0075 38.8641ZM13.4349 40.3808L13.1602 39.8194L13.1602 39.8194L13.4349 40.3808ZM4.47157 50.5134L4.8161 51.0348L4.8161 51.0348L4.47157 50.5134ZM1.70421 51.7518L2.20739 52.1225L2.20739 52.1225L1.70421 51.7518ZM6.71934 53.5622L6.78917 52.9411L6.78917 52.9411L6.71934 53.5622ZM19.2593 49.3318L19.4626 49.9228L19.4626 49.9228L19.2593 49.3318ZM24.933 46.2462C25.1809 46.006 25.1872 45.6103 24.947 45.3624C24.7068 45.1145 24.3111 45.1082 24.0632 45.3484L24.933 46.2462ZM11.7759 52.3218C11.4333 52.3635 11.1893 52.6751 11.2311 53.0178C11.2728 53.3604 11.5844 53.6043 11.927 53.5626L11.7759 52.3218ZM16.453 53.4577C16.7377 53.6529 17.1268 53.5803 17.322 53.2957C17.5172 53.011 17.4446 52.622 17.16 52.4267L16.453 53.4577ZM8.22964 70.8742C8.2802 71.1093 8.15298 71.2505 8.19015 71.1973C8.20157 71.1809 8.24004 71.1343 8.32765 71.0512C8.49908 70.8884 8.76763 70.6699 9.13158 70.385C9.84442 69.827 10.8692 69.0564 11.9785 68.1138C14.1925 66.2324 16.8334 63.5936 18.2505 60.322L17.1035 59.8252C15.8027 62.8282 13.3413 65.3153 11.169 67.1612C10.0852 68.0822 9.09582 68.8256 8.3611 69.4007C8.00127 69.6824 7.68767 69.9351 7.46704 70.1446C7.35863 70.2475 7.24858 70.3623 7.16507 70.4819C7.10731 70.5647 6.93873 70.8167 7.00756 71.1369L8.22964 70.8742ZM18.2668 60.2804C18.3755 59.9705 18.3473 59.6586 18.2913 59.3986C18.2349 59.1371 18.1339 58.8589 18.0294 58.5884C17.8119 58.0256 17.5455 57.4083 17.3526 56.6418C16.9779 55.1529 16.8827 53.0872 18.3344 50.24L17.2208 49.6722C15.6251 52.8017 15.6955 55.179 16.1404 56.9468C16.3572 57.8086 16.664 58.523 16.8634 59.0389C16.9672 59.3077 17.0356 59.5055 17.0694 59.6622C17.1035 59.8204 17.0865 59.8689 17.0872 59.8668L18.2668 60.2804ZM22.3892 38.6088C31.1576 25.8919 39.9272 17.7788 49.058 12.4783C58.1899 7.1772 67.7214 4.66689 78.052 3.20871L77.8773 1.97098C67.4538 3.44226 57.7501 5.98711 48.4304 11.3973C39.1096 16.8081 30.2113 25.0623 21.3601 37.8992L22.3892 38.6088ZM78.1206 3.19509C80.0281 2.70365 84.29 2.16279 89.8714 1.91088C95.4376 1.65965 102.274 1.6977 109.313 2.34804C116.355 2.99864 123.581 4.26031 129.936 6.44745C136.299 8.63692 141.736 11.7356 145.263 16.0249L146.228 15.2309C142.496 10.6926 136.817 7.49351 130.343 5.26548C123.862 3.03511 116.53 1.75949 109.428 1.10334C102.323 0.446934 95.429 0.408763 89.815 0.662148C84.2161 0.914853 79.8472 1.45944 77.8088 1.98461L78.1206 3.19509ZM145.244 16.0012C149.539 21.7689 150.912 29.083 150.386 35.861C149.86 42.6524 147.435 48.7974 144.267 52.2202L145.184 53.0693C148.598 49.3806 151.091 42.937 151.633 35.9577C152.175 28.965 150.768 21.3264 146.247 15.2546L145.244 16.0012ZM144.267 52.2202C140.977 55.7743 139.217 57.4825 138.148 58.6001C137.619 59.1532 137.246 59.5762 136.959 60.0041C136.666 60.4428 136.477 60.8657 136.289 61.4046L137.47 61.8159C137.636 61.3383 137.783 61.0212 137.998 60.6995C138.221 60.367 138.53 60.0092 139.052 59.4639C140.083 58.3849 141.892 56.6268 145.184 53.0693L144.267 52.2202ZM136.289 61.4046C135.599 63.3869 135.929 65.8664 136.327 67.9869C136.535 69.0964 136.752 70.0555 136.908 70.9464C137.063 71.837 137.12 72.4798 137.047 72.8779L138.277 73.1015C138.395 72.4561 138.291 71.6062 138.139 70.7317C137.987 69.8576 137.748 68.7793 137.556 67.7562C137.153 65.6116 136.902 63.4448 137.47 61.8159L136.289 61.4046ZM137.047 72.8779C136.977 73.2644 136.673 73.8643 136.148 74.7054C135.628 75.5381 134.996 76.4517 134.302 77.5304C132.956 79.6222 131.496 82.1582 131.105 84.7312L132.341 84.919C132.688 82.6346 134.009 80.2964 135.353 78.2067C136.004 77.1945 136.694 76.1905 137.208 75.3674C137.717 74.5526 138.158 73.7585 138.277 73.1015L137.047 72.8779ZM131.105 84.7312C131.061 85.0197 131.086 85.3074 131.112 85.5372C131.142 85.7983 131.172 85.9667 131.182 86.1533C131.192 86.3281 131.174 86.4141 131.157 86.4564C131.149 86.4737 131.136 86.5084 131.041 86.5521L131.564 87.6876C131.921 87.5231 132.171 87.2677 132.309 86.9417C132.435 86.6406 132.444 86.3303 132.43 86.0843C132.417 85.85 132.375 85.5733 132.354 85.3936C132.329 85.1826 132.324 85.0338 132.341 84.919L131.105 84.7312ZM131.041 86.5521C129.858 87.0967 129.36 87.4826 128.877 88.0734C128.424 88.6266 128.085 89.2061 126.995 90.3441L127.898 91.2087C129.026 90.0313 129.487 89.3016 129.844 88.8648C130.171 88.4657 130.492 88.1811 131.564 87.6876L131.041 86.5521ZM127.04 90.3016C126.69 90.6013 126.138 90.7687 125.41 90.7984C124.692 90.8278 123.883 90.72 123.107 90.5532C122.334 90.3874 121.619 90.1688 121.094 89.9907C120.833 89.9019 120.621 89.8237 120.475 89.7681C120.402 89.7403 120.345 89.7182 120.308 89.7033C120.289 89.6959 120.275 89.6902 120.266 89.6865C120.262 89.6847 120.259 89.6834 120.257 89.6826C120.256 89.6822 120.255 89.6819 120.255 89.6817C120.254 89.6817 120.254 89.6816 120.254 89.6816C120.254 89.6816 120.254 89.6816 120.254 89.6816C120.254 89.6817 120.254 89.6817 120.015 90.2592C119.777 90.8367 119.777 90.8368 119.777 90.8369C119.777 90.8369 119.777 90.837 119.777 90.837C119.778 90.8372 119.778 90.8373 119.778 90.8375C119.779 90.8379 119.781 90.8385 119.782 90.8391C119.786 90.8404 119.79 90.8423 119.796 90.8447C119.807 90.8494 119.824 90.8561 119.846 90.8646C119.888 90.8817 119.951 90.9061 120.03 90.9362C120.188 90.9965 120.415 91.0799 120.692 91.1743C121.246 91.3625 122.011 91.5964 122.844 91.7754C123.674 91.9534 124.597 92.0827 125.461 92.0474C126.315 92.0125 127.196 91.8136 127.853 91.2512L127.04 90.3016ZM120.015 90.2592C120.246 89.6785 120.247 89.6786 120.247 89.6787C120.247 89.6787 120.247 89.6788 120.247 89.6788C120.248 89.6789 120.248 89.679 120.248 89.6791C120.249 89.6793 120.249 89.6795 120.249 89.6796C120.25 89.6799 120.25 89.68 120.25 89.68C120.25 89.68 120.249 89.6794 120.247 89.6784C120.242 89.6764 120.233 89.6723 120.22 89.6663C120.194 89.6541 120.154 89.6345 120.107 89.6076C120.01 89.5519 119.896 89.4742 119.802 89.3793C119.707 89.2842 119.653 89.1936 119.632 89.111C119.614 89.0409 119.607 88.9288 119.691 88.7495L118.561 88.2161C118.363 88.6357 118.325 89.0452 118.421 89.4205C118.514 89.7832 118.717 90.0619 118.916 90.2612C119.114 90.4606 119.329 90.6024 119.487 90.6926C119.567 90.7387 119.637 90.7736 119.688 90.7978C119.714 90.8099 119.736 90.8194 119.752 90.8264C119.76 90.83 119.767 90.8328 119.772 90.8351C119.775 90.8362 119.778 90.8372 119.78 90.838C119.781 90.8384 119.781 90.8388 119.782 90.8391C119.783 90.8393 119.783 90.8394 119.783 90.8396C119.784 90.8396 119.784 90.8397 119.784 90.8398C119.784 90.8399 119.785 90.84 120.015 90.2592ZM119.691 88.7495C119.99 88.1152 120.186 87.8636 120.386 87.6683C120.499 87.5576 120.618 87.4596 120.794 87.3114C120.966 87.1674 121.169 86.9931 121.413 86.7544C122.386 85.8035 123.946 83.8913 127.046 78.6758L125.971 78.0371C122.884 83.2307 121.391 85.0275 120.539 85.8605C120.327 86.0677 120.151 86.2191 119.989 86.355C119.833 86.4867 119.667 86.6229 119.511 86.7753C119.173 87.1062 118.9 87.4963 118.561 88.2161L119.691 88.7495ZM126.509 78.3565C127.114 78.5126 127.114 78.5124 127.114 78.5121C127.114 78.512 127.114 78.5117 127.114 78.5114C127.114 78.5109 127.114 78.5102 127.115 78.5094C127.115 78.5078 127.115 78.5057 127.116 78.5031C127.117 78.4978 127.119 78.4905 127.122 78.4812C127.126 78.4626 127.133 78.436 127.141 78.4018C127.157 78.3334 127.179 78.2346 127.205 78.109C127.257 77.8579 127.324 77.4988 127.387 77.06C127.511 76.1848 127.619 74.9813 127.547 73.6804C127.403 71.105 126.533 67.9675 123.46 66.4139L122.896 67.5295C125.368 68.7791 126.164 71.334 126.299 73.7501C126.365 74.945 126.266 76.0621 126.149 76.8836C126.091 77.2932 126.028 77.6264 125.981 77.8555C125.957 77.97 125.937 78.0584 125.923 78.117C125.917 78.1464 125.911 78.1683 125.908 78.1823C125.906 78.1893 125.905 78.1943 125.904 78.1974C125.904 78.1989 125.903 78.1999 125.903 78.2004C125.903 78.2006 125.903 78.2007 125.903 78.2007C125.903 78.2007 125.903 78.2006 125.903 78.2006C125.903 78.2005 125.903 78.2003 126.509 78.3565ZM123.46 66.4139C120.357 64.8447 118.143 63.5369 116.538 62.4312L115.829 63.4607C117.494 64.6077 119.76 65.9435 122.896 67.5295L123.46 66.4139ZM116.538 62.4312C113.955 60.6527 112.953 59.4028 112.345 58.4334C111.759 57.4974 111.404 56.5124 110.278 55.6266L109.505 56.609C110.403 57.3155 110.553 57.9261 111.286 59.0968C111.998 60.2341 113.13 61.6022 115.829 63.4607L116.538 62.4312ZM109.681 55.5294C107.124 56.4447 104.526 57.0712 101.904 57.5018L102.107 58.7352C104.79 58.2946 107.462 57.6512 110.102 56.7063L109.681 55.5294ZM101.904 57.5018C96.7757 58.3439 91.5706 58.4344 86.3857 58.4768C81.2171 58.5191 76.0581 58.5132 71.0996 59.1805L71.2663 60.4194C76.1298 59.7648 81.2 59.7692 86.3959 59.7268C91.5757 59.6844 96.8708 59.5951 102.107 58.7352L101.904 57.5018ZM70.7275 59.372C67.4956 62.8112 65.656 67.4457 64.395 69.9411L65.5106 70.5049C66.8444 67.8655 68.5686 63.4947 71.6384 60.2279L70.7275 59.372ZM64.395 69.9411C63.8239 71.0711 62.5487 72.1413 61.3295 72.9568C60.733 73.3558 60.1745 73.6779 59.7651 73.9001C59.5608 74.0111 59.3944 74.0967 59.2801 74.1541C59.2229 74.1828 59.1788 74.2045 59.1496 74.2187C59.1349 74.2258 59.124 74.231 59.117 74.2344C59.1135 74.236 59.111 74.2372 59.1095 74.2379C59.1088 74.2383 59.1083 74.2385 59.108 74.2386C59.1079 74.2387 59.1079 74.2387 59.1079 74.2387C59.1079 74.2387 59.1079 74.2387 59.1079 74.2387C59.108 74.2387 59.1081 74.2386 59.3741 74.8042C59.6402 75.3697 59.6403 75.3697 59.6404 75.3696C59.6405 75.3696 59.6406 75.3695 59.6408 75.3694C59.641 75.3693 59.6414 75.3692 59.6418 75.369C59.6426 75.3686 59.6436 75.3681 59.6449 75.3675C59.6476 75.3662 59.6512 75.3645 59.6559 75.3623C59.6652 75.3578 59.6784 75.3515 59.6955 75.3432C59.7296 75.3266 59.7787 75.3025 59.8412 75.2711C59.966 75.2084 60.1443 75.1166 60.3616 74.9987C60.7955 74.7631 61.3884 74.4213 62.0244 73.9958C63.2701 73.1626 64.7843 71.9422 65.5106 70.5049L64.395 69.9411ZM59.3741 74.8042C58.9362 74.3582 58.9361 74.3583 58.936 74.3584C58.936 74.3585 58.9359 74.3586 58.9357 74.3587C58.9355 74.359 58.9352 74.3593 58.9347 74.3597C58.9339 74.3605 58.9327 74.3617 58.9311 74.3633C58.928 74.3663 58.9235 74.3708 58.9176 74.3766C58.9058 74.3882 58.8886 74.4053 58.8662 74.4276C58.8215 74.4723 58.7561 74.5377 58.6727 74.6223C58.5059 74.7914 58.2668 75.0367 57.9755 75.3437C57.3932 75.9574 56.6009 76.8192 55.7612 77.8116C54.1005 79.7742 52.1867 82.3249 51.4055 84.494L52.5815 84.9176C53.279 82.9809 55.0555 80.5808 56.7155 78.619C57.5361 77.6492 58.3117 76.8054 58.8823 76.2041C59.1674 75.9036 59.4008 75.6641 59.5626 75.5002C59.6434 75.4182 59.7063 75.3552 59.7487 75.3129C59.77 75.2918 59.786 75.2758 59.7967 75.2653C59.802 75.26 59.806 75.2561 59.8086 75.2535C59.8099 75.2523 59.8108 75.2513 59.8114 75.2508C59.8117 75.2505 59.8119 75.2503 59.812 75.2502C59.812 75.2501 59.8121 75.2501 59.8121 75.2501C59.8121 75.2501 59.812 75.2501 59.3741 74.8042ZM51.3693 84.6743C51.3516 85.0254 51.3519 85.4661 51.341 85.7903C51.3289 86.1505 51.3027 86.4725 51.2374 86.7587C51.173 87.0411 51.0747 87.2688 50.9308 87.4516C50.7903 87.6302 50.583 87.7959 50.2526 87.9223L50.6995 89.0897C51.2212 88.89 51.6206 88.5963 51.9131 88.2247C52.2022 87.8574 52.3632 87.444 52.4561 87.0367C52.5482 86.6332 52.5774 86.2169 52.5903 85.8323C52.6044 85.4119 52.5994 85.1015 52.6177 84.7373L51.3693 84.6743ZM50.271 87.9156C49.9785 88.0172 49.754 88.2336 49.6053 88.3952C49.4479 88.5661 49.2906 88.7737 49.1671 88.9307C49.0294 89.1056 48.9248 89.2296 48.8346 89.3096C48.7337 89.3991 48.7485 89.3451 48.8501 89.3479L48.8157 90.5974C49.1989 90.608 49.4907 90.3986 49.6643 90.2446C49.8486 90.0811 50.0158 89.8735 50.1493 89.7038C50.297 89.5162 50.4103 89.3663 50.5249 89.2418C50.6481 89.1079 50.697 89.0909 50.6812 89.0964L50.271 87.9156ZM48.8501 89.3479C48.8746 89.3486 48.9051 89.3552 48.9341 89.3691C48.9604 89.3817 48.9717 89.3939 48.9686 89.3908C48.9496 89.3718 48.9215 89.3328 48.8442 89.2079C48.741 89.0412 48.462 88.5248 47.8584 88.4283L47.6611 89.6626C47.6102 89.6545 47.6134 89.5946 47.7814 89.8659C47.8397 89.96 47.9445 90.1354 48.088 90.2778C48.253 90.4417 48.4928 90.5885 48.8157 90.5974L48.8501 89.3479ZM47.3245 88.597C47.1237 88.7918 46.9902 89.0096 46.8895 89.1941C46.7666 89.4195 46.7309 89.5116 46.6295 89.6849C46.4841 89.9334 46.3141 90.1361 45.9208 90.2738L46.3339 91.4536C47.0783 91.193 47.4561 90.7472 47.7083 90.3163C47.8056 90.15 47.9312 89.8948 47.9869 89.7926C48.0649 89.6496 48.1274 89.5596 48.1951 89.4939L47.3245 88.597ZM46.2726 90.2558C46.1577 90.2284 46.0277 90.2316 45.9765 90.2325C45.8956 90.2339 45.7961 90.2385 45.6874 90.2444C45.4603 90.2567 45.1857 90.2746 44.8424 90.2915C44.1668 90.3247 43.2936 90.3496 42.3784 90.2978C41.4595 90.2457 40.5228 90.1174 39.7132 89.8554C38.8989 89.5919 38.2715 89.2123 37.8932 88.6984L36.8865 89.4395C37.4799 90.2455 38.3823 90.7386 39.3284 91.0447C40.2792 91.3524 41.3333 91.4906 42.3077 91.5458C43.286 91.6012 44.2087 91.5741 44.9038 91.54C45.2458 91.5232 45.5503 91.5036 45.7549 91.4926C45.8621 91.4868 45.9417 91.4833 45.9978 91.4823C46.0838 91.4809 46.0489 91.4876 45.9821 91.4716L46.2726 90.2558ZM38.0146 89.0862C38.0116 89.1959 37.9784 89.2724 37.9735 89.2842C37.9681 89.2972 37.9634 89.3065 37.961 89.3112C37.9584 89.3162 37.9568 89.3189 37.9568 89.319C37.9567 89.3192 37.9575 89.3178 37.9595 89.3146C37.9615 89.3115 37.9643 89.3073 37.968 89.3017C37.9756 89.2904 37.9859 89.2757 37.9994 89.2571C38.0556 89.1799 38.145 89.0668 38.2704 88.9143C38.5199 88.6108 38.8801 88.1897 39.3302 87.661C40.2261 86.6085 41.4556 85.1556 42.7785 83.4652C45.4137 80.098 48.4625 75.7352 49.9748 71.6719L48.8033 71.2358C47.3624 75.1073 44.4174 79.3428 41.7941 82.6948C40.4878 84.364 39.272 85.8009 38.3784 86.8507C37.9337 87.3731 37.5632 87.8062 37.3049 88.1204C37.1764 88.2766 37.0676 88.4132 36.9888 88.5215C36.9501 88.5746 36.9101 88.6325 36.877 88.6892C36.8607 88.7173 36.8394 88.7562 36.8204 88.8016C36.8064 88.835 36.7685 88.929 36.7651 89.0517L38.0146 89.0862ZM49.9556 71.7178C50.9087 69.672 51.9166 66.9798 52.6826 64.812C53.0666 63.7254 53.3915 62.7656 53.6205 62.0772C53.735 61.733 53.8256 61.4565 53.8876 61.2659C53.9186 61.1706 53.9424 61.0967 53.9586 61.0465C53.9667 61.0215 53.9728 61.0023 53.977 60.9894C53.9791 60.9829 53.9806 60.978 53.9817 60.9746C53.9822 60.973 53.9826 60.9717 53.9829 60.9708C53.9831 60.9704 53.9832 60.97 53.9832 60.9698C53.9833 60.9697 53.9833 60.9696 53.9833 60.9695C53.9833 60.9695 53.9834 60.9694 53.388 60.7794C52.7925 60.5893 52.7925 60.5893 52.7925 60.5894C52.7925 60.5894 52.7925 60.5895 52.7925 60.5895C52.7924 60.5897 52.7923 60.59 52.7922 60.5904C52.792 60.5911 52.7916 60.5922 52.7911 60.5938C52.7901 60.5969 52.7886 60.6015 52.7867 60.6077C52.7827 60.6202 52.7767 60.6388 52.7688 60.6633C52.753 60.7124 52.7295 60.7851 52.6989 60.8793C52.6376 61.0675 52.5479 61.3413 52.4344 61.6827C52.2073 62.3654 51.8849 63.3178 51.504 64.3955C50.7405 66.5564 49.749 69.2014 48.8226 71.1899L49.9556 71.7178ZM53.388 60.7794C53.0983 60.2256 53.0983 60.2255 53.0984 60.2255C53.0984 60.2255 53.0984 60.2255 53.0984 60.2255C53.0985 60.2255 53.0985 60.2255 53.0984 60.2255C53.0983 60.2255 53.0981 60.2257 53.0977 60.2259C53.097 60.2262 53.0957 60.2269 53.0939 60.2278C53.0902 60.2297 53.0844 60.2327 53.0764 60.2368C53.0605 60.245 53.036 60.2575 53.0032 60.274C52.9375 60.307 52.8386 60.356 52.7082 60.4186C52.4475 60.544 52.0613 60.7237 51.5651 60.9386C50.5722 61.3685 49.1404 61.9384 47.3919 62.4946L47.7708 63.6858C49.5657 63.1149 51.0372 62.5294 52.0618 62.0857C52.5743 61.8638 52.9754 61.6771 53.2497 61.5453C53.3869 61.4793 53.4924 61.4271 53.5644 61.3909C53.6004 61.3728 53.628 61.3588 53.6469 61.3491C53.6564 61.3442 53.6637 61.3404 53.6688 61.3378C53.6714 61.3364 53.6734 61.3354 53.6749 61.3346C53.6756 61.3342 53.6762 61.3339 53.6767 61.3337C53.6769 61.3336 53.6771 61.3335 53.6773 61.3334C53.6773 61.3333 53.6774 61.3333 53.6775 61.3333C53.6776 61.3332 53.6776 61.3332 53.388 60.7794ZM47.1043 62.6864C44.5633 65.6892 42.6064 68.638 39.1333 70.6382L39.7572 71.7214C43.4767 69.5793 45.6296 66.3642 48.0585 63.4939L47.1043 62.6864ZM39.1741 70.6167C36.5415 71.8844 32.0027 73.7695 27.7148 75.3659C25.5723 76.1635 23.5005 76.886 21.7674 77.4217C20.0121 77.9643 18.6658 78.2953 17.9419 78.344L18.0258 79.5911C18.916 79.5313 20.3952 79.1543 22.1365 78.616C23.9 78.0709 25.9956 77.3397 28.1509 76.5373C32.4586 74.9336 37.0364 73.0335 39.7164 71.743L39.1741 70.6167ZM17.9419 78.344C17.593 78.3674 17.388 78.3483 17.2581 78.32C17.1397 78.2941 17.0602 78.2559 16.9606 78.1956C16.7121 78.045 16.3653 77.7647 15.5795 77.6177L15.3496 78.8464C15.8685 78.9435 16.0123 79.0826 16.3129 79.2647C16.4877 79.3706 16.6973 79.477 16.9916 79.5412C17.2744 79.6029 17.6058 79.6194 18.0258 79.5911L17.9419 78.344ZM15.1134 77.715C14.8261 77.91 14.3674 77.9544 13.6889 77.6934C13.0206 77.4363 12.2537 76.9205 11.4947 76.2119C9.97044 74.7889 8.62548 72.7293 8.22984 70.8751L7.00736 71.1359C7.47082 73.3081 8.98816 75.5819 10.6417 77.1256C11.4717 77.9005 12.3726 78.5263 13.2401 78.8601C14.0973 79.1899 15.0423 79.2742 15.8156 78.7491L15.1134 77.715ZM15.6029 78.8415C18.8872 78.096 22.1014 77.2004 24.5033 75.9009C26.9032 74.6025 28.6513 72.8071 28.6513 70.223L27.4013 70.223C27.4013 72.1249 26.1491 73.5893 23.9085 74.8015C21.6699 76.0127 18.6032 76.8786 15.3262 77.6225L15.6029 78.8415ZM141.231 11.6287C143.646 9.98751 144.328 7.65191 143.927 5.83754C143.729 4.94363 143.259 4.15127 142.572 3.6747C141.863 3.18267 140.967 3.06234 140.061 3.46802L140.572 4.60894C141.074 4.38423 141.506 4.45629 141.86 4.7016C142.235 4.96236 142.561 5.45226 142.706 6.1077C142.991 7.39203 142.547 9.22348 140.529 10.5949L141.231 11.6287ZM140.177 3.42907C139.695 3.53884 139.443 3.93883 139.307 4.20404C139.164 4.48505 139.043 4.84728 138.937 5.13493C138.691 5.80679 138.466 6.23832 138.107 6.40831L138.643 7.53767C139.526 7.11875 139.889 6.17025 140.111 5.56569C140.239 5.21513 140.323 4.96505 140.421 4.7715C140.528 4.56216 140.554 4.62534 140.455 4.64789L140.177 3.42907ZM138.107 6.40831C137.859 6.5263 137.772 6.49469 137.766 6.49288C137.748 6.48697 137.69 6.46023 137.588 6.31323C137.476 6.15316 137.396 5.98311 137.25 5.72285C137.126 5.50028 136.948 5.20557 136.684 4.98548L135.884 5.94572C135.957 6.00625 136.04 6.1205 136.159 6.33346C136.258 6.50874 136.404 6.80079 136.562 7.02763C136.729 7.26754 136.983 7.55253 137.379 7.68139C137.787 7.81436 138.215 7.74056 138.643 7.53767L138.107 6.40831ZM136.684 4.98548C136.421 4.76583 136.369 4.59452 136.364 4.48344C136.359 4.35475 136.413 4.16119 136.62 3.9034C137.042 3.37636 137.92 2.81287 139.055 2.38748C140.172 1.9683 141.45 1.71672 142.595 1.74652C143.755 1.77668 144.676 2.08965 145.22 2.68103L146.14 1.83533C145.27 0.888475 143.948 0.531282 142.628 0.496947C141.294 0.462255 139.856 0.751848 138.616 1.21711C137.392 1.67616 136.27 2.34037 135.644 3.12189C135.327 3.51839 135.094 3.99933 135.115 4.53256C135.137 5.0834 135.423 5.56142 135.884 5.94572L136.684 4.98548ZM145.22 2.68103C147.283 4.92692 147.258 7.87026 146.64 10.3787C146.333 11.6223 145.889 12.7223 145.519 13.5133C145.335 13.9079 145.17 14.2232 145.052 14.4383C144.994 14.5458 144.947 14.6281 144.915 14.6826C144.899 14.7098 144.887 14.7301 144.88 14.7431C144.876 14.7496 144.873 14.7543 144.871 14.7571C144.87 14.7585 144.87 14.7594 144.869 14.7599C144.869 14.7601 144.869 14.7602 144.869 14.7602C144.869 14.7602 144.869 14.7601 144.869 14.7601C144.869 14.76 144.869 14.7599 145.402 15.0862C145.935 15.4126 145.936 15.4124 145.936 15.4122C145.936 15.4121 145.936 15.4118 145.936 15.4116C145.936 15.4111 145.937 15.4105 145.937 15.4097C145.938 15.4083 145.939 15.4064 145.941 15.404C145.944 15.3991 145.948 15.3924 145.953 15.3839C145.963 15.3667 145.978 15.3422 145.996 15.3105C146.033 15.2472 146.085 15.1554 146.149 15.0378C146.278 14.8027 146.455 14.4638 146.652 14.0424C147.044 13.2015 147.522 12.0225 147.853 10.6777C148.511 8.00946 148.624 4.53876 146.14 1.83533L145.22 2.68103ZM68.4391 63.5006C67.8548 63.7225 67.8548 63.7224 67.8547 63.7224C67.8548 63.7224 67.8548 63.7225 67.8548 63.7225C67.8549 63.7227 67.855 63.7231 67.8552 63.7236C67.8556 63.7247 67.8562 63.7264 67.8571 63.7288C67.8589 63.7336 67.8617 63.741 67.8655 63.7511C67.873 63.7713 67.8843 63.8019 67.8991 63.8425C67.9287 63.9237 67.9721 64.0446 68.0266 64.2014C68.1355 64.515 68.2885 64.9716 68.4631 65.5391C68.8126 66.6752 69.2472 68.2511 69.5891 70.0125C69.9314 71.776 70.1778 73.711 70.1577 75.5688C70.1375 77.4319 69.8495 79.1765 69.1564 80.5868L70.2782 81.1381C71.0844 79.4977 71.3863 77.5466 71.4076 75.5823C71.4289 73.6127 71.1683 71.5887 70.8162 69.7744C70.4637 67.958 70.0165 66.3375 69.6578 65.1716C69.4783 64.5881 69.3206 64.1173 69.2074 63.7913C69.1507 63.6282 69.1052 63.5013 69.0736 63.4146C69.0578 63.3712 69.0455 63.3378 69.037 63.315C69.0327 63.3036 69.0294 63.2948 69.0271 63.2888C69.026 63.2857 69.0251 63.2834 69.0245 63.2817C69.0241 63.2808 69.0239 63.2802 69.0237 63.2797C69.0236 63.2794 69.0235 63.2792 69.0235 63.279C69.0234 63.2788 69.0233 63.2787 68.4391 63.5006ZM69.1564 80.5868C68.9819 80.9418 68.7407 81.2997 68.467 81.6719C68.2106 82.0204 67.8872 82.4307 67.637 82.7866C67.3791 83.1534 67.1284 83.5568 66.9908 83.9756C66.8479 84.411 66.8161 84.9007 67.0513 85.3853L68.1758 84.8396C68.12 84.7247 68.1061 84.586 68.1785 84.3656C68.2563 84.1286 68.4184 83.8486 68.6596 83.5055C68.9084 83.1516 69.1702 82.8255 69.474 82.4125C69.7604 82.0231 70.0541 81.5941 70.2782 81.1381L69.1564 80.5868ZM67.0513 85.3853C67.5348 86.3817 68.6807 86.7542 69.9289 86.842C71.2202 86.9328 72.8731 86.7407 74.7429 86.3536L74.4896 85.1296C72.6608 85.5082 71.1388 85.674 70.0166 85.5951C68.8512 85.5131 68.3451 85.1883 68.1758 84.8396L67.0513 85.3853ZM74.743 86.3536C75.0463 86.2908 75.3716 86.171 75.5779 85.8781C75.7716 85.6031 75.7657 85.2876 75.7686 85.1864C75.7728 85.0405 75.7768 84.9793 75.8011 84.9107C75.8216 84.8533 75.8733 84.7482 76.0455 84.5995L75.2284 83.6535C74.9175 83.922 74.7266 84.2013 74.6233 84.4922C74.5239 84.7719 74.5228 85.023 74.5192 85.1504C74.5142 85.3225 74.4976 85.2411 74.556 85.1582C74.627 85.0575 74.6923 85.0876 74.4895 85.1296L74.743 86.3536ZM76.0455 84.5995C76.1932 84.4719 76.1841 84.5399 76.072 84.5271C75.9941 84.5181 75.9726 84.4728 76.0896 84.5746C76.1587 84.6347 76.3593 84.8301 76.6061 84.9384C76.9132 85.0732 77.2576 85.076 77.6194 84.9166L77.1153 83.7727C77.0525 83.8004 77.0738 83.7786 77.1084 83.7938C77.1087 83.7939 77.1047 83.7922 77.0958 83.7865C77.0866 83.7806 77.074 83.7717 77.0566 83.7579C77.0132 83.7237 76.9825 83.6945 76.9099 83.6313C76.8057 83.5408 76.5635 83.3253 76.2148 83.2852C75.832 83.2412 75.502 83.4172 75.2284 83.6535L76.0455 84.5995ZM77.7377 84.8481C78.1962 84.5109 78.4892 84.112 78.625 83.6465C78.7559 83.1977 78.7218 82.7493 78.6466 82.3448C78.5736 81.9518 78.443 81.5169 78.3414 81.1325C78.2344 80.7276 78.1436 80.3265 78.1114 79.9085L76.8651 80.0044C76.9061 80.5365 77.0199 81.0243 77.1329 81.4519C77.2513 81.9 77.356 82.2413 77.4177 82.5731C77.4772 82.8934 77.477 83.1184 77.425 83.2965C77.3779 83.4579 77.2712 83.6395 76.9971 83.8412L77.7377 84.8481ZM78.1114 79.9085C77.842 76.4063 78.2152 71.2771 78.6633 66.9882C78.8866 64.8513 79.127 62.9359 79.3116 61.5547C79.4039 60.8643 79.4822 60.3076 79.5374 59.9239C79.565 59.7321 79.5868 59.5835 79.6016 59.483C79.6091 59.4328 79.6148 59.3946 79.6186 59.3691C79.6205 59.3563 79.622 59.3467 79.623 59.3404C79.6234 59.3372 79.6238 59.3348 79.624 59.3333C79.6241 59.3325 79.6242 59.3319 79.6243 59.3315C79.6243 59.3314 79.6243 59.3312 79.6244 59.3311C79.6244 59.3311 79.6244 59.3311 79.0065 59.2371C78.3886 59.1431 78.3886 59.1432 78.3885 59.1434C78.3885 59.1435 78.3885 59.1437 78.3885 59.1439C78.3884 59.1444 78.3883 59.145 78.3882 59.1459C78.3879 59.1476 78.3875 59.1502 78.387 59.1536C78.386 59.1603 78.3845 59.1703 78.3825 59.1835C78.3785 59.2098 78.3727 59.2488 78.3651 59.2999C78.35 59.402 78.328 59.5523 78.3001 59.746C78.2444 60.1334 78.1655 60.6941 78.0726 61.3891C77.8869 62.7789 77.6449 64.7066 77.4201 66.8583C76.972 71.1468 76.5861 76.3773 76.8651 80.0044L78.1114 79.9085ZM101.426 58.3615C101.436 58.3798 101.446 58.3982 101.456 58.4166L102.555 57.8205C102.544 57.8013 102.534 57.7821 102.524 57.7629L101.426 58.3615ZM101.456 58.4166C103 61.2614 103.971 64.2544 103.563 67.5442C103.155 70.8331 101.355 74.5194 97.154 78.7215L98.0381 79.6052C102.368 75.2735 104.351 71.3446 104.803 67.6982C105.256 64.0526 104.166 60.7901 102.555 57.8205L101.456 58.4166ZM97.154 78.7215C96.8394 79.0362 96.5004 79.2979 96.1502 79.5499C95.8149 79.7911 95.431 80.0491 95.1063 80.3109C94.4156 80.8676 93.8205 81.5739 93.7882 82.7548L95.0378 82.789C95.0562 82.1156 95.3526 81.7179 95.8908 81.284C96.1805 81.0505 96.4953 80.8415 96.8802 80.5646C97.2502 80.2984 97.6527 79.9907 98.0381 79.6052L97.154 78.7215ZM93.7882 82.7548C93.7684 83.482 94.1426 84.0048 94.681 84.3307C95.1795 84.6326 95.8292 84.7783 96.4831 84.8526C97.7983 85.0022 99.4512 84.8909 100.743 84.8269L100.681 83.5785C99.3334 83.6452 97.8115 83.7456 96.6243 83.6106C96.0271 83.5427 95.5938 83.4221 95.3284 83.2615C95.1029 83.1249 95.0323 82.9889 95.0378 82.789L93.7882 82.7548ZM100.743 84.8269C101.696 84.7798 102.289 84.2165 102.691 83.6311C102.888 83.3436 103.053 83.0312 103.198 82.7505C103.349 82.4576 103.475 82.2054 103.613 81.9811L102.548 81.3264C102.379 81.6014 102.226 81.909 102.087 82.1772C101.942 82.4576 101.808 82.7074 101.66 82.9239C101.37 83.3465 101.085 83.5585 100.681 83.5785L100.743 84.8269ZM103.613 81.9811C103.611 81.9844 103.526 82.1272 103.317 82.1728C103.092 82.2218 102.938 82.1137 102.906 82.0883C102.872 82.062 102.869 82.0487 102.897 82.0877C102.921 82.1206 102.95 82.1662 102.99 82.2322C103.06 82.3456 103.173 82.5394 103.298 82.6962C103.404 82.8283 103.648 83.1073 104.035 83.143L104.15 81.8983C104.316 81.9136 104.357 82.0186 104.274 81.9151C104.211 81.8363 104.15 81.7327 104.056 81.5791C104.015 81.5116 103.965 81.4312 103.911 81.3572C103.862 81.2893 103.784 81.1882 103.677 81.1046C103.572 81.0219 103.347 80.8871 103.051 80.9514C102.772 81.0121 102.618 81.2123 102.548 81.3264L103.613 81.9811ZM104.035 83.143C104.68 83.2025 105.231 83.0634 105.685 82.7534C106.127 82.4522 106.428 82.0231 106.646 81.5832C106.864 81.1437 107.018 80.6555 107.144 80.1971C107.282 79.6963 107.366 79.3177 107.488 78.8956L106.288 78.5479C106.173 78.9428 106.048 79.4712 105.939 79.8656C105.819 80.3024 105.69 80.6976 105.527 81.0274C105.363 81.3568 105.183 81.5829 104.981 81.7209C104.792 81.85 104.537 81.934 104.15 81.8983L104.035 83.143ZM107.488 78.8956C108.225 76.3515 109.688 74.9198 111.325 73.5175C112.952 72.1245 114.819 70.7187 116.011 68.2812L114.888 67.7321C113.835 69.8861 112.21 71.1137 110.512 72.5681C108.824 74.0134 107.129 75.6434 106.288 78.5479L107.488 78.8956ZM116.011 68.2812C116.481 67.3204 116.307 66.5534 116.112 65.9017C115.92 65.2599 115.737 64.7741 115.841 64.0837L114.605 63.8972C114.451 64.9189 114.746 65.6945 114.914 66.2594C115.08 66.8145 115.148 67.1995 114.888 67.7321L116.011 68.2812ZM115.841 64.0837C115.841 64.0844 115.842 64.0779 115.848 64.0635C115.854 64.0489 115.865 64.0284 115.882 64.0023C115.918 63.9484 115.973 63.8853 116.046 63.8167C116.195 63.6779 116.376 63.5587 116.503 63.4831L115.864 62.4089C115.7 62.5061 115.435 62.6775 115.194 62.902C114.971 63.1099 114.673 63.4505 114.605 63.8972L115.841 64.0837ZM116.503 63.4831C116.542 63.4595 116.575 63.4415 116.596 63.43C116.606 63.4243 116.614 63.4202 116.619 63.4178C116.621 63.4166 116.622 63.4159 116.623 63.4156C116.623 63.4155 116.623 63.4154 116.623 63.4155C116.623 63.4156 116.623 63.4157 116.622 63.4158C116.622 63.4158 116.622 63.4159 116.622 63.4159C116.622 63.416 116.622 63.416 116.622 63.416C116.622 63.416 116.622 63.4161 116.622 63.4161C116.622 63.4161 116.622 63.4161 116.622 63.4161C116.622 63.4161 116.622 63.4161 116.34 62.8584C116.057 62.3007 116.057 62.3008 116.057 62.3008C116.057 62.3008 116.057 62.3008 116.057 62.3008C116.057 62.3008 116.057 62.3008 116.057 62.3009C116.057 62.3009 116.057 62.301 116.057 62.301C116.057 62.3011 116.057 62.3012 116.056 62.3013C116.056 62.3015 116.055 62.3018 116.055 62.3021C116.054 62.3027 116.052 62.3034 116.051 62.3042C116.048 62.3058 116.043 62.308 116.038 62.3106C116.028 62.3159 116.015 62.3231 115.998 62.3322C115.965 62.3504 115.919 62.3762 115.864 62.4089L116.503 63.4831ZM54.0128 60.7644C53.9633 58.6977 54.0471 57.1245 54.3687 55.5758C54.6904 54.0269 55.2561 52.4734 56.2007 50.4548L55.0685 49.925C54.1012 51.9921 53.4935 53.6427 53.1448 55.3217C52.7961 57.0009 52.7125 58.6796 52.7631 60.7943L54.0128 60.7644ZM110.495 55.9549C108.384 48.1348 110.192 37.4174 117.639 30.9874L116.822 30.0413C108.938 36.849 107.079 48.0994 109.288 56.2807L110.495 55.9549ZM21.2774 55.4689C21.2645 55.9388 20.873 56.3093 20.4031 56.2964L20.3686 57.5459C21.5287 57.5778 22.495 56.6634 22.5269 55.5033L21.2774 55.4689ZM20.4031 56.2964C19.9331 56.2834 19.5627 55.892 19.5756 55.422L18.3261 55.3876C18.2941 56.5476 19.2086 57.5139 20.3686 57.5459L20.4031 56.2964ZM19.5756 55.422C19.5886 54.9521 19.98 54.5816 20.45 54.5946L20.4844 53.3451C19.3244 53.3131 18.3581 54.2276 18.3261 55.3876L19.5756 55.422ZM20.45 54.5946C20.9199 54.6075 21.2904 54.999 21.2774 55.4689L22.5269 55.5033C22.5589 54.3433 21.6444 53.377 20.4844 53.3451L20.45 54.5946ZM9.56277 74.1338C9.71674 74.3454 9.81942 74.5362 9.86767 74.662C9.89348 74.7293 9.8909 74.7451 9.88935 74.7203C9.88852 74.7069 9.88624 74.6557 9.90738 74.5852C9.93026 74.509 9.98532 74.3981 10.1036 74.312L10.8391 75.3228C11.1426 75.1019 11.1444 74.7618 11.1369 74.6423C11.1272 74.4874 11.0819 74.3373 11.0348 74.2144C10.9371 73.9597 10.7729 73.6723 10.5735 73.3984L9.56277 74.1338ZM10.1036 74.312C10.2219 74.226 10.3443 74.2077 10.4239 74.2094C10.4974 74.2109 10.5455 74.2289 10.558 74.2338C10.581 74.2429 10.5652 74.2405 10.5091 74.1952C10.4043 74.1106 10.2543 73.9542 10.1004 73.7426L9.08966 74.4781C9.28902 74.7521 9.51194 74.9968 9.72423 75.168C9.82672 75.2507 9.95558 75.34 10.1 75.3968C10.2114 75.4407 10.5355 75.5437 10.8391 75.3228L10.1036 74.312ZM10.1004 73.7426C9.94642 73.5311 9.84374 73.3403 9.79549 73.2145C9.76968 73.1472 9.77226 73.1314 9.7738 73.1561C9.77464 73.1695 9.77692 73.2208 9.75578 73.2913C9.7329 73.3675 9.67784 73.4784 9.55957 73.5644L8.82408 72.5537C8.52052 72.7746 8.51877 73.1147 8.52624 73.2342C8.53593 73.3891 8.58122 73.5391 8.62838 73.6621C8.72606 73.9168 8.8903 74.2041 9.08966 74.4781L10.1004 73.7426ZM9.55957 73.5644C9.4413 73.6505 9.31886 73.6688 9.23929 73.6671C9.16574 73.6655 9.11766 73.6476 9.10517 73.6427C9.08213 73.6336 9.09793 73.636 9.15402 73.6813C9.25889 73.7659 9.40881 73.9223 9.56277 74.1338L10.5735 73.3984C10.3741 73.1244 10.1512 72.8797 9.93893 72.7084C9.83644 72.6257 9.70758 72.5365 9.56319 72.4796C9.4518 72.4358 9.12765 72.3328 8.82408 72.5537L9.55957 73.5644ZM18.2257 55.7144C18.7393 55.5394 19.1654 55.1926 19.5075 54.8809C19.89 54.5325 20.1405 54.2597 20.4448 54.0201C20.7315 53.7945 20.9188 53.727 21.0615 53.7306C21.1883 53.7339 21.4334 53.7989 21.8203 54.2232L22.744 53.3811C22.2352 52.823 21.6925 52.4963 21.0934 52.481C20.5102 52.4662 20.0334 52.7533 19.6717 53.0379C19.3278 53.3086 18.9458 53.7016 18.6656 53.9569C18.345 54.249 18.0782 54.444 17.8225 54.5312L18.2257 55.7144ZM21.7783 54.172C22.061 54.557 22.0823 54.7704 22.0691 54.8881C22.0531 55.0303 21.9708 55.1981 21.7503 55.477C21.3507 55.9822 20.5104 56.7777 20.295 58.0618L21.5278 58.2686C21.675 57.3911 22.197 56.9272 22.7307 56.2524C22.9768 55.9412 23.2538 55.5388 23.3113 55.0278C23.3714 54.4923 23.1803 53.9694 22.786 53.4323L21.7783 54.172ZM7.31228 71.3455C9.15678 72.7092 10.2161 74.0421 11.1798 75.3082C12.1409 76.5709 13.0454 77.8267 14.546 78.8721L15.2605 77.8464C13.9504 76.9337 13.162 75.8485 12.1745 74.5511C11.1895 73.2571 10.0445 71.8109 8.05539 70.3404L7.31228 71.3455ZM69.7123 41.1699C69.5859 45.7581 70.7213 49.6397 71.3383 52.7334C71.9673 55.887 72.0376 58.1099 70.2488 59.883L71.1288 60.7708C73.4231 58.4966 73.1937 55.6455 72.5641 52.4889C71.9226 49.2723 70.8405 45.6076 70.9618 41.2043L69.7123 41.1699ZM39.2883 86.4427C40.5369 87.8306 42.091 88.4362 44.1384 88.5721C46.1475 88.7055 48.6929 88.3904 51.9822 87.9048L51.7996 86.6682C48.4853 87.1575 46.0741 87.4479 44.2212 87.3249C42.4067 87.2044 41.1936 86.6917 40.2176 85.6067L39.2883 86.4427ZM68.8494 82.1759C69.4072 82.796 69.8811 83.2571 70.3936 83.5282C70.9457 83.8203 71.4849 83.8646 72.1036 83.7913C72.6846 83.7225 73.4122 83.5379 74.3338 83.3285C75.277 83.1143 76.4916 82.8563 78.1216 82.6157L77.939 81.3791C76.2672 81.6259 75.0195 81.8909 74.0569 82.1096C73.0727 82.3331 72.4511 82.4914 71.9566 82.55C71.4998 82.6041 71.2372 82.5603 70.9782 82.4233C70.6796 82.2654 70.3333 81.9564 69.7788 81.3399L68.8494 82.1759ZM96.3638 80.5682C98.2505 81.7138 99.7717 81.898 101.376 81.7347C102.152 81.6558 102.954 81.4949 103.794 81.3386C104.644 81.1805 105.56 81.0211 106.616 80.9287L106.507 79.6835C105.39 79.7813 104.425 79.9497 103.565 80.1097C102.696 80.2715 101.96 80.4189 101.25 80.4911C99.8829 80.6302 98.6401 80.488 97.0125 79.4997L96.3638 80.5682ZM119.628 87.6777C121.643 88.8194 123.258 89.003 124.964 88.8447C125.792 88.7678 126.649 88.6094 127.553 88.4545C128.466 88.298 129.453 88.1399 130.591 88.0493L130.492 86.8032C129.296 86.8984 128.264 87.0643 127.341 87.2224C126.41 87.3821 125.615 87.5289 124.848 87.6001C123.362 87.738 122.008 87.5897 120.244 86.5902L119.628 87.6777ZM35.2376 44.5435C38.2405 45.7158 40.5127 49.014 42.392 52.8478C43.3216 54.7443 44.1345 56.7263 44.8863 58.5729C45.6331 60.407 46.3265 62.1258 47.0051 63.4497L48.1175 62.8795C47.4697 61.6157 46.7995 59.9571 46.0441 58.1015C45.2936 56.2583 44.4657 54.2382 43.5144 52.2976C41.632 48.4574 39.1824 44.7416 35.6922 43.3791L35.2376 44.5435ZM47.6661 46.9323C49.9753 52.3936 50.0284 56.0738 50.6165 61.8964L51.8602 61.7707C51.2794 56.0207 51.2168 52.1201 48.8174 46.4454L47.6661 46.9323ZM21.6795 37.6579C20.2012 38.06 18.8581 38.2361 17.4466 38.4984C16.0522 38.7576 14.6414 39.0946 13.1602 39.8194L13.7096 40.9422C15.0416 40.2904 16.324 39.9785 17.675 39.7274C19.009 39.4794 20.4636 39.284 22.0075 38.8641L21.6795 37.6579ZM13.1602 39.8194C9.70092 41.5123 7.98285 43.7512 6.83072 45.7535C6.54569 46.2488 6.2957 46.7289 6.06587 47.1745C5.83376 47.6246 5.62581 48.0324 5.41541 48.4051C4.99058 49.1576 4.60254 49.6777 4.12703 49.9919L4.8161 51.0348C5.55014 50.5498 6.05797 49.8096 6.50392 49.0197C6.7289 48.6212 6.95006 48.1872 7.17684 47.7475C7.40591 47.3033 7.64462 46.8453 7.91416 46.3769C8.98027 44.5242 10.5343 42.4961 13.7096 40.9422L13.1602 39.8194ZM4.12703 49.9919C3.75349 50.2387 3.38527 50.2874 2.8427 50.4103C2.32219 50.5283 1.68965 50.7179 1.20103 51.3811L2.20739 52.1225C2.42107 51.8325 2.67827 51.7293 3.1189 51.6294C3.53747 51.5346 4.20178 51.4407 4.8161 51.0348L4.12703 49.9919ZM1.20103 51.3811C0.995811 51.6596 0.838605 51.9678 0.81021 52.2987C0.779028 52.6621 0.909638 52.9771 1.13734 53.2145C1.34494 53.4309 1.61632 53.5673 1.87232 53.6602C2.13524 53.7556 2.43246 53.8229 2.7373 53.8733C3.34519 53.9738 4.06145 54.0192 4.74294 54.0558C5.44061 54.0932 6.09997 54.1215 6.6495 54.1832L6.78917 52.9411C6.19273 52.874 5.48122 52.8436 4.80993 52.8076C4.12246 52.7707 3.47168 52.7278 2.94127 52.64C2.67696 52.5963 2.46222 52.5445 2.29872 52.4852C2.1283 52.4233 2.05881 52.3694 2.03941 52.3491C2.03359 52.3431 2.04138 52.3495 2.04855 52.3688C2.05189 52.3778 2.05398 52.3867 2.05498 52.3945C2.05596 52.4021 2.05558 52.4062 2.05563 52.4056C2.05639 52.3967 2.0706 52.3082 2.20739 52.1225L1.20103 51.3811ZM6.6495 54.1832C9.23617 54.4741 11.3446 53.7594 13.3452 52.8098C15.3849 51.8417 17.1993 50.7014 19.4626 49.9228L19.056 48.7408C16.7138 49.5465 14.6782 50.7935 12.8092 51.6806C10.9012 52.5862 9.04239 53.1944 6.78917 52.9411L6.6495 54.1832ZM19.4626 49.9228C20.7966 49.4638 22.1726 48.5276 23.1871 47.7399C23.701 47.3409 24.1353 46.9695 24.4415 46.6975C24.5948 46.5614 24.7164 46.4498 24.8002 46.3717C24.8422 46.3326 24.8747 46.3019 24.8971 46.2806C24.9083 46.2699 24.9169 46.2617 24.923 46.2559C24.926 46.253 24.9283 46.2507 24.93 46.2491C24.9308 46.2483 24.9315 46.2476 24.932 46.2471C24.9323 46.2469 24.9325 46.2467 24.9327 46.2465C24.9327 46.2464 24.9328 46.2463 24.9329 46.2463C24.933 46.2462 24.933 46.2462 24.4981 45.7973C24.0632 45.3484 24.0633 45.3484 24.0633 45.3483C24.0633 45.3483 24.0634 45.3483 24.0634 45.3483C24.0634 45.3483 24.0633 45.3483 24.0632 45.3484C24.0631 45.3486 24.0627 45.3489 24.0622 45.3494C24.0612 45.3504 24.0596 45.3519 24.0573 45.3542C24.0526 45.3586 24.0454 45.3655 24.0357 45.3747C24.0163 45.3932 23.9869 45.421 23.9482 45.457C23.8708 45.5291 23.7566 45.634 23.6114 45.7629C23.3208 46.0211 22.9079 46.3741 22.4205 46.7526C21.4322 47.52 20.1888 48.351 19.056 48.7408L19.4626 49.9228ZM11.927 53.5626C13.6053 53.3582 14.6651 53.2647 15.3696 53.2664C16.0768 53.2681 16.3225 53.3682 16.453 53.4577L17.16 52.4267C16.7162 52.1224 16.1611 52.0183 15.3726 52.0164C14.5814 52.0145 13.4509 52.1178 11.7759 52.3218L11.927 53.5626Z" fill="#C7B8A4"/>
</svg>
