<svg width="40" height="65" viewBox="0 0 40 65" fill="none" xmlns="http://www.w3.org/2000/svg">
<circle cx="10.5818" cy="45.0993" r="4.94505" fill="#FF9999"/>
<circle cx="22.4841" cy="37.4656" r="4.94505" fill="#78C6FF"/>
<circle cx="32.0925" cy="45.7908" r="4.94505" fill="#FDB1FF"/>
<path d="M8.25312 40.7789C8.6482 39.6792 9.04329 38.573 9.4252 37.4667C9.8137 36.3539 10.1956 35.2345 10.5709 34.1151C10.9463 32.9891 11.3216 31.8631 11.6838 30.7371C12.0459 29.6177 12.4015 28.4917 12.7571 27.3657C13.1061 26.2463 13.4485 25.1269 13.7843 24.0075C13.8238 23.8693 13.8699 23.731 13.9094 23.5861C13.9292 23.5268 13.8304 23.5005 13.8172 23.5598C13.4814 24.6792 13.139 25.7986 12.7966 26.918C12.4476 28.044 12.092 29.1634 11.7299 30.2894C11.3677 31.4154 10.9924 32.5479 10.617 33.6673C10.2417 34.7867 9.85979 35.9061 9.47788 37.019C9.08938 38.1318 8.70088 39.238 8.3058 40.3443C8.2597 40.476 8.20703 40.6142 8.16093 40.7459C8.13459 40.8118 8.22678 40.8381 8.25312 40.7789Z" fill="black"/>
<path d="M14.7726 20.664C14.7726 20.6574 14.7726 20.6508 14.766 20.6443C14.766 20.6377 14.7594 20.6311 14.7528 20.6311C14.7463 20.6245 14.7463 20.6245 14.7397 20.6179C14.7331 20.6179 14.7265 20.6113 14.7199 20.6113C14.7133 20.6113 14.7133 20.6113 14.7068 20.6113C14.7002 20.6113 14.6936 20.6179 14.687 20.6245C14.687 20.6311 14.6804 20.6311 14.6804 20.6377C14.6738 20.6443 14.6738 20.6508 14.6738 20.664C14.6738 20.6706 14.6738 20.6772 14.6804 20.6838C14.6804 20.6903 14.687 20.6969 14.6936 20.6969C14.7002 20.7035 14.7002 20.7035 14.7068 20.7101C14.7133 20.7101 14.7199 20.7167 14.7265 20.7167C14.7331 20.7167 14.7331 20.7167 14.7397 20.7167C14.7463 20.7167 14.7528 20.7101 14.7594 20.7035C14.7594 20.6969 14.766 20.6969 14.766 20.6903C14.766 20.6838 14.7726 20.6706 14.7726 20.664Z" fill="black"/>
<path d="M16.1879 15.6062C16.7146 13.6768 17.2217 11.7343 17.7089 9.79185C18.1896 7.88228 18.6571 5.97271 19.1049 4.05655C19.3551 2.98982 19.5988 1.9231 19.8358 0.849783C19.849 0.790521 19.7568 0.764181 19.7436 0.823444C19.3156 2.7396 18.8679 4.64918 18.4069 6.55875C17.9394 8.48149 17.4587 10.3976 16.9583 12.3138C16.6751 13.4003 16.3854 14.4868 16.0891 15.5733C16.0759 15.6391 16.1747 15.6654 16.1879 15.6062Z" fill="black"/>
<path d="M19.7776 0.856204C20.0146 1.92293 20.2583 2.98307 20.5085 4.04322C20.7587 5.11653 21.0155 6.18984 21.2789 7.25657C21.5423 8.33646 21.8123 9.40977 22.0822 10.4897C22.3588 11.5762 22.6419 12.656 22.9251 13.7359C23.2148 14.8158 23.5045 15.8957 23.8008 16.9756C23.8404 17.1139 23.8733 17.2456 23.9128 17.3839C23.9325 17.4432 24.0247 17.4168 24.005 17.3575C23.7021 16.2777 23.4058 15.1912 23.116 14.1047C22.8263 13.0248 22.5432 11.9383 22.2666 10.8584C21.99 9.7851 21.7201 8.70521 21.4567 7.62531C21.1933 6.552 20.9365 5.47869 20.6863 4.40538C20.436 3.34523 20.1924 2.28509 19.9554 1.21836C19.9224 1.08667 19.8961 0.954975 19.8698 0.82328C19.8632 0.770602 19.7644 0.796941 19.7776 0.856204Z" fill="black"/>
<path d="M25.6901 23.5342C26.0259 24.6602 26.3683 25.7928 26.7173 26.9122C27.0663 28.0382 27.4219 29.1642 27.7841 30.2901C28.1528 31.4293 28.5215 32.5619 28.9035 33.6945C29.2854 34.8336 29.6673 35.9662 30.0624 37.0988C30.4575 38.2379 30.8591 39.3771 31.2674 40.5162C31.3135 40.6545 31.3662 40.7928 31.4122 40.9245C31.432 40.9838 31.5308 40.9574 31.5044 40.8982C31.0962 39.7656 30.6945 38.633 30.2994 37.4938C29.9043 36.3613 29.5158 35.2287 29.1339 34.0895C28.752 32.957 28.3767 31.8178 28.0079 30.6852C27.6458 29.5592 27.2836 28.4333 26.9346 27.3073C26.5856 26.1813 26.2366 25.0553 25.9008 23.9227C25.8613 23.7844 25.8152 23.6461 25.7757 23.5079C25.7691 23.442 25.6704 23.4684 25.6901 23.5342Z" fill="black"/>
<path d="M7.5904 49.3924C8.08426 52.0658 8.57812 54.7458 9.07856 57.4192C9.32878 58.7559 9.57241 60.0926 9.82263 61.4359C9.92799 62.0088 9.98725 62.608 10.2243 63.1414C10.4087 63.5694 10.6984 63.9513 11.0606 64.2476C11.6268 64.7217 12.338 64.9719 13.0755 64.9785C13.2599 64.9785 13.4508 64.9785 13.6352 64.9785C14.5702 64.9785 15.4987 64.9785 16.4337 64.9785C17.7441 64.9785 19.0544 64.9785 20.3648 64.9785C21.6159 64.9785 22.867 64.9785 24.1181 64.9785C24.8622 64.9785 25.6128 64.9785 26.3569 64.9785C26.7915 64.9785 27.2129 64.939 27.6212 64.781C28.1479 64.5768 28.6089 64.2476 28.9513 63.7998C29.2278 63.4377 29.4122 63.0228 29.5373 62.5883C29.669 62.1471 29.7612 61.6993 29.86 61.2516C30.0114 60.5536 30.1497 59.849 30.288 59.151C30.6962 57.0439 31.065 54.9368 31.4206 52.8165C31.5259 52.1778 31.6313 51.5457 31.7366 50.9069C31.7564 50.8016 31.7103 50.6962 31.5983 50.6633C31.5062 50.637 31.3745 50.6962 31.3547 50.8016C30.986 53.0997 30.5909 55.3977 30.1629 57.6826C29.8995 59.0786 29.6427 60.4746 29.3134 61.8573C29.1686 62.4566 29.0106 63.0624 28.6286 63.5628C28.1282 64.2213 27.3183 64.5768 26.5018 64.5768C25.9355 64.5768 25.3626 64.5768 24.7963 64.5768C23.6374 64.5768 22.4851 64.5768 21.3262 64.5768C20.0026 64.5768 18.6857 64.5768 17.3622 64.5768C16.302 64.5768 15.2353 64.5768 14.1751 64.5768C13.8788 64.5768 13.5759 64.5768 13.2796 64.5768C13.0096 64.5768 12.7397 64.5768 12.4697 64.5176C11.6005 64.3266 10.8498 63.7011 10.5272 62.8648C10.435 62.6212 10.3889 62.371 10.3428 62.1207C10.2836 61.7849 10.2177 61.4491 10.1585 61.1199C10.0333 60.4614 9.91482 59.7963 9.78971 59.1379C9.30244 56.4908 8.80858 53.8503 8.32131 51.2032C8.20279 50.5645 8.08426 49.9258 7.96574 49.2871C7.94598 49.1817 7.82087 49.1225 7.7221 49.1488C7.61674 49.1817 7.57065 49.2871 7.5904 49.3924Z" fill="black"/>
<path d="M27.1397 44.1377C25.6384 44.1377 24.1437 44.1377 22.6423 44.1377C21.141 44.1377 19.6463 44.1377 18.145 44.1377C17.3021 44.1377 16.4593 44.1377 15.6164 44.1377C15.3596 44.1377 15.3596 44.5328 15.6164 44.5328C17.1178 44.5328 18.6125 44.5328 20.1138 44.5328C21.6151 44.5328 23.1099 44.5328 24.6112 44.5328C25.454 44.5328 26.2969 44.5328 27.1397 44.5328C27.3965 44.5328 27.3965 44.1377 27.1397 44.1377Z" fill="black"/>
<path d="M14.4635 23.7311C14.4833 23.9155 14.503 24.0998 14.5228 24.2842C14.5755 24.7846 14.6347 25.2851 14.6874 25.7855C14.7664 26.523 14.852 27.2605 14.931 28.0046C15.0298 28.9067 15.1286 29.8088 15.2274 30.7109C15.3393 31.692 15.4446 32.6797 15.5566 33.6609C15.6685 34.6552 15.7739 35.656 15.8858 36.6503C15.9912 37.5788 16.09 38.5072 16.1953 39.4357C16.2809 40.2193 16.3665 41.0028 16.4521 41.7798C16.518 42.3461 16.5772 42.9124 16.6431 43.4787C16.6694 43.7421 16.7023 44.0121 16.7287 44.2755C16.7287 44.2886 16.7287 44.2952 16.7353 44.3084C16.7484 44.4335 16.946 44.4335 16.9328 44.3084C16.913 44.124 16.8933 43.9396 16.8735 43.7553C16.8209 43.2548 16.7616 42.7544 16.7089 42.2539C16.6299 41.5165 16.5443 40.779 16.4653 40.0349C16.3665 39.1328 16.2677 38.2307 16.169 37.3286C16.057 36.3474 15.9517 35.3597 15.8397 34.3786C15.7278 33.3843 15.6224 32.3834 15.5105 31.3891C15.4051 30.4607 15.3064 29.5322 15.201 28.6038C15.1154 27.8202 15.0298 27.0366 14.9442 26.2596C14.8784 25.6933 14.8191 25.127 14.7533 24.5608C14.7269 24.2974 14.694 24.0274 14.6676 23.764C14.6676 23.7508 14.6676 23.7443 14.6611 23.7311C14.6479 23.606 14.4504 23.5994 14.4635 23.7311Z" fill="black"/>
<path d="M14.2719 19.3405C14.2521 19.3142 14.2324 19.2878 14.2192 19.2615C14.2126 19.2483 14.206 19.2417 14.1929 19.2286C14.2126 19.2549 14.1994 19.2417 14.1994 19.2351C14.1928 19.222 14.1797 19.2088 14.1731 19.1956C14.1336 19.143 14.0348 19.1232 14.0019 19.1956C13.9887 19.2286 13.969 19.2615 13.9558 19.2944C13.9887 19.2352 13.9295 19.3734 13.9558 19.2944C13.9426 19.3142 13.936 19.3339 13.9295 19.3537C13.9163 19.3734 13.9097 19.3998 13.8965 19.4195C13.8241 19.571 13.7517 19.729 13.6858 19.8805C13.4883 20.315 13.2907 20.7431 13.0866 21.1776C13.0339 21.2896 12.9878 21.3949 12.9352 21.5069C12.7771 21.8493 12.7376 22.2378 12.843 22.6065C13.0405 23.3045 13.7122 23.7984 14.4431 23.7589C15.2596 23.7128 15.9115 23.0411 15.9378 22.2246C15.9444 22.0995 15.7468 22.0995 15.7403 22.2246C15.7139 22.8831 15.2201 23.4494 14.5682 23.5482C13.8834 23.6535 13.2249 23.2189 13.0339 22.5539C12.9418 22.2378 12.9747 21.902 13.113 21.6057C13.159 21.5003 13.2117 21.3884 13.2578 21.283C13.4488 20.8747 13.6331 20.4599 13.8241 20.0517C13.9031 19.8805 13.9821 19.7093 14.0612 19.538C14.0743 19.5117 14.0875 19.4788 14.1007 19.4524C14.1138 19.4261 14.127 19.3998 14.1402 19.3668C14.1468 19.3603 14.1468 19.3537 14.1533 19.3405C14.1599 19.301 14.1599 19.3076 14.1468 19.3537C14.1468 19.3537 14.1533 19.3339 14.1599 19.3339C14.1665 19.3208 14.1731 19.301 14.1797 19.2878C14.1204 19.2878 14.0677 19.2878 14.0085 19.2878C14.0151 19.301 14.0282 19.3142 14.0348 19.3273C14.0348 19.3339 14.0414 19.3339 14.0414 19.3405C14.0677 19.3734 14.0546 19.3537 14.0546 19.3537C14.0743 19.38 14.0941 19.4064 14.1072 19.4327C14.1731 19.538 14.3443 19.4393 14.2719 19.3405Z" fill="black"/>
<path d="M14.201 19.4632C14.2075 19.4303 14.2207 19.4039 14.2273 19.371C14.2273 19.3578 14.2339 19.3447 14.2339 19.3315C14.2207 19.371 14.2339 19.3447 14.2339 19.3381C14.2405 19.3249 14.2405 19.3052 14.2471 19.292C14.2668 19.2196 14.201 19.1537 14.1285 19.1735C13.4569 19.3381 12.7852 19.5027 12.1202 19.6673C11.758 19.7529 11.3893 19.8188 11.0864 20.0492C10.4608 20.5233 10.2699 21.4189 10.665 22.1037C10.8888 22.479 11.2642 22.7687 11.6988 22.8543C12.1399 22.9465 12.6075 22.8478 12.9696 22.5778C13.0684 22.5053 12.9696 22.3341 12.8708 22.4066C12.568 22.6305 12.1795 22.7358 11.7975 22.67C11.4354 22.6041 11.0996 22.3934 10.8954 22.0905C10.474 21.4715 10.632 20.5826 11.2576 20.1678C11.5276 19.99 11.8634 19.9307 12.1729 19.8583C12.5943 19.7529 13.0157 19.6476 13.4306 19.5488C13.6808 19.4895 13.931 19.4237 14.1812 19.3644C14.1417 19.3249 14.1022 19.2854 14.0627 19.2459C14.0561 19.2591 14.0561 19.2788 14.0495 19.292C14.0495 19.2986 14.0495 19.2986 14.0429 19.3052C14.0298 19.3513 14.0363 19.3249 14.0363 19.3183C14.0298 19.3513 14.0166 19.3776 14.01 19.4105C13.9771 19.529 14.168 19.5817 14.201 19.4632Z" fill="black"/>
<path d="M14.0421 19.4959C14.0751 19.4828 14.1212 19.4696 14.1475 19.4498C14.187 19.4235 14.0619 19.4828 14.1409 19.4498C14.1475 19.4498 14.1541 19.4433 14.1541 19.4433C14.1672 19.4367 14.1738 19.4367 14.187 19.4301C14.2199 19.4169 14.1738 19.4367 14.2002 19.4235C14.2594 19.3972 14.3055 19.3116 14.2463 19.2589C14.2331 19.2523 14.1804 19.2128 14.2068 19.2325C14.1672 19.1996 14.2002 19.226 14.1541 19.193C14.1475 19.1865 14.1607 19.1996 14.1607 19.1996C14.1475 19.193 14.1409 19.1799 14.1277 19.1733C14.1146 19.1601 14.0948 19.1469 14.0816 19.1338C14.0619 19.1206 14.0421 19.1009 14.0158 19.0877C13.8775 18.9823 13.7458 18.877 13.6075 18.7716C13.2322 18.4819 12.8569 18.1922 12.475 17.9024C12.3828 17.83 12.2906 17.7576 12.1984 17.6851C11.9021 17.4613 11.5334 17.3427 11.1646 17.3625C10.46 17.402 9.84107 17.9222 9.70279 18.6202C9.62378 19.0218 9.69621 19.4433 9.92009 19.7857C10.1374 20.1149 10.4732 20.3585 10.8551 20.4573C10.9802 20.4902 11.0329 20.2993 10.9078 20.2663C10.2493 20.0886 9.80815 19.463 9.88058 18.7848C9.94643 18.1197 10.5061 17.5929 11.1712 17.5534C11.5136 17.5337 11.8362 17.6456 12.1062 17.8498C12.1918 17.9156 12.2774 17.9814 12.363 18.0473C12.7186 18.3239 13.0742 18.5938 13.4298 18.8704C13.5812 18.9889 13.7392 19.1074 13.8907 19.226C13.9236 19.2523 13.9499 19.2721 13.9829 19.2984C13.9895 19.305 13.996 19.305 14.0026 19.3116C14.0092 19.3181 14.0224 19.3247 14.029 19.3313C14.0421 19.3445 14.0158 19.3181 14.0355 19.3379C14.0224 19.3313 14.0816 19.3774 14.0487 19.3445C14.0619 19.3511 14.0685 19.3642 14.0816 19.3708C14.0487 19.3511 14.1212 19.4037 14.108 19.3906C14.1212 19.3379 14.1343 19.2786 14.1541 19.226C14.1409 19.2325 14.0751 19.2589 14.108 19.2457C14.1014 19.2457 14.0882 19.2523 14.108 19.2523C14.1409 19.2457 14.0685 19.2655 14.0619 19.2655C14.0751 19.2589 14.0619 19.2655 14.0421 19.2721C14.0224 19.2786 14.0026 19.2852 13.9895 19.2984C13.9368 19.3181 13.9039 19.3642 13.9236 19.4169C13.9302 19.4762 13.9895 19.5157 14.0421 19.4959Z" fill="black"/>
<path d="M13.9296 19.3922C13.9823 19.4185 14.0349 19.4514 14.081 19.4778C14.1469 19.5107 14.2325 19.4712 14.2325 19.3922C14.2061 18.7008 14.2061 18.0028 14.193 17.3048C14.1864 16.9031 14.1996 16.5081 14.0152 16.1393C13.6596 15.4479 12.797 15.1055 12.0661 15.3821C11.6644 15.5335 11.3352 15.843 11.164 16.2381C10.9928 16.6463 11.006 17.1073 11.1772 17.5089C11.2298 17.6275 11.3945 17.5221 11.3484 17.4102C11.0521 16.7254 11.3615 15.922 12.0332 15.6059C12.7114 15.2833 13.5543 15.5994 13.8637 16.2776C14.0152 16.6002 13.9889 16.9624 13.9954 17.3048C14.002 17.7394 14.0086 18.1674 14.0218 18.602C14.0284 18.8654 14.0284 19.1222 14.0349 19.3856C14.0876 19.3592 14.1337 19.3263 14.1864 19.3C14.1337 19.2736 14.081 19.2407 14.0349 19.2144C13.923 19.1617 13.8176 19.3329 13.9296 19.3922Z" fill="black"/>
<path d="M13.9447 19.2525C13.9578 19.3118 13.9644 19.371 13.9776 19.4237C13.9907 19.5027 14.0895 19.5093 14.1422 19.4698C14.1554 19.4566 14.1685 19.45 14.1817 19.4369C14.1883 19.4303 14.2146 19.4105 14.1949 19.4237C14.2212 19.3974 14.2541 19.3776 14.2805 19.3513C14.3002 19.3315 14.32 19.3183 14.3397 19.2986C14.4648 19.1932 14.59 19.0945 14.7151 18.9891C15.0772 18.6862 15.4394 18.3899 15.8015 18.087C15.9003 18.008 15.9991 17.9224 16.0979 17.8434C16.3349 17.6458 16.5193 17.3824 16.6115 17.0795C16.8288 16.3618 16.4929 15.5519 15.8147 15.216C15.4394 15.0251 14.9916 14.9856 14.5965 15.1304C14.2146 15.2621 13.892 15.5387 13.7076 15.8943C13.6483 16.0062 13.8195 16.105 13.8788 15.993C14.208 15.3675 14.9587 15.0778 15.6172 15.3412C16.2822 15.6045 16.6312 16.3552 16.4205 17.04C16.3349 17.3034 16.1703 17.5273 15.9596 17.7051C15.8674 17.7841 15.7686 17.8631 15.6764 17.9421C15.334 18.2253 14.9916 18.5084 14.6492 18.7916C14.5044 18.9101 14.3661 19.0286 14.2212 19.1471C14.1949 19.1669 14.1685 19.1866 14.1422 19.213C14.0829 19.2591 14.0698 19.2722 14.0039 19.3249C14.0566 19.3381 14.1159 19.3513 14.1685 19.371C14.1619 19.3118 14.1488 19.2525 14.1356 19.1998C14.1093 19.0747 13.9183 19.1274 13.9447 19.2525Z" fill="black"/>
<path d="M14.0618 19.1481C14.0223 19.1876 13.9564 19.2402 13.9564 19.2995C13.963 19.2732 13.9762 19.2534 13.9828 19.2271C13.9696 19.2402 13.9564 19.26 13.9367 19.2732C13.8906 19.3258 13.9037 19.4246 13.9828 19.4378C13.9959 19.4378 14.0157 19.4444 14.0289 19.4444C14.042 19.4444 14.1013 19.4575 14.0552 19.4509C14.0881 19.4575 14.121 19.4641 14.154 19.4707C14.1803 19.4773 14.2001 19.4839 14.2264 19.4839C14.3844 19.5168 14.5425 19.5497 14.6939 19.5826C15.1483 19.6748 15.6026 19.7736 16.057 19.8658C16.1886 19.8921 16.3203 19.9185 16.452 19.9514C16.7615 20.0172 17.0842 20.0041 17.3805 19.8855C18.0851 19.6024 18.4999 18.8517 18.3484 18.1077C18.2628 17.6994 18.0192 17.3307 17.6702 17.1002C17.3212 16.8697 16.8932 16.7973 16.485 16.8697C16.3599 16.8961 16.4125 17.0804 16.5376 17.0607C17.2225 16.9356 17.9138 17.3373 18.118 18.0089C18.3287 18.7003 17.9534 19.4641 17.2751 19.7078C17.0183 19.7999 16.7549 19.8065 16.485 19.7538C16.3599 19.7275 16.2282 19.7012 16.103 19.6748C15.675 19.5826 15.2404 19.497 14.8124 19.4049C14.6347 19.3653 14.4634 19.3324 14.2857 19.2929C14.2593 19.2863 14.2264 19.2797 14.2001 19.2732C14.1671 19.2666 14.1408 19.26 14.1079 19.2534C14.1013 19.2534 14.0947 19.2534 14.0881 19.2468C14.0091 19.2271 14.1079 19.2534 14.0749 19.2468C14.0618 19.2402 14.042 19.2402 14.0289 19.2337C14.042 19.2863 14.0552 19.3456 14.0749 19.3983C14.1079 19.3653 14.1474 19.3258 14.1474 19.2797C14.1408 19.3061 14.1276 19.3258 14.121 19.3522C14.1474 19.3258 14.1671 19.2995 14.1935 19.2732C14.2857 19.1941 14.1474 19.0559 14.0618 19.1481Z" fill="black"/>
<path d="M14.2008 19.1866C14.1416 19.1866 14.0823 19.18 14.023 19.18C13.944 19.1734 13.9045 19.2656 13.9374 19.3315C13.944 19.3446 13.9506 19.3644 13.9572 19.3776C13.9835 19.4039 13.9374 19.3117 13.9506 19.3512C13.9572 19.371 13.9638 19.3841 13.9703 19.4039C13.9835 19.4368 14.023 19.45 14.056 19.45C14.023 19.4237 13.9901 19.4039 13.9638 19.3776C13.9967 19.4566 14.0428 19.5356 14.0823 19.6146C14.1613 19.7726 14.2469 19.9373 14.3259 20.0953C14.5301 20.5036 14.7342 20.9052 14.9383 21.3135C14.9844 21.4122 15.0371 21.5044 15.0832 21.6032C15.228 21.8863 15.4519 22.1234 15.7285 22.2748C16.4199 22.6502 17.2956 22.4526 17.7632 21.8205C17.7763 21.8007 17.7961 21.781 17.8093 21.7547C17.8158 21.7415 17.8224 21.7217 17.8224 21.702C17.8224 21.7086 17.8224 21.7217 17.8224 21.7283C17.8553 21.6822 17.8817 21.623 17.908 21.5703C17.9541 21.4781 17.987 21.3859 18.0134 21.2937C18.0661 21.1028 18.0792 20.8986 18.0529 20.7011C18.0002 20.3126 17.8093 19.9504 17.5129 19.6936C17.4142 19.608 17.2759 19.7529 17.3747 19.8319C17.8949 20.2797 18.0265 21.0369 17.6644 21.6164C17.6512 21.6361 17.6446 21.6559 17.6315 21.6756C17.6315 21.6822 17.6315 21.6954 17.6249 21.702C17.6315 21.6691 17.6249 21.6691 17.6183 21.6888C17.592 21.702 17.559 21.7678 17.5393 21.7942C17.48 21.86 17.4208 21.9259 17.3483 21.9785C17.2166 22.0839 17.0652 22.1629 16.9071 22.209C16.5516 22.3209 16.1499 22.2814 15.8207 22.0971C15.5704 21.9588 15.3795 21.7481 15.2544 21.4978C15.2083 21.4057 15.1622 21.3135 15.1161 21.2213C14.9251 20.846 14.7342 20.4706 14.5498 20.0887C14.4576 19.9043 14.3654 19.7266 14.2732 19.5422C14.2469 19.4961 14.2272 19.45 14.2008 19.4039C14.1942 19.3973 14.1942 19.3841 14.1876 19.3776C14.1811 19.3644 14.1745 19.3512 14.1679 19.3315C14.1613 19.3183 14.1547 19.2985 14.1613 19.3183C14.1481 19.2788 14.1152 19.2459 14.0691 19.2459C14.0955 19.259 14.1284 19.2788 14.1547 19.292C14.1416 19.259 14.1811 19.3578 14.1547 19.2985C14.1481 19.2854 14.1416 19.2722 14.135 19.259C14.1284 19.2459 14.1218 19.2327 14.1152 19.2129C14.0889 19.2656 14.056 19.3117 14.0296 19.3644C14.0889 19.371 14.1481 19.371 14.2074 19.371C14.3259 19.3907 14.3259 19.1932 14.2008 19.1866Z" fill="black"/>
<path d="M23.4264 42.2809C23.3606 42.8735 23.2881 43.4661 23.2223 44.0522C23.2157 44.1378 23.2025 44.2168 23.1959 44.3024C23.1828 44.4275 23.3803 44.4275 23.3935 44.3024C23.4593 43.7098 23.5318 43.1171 23.5976 42.5311C23.6042 42.4455 23.6174 42.3665 23.624 42.2809C23.6371 42.1492 23.4396 42.1558 23.4264 42.2809Z" fill="black"/>
<path d="M25.5917 23.6016C25.5522 23.9111 25.5193 24.2272 25.4798 24.5367C25.3942 25.2873 25.3086 26.038 25.2164 26.7887C25.1111 27.6973 25.0057 28.606 24.9003 29.5147C24.8082 30.2983 24.716 31.0819 24.6304 31.8589C24.5974 32.1157 24.5711 32.3791 24.5382 32.6359C24.525 32.7544 24.4987 32.8795 24.4987 33.0046C24.4987 33.0112 24.4987 33.0178 24.4987 33.0178C24.4855 33.1429 24.683 33.1429 24.6962 33.0178C24.7357 32.7083 24.7687 32.3923 24.8082 32.0828C24.8938 31.3321 24.9794 30.5815 25.0715 29.8308C25.1769 28.9221 25.2823 28.0134 25.3876 27.1047C25.4798 26.3211 25.572 25.5376 25.6576 24.7606C25.6905 24.5038 25.7169 24.2404 25.7498 23.9836C25.7629 23.865 25.7893 23.7399 25.7893 23.6148C25.7893 23.6082 25.7893 23.6016 25.7893 23.6016C25.809 23.4765 25.6115 23.4765 25.5917 23.6016Z" fill="black"/>
<path d="M26.151 19.3079C26.1708 19.2816 26.1905 19.2553 26.2037 19.2289C26.1905 19.2487 26.2235 19.196 26.2103 19.2223C26.2235 19.2026 26.2366 19.1828 26.2498 19.1697C26.1905 19.1697 26.1379 19.1697 26.0786 19.1697C26.0852 19.1828 26.0918 19.196 26.0984 19.2092C26.1115 19.2289 26.1115 19.2619 26.0984 19.196C26.0984 19.2026 26.1115 19.2421 26.1115 19.2487C26.1115 19.2355 26.0852 19.1697 26.1049 19.2289C26.1115 19.2487 26.1247 19.2684 26.1313 19.2948C26.1444 19.3211 26.1576 19.3475 26.1708 19.3738C26.23 19.5055 26.2893 19.6372 26.3552 19.7689C26.5461 20.1837 26.7371 20.5986 26.928 21.0134C27.0926 21.369 27.2902 21.718 27.2704 22.1196C27.2375 22.811 26.6646 23.3971 25.9732 23.43C25.5913 23.4497 25.2094 23.3115 24.9394 23.0481C24.6826 22.7979 24.5312 22.4554 24.518 22.0999C24.5114 21.9748 24.3139 21.9748 24.3205 22.0999C24.3468 22.811 24.8473 23.4366 25.5452 23.5946C26.2761 23.7592 27.04 23.3839 27.3363 22.6925C27.5075 22.304 27.5141 21.8628 27.356 21.4743C27.3099 21.369 27.2639 21.2636 27.2178 21.1648C27.0202 20.7434 26.8293 20.3154 26.6317 19.894C26.5461 19.703 26.4605 19.5187 26.3683 19.3277C26.3552 19.2948 26.342 19.2684 26.3288 19.2355C26.3222 19.2158 26.3156 19.196 26.3025 19.1828C26.2893 19.1631 26.3091 19.1565 26.3025 19.2092C26.3025 19.1894 26.2893 19.1697 26.2893 19.1565C26.2959 19.1697 26.2959 19.1894 26.3025 19.2026C26.3025 19.1828 26.2959 19.1697 26.2893 19.1499C26.2827 19.1367 26.2827 19.1302 26.2761 19.1236C26.2696 19.1104 26.263 19.0906 26.2564 19.0775C26.2235 19.005 26.1247 19.0248 26.0852 19.0775C26.0786 19.0841 26.0786 19.0906 26.072 19.0972C26.0786 19.0841 26.0523 19.1236 26.072 19.0972C26.072 19.1038 26.0457 19.1367 26.0588 19.117C26.0786 19.0906 26.0457 19.1367 26.0391 19.1433C26.0193 19.1697 25.9996 19.196 25.9864 19.2223C25.9074 19.3079 26.0786 19.4067 26.151 19.3079Z" fill="black"/>
<path d="M27.2844 22.4494C27.9429 22.9366 28.8977 22.8313 29.4245 22.2057C29.9512 21.5802 29.9117 20.632 29.3257 20.0591C29.1216 19.8616 28.8648 19.7233 28.5882 19.6575C28.4697 19.6311 28.3511 19.5982 28.2326 19.5718C27.7914 19.4599 27.3569 19.3546 26.9157 19.2426C26.7379 19.1965 26.5601 19.157 26.3757 19.1109C26.3494 19.1043 26.3165 19.0977 26.2901 19.0912C26.2045 19.0714 26.3099 19.0977 26.277 19.0912C26.2638 19.0846 26.2506 19.0846 26.2374 19.0846C26.2243 19.0846 26.2111 19.078 26.1979 19.078C26.1848 19.078 26.1716 19.0714 26.1518 19.0714C26.1979 19.078 26.1453 19.0714 26.1387 19.0648C26.1913 19.078 26.1255 19.0582 26.1123 19.0582C26.0399 19.0385 25.9675 19.1043 25.9938 19.1768C26.0004 19.1899 26.0004 19.2097 26.007 19.2229C26.0136 19.2426 26.0136 19.2229 26.007 19.2097C26.0136 19.2294 26.0136 19.2492 26.0201 19.2689C26.0597 19.3546 26.0136 19.2163 26.0201 19.2821C26.0267 19.3019 26.0333 19.3216 26.0399 19.3414C26.0728 19.4665 26.2638 19.4138 26.2309 19.2887C26.2177 19.2492 26.2045 19.2097 26.1914 19.1702C26.1716 19.1241 26.2111 19.2426 26.2045 19.1965C26.2045 19.1899 26.1979 19.1768 26.1979 19.1702C26.1914 19.157 26.1913 19.1373 26.1848 19.1241C26.1453 19.1636 26.1057 19.2031 26.0662 19.2426C26.0794 19.2492 26.0926 19.2492 26.1057 19.2558C26.1189 19.2558 26.1255 19.2558 26.1387 19.2624C26.1057 19.2558 26.1189 19.2624 26.1255 19.2624C26.1914 19.2821 26.1123 19.2558 26.1518 19.2689C26.1716 19.2755 26.1848 19.2755 26.2045 19.2821C26.2177 19.2821 26.3033 19.3085 26.2374 19.2887H26.244C26.2572 19.2887 26.2704 19.2953 26.277 19.2953C26.4021 19.3282 26.5206 19.3546 26.6457 19.3875C27.0605 19.4928 27.482 19.5916 27.8968 19.697C28.0614 19.7365 28.2326 19.7826 28.3972 19.8221C28.5092 19.8484 28.6277 19.8747 28.7396 19.9208C29.4376 20.1974 29.7866 21.0337 29.4969 21.7251C29.3323 22.1201 28.9833 22.423 28.575 22.535C28.1602 22.6469 27.719 22.5481 27.3766 22.2979C27.2844 22.1992 27.1856 22.3769 27.2844 22.4494Z" fill="black"/>
<path d="M29.3989 20.3423C30.0772 20.1579 30.571 19.5456 30.5776 18.841C30.5842 18.1298 30.1101 17.4845 29.4187 17.2936C29.0631 17.1948 28.6878 17.2277 28.352 17.3792C28.1939 17.4516 28.0622 17.5504 27.9305 17.6492C27.5881 17.9125 27.2457 18.1759 26.9033 18.4393C26.6268 18.65 26.3568 18.8607 26.0802 19.0715C26.1066 19.0649 26.1263 19.0517 26.1527 19.0451C26.1197 19.0451 26.1 19.0583 26.0802 19.078C26.1066 19.0715 26.1263 19.0583 26.1527 19.0517C26.1197 19.0517 26.1066 19.0649 26.0802 19.078C26.0539 19.0978 26.0868 19.0715 26.0736 19.0846C26.0144 19.1307 26.0868 19.078 26.0539 19.0978C26.0407 19.111 26.0276 19.1176 26.0144 19.1307C25.9485 19.1834 25.9946 19.269 26.0605 19.2953C26.0868 19.3019 26.0473 19.2888 26.0736 19.3019C26.0868 19.3085 26.0934 19.3151 26.1066 19.3151C26.1132 19.3151 26.1197 19.3217 26.1197 19.3217C26.1988 19.348 26.0802 19.2953 26.1132 19.3217C26.1461 19.3414 26.1856 19.3546 26.2185 19.3678C26.2712 19.3875 26.3239 19.348 26.337 19.3019C26.3502 19.2427 26.3173 19.2032 26.2712 19.1834C26.2514 19.1768 26.2317 19.1702 26.2185 19.1571C26.1922 19.1439 26.2317 19.1636 26.1988 19.1505C26.1856 19.1439 26.1593 19.1439 26.1461 19.1373C26.1922 19.1571 26.1593 19.1373 26.1527 19.1373C26.1658 19.1505 26.1658 19.1439 26.1527 19.1373C26.1395 19.1307 26.1263 19.1241 26.1132 19.1176C26.1263 19.1702 26.1395 19.2295 26.1593 19.2822C26.1856 19.2624 26.1395 19.2953 26.1658 19.2756C26.1724 19.269 26.1856 19.2624 26.1922 19.2558C26.1658 19.2756 26.2119 19.2427 26.2185 19.2361C26.1922 19.2427 26.1724 19.2558 26.1461 19.2624C26.179 19.2624 26.1988 19.2492 26.2185 19.2295C26.1922 19.2361 26.1724 19.2492 26.1461 19.2558C26.179 19.2558 26.2053 19.2361 26.2251 19.2163C26.2449 19.2032 26.2317 19.2097 26.2251 19.2163C26.2383 19.2097 26.2449 19.1966 26.258 19.19C26.2646 19.1834 26.2712 19.1834 26.2712 19.1768C26.3041 19.1505 26.337 19.1307 26.37 19.1044C26.5082 18.999 26.6465 18.8937 26.7848 18.7883C27.1338 18.5183 27.4894 18.2484 27.8384 17.9784C27.9371 17.906 28.0359 17.8269 28.1281 17.7545C28.3586 17.5767 28.6285 17.4582 28.9248 17.445C29.5636 17.4187 30.1628 17.8401 30.3274 18.4657C30.5249 19.2032 30.0706 19.9604 29.3397 20.1579C29.2212 20.1843 29.2738 20.3752 29.3989 20.3423Z" fill="black"/>
<path d="M26.2712 19.0771C26.2251 19.0771 26.179 19.1167 26.1395 19.1364C26.1066 19.1496 26.0934 19.1891 26.0934 19.222C26.1066 19.1957 26.1263 19.1627 26.1395 19.1364C26.1066 19.1562 26.2054 19.1101 26.1461 19.1364C26.1329 19.143 26.1198 19.1496 26.1132 19.1562C26.1 19.1627 26.0868 19.1693 26.0671 19.1825C26.1198 19.2088 26.1658 19.2418 26.2185 19.2681C26.2383 18.6228 26.2449 17.9841 26.2514 17.3388C26.2514 17.1742 26.258 17.0095 26.258 16.8449C26.258 16.7066 26.2646 16.5684 26.291 16.4367C26.449 15.7189 27.1931 15.2317 27.9108 15.3897C28.3191 15.4753 28.6746 15.7453 28.859 16.114C29.0434 16.4762 29.0565 16.9239 28.8919 17.2927C28.8393 17.4112 29.0105 17.51 29.0631 17.3915C29.3726 16.6671 29.1356 15.8177 28.4639 15.4029C27.7725 14.9683 26.8507 15.1526 26.3634 15.8045C26.1658 16.0679 26.0605 16.3906 26.0539 16.7198C26.0539 16.8317 26.0473 16.9437 26.0473 17.049C26.0407 17.5034 26.0342 17.9512 26.021 18.4055C26.0144 18.6952 26.0144 18.9784 26.0078 19.2681C26.0078 19.3471 26.0934 19.3866 26.1593 19.3537C26.1724 19.3471 26.1922 19.3405 26.2054 19.3274C26.2251 19.301 26.1395 19.3471 26.179 19.3339C26.1988 19.3274 26.2119 19.3208 26.2317 19.3142C26.2646 19.2944 26.2778 19.2615 26.2778 19.2286C26.2646 19.2549 26.2449 19.2879 26.2317 19.3142C26.2449 19.3076 26.2514 19.301 26.2646 19.2944C26.2712 19.2879 26.2778 19.2879 26.2844 19.2813C26.3173 19.2615 26.3305 19.2813 26.2646 19.2813C26.3963 19.2747 26.3963 19.0771 26.2712 19.0771Z" fill="black"/>
<path d="M26.1184 19.0706C26.1052 19.1298 26.0987 19.1891 26.0921 19.2418C26.1448 19.2286 26.204 19.2154 26.2567 19.1957C26.1843 19.1364 26.1513 19.1101 26.0723 19.0442C25.9604 18.952 25.8484 18.8599 25.7365 18.7677C25.3941 18.4845 25.0451 18.1948 24.7027 17.9117C24.4393 17.6944 24.1298 17.4836 23.952 17.1742C23.6031 16.5552 23.8006 15.7255 24.3998 15.3436C24.7356 15.1329 25.1505 15.0605 25.5258 15.1724C25.8945 15.2778 26.1974 15.5346 26.3752 15.8704C26.4345 15.9823 26.6057 15.8836 26.5464 15.7716C26.1974 15.1131 25.4204 14.7707 24.7093 14.988C23.9981 15.1987 23.5109 15.8967 23.5833 16.6474C23.6228 17.0622 23.8203 17.4441 24.143 17.7075C24.2088 17.7668 24.2813 17.8195 24.3537 17.8787C24.7027 18.1685 25.0583 18.4582 25.4073 18.7545C25.5653 18.8862 25.7233 19.0179 25.8814 19.1496C25.9143 19.1759 25.9406 19.2023 25.9736 19.222C25.9933 19.2418 26.0196 19.2615 26.0394 19.2813C26.0855 19.3142 26.0394 19.2747 26.0723 19.3076C26.0855 19.3208 26.0987 19.3274 26.1118 19.3405C26.1645 19.38 26.2633 19.38 26.2765 19.2944C26.283 19.2352 26.2962 19.1759 26.3094 19.1232C26.3357 18.9981 26.1448 18.9455 26.1184 19.0706Z" fill="black"/>
<path d="M23.7469 16.7537C23.0094 16.6154 22.2653 16.9973 21.9756 17.6953C21.6793 18.413 21.9624 19.2624 22.6275 19.6575C22.9699 19.8616 23.3715 19.9143 23.7535 19.8419C23.8522 19.8221 23.9444 19.8024 24.0432 19.7826C24.4909 19.6904 24.9453 19.5917 25.3931 19.4995C25.5906 19.46 25.7816 19.4205 25.9791 19.3744C26.012 19.3678 26.0449 19.3612 26.0779 19.3546C26.1108 19.348 26.1371 19.3415 26.1701 19.3349C26.1964 19.3283 26.1437 19.3546 26.1766 19.3349C26.1832 19.3349 26.1898 19.3349 26.1964 19.3283C26.1701 19.3283 26.1701 19.3283 26.203 19.3283C26.2227 19.3217 26.2359 19.3217 26.2557 19.3151C26.3347 19.3019 26.3413 19.2032 26.3017 19.1505C26.2622 19.1044 26.2227 19.0649 26.1832 19.0188C26.0976 18.9266 25.9593 19.0649 26.0449 19.1571C26.0845 19.2032 26.124 19.2427 26.1635 19.2888C26.1766 19.2361 26.1898 19.1768 26.2096 19.1242C26.1964 19.1242 26.1766 19.1307 26.1635 19.1307C26.1437 19.1373 26.2425 19.111 26.1569 19.1307C26.124 19.1373 26.2293 19.1176 26.1437 19.1307C26.1174 19.1373 26.0845 19.1439 26.0581 19.1505C26.0384 19.1571 26.012 19.1571 25.9923 19.1637C25.854 19.19 25.7223 19.2229 25.584 19.2493C25.1494 19.3415 24.7148 19.4336 24.2802 19.5192C23.951 19.5851 23.602 19.697 23.2662 19.6575C22.555 19.5719 22.0151 18.92 22.0612 18.2089C22.0875 17.8072 22.2916 17.4187 22.6143 17.1817C22.9238 16.9578 23.3189 16.8656 23.7008 16.938C23.8193 16.9709 23.872 16.78 23.7469 16.7537Z" fill="black"/>
<path d="M22.7343 19.5646C22.4512 19.8082 22.2537 20.1507 22.201 20.5194C22.1746 20.7104 22.1746 20.9013 22.2141 21.0923C22.2339 21.1845 22.2602 21.2766 22.2997 21.3622C22.3195 21.4083 22.3393 21.461 22.3656 21.5071C22.3788 21.5269 22.3853 21.5532 22.4051 21.573C22.4183 21.6059 22.4249 21.6059 22.4249 21.573C22.4249 21.5861 22.4249 21.5993 22.4314 21.6125C22.4644 21.6915 22.5368 21.7705 22.5961 21.8298C22.6553 21.8956 22.7278 21.9615 22.8002 22.0141C22.9385 22.1195 23.0965 22.2051 23.2677 22.2578C23.6299 22.3763 24.0315 22.3565 24.3805 22.2051C24.7163 22.0602 24.9929 21.7968 25.1575 21.4742C25.197 21.4018 25.23 21.3293 25.2695 21.2569C25.4604 20.875 25.6514 20.4931 25.8423 20.1111C25.9806 19.828 26.1255 19.5514 26.2638 19.2683C26.2374 19.2815 26.2045 19.3012 26.1782 19.3144C26.2111 19.3144 26.2506 19.2946 26.2638 19.2683C26.2703 19.2485 26.2769 19.1893 26.2769 19.2354C26.2769 19.2749 26.2835 19.242 26.2901 19.2222C26.3099 19.1695 26.2835 19.242 26.2835 19.2354C26.2901 19.2222 26.2901 19.209 26.2967 19.1959C26.3098 19.1498 26.2703 19.242 26.2901 19.2222C26.2967 19.2156 26.3033 19.1959 26.3098 19.1827C26.3428 19.1234 26.3033 19.0312 26.2242 19.0312C26.165 19.0378 26.1057 19.0378 26.0465 19.0378C25.9214 19.0444 25.9214 19.242 26.0465 19.2354C26.1057 19.2354 26.165 19.2288 26.2242 19.2288C26.1979 19.1761 26.165 19.13 26.1386 19.0773C26.1321 19.0905 26.1255 19.1037 26.1189 19.1103C26.1189 19.1169 26.1123 19.1169 26.1123 19.1234C26.1057 19.13 26.1057 19.1366 26.0991 19.1498C26.0926 19.1827 26.0926 19.1827 26.0991 19.1564C26.0991 19.1564 26.1057 19.1169 26.0991 19.1498C26.0926 19.1498 26.086 19.1761 26.086 19.1827C26.0596 19.2551 26.0991 19.1564 26.0926 19.1629C26.1189 19.1498 26.1518 19.13 26.1782 19.1169C26.1452 19.1169 26.1057 19.1366 26.0926 19.1629C25.7962 19.749 25.4999 20.335 25.2036 20.9277C25.0653 21.2042 24.9402 21.5137 24.7229 21.731C24.2225 22.2314 23.3665 22.2578 22.8397 21.7837C22.7673 21.7178 22.708 21.652 22.6487 21.573C22.6422 21.5664 22.6356 21.5598 22.6356 21.5532C22.6224 21.5269 22.6158 21.5203 22.6224 21.5466C22.6224 21.5664 22.6224 21.5664 22.6158 21.5334C22.6092 21.5137 22.6026 21.5005 22.5895 21.4874C22.5631 21.4413 22.5368 21.4018 22.517 21.3557C22.4183 21.1647 22.3722 20.9474 22.3788 20.7301C22.3853 20.3284 22.5763 19.9531 22.8792 19.6897C22.9714 19.6239 22.8331 19.4856 22.7343 19.5646Z" fill="black"/>
<path d="M19.757 33.3719C19.7372 32.9768 19.724 32.5752 19.7043 32.1801C19.7043 32.1208 19.6977 32.0681 19.6977 32.0089C19.6911 31.8838 19.4936 31.8838 19.5002 32.0089C19.5199 32.404 19.5331 32.8056 19.5528 33.2007C19.5528 33.26 19.5594 33.3126 19.5594 33.3719C19.566 33.497 19.7636 33.5036 19.757 33.3719Z" fill="black"/>
<path d="M20.2259 44.1694C20.193 43.4714 20.1666 42.7668 20.1337 42.0689C20.1271 41.9701 20.1271 41.8713 20.1206 41.7725C20.114 41.6474 19.9164 41.6474 19.923 41.7725C19.9559 42.4705 19.9823 43.1751 20.0152 43.8731C20.0218 43.9718 20.0218 44.0706 20.0284 44.1694C20.035 44.2945 20.2325 44.2945 20.2259 44.1694Z" fill="black"/>
<path d="M20.2121 29.0713C19.9553 29.0713 19.6919 29.0713 19.4351 29.0713C19.3166 29.0713 19.1981 29.0713 19.0795 29.0713C19.0071 29.0713 18.9676 29.0779 18.9149 29.1305C18.7437 29.2952 18.5989 29.4861 18.4935 29.6968C18.2301 30.2302 18.2169 30.9479 18.5594 31.4484C18.9215 31.9817 19.6919 32.2188 20.2714 31.8961C20.7126 31.6525 20.943 31.1257 20.9825 30.6385C21.0286 30.0656 20.7257 29.473 20.2911 29.1042C20.1924 29.0252 20.0541 29.1635 20.1529 29.2425C20.4294 29.4795 20.6533 29.8154 20.7455 30.1709C20.8508 30.5726 20.7652 31.0204 20.5414 31.3694C20.3965 31.5998 20.1792 31.7644 19.9092 31.8171C19.6327 31.8764 19.3364 31.8105 19.0927 31.6723C18.6976 31.4484 18.5198 31.0138 18.5067 30.5726C18.4869 30.059 18.7174 29.5717 19.0927 29.2293C19.0664 29.2359 19.0466 29.2491 19.0203 29.2557C19.422 29.2557 19.8236 29.2557 20.2253 29.2622C20.3438 29.2688 20.3438 29.0713 20.2121 29.0713Z" fill="black"/>
<path d="M17.8683 23.5876C17.7366 23.3176 17.7103 23.0213 17.7695 22.725C17.73 22.7447 17.6905 22.7711 17.651 22.7908C18.0593 22.8501 18.4543 23.0015 18.7902 23.2517C19.1852 23.5481 19.4552 23.9563 19.6067 24.4238C19.712 24.7399 19.7384 25.0494 19.7384 25.3786C19.7384 25.5037 19.9359 25.5037 19.9359 25.3786C19.9359 25.0625 19.9162 24.7596 19.824 24.4568C19.7647 24.2592 19.6923 24.0617 19.5869 23.8773C19.3104 23.3637 18.8494 22.9752 18.3029 22.7579C18.1119 22.6789 17.9078 22.6262 17.6971 22.5999C17.6444 22.5933 17.5852 22.613 17.5786 22.6657C17.5061 23.0147 17.5391 23.3571 17.6971 23.6798C17.7564 23.8049 17.9276 23.6995 17.8683 23.5876Z" fill="black"/>
<path d="M21.7265 23.6527C21.7265 23.6988 21.7331 23.6527 21.7462 23.6329C21.7528 23.6132 21.766 23.5934 21.7726 23.5671C21.7923 23.521 21.8055 23.4749 21.8187 23.4288C21.845 23.3366 21.8582 23.2444 21.8713 23.1522C21.8845 23.0008 21.8713 22.8428 21.8384 22.6913C21.8318 22.6518 21.7857 22.6123 21.7462 22.6189C20.9495 22.7242 20.2252 23.172 19.8301 23.8766C19.7379 24.0346 19.672 24.2058 19.6128 24.377C19.5733 24.4955 19.7642 24.5482 19.8037 24.4297C19.9486 23.9688 20.2317 23.5539 20.6202 23.2642C20.9495 23.0206 21.3643 22.8625 21.7462 22.8098C21.7133 22.7835 21.6804 22.7638 21.654 22.7374C21.6804 22.8757 21.6935 23.0206 21.6804 23.1588C21.6738 23.2444 21.654 23.33 21.6277 23.4156C21.6145 23.4617 21.6014 23.5012 21.5816 23.5408C21.5684 23.5737 21.5421 23.6066 21.5421 23.6461C21.5289 23.7778 21.7265 23.7778 21.7265 23.6527Z" fill="black"/>
<path d="M22.5298 24.687C22.7142 24.2656 22.7537 23.8178 22.6615 23.37C22.6549 23.3305 22.6088 23.291 22.5693 23.2976C22.2401 23.3437 21.9174 23.4227 21.6014 23.5544C21.5619 23.5742 21.5289 23.6005 21.5289 23.6466C21.5553 23.6137 21.575 23.5807 21.6014 23.5544C21.0878 23.7717 20.6334 24.0944 20.2647 24.5158C20.0803 24.7265 19.9157 24.9635 19.7971 25.2203C19.7774 25.2533 19.7642 25.2928 19.7511 25.3257C19.7445 25.3389 19.7445 25.3586 19.7379 25.3784C19.7576 25.3257 19.7313 25.3784 19.7247 25.3915C19.6918 25.4706 19.6589 25.5562 19.6325 25.6418C19.5864 25.7932 19.5535 25.9381 19.5338 26.0961C19.4877 26.4188 19.4942 26.7414 19.5469 27.0575C19.5535 27.097 19.5996 27.1299 19.6391 27.1299C19.6852 27.1299 19.7313 27.1299 19.7774 27.1299C19.9025 27.1299 19.9025 26.9324 19.7774 26.9324C19.7313 26.9324 19.6852 26.9324 19.6391 26.9324C19.672 26.9587 19.705 26.9785 19.7313 27.0048C19.6918 26.748 19.6852 26.4846 19.7115 26.2278C19.7181 26.1488 19.7313 26.0698 19.7445 25.9973C19.7511 25.9578 19.7576 25.9183 19.7708 25.8788C19.7774 25.8591 19.7774 25.8393 19.784 25.8196C19.784 25.813 19.784 25.7998 19.7906 25.7932C19.7906 25.813 19.7906 25.8195 19.7906 25.8064C19.8169 25.7339 19.8367 25.6549 19.863 25.5825C19.8762 25.5496 19.8893 25.5167 19.8959 25.4837C19.9025 25.464 19.9091 25.4442 19.9157 25.4311C19.9223 25.4179 19.9288 25.4047 19.9288 25.3915C19.9288 25.3718 19.9288 25.3718 19.9288 25.3981C19.9683 25.3389 19.9881 25.2664 20.021 25.2072C20.0539 25.1413 20.0935 25.0755 20.133 25.0096C20.1988 24.9043 20.2712 24.8055 20.3503 24.7067C20.482 24.5487 20.6334 24.3972 20.7914 24.259C21.0417 24.0417 21.3314 23.8705 21.6409 23.7388C21.6804 23.719 21.7133 23.6927 21.7133 23.6466C21.687 23.6795 21.6672 23.7124 21.6409 23.7388C21.9306 23.6203 22.2401 23.5346 22.5561 23.4886C22.5232 23.4622 22.4903 23.4425 22.464 23.4161C22.543 23.8046 22.5101 24.2129 22.352 24.575C22.3059 24.7001 22.4771 24.8055 22.5298 24.687Z" fill="black"/>
<path d="M19.8031 25.7791C19.5134 24.7255 18.7034 23.8827 17.696 23.4942C17.4326 23.3954 17.156 23.323 16.8795 23.2834C16.8268 23.2769 16.7675 23.2966 16.7609 23.3493C16.6622 23.8168 16.7083 24.2843 16.9124 24.7189C16.9651 24.8309 17.1363 24.7321 17.0836 24.6202C16.9058 24.2382 16.8663 23.8102 16.9519 23.402C16.9124 23.4217 16.8729 23.4481 16.8334 23.4678C17.9067 23.6193 18.868 24.2448 19.3751 25.2128C19.4804 25.4103 19.566 25.6144 19.6253 25.8317C19.645 25.9569 19.836 25.9042 19.8031 25.7791Z" fill="black"/>
<path d="M19.7197 27.5108C20.0621 26.2531 21.0761 25.2456 22.2811 24.7978C22.6104 24.6727 22.9528 24.5871 23.3018 24.541C23.2688 24.5147 23.2359 24.4949 23.2096 24.4686C23.3083 24.9427 23.2754 25.4366 23.0976 25.8843C22.9462 26.2662 22.7026 26.6086 22.426 26.905C22.2285 27.1091 22.0112 27.3 21.7807 27.4581C21.5502 27.6161 21.2934 27.7281 21.0498 27.8663C20.8325 27.9849 20.6284 28.1231 20.4703 28.3207C20.2925 28.538 20.174 28.8014 20.1148 29.0779C20.1477 29.0516 20.1806 29.0318 20.2069 29.0055C19.9831 29.0055 19.7592 29.0055 19.5419 29.0055C19.5748 29.0384 19.6077 29.0713 19.6407 29.1043C19.6077 29.1372 19.5748 29.1701 19.5419 29.203C19.588 29.203 19.6341 29.203 19.6867 29.203C19.7263 29.203 19.7723 29.1701 19.7789 29.1306C19.8579 28.6697 19.8579 28.2022 19.7789 27.7412C19.7592 27.6161 19.5682 27.6688 19.588 27.7939C19.6604 28.2153 19.6604 28.6499 19.588 29.0779C19.6209 29.0516 19.6538 29.0318 19.6802 29.0055C19.6341 29.0055 19.588 29.0055 19.5353 29.0055C19.4826 29.0055 19.4365 29.0516 19.4365 29.1043C19.4365 29.1569 19.4826 29.203 19.5353 29.203C19.7592 29.203 19.9831 29.203 20.2004 29.203C20.2399 29.203 20.286 29.1701 20.2925 29.1306C20.3452 28.887 20.444 28.6433 20.602 28.4524C20.7469 28.2812 20.9247 28.1561 21.1222 28.0441C21.3724 27.9058 21.6358 27.7939 21.8663 27.6293C22.4392 27.2276 22.9528 26.6877 23.2293 26.0358C23.4466 25.5222 23.4927 24.9625 23.3808 24.4159C23.3742 24.3764 23.3281 24.3369 23.2886 24.3435C21.998 24.5147 20.8061 25.1995 20.0621 26.2728C19.8119 26.635 19.6275 27.0367 19.509 27.4581C19.4958 27.5832 19.6867 27.6359 19.7197 27.5108Z" fill="black"/>
<path d="M19.5463 29.006C19.3685 29.006 19.1973 29.006 19.0195 29.006C19.0524 29.0323 19.0854 29.0521 19.1117 29.0784C19.0129 28.6043 18.7496 28.2026 18.3347 27.9458C18.0647 27.7812 17.7684 27.6627 17.5116 27.4849C16.9717 27.1161 16.4976 26.6091 16.221 26.0165C15.9905 25.5226 15.9445 24.9695 16.0564 24.4427C16.0169 24.4625 15.9774 24.4888 15.9379 24.5086C17.2416 24.6864 18.4664 25.437 19.138 26.5762C19.3619 26.9515 19.5134 27.3598 19.5858 27.7878C19.6056 27.9129 19.7965 27.8602 19.7768 27.7351C19.5265 26.3391 18.4664 25.1802 17.1758 24.6403C16.7939 24.4822 16.3922 24.3703 15.984 24.3176C15.9313 24.311 15.872 24.3308 15.8654 24.3835C15.7601 24.8707 15.7733 25.3712 15.9379 25.8453C16.0761 26.247 16.3132 26.6091 16.5898 26.9252C16.8005 27.1622 17.0375 27.3795 17.2943 27.5639C17.4984 27.7154 17.7157 27.8273 17.9462 27.9458C18.1635 28.0578 18.3808 28.1829 18.552 28.3672C18.7495 28.578 18.8615 28.8479 18.9208 29.1245C18.9273 29.164 18.9734 29.1969 19.0129 29.1969C19.1907 29.1969 19.3619 29.1969 19.5397 29.1969C19.6714 29.2035 19.6714 29.006 19.5463 29.006Z" fill="black"/>
<path d="M10.1451 32.5688C10.2373 32.931 10.3294 33.2997 10.4216 33.6619C10.5731 34.2611 10.7245 34.8537 10.876 35.4529C11.0603 36.1838 11.2447 36.9148 11.4357 37.6457C11.5279 37.9947 11.6135 38.3436 11.7056 38.6992C11.8505 39.2655 11.9954 39.8252 12.1337 40.3915C12.1402 40.4112 12.1402 40.431 12.1468 40.4508C12.1797 40.5759 12.3707 40.5232 12.3378 40.3981C12.1929 39.8384 12.0546 39.2787 11.9098 38.719C11.8308 38.4161 11.7583 38.1132 11.6793 37.8169C11.5015 37.1057 11.3171 36.3946 11.1394 35.6834C10.9747 35.0447 10.8167 34.406 10.6521 33.7673C10.5533 33.3919 10.4611 33.0166 10.3624 32.6413C10.3558 32.6018 10.3426 32.5688 10.336 32.5293C10.3097 32.3976 10.1187 32.4503 10.1451 32.5688Z" fill="black"/>
<path d="M8.90578 30.0799C9.28769 29.968 9.67619 29.8561 10.0581 29.7441C10.0318 29.7375 10.0054 29.7375 9.97909 29.731C10.3281 29.9022 10.6244 30.1853 10.7956 30.5343C10.8944 30.7318 10.947 30.9623 10.9602 31.1796C10.9668 31.3179 10.9536 31.4627 10.9207 31.601C10.901 31.6734 10.8746 31.7459 10.8351 31.8183C10.8154 31.8578 10.7956 31.8907 10.7693 31.9237C10.7561 31.9434 10.7429 31.9632 10.7298 31.9829C10.7232 31.9961 10.7495 31.9632 10.7363 31.9763C10.4532 32.3319 9.98568 32.5426 9.53791 32.3978C9.18234 32.2792 8.91895 31.9566 8.7675 31.6208C8.53703 31.1137 8.66214 30.4816 8.96504 30.0273C9.03747 29.9219 8.86627 29.8231 8.79384 29.9285C8.4646 30.4223 8.33949 31.1006 8.56996 31.6537C8.75433 32.1015 9.13624 32.536 9.6301 32.6216C10.1898 32.7204 10.7693 32.3912 11.0195 31.8907C11.3026 31.3179 11.138 30.587 10.7561 30.0997C10.5915 29.889 10.3808 29.7178 10.1437 29.5861C10.1174 29.5729 10.0844 29.5532 10.0581 29.5466C9.99226 29.5334 9.90666 29.5729 9.8474 29.5927C9.78813 29.6124 9.72229 29.6256 9.66302 29.6453C9.39305 29.7244 9.12308 29.8034 8.8531 29.8824C8.72799 29.9219 8.78067 30.1129 8.90578 30.0799Z" fill="black"/>
<path d="M9.80266 24.0213C9.86192 23.6723 9.80266 23.3299 9.63804 23.0138C9.6117 22.9611 9.55244 22.9545 9.49976 22.9809C9.11126 23.1521 8.76227 23.4155 8.50546 23.7447C8.16306 24.1793 7.99186 24.6995 7.9721 25.246C7.96552 25.4172 7.9721 25.5884 7.99844 25.753C8.01161 25.8386 8.02478 25.9242 8.04453 26.0098C8.0577 26.0494 8.06429 26.0954 8.07746 26.135C8.08404 26.1613 8.11038 26.214 8.11038 26.2271C8.11038 26.3523 8.30792 26.3523 8.30792 26.2271C8.30792 26.1745 8.275 26.1086 8.26183 26.0559C8.24208 25.9901 8.22891 25.9177 8.21574 25.8518C8.18281 25.7004 8.16964 25.5423 8.16964 25.3843C8.16964 25.1736 8.18281 24.9629 8.23549 24.7587C8.3606 24.2188 8.68325 23.7447 9.13101 23.422C9.28246 23.3167 9.4405 23.2245 9.6117 23.1455C9.56561 23.1323 9.51951 23.1191 9.47342 23.1126C9.6117 23.376 9.66438 23.6723 9.61829 23.9686C9.59195 24.0937 9.7829 24.1464 9.80266 24.0213Z" fill="black"/>
<path d="M6.08219 24.9899C5.88465 24.7661 5.76612 24.4895 5.74637 24.1932C5.72003 24.2261 5.70028 24.259 5.67394 24.2854C6.10853 24.2195 6.58263 24.2722 6.99089 24.4566C7.39914 24.6344 7.74154 24.9307 7.98518 25.306C8.05103 25.4114 8.22223 25.3126 8.15638 25.2072C7.70862 24.5158 6.94479 24.0944 6.1217 24.0681C5.95708 24.0615 5.78588 24.0747 5.62126 24.101C5.58175 24.1076 5.54883 24.1603 5.54883 24.1932C5.57517 24.5488 5.70686 24.8648 5.94391 25.1282C6.02951 25.2204 6.16779 25.0821 6.08219 24.9899Z" fill="black"/>
<path d="M5.56721 26.1609C5.3104 25.8514 5.17212 25.4695 5.1392 25.0744C5.11286 25.1073 5.09311 25.1402 5.06677 25.1666C5.93595 25.0349 6.82489 25.2456 7.54263 25.746C7.76651 25.9041 7.96405 26.0884 8.14184 26.2991C8.13525 26.2728 8.12208 26.2531 8.1155 26.2267C8.1155 26.2926 8.18793 26.3518 8.22744 26.4045C8.25378 26.444 8.28012 26.4769 8.30646 26.5164C8.31963 26.5362 8.32621 26.5494 8.33938 26.5691C8.34596 26.5757 8.35255 26.5889 8.35255 26.5955C8.35255 26.5889 8.35255 26.5823 8.35255 26.5757C8.35913 26.5823 8.36572 26.6218 8.36572 26.6284C8.3723 26.635 8.37889 26.6481 8.37889 26.6547C8.39864 26.6876 8.4184 26.7272 8.43815 26.7601C8.45132 26.7798 8.4579 26.8062 8.47107 26.8259C8.47107 26.8193 8.47107 26.8128 8.47107 26.8062C8.47107 26.8128 8.47107 26.8259 8.47766 26.8325C8.49083 26.872 8.51717 26.9181 8.53692 26.9576C8.64886 27.2144 8.7213 27.491 8.75422 27.7741C8.78056 27.7412 8.80031 27.7083 8.82665 27.6819C8.78056 27.6951 8.73447 27.7083 8.69496 27.7214C8.57643 27.7544 8.62252 27.9453 8.74763 27.9124C8.79373 27.8992 8.83982 27.8861 8.87933 27.8729C8.91884 27.8597 8.95835 27.8202 8.95176 27.7807C8.91884 27.4976 8.85299 27.2144 8.74105 26.9445C8.72788 26.9049 8.70813 26.872 8.69496 26.8325C8.68837 26.8193 8.65545 26.7732 8.6752 26.8128C8.66862 26.7996 8.66862 26.7798 8.66203 26.7601C8.65545 26.7403 8.55668 26.5362 8.54351 26.5428C8.53034 26.5494 8.56985 26.6152 8.55009 26.5559C8.53692 26.5362 8.53034 26.5164 8.51717 26.4901C8.49741 26.4572 8.47107 26.4243 8.45132 26.3847C8.39864 26.3123 8.34596 26.2399 8.2867 26.1674C8.29329 26.1938 8.30646 26.2135 8.31304 26.2399C8.31304 26.1806 8.26036 26.1411 8.22744 26.1016C8.18135 26.0489 8.12867 25.9962 8.07599 25.9436C7.9838 25.8514 7.89162 25.7724 7.79285 25.6934C7.6414 25.5748 7.47678 25.4695 7.31216 25.3773C6.83806 25.1205 6.31128 24.9756 5.77133 24.9493C5.52111 24.9361 5.27089 24.9493 5.02067 24.9888C4.98117 24.9954 4.94824 25.048 4.94824 25.081C4.98117 25.5353 5.14578 25.9567 5.43551 26.3057C5.50794 26.3979 5.64622 26.2596 5.56721 26.1609Z" fill="black"/>
<path d="M10.8496 24.799C10.9286 24.3249 10.843 23.8639 10.6191 23.4425C10.5928 23.3898 10.5335 23.3832 10.4809 23.4096C9.44706 23.8639 8.65689 24.7792 8.41984 25.892C8.36716 26.1291 8.34082 26.3727 8.34082 26.6163C8.34082 26.7415 8.53836 26.7415 8.53836 26.6163C8.53836 25.576 9.05856 24.5817 9.89482 23.9759C10.1055 23.8244 10.336 23.6927 10.573 23.5874C10.527 23.5742 10.4809 23.561 10.4348 23.5544C10.6323 23.9232 10.7113 24.3446 10.6455 24.7594C10.6389 24.8714 10.8299 24.9241 10.8496 24.799Z" fill="black"/>
<path d="M9.0842 28.2024C9.0842 28.1234 8.9986 28.0312 8.95251 27.9719C8.89983 27.8929 8.84057 27.8139 8.7813 27.7414C8.65619 27.5834 8.5245 27.4385 8.37964 27.3069C8.14917 27.0961 7.89895 26.9118 7.62898 26.7603C7.02977 26.4113 6.36471 26.2006 5.67331 26.1479C5.31115 26.1216 4.9424 26.1348 4.58024 26.1874C4.54074 26.194 4.50781 26.2467 4.50781 26.2796C4.54074 26.7735 4.69877 27.2608 4.9885 27.6624C5.23213 28.0048 5.5482 28.2814 5.90378 28.5053C6.17375 28.6765 6.45689 28.8148 6.75321 28.9267C6.99026 29.0123 7.22731 29.065 7.47753 29.1111C7.73433 29.1637 7.98455 29.2164 8.20843 29.3547C8.44548 29.4996 8.62986 29.7234 8.76155 29.9671C8.78131 30.0066 8.83398 30.0263 8.87349 30.0132C9.09079 29.9539 9.3015 29.8881 9.5188 29.8288C9.64391 29.7959 9.59123 29.6049 9.46612 29.6378C9.24882 29.6971 9.03811 29.763 8.82081 29.8222C8.86032 29.8354 8.89324 29.8551 8.93275 29.8683C8.70887 29.4337 8.33354 29.1242 7.85944 28.9991C7.55654 28.9135 7.24048 28.8872 6.93758 28.7884C6.3252 28.5843 5.72599 28.2353 5.29798 27.748C4.93582 27.3398 4.73169 26.8196 4.69877 26.2796C4.67243 26.3126 4.65268 26.3455 4.62634 26.3718C5.84451 26.194 7.13512 26.5233 8.08332 27.3134C8.23477 27.4385 8.37305 27.5768 8.50475 27.7283C8.57059 27.8073 8.63644 27.8863 8.70229 27.9719C8.72863 28.0114 8.76155 28.0509 8.78789 28.097C8.80106 28.1168 8.81423 28.1365 8.8274 28.1629C8.84057 28.176 8.87349 28.2616 8.87349 28.2024C8.88666 28.3275 9.0842 28.3275 9.0842 28.2024Z" fill="black"/>
<path d="M9.4538 29.7242C9.01921 28.8155 8.97312 27.7685 9.32211 26.8269C9.61184 26.0433 10.1452 25.3453 10.8234 24.8449C11.1 24.6408 11.4029 24.4696 11.719 24.3313C11.6729 24.3181 11.6268 24.3049 11.5807 24.2984C11.798 24.7 11.9033 25.1544 11.8836 25.6087C11.8572 26.0367 11.7255 26.4582 11.528 26.8401C11.3897 27.1035 11.2317 27.3603 11.0407 27.5907C10.8564 27.8146 10.6325 27.999 10.4283 28.2097C10.2571 28.3809 10.1189 28.5719 10.0267 28.7957C9.9279 29.046 9.8884 29.3225 9.91473 29.5925C9.94107 29.5596 9.96083 29.5266 9.98717 29.5003C9.77645 29.5596 9.55916 29.6254 9.34845 29.6847C9.22334 29.7176 9.27601 29.9086 9.40112 29.8756C9.61184 29.8164 9.82913 29.7505 10.0398 29.6913C10.0794 29.6781 10.1189 29.6386 10.1123 29.5991C10.0925 29.3554 10.1189 29.1118 10.211 28.8813C10.2901 28.6838 10.4218 28.5126 10.5732 28.3546C10.7773 28.1438 11.0078 27.9595 11.1922 27.729C11.6531 27.1561 12.0087 26.4582 12.0745 25.7207C12.1272 25.1939 12.0021 24.6737 11.7519 24.2062C11.7255 24.1535 11.6663 24.1469 11.6136 24.1733C10.8893 24.4893 10.2506 24.9832 9.77645 25.6153C9.21675 26.3528 8.86776 27.2681 8.88752 28.1965C8.90068 28.7628 9.03896 29.3225 9.2826 29.8361C9.33528 29.9415 9.50648 29.8361 9.4538 29.7242Z" fill="black"/>
<path d="M29.39 32.6469C29.3637 32.7522 29.3373 32.8576 29.311 32.9564C29.2386 33.2395 29.1661 33.5161 29.0937 33.7992C28.9883 34.2141 28.883 34.6355 28.771 35.0503C28.6393 35.5573 28.5142 36.0644 28.3825 36.5714C28.2377 37.1311 28.0994 37.6908 27.9545 38.2439C27.8097 38.8102 27.6648 39.3699 27.5199 39.9362C27.3882 40.4564 27.25 40.9832 27.1183 41.5034C27.0063 41.9445 26.8878 42.3923 26.7759 42.8335C26.6968 43.1495 26.6112 43.4722 26.5322 43.7883C26.4927 43.9397 26.4532 44.0912 26.4137 44.2426C26.4137 44.2492 26.4071 44.2558 26.4071 44.2624C26.3742 44.3875 26.5652 44.4401 26.5981 44.315C26.6244 44.2097 26.6508 44.1043 26.6771 44.0056C26.7495 43.7224 26.822 43.4459 26.8944 43.1627C26.9997 42.7479 27.1051 42.3264 27.217 41.9116C27.3487 41.4046 27.4738 40.8976 27.6055 40.3905C27.7504 39.8308 27.8887 39.2711 28.0336 38.718C28.1784 38.1517 28.3233 37.592 28.4681 37.0257C28.5998 36.5055 28.7381 35.9788 28.8698 35.4586C28.9817 35.0174 29.1003 34.5696 29.2122 34.1285C29.2912 33.8124 29.3768 33.4897 29.4559 33.1737C29.4954 33.0222 29.5349 32.8708 29.5744 32.7193C29.5744 32.7127 29.581 32.7062 29.581 32.6996C29.6139 32.581 29.4229 32.5284 29.39 32.6469Z" fill="black"/>
<path d="M30.8791 30.02C30.6421 29.9542 30.3984 29.8818 30.1614 29.8159C30.0494 29.783 29.9309 29.7501 29.819 29.7171C29.74 29.6974 29.6939 29.6776 29.6214 29.7171C29.4371 29.8093 29.2659 29.941 29.121 30.0859C28.693 30.5073 28.4625 31.179 28.614 31.7716C28.7523 32.3181 29.2724 32.7527 29.8387 32.779C30.405 32.8054 30.866 32.3971 31.103 31.9164C31.3927 31.337 31.294 30.5995 30.9384 30.0661C30.866 29.9608 30.6948 30.0596 30.7672 30.1649C31.0174 30.5402 31.1491 31.0473 31.0503 31.495C30.9647 31.8835 30.7013 32.272 30.3523 32.463C29.898 32.7132 29.3646 32.5354 29.0354 32.1733C29.0222 32.1535 29.0025 32.1337 28.9893 32.1206C28.9827 32.114 28.9761 32.1074 28.9959 32.1272C28.9893 32.114 28.9761 32.1008 28.9696 32.0877C28.9432 32.0481 28.9169 32.002 28.8905 31.956C28.8181 31.8177 28.7786 31.6662 28.7654 31.5148C28.7523 31.3041 28.7852 31.0868 28.8444 30.8892C28.9827 30.4415 29.3317 30.0793 29.7466 29.8752C29.7202 29.8818 29.6939 29.8818 29.6675 29.8883C30.0494 30.0003 30.4379 30.1122 30.8199 30.2242C30.945 30.2439 30.9976 30.053 30.8791 30.02Z" fill="black"/>
<path d="M30.1232 24.1005C30.0771 23.8042 30.1298 23.5079 30.2681 23.2445C30.222 23.2577 30.1759 23.2708 30.1298 23.2774C30.4854 23.4354 30.808 23.6725 31.0516 23.9688C31.3809 24.3705 31.5389 24.8643 31.5587 25.3779C31.5653 25.503 31.7628 25.503 31.7562 25.3779C31.7365 24.9697 31.6443 24.568 31.4467 24.2124C31.2426 23.8437 30.9463 23.5342 30.5973 23.3103C30.4788 23.2313 30.3537 23.1655 30.222 23.1062C30.1759 23.0864 30.1166 23.093 30.0837 23.1391C29.9191 23.4552 29.8664 23.791 29.9191 24.1466C29.952 24.2783 30.1429 24.2256 30.1232 24.1005Z" fill="black"/>
<path d="M31.3733 26.5625C31.3733 26.3255 31.4458 26.0687 31.5314 25.8514C31.617 25.6275 31.7421 25.4168 31.8935 25.239C32.2623 24.7912 32.7956 24.4883 33.3751 24.4159C33.599 24.3896 33.8426 24.3896 34.0599 24.4225C34.0336 24.3896 34.0138 24.3566 33.9875 24.3303C33.9677 24.6266 33.8492 24.9032 33.6516 25.1271C33.566 25.2192 33.7043 25.3641 33.7899 25.2653C34.027 25.0019 34.1587 24.6793 34.185 24.3303C34.185 24.2908 34.1521 24.2381 34.1126 24.2381C33.5595 24.1591 32.9866 24.2381 32.4861 24.5081C32.012 24.7649 31.6235 25.1797 31.3997 25.6736C31.2746 25.9502 31.1758 26.2728 31.1758 26.5823C31.1758 26.6942 31.3733 26.6942 31.3733 26.5625Z" fill="black"/>
<path d="M31.3596 26.7674C31.3662 26.7542 31.3728 26.741 31.3794 26.7279C31.3794 26.7213 31.3794 26.7081 31.386 26.7015C31.386 26.7081 31.386 26.7147 31.386 26.7213C31.4255 26.6883 31.4518 26.6225 31.4782 26.583C31.5045 26.5435 31.5374 26.504 31.5703 26.4645C31.5967 26.4315 31.623 26.4052 31.623 26.3591C31.6164 26.3855 31.6033 26.4052 31.5967 26.4315C32.1827 25.727 33.0782 25.3056 33.9869 25.266C34.2174 25.2529 34.4413 25.266 34.6718 25.299C34.6454 25.266 34.6257 25.2331 34.5993 25.2068C34.573 25.6085 34.4281 25.9838 34.1713 26.2933C34.0923 26.392 34.2306 26.5303 34.3096 26.4315C34.5993 26.076 34.7639 25.6611 34.7969 25.2068C34.7969 25.1673 34.7639 25.1146 34.7244 25.1146C33.7828 24.9763 32.8017 25.1936 32.0313 25.7599C31.9193 25.8389 31.814 25.9245 31.7152 26.0167C31.6559 26.0694 31.5967 26.1286 31.544 26.1879C31.5045 26.234 31.4255 26.2933 31.4255 26.3591C31.4321 26.3328 31.4452 26.313 31.4518 26.2867C31.3926 26.3591 31.3399 26.4315 31.2872 26.504C31.2609 26.5435 31.2345 26.583 31.2148 26.6225C31.2082 26.6423 31.195 26.6554 31.1884 26.6752C31.1555 26.7542 31.2082 26.6357 31.1884 26.6686C31.1292 26.7805 31.2938 26.8793 31.3596 26.7674Z" fill="black"/>
<path d="M31.1745 27.8992C31.1943 27.8795 31.1943 27.8531 31.2009 27.8268C31.1943 27.8466 31.2075 27.8268 31.2075 27.8202C31.214 27.8136 31.214 27.8005 31.2206 27.7873C31.2338 27.7412 31.247 27.7017 31.2601 27.6556C31.2865 27.5568 31.3062 27.4581 31.326 27.3593C31.3589 27.1552 31.3787 26.9444 31.3787 26.7403C31.3787 26.6152 31.1811 26.6152 31.1811 26.7403C31.1811 26.9313 31.168 27.1222 31.135 27.3066C31.1219 27.3988 31.1021 27.4844 31.0758 27.5766C31.0626 27.6161 31.056 27.6622 31.0428 27.7017C31.0297 27.7412 31.0099 27.7873 31.0099 27.8268C31.0165 27.8005 31.0297 27.7807 31.0363 27.7544C30.9441 27.8466 31.0824 27.9848 31.1745 27.8992Z" fill="black"/>
<path d="M31.3786 26.7022C31.3786 25.6157 30.8189 24.5951 29.9563 23.9498C29.7324 23.7851 29.4888 23.6469 29.2386 23.5349C29.1925 23.5152 29.1332 23.5217 29.1003 23.5678C28.8764 23.9893 28.7974 24.4568 28.8698 24.9243C28.8896 25.0494 29.0805 24.9967 29.0608 24.8716C28.9949 24.4568 29.074 24.0354 29.2715 23.6666C29.2254 23.6798 29.1793 23.6929 29.1332 23.6995C30.1078 24.1275 30.8518 24.9704 31.0889 26.0174C31.1416 26.2412 31.1679 26.4717 31.1679 26.7022C31.1811 26.8339 31.3786 26.8339 31.3786 26.7022Z" fill="black"/>
<path d="M30.2006 29.9613C30.4113 30.0206 30.6286 30.0864 30.8393 30.1457C30.8788 30.1589 30.9315 30.1391 30.9513 30.0996C31.0632 29.8823 31.2212 29.6848 31.4188 29.5399C31.6097 29.4016 31.8336 29.3292 32.0575 29.2765C32.3341 29.2172 32.6106 29.1777 32.8806 29.079C33.5391 28.8485 34.1778 28.4666 34.619 27.9266C34.9745 27.492 35.1655 26.9653 35.205 26.4056C35.205 26.3661 35.1721 26.3134 35.1326 26.3134C33.9539 26.1422 32.7489 26.4056 31.7678 27.0904C31.6295 27.1891 31.4912 27.2945 31.3661 27.4064C31.2937 27.4723 31.2278 27.5381 31.1554 27.6106C31.1027 27.6633 30.9908 27.7489 30.9908 27.8279C30.9974 27.8015 31.0105 27.7818 31.0171 27.7554C30.9381 27.8345 30.8722 27.9332 30.8064 28.0254C30.7735 28.0715 30.7405 28.1242 30.7076 28.1769C30.6813 28.223 30.6286 28.2756 30.6286 28.3349C30.6286 28.46 30.8261 28.46 30.8261 28.3349C30.8261 28.3876 30.8525 28.3217 30.8591 28.302C30.8722 28.2756 30.892 28.2493 30.9118 28.223C30.9447 28.1703 30.9842 28.1176 31.0237 28.0649C31.0566 28.0188 31.0961 27.9727 31.1356 27.9266C31.162 27.8937 31.1949 27.8674 31.1949 27.8213C31.1883 27.8476 31.1751 27.8674 31.1686 27.8937C31.9126 27.0311 33.0255 26.5241 34.158 26.4582C34.4675 26.4451 34.777 26.4517 35.0799 26.4978C35.0536 26.4648 35.0338 26.4319 35.0075 26.4056C34.9745 26.8928 34.8099 27.3604 34.5136 27.7423C34.27 28.0649 33.9473 28.3217 33.6049 28.5259C33.3613 28.6707 33.0979 28.7958 32.8345 28.888C32.5711 28.9802 32.2945 29.0197 32.0246 29.079C31.7744 29.1316 31.5241 29.2172 31.3134 29.3687C31.0895 29.5333 30.9118 29.744 30.7801 29.9877C30.8196 29.9745 30.8525 29.9547 30.892 29.9416C30.6813 29.8823 30.464 29.8165 30.2533 29.7572C30.1348 29.7374 30.0821 29.9284 30.2006 29.9613Z" fill="black"/>
<path d="M30.6481 28.3282C30.6481 28.8484 30.5098 29.3817 30.2794 29.8558C30.3189 29.8427 30.3518 29.8229 30.3913 29.8098C30.1806 29.7505 29.9633 29.6846 29.7526 29.6254C29.7789 29.6583 29.7987 29.6912 29.825 29.7176C29.8579 29.2501 29.7263 28.8023 29.4168 28.4533C29.2061 28.2097 28.9427 28.0121 28.732 27.7685C28.2974 27.2549 27.955 26.5964 27.8694 25.9182C27.8035 25.4046 27.9089 24.891 28.1525 24.43C28.1064 24.4432 28.0603 24.4564 28.0142 24.463C29.1534 24.9634 30.0818 25.9248 30.4637 27.1166C30.5889 27.5117 30.6547 27.9199 30.6481 28.3282C30.6481 28.4533 30.8457 28.4533 30.8457 28.3282C30.8654 26.9849 30.1674 25.6943 29.1139 24.8844C28.8044 24.6473 28.4686 24.4432 28.113 24.2917C28.0669 24.272 28.0076 24.2786 27.9747 24.3247C27.7574 24.7329 27.6323 25.1939 27.6455 25.6614C27.6586 26.1091 27.7838 26.5437 27.9747 26.952C28.113 27.2483 28.2908 27.5314 28.4949 27.7882C28.6595 27.999 28.8571 28.1767 29.048 28.3611C29.2192 28.5257 29.3838 28.7035 29.4892 28.9208C29.6077 29.171 29.6407 29.4476 29.6209 29.7176C29.6143 29.7637 29.6538 29.8032 29.6933 29.8098C29.904 29.869 30.1213 29.9349 30.332 29.9941C30.3716 30.0073 30.4242 29.9875 30.444 29.948C30.6876 29.4476 30.8391 28.8813 30.8391 28.3216C30.8457 28.2031 30.6481 28.2031 30.6481 28.3282Z" fill="black"/>
<path d="M7.34598 42.2736C7.34598 42.2604 7.34598 42.2472 7.33939 42.2341C7.33281 42.2209 7.32622 42.2143 7.31964 42.2011C7.31305 42.1946 7.29988 42.188 7.28672 42.1814C7.27355 42.1748 7.26038 42.1748 7.24721 42.1748C7.24062 42.1748 7.22745 42.1748 7.22087 42.1814C7.20111 42.188 7.18795 42.1946 7.17478 42.2077C7.16819 42.2143 7.16161 42.2209 7.16161 42.2275C7.15502 42.2407 7.14844 42.2604 7.14844 42.2802C7.14844 42.2933 7.14844 42.3065 7.15502 42.3197C7.16161 42.3328 7.16819 42.3394 7.17478 42.3526C7.18136 42.3592 7.19453 42.3658 7.2077 42.3723C7.22087 42.3789 7.23404 42.3789 7.24721 42.3789C7.25379 42.3789 7.26696 42.3789 7.27355 42.3723C7.2933 42.3658 7.30647 42.3592 7.31964 42.346C7.32622 42.3394 7.33281 42.3328 7.33281 42.3263C7.34598 42.3065 7.34598 42.2867 7.34598 42.2736Z" fill="black"/>
<path d="M7.10154 41.6611C6.91717 41.2199 6.7328 40.7721 6.54843 40.331C6.52209 40.2651 6.49575 40.2058 6.46941 40.14C6.44965 40.0873 6.40356 40.0544 6.35088 40.0742C6.30479 40.0873 6.2587 40.1466 6.28504 40.1927C6.46941 40.6339 6.65378 41.0816 6.83815 41.5228C6.86449 41.5886 6.89083 41.6479 6.91717 41.7138C6.93692 41.7664 6.98302 41.7994 7.0357 41.7796C7.08179 41.773 7.1213 41.7138 7.10154 41.6611Z" fill="black"/>
<path d="M7.1211 38.3159C7.31864 39.0204 6.9499 39.7711 6.2585 40.0147C5.59344 40.2452 4.84937 39.9291 4.55305 39.297C4.37527 38.9217 4.44111 38.5332 4.48062 38.1381C4.52671 37.7035 4.57939 37.2623 4.62548 36.8277C4.64524 36.6433 4.66499 36.4656 4.68475 36.2812C4.69133 36.2483 4.69133 36.2219 4.69792 36.189C4.69792 36.1758 4.7045 36.1561 4.7045 36.1429C4.69792 36.1758 4.71109 36.1166 4.71109 36.1034C4.71109 36.0902 4.71767 36.0639 4.71109 36.0902C4.71109 36.0639 4.71767 36.0441 4.71767 36.0178C4.66499 36.0441 4.6189 36.0771 4.56622 36.1034C4.57939 36.11 4.59256 36.1231 4.60573 36.1297C4.56622 36.1034 4.62549 36.1429 4.6189 36.1429C4.63207 36.1495 4.64524 36.1561 4.65841 36.1561C4.68475 36.1627 4.67816 36.1561 4.63207 36.1495C4.63207 36.1495 4.59915 36.1231 4.64524 36.1627C4.65182 36.1692 4.65841 36.1692 4.66499 36.1758C4.67816 36.189 4.69792 36.2022 4.71109 36.2087C4.81644 36.2812 4.91521 36.11 4.80986 36.0375C4.7901 36.0244 4.77035 36.0046 4.7506 35.9915C4.77693 36.0112 4.73743 35.9783 4.73084 35.9783C4.71109 35.9651 4.69792 35.9585 4.67158 35.9585C4.69792 35.9651 4.71767 35.9783 4.74401 35.9849C4.71767 35.9651 4.69792 35.9519 4.67158 35.9322C4.60573 35.8795 4.52671 35.9519 4.52013 36.0178C4.52013 36.0375 4.51355 36.0639 4.52013 36.0441C4.52013 36.0639 4.51354 36.0836 4.51354 36.1034C4.51354 36.11 4.51354 36.1166 4.51354 36.1231C4.52013 36.0836 4.50696 36.1627 4.51354 36.1429C4.51354 36.1627 4.50696 36.1758 4.50696 36.1956C4.50696 36.2219 4.50038 36.2483 4.50038 36.2746C4.48062 36.4392 4.46087 36.5972 4.4477 36.7619C4.39502 37.2228 4.34234 37.6837 4.28966 38.1447C4.27649 38.2764 4.26333 38.4081 4.24357 38.5397C4.21065 38.8492 4.25674 39.1521 4.39502 39.4353C4.72426 40.0937 5.49467 40.4427 6.20582 40.2584C6.60749 40.153 6.96307 39.883 7.17378 39.5209C7.39107 39.1455 7.43717 38.6978 7.31864 38.2829C7.27913 38.1447 7.08818 38.1908 7.1211 38.3159Z" fill="black"/>
<path d="M7.95174 35.5487C8.62997 35.8253 8.96579 36.5957 8.72874 37.2871C8.50486 37.9258 7.81346 38.3143 7.1484 38.176C6.87184 38.1168 6.63479 37.9785 6.43725 37.781C6.35165 37.6954 6.26605 37.6098 6.17386 37.5176C5.85779 37.2015 5.54831 36.892 5.23225 36.576C5.0347 36.3784 4.83716 36.1809 4.6462 35.9899C4.63303 36.0426 4.61986 36.1019 4.60011 36.1545C4.61328 36.148 4.63303 36.1479 4.6462 36.1414C4.65279 36.1414 4.65279 36.1414 4.65937 36.1348C4.69888 36.1216 4.63303 36.1414 4.67254 36.1282C4.70547 36.1216 4.73839 36.115 4.77131 36.1019C4.89642 36.0689 4.84375 35.878 4.71864 35.9109C4.69888 35.9175 4.67913 35.9175 4.65937 35.9241C4.65279 35.9241 4.6462 35.9241 4.63962 35.9307C4.68571 35.9241 4.61328 35.9372 4.63962 35.9307C4.6067 35.9372 4.57377 35.9438 4.54743 35.957C4.475 35.9767 4.44866 36.0689 4.50134 36.1216C5.01495 36.6352 5.52856 37.1488 6.04217 37.6559C6.12777 37.7415 6.21337 37.8271 6.30556 37.9127C6.53602 38.1431 6.82575 38.3012 7.14182 38.3604C7.85955 38.4855 8.59046 38.097 8.8736 37.4254C9.04481 37.0171 9.03822 36.5562 8.85385 36.1545C8.68265 35.7858 8.37316 35.4961 7.99783 35.3446C7.88589 35.3117 7.83321 35.5026 7.95174 35.5487Z" fill="black"/>
<path d="M6.27934 33.18C6.61516 32.9956 7.01683 32.9495 7.38557 33.068C7.72798 33.18 8.01112 33.4302 8.18233 33.7463C8.53132 34.4179 8.24818 35.2739 7.57653 35.6097C7.28681 35.7546 6.9444 35.7678 6.62833 35.8007C6.20032 35.8468 5.76573 35.8995 5.33772 35.9456C5.1731 35.9653 5.0019 35.9851 4.83728 36.0048C4.81094 36.0048 4.7846 36.0114 4.75827 36.0114C4.71876 36.018 4.67925 36.018 4.64633 36.0246C4.68583 36.018 4.60682 36.0312 4.60682 36.0312C4.60023 36.0312 4.58706 36.0312 4.61999 36.0312C4.60682 36.0312 4.59365 36.0312 4.58048 36.0377C4.60682 36.0904 4.63974 36.1365 4.66608 36.1892C4.67266 36.176 4.67925 36.1629 4.67925 36.1497C4.68583 36.1431 4.68583 36.1299 4.69242 36.1233C4.699 36.1168 4.68583 36.1497 4.69242 36.1299C4.699 36.1168 4.70559 36.097 4.70559 36.0772C4.70559 36.0838 4.68583 36.1299 4.699 36.1102C4.70559 36.097 4.71217 36.0773 4.71876 36.0641C4.68583 36.0904 4.65291 36.1102 4.62657 36.1365C4.67266 36.1365 4.70559 36.1036 4.71876 36.0641C4.72534 36.0443 4.70559 36.097 4.71876 36.0575C4.72534 36.0443 4.72534 36.0377 4.73193 36.0246C4.78461 35.9126 4.6134 35.8073 4.56072 35.9258C4.54755 35.9521 4.53439 35.9785 4.52122 36.0114C4.55414 35.9851 4.58706 35.9653 4.6134 35.939C4.56731 35.939 4.53439 35.9719 4.52122 36.0114C4.50805 36.0377 4.5278 35.9916 4.51463 36.018C4.50805 36.0312 4.50805 36.0377 4.50146 36.0509C4.49488 36.0904 4.49488 36.0838 4.50805 36.0312C4.50146 36.0377 4.48171 36.0838 4.50146 36.0509C4.49488 36.0641 4.49488 36.0707 4.48829 36.0838C4.46195 36.1431 4.48829 36.2419 4.57389 36.2353C4.60023 36.2353 4.61999 36.2287 4.63974 36.2287C4.64633 36.2287 4.61999 36.2287 4.64633 36.2287C4.65949 36.2287 4.67266 36.2221 4.68583 36.2221C4.67925 36.2221 4.65949 36.2287 4.67925 36.2221C4.699 36.2221 4.71876 36.2155 4.73851 36.2155C4.75827 36.2155 4.78461 36.2089 4.80436 36.2089C4.95581 36.1892 5.10726 36.176 5.25871 36.1563C5.71305 36.1036 6.1674 36.0509 6.62833 35.9982C7.00366 35.9521 7.39216 35.939 7.72798 35.748C8.41279 35.3529 8.70252 34.4772 8.38646 33.7528C8.21525 33.3578 7.87943 33.0417 7.47118 32.8968C7.04317 32.7454 6.56248 32.7915 6.16081 33.0153C6.06863 33.0746 6.1674 33.2392 6.27934 33.18Z" fill="black"/>
<path d="M3.39356 33.0137C3.5055 32.3553 4.0652 31.8416 4.74343 31.8416C5.42166 31.8351 6.00112 32.3289 6.11964 32.994C6.1789 33.3298 6.09989 33.6722 5.9221 33.9619C5.86284 34.0541 5.80357 34.1529 5.74431 34.2451C5.50726 34.627 5.26362 35.0089 5.02657 35.3908C4.87513 35.6345 4.72368 35.8781 4.56564 36.1217C4.62491 36.1217 4.67758 36.1217 4.73685 36.1217C4.71051 36.069 4.68417 36.0164 4.65124 35.9637C4.59198 35.8518 4.42078 35.9505 4.48004 36.0625C4.50638 36.1151 4.53272 36.1678 4.56564 36.2205C4.59857 36.2863 4.69734 36.2798 4.73685 36.2205C5.13193 35.6015 5.52043 34.9694 5.90893 34.3438C5.96819 34.2451 6.02745 34.1529 6.08672 34.0541C6.29084 33.7249 6.36986 33.343 6.3106 32.9611C6.19866 32.2631 5.60603 31.7231 4.90805 31.6507C4.09154 31.5717 3.34088 32.1577 3.2026 32.9611C3.18285 33.0862 3.37381 33.1388 3.39356 33.0137Z" fill="black"/>
<path d="M1.45848 35.1427C1.20826 34.8596 1.07657 34.4843 1.10291 34.1089C1.12925 33.7402 1.3202 33.3912 1.60335 33.1541C2.17622 32.6735 3.05857 32.7656 3.53926 33.3319C3.74997 33.5822 3.83557 33.9114 3.94093 34.2143C4.08579 34.6225 4.22407 35.0308 4.36894 35.439C4.45454 35.6827 4.54014 35.9263 4.62574 36.17C4.66525 36.1304 4.70476 36.0909 4.74426 36.0514C4.685 36.0383 4.63233 36.0317 4.57306 36.0185C4.44795 35.9922 4.39527 36.1831 4.52038 36.2095C4.57965 36.2226 4.63232 36.2292 4.69159 36.2424C4.75743 36.2556 4.84304 36.1963 4.81011 36.1239C4.57965 35.472 4.34918 34.8135 4.11872 34.155C3.99361 33.7994 3.88825 33.4307 3.62486 33.1476C3.0915 32.5747 2.16963 32.4891 1.5375 32.9632C1.18192 33.2266 0.951458 33.6282 0.905364 34.0694C0.859271 34.5172 1.01731 34.9649 1.31362 35.2942C1.39922 35.3798 1.54408 35.2415 1.45848 35.1427Z" fill="black"/>
<path d="M1.93105 37.9983C1.26599 38.0378 0.647024 37.6032 0.48899 36.9447C0.330957 36.2863 0.693117 35.5883 1.32525 35.3381C1.64132 35.2129 1.98372 35.2195 2.30638 35.3315C2.41832 35.371 2.53026 35.4105 2.63561 35.45C3.05704 35.5949 3.47846 35.7463 3.89988 35.8912C4.16986 35.9834 4.43325 36.0755 4.70322 36.1677C4.69005 36.1151 4.67688 36.0558 4.65713 36.0031C4.64396 36.0163 4.63079 36.0229 4.6242 36.036C4.61762 36.0426 4.59128 36.0624 4.61103 36.0492C4.5847 36.0755 4.55177 36.0953 4.52543 36.1216C4.42666 36.2072 4.57153 36.3455 4.66371 36.2599C4.72297 36.2138 4.73614 36.2007 4.79541 36.1414C4.85467 36.0887 4.81516 35.9965 4.74931 35.9768C4.0645 35.7331 3.37969 35.4961 2.69488 35.259C2.57635 35.2195 2.46441 35.18 2.34589 35.1405C1.99689 35.022 1.60839 35.0154 1.26599 35.1537C0.594345 35.4171 0.166338 36.1085 0.265109 36.8262C0.370465 37.6427 1.10137 38.2419 1.92446 38.1958C2.05616 38.1892 2.06274 37.9917 1.93105 37.9983Z" fill="black"/>
<path d="M4.44057 39.4163C4.23644 39.706 3.92696 39.9035 3.58455 39.976C3.19605 40.055 2.7878 39.9562 2.47173 39.7192C1.89886 39.2912 1.76717 38.4549 2.15566 37.8557C2.35321 37.5594 2.67586 37.3882 2.96559 37.2038C3.33433 36.9733 3.69649 36.7429 4.06524 36.5124C4.28912 36.3741 4.50642 36.2293 4.7303 36.091C4.67762 36.0646 4.63152 36.0317 4.57885 36.0054C4.57885 36.0646 4.58543 36.1239 4.58543 36.1832C4.59202 36.3083 4.78956 36.3083 4.78297 36.1832C4.78297 36.1239 4.77639 36.0646 4.77639 36.0054C4.77639 35.9329 4.69079 35.8803 4.62494 35.9198C4.03231 36.2885 3.43969 36.6638 2.84706 37.0392C2.51124 37.2499 2.16225 37.4408 1.95154 37.7964C1.54987 38.4483 1.69473 39.3372 2.28078 39.8245C2.64294 40.1208 3.11045 40.2525 3.57138 40.1735C3.98622 40.1011 4.35497 39.8509 4.59202 39.515C4.69079 39.4097 4.51959 39.3109 4.44057 39.4163Z" fill="black"/>
<path d="M33.2959 39.963C33.1708 40.2462 33.0457 40.5293 32.9206 40.8124C32.9008 40.852 32.8877 40.8915 32.8679 40.931C32.8482 40.9771 32.8548 41.0363 32.9008 41.0692C32.9404 41.0956 33.0128 41.0824 33.0391 41.0363C33.1642 40.7532 33.2893 40.47 33.4145 40.1869C33.4342 40.1474 33.4474 40.1079 33.4671 40.0684C33.4869 40.0223 33.4803 39.963 33.4342 39.9301C33.3881 39.9037 33.3223 39.9103 33.2959 39.963Z" fill="black"/>
<path d="M35.3568 36.0708C35.3502 36.0115 35.3436 35.9523 35.3436 35.893C35.337 35.8271 35.2646 35.7613 35.1922 35.8074C35.1658 35.8272 35.1461 35.8403 35.1197 35.8601C35.1066 35.8667 35.1 35.8732 35.0868 35.8798C35.0802 35.8864 35.0671 35.893 35.0605 35.8996C35.0276 35.9325 35.1329 35.8732 35.0671 35.8996C35.0407 35.9128 35.0144 35.9325 34.988 35.9457C34.8564 36.0379 34.7247 36.13 34.593 36.2222C34.2045 36.4922 33.816 36.7622 33.4341 37.0322C33.3221 37.1112 33.2168 37.1836 33.1048 37.2626C32.8612 37.4338 32.6636 37.6511 32.5451 37.9211C32.229 38.6388 32.4924 39.5014 33.1641 39.9097C33.5328 40.1336 33.9806 40.1994 34.402 40.0941C34.7971 39.9887 35.1329 39.7385 35.3568 39.3961C35.4226 39.2907 35.2514 39.1919 35.1856 39.2973C34.8037 39.8965 34.0201 40.1204 33.3814 39.8043C32.7229 39.4751 32.42 38.6652 32.7361 37.9935C32.848 37.7631 33.0126 37.5787 33.2233 37.4272C33.3287 37.3548 33.434 37.2758 33.546 37.2034C33.9147 36.9466 34.2769 36.6898 34.6456 36.4329C34.7905 36.3276 34.942 36.2288 35.0868 36.1235C35.1 36.1169 35.1527 36.0905 35.1592 36.0708C35.1461 36.0774 35.1263 36.0774 35.1132 36.084C35.1329 36.084 35.1461 36.0774 35.1658 36.0708C35.179 36.0642 35.1856 36.0576 35.1922 36.051C35.2053 36.0444 35.2185 36.0313 35.2317 36.0247C35.258 36.0049 35.2844 35.9918 35.3107 35.972C35.258 35.9457 35.2119 35.9128 35.1592 35.8864C35.1658 35.9457 35.1724 36.0049 35.1724 36.0642C35.1724 36.1959 35.37 36.1959 35.3568 36.0708Z" fill="black"/>
<path d="M35.2266 36.1366C35.2661 36.0971 35.3386 36.051 35.3386 35.9918C35.332 36.0181 35.3188 36.0379 35.3122 36.0642C35.3254 36.051 35.3452 36.0379 35.3583 36.0181C35.411 35.9654 35.3847 35.8732 35.3122 35.8535C34.6208 35.6559 33.9295 35.4518 33.2381 35.2543C33.1129 35.2148 32.9878 35.1818 32.8561 35.1423C32.5269 35.0501 32.1647 35.0501 31.8421 35.1687C31.1375 35.4321 30.7029 36.1564 30.828 36.9005C30.9597 37.7235 31.7499 38.303 32.573 38.2108C32.6981 38.1976 32.6981 38.0001 32.573 38.0133C31.9013 38.0923 31.2429 37.6775 31.0519 37.019C30.861 36.3276 31.2429 35.5901 31.9145 35.3465C32.2042 35.2411 32.5071 35.2477 32.8035 35.3267C32.922 35.3596 33.0405 35.3991 33.1656 35.4321C33.5936 35.5572 34.0282 35.6823 34.4562 35.8074C34.7196 35.8864 34.9896 35.9588 35.253 36.0379C35.2398 35.9852 35.2266 35.9259 35.2069 35.8732C35.174 35.9062 35.1345 35.9391 35.1345 35.9852C35.141 35.9588 35.1542 35.9391 35.1608 35.9127C35.1345 35.9391 35.1081 35.9654 35.0818 35.9918C34.9962 36.0839 35.1345 36.2288 35.2266 36.1366Z" fill="black"/>
<path d="M35.068 36.0912C35.1075 36.0978 35.147 36.1044 35.1799 36.1044C35.147 36.0978 35.2062 36.111 35.2128 36.111C35.2326 36.111 35.1733 36.1044 35.2128 36.111C35.2194 36.111 35.2326 36.111 35.2392 36.1176C35.305 36.1242 35.3906 36.0781 35.3577 35.999C35.3511 35.9859 35.3445 35.9464 35.3313 35.9332C35.3248 35.9266 35.3379 35.9661 35.3445 35.9727C35.3379 35.953 35.3379 35.9398 35.3313 35.92C35.3379 35.9398 35.3182 35.8937 35.3182 35.8871C35.305 35.8608 35.3248 35.9069 35.3182 35.8805C35.3116 35.8608 35.305 35.841 35.2918 35.8278C35.2787 35.7949 35.2984 35.8542 35.2918 35.8213C35.2853 35.8081 35.2787 35.7883 35.2721 35.7752C35.2128 35.6369 35.1601 35.4986 35.1009 35.3603C34.9231 34.9389 34.7519 34.5109 34.5741 34.0895C34.4292 33.7405 34.3107 33.3717 34.0342 33.1018C33.4679 32.5421 32.546 32.496 31.927 32.9832C31.5715 33.2664 31.341 33.701 31.3278 34.1553C31.3147 34.5965 31.4924 35.0245 31.8019 35.3406C31.8941 35.4328 32.0324 35.2879 31.9402 35.2023C31.6768 34.9389 31.5254 34.5833 31.5254 34.2146C31.5254 33.8261 31.7032 33.4508 31.9863 33.1939C32.5394 32.7001 33.4218 32.7396 33.9288 33.2796C34.1593 33.5232 34.2646 33.8524 34.3897 34.1553C34.5544 34.557 34.719 34.9521 34.8836 35.3537C34.9494 35.5118 35.0153 35.6632 35.0745 35.8213C35.0811 35.841 35.0943 35.8674 35.1009 35.8871C35.1075 35.9003 35.1338 35.9727 35.1272 35.9398C35.1338 35.953 35.1338 35.9595 35.1404 35.9727C35.147 35.9859 35.1272 35.9464 35.1404 35.9793C35.147 35.9925 35.147 36.0056 35.1536 36.0122C35.1601 36.032 35.1601 36.0188 35.147 35.9727C35.147 35.9925 35.1536 36.0056 35.1601 36.0254V36.032C35.1733 36.0583 35.1601 36.032 35.1667 36.0451C35.2062 36.0056 35.2457 35.9661 35.2853 35.9266C35.2655 35.9266 35.2457 35.92 35.2326 35.92C35.2128 35.92 35.2128 35.92 35.2326 35.92C35.226 35.92 35.2128 35.92 35.2062 35.9134C35.2062 35.9134 35.1667 35.9069 35.1865 35.9134C35.2062 35.9134 35.1799 35.9134 35.1799 35.9134C35.1601 35.9134 35.1404 35.9069 35.1206 35.9069C35.068 35.9003 35.0153 35.92 35.0021 35.9727C34.9889 36.0122 35.0153 36.0781 35.068 36.0912Z" fill="black"/>
<path d="M35.0284 35.9479C35.0613 36.0005 35.0876 36.0466 35.1206 36.0993C35.1601 36.1586 35.2523 36.1652 35.2918 36.0993C35.6408 35.4474 36.0161 34.8087 36.3782 34.1634C36.4309 34.0646 36.4902 33.9659 36.5429 33.8671C36.7338 33.5247 36.7931 33.1296 36.7075 32.7411C36.5429 32.0431 35.9107 31.5361 35.1996 31.5229C34.3699 31.5032 33.6719 32.1287 33.5797 32.9452C33.5666 33.0703 33.7641 33.0703 33.7773 32.9452C33.8563 32.2802 34.4226 31.7534 35.0876 31.7205C35.7593 31.6875 36.3651 32.1419 36.5165 32.7938C36.5955 33.1296 36.5363 33.472 36.3717 33.7683C36.319 33.8671 36.2663 33.9593 36.207 34.058C35.9832 34.4531 35.7659 34.8482 35.542 35.2433C35.4037 35.4935 35.2588 35.7437 35.1206 35.9939C35.1798 35.9939 35.2325 35.9939 35.2918 35.9939C35.2588 35.9413 35.2325 35.8952 35.1996 35.8425C35.1337 35.7371 34.9625 35.8425 35.0284 35.9479Z" fill="black"/>
<path d="M35.1072 35.8285C35.0874 35.8812 35.0677 35.9404 35.0479 35.9931C35.015 36.0721 35.1072 36.1248 35.1665 36.1116C35.1796 36.1116 35.1994 36.105 35.2125 36.105C35.2191 36.105 35.2191 36.105 35.2257 36.105C35.1796 36.1116 35.2323 36.105 35.2455 36.105C35.2784 36.0984 35.3113 36.0919 35.3442 36.0853C35.364 36.0787 35.3903 36.0787 35.4101 36.0721C35.5615 36.0458 35.7196 36.0194 35.871 35.9931C36.3254 35.9207 36.7797 35.8416 37.2341 35.7692C37.616 35.7034 38.0045 35.6639 38.3403 35.44C39.0054 34.979 39.2292 34.0572 38.8144 33.3526C38.5905 32.9707 38.2086 32.6876 37.774 32.602C37.5567 32.5559 37.3328 32.5559 37.1221 32.602C37.0036 32.6217 36.8982 32.6612 36.7863 32.7073C36.7073 32.7402 36.5361 32.7995 36.5361 32.8983C36.5361 33.0234 36.7336 33.0234 36.7336 32.8983C36.7204 32.9246 36.7007 32.9575 36.6875 32.9839C37.3526 32.569 38.2481 32.7732 38.6498 33.458C39.0383 34.1164 38.7815 34.9922 38.1164 35.3544C37.8267 35.5124 37.4777 35.5387 37.1616 35.5914C36.7336 35.6639 36.3056 35.7297 35.8776 35.8021C35.7064 35.8285 35.5418 35.8548 35.3706 35.8877C35.3442 35.8943 35.3179 35.8943 35.2916 35.9009C35.2586 35.9075 35.2323 35.9141 35.1994 35.9141C35.173 35.9207 35.1994 35.9141 35.206 35.9141C35.1928 35.9141 35.1796 35.9207 35.1599 35.9207C35.1467 35.9207 35.1269 35.9272 35.1138 35.9272C35.1533 35.9668 35.1928 36.0063 35.2323 36.0458C35.2521 35.9931 35.2718 35.9338 35.2916 35.8812C35.3442 35.7626 35.1533 35.7099 35.1072 35.8285Z" fill="black"/>
<path d="M35.2668 35.8014C35.2339 35.8146 35.201 35.8212 35.1681 35.8344C35.1483 35.8409 35.1352 35.8475 35.1154 35.8607C35.122 35.8541 35.1681 35.8409 35.1417 35.8409C35.1286 35.8409 35.1088 35.8541 35.0956 35.8541C35.0298 35.8739 34.9903 35.9661 35.0496 36.0187C35.0627 36.0319 35.0759 36.0451 35.0891 36.0517C35.0825 36.0253 35.0693 36.0056 35.0627 35.9792C35.0627 36.0582 35.2076 36.1504 35.2668 36.2031C35.3985 36.3216 35.5302 36.4402 35.6619 36.5587C36.0175 36.8747 36.3665 37.1908 36.7221 37.5069C36.8011 37.5793 36.8867 37.6517 36.9657 37.7242C37.2554 37.9744 37.611 38.1258 37.9929 38.1324C38.7041 38.1522 39.3626 37.6715 39.5601 36.9867C39.672 36.5916 39.6259 36.157 39.4218 35.7948C39.2309 35.4524 38.9082 35.1956 38.5395 35.0639C38.4209 35.0244 38.3683 35.2154 38.4868 35.2549C39.1255 35.4788 39.5338 36.1438 39.4021 36.8155C39.2769 37.4608 38.7107 37.9283 38.0522 37.9415C37.7032 37.9481 37.3674 37.8164 37.104 37.5859C37.0316 37.52 36.9525 37.4542 36.8801 37.3818C36.5509 37.0855 36.2216 36.7957 35.8924 36.4994C35.6685 36.3019 35.4512 36.1043 35.2273 35.9068C35.2339 35.9331 35.2471 35.9529 35.2537 35.9792C35.2537 35.9331 35.2208 35.9002 35.1878 35.8739C35.1747 35.9265 35.1615 35.9858 35.1417 36.0385C35.1549 36.0319 35.1747 36.0319 35.1878 36.0253C35.1944 36.0253 35.201 36.0253 35.201 36.0187C35.2142 36.0187 35.2273 36.0121 35.2339 35.999C35.2537 35.9858 35.2471 35.9858 35.2076 36.0121C35.2142 36.0187 35.2998 35.9792 35.3064 35.9792C35.4446 35.9529 35.392 35.7619 35.2668 35.8014Z" fill="black"/>
<path d="M35.3643 35.906C35.338 35.8929 35.3182 35.8731 35.2919 35.86C35.305 35.8863 35.3248 35.9192 35.338 35.9456C35.338 35.8863 35.2919 35.8534 35.2458 35.8336C35.1865 35.8073 35.2787 35.86 35.2524 35.8336C35.2458 35.827 35.226 35.8139 35.2129 35.8073C35.147 35.7612 35.068 35.8204 35.0614 35.8929C35.0153 36.5843 34.9824 37.2823 34.9363 37.9737C34.9297 38.1185 34.9165 38.2634 34.91 38.4017C34.8968 38.6651 34.9297 38.9219 35.0417 39.1655C35.3577 39.8832 36.2072 40.2717 36.9578 40.0347C37.3661 39.9096 37.7216 39.6264 37.9126 39.2379C38.1036 38.856 38.1365 38.4017 37.9916 38C37.9521 37.8815 37.7612 37.9341 37.8007 38.0527C38.0443 38.7507 37.7085 39.5211 37.0171 39.8042C36.3191 40.0874 35.4762 39.7449 35.1997 39.0404C35.0614 38.698 35.1141 38.3292 35.1338 37.9737C35.1602 37.5391 35.1865 37.1045 35.2129 36.6633C35.226 36.4065 35.2392 36.1497 35.2589 35.8929C35.2063 35.9192 35.1602 35.9521 35.1075 35.9785C35.1207 35.9851 35.1404 35.9982 35.1536 36.0114C35.1733 36.0246 35.1865 36.0312 35.2129 36.0312C35.1734 36.0377 35.1602 36.018 35.1865 36.0312C35.1733 36.0048 35.1536 35.9719 35.1404 35.9456C35.1404 36.0114 35.2129 36.0443 35.2589 36.0773C35.3709 36.1431 35.4762 35.9719 35.3643 35.906Z" fill="black"/>
<path d="M28.7202 41.9854C27.93 42.657 27.3571 43.5723 27.1003 44.5797C26.8501 45.5609 26.9028 46.6144 27.2584 47.5692C27.6271 48.5635 28.3053 49.4261 29.1877 50.0122C30.0305 50.5784 31.0512 50.8748 32.0652 50.855C33.0924 50.8418 34.1065 50.506 34.9362 49.9002C35.7856 49.2812 36.4309 48.4121 36.7601 47.4112C37.0762 46.4564 37.1026 45.4028 36.826 44.4349C36.5363 43.4208 35.9239 42.5056 35.0942 41.8603C34.2843 41.2281 33.3032 40.8528 32.2759 40.7935C31.2553 40.7343 30.2215 40.9911 29.3457 41.5244C29.1284 41.6627 28.9177 41.8207 28.7202 41.9854C28.6214 42.0644 28.7663 42.2092 28.8585 42.1236C29.6223 41.4783 30.5837 41.0767 31.578 40.9976C32.5459 40.9186 33.5336 41.1359 34.3765 41.6166C35.2654 42.1236 35.9766 42.9072 36.3914 43.8357C36.7931 44.718 36.9116 45.7321 36.7404 46.6869C36.5626 47.6614 36.0885 48.5701 35.3839 49.2681C34.6662 49.9726 33.7378 50.4467 32.7435 50.6048C31.7821 50.7562 30.7812 50.6179 29.9054 50.1965C28.9902 49.7619 28.2263 49.0376 27.7391 48.1487C27.265 47.2861 27.0674 46.2852 27.1728 45.3106C27.2781 44.3361 27.6798 43.3945 28.3251 42.657C28.4897 42.466 28.6675 42.2883 28.8585 42.1302C28.9572 42.0446 28.8124 41.9063 28.7202 41.9854Z" fill="black"/>
<path d="M35.6285 42.6031C35.4836 42.7282 35.3321 42.8533 35.1873 42.9784C34.8317 43.2748 34.4827 43.5776 34.1271 43.874C33.6991 44.2361 33.2711 44.5983 32.8431 44.967C32.4744 45.2831 32.1056 45.5926 31.7369 45.9086C31.5591 46.0601 31.3615 46.205 31.1969 46.3696L31.1903 46.3762C31.0916 46.4552 31.2364 46.6 31.3286 46.5144C31.4735 46.3893 31.6249 46.2642 31.7698 46.1391C32.1254 45.8428 32.4744 45.5399 32.8299 45.2436C33.258 44.8814 33.686 44.5193 34.114 44.1505C34.4827 43.8345 34.8515 43.525 35.2202 43.2089C35.398 43.0575 35.5955 42.9126 35.7602 42.748L35.7667 42.7414C35.8655 42.6558 35.7272 42.5175 35.6285 42.6031Z" fill="black"/>
<path d="M36.8596 45.777C36.6752 45.7968 36.4842 45.8165 36.2999 45.8363C35.8521 45.8824 35.4109 45.9284 34.9631 45.968C34.4232 46.0206 33.8833 46.0799 33.3433 46.1326C32.8758 46.1787 32.4149 46.2248 31.9473 46.2709C31.7169 46.2906 31.493 46.3169 31.2625 46.3367H31.2559C31.1308 46.3499 31.1308 46.5474 31.2559 46.5342C31.4403 46.5145 31.6313 46.4947 31.8156 46.475C32.2634 46.4289 32.7046 46.3828 33.1523 46.3433C33.6923 46.2906 34.2322 46.2313 34.7722 46.1787C35.2397 46.1326 35.7006 46.0865 36.1682 46.0404C36.3986 46.0206 36.6225 45.9943 36.853 45.9745H36.8596C36.9847 45.9614 36.9847 45.7638 36.8596 45.777Z" fill="black"/>
<path d="M35.7658 48.9188C35.2653 48.6291 34.7583 48.3393 34.2579 48.0496C33.4545 47.5887 32.6578 47.1277 31.8545 46.6668C31.6701 46.5615 31.4857 46.4561 31.3013 46.3507C31.1894 46.2849 31.0906 46.4561 31.2026 46.522C31.703 46.8117 32.21 47.1014 32.7105 47.3911C33.5138 47.8521 34.3106 48.313 35.1139 48.7739C35.2983 48.8793 35.4826 48.9846 35.667 49.09C35.7724 49.1493 35.8711 48.9846 35.7658 48.9188Z" fill="black"/>
<path d="M33.5276 50.4453C33.2774 49.9843 33.0337 49.53 32.7835 49.0691C32.3884 48.3448 31.9999 47.6138 31.6048 46.8895C31.5126 46.7249 31.427 46.5537 31.3349 46.3891C31.2756 46.2771 31.1044 46.3759 31.1637 46.4879C31.4139 46.9488 31.6575 47.4031 31.9077 47.8641C32.3028 48.5884 32.6913 49.3193 33.0864 50.0436C33.1786 50.2082 33.2642 50.3794 33.3564 50.5441C33.4156 50.656 33.5868 50.5572 33.5276 50.4453Z" fill="black"/>
<path d="M30.4591 50.4593C30.5578 50.0049 30.6632 49.5572 30.762 49.1028C30.92 48.3917 31.078 47.674 31.2427 46.9628C31.2822 46.7982 31.3151 46.6336 31.3546 46.4689C31.3809 46.3438 31.19 46.2912 31.1636 46.4163C31.0649 46.8706 30.9595 47.3184 30.8607 47.7727C30.7027 48.4839 30.5447 49.2016 30.3801 49.9128C30.3405 50.0774 30.3076 50.242 30.2681 50.4066C30.2418 50.5251 30.4327 50.5778 30.4591 50.4593Z" fill="black"/>
<path d="M32.7046 40.9583C32.6585 41.136 32.6058 41.3204 32.5598 41.4982C32.4412 41.9328 32.3227 42.3608 32.2108 42.7954C32.0659 43.3222 31.9276 43.8424 31.7828 44.3691C31.6576 44.8235 31.5391 45.2713 31.414 45.7256C31.3547 45.9429 31.2823 46.1668 31.2362 46.3907V46.3972C31.2033 46.5224 31.3943 46.575 31.4272 46.4499C31.4733 46.2721 31.5259 46.0878 31.572 45.91C31.6906 45.4754 31.8091 45.0474 31.921 44.6128C32.0659 44.086 32.2042 43.5658 32.349 43.039C32.4742 42.5847 32.5927 42.1369 32.7178 41.6826C32.777 41.4653 32.8495 41.2414 32.8956 41.0175V41.0109C32.9285 40.8858 32.7375 40.8331 32.7046 40.9583Z" fill="black"/>
<path d="M29.4319 41.6293C29.6361 42.1692 29.8402 42.7157 30.0377 43.2557C30.3604 44.1183 30.683 44.9875 31.0057 45.8501C31.0781 46.0476 31.1505 46.2452 31.2296 46.4427C31.2757 46.5612 31.4666 46.5085 31.4205 46.39C31.2164 45.8501 31.0123 45.3035 30.8147 44.7636C30.4921 43.901 30.1694 43.0318 29.8468 42.1692C29.7743 41.9717 29.7019 41.7741 29.6229 41.5766C29.5768 41.458 29.3858 41.5107 29.4319 41.6293Z" fill="black"/>
<path d="M27.6073 43.6704C28.0155 43.9864 28.4304 44.3091 28.8386 44.6252C29.4905 45.1322 30.1424 45.6392 30.8009 46.1462C30.9523 46.2648 31.1038 46.3767 31.2487 46.4952C31.2882 46.5282 31.3474 46.5347 31.3869 46.4952C31.4199 46.4623 31.4264 46.3899 31.3869 46.357C30.9787 46.0409 30.5638 45.7182 30.1556 45.4022C29.5037 44.8951 28.8518 44.3881 28.1933 43.8811C28.0419 43.7626 27.8904 43.6506 27.7456 43.5321C27.7061 43.4992 27.6468 43.4926 27.6073 43.5321C27.5744 43.565 27.5678 43.6375 27.6073 43.6704Z" fill="black"/>
<path d="M27.2453 46.7458C27.7062 46.7195 28.1671 46.6931 28.6346 46.6668C29.3655 46.6273 30.0964 46.5878 30.8273 46.5483C30.9986 46.5417 31.1632 46.5285 31.3344 46.5219C31.4595 46.5153 31.4595 46.3178 31.3344 46.3244C30.8734 46.3507 30.4125 46.3771 29.945 46.4034C29.2141 46.4429 28.4832 46.4824 27.7523 46.5219C27.5811 46.5285 27.4165 46.5417 27.2453 46.5483C27.1136 46.5548 27.1136 46.7524 27.2453 46.7458Z" fill="black"/>
<path d="M28.2456 49.0566C28.5946 48.7669 28.937 48.4837 29.286 48.194C29.8391 47.7331 30.3922 47.2787 30.9388 46.8178C31.0639 46.7124 31.1956 46.6071 31.3207 46.5017C31.4195 46.4227 31.2812 46.2844 31.1824 46.3634C30.8334 46.6532 30.491 46.9363 30.142 47.226C29.5889 47.687 29.0358 48.1413 28.4892 48.6022C28.3641 48.7076 28.2324 48.813 28.1073 48.9183C28.0086 48.9973 28.1534 49.1422 28.2456 49.0566Z" fill="black"/>
<path d="M13.7086 41.3992C14.4725 42.0511 15.0256 42.9203 15.2758 43.8949C15.5195 44.8365 15.4668 45.8439 15.131 46.7592C14.782 47.714 14.1235 48.5503 13.2806 49.1166C12.4707 49.6631 11.5028 49.9462 10.5282 49.9331C9.54051 49.9199 8.56597 49.6038 7.76263 49.0244C6.94613 48.4383 6.32058 47.5955 6.00451 46.6473C5.69503 45.7254 5.66869 44.7114 5.93208 43.7763C6.20864 42.8018 6.79468 41.926 7.59143 41.2939C8.36184 40.6815 9.31663 40.3193 10.2978 40.2601C11.2789 40.2008 12.2666 40.4445 13.1094 40.9515C13.3136 41.0898 13.5177 41.2412 13.7086 41.3992C13.8074 41.4783 13.9457 41.34 13.8469 41.261C13.0502 40.5893 12.0625 40.1679 11.0221 40.0823C10.0146 39.9967 8.98081 40.2206 8.09846 40.721C7.18318 41.2412 6.43252 42.0577 5.99792 43.0191C5.5765 43.9475 5.44481 44.9945 5.62918 46.002C5.80697 47.016 6.30741 47.9576 7.03173 48.682C7.7758 49.4195 8.74376 49.9199 9.77756 50.0845C10.7784 50.2425 11.8122 50.0977 12.7275 49.6697C13.6823 49.2219 14.4856 48.4647 14.9927 47.5428C15.4865 46.6473 15.6972 45.6069 15.5919 44.5928C15.4865 43.5722 15.0651 42.5977 14.3935 41.8207C14.2223 41.6231 14.0379 41.4453 13.8403 41.2741C13.7547 41.1819 13.6099 41.3202 13.7086 41.3992Z" fill="black"/>
<path d="M6.80058 42.0178C6.94545 42.1429 7.0969 42.268 7.24176 42.3931C7.59733 42.6894 7.94633 42.9923 8.3019 43.2886C8.72991 43.6508 9.15792 44.0129 9.58593 44.3817C9.95467 44.6977 10.3234 45.0072 10.6922 45.3233C10.8699 45.4747 11.0543 45.6328 11.2321 45.7842L11.2387 45.7908C11.3375 45.8698 11.4757 45.7315 11.377 45.6525C11.2321 45.5274 11.0807 45.4023 10.9358 45.2772C10.5802 44.9809 10.2312 44.678 9.87565 44.3817C9.44765 44.0195 9.01964 43.6574 8.59163 43.2886C8.22288 42.9725 7.85414 42.6631 7.48539 42.347C7.30761 42.1955 7.12323 42.0375 6.94545 41.8861L6.93886 41.8795C6.84009 41.7939 6.70181 41.9322 6.80058 42.0178Z" fill="black"/>
<path d="M5.70614 45.2499C5.89051 45.2697 6.08147 45.2894 6.26584 45.3092C6.7136 45.3553 7.15478 45.4014 7.60254 45.4409C8.14249 45.4936 8.68244 45.5528 9.22239 45.6055C9.6899 45.6516 10.1508 45.6977 10.6183 45.7438C10.7764 45.757 10.9278 45.7767 11.0859 45.7899C11.1583 45.7965 11.2307 45.8096 11.3032 45.8096H11.3097C11.4349 45.8228 11.4349 45.6253 11.3097 45.6121C11.1254 45.5923 10.9344 45.5726 10.75 45.5528C10.3023 45.5067 9.86111 45.4606 9.41334 45.4211C8.87339 45.3685 8.33345 45.3092 7.7935 45.2565C7.32598 45.2104 6.86505 45.1643 6.39753 45.1182C6.2395 45.1051 6.08805 45.0853 5.93002 45.0721C5.85759 45.0656 5.78515 45.0524 5.71272 45.0524H5.70614C5.58103 45.0392 5.58103 45.2368 5.70614 45.2499Z" fill="black"/>
<path d="M6.9068 48.3654C7.40724 48.0757 7.91427 47.7859 8.41471 47.4962C9.21804 47.0353 10.0148 46.5743 10.8181 46.1134C11.0025 46.0081 11.1869 45.9027 11.3713 45.7973C11.4832 45.7315 11.3844 45.5603 11.2725 45.6261C10.772 45.9159 10.265 46.2056 9.76458 46.4953C8.96124 46.9563 8.16449 47.4172 7.36115 47.8781C7.17678 47.9835 6.9924 48.0888 6.80803 48.1942C6.69609 48.26 6.79486 48.4247 6.9068 48.3654Z" fill="black"/>
<path d="M9.21083 49.8204C9.46105 49.3595 9.70469 48.9051 9.95491 48.4442C10.35 47.7199 10.7385 46.989 11.1336 46.2647C11.2258 46.1 11.3114 45.9288 11.4036 45.7642C11.4628 45.6523 11.2916 45.5535 11.2323 45.6655C10.9821 46.1264 10.7385 46.5807 10.4883 47.0417C10.0932 47.766 9.70469 48.4969 9.30961 49.2212C9.21742 49.3858 9.13182 49.557 9.03963 49.7216C8.98037 49.8336 9.15157 49.9324 9.21083 49.8204Z" fill="black"/>
<path d="M12.2989 49.682C12.2002 49.2277 12.0948 48.7799 11.996 48.3255C11.838 47.6144 11.68 46.8967 11.5153 46.1855C11.4758 46.0209 11.4429 45.8563 11.4034 45.6917C11.3771 45.5665 11.1861 45.6192 11.2124 45.7443C11.3112 46.1987 11.4166 46.6464 11.5153 47.1008C11.6734 47.8119 11.8314 48.5297 11.996 49.2408C12.0355 49.4054 12.0685 49.5701 12.108 49.7347C12.1343 49.8532 12.3253 49.8005 12.2989 49.682Z" fill="black"/>
<path d="M9.67177 40.2863C9.71786 40.4641 9.77054 40.6485 9.81663 40.8263C9.93516 41.2609 10.0537 41.6889 10.1656 42.1235C10.3105 42.6502 10.4488 43.1704 10.5936 43.6972C10.7187 44.1516 10.8373 44.5993 10.9624 45.0537C11.0216 45.271 11.0743 45.5014 11.1402 45.7187V45.7253C11.1731 45.8504 11.364 45.7977 11.3311 45.6726C11.285 45.4948 11.2324 45.3105 11.1863 45.1327C11.0677 44.6981 10.9492 44.2701 10.8373 43.8355C10.6924 43.3087 10.5541 42.7885 10.4093 42.2617C10.2841 41.8074 10.1656 41.3596 10.0405 40.9053C9.98125 40.688 9.92857 40.4575 9.86273 40.2402V40.2336C9.8298 40.1085 9.63884 40.1612 9.67177 40.2863Z" fill="black"/>
<path d="M12.9444 40.852C12.7403 41.3919 12.5361 41.9384 12.3386 42.4784C12.016 43.341 11.6933 44.2102 11.3707 45.0728C11.2982 45.2703 11.2258 45.4679 11.1468 45.6654C11.1007 45.7839 11.2916 45.8366 11.3377 45.7181C11.5419 45.1781 11.746 44.6316 11.9435 44.0917C12.2662 43.2291 12.5888 42.3599 12.9115 41.4973C12.9839 41.2997 13.0563 41.1022 13.1354 40.9046C13.1815 40.7861 12.9905 40.7334 12.9444 40.852Z" fill="black"/>
<path d="M14.8151 42.8026C14.4068 43.1187 13.992 43.4413 13.5837 43.7574C12.9318 44.2644 12.2799 44.7714 11.6215 45.2785C11.47 45.397 11.3186 45.5089 11.1737 45.6275C11.1342 45.6604 11.1408 45.7328 11.1737 45.7657C11.2132 45.8052 11.2725 45.7987 11.312 45.7657C11.7202 45.4497 12.1351 45.127 12.5433 44.811C13.1952 44.3039 13.8471 43.7969 14.5056 43.2899C14.657 43.1714 14.8085 43.0594 14.9533 42.9409C14.9928 42.908 14.9863 42.8355 14.9533 42.8026C14.9138 42.7631 14.8612 42.7697 14.8151 42.8026Z" fill="black"/>
<path d="M15.3275 45.8227C14.8666 45.7963 14.4056 45.77 13.9381 45.7437C13.2072 45.7042 12.4763 45.6646 11.7454 45.6251C11.5742 45.6185 11.4096 45.6054 11.2384 45.5988C11.1133 45.5922 11.1133 45.7898 11.2384 45.7963C11.6993 45.8227 12.1602 45.849 12.6277 45.8754C13.3586 45.9149 14.0896 45.9544 14.8205 45.9939C14.9917 46.0005 15.1563 46.0136 15.3275 46.0202C15.4526 46.0268 15.4526 45.8293 15.3275 45.8227Z" fill="black"/>
<path d="M14.4592 48.1947C14.1103 47.905 13.7678 47.6218 13.4189 47.3321C12.8657 46.8712 12.3126 46.4168 11.7661 45.9559C11.641 45.8505 11.5093 45.7452 11.3842 45.6398C11.2854 45.5608 11.1471 45.6991 11.2459 45.7781C11.5949 46.0678 11.9373 46.351 12.2863 46.6407C12.8394 47.1016 13.3925 47.556 13.9391 48.0169C14.0642 48.1223 14.1959 48.2276 14.321 48.333C14.4197 48.4186 14.558 48.2737 14.4592 48.1947Z" fill="black"/>
<path d="M24.6498 32.9301C23.5765 32.4099 22.3386 32.2782 21.1862 32.5745C20.1524 32.8379 19.2174 33.4371 18.5392 34.2668C17.8807 35.0767 17.4856 36.071 17.4132 37.1114C17.3407 38.1122 17.5778 39.1197 18.0782 39.9889C18.5787 40.8449 19.3293 41.5495 20.2183 41.9841C21.3048 42.5108 22.569 42.636 23.7345 42.3265C24.6366 42.0894 25.4597 41.589 26.0984 40.9108C26.7503 40.2194 27.1981 39.3436 27.3759 38.4086C27.5603 37.434 27.4549 36.4134 27.0664 35.4981C26.6911 34.6026 26.0524 33.8322 25.249 33.2856C25.0646 33.1539 24.8605 33.0354 24.6498 32.9301C24.5379 32.8774 24.4391 33.042 24.551 33.1013C25.3873 33.5095 26.0984 34.1548 26.5791 34.9516C27.073 35.7615 27.3166 36.7097 27.2771 37.6579C27.2376 38.5863 26.9281 39.495 26.3948 40.2523C25.8811 40.9766 25.17 41.5561 24.3535 41.905C23.3394 42.3462 22.1739 42.4121 21.1138 42.1092C20.1458 41.8326 19.2832 41.2532 18.6577 40.4696C18.0651 39.7321 17.7029 38.8102 17.6239 37.8686C17.5449 36.8743 17.7688 35.8668 18.2692 35.0042C18.7762 34.1416 19.5466 33.4502 20.4553 33.042C21.4891 32.5745 22.681 32.4889 23.7674 32.7984C24.0374 32.8774 24.3008 32.9761 24.5576 33.1013C24.663 33.1605 24.7617 32.9893 24.6498 32.9301Z" fill="black"/>
<path d="M20.943 37.5524C20.6336 37.401 20.3175 37.2495 20.008 37.1047C19.9619 37.0849 19.9158 37.0586 19.8763 37.0388C19.8302 37.0125 19.771 37.0256 19.738 37.0717C19.7117 37.1178 19.7249 37.1837 19.771 37.21C20.0804 37.3615 20.3965 37.5129 20.706 37.6578C20.7521 37.6775 20.7982 37.7039 20.8377 37.7236C20.8838 37.75 20.943 37.7368 20.976 37.6907C21.0089 37.6446 20.9957 37.5722 20.943 37.5524Z" fill="black"/>
<path d="M19.8888 38.7119C20.5538 38.6395 21.2189 38.567 21.8905 38.4946C22.042 38.4749 22.2 38.4617 22.3514 38.4419C22.3185 38.409 22.2856 38.3761 22.2527 38.3432C22.2527 38.3563 22.2527 38.3695 22.2461 38.3761C22.2527 38.3497 22.2658 38.33 22.2724 38.3037C22.009 38.5868 21.7391 38.8765 21.4757 39.1597C21.0543 39.614 20.6328 40.0684 20.2114 40.5227C20.1126 40.6281 20.0139 40.7334 19.9217 40.8388C19.8361 40.931 19.9744 41.0692 20.06 40.9771C20.3365 40.6807 20.6131 40.3844 20.883 40.0881C21.3111 39.6272 21.7391 39.1728 22.1605 38.7119C22.2263 38.6395 22.2922 38.5736 22.358 38.5012C22.4107 38.4485 22.437 38.4156 22.4436 38.3366C22.4502 38.2905 22.391 38.2312 22.3449 38.2378C21.7127 38.3037 21.074 38.3761 20.4419 38.4419C20.2575 38.4617 20.0731 38.4814 19.8888 38.5012C19.7636 38.5275 19.7636 38.7251 19.8888 38.7119Z" fill="black"/>
<path d="M20.0541 40.9898C20.3307 40.6934 20.6072 40.3971 20.8772 40.1008C21.3052 39.6399 21.7332 39.1855 22.1546 38.7246C22.2205 38.6522 22.2863 38.5863 22.3522 38.5139C22.4048 38.4612 22.4312 38.4283 22.4378 38.3493C22.4444 38.3032 22.3851 38.2439 22.339 38.2505C21.7069 38.3164 21.0681 38.3888 20.436 38.4546C20.2516 38.4744 20.0673 38.4941 19.8829 38.5139C19.7578 38.5271 19.7578 38.7246 19.8829 38.7114C20.548 38.639 21.213 38.5666 21.8847 38.4941C22.0361 38.4744 22.1941 38.4612 22.3456 38.4415C22.3127 38.4085 22.2797 38.3756 22.2468 38.3427C22.2468 38.3559 22.2468 38.369 22.2402 38.3756C22.2468 38.3493 22.26 38.3295 22.2666 38.3032C22.0032 38.5863 21.7332 38.8761 21.4698 39.1592C21.0484 39.6135 20.627 40.0679 20.2055 40.5222C20.1068 40.6276 20.008 40.733 19.9158 40.8383C19.8302 40.9437 19.9685 41.0819 20.0541 40.9898Z" fill="black"/>
<path d="M20.943 37.5524C20.6336 37.401 20.3175 37.2495 20.008 37.1047C19.9619 37.0849 19.9158 37.0586 19.8763 37.0388C19.8302 37.0125 19.771 37.0256 19.738 37.0717C19.7117 37.1178 19.7249 37.1837 19.771 37.21C20.0804 37.3615 20.3965 37.5129 20.706 37.6578C20.7521 37.6775 20.7982 37.7039 20.8377 37.7236C20.8838 37.75 20.943 37.7368 20.976 37.6907C21.0089 37.6446 20.9957 37.5722 20.943 37.5524Z" fill="black"/>
<path d="M22.4387 38.4099C22.4584 38.2189 22.4782 38.028 22.4979 37.837C22.544 37.3892 22.5901 36.9415 22.6362 36.4937C22.6955 35.934 22.7481 35.3743 22.8074 34.8212C22.8601 34.3273 22.9062 33.8335 22.9589 33.3462C22.9786 33.1816 22.9918 33.0236 23.0115 32.859C23.0181 32.7799 23.0313 32.7009 23.0379 32.6285C23.0379 32.6219 23.0379 32.6219 23.0379 32.6153C23.051 32.4902 22.8535 32.4902 22.8403 32.6153C22.8206 32.8129 22.8008 33.0104 22.7811 33.2014C22.735 33.6755 22.6823 34.143 22.6362 34.6171C22.5769 35.1768 22.5243 35.7365 22.465 36.2962C22.4189 36.7703 22.3662 37.2378 22.3201 37.7119C22.3004 37.9094 22.2806 38.107 22.2609 38.2979C22.2543 38.3375 22.2543 38.377 22.2477 38.4099C22.2345 38.535 22.4321 38.535 22.4387 38.4099Z" fill="black"/>
<path d="M25.9147 34.0437C25.7962 34.1886 25.6711 34.3269 25.5525 34.4718C25.2628 34.8142 24.9731 35.1566 24.6834 35.4924C24.3344 35.9072 23.9788 36.3221 23.6298 36.7369C23.3269 37.0925 23.024 37.4481 22.7211 37.8102C22.5697 37.988 22.4248 38.1592 22.2733 38.337L22.2668 38.3436C22.1877 38.4423 22.326 38.5806 22.405 38.4819C22.5236 38.337 22.6487 38.1987 22.7672 38.0538C23.0569 37.7114 23.3467 37.369 23.6364 37.0332C23.9854 36.6184 24.3409 36.2035 24.6899 35.7887C24.9928 35.4331 25.2957 35.0775 25.5986 34.7154C25.7501 34.5376 25.8949 34.3664 26.0464 34.1886L26.053 34.182C26.1386 34.0833 26.0003 33.945 25.9147 34.0437Z" fill="black"/>
<path d="M27.304 37.0653C26.7443 37.2036 26.178 37.3485 25.6183 37.4867C24.7228 37.7106 23.8272 37.9345 22.9317 38.1584C22.7276 38.2111 22.5235 38.2637 22.3127 38.3098C22.1876 38.3428 22.2403 38.5337 22.3654 38.5008C22.9251 38.3625 23.4914 38.2177 24.0511 38.0794C24.9466 37.8555 25.8422 37.6316 26.7377 37.4077C26.9418 37.3551 27.1459 37.3024 27.3567 37.2563C27.4818 37.2234 27.4291 37.0324 27.304 37.0653Z" fill="black"/>
<path d="M26.7566 39.7194C26.2628 39.5614 25.7623 39.4034 25.2685 39.2453C24.4783 38.9951 23.6947 38.7449 22.9046 38.4881C22.7268 38.4288 22.5424 38.3696 22.3646 38.3169C22.2461 38.2774 22.1934 38.4683 22.3119 38.5078C22.8058 38.6659 23.3062 38.8239 23.8001 38.9819C24.5902 39.2322 25.3738 39.4824 26.164 39.7392C26.3418 39.7984 26.5262 39.8577 26.7039 39.9104C26.8291 39.9499 26.8751 39.7589 26.7566 39.7194Z" fill="black"/>
<path d="M24.5502 41.8531C24.3066 41.458 24.0695 41.0629 23.8259 40.6678C23.444 40.0423 23.062 39.4167 22.6867 38.7912C22.6011 38.6463 22.5089 38.5014 22.4233 38.3566C22.3575 38.2512 22.1863 38.35 22.2521 38.4553C22.4957 38.8504 22.7328 39.2455 22.9764 39.6406C23.3584 40.2661 23.7403 40.8917 24.1156 41.5172C24.2012 41.6621 24.2934 41.807 24.379 41.9518C24.4448 42.0572 24.616 41.9584 24.5502 41.8531Z" fill="black"/>
<path d="M19.5861 33.4576C19.6783 33.6222 19.7639 33.7868 19.8561 33.9514C20.0734 34.3465 20.2841 34.735 20.5014 35.1301C20.7648 35.6042 21.0216 36.0849 21.285 36.559C21.5088 36.9672 21.7327 37.3821 21.9566 37.7903C22.0685 37.9879 22.1673 38.1986 22.2858 38.3961C22.2858 38.3961 22.2858 38.4027 22.2924 38.4027C22.3517 38.5147 22.5229 38.4159 22.4636 38.304C22.3714 38.1393 22.2858 37.9747 22.1937 37.8101C21.9764 37.415 21.7656 37.0265 21.5483 36.6314C21.285 36.1573 21.0282 35.6766 20.7648 35.2025C20.5409 34.7943 20.317 34.3794 20.0931 33.9712C19.9812 33.7736 19.8824 33.5629 19.7639 33.3654C19.7639 33.3654 19.7639 33.3588 19.7573 33.3588C19.6915 33.2469 19.5203 33.3456 19.5861 33.4576Z" fill="black"/>
<path d="M22.4299 38.2649C21.857 37.9883 21.2841 37.7183 20.7113 37.4418C20.0791 37.1389 19.447 36.836 18.8149 36.5331C18.4725 36.3685 18.1301 36.2039 17.7876 36.0392C17.6757 35.9866 17.5704 36.1578 17.6889 36.2104C18.3408 36.5265 18.9927 36.836 19.6445 37.1521C20.1647 37.4023 20.6849 37.6525 21.2051 37.9027C21.5805 38.0805 21.9492 38.2583 22.3245 38.4427C22.4431 38.4888 22.5418 38.3176 22.4299 38.2649Z" fill="black"/>
<path d="M22.379 38.2438C21.8127 38.3096 21.2398 38.3689 20.6735 38.4282C20.0545 38.494 19.4356 38.5599 18.8166 38.6323C18.4742 38.6718 18.1384 38.7047 17.796 38.7442C17.6709 38.7574 17.6709 38.9549 17.796 38.9418C18.4413 38.8693 19.0866 38.8035 19.7385 38.7311C20.2521 38.6784 20.7657 38.6191 21.2727 38.5664C21.6415 38.5269 22.0102 38.4874 22.379 38.4479C22.5041 38.4282 22.5041 38.2306 22.379 38.2438Z" fill="black"/>
<path d="M22.3123 38.2775C21.9699 38.6396 21.6341 39.0084 21.2916 39.3705C20.8505 39.8446 20.4159 40.3122 19.9747 40.7863C19.8232 40.9509 19.6718 41.1089 19.5269 41.2735C19.4413 41.3657 19.5796 41.504 19.6652 41.4118C19.9615 41.0957 20.2578 40.7731 20.5542 40.457C21.0612 39.9171 21.5616 39.3771 22.0686 38.8306C22.1938 38.6923 22.3254 38.554 22.4506 38.4157C22.5362 38.3236 22.3979 38.1853 22.3123 38.2775Z" fill="black"/>
<path d="M21.9968 42.3806C22.0495 41.9328 22.0956 41.4851 22.1482 41.0373C22.2272 40.3261 22.3063 39.615 22.3853 38.8973C22.405 38.7326 22.4248 38.568 22.438 38.4034C22.4511 38.2783 22.2536 38.2783 22.2404 38.4034C22.1877 38.8512 22.1416 39.2989 22.089 39.7467C22.0099 40.4578 21.9309 41.169 21.8519 41.8867C21.8322 42.0513 21.8124 42.216 21.7992 42.3806C21.7795 42.5057 21.977 42.5057 21.9968 42.3806Z" fill="black"/>
</svg>
