<svg width="132" height="91" viewBox="0 0 132 91" fill="none" xmlns="http://www.w3.org/2000/svg">
<path d="M21.6137 82.0259C20.9889 81.9298 20.38 81.9939 19.8193 82.2663C19.2104 82.5547 18.6497 82.9873 18.169 83.4519C18.2331 83.4839 18.2972 83.532 18.3773 83.564C18.5375 83.0193 18.858 82.4906 19.2585 82.09C19.8353 81.5132 20.5563 81.2248 21.3574 81.1928C22.0784 81.1608 22.7833 81.353 23.3761 81.7856C23.5043 81.8817 23.6165 81.6735 23.5043 81.5773C22.6231 80.9364 21.4375 80.7923 20.3961 81.1127C19.5629 81.369 18.874 82.0099 18.4574 82.779C18.3292 83.0033 18.2171 83.2596 18.153 83.516C18.1209 83.6281 18.2651 83.7082 18.3613 83.6281C18.8099 83.1955 19.3066 82.827 19.8513 82.5386C20.38 82.2663 20.9889 82.1701 21.5817 82.2663C21.7099 82.2823 21.7739 82.042 21.6137 82.0259Z" fill="#B7A294" stroke="#B7A294" stroke-width="0.5" stroke-linejoin="round"/>
<path d="M21.0675 81.1931C21.0996 81.2091 21.1316 81.2251 21.1476 81.2411C21.1637 81.2571 21.1636 81.2571 21.1797 81.2732C21.1957 81.3212 21.1636 81.2571 21.1797 81.2732L21.1797 81.2892C21.1797 81.3052 21.1797 81.2892 21.1797 81.2732C21.1797 81.2892 21.1797 81.3373 21.1797 81.2892C21.1797 81.3052 21.1797 81.3212 21.1637 81.3373C21.1637 81.3533 21.1637 81.3533 21.1476 81.3693C21.1316 81.4013 21.0996 81.4334 21.0835 81.4815C21.0835 81.4815 21.0515 81.5135 21.0675 81.4975C21.0675 81.5135 21.0515 81.5135 21.0515 81.5295C21.0355 81.5455 21.0195 81.5776 20.9874 81.5936C20.9393 81.6417 20.9073 81.6897 20.8592 81.7218C20.7471 81.8339 20.6189 81.9461 20.5068 82.0582C20.4587 82.1063 20.4587 82.1864 20.5068 82.2345C20.5548 82.2826 20.6349 82.2826 20.683 82.2345C20.8112 82.1063 20.9393 81.9941 21.0675 81.866C21.1637 81.7698 21.2438 81.6737 21.3239 81.5616C21.3719 81.4815 21.42 81.4013 21.404 81.3052C21.404 81.161 21.2918 81.0489 21.1637 80.9848C21.0996 80.9527 21.0355 80.9688 21.0034 81.0328C20.9874 81.0809 21.0034 81.161 21.0675 81.1931Z" fill="#B7A294"/>
<path d="M21.1797 81.2732C21.1636 81.2571 21.1637 81.2571 21.1476 81.2411C21.1316 81.2251 21.0996 81.2091 21.0675 81.1931C21.0034 81.161 20.9874 81.0809 21.0034 81.0328C21.0355 80.9688 21.0996 80.9527 21.1637 80.9848C21.2918 81.0489 21.404 81.161 21.404 81.3052C21.42 81.4013 21.3719 81.4815 21.3239 81.5616C21.2438 81.6737 21.1637 81.7698 21.0675 81.866C20.9393 81.9941 20.8112 82.1063 20.683 82.2345C20.6349 82.2826 20.5548 82.2826 20.5068 82.2345C20.4587 82.1864 20.4587 82.1063 20.5068 82.0582C20.6189 81.9461 20.7471 81.8339 20.8592 81.7218C20.9073 81.6897 20.9393 81.6417 20.9874 81.5936C21.0195 81.5776 21.0355 81.5455 21.0515 81.5295C21.0515 81.5135 21.0675 81.5135 21.0675 81.4975C21.0515 81.5135 21.0835 81.4815 21.0835 81.4815C21.0996 81.4334 21.1316 81.4013 21.1476 81.3693C21.1637 81.3533 21.1637 81.3533 21.1637 81.3373C21.1797 81.3212 21.1797 81.3052 21.1797 81.2892M21.1797 81.2732C21.1636 81.2571 21.1957 81.3212 21.1797 81.2732ZM21.1797 81.2732L21.1797 81.2892M21.1797 81.2732C21.1797 81.2892 21.1797 81.3052 21.1797 81.2892M21.1797 81.2732C21.1797 81.2892 21.1797 81.3373 21.1797 81.2892" stroke="#B7A294" stroke-width="0.5" stroke-linejoin="round"/>
<path d="M46.5113 74.5756C43.6274 76.1298 40.7755 77.764 37.9556 79.4783C37.1545 79.975 36.3374 80.4557 35.5523 80.9684C35.4402 81.0485 35.5203 81.2087 35.6485 81.1927C37.7794 80.7921 40.0225 81.4651 41.5125 83.0352C41.849 83.3877 42.1373 83.7722 42.3777 84.1888C42.4257 84.1247 42.4738 84.0766 42.5058 84.0125C40.391 83.2915 38.0838 82.907 35.8568 83.3877C34.8153 83.612 33.87 84.0926 32.8927 84.5092C32.3159 84.7495 31.7231 84.9738 31.0983 85.054C30.4574 85.1341 29.8646 85.0059 29.2557 84.8136C28.5668 84.6053 27.8458 84.4772 27.1889 84.8617C26.6922 85.1501 26.3718 85.6628 26.1475 86.1915C26.2276 86.2075 26.3077 86.2075 26.3878 86.2236C26.3398 85.7589 26.2757 85.2943 26.2276 84.8136C26.2116 84.6694 26.2436 84.4772 26.1155 84.381C25.9873 84.3009 25.8431 84.2368 25.6989 84.1728C25.026 83.8523 24.321 83.628 23.6 83.5159C22.863 83.4037 22.0619 83.3717 21.3249 83.4998C20.5719 83.628 19.8669 83.9805 19.2901 84.4772C18.8415 84.8617 18.489 85.3423 18.2006 85.8711C18.1205 86.0153 18.3288 86.1274 18.4089 85.9993C18.8575 85.1501 19.5465 84.4451 20.4117 84.0286C21.0045 83.7562 21.6453 83.6761 22.2862 83.6601C22.9591 83.6601 23.616 83.7241 24.2729 83.9004C24.8818 84.0606 25.4586 84.3009 26.0193 84.6053C26.0033 84.5733 25.9873 84.5413 25.9552 84.5092C26.0193 85.086 26.0834 85.6468 26.1475 86.2236C26.1635 86.3678 26.3237 86.3838 26.3878 86.2556C26.5961 85.7749 26.9005 85.3103 27.3652 85.054C27.99 84.7175 28.679 84.9098 29.3198 85.102C29.8806 85.2783 30.4574 85.3744 31.0502 85.3103C31.627 85.2462 32.1717 85.07 32.7005 84.8617C33.6938 84.4611 34.6231 83.9484 35.6645 83.6921C36.5137 83.4678 37.3949 83.4037 38.2761 83.4197C39.702 83.4678 41.0959 83.7882 42.4257 84.2368C42.5219 84.2689 42.618 84.1407 42.5539 84.0606C42.0252 83.1634 41.2882 82.3943 40.407 81.8336C39.3175 81.1446 38.0357 80.8082 36.754 80.8242C36.3534 80.8242 35.9529 80.8722 35.5523 80.9363C35.5844 81.0164 35.6164 81.0805 35.6485 81.1606C38.4683 79.3982 41.3202 77.7159 44.2202 76.0977C45.0213 75.6491 45.8224 75.2165 46.6235 74.7839C46.7677 74.7038 46.6395 74.4955 46.5113 74.5756Z" fill="#B7A294" stroke="#B7A294" stroke-width="0.5" stroke-linejoin="round"/>
<path d="M18.3447 86.0642C19.1298 84.51 20.1872 82.8758 21.8375 82.1388C22.8629 81.6902 23.9203 81.7703 24.9778 81.9946C25.9231 82.1869 26.8684 82.3631 27.8137 82.1228C28.6148 81.9145 29.2396 81.4979 29.8004 80.8891C30.4733 80.1521 31.2103 79.5272 32.1075 79.0466C33.0208 78.5499 34.0141 78.2295 35.0395 78.0212C35.8086 77.861 36.5776 77.7168 37.3307 77.4925C39.4936 76.8195 41.4643 75.6339 43.2267 74.208C43.3389 74.1118 43.1787 73.9356 43.0505 74.0317C41.4323 75.3455 39.6218 76.467 37.6351 77.14C35.9688 77.7007 34.1744 77.8129 32.5561 78.5659C31.5948 79.0145 30.6976 79.6234 29.9606 80.3764C29.7203 80.6327 29.496 80.8891 29.2396 81.1294C28.9512 81.3858 28.5987 81.5941 28.2463 81.7383C27.7336 81.9465 27.1728 82.0427 26.612 82.0266C26.1153 82.0106 25.6347 81.9145 25.154 81.8023C24.1607 81.5941 23.1673 81.4659 22.174 81.7703C20.2193 82.3952 18.9856 84.2217 18.1204 85.968C18.0723 86.0962 18.2806 86.2084 18.3447 86.0642Z" fill="#B7A294" stroke="#B7A294" stroke-width="0.5" stroke-linejoin="round"/>
<path d="M26.1952 84.4774C26.2272 83.8205 26.5317 83.2597 27.0924 82.9233C27.5571 82.6349 28.1178 82.5227 28.6465 82.5227C29.0631 82.5227 29.5918 82.6028 29.8963 82.9233C30.1045 83.1476 30.1526 83.5161 30.0084 83.7884C29.9123 83.9967 29.704 84.0608 29.4957 84.1089C29.1432 84.189 28.7907 84.237 28.4383 84.3492C28.0698 84.4614 27.7013 84.6056 27.3488 84.7818C27.2046 84.8459 27.3328 85.0542 27.4769 84.9901C27.8615 84.7978 28.262 84.6536 28.6786 84.5415C29.015 84.4614 29.3675 84.4133 29.704 84.3172C29.9443 84.2371 30.1526 84.1089 30.2487 83.8685C30.3769 83.5641 30.3609 83.1796 30.1846 82.8912C29.9123 82.4746 29.3675 82.3465 28.9029 82.2984C28.2941 82.2343 27.6372 82.3625 27.0924 82.6509C26.3875 83.0194 25.9869 83.6923 25.9549 84.4934C25.9388 84.6376 26.1792 84.6376 26.1952 84.4774Z" fill="#B7A294" stroke="#B7A294" stroke-width="0.5" stroke-linejoin="round"/>
<path d="M22.1743 81.9783C22.6069 82.2506 23.1997 82.9396 22.7511 83.4523C22.6549 83.5644 22.8152 83.7407 22.9273 83.6285C23.4881 82.9876 22.8793 82.1545 22.3025 81.77C22.1583 81.6899 22.0461 81.8981 22.1743 81.9783Z" fill="#B7A294" stroke="#B7A294" stroke-width="0.5" stroke-linejoin="round"/>
<path d="M62.5337 22.7928C62.1812 22.4403 61.7806 22.1359 61.4121 21.8154C61.0116 21.463 60.595 21.1105 60.1785 20.774C59.2171 19.9729 58.2558 19.2039 57.2785 18.4348C56.6857 17.9542 56.0769 17.5055 55.468 17.0249C55.3559 16.9288 55.1796 17.105 55.2918 17.2011C57.2304 18.7392 59.1851 20.2613 61.0757 21.8635C61.5083 22.232 61.9569 22.5845 62.3574 22.969C62.4696 23.0812 62.6458 22.9049 62.5337 22.7928Z" fill="#B7A294" stroke="#B7A294" stroke-width="0.5" stroke-linejoin="round"/>
<path d="M36.6738 4.89701C33.902 3.59923 31.0661 2.42964 28.102 1.70865C25.7148 1.11584 23.2474 0.811425 20.78 0.891534C18.4889 0.971644 16.1337 1.32413 14.0028 2.17329C12.2724 2.86223 10.7984 4.01581 9.61278 5.44175C7.9465 7.42847 6.87304 9.84777 6.16807 12.3151C6.07194 12.6516 5.97581 12.9881 5.8957 13.3405C5.86366 13.4847 6.08796 13.5488 6.12001 13.4046C6.74486 10.8892 7.69015 8.4058 9.22826 6.30694C10.3498 4.76883 11.8238 3.42299 13.5702 2.6219C14.5635 2.17329 15.621 1.86887 16.6945 1.64456C17.8 1.40423 18.9375 1.26004 20.0751 1.17993C22.4303 1.01971 24.8176 1.24402 27.1247 1.7407C30.0247 2.36555 32.8445 3.39095 35.5362 4.64066C35.8727 4.80088 36.2252 4.9611 36.5616 5.12132C36.6898 5.16938 36.818 4.9611 36.6738 4.89701Z" fill="#B7A294" stroke="#B7A294" stroke-width="0.5" stroke-linejoin="round"/>
<path d="M100.217 58.4091C100.713 58.2008 101.194 58.0085 101.691 57.8002C101.947 57.7041 102.188 57.5759 102.444 57.4958C102.46 57.4958 102.492 57.4638 102.508 57.4798C102.492 57.4798 102.492 57.4958 102.524 57.5279C102.572 57.5759 102.684 57.624 102.748 57.656C103.037 57.8323 103.341 57.9925 103.629 58.1687C106.049 59.5146 108.58 60.6201 111.176 61.5814C113.611 62.4786 116.095 63.2477 118.61 63.9046C120.709 64.4493 122.808 64.93 124.939 65.3626C126.413 65.651 127.887 65.9233 129.345 66.2117C129.745 66.2918 130.162 66.3719 130.562 66.4841C130.674 66.5161 130.771 66.5482 130.851 66.5802C130.899 66.6123 130.883 66.6123 130.883 66.5963C130.883 66.6123 130.883 66.5802 130.883 66.5642C130.867 66.5001 130.931 66.5161 130.851 66.5322C130.514 66.5963 130.162 66.5802 129.809 66.5802C129.313 66.5642 128.816 66.5322 128.319 66.5001C127.037 66.404 125.756 66.3079 124.49 66.1957C121.991 65.9874 119.491 65.7471 116.992 65.5068C115.133 65.3145 113.259 65.1222 111.4 64.93C110.263 64.8178 109.125 64.6896 107.987 64.6416C107.827 64.6416 106.706 64.5134 106.866 64.93C106.946 65.1383 107.331 65.2504 107.523 65.3305C107.987 65.5228 108.468 65.683 108.949 65.8272C110.311 66.2598 111.672 66.6603 113.05 67.0449C114.22 67.3813 115.39 67.7018 116.543 68.0863C116.703 68.1344 116.864 68.1984 117.008 68.2625C117.04 68.2786 117.088 68.2946 117.136 68.3266C117.152 68.3266 117.168 68.3426 117.184 68.3587C117.2 68.3587 117.168 68.3587 117.168 68.3426C117.168 68.3266 117.168 68.2465 117.168 68.2625C117.168 68.2465 117.184 68.2465 117.168 68.2465C117.136 68.2465 117.152 68.2625 117.088 68.2786C116.96 68.3106 116.848 68.3266 116.735 68.3266C115.662 68.4067 114.556 68.3106 113.483 68.2305C111.801 68.0863 110.118 67.878 108.452 67.6056C106.61 67.3012 104.783 66.9327 102.989 66.4521C101.402 66.0195 99.8323 65.5068 98.3903 64.7377C97.413 64.225 96.4196 63.7604 95.3622 63.456C94.3848 63.1676 93.3755 62.8952 92.3661 62.767C91.1805 62.6068 89.9788 62.6388 88.7932 62.8792C88.649 62.9112 88.7131 63.1355 88.8573 63.1035C90.123 62.8471 91.4208 62.8311 92.6865 63.0554C93.6799 63.2317 94.6732 63.488 95.6345 63.7924C96.692 64.1289 97.6533 64.6416 98.6306 65.1383C99.3196 65.4907 100.057 65.7791 100.778 66.0355C102.508 66.6443 104.286 67.0769 106.081 67.4294C107.875 67.7819 109.686 68.0703 111.496 68.2786C112.89 68.4388 114.3 68.583 115.71 68.599C116.111 68.599 116.511 68.615 116.896 68.5669C117.04 68.5509 117.424 68.5189 117.392 68.2946C117.36 68.1023 116.976 68.0222 116.832 67.9581C116.367 67.7979 115.902 67.6537 115.438 67.5095C114.076 67.0929 112.698 66.7084 111.336 66.3079C110.134 65.9554 108.917 65.6189 107.747 65.1703C107.587 65.1062 107.427 65.0421 107.266 64.962C107.218 64.93 107.17 64.914 107.122 64.8819C107.106 64.8659 107.074 64.8499 107.074 64.8499C107.09 64.8338 107.058 64.946 107.058 64.93C107.058 64.946 107.042 64.93 107.074 64.93C107.154 64.914 107.202 64.914 107.315 64.8979C108.18 64.8659 109.077 64.978 109.942 65.0582C111.576 65.2184 113.227 65.3946 114.861 65.5548C117.184 65.7952 119.491 66.0195 121.814 66.2278C123.208 66.3559 124.602 66.4681 125.996 66.5802C127.134 66.6764 128.271 66.7725 129.409 66.8206C129.825 66.8366 130.242 66.8526 130.658 66.8206C130.803 66.8045 131.123 66.7885 131.123 66.5802C131.123 66.388 130.803 66.3079 130.658 66.2758C129.649 65.9714 128.576 65.8272 127.55 65.6349C125.692 65.2825 123.849 64.93 122.007 64.4974C119.619 63.9526 117.248 63.3278 114.893 62.6068C112.249 61.7737 109.654 60.8123 107.138 59.6748C105.873 59.098 104.623 58.4732 103.421 57.7842C103.277 57.7041 103.133 57.624 102.989 57.5439C102.86 57.4638 102.7 57.3356 102.556 57.2875C102.492 57.2715 102.46 57.2875 102.396 57.3196C102.139 57.4317 101.867 57.5279 101.611 57.64C101.13 57.8323 100.649 58.0245 100.169 58.2328C100.009 58.2328 100.073 58.4732 100.217 58.4091Z" fill="#B7A294" stroke="#B7A294" stroke-width="0.5" stroke-linejoin="round"/>
<path d="M100.153 58.1701C98.4065 58.7149 96.612 58.9712 94.8016 59.0033C94.1927 59.0193 93.5999 59.0032 92.9911 59.0353C92.7988 59.0513 92.3342 59.0513 92.3342 59.3397C92.3342 59.6281 92.8148 59.8043 93.0231 59.9005C93.5038 60.1088 93.9844 60.285 94.4651 60.4773C94.8176 60.6215 95.2502 60.7336 95.5386 60.99C95.6027 61.0541 95.5226 60.9739 95.5706 60.99C95.5386 60.99 95.4905 61.022 95.4585 61.022C95.3944 61.038 95.3303 61.038 95.2662 61.038C94.8496 61.0541 94.4331 61.038 94.0325 61.0541C92.1099 61.1021 90.2994 61.727 88.7132 62.8165C88.5851 62.8966 88.7132 63.1049 88.8414 63.0247C90.2513 62.0634 91.8696 61.4226 93.5999 61.3104C94.0485 61.2784 94.4971 61.2784 94.9458 61.2784C95.1701 61.2784 95.4905 61.3104 95.6988 61.1982C96.0513 61.006 95.6187 60.7176 95.4424 60.6215C94.5933 60.1729 93.6159 59.9966 92.7988 59.4999C92.7347 59.4679 92.6867 59.4358 92.6386 59.3878C92.6226 59.3718 92.6066 59.3557 92.5905 59.3397C92.5745 59.3237 92.5745 59.3237 92.5745 59.3237C92.5745 59.3557 92.5585 59.3237 92.6066 59.3237C92.6707 59.3077 92.7347 59.2916 92.8148 59.2756C93.3276 59.2115 93.8563 59.2436 94.369 59.2436C96.3557 59.2115 98.3264 58.9872 100.233 58.3944C100.361 58.3624 100.297 58.1381 100.153 58.1701Z" fill="#B7A294" stroke="#B7A294" stroke-width="0.5" stroke-linejoin="round"/>
<path d="M49.0263 75.0894C49.9235 74.8812 50.9169 74.5447 51.4937 73.7917C51.8301 73.3431 51.9423 72.7823 51.8942 72.2375C51.8141 71.4685 51.4616 70.7315 51.0611 70.0746C50.4843 69.1613 49.7473 68.3442 48.9622 67.6072C47.8247 66.5338 46.5589 65.5885 45.2291 64.7553C45.1009 64.6752 44.9728 64.8835 45.1009 64.9636C47.1357 66.2614 49.1385 67.7995 50.5484 69.7702C51.2373 70.7475 52.1185 72.2856 51.4136 73.4873C50.9169 74.3204 49.8434 74.6729 48.9622 74.8812C48.818 74.8972 48.8821 75.1215 49.0263 75.0894Z" fill="#B7A294" stroke="#B7A294" stroke-width="0.5" stroke-linejoin="round"/>
<path d="M55.7076 53.4278C55.7717 54.2449 55.6115 55.078 55.259 55.799C54.7623 56.8084 53.8651 57.4813 52.7756 57.7697C52.1187 57.946 51.4297 57.962 50.7568 57.8658C50.6126 57.8498 50.5325 58.0741 50.6927 58.0902C51.8784 58.2664 53.1601 58.0902 54.1695 57.4172C55.0347 56.8404 55.5794 55.9112 55.8197 54.9178C55.9319 54.4372 55.98 53.9245 55.9319 53.4278C55.9319 53.2676 55.6916 53.2676 55.7076 53.4278Z" fill="#B7A294" stroke="#B7A294" stroke-width="0.5" stroke-linejoin="round"/>
<path d="M65.0966 75.2489C68.3331 74.8804 71.5214 74.0953 74.5656 72.9097C78.4429 71.4036 82.0478 69.2407 85.2201 66.533C85.9411 65.9241 86.6301 65.2832 87.287 64.6263C87.5754 64.338 87.8798 64.0335 88.1682 63.7291C88.2963 63.5849 88.4245 63.4567 88.5527 63.3125C88.6168 63.2485 88.6809 63.1844 88.745 63.1043C88.8571 62.9921 89.0013 62.928 89.1455 62.8639C89.2897 62.7999 89.1615 62.5916 89.0173 62.6557C88.9052 62.7037 88.761 62.7518 88.6648 62.8319C88.6008 62.88 88.5687 62.944 88.5206 62.9921C88.4085 63.1203 88.2963 63.2485 88.1682 63.3766C87.9118 63.649 87.6715 63.9054 87.4151 64.1617C86.8544 64.7225 86.2776 65.2832 85.6848 65.812C84.2428 67.0937 82.7047 68.2633 81.0865 69.3047C77.6578 71.4997 73.8766 73.134 69.9352 74.1113C68.3491 74.5119 66.7469 74.8002 65.1287 74.9765C64.9524 75.0246 64.9524 75.2649 65.0966 75.2489Z" fill="#B7A294" stroke="#B7A294" stroke-width="0.5" stroke-linejoin="round"/>
<path d="M4.91865 21.2397C4.85457 24.8767 5.07887 28.5137 5.76782 32.0866C6.44073 35.5152 7.46614 38.8798 8.73187 42.1323C9.53296 44.1991 10.4462 46.2499 11.4556 48.2206C12.4329 50.1272 13.6025 51.9377 14.8362 53.6681C16.7749 56.3758 18.9538 58.9072 21.3411 61.2304C23.5521 63.3933 25.9554 65.3801 28.4869 67.1585C30.762 68.7607 33.1492 70.2027 35.6487 71.4203C37.6834 72.4137 39.7983 73.2789 41.9933 73.8717C44.4927 74.5446 47.1043 74.881 49.6678 75.1694C53.1446 75.554 56.6373 75.6501 60.1301 75.4899C60.787 75.4578 61.4439 75.4258 62.1008 75.3777C62.261 75.3617 62.261 75.1214 62.1008 75.1374C58.8323 75.3777 55.5478 75.3777 52.2794 75.1534C49.3474 74.9451 46.4154 74.5766 43.5314 73.9838C41.4165 73.5512 39.3657 72.8302 37.379 71.949C34.9597 70.8916 32.6526 69.6098 30.4415 68.1679C27.8941 66.5176 25.4908 64.6751 23.2317 62.6563C20.7964 60.4774 18.5533 58.0901 16.5185 55.5106C14.8362 53.3636 13.2821 51.1045 11.9843 48.7013C11.1512 47.1792 10.4302 45.593 9.74125 43.9908C8.45949 40.9787 7.37 37.8544 6.56891 34.6821C5.63964 30.9971 5.19103 27.2319 5.12694 23.4347C5.11092 22.6977 5.11092 21.9447 5.12694 21.2077C5.15898 21.0795 4.91865 21.0795 4.91865 21.2397Z" fill="#B7A294" stroke="#B7A294" stroke-width="0.5" stroke-linejoin="round"/>
<path d="M96.05 50.6555C96.6748 51.3445 97.4279 51.9373 98.245 52.3699C98.998 52.7704 99.8151 53.0428 100.632 53.2671C100.728 53.2992 100.841 53.3152 100.937 53.3472C100.953 53.3472 101.017 53.3953 101.033 53.3793C101.049 53.3793 101.033 53.2511 101.049 53.2511C101.049 53.2511 100.953 53.2671 100.921 53.2671C100.808 53.2831 100.712 53.2831 100.6 53.2831C100.055 53.2831 99.5107 53.2511 98.966 53.2671C98.7256 53.2671 98.4853 53.2831 98.245 53.3152C98.1168 53.3312 97.9406 53.3793 97.8765 53.5074C97.7483 53.7638 98.1168 53.9721 98.2931 54.0682C98.6936 54.2925 99.1262 54.4527 99.5588 54.613C100.488 54.9334 101.449 55.1577 102.427 55.35C102.779 55.414 103.132 55.4781 103.484 55.5743C103.692 55.6223 103.949 55.6704 104.125 55.7986C104.157 55.8146 104.173 55.8466 104.205 55.8627C104.221 55.8787 104.221 55.9267 104.221 55.8947C104.221 55.9267 104.221 55.9588 104.205 55.9748C104.141 56.119 104.013 56.2312 103.885 56.3273C103.228 56.856 102.411 57.2085 101.642 57.561C101.497 57.6251 101.626 57.8334 101.77 57.7693C102.507 57.4328 103.26 57.0803 103.917 56.5997C104.125 56.4395 104.445 56.2151 104.461 55.9267C104.478 55.5422 103.917 55.414 103.644 55.35C102.843 55.1417 102.026 55.0295 101.225 54.8373C100.696 54.7091 100.184 54.5649 99.6709 54.3886C99.2223 54.2284 98.7417 54.0682 98.3411 53.8119C98.261 53.7638 98.1969 53.7157 98.1328 53.6516C98.1008 53.6196 98.1008 53.6196 98.1168 53.6196C98.1328 53.5875 98.261 53.5715 98.3091 53.5555C98.5334 53.5074 98.7897 53.5074 99.014 53.5074C99.5748 53.5074 100.136 53.5395 100.712 53.5235C100.857 53.5235 101.065 53.5395 101.193 53.4594C101.321 53.3793 101.289 53.2351 101.177 53.171C100.953 53.0428 100.648 52.9947 100.392 52.9307C99.9113 52.8025 99.4306 52.6423 98.966 52.434C97.9246 51.9854 96.9953 51.3124 96.2262 50.4793C96.1141 50.3672 95.9539 50.5274 96.05 50.6555Z" fill="#B7A294" stroke="#B7A294" stroke-width="0.5" stroke-linejoin="round"/>
<path d="M45.1173 64.9474C46.0145 65.3319 47.0079 65.5402 47.9852 65.4921C48.8023 65.4601 49.5874 65.2197 50.3404 64.8833C51.0614 64.5628 51.7504 64.1142 52.2791 63.5214C52.9039 62.8004 53.2084 61.8872 53.0642 60.9259C52.8719 59.6121 51.9266 58.5226 50.8051 57.8657C50.6769 57.7856 50.5487 57.9938 50.6769 58.074C51.6542 58.6347 52.4713 59.5319 52.7597 60.6375C53.0001 61.5667 52.7918 62.512 52.183 63.249C51.7023 63.8418 51.0614 64.2744 50.3885 64.5949C49.7797 64.8993 49.1067 65.1236 48.4338 65.2037C47.3604 65.3479 46.2388 65.1556 45.2455 64.723C45.0852 64.675 44.9731 64.8833 45.1173 64.9474Z" fill="#B7A294" stroke="#B7A294" stroke-width="0.5" stroke-linejoin="round"/>
<path d="M33.6928 3.82423C37.0414 5.25018 40.3259 6.88441 43.4662 8.74295C46.7026 10.6496 49.7628 12.8285 52.7268 15.1357C56.0754 17.7473 59.3279 20.487 62.6284 23.1787C65.8488 25.8063 69.0852 28.4339 72.3697 30.9974C76.3752 34.1377 80.4127 37.2619 84.6905 40.0177C86.7093 41.3155 88.8081 42.5491 91.0993 43.2862C91.9805 43.5746 92.8777 43.7508 93.7749 43.927C95.0727 44.1834 96.3865 44.4718 97.6522 44.9044C98.0368 45.0325 98.7417 45.2248 98.982 45.6093C99.2704 46.074 97.9887 46.3624 97.7323 46.4425C96.771 46.6988 95.7616 46.843 94.7683 46.9712C94.6722 46.9872 94.592 47.1314 94.7042 47.1955C95.3451 47.5159 96.002 47.8524 96.5307 48.3331C96.8511 48.6214 97.2357 49.054 97.0915 49.5347C96.9633 49.9673 96.4987 50.2557 96.1141 50.4479C94.7362 51.185 93.102 51.4894 91.5799 51.7778C87.9109 52.4667 84.1938 52.7551 80.4768 53.0755C77.2083 53.3639 73.9558 53.5882 70.6714 53.7004C66.3775 53.8446 62.0676 53.7965 57.7898 53.4601C52.9511 53.0916 48.1285 52.3706 43.4181 51.1529C38.5154 49.8872 33.7249 48.0607 29.3349 45.5132C26.9636 44.1353 24.5764 42.5972 22.6858 40.6105C21.3079 39.1685 20.0742 37.2459 20.6029 35.1791C20.8913 34.0415 21.6444 33.0802 22.4775 32.2791C23.4709 31.3178 24.6244 30.5327 25.778 29.7637C28.1012 28.2256 30.4724 26.8637 33.0519 25.8383C34.6221 25.2135 36.3204 24.7488 37.7784 23.8676C39.0922 23.0665 39.8132 21.7688 39.8132 20.2146C39.8292 18.1318 38.7237 16.1451 37.5541 14.4948C36.2884 12.7164 34.7022 11.2744 32.7475 10.2811C32.1387 9.97664 31.5138 9.72029 30.873 9.512C30.7288 9.46394 30.6647 9.68824 30.8089 9.73631C32.6674 10.3451 34.3818 11.3545 35.7757 12.7324C37.2657 14.1904 38.5635 16.1451 39.2044 18.1158C39.7972 19.9102 39.7491 22.0571 38.1629 23.3069C36.8491 24.3483 35.0867 24.7809 33.5486 25.3897C31.0492 26.367 28.694 27.5847 26.4349 29.0427C25.2813 29.7957 24.1277 30.5487 23.0543 31.43C22.1571 32.167 21.3079 33.0161 20.7632 34.0415C18.4079 38.4956 23.9675 42.405 27.1078 44.4558C31.3857 47.2436 36.1281 49.3104 41.0308 50.7684C45.7733 52.1783 50.66 53.0595 55.5787 53.5402C60.0488 53.9888 64.551 54.117 69.0371 54.0208C72.5139 53.9407 75.9906 53.7164 79.4674 53.428C83.0563 53.1236 86.6772 52.8352 90.2341 52.2744C91.9484 52.0021 93.7269 51.6977 95.3611 51.0728C96.1141 50.7844 97.5401 50.1916 97.2997 49.1341C97.2036 48.6855 96.8191 48.317 96.4826 48.0447C95.9699 47.6281 95.3771 47.3237 94.7843 47.0193C94.7683 47.0994 94.7362 47.1635 94.7202 47.2436C95.6976 47.1154 96.6749 46.9712 97.6362 46.7309C98.0848 46.6187 98.934 46.4585 99.1743 45.9778C99.5588 45.2088 97.7804 44.7442 97.3478 44.6C95.6335 44.0552 93.855 43.8149 92.1087 43.3663C90.0258 42.8375 88.1192 41.8602 86.2767 40.7707C82.3033 38.3995 78.6022 35.5796 74.9332 32.7598C68.236 27.6007 61.7792 22.1533 55.2102 16.8661C52.2782 14.4948 49.2821 12.2037 46.1098 10.1529C42.6651 7.92584 39.0281 6.00321 35.295 4.30489C34.7983 4.08058 34.3017 3.85627 33.789 3.64799C33.6768 3.55186 33.5486 3.76014 33.6928 3.82423Z" fill="#B7A294" stroke="#B7A294" stroke-width="0.5" stroke-linejoin="round"/>
<path d="M6.13701 13.3877C6.72982 10.9684 7.64307 8.5811 9.08504 6.5303C10.1745 4.97617 11.6005 3.59829 13.2988 2.74913C15.1413 1.81986 17.2722 1.43533 19.307 1.22705C21.4059 1.01877 23.5368 1.1149 25.6196 1.45136C28.2793 1.88395 30.8588 2.68504 33.3582 3.69442C33.7427 3.85464 34.1112 3.99884 34.4797 4.15906C34.4637 4.11099 34.4477 4.0469 34.4317 3.99884C33.3742 6.45019 31.6279 8.5811 29.8494 10.5358C28.9842 11.4811 28.055 12.3943 26.9975 13.1313C26.1323 13.7562 25.187 14.2528 24.2257 14.6854C23.2965 15.102 22.3512 15.4865 21.4379 15.9512C20.3164 16.5119 19.2429 17.2009 18.2656 17.986C16.9358 19.0274 15.7181 20.229 14.5966 21.4947C13.6032 22.6003 12.69 23.7859 11.7447 24.9234C10.4309 26.5256 8.82869 28.4483 6.55358 28.288C6.13701 28.256 5.73647 28.1599 5.35194 28.0157C5.38398 28.0477 5.41603 28.0958 5.44807 28.1278C5.22377 25.8367 5.12763 23.5456 5.1757 21.2384C5.1757 21.0782 4.93537 21.0782 4.93537 21.2384C4.87128 23.5295 4.96742 25.8367 5.20774 28.1278C5.20774 28.1919 5.23979 28.2239 5.30387 28.24C6.40939 28.6565 7.61103 28.6245 8.66847 28.1118C9.62979 27.6472 10.4149 26.8621 11.1198 26.077C12.0491 25.0356 12.8983 23.9141 13.7955 22.8406C14.901 21.5268 16.0546 20.245 17.3363 19.1075C18.4098 18.1622 19.5473 17.297 20.797 16.5921C21.7263 16.0633 22.7197 15.6307 23.697 15.2142C24.6583 14.7976 25.5876 14.365 26.4848 13.8042C27.6064 13.0993 28.6157 12.2341 29.529 11.2728C31.3074 9.43026 32.9897 7.39548 34.1914 5.13639C34.3676 4.81595 34.5278 4.47949 34.672 4.12701C34.688 4.07895 34.688 3.98281 34.6239 3.96679C32.0124 2.84526 29.3047 1.91599 26.5169 1.37125C24.3699 0.954677 22.1589 0.794459 19.9799 0.954678C17.833 1.09888 15.638 1.4834 13.6673 2.34858C12.001 3.08559 10.5751 4.30325 9.43752 5.71318C7.8834 7.65183 6.87402 9.975 6.2011 12.3623C6.10497 12.6827 6.02486 13.0192 5.94475 13.3556C5.86464 13.4838 6.10497 13.5479 6.13701 13.3877Z" fill="#B7A294" stroke="#B7A294" stroke-width="0.5" stroke-linejoin="round"/>
<path d="M5.95967 13.2444C4.3735 15.0869 2.78734 16.9295 1.18515 18.772C1.13708 18.8361 1.13708 18.9162 1.21719 18.9642C2.80336 20.0377 4.43759 21.0791 6.13591 21.9924C6.5685 22.2167 7.01712 22.457 7.49777 22.5692C8.05854 22.6813 8.66737 22.5852 9.19609 22.3769C10.0773 22.0244 10.8303 21.3836 11.5513 20.7747C12.2242 20.214 13.0093 19.6532 13.506 18.9002C13.8424 18.4035 13.9065 17.8107 13.6181 17.2659C13.2657 16.625 12.5607 16.2085 11.9679 15.856C10.1254 14.7505 8.17069 13.8372 6.08785 13.2124C5.94365 13.1643 5.87956 13.4046 6.02376 13.4367C7.75412 13.9494 9.40438 14.6864 10.9745 15.5516C11.6955 15.9521 12.4966 16.3527 13.0894 16.9615C13.506 17.3941 13.6982 17.9549 13.4259 18.5156C13.1054 19.2046 12.4005 19.7013 11.8397 20.1819C11.0867 20.8068 10.3336 21.4957 9.46847 21.9603C8.92372 22.2487 8.26682 22.425 7.65799 22.3288C7.24142 22.2648 6.84088 22.0725 6.47237 21.8802C4.69394 20.967 2.99562 19.8615 1.34537 18.7399C1.36139 18.804 1.36139 18.8681 1.37741 18.9322C2.96358 17.0897 4.54974 15.2472 6.15193 13.4046C6.23204 13.3085 6.0558 13.1323 5.95967 13.2444Z" fill="#B7A294" stroke="#B7A294" stroke-width="0.5" stroke-linejoin="round"/>
<path d="M13.666 17.7947C12.2721 17.8908 10.8942 18.003 9.50032 18.0991C7.28929 18.2593 5.06225 18.4196 2.85123 18.5798C2.33853 18.6118 1.82583 18.6599 1.32915 18.6919C1.16893 18.708 1.16893 18.9483 1.32915 18.9323C2.72305 18.8361 4.10094 18.724 5.49484 18.6278C7.70586 18.4676 9.93291 18.3074 12.1439 18.1472C12.6566 18.1151 13.1693 18.0671 13.666 18.035C13.8262 18.019 13.8262 17.7787 13.666 17.7947Z" fill="#B7A294" stroke="#B7A294" stroke-width="0.5" stroke-linejoin="round"/>
<path d="M17.9603 14.2857C18.6416 14.2857 19.1939 13.7334 19.1939 13.052C19.1939 12.3707 18.6416 11.8184 17.9603 11.8184C17.2789 11.8184 16.7266 12.3707 16.7266 13.052C16.7266 13.7334 17.2789 14.2857 17.9603 14.2857Z" fill="#B7A294" stroke="#B7A294" stroke-width="0.5" stroke-linejoin="round"/>
<path d="M97.1411 49.5663C95.3307 49.406 93.5202 49.2618 91.7097 49.1016C90.2998 48.9895 88.8738 48.8613 87.4639 48.7491C84.6921 48.5248 81.9363 48.2845 79.1646 48.0602C75.9281 47.7878 72.6917 47.5155 69.4713 47.2431C66.6354 47.0028 63.7996 46.7624 60.9797 46.5221C59.4576 46.3939 57.9195 46.2657 56.3974 46.1376C55.5323 46.0575 54.6671 45.9934 53.8019 45.9133C51.0622 45.689 48.3224 45.4486 45.5987 45.2243C42.4424 44.9519 39.3021 44.6956 36.1458 44.4232C34.2231 44.263 32.3005 44.1028 30.3939 43.9426C30.2978 43.9426 30.2016 43.9265 30.1055 43.9265C29.9453 43.9105 29.9453 44.1509 30.1055 44.1669C31.4674 44.279 32.8453 44.3912 34.2071 44.5033C37.2192 44.7597 40.2314 45.016 43.2435 45.2564C46.2235 45.5127 49.2196 45.753 52.1997 46.0094C53.5295 46.1215 54.8433 46.2337 56.1731 46.3459C57.2626 46.442 58.3521 46.5221 59.4576 46.6182C62.0532 46.8425 64.6487 47.0508 67.2443 47.2751C70.4647 47.5475 73.6691 47.8199 76.8895 48.0922C79.8535 48.3486 82.8015 48.5889 85.7656 48.8453C87.5921 49.0055 89.4026 49.1497 91.2291 49.3099C92.8312 49.4381 94.4174 49.5823 96.0196 49.7105C96.4041 49.7425 96.7886 49.7745 97.1892 49.8066C97.2853 49.8066 97.2853 49.5663 97.1411 49.5663Z" fill="#B7A294" stroke="#B7A294" stroke-width="0.5" stroke-linejoin="round"/>
<path d="M97.0596 48.7009C94.6723 48.3163 92.2691 47.9158 89.8818 47.5633C89.0807 47.4512 88.2956 47.339 87.4945 47.2268C86.0526 47.0186 84.5946 46.8103 83.1526 46.602C81.3101 46.3456 79.4676 46.0733 77.625 45.8169C75.6704 45.5445 73.6997 45.2562 71.745 44.9838C69.9025 44.7274 68.06 44.4551 66.2175 44.1987C64.7595 43.9904 63.3015 43.7821 61.8435 43.5739C61.0424 43.4617 60.2253 43.3495 59.4242 43.2214C57.0529 42.8849 54.6817 42.5485 52.2944 42.212C48.337 41.6512 44.3956 41.0905 40.4382 40.5297C39.4769 40.3855 38.5156 40.2573 37.5703 40.1131C37.4261 40.0971 37.346 40.3214 37.5062 40.3374C41.4636 40.8982 45.405 41.459 49.3624 42.0197C52.6309 42.4844 55.8833 42.949 59.1518 43.4136C59.7606 43.4937 60.3855 43.5899 60.9943 43.67C62.3241 43.8622 63.6379 44.0545 64.9677 44.2308C66.7302 44.4871 68.4926 44.7274 70.255 44.9838C72.2257 45.2562 74.1803 45.5445 76.151 45.8169C78.0416 46.0893 79.9482 46.3617 81.8388 46.634C83.3929 46.8583 84.9631 47.0827 86.5172 47.307C87.4945 47.4512 88.4879 47.5793 89.4652 47.7235C91.0354 47.9478 92.6055 48.2042 94.1757 48.4605C95.121 48.6047 96.0663 48.765 97.0115 48.9091C97.1397 48.9572 97.2038 48.7169 97.0596 48.7009Z" fill="#B7A294" stroke="#B7A294" stroke-width="0.5" stroke-linejoin="round"/>
<path d="M95.25 47.0342C93.5837 46.6817 91.9174 46.3292 90.2512 45.9767C89.2738 45.7684 88.2965 45.5602 87.3352 45.3519C86.1656 45.1115 84.98 44.8552 83.8104 44.6149C81.7756 44.1823 79.7568 43.7657 77.722 43.3331C75.4469 42.8525 73.1558 42.3718 70.8807 41.8911C68.9741 41.4906 67.0515 41.09 65.1448 40.6735C64.2156 40.4812 63.2863 40.2729 62.341 40.0807C61.4438 39.8884 60.5466 39.6961 59.6493 39.5199C57.4543 39.0553 55.2754 38.5906 53.0804 38.126C51.4782 37.7895 49.876 37.4531 48.2738 37.1166C48.1937 37.1006 48.1136 37.0846 48.0174 37.0686C47.8732 37.0365 47.8092 37.2608 47.9533 37.2929C49.1229 37.5332 50.2925 37.7895 51.4782 38.0299C53.7052 38.4945 55.9323 38.9752 58.1593 39.4398C59.5051 39.7282 60.835 40.0006 62.1808 40.289C62.8057 40.4171 63.4305 40.5613 64.0714 40.6895C65.8017 41.058 67.5481 41.4265 69.2785 41.795C71.5216 42.2757 73.7807 42.7403 76.0237 43.221C78.1546 43.6696 80.3016 44.1182 82.4325 44.5828C83.8744 44.8872 85.3164 45.1917 86.7584 45.4961C87.4313 45.6403 88.0882 45.7845 88.7611 45.9126C90.7639 46.3292 92.7506 46.7618 94.7533 47.1784C94.8975 47.2104 95.0577 47.2425 95.2019 47.2745C95.3461 47.3065 95.4102 47.0662 95.25 47.0342Z" fill="#B7A294" stroke="#B7A294" stroke-width="0.5" stroke-linejoin="round"/>
<path d="M98.4704 46.2484C97.7334 46.0081 96.9804 45.7678 96.2434 45.5274C94.5771 44.9827 92.8948 44.454 91.2285 43.9092C89.4821 43.3485 87.7197 42.7717 85.9733 42.2109C84.964 41.8905 83.9706 41.57 82.9612 41.2336C82.4645 41.0734 81.9518 40.9131 81.4552 40.7529C79.9491 40.2723 78.443 39.7916 76.937 39.2949C75.1105 38.7021 73.3 38.1253 71.4735 37.5325C70.0956 37.0839 68.7178 36.6513 67.3559 36.2027C66.7791 36.0265 66.2183 35.8342 65.6415 35.658C64.0233 35.1453 62.4211 34.6165 60.8029 34.1038C60.6748 34.0718 60.5626 34.0237 60.4344 33.9917C60.2902 33.9436 60.2261 34.184 60.3703 34.216C61.7162 34.6486 63.062 35.0812 64.4079 35.5138C65.1769 35.7701 65.962 36.0104 66.731 36.2668C67.8846 36.6353 69.0382 37.0038 70.1918 37.3723C71.9862 37.9491 73.7646 38.5259 75.5591 39.1027C77.2094 39.6314 78.8596 40.1601 80.5099 40.6888C81.2629 40.9292 82.0319 41.1695 82.785 41.4258C83.4899 41.6502 84.1789 41.8745 84.8838 42.0988C86.5341 42.6275 88.1844 43.1562 89.8346 43.6849C91.597 44.2457 93.3594 44.8225 95.1379 45.3833C96.1793 45.7197 97.2367 46.0562 98.2782 46.3926C98.3262 46.4087 98.3743 46.4247 98.4223 46.4407C98.5505 46.5368 98.6146 46.2965 98.4704 46.2484Z" fill="#B7A294" stroke="#B7A294" stroke-width="0.5" stroke-linejoin="round"/>
<path d="M77.9935 35.0174C77.0162 34.5207 76.0389 34.0401 75.0615 33.5434C74.2604 33.1429 73.4593 32.7423 72.6582 32.3257C71.9052 31.9412 71.1522 31.5727 70.3991 31.1882C69.1815 30.5794 67.9798 29.9705 66.7622 29.3617C65.8169 28.881 64.8876 28.4004 63.9423 27.9357C63.9263 27.9357 63.9103 27.9197 63.8943 27.9037C63.7501 27.8396 63.6379 28.0479 63.7661 28.112C64.5512 28.5125 65.3523 28.9131 66.1373 29.3136C67.4031 29.9545 68.6848 30.5954 69.9505 31.2363C70.6395 31.5887 71.3444 31.9412 72.0334 32.2937C72.8345 32.6943 73.6356 33.0948 74.4367 33.5114C75.5582 34.0721 76.6637 34.6489 77.7852 35.1937C77.8013 35.2097 77.8333 35.2097 77.8493 35.2257C78.0096 35.3058 78.1377 35.0975 77.9935 35.0174Z" fill="#B7A294" stroke="#B7A294" stroke-width="0.5" stroke-linejoin="round"/>
<path d="M64.2147 71.7409C63.2213 73.3111 62.228 74.8812 61.2506 76.4514C59.6965 78.9187 58.1264 81.4021 56.5722 83.8695C56.4761 84.0137 56.428 84.1098 56.2838 84.1739C56.1717 84.238 56.0435 84.2861 55.9153 84.3341C55.6269 84.4463 55.3385 84.5424 55.0501 84.6225C54.4894 84.7667 53.9126 84.8468 53.3358 84.8308C52.2143 84.7988 51.1248 84.4783 50.0353 84.254C49.3624 84.1258 48.6895 84.0137 48.0165 83.9176C47.4237 83.8375 46.8309 83.7573 46.2221 83.7413C45.3088 83.7093 44.3956 83.8375 43.5464 84.206C42.0404 84.8789 40.9509 86.2247 40.1978 87.6507C40.0537 87.9391 39.9095 88.2274 39.7813 88.5158C39.7172 88.66 39.8934 88.7562 39.9896 88.644C40.8067 87.5706 41.9442 86.7695 43.226 86.3369C44.0912 86.0485 45.0204 85.9523 45.9337 86.1286C46.6387 86.2728 47.2315 86.6733 47.9044 86.8816C48.8016 87.17 49.795 87.1219 50.7082 86.8656C50.6601 86.8015 50.6121 86.7534 50.58 86.6894C49.9712 87.875 49.9071 89.2689 50.58 90.4385C50.6441 90.5506 50.8043 90.4865 50.8043 90.3744C50.8524 89.6694 51.0447 88.8523 51.6695 88.4197C51.99 88.1954 52.4386 88.1794 52.8231 88.1473C53.7364 88.0833 54.6496 88.0993 55.5628 88.0993C56.0115 88.0993 56.4761 88.0993 56.9087 87.9711C57.7098 87.7308 58.3827 87.17 58.8794 86.5131C58.8313 86.5291 58.7833 86.5452 58.7512 86.5612C59.9048 86.7855 61.0584 87.0258 62.2119 87.2501C62.8849 87.3783 63.5257 87.5385 64.1666 87.8109C64.8395 88.0993 65.4804 88.4838 66.0732 88.9324C66.1693 89.0125 66.2975 88.8683 66.2334 88.7722C65.0158 86.6894 62.8849 85.2954 60.4976 84.991C60.5296 85.0551 60.5617 85.1192 60.5937 85.1673C62.276 81.4983 63.9583 77.8453 65.6406 74.1762C66.1213 73.1348 66.6019 72.0934 67.0826 71.052C67.1146 70.9879 67.0826 70.9078 67.0185 70.8757C66.0251 70.5713 64.9196 70.8757 64.2307 71.6768C64.1346 71.789 64.2948 71.9652 64.4069 71.8531C65.0318 71.1161 66.0412 70.8277 66.9544 71.1161C66.9384 71.052 66.9063 71.0039 66.8903 70.9398C65.208 74.6088 63.5257 78.2618 61.8434 81.9308C61.3628 82.9723 60.8821 84.0137 60.4015 85.0551C60.3534 85.1512 60.4175 85.2314 60.4976 85.2314C62.8047 85.5197 64.8555 86.8976 66.0251 88.8844C66.0732 88.8363 66.1373 88.7722 66.1854 88.7241C65.3042 88.0672 64.3268 87.5545 63.2694 87.2501C62.4042 87.0098 61.507 86.8656 60.6418 86.7054C60.033 86.5772 59.4241 86.465 58.8153 86.3369C58.7512 86.3208 58.7192 86.3529 58.6871 86.3849C58.2225 87.0098 57.5816 87.5225 56.8126 87.7308C56.3479 87.8589 55.8352 87.8429 55.3546 87.8429C54.4413 87.8429 53.512 87.8109 52.5988 87.907C52.2303 87.9391 51.8458 87.9871 51.5253 88.2114C50.8364 88.6921 50.6121 89.5573 50.564 90.3584C50.6441 90.3423 50.7082 90.3103 50.7883 90.2943C50.1635 89.2048 50.2115 87.891 50.7883 86.7855C50.8364 86.6893 50.7563 86.5772 50.6602 86.6092C49.795 86.8496 48.8497 86.8976 47.9845 86.6253C47.2795 86.401 46.6547 85.9844 45.9177 85.8402C44.4917 85.5678 43.0177 85.9844 41.768 86.7054C40.9989 87.154 40.342 87.7628 39.7973 88.4678C39.8614 88.5158 39.9415 88.5479 40.0056 88.596C40.7106 86.9457 41.784 85.3275 43.4343 84.4943C44.1873 84.1098 45.0204 83.9496 45.8536 83.9336C47.1353 83.9176 48.4331 84.1419 49.6828 84.3822C50.7723 84.5905 51.8458 84.9109 52.9513 85.0071C54.0728 85.1032 55.1943 84.8789 56.2197 84.4142C56.3159 84.3662 56.412 84.3341 56.5081 84.2861C56.6363 84.206 56.7004 84.0457 56.7805 83.9176C56.9728 83.6131 57.165 83.3087 57.3573 83.0043C57.7418 82.3795 58.1424 81.7706 58.5269 81.1458C59.312 79.9121 60.081 78.6784 60.8661 77.4287C61.9556 75.6983 63.0611 73.9519 64.1506 72.2216C64.2307 72.0934 64.3268 71.9492 64.4069 71.821C64.5031 71.7249 64.2948 71.6127 64.2147 71.7409Z" fill="#B7A294" stroke="#B7A294" stroke-width="0.5" stroke-linejoin="round"/>
<path d="M44.8288 84.0613C44.9569 84.1093 45.1172 84.1734 45.1973 84.2856C45.2133 84.3016 45.2133 84.3176 45.2293 84.3497C45.2293 84.3497 45.2293 84.3977 45.2293 84.3657C45.2293 84.3817 45.2293 84.3977 45.2293 84.3977C45.2293 84.4298 45.2293 84.3977 45.2293 84.4137C45.1973 84.5259 45.0851 84.6541 44.989 84.7502C44.8128 84.9264 44.6045 85.0867 44.4282 85.2469C44.1559 85.4872 43.8835 85.7275 43.6111 85.9839C43.499 86.096 43.6752 86.2563 43.7874 86.1601C44.2039 85.7596 44.6365 85.4071 45.0691 85.0226C45.2614 84.8463 45.5337 84.606 45.4857 84.3176C45.4376 84.0452 45.1492 83.9171 44.9249 83.837C44.7487 83.7729 44.6846 84.0132 44.8288 84.0613Z" fill="#B7A294" stroke="#B7A294" stroke-width="0.5" stroke-linejoin="round"/>
<path d="M50.7569 86.8647C50.885 86.7205 51.0292 86.6244 51.2055 86.5603C51.4779 86.4802 51.7823 86.5283 52.0066 86.6725C52.1027 86.7365 52.1988 86.8167 52.2469 86.9128C52.2629 86.9288 52.2629 86.9609 52.2629 86.9929C52.279 87.0249 52.2629 86.9609 52.2629 86.9929C52.2629 87.0089 52.2629 87.041 52.2629 87.0089C52.2469 87.073 52.2469 87.089 52.2149 87.1211C52.1668 87.2012 52.1187 87.2973 52.0707 87.3774C51.8944 87.6658 51.7022 87.9542 51.5099 88.2426C51.4298 88.3708 51.6381 88.4829 51.7182 88.3708C51.9104 88.0824 52.1027 87.794 52.295 87.4896C52.3751 87.3614 52.4872 87.2012 52.5033 87.0249C52.5193 86.8167 52.3591 86.6244 52.1988 86.5122C51.9425 86.32 51.59 86.2399 51.2856 86.304C51.0132 86.352 50.7729 86.4962 50.5967 86.7045C50.4845 86.8006 50.6607 86.9769 50.7569 86.8647Z" fill="#B7A294"/>
<path d="M52.2629 86.9929C52.2629 86.9609 52.2629 86.9288 52.2469 86.9128C52.1988 86.8167 52.1027 86.7365 52.0066 86.6725C51.7823 86.5283 51.4779 86.4802 51.2055 86.5603C51.0292 86.6244 50.885 86.7205 50.7569 86.8647C50.6607 86.9769 50.4845 86.8006 50.5967 86.7045C50.7729 86.4962 51.0132 86.352 51.2856 86.304C51.59 86.2399 51.9425 86.32 52.1988 86.5122C52.3591 86.6244 52.5193 86.8167 52.5033 87.0249C52.4872 87.2012 52.3751 87.3614 52.295 87.4896C52.1027 87.794 51.9104 88.0824 51.7182 88.3708C51.6381 88.4829 51.4298 88.3708 51.5099 88.2426C51.7022 87.9542 51.8944 87.6658 52.0707 87.3774C52.1187 87.2973 52.1668 87.2012 52.2149 87.1211C52.2469 87.089 52.2469 87.073 52.2629 87.0089C52.2629 87.041 52.2629 87.0089 52.2629 86.9929ZM52.2629 86.9929C52.2629 86.9609 52.279 87.0249 52.2629 86.9929Z" stroke="#B7A294" stroke-width="0.5" stroke-linejoin="round"/>
<path d="M63.4143 87.3145C63.4304 87.3466 63.3983 87.2825 63.4143 87.3145C63.4143 87.2985 63.3983 87.2825 63.3983 87.2665C63.3983 87.2505 63.3823 87.2184 63.3823 87.2024C63.3823 87.1864 63.3823 87.1864 63.3823 87.1703C63.3823 87.2024 63.3823 87.1543 63.3823 87.1543C63.3823 87.0902 63.3823 87.0422 63.3983 86.9941C63.4144 86.946 63.4304 86.898 63.4624 86.8499C63.4624 86.8499 63.4784 86.8179 63.4784 86.8339C63.4784 86.8179 63.4945 86.8179 63.4945 86.8018C63.5105 86.7858 63.5265 86.7698 63.5585 86.7538C63.5425 86.7698 63.5746 86.7378 63.5746 86.7378C63.5906 86.7378 63.5906 86.7217 63.6066 86.7217C63.6226 86.7217 63.6226 86.7057 63.6387 86.7057C63.6387 86.7057 63.6707 86.6897 63.6547 86.6897C63.7027 86.6737 63.7508 86.6576 63.7989 86.6416C63.7829 86.6416 63.8149 86.6416 63.8149 86.6416C63.8309 86.6416 63.8469 86.6416 63.8469 86.6416C63.879 86.6416 63.911 86.6416 63.9431 86.6416C64.0072 86.6416 64.0712 86.5775 64.0712 86.5134C64.0712 86.4494 64.0232 86.4013 63.9431 86.3853C63.6707 86.3532 63.3983 86.4654 63.2541 86.6897C63.1099 86.898 63.1099 87.1703 63.2221 87.3946C63.2541 87.4587 63.3342 87.4748 63.3823 87.4427C63.4304 87.4427 63.4464 87.3786 63.4143 87.3145Z" fill="#B7A294"/>
<path d="M63.4143 87.3145C63.3983 87.2825 63.4304 87.3466 63.4143 87.3145ZM63.4143 87.3145C63.4143 87.2985 63.3983 87.2825 63.3983 87.2665C63.3983 87.2505 63.3823 87.2184 63.3823 87.2024C63.3823 87.1864 63.3823 87.1864 63.3823 87.1703C63.3823 87.2024 63.3823 87.1543 63.3823 87.1543C63.3823 87.0902 63.3823 87.0422 63.3983 86.9941C63.4144 86.946 63.4304 86.898 63.4624 86.8499C63.4624 86.8499 63.4784 86.8179 63.4784 86.8339C63.4784 86.8179 63.4945 86.8179 63.4945 86.8018C63.5105 86.7858 63.5265 86.7698 63.5585 86.7538C63.5425 86.7698 63.5746 86.7378 63.5746 86.7378C63.5906 86.7378 63.5906 86.7217 63.6066 86.7217C63.6226 86.7217 63.6226 86.7057 63.6387 86.7057C63.6387 86.7057 63.6707 86.6897 63.6547 86.6897C63.7027 86.6737 63.7508 86.6576 63.7989 86.6416C63.7829 86.6416 63.8149 86.6416 63.8149 86.6416C63.8309 86.6416 63.8469 86.6416 63.8469 86.6416C63.879 86.6416 63.911 86.6416 63.9431 86.6416C64.0072 86.6416 64.0712 86.5775 64.0712 86.5134C64.0712 86.4494 64.0232 86.4013 63.9431 86.3853C63.6707 86.3532 63.3983 86.4654 63.2541 86.6897C63.1099 86.898 63.1099 87.1703 63.2221 87.3946C63.2541 87.4587 63.3342 87.4748 63.3823 87.4427C63.4304 87.4427 63.4464 87.3786 63.4143 87.3145Z" stroke="#B7A294" stroke-width="0.5" stroke-linejoin="round"/>
</svg>
