<svg width="61" height="42" viewBox="0 0 61 42" fill="none" xmlns="http://www.w3.org/2000/svg">
<path d="M10.3367 37.1472C10.0524 37.1034 9.7753 37.1326 9.52011 37.2565C9.24305 37.3878 8.98786 37.5846 8.76913 37.7961C8.79829 37.8107 8.82746 37.8325 8.86391 37.8471C8.93682 37.5992 9.08265 37.3586 9.26492 37.1763C9.5274 36.9139 9.8555 36.7826 10.2201 36.768C10.5482 36.7535 10.869 36.8409 11.1387 37.0378C11.1971 37.0815 11.2481 36.9868 11.1971 36.943C10.7961 36.6514 10.2565 36.5858 9.78259 36.7316C9.40346 36.8482 9.08994 37.1399 8.90037 37.4898C8.84204 37.5919 8.791 37.7086 8.76184 37.8252C8.74726 37.8763 8.81288 37.9127 8.85662 37.8763C9.06077 37.6794 9.2868 37.5117 9.5347 37.3805C9.7753 37.2565 10.0524 37.2128 10.3221 37.2565C10.3805 37.2638 10.4096 37.1545 10.3367 37.1472Z" fill="black" stroke="black" stroke-width="0.25" stroke-linejoin="round"/>
<path d="M10.09 36.7671C10.1045 36.7744 10.1191 36.7817 10.1264 36.789C10.1337 36.7963 10.1337 36.7963 10.141 36.8036C10.1483 36.8254 10.1337 36.7963 10.141 36.8036L10.141 36.8109C10.141 36.8182 10.141 36.8109 10.141 36.8036C10.141 36.8109 10.141 36.8327 10.141 36.8109C10.141 36.8182 10.141 36.8254 10.1337 36.8327C10.1337 36.84 10.1337 36.84 10.1264 36.8473C10.1191 36.8619 10.1045 36.8765 10.0972 36.8984C10.0972 36.8984 10.0827 36.9129 10.09 36.9056C10.09 36.9129 10.0827 36.9129 10.0827 36.9202C10.0754 36.9275 10.0681 36.9421 10.0535 36.9494C10.0316 36.9713 10.017 36.9931 9.99517 37.0077C9.94413 37.0588 9.8858 37.1098 9.83476 37.1608C9.81289 37.1827 9.81289 37.2192 9.83476 37.241C9.85664 37.2629 9.89309 37.2629 9.91497 37.241C9.9733 37.1827 10.0316 37.1317 10.09 37.0733C10.1337 37.0296 10.1702 36.9858 10.2066 36.9348C10.2285 36.8984 10.2504 36.8619 10.2431 36.8182C10.2431 36.7525 10.192 36.7015 10.1337 36.6723C10.1045 36.6577 10.0754 36.665 10.0608 36.6942C10.0535 36.7161 10.0608 36.7525 10.09 36.7671Z" fill="black"/>
<path d="M10.141 36.8036C10.1337 36.7963 10.1337 36.7963 10.1264 36.789C10.1191 36.7817 10.1045 36.7744 10.09 36.7671C10.0608 36.7525 10.0535 36.7161 10.0608 36.6942C10.0754 36.665 10.1045 36.6577 10.1337 36.6723C10.192 36.7015 10.2431 36.7525 10.2431 36.8182C10.2504 36.8619 10.2285 36.8984 10.2066 36.9348C10.1702 36.9858 10.1337 37.0296 10.09 37.0733C10.0316 37.1317 9.9733 37.1827 9.91497 37.241C9.89309 37.2629 9.85664 37.2629 9.83476 37.241C9.81289 37.2192 9.81289 37.1827 9.83476 37.1608C9.8858 37.1098 9.94413 37.0588 9.99517 37.0077C10.017 36.9931 10.0316 36.9713 10.0535 36.9494C10.0681 36.9421 10.0754 36.9275 10.0827 36.9202C10.0827 36.9129 10.09 36.9129 10.09 36.9056C10.0827 36.9129 10.0972 36.8984 10.0972 36.8984C10.1045 36.8765 10.1191 36.8619 10.1264 36.8473C10.1337 36.84 10.1337 36.84 10.1337 36.8327C10.141 36.8254 10.141 36.8182 10.141 36.8109M10.141 36.8036C10.1337 36.7963 10.1483 36.8254 10.141 36.8036ZM10.141 36.8036L10.141 36.8109M10.141 36.8036C10.141 36.8109 10.141 36.8182 10.141 36.8109M10.141 36.8036C10.141 36.8109 10.141 36.8327 10.141 36.8109" stroke="black" stroke-width="0.25" stroke-linejoin="round"/>
<path d="M21.6709 33.7553C20.3585 34.4625 19.0607 35.2062 17.7774 35.9864C17.4129 36.2124 17.041 36.4311 16.6838 36.6644C16.6327 36.7009 16.6692 36.7738 16.7275 36.7665C17.6972 36.5842 18.718 36.8904 19.3961 37.605C19.5492 37.7654 19.6804 37.9404 19.7898 38.1299C19.8117 38.1008 19.8335 38.0789 19.8481 38.0497C18.8857 37.7216 17.8358 37.5466 16.8223 37.7654C16.3484 37.8675 15.9182 38.0862 15.4734 38.2758C15.211 38.3851 14.9412 38.4872 14.6568 38.5237C14.3652 38.5601 14.0954 38.5018 13.8184 38.4143C13.5048 38.3195 13.1767 38.2612 12.8778 38.4362C12.6518 38.5674 12.506 38.8007 12.4039 39.0413C12.4403 39.0486 12.4768 39.0486 12.5133 39.0559C12.4914 38.8445 12.4622 38.633 12.4403 38.4143C12.433 38.3487 12.4476 38.2612 12.3893 38.2174C12.331 38.181 12.2654 38.1518 12.1997 38.1226C11.8935 37.9768 11.5727 37.8747 11.2446 37.8237C10.9092 37.7727 10.5447 37.7581 10.2093 37.8164C9.86658 37.8747 9.54577 38.0352 9.28329 38.2612C9.07914 38.4362 8.91874 38.6549 8.7875 38.8955C8.75104 38.9611 8.84582 39.0122 8.88228 38.9538C9.08643 38.5674 9.39995 38.2466 9.79367 38.057C10.0634 37.9331 10.3551 37.8966 10.6467 37.8893C10.953 37.8893 11.2519 37.9185 11.5508 37.9987C11.8279 38.0716 12.0904 38.181 12.3456 38.3195C12.3383 38.3049 12.331 38.2903 12.3164 38.2758C12.3456 38.5382 12.3747 38.7934 12.4039 39.0559C12.4112 39.1215 12.4841 39.1288 12.5133 39.0705C12.608 38.8518 12.7466 38.6403 12.958 38.5237C13.2424 38.3705 13.5559 38.458 13.8475 38.5455C14.1027 38.6257 14.3652 38.6695 14.635 38.6403C14.8974 38.6111 15.1453 38.5309 15.3859 38.4362C15.838 38.2539 16.2609 38.0206 16.7348 37.9039C17.1212 37.8018 17.5222 37.7727 17.9233 37.78C18.5722 37.8018 19.2065 37.9477 19.8117 38.1518C19.8554 38.1664 19.8991 38.1081 19.87 38.0716C19.6294 37.6633 19.294 37.3133 18.893 37.0581C18.3972 36.7446 17.8139 36.5915 17.2306 36.5988C17.0483 36.5988 16.866 36.6207 16.6838 36.6498C16.6983 36.6863 16.7129 36.7155 16.7275 36.7519C18.0107 35.9499 19.3086 35.1843 20.6283 34.4479C20.9928 34.2438 21.3574 34.0469 21.7219 33.8501C21.7875 33.8136 21.7292 33.7188 21.6709 33.7553Z" fill="black" stroke="black" stroke-width="0.25" stroke-linejoin="round"/>
<path d="M8.85532 38.9839C9.21258 38.2766 9.6938 37.533 10.4448 37.1976C10.9114 36.9934 11.3926 37.0299 11.8738 37.1319C12.304 37.2194 12.7342 37.2996 13.1644 37.1903C13.5289 37.0955 13.8133 36.9059 14.0685 36.6289C14.3747 36.2935 14.7101 36.0091 15.1184 35.7904C15.534 35.5644 15.986 35.4185 16.4527 35.3237C16.8026 35.2508 17.1526 35.1852 17.4953 35.0831C18.4796 34.7769 19.3764 34.2374 20.1784 33.5885C20.2294 33.5447 20.1565 33.4645 20.0982 33.5083C19.3618 34.1061 18.5379 34.6165 17.6338 34.9227C16.8755 35.1779 16.0589 35.229 15.3225 35.5716C14.8851 35.7758 14.4768 36.0529 14.1414 36.3955C14.032 36.5122 13.9299 36.6289 13.8133 36.7382C13.682 36.8549 13.5216 36.9497 13.3612 37.0153C13.1279 37.1101 12.8727 37.1538 12.6175 37.1465C12.3915 37.1392 12.1728 37.0955 11.954 37.0445C11.502 36.9497 11.0499 36.8913 10.5979 37.0299C9.70838 37.3142 9.14697 38.1454 8.75325 38.9401C8.73137 38.9985 8.82616 39.0495 8.85532 38.9839Z" fill="black" stroke="black" stroke-width="0.25" stroke-linejoin="round"/>
<path d="M12.4242 38.2616C12.4388 37.9627 12.5773 37.7075 12.8325 37.5544C13.0439 37.4232 13.2991 37.3721 13.5397 37.3721C13.7293 37.3721 13.9699 37.4086 14.1084 37.5544C14.2032 37.6565 14.2251 37.8242 14.1595 37.9481C14.1157 38.0429 14.0209 38.0721 13.9261 38.0939C13.7657 38.1304 13.6053 38.1523 13.4449 38.2033C13.2772 38.2544 13.1095 38.32 12.9491 38.4002C12.8835 38.4293 12.9418 38.5241 13.0075 38.495C13.1824 38.4075 13.3647 38.3418 13.5543 38.2908C13.7074 38.2544 13.8678 38.2325 14.0209 38.1887C14.1303 38.1523 14.2251 38.0939 14.2688 37.9846C14.3271 37.8461 14.3199 37.6711 14.2397 37.5398C14.1157 37.3503 13.8678 37.2919 13.6564 37.2701C13.3793 37.2409 13.0804 37.2992 12.8325 37.4305C12.5117 37.5982 12.3294 37.9044 12.3148 38.2689C12.3075 38.3346 12.4169 38.3346 12.4242 38.2616Z" fill="black" stroke="black" stroke-width="0.25" stroke-linejoin="round"/>
<path d="M10.5939 37.124C10.7908 37.2479 11.0605 37.5614 10.8564 37.7948C10.8126 37.8458 10.8855 37.926 10.9366 37.875C11.1918 37.5833 10.9147 37.2042 10.6522 37.0292C10.5866 36.9927 10.5356 37.0875 10.5939 37.124Z" fill="black" stroke="black" stroke-width="0.25" stroke-linejoin="round"/>
<path d="M28.9604 10.1907C28.8 10.0303 28.6177 9.89175 28.45 9.74592C28.2677 9.58552 28.0781 9.42512 27.8886 9.272C27.4511 8.90745 27.0136 8.55747 26.5689 8.2075C26.2991 7.98877 26.022 7.78462 25.745 7.56588C25.6939 7.52214 25.6137 7.60234 25.6648 7.64609C26.547 8.34603 27.4365 9.03869 28.2969 9.7678C28.4937 9.93549 28.6979 10.0959 28.8802 10.2709C28.9312 10.3219 29.0114 10.2417 28.9604 10.1907Z" fill="black" stroke="black" stroke-width="0.25" stroke-linejoin="round"/>
<path d="M17.1932 2.0463C15.9318 1.45572 14.6413 0.923467 13.2924 0.595367C12.2061 0.325596 11.0832 0.187064 9.96041 0.22352C8.91778 0.259976 7.84599 0.42038 6.87627 0.806809C6.08883 1.12033 5.41805 1.64529 4.87851 2.2942C4.12023 3.19829 3.63173 4.29925 3.31092 5.42208C3.26717 5.57519 3.22342 5.72831 3.18697 5.88871C3.17239 5.95433 3.27446 5.9835 3.28904 5.91788C3.5734 4.77317 4.00357 3.64305 4.70352 2.68791C5.2139 1.98797 5.88468 1.37552 6.67941 1.01096C7.13146 0.806809 7.61267 0.668277 8.10117 0.566202C8.60426 0.456835 9.12193 0.391216 9.6396 0.35476C10.7114 0.281849 11.7978 0.383925 12.8477 0.609949C14.1674 0.894302 15.4506 1.36093 16.6755 1.92964C16.8286 2.00255 16.989 2.07546 17.1422 2.14837C17.2005 2.17025 17.2588 2.07546 17.1932 2.0463Z" fill="black" stroke="black" stroke-width="0.25" stroke-linejoin="round"/>
<path d="M46.1086 26.399C46.3346 26.3042 46.5534 26.2167 46.7794 26.1219C46.896 26.0782 47.0054 26.0198 47.1221 25.9834C47.1294 25.9834 47.1439 25.9688 47.1512 25.9761C47.1439 25.9761 47.1439 25.9834 47.1585 25.998C47.1804 26.0198 47.2314 26.0417 47.2606 26.0563C47.3918 26.1365 47.5304 26.2094 47.6616 26.2896C48.7626 26.9021 49.9146 27.4052 51.0957 27.8426C52.204 28.2509 53.3341 28.6009 54.4788 28.8998C55.4339 29.1477 56.3891 29.3665 57.3588 29.5633C58.0296 29.6946 58.7003 29.8185 59.3638 29.9498C59.5461 29.9862 59.7357 30.0227 59.918 30.0737C59.969 30.0883 60.0127 30.1029 60.0492 30.1174C60.0711 30.132 60.0638 30.132 60.0638 30.1247C60.0638 30.132 60.0638 30.1174 60.0638 30.1102C60.0565 30.081 60.0857 30.0883 60.0492 30.0956C59.8961 30.1247 59.7357 30.1174 59.5753 30.1174C59.3492 30.1102 59.1232 30.0956 58.8972 30.081C58.3139 30.0372 57.7306 29.9935 57.1546 29.9425C56.0172 29.8477 54.8798 29.7383 53.7424 29.6289C52.8966 29.5414 52.0436 29.454 51.1978 29.3665C50.6801 29.3154 50.1625 29.2571 49.6448 29.2352C49.5719 29.2352 49.0615 29.1769 49.1344 29.3665C49.1709 29.4612 49.3458 29.5123 49.4333 29.5487C49.6448 29.6362 49.8635 29.7091 50.0822 29.7748C50.702 29.9716 51.3217 30.1539 51.9488 30.3289C52.481 30.482 53.0133 30.6278 53.5382 30.8028C53.6111 30.8247 53.6841 30.8538 53.7497 30.883C53.7643 30.8903 53.7861 30.8976 53.808 30.9122C53.8153 30.9122 53.8226 30.9195 53.8299 30.9268C53.8372 30.9268 53.8226 30.9268 53.8226 30.9195C53.8226 30.9122 53.8226 30.8757 53.8226 30.883C53.8226 30.8757 53.8299 30.8757 53.8226 30.8757C53.808 30.8757 53.8153 30.883 53.7861 30.8903C53.7278 30.9049 53.6768 30.9122 53.6257 30.9122C53.1372 30.9486 52.6341 30.9049 52.1456 30.8684C51.3801 30.8028 50.6145 30.708 49.8562 30.5841C49.0177 30.4455 48.1866 30.2779 47.37 30.0591C46.6481 29.8623 45.9336 29.6289 45.2774 29.279C44.8327 29.0457 44.3806 28.8342 43.8994 28.6957C43.4546 28.5644 42.9953 28.4405 42.536 28.3822C41.9964 28.3093 41.4496 28.3238 40.91 28.4332C40.8444 28.4478 40.8736 28.5499 40.9392 28.5353C41.5152 28.4186 42.1058 28.4113 42.6818 28.5134C43.1338 28.5936 43.5859 28.7103 44.0233 28.8488C44.5046 29.0019 44.942 29.2352 45.3868 29.4612C45.7003 29.6216 46.0357 29.7529 46.3638 29.8695C47.1512 30.1466 47.9605 30.3435 48.7771 30.5039C49.5937 30.6643 50.4176 30.7955 51.2415 30.8903C51.8759 30.9632 52.5175 31.0288 53.1591 31.0361C53.3414 31.0361 53.5237 31.0434 53.6986 31.0215C53.7643 31.0142 53.9392 30.9997 53.9247 30.8976C53.9101 30.8101 53.7351 30.7736 53.6695 30.7445C53.458 30.6716 53.2466 30.6059 53.0351 30.5403C52.4154 30.3508 51.7884 30.1758 51.1686 29.9935C50.6218 29.8331 50.0677 29.68 49.5354 29.4758C49.4625 29.4467 49.3896 29.4175 49.3167 29.381C49.2948 29.3665 49.2729 29.3592 49.2511 29.3446C49.2438 29.3373 49.2292 29.33 49.2292 29.33C49.2365 29.3227 49.2219 29.3738 49.2219 29.3665C49.2219 29.3738 49.2146 29.3665 49.2292 29.3665C49.2656 29.3592 49.2875 29.3592 49.3386 29.3519C49.7323 29.3373 50.1406 29.3883 50.5343 29.4248C51.278 29.4977 52.029 29.5779 52.7727 29.6508C53.8299 29.7602 54.8798 29.8623 55.937 29.957C56.5713 30.0154 57.2057 30.0664 57.84 30.1174C58.3577 30.1612 58.8753 30.2049 59.393 30.2268C59.5826 30.2341 59.7721 30.2414 59.9617 30.2268C60.0273 30.2195 60.1731 30.2122 60.1731 30.1174C60.1731 30.03 60.0273 29.9935 59.9617 29.9789C59.5024 29.8404 59.0139 29.7748 58.5472 29.6873C57.7015 29.5269 56.863 29.3665 56.0245 29.1696C54.9381 28.9217 53.859 28.6374 52.7872 28.3093C51.5842 27.9301 50.4031 27.4926 49.2584 26.975C48.6824 26.7125 48.1137 26.4281 47.5668 26.1146C47.5012 26.0782 47.4356 26.0417 47.37 26.0053C47.3116 25.9688 47.2387 25.9105 47.1731 25.8886C47.1439 25.8813 47.1293 25.8886 47.1002 25.9032C46.9835 25.9542 46.8596 25.998 46.7429 26.049C46.5242 26.1365 46.3055 26.224 46.0867 26.3188C46.0138 26.3188 46.043 26.4281 46.1086 26.399Z" fill="black" stroke="black" stroke-width="0.25" stroke-linejoin="round"/>
<path d="M46.0796 26.289C45.2849 26.5369 44.4683 26.6536 43.6444 26.6682C43.3673 26.6754 43.0976 26.6682 42.8205 26.6827C42.733 26.69 42.5216 26.69 42.5216 26.8213C42.5216 26.9525 42.7403 27.0327 42.8351 27.0765C43.0538 27.1712 43.2725 27.2514 43.4913 27.3389C43.6517 27.4046 43.8485 27.4556 43.9798 27.5723C44.0089 27.6014 43.9725 27.565 43.9944 27.5723C43.9798 27.5723 43.9579 27.5868 43.9433 27.5868C43.9142 27.5941 43.885 27.5941 43.8558 27.5941C43.6663 27.6014 43.4767 27.5941 43.2944 27.6014C42.4195 27.6233 41.5956 27.9076 40.8738 28.4034C40.8154 28.4399 40.8738 28.5347 40.9321 28.4982C41.5737 28.0608 42.3101 27.7691 43.0976 27.7181C43.3017 27.7035 43.5059 27.7035 43.71 27.7035C43.8121 27.7035 43.9579 27.7181 44.0527 27.667C44.2131 27.5795 44.0162 27.4483 43.936 27.4046C43.5496 27.2004 43.1048 27.1202 42.733 26.8942C42.7038 26.8796 42.682 26.865 42.6601 26.8431C42.6528 26.8359 42.6455 26.8286 42.6382 26.8213C42.6309 26.814 42.6309 26.814 42.6309 26.814C42.6309 26.8286 42.6236 26.814 42.6455 26.814C42.6747 26.8067 42.7038 26.7994 42.7403 26.7921C42.9736 26.7629 43.2142 26.7775 43.4475 26.7775C44.3516 26.7629 45.2484 26.6609 46.1161 26.3911C46.1744 26.3765 46.1452 26.2744 46.0796 26.289Z" fill="black" stroke="black" stroke-width="0.25" stroke-linejoin="round"/>
<path d="M22.8163 33.9888C23.2246 33.894 23.6767 33.7409 23.9392 33.3982C24.0923 33.1941 24.1433 32.9389 24.1215 32.691C24.085 32.341 23.9246 32.0056 23.7423 31.7067C23.4798 31.2911 23.1444 30.9192 22.7872 30.5838C22.2695 30.0953 21.6935 29.6652 21.0883 29.286C21.03 29.2496 20.9717 29.3444 21.03 29.3808C21.956 29.9714 22.8674 30.6713 23.509 31.5681C23.8225 32.0129 24.2235 32.7129 23.9027 33.2597C23.6767 33.6388 23.1882 33.7992 22.7872 33.894C22.7216 33.9013 22.7507 34.0034 22.8163 33.9888Z" fill="black" stroke="black" stroke-width="0.25" stroke-linejoin="round"/>
<path d="M25.8535 24.1313C25.8827 24.5032 25.8098 24.8823 25.6494 25.2104C25.4234 25.6698 25.015 25.976 24.5193 26.1072C24.2203 26.1874 23.9068 26.1947 23.6006 26.151C23.535 26.1437 23.4985 26.2458 23.5714 26.2531C24.111 26.3333 24.6942 26.2531 25.1536 25.9468C25.5473 25.6844 25.7952 25.2615 25.9046 24.8094C25.9556 24.5907 25.9775 24.3574 25.9556 24.1313C25.9556 24.0584 25.8462 24.0584 25.8535 24.1313Z" fill="black" stroke="black" stroke-width="0.25" stroke-linejoin="round"/>
<path d="M30.1276 34.0615C31.6004 33.8938 33.0513 33.5366 34.4367 32.997C36.2011 32.3116 37.8416 31.3273 39.2852 30.0952C39.6133 29.8181 39.9269 29.5264 40.2258 29.2275C40.357 29.0963 40.4956 28.9577 40.6268 28.8192C40.6851 28.7536 40.7435 28.6953 40.8018 28.6296C40.831 28.6005 40.8601 28.5713 40.8893 28.5349C40.9403 28.4838 41.0059 28.4546 41.0716 28.4255C41.1372 28.3963 41.0789 28.3015 41.0132 28.3307C40.9622 28.3526 40.8966 28.3744 40.8528 28.4109C40.8237 28.4328 40.8091 28.4619 40.7872 28.4838C40.7362 28.5421 40.6851 28.6005 40.6268 28.6588C40.5101 28.7828 40.4008 28.8994 40.2841 29.0161C40.0289 29.2713 39.7665 29.5264 39.4967 29.7671C38.8405 30.3503 38.1405 30.8826 37.4041 31.3565C35.8438 32.3554 34.1231 33.0991 32.3295 33.5438C31.6077 33.7261 30.8786 33.8574 30.1422 33.9376C30.062 33.9594 30.062 34.0688 30.1276 34.0615Z" fill="black" stroke="black" stroke-width="0.25" stroke-linejoin="round"/>
<path d="M2.74304 9.48293C2.71387 11.138 2.81595 12.7931 3.12947 14.419C3.43569 15.9793 3.90232 17.5104 4.47832 18.9905C4.84288 19.9311 5.25847 20.8643 5.71781 21.7612C6.16257 22.6288 6.69482 23.4527 7.25623 24.2401C8.13846 25.4723 9.13005 26.6243 10.2164 27.6815C11.2226 28.6658 12.3163 29.5699 13.4683 30.3792C14.5036 31.1084 15.59 31.7646 16.7274 32.3187C17.6534 32.7707 18.6158 33.1644 19.6147 33.4342C20.7521 33.7404 21.9405 33.8936 23.1071 34.0248C24.6893 34.1998 26.2787 34.2435 27.8682 34.1706C28.1671 34.156 28.4661 34.1415 28.765 34.1196C28.8379 34.1123 28.8379 34.0029 28.765 34.0102C27.2776 34.1196 25.7829 34.1196 24.2956 34.0175C22.9613 33.9227 21.627 33.755 20.3146 33.4853C19.3522 33.2884 18.4189 32.9603 17.5148 32.5593C16.4139 32.0781 15.3639 31.4948 14.3578 30.8386C13.1985 30.0876 12.1048 29.2491 11.0768 28.3304C9.96853 27.3389 8.94777 26.2525 8.0218 25.0786C7.25623 24.1016 6.549 23.0736 5.95842 21.9799C5.57928 21.2872 5.25118 20.5654 4.93766 19.8363C4.35437 18.4656 3.85858 17.0438 3.49402 15.6002C3.07114 13.9232 2.86699 12.2098 2.83782 10.4818C2.83053 10.1464 2.83053 9.80374 2.83782 9.46835C2.8524 9.41002 2.74304 9.41002 2.74304 9.48293Z" fill="black" stroke="black" stroke-width="0.25" stroke-linejoin="round"/>
<path d="M44.2146 22.8699C44.4989 23.1834 44.8416 23.4532 45.2135 23.6501C45.5562 23.8323 45.928 23.9563 46.2998 24.0584C46.3436 24.0729 46.3946 24.0802 46.4384 24.0948C46.4457 24.0948 46.4748 24.1167 46.4821 24.1094C46.4894 24.1094 46.4821 24.0511 46.4894 24.0511C46.4894 24.0511 46.4457 24.0584 46.4311 24.0584C46.38 24.0656 46.3363 24.0657 46.2853 24.0657C46.0374 24.0657 45.7895 24.0511 45.5416 24.0584C45.4322 24.0584 45.3228 24.0657 45.2135 24.0802C45.1551 24.0875 45.0749 24.1094 45.0458 24.1677C44.9874 24.2844 45.1551 24.3792 45.2353 24.4229C45.4176 24.525 45.6145 24.5979 45.8113 24.6708C46.2342 24.8166 46.6717 24.9187 47.1164 25.0062C47.2769 25.0354 47.4373 25.0645 47.5977 25.1083C47.6924 25.1302 47.8091 25.152 47.8893 25.2104C47.9039 25.2176 47.9112 25.2322 47.9258 25.2395C47.9331 25.2468 47.9331 25.2687 47.9331 25.2541C47.9331 25.2687 47.9331 25.2833 47.9258 25.2906C47.8966 25.3562 47.8383 25.4072 47.7799 25.451C47.481 25.6916 47.1092 25.852 46.7592 26.0124C46.6936 26.0415 46.7519 26.1363 46.8175 26.1072C47.1529 25.954 47.4956 25.7936 47.7945 25.5749C47.8893 25.502 48.0351 25.3999 48.0424 25.2687C48.0497 25.0937 47.7945 25.0354 47.6706 25.0062C47.306 24.9114 46.9342 24.8604 46.5696 24.7729C46.329 24.7146 46.0957 24.6489 45.8624 24.5687C45.6582 24.4958 45.4395 24.4229 45.2572 24.3063C45.2208 24.2844 45.1916 24.2625 45.1624 24.2333C45.1478 24.2188 45.1479 24.2188 45.1551 24.2188C45.1624 24.2042 45.2208 24.1969 45.2426 24.1896C45.3447 24.1677 45.4614 24.1677 45.5634 24.1677C45.8186 24.1677 46.0738 24.1823 46.3363 24.175C46.4019 24.175 46.4967 24.1823 46.555 24.1459C46.6134 24.1094 46.5988 24.0438 46.5477 24.0146C46.4457 23.9563 46.3071 23.9344 46.1905 23.9052C45.9717 23.8469 45.753 23.774 45.5416 23.6792C45.0676 23.4751 44.6448 23.1688 44.2948 22.7897C44.2438 22.7387 44.1708 22.8116 44.2146 22.8699Z" fill="black" stroke="black" stroke-width="0.25" stroke-linejoin="round"/>
<path d="M21.0361 29.373C21.4444 29.5479 21.8965 29.6427 22.3412 29.6209C22.7131 29.6063 23.0703 29.4969 23.413 29.3438C23.7411 29.198 24.0546 28.9938 24.2953 28.724C24.5796 28.3959 24.7181 27.9804 24.6525 27.5429C24.565 26.945 24.1348 26.4492 23.6245 26.1503C23.5661 26.1138 23.5078 26.2086 23.5661 26.2451C24.0109 26.5003 24.3827 26.9086 24.514 27.4117C24.6234 27.8345 24.5286 28.2647 24.2515 28.6001C24.0328 28.8699 23.7411 29.0667 23.4349 29.2126C23.1578 29.3511 22.8516 29.4532 22.5454 29.4896C22.0569 29.5552 21.5465 29.4677 21.0945 29.2709C21.0215 29.249 20.9705 29.3438 21.0361 29.373Z" fill="black" stroke="black" stroke-width="0.25" stroke-linejoin="round"/>
<path d="M15.8368 1.55737C17.3606 2.20628 18.8553 2.94998 20.2843 3.79574C21.7571 4.66339 23.1497 5.65498 24.4986 6.7049C26.0224 7.89335 27.5025 9.14012 29.0045 10.365C30.47 11.5608 31.9428 12.7565 33.4375 13.9231C35.2603 15.3522 37.0976 16.7739 39.0444 18.028C39.963 18.6186 40.9182 19.18 41.9608 19.5154C42.3618 19.6466 42.7701 19.7268 43.1784 19.807C43.769 19.9237 44.3669 20.0549 44.9429 20.2518C45.1178 20.3101 45.4387 20.3976 45.548 20.5726C45.6793 20.784 45.096 20.9153 44.9793 20.9517C44.5418 21.0684 44.0825 21.134 43.6305 21.1923C43.5867 21.1996 43.5503 21.2652 43.6013 21.2944C43.8929 21.4402 44.1919 21.5933 44.4325 21.8121C44.5783 21.9433 44.7533 22.1402 44.6877 22.3589C44.6293 22.5558 44.4179 22.687 44.2429 22.7745C43.6159 23.1099 42.8722 23.2484 42.1795 23.3797C40.5099 23.6932 38.8183 23.8244 37.1268 23.9702C35.6394 24.1015 34.1593 24.2036 32.6646 24.2546C30.7106 24.3202 28.7493 24.2983 26.8026 24.1452C24.6007 23.9775 22.406 23.6494 20.2625 23.0953C18.0314 22.5193 15.8513 21.6881 13.8536 20.5288C12.7745 19.9018 11.6881 19.2019 10.8278 18.2978C10.2007 17.6416 9.63931 16.7666 9.87992 15.8261C10.0112 15.3084 10.3538 14.8709 10.733 14.5064C11.185 14.0689 11.71 13.7117 12.2349 13.3617C13.2922 12.6617 14.3712 12.042 15.5451 11.5754C16.2596 11.291 17.0325 11.0796 17.696 10.6786C18.2939 10.314 18.622 9.72341 18.622 9.01618C18.6293 8.06833 18.1262 7.16424 17.5939 6.41325C17.0179 5.60394 16.2961 4.94774 15.4066 4.49569C15.1295 4.35716 14.8452 4.2405 14.5535 4.14572C14.4879 4.12384 14.4587 4.22592 14.5244 4.24779C15.3701 4.52485 16.1503 4.98419 16.7846 5.61123C17.4627 6.27472 18.0533 7.16424 18.3449 8.06104C18.6147 8.87765 18.5928 9.85465 17.871 10.4234C17.2731 10.8973 16.4711 11.0941 15.7711 11.3712C14.6337 11.816 13.5619 12.3701 12.5339 13.0336C12.0089 13.3763 11.484 13.7189 10.9955 14.12C10.5872 14.4553 10.2007 14.8418 9.95283 15.3084C8.88104 17.3353 11.4111 19.1144 12.8401 20.0476C14.7868 21.3163 16.945 22.2568 19.1761 22.9203C21.3343 23.5619 23.558 23.9629 25.7964 24.1817C27.8306 24.3858 29.8794 24.4442 31.9209 24.4004C33.5031 24.364 35.0853 24.2619 36.6675 24.1306C38.3007 23.9921 39.9485 23.8609 41.5671 23.6057C42.3472 23.4817 43.1565 23.3432 43.9002 23.0589C44.2429 22.9276 44.8918 22.6578 44.7825 22.1766C44.7387 21.9725 44.5637 21.8048 44.4106 21.6808C44.1773 21.4913 43.9075 21.3527 43.6377 21.2142C43.6305 21.2507 43.6159 21.2798 43.6086 21.3163C44.0533 21.2579 44.4981 21.1923 44.9356 21.083C45.1397 21.0319 45.5261 20.959 45.6355 20.7403C45.8105 20.3903 45.0012 20.1789 44.8043 20.1132C44.0242 19.8653 43.2149 19.756 42.4201 19.5518C41.4723 19.3112 40.6047 18.8665 39.7662 18.3707C37.958 17.2916 36.2737 16.0084 34.6041 14.7251C31.5564 12.3774 28.6181 9.8984 25.6287 7.49233C24.2944 6.41325 22.931 5.37062 21.4874 4.43736C19.9198 3.4239 18.2647 2.54896 16.5659 1.77611C16.3398 1.67403 16.1138 1.57196 15.8805 1.47717C15.8295 1.43342 15.7711 1.52821 15.8368 1.55737Z" fill="black" stroke="black" stroke-width="0.25" stroke-linejoin="round"/>
<path d="M3.29783 5.91081C3.5676 4.80986 3.98319 3.72348 4.63939 2.79022C5.13519 2.08298 5.7841 1.45595 6.55695 1.06952C7.39543 0.646633 8.36515 0.471646 9.29112 0.376862C10.2463 0.282077 11.216 0.325824 12.1638 0.478937C13.3741 0.675797 14.548 1.04035 15.6854 1.49969C15.8604 1.5726 16.0281 1.63822 16.1958 1.71113C16.1885 1.68926 16.1812 1.6601 16.1739 1.63822C15.6927 2.75376 14.898 3.72348 14.0887 4.61299C13.6949 5.04317 13.2721 5.45876 12.7909 5.79416C12.3971 6.07851 11.967 6.30453 11.5295 6.50139C11.1066 6.69096 10.6764 6.86595 10.2608 7.07739C9.75046 7.33258 9.26195 7.6461 8.8172 8.00336C8.21204 8.47728 7.65791 9.02411 7.14753 9.60011C6.69549 10.1032 6.27989 10.6427 5.84972 11.1604C5.25185 11.8895 4.52274 12.7645 3.4874 12.6915C3.29783 12.677 3.11555 12.6332 2.94056 12.5676C2.95515 12.5822 2.96973 12.6041 2.98431 12.6186C2.88224 11.576 2.83849 10.5334 2.86036 9.48346C2.86036 9.41054 2.751 9.41054 2.751 9.48346C2.72183 10.5261 2.76558 11.576 2.87494 12.6186C2.87494 12.6478 2.88953 12.6624 2.91869 12.6697C3.42178 12.8592 3.96861 12.8447 4.44982 12.6113C4.88729 12.3999 5.24455 12.0426 5.56536 11.6854C5.98825 11.2114 6.37468 10.7011 6.78298 10.2126C7.28607 9.6147 7.81102 9.03141 8.39431 8.51374C8.88282 8.08356 9.40049 7.68984 9.96919 7.36903C10.3921 7.12843 10.8441 6.93157 11.2889 6.742C11.7263 6.55243 12.1492 6.35557 12.5575 6.10038C13.0679 5.77957 13.5273 5.38585 13.9428 4.94839C14.7522 4.10991 15.5177 3.18394 16.0646 2.15589C16.1448 2.01007 16.2177 1.85696 16.2833 1.69655C16.2906 1.67468 16.2906 1.63093 16.2614 1.62364C15.073 1.11326 13.8408 0.690379 12.5721 0.442481C11.5951 0.252912 10.5889 0.180002 9.59735 0.252913C8.62034 0.318533 7.62146 0.493519 6.72465 0.887239C5.96637 1.22263 5.31747 1.77675 4.7998 2.41837C4.09256 3.30059 3.63322 4.35781 3.32699 5.44418C3.28325 5.59 3.24679 5.74312 3.21034 5.89623C3.17388 5.95456 3.28325 5.98372 3.29783 5.91081Z" fill="black" stroke="black" stroke-width="0.25" stroke-linejoin="round"/>
<path d="M3.21697 5.84461C2.49515 6.68309 1.77334 7.52157 1.04422 8.36004C1.02235 8.38921 1.02235 8.42566 1.05881 8.44754C1.78063 8.93604 2.52432 9.40996 3.29718 9.82556C3.49404 9.92763 3.69819 10.037 3.91692 10.088C4.17211 10.1391 4.44917 10.0953 4.68978 10.0005C5.09079 9.84014 5.43347 9.54849 5.76157 9.27143C6.0678 9.01624 6.42506 8.76106 6.65109 8.41837C6.8042 8.19235 6.83336 7.92258 6.70212 7.67468C6.54172 7.38304 6.22091 7.19347 5.95114 7.03306C5.11266 6.52998 4.22315 6.11438 3.2753 5.83003C3.20968 5.80816 3.18052 5.91752 3.24614 5.93211C4.03358 6.16542 4.78456 6.50081 5.49909 6.89453C5.82719 7.07681 6.19175 7.25909 6.46152 7.53615C6.65109 7.73301 6.73858 7.9882 6.61463 8.24339C6.46881 8.5569 6.148 8.78293 5.89281 9.00166C5.55013 9.28602 5.20745 9.59953 4.81373 9.81098C4.56583 9.94222 4.26689 10.0224 3.98983 9.97867C3.80026 9.94951 3.61799 9.86201 3.45029 9.77452C2.64098 9.35893 1.86812 8.85584 1.11714 8.34546C1.12443 8.37463 1.12443 8.40379 1.13172 8.43295C1.85354 7.59448 2.57536 6.756 3.30447 5.91752C3.34092 5.87378 3.26072 5.79357 3.21697 5.84461Z" fill="black" stroke="black" stroke-width="0.25" stroke-linejoin="round"/>
<path d="M6.72352 7.91539C6.0892 7.95913 5.46216 8.01017 4.82784 8.05392C3.82166 8.12683 2.8082 8.19974 1.80203 8.27265C1.56871 8.28723 1.3354 8.30911 1.10937 8.32369C1.03646 8.33098 1.03646 8.44035 1.10937 8.43305C1.7437 8.38931 2.37073 8.33827 3.00506 8.29452C4.01123 8.22161 5.0247 8.1487 6.03087 8.07579C6.26418 8.06121 6.4975 8.03934 6.72352 8.02475C6.79644 8.01746 6.79644 7.9081 6.72352 7.91539Z" fill="black" stroke="black" stroke-width="0.25" stroke-linejoin="round"/>
<path d="M8.67665 6.31912C8.98671 6.31912 9.23807 6.06777 9.23807 5.75771C9.23807 5.44764 8.98671 5.19629 8.67665 5.19629C8.36659 5.19629 8.11523 5.44764 8.11523 5.75771C8.11523 6.06777 8.36659 6.31912 8.67665 6.31912Z" fill="black" stroke="black" stroke-width="0.25" stroke-linejoin="round"/>
<path d="M44.7072 22.3739C43.8833 22.301 43.0594 22.2354 42.2355 22.1625C41.5939 22.1115 40.945 22.0531 40.3033 22.0021C39.042 21.9 37.7879 21.7907 36.5265 21.6886C35.0537 21.5646 33.5809 21.4407 32.1154 21.3167C30.8249 21.2074 29.5344 21.098 28.2511 20.9886C27.5585 20.9303 26.8585 20.872 26.1659 20.8137C25.7722 20.7772 25.3784 20.748 24.9847 20.7116C23.7379 20.6095 22.4912 20.5001 21.2517 20.3981C19.8153 20.2741 18.3863 20.1575 16.9499 20.0335C16.075 19.9606 15.2001 19.8877 14.3324 19.8148C14.2887 19.8148 14.2449 19.8075 14.2012 19.8075C14.1283 19.8002 14.1283 19.9096 14.2012 19.9168C14.8209 19.9679 15.4479 20.0189 16.0677 20.07C17.4384 20.1866 18.8091 20.3033 20.1799 20.4126C21.536 20.5293 22.8995 20.6387 24.2556 20.7553C24.8608 20.8064 25.4586 20.8574 26.0638 20.9084C26.5596 20.9522 27.0554 20.9886 27.5585 21.0324C28.7396 21.1345 29.9208 21.2292 31.102 21.3313C32.5675 21.4553 34.0257 21.5792 35.4912 21.7032C36.8401 21.8198 38.1816 21.9292 39.5305 22.0458C40.3617 22.1188 41.1856 22.1844 42.0167 22.2573C42.7459 22.3156 43.4677 22.3812 44.1968 22.4396C44.3718 22.4542 44.5468 22.4687 44.729 22.4833C44.7728 22.4833 44.7728 22.3739 44.7072 22.3739Z" fill="black" stroke="black" stroke-width="0.25" stroke-linejoin="round"/>
<path d="M44.6744 21.9802C43.588 21.8052 42.4944 21.6229 41.408 21.4625C41.0434 21.4115 40.6862 21.3604 40.3216 21.3094C39.6654 21.2146 39.0019 21.1198 38.3457 21.025C37.5073 20.9084 36.6688 20.7844 35.8303 20.6678C34.9408 20.5438 34.044 20.4126 33.1545 20.2886C32.316 20.172 31.4775 20.048 30.639 19.9314C29.9755 19.8366 29.312 19.7418 28.6486 19.647C28.284 19.596 27.9122 19.545 27.5476 19.4866C26.4685 19.3335 25.3894 19.1804 24.3031 19.0273C22.5022 18.7721 20.7085 18.5169 18.9076 18.2617C18.4702 18.1961 18.0327 18.1378 17.6025 18.0721C17.5369 18.0649 17.5005 18.1669 17.5734 18.1742C19.3743 18.4294 21.1679 18.6846 22.9688 18.9398C24.4562 19.1512 25.9363 19.3627 27.4237 19.5741C27.7007 19.6106 27.9851 19.6543 28.2621 19.6908C28.8673 19.7783 29.4652 19.8658 30.0703 19.946C30.8723 20.0626 31.6744 20.172 32.4764 20.2886C33.3732 20.4126 34.2627 20.5438 35.1595 20.6678C36.0199 20.7917 36.8875 20.9157 37.7479 21.0396C38.4551 21.1417 39.1696 21.2438 39.8769 21.3459C40.3216 21.4115 40.7737 21.4698 41.2184 21.5354C41.933 21.6375 42.6475 21.7542 43.362 21.8708C43.7922 21.9364 44.2224 22.0094 44.6525 22.075C44.7109 22.0968 44.74 21.9875 44.6744 21.9802Z" fill="black" stroke="black" stroke-width="0.25" stroke-linejoin="round"/>
<path d="M43.8514 21.222C43.0931 21.0616 42.3348 20.9012 41.5765 20.7408C41.1318 20.646 40.687 20.5513 40.2495 20.4565C39.7173 20.3471 39.1778 20.2304 38.6455 20.1211C37.7195 19.9242 36.8009 19.7347 35.8749 19.5378C34.8395 19.3191 33.7969 19.1003 32.7616 18.8816C31.8939 18.6993 31.019 18.517 30.1514 18.3275C29.7285 18.24 29.3056 18.1452 28.8754 18.0577C28.4671 17.9702 28.0588 17.8827 27.6505 17.8025C26.6516 17.5911 25.66 17.3796 24.6612 17.1682C23.932 17.0151 23.2029 16.862 22.4738 16.7088C22.4374 16.7015 22.4009 16.6943 22.3572 16.687C22.2915 16.6724 22.2624 16.7745 22.328 16.789C22.8603 16.8984 23.3925 17.0151 23.932 17.1244C24.9455 17.3359 25.959 17.5546 26.9724 17.7661C27.5849 17.8973 28.1901 18.0212 28.8025 18.1525C29.0869 18.2108 29.3712 18.2764 29.6629 18.3348C30.4503 18.5025 31.245 18.6701 32.0325 18.8378C33.0532 19.0566 34.0813 19.268 35.102 19.4868C36.0717 19.6909 37.0488 19.8951 38.0185 20.1065C38.6747 20.245 39.3309 20.3836 39.9871 20.5221C40.2933 20.5877 40.5922 20.6533 40.8985 20.7117C41.8098 20.9012 42.7139 21.0981 43.6253 21.2877C43.691 21.3022 43.7639 21.3168 43.8295 21.3314C43.8951 21.346 43.9243 21.2366 43.8514 21.222Z" fill="black" stroke="black" stroke-width="0.25" stroke-linejoin="round"/>
<path d="M45.3147 20.8648C44.9793 20.7554 44.6366 20.646 44.3012 20.5367C43.543 20.2888 42.7774 20.0482 42.0191 19.8003C41.2244 19.5451 40.4224 19.2826 39.6276 19.0274C39.1683 18.8816 38.7162 18.7358 38.2569 18.5826C38.0309 18.5097 37.7976 18.4368 37.5715 18.3639C36.8862 18.1452 36.2008 17.9264 35.5154 17.7004C34.6843 17.4306 33.8604 17.1682 33.0292 16.8984C32.4021 16.6942 31.7751 16.4974 31.1554 16.2932C30.8929 16.213 30.6377 16.1255 30.3752 16.0453C29.6388 15.812 28.9097 15.5714 28.1733 15.3381C28.115 15.3235 28.0639 15.3016 28.0056 15.2871C27.94 15.2652 27.9108 15.3746 27.9764 15.3891C28.5889 15.586 29.2013 15.7829 29.8138 15.9797C30.1638 16.0964 30.521 16.2057 30.871 16.3224C31.396 16.4901 31.9209 16.6578 32.4459 16.8255C33.2625 17.088 34.0718 17.3504 34.8884 17.6129C35.6394 17.8535 36.3904 18.0941 37.1414 18.3347C37.484 18.4441 37.834 18.5535 38.1767 18.6701C38.4975 18.7722 38.811 18.8743 39.1318 18.9764C39.8828 19.217 40.6338 19.4576 41.3848 19.6982C42.1868 19.9534 42.9888 20.2159 43.7981 20.471C44.2721 20.6242 44.7533 20.7773 45.2272 20.9304C45.2491 20.9377 45.271 20.945 45.2928 20.9523C45.3512 20.996 45.3803 20.8866 45.3147 20.8648Z" fill="black" stroke="black" stroke-width="0.25" stroke-linejoin="round"/>
<path d="M35.9942 15.754C35.5494 15.528 35.1047 15.3092 34.6599 15.0832C34.2954 14.9009 33.9308 14.7187 33.5662 14.5291C33.2236 14.3541 32.8809 14.1864 32.5382 14.0114C31.9841 13.7344 31.4372 13.4573 30.8831 13.1802C30.4529 12.9615 30.0301 12.7428 29.5999 12.5313C29.5926 12.5313 29.5853 12.524 29.578 12.5167C29.5124 12.4876 29.4614 12.5824 29.5197 12.6115C29.8769 12.7938 30.2415 12.9761 30.5988 13.1584C31.1748 13.45 31.7581 13.7416 32.334 14.0333C32.6476 14.1937 32.9684 14.3541 33.2819 14.5145C33.6464 14.6968 34.011 14.8791 34.3756 15.0686C34.8859 15.3238 35.389 15.5863 35.8994 15.8342C35.9067 15.8415 35.9213 15.8415 35.9286 15.8488C36.0015 15.8852 36.0598 15.7904 35.9942 15.754Z" fill="black" stroke="black" stroke-width="0.25" stroke-linejoin="round"/>
<path d="M29.7287 32.4651C29.2766 33.1796 28.8246 33.8941 28.3798 34.6086C27.6726 35.7315 26.9581 36.8616 26.2508 37.9844C26.2071 38.05 26.1852 38.0938 26.1196 38.1229C26.0686 38.1521 26.0102 38.174 25.9519 38.1959C25.8207 38.2469 25.6894 38.2906 25.5582 38.3271C25.303 38.3927 25.0405 38.4292 24.778 38.4219C24.2677 38.4073 23.7719 38.2615 23.2761 38.1594C22.9698 38.1011 22.6636 38.05 22.3574 38.0063C22.0876 37.9698 21.8178 37.9334 21.5408 37.9261C21.1252 37.9115 20.7096 37.9698 20.3232 38.1375C19.6378 38.4438 19.142 39.0562 18.7993 39.7051C18.7337 39.8364 18.6681 39.9676 18.6098 40.0988C18.5806 40.1645 18.6608 40.2082 18.7045 40.1572C19.0764 39.6687 19.5941 39.3041 20.1773 39.1072C20.5711 38.976 20.9939 38.9323 21.4095 39.0125C21.7303 39.0781 22.0001 39.2604 22.3063 39.3551C22.7146 39.4864 23.1667 39.4645 23.5823 39.3479C23.5604 39.3187 23.5385 39.2968 23.524 39.2677C23.2469 39.8072 23.2177 40.4415 23.524 40.9738C23.5531 41.0248 23.626 40.9956 23.626 40.9446C23.6479 40.6238 23.7354 40.252 24.0198 40.0551C24.1656 39.953 24.3697 39.9457 24.5447 39.9311C24.9603 39.902 25.3759 39.9093 25.7915 39.9093C25.9956 39.9093 26.2071 39.9093 26.4039 39.8509C26.7685 39.7416 27.0747 39.4864 27.3008 39.1874C27.2789 39.1947 27.257 39.202 27.2424 39.2093C27.7674 39.3114 28.2923 39.4208 28.8173 39.5228C29.1235 39.5812 29.4152 39.6541 29.7068 39.778C30.013 39.9093 30.3047 40.0843 30.5745 40.2884C30.6182 40.3249 30.6765 40.2592 30.6474 40.2155C30.0932 39.2677 29.1235 38.6333 28.0372 38.4948C28.0517 38.524 28.0663 38.5531 28.0809 38.575C28.8465 36.9053 29.612 35.243 30.3776 33.5733C30.5963 33.0994 30.8151 32.6255 31.0338 32.1515C31.0484 32.1224 31.0338 32.0859 31.0046 32.0713C30.5526 31.9328 30.0495 32.0713 29.736 32.4359C29.6922 32.4869 29.7651 32.5671 29.8162 32.5161C30.1005 32.1807 30.5599 32.0495 30.9755 32.1807C30.9682 32.1515 30.9536 32.1297 30.9463 32.1005C30.1807 33.7702 29.4152 35.4325 28.6496 37.1022C28.4309 37.5761 28.2121 38.05 27.9934 38.524C27.9715 38.5677 28.0007 38.6042 28.0372 38.6042C29.0871 38.7354 30.0203 39.3624 30.5526 40.2665C30.5745 40.2447 30.6036 40.2155 30.6255 40.1936C30.2245 39.8947 29.7797 39.6614 29.2985 39.5228C28.9048 39.4135 28.4965 39.3479 28.1028 39.2749C27.8257 39.2166 27.5487 39.1656 27.2716 39.1072C27.2424 39.1 27.2278 39.1145 27.2133 39.1291C27.0018 39.4135 26.7102 39.6468 26.3602 39.7416C26.1488 39.7999 25.9154 39.7926 25.6967 39.7926C25.2811 39.7926 24.8582 39.778 24.4426 39.8218C24.2749 39.8364 24.1 39.8582 23.9541 39.9603C23.6406 40.179 23.5385 40.5728 23.5167 40.9373C23.5531 40.93 23.5823 40.9154 23.6187 40.9082C23.3344 40.4124 23.3563 39.8145 23.6187 39.3114C23.6406 39.2677 23.6042 39.2166 23.5604 39.2312C23.1667 39.3406 22.7365 39.3624 22.3428 39.2385C22.022 39.1364 21.7376 38.9468 21.4022 38.8812C20.7533 38.7573 20.0826 38.9468 19.5138 39.2749C19.1639 39.4791 18.8649 39.7562 18.617 40.077C18.6462 40.0988 18.6827 40.1134 18.7118 40.1353C19.0326 39.3843 19.5211 38.6479 20.2721 38.2688C20.6148 38.0938 20.9939 38.0209 21.3731 38.0136C21.9564 38.0063 22.547 38.1084 23.1157 38.2177C23.6115 38.3125 24.1 38.4583 24.603 38.5021C25.1134 38.5458 25.6238 38.4438 26.0904 38.2323C26.1342 38.2104 26.1779 38.1959 26.2217 38.174C26.28 38.1375 26.3092 38.0646 26.3456 38.0063C26.4331 37.8678 26.5206 37.7292 26.6081 37.5907C26.7831 37.3063 26.9654 37.0293 27.1403 36.7449C27.4976 36.1835 27.8476 35.6221 28.2048 35.0534C28.7006 34.266 29.2037 33.4712 29.6995 32.6838C29.736 32.6255 29.7797 32.5598 29.8162 32.5015C29.8599 32.4578 29.7651 32.4067 29.7287 32.4651Z" fill="black" stroke="black" stroke-width="0.25" stroke-linejoin="round"/>
<path d="M20.9064 38.0718C20.9647 38.0937 21.0376 38.1229 21.0741 38.1739C21.0814 38.1812 21.0814 38.1885 21.0887 38.2031C21.0887 38.2031 21.0887 38.2249 21.0887 38.2104C21.0887 38.2177 21.0887 38.2249 21.0887 38.2249C21.0887 38.2395 21.0887 38.2249 21.0887 38.2322C21.0741 38.2833 21.0231 38.3416 20.9793 38.3853C20.8991 38.4655 20.8043 38.5385 20.7241 38.6114C20.6002 38.7207 20.4762 38.8301 20.3523 38.9468C20.3012 38.9978 20.3814 39.0707 20.4325 39.027C20.6221 38.8447 20.8189 38.6843 21.0158 38.5093C21.1033 38.4291 21.2272 38.3197 21.2053 38.1885C21.1835 38.0645 21.0522 38.0062 20.9502 37.9698C20.87 37.9406 20.8408 38.05 20.9064 38.0718Z" fill="black" stroke="black" stroke-width="0.25" stroke-linejoin="round"/>
<path d="M23.6011 39.3476C23.6594 39.282 23.725 39.2382 23.8052 39.2091C23.9292 39.1726 24.0677 39.1945 24.1698 39.2601C24.2135 39.2893 24.2573 39.3257 24.2791 39.3695C24.2864 39.3768 24.2864 39.3913 24.2864 39.4059C24.2937 39.4205 24.2864 39.3913 24.2864 39.4059C24.2864 39.4132 24.2864 39.4278 24.2864 39.4132C24.2791 39.4424 24.2791 39.4497 24.2646 39.4643C24.2427 39.5007 24.2208 39.5445 24.1989 39.5809C24.1187 39.7122 24.0312 39.8434 23.9437 39.9746C23.9073 40.033 24.0021 40.084 24.0385 40.033C24.126 39.9017 24.2135 39.7705 24.301 39.632C24.3375 39.5736 24.3885 39.5007 24.3958 39.4205C24.4031 39.3257 24.3302 39.2382 24.2573 39.1872C24.1406 39.0997 23.9802 39.0632 23.8417 39.0924C23.7177 39.1143 23.6084 39.1799 23.5281 39.2747C23.4771 39.3184 23.5573 39.3986 23.6011 39.3476Z" fill="black"/>
<path d="M24.2864 39.4059C24.2864 39.3913 24.2864 39.3768 24.2791 39.3695C24.2573 39.3257 24.2135 39.2893 24.1698 39.2601C24.0677 39.1945 23.9292 39.1726 23.8052 39.2091C23.725 39.2382 23.6594 39.282 23.6011 39.3476C23.5573 39.3986 23.4771 39.3184 23.5281 39.2747C23.6084 39.1799 23.7177 39.1143 23.8417 39.0924C23.9802 39.0632 24.1406 39.0997 24.2573 39.1872C24.3302 39.2382 24.4031 39.3257 24.3958 39.4205C24.3885 39.5007 24.3375 39.5736 24.301 39.632C24.2135 39.7705 24.126 39.9017 24.0385 40.033C24.0021 40.084 23.9073 40.033 23.9437 39.9746C24.0312 39.8434 24.1187 39.7122 24.1989 39.5809C24.2208 39.5445 24.2427 39.5007 24.2646 39.4643C24.2791 39.4497 24.2791 39.4424 24.2864 39.4132C24.2864 39.4278 24.2864 39.4132 24.2864 39.4059ZM24.2864 39.4059C24.2864 39.3913 24.2937 39.4205 24.2864 39.4059Z" stroke="black" stroke-width="0.25" stroke-linejoin="round"/>
<path d="M29.3624 39.5518C29.3697 39.5664 29.3551 39.5372 29.3624 39.5518C29.3624 39.5445 29.3551 39.5372 29.3551 39.5299C29.3551 39.5226 29.3478 39.5081 29.3478 39.5008C29.3478 39.4935 29.3478 39.4935 29.3478 39.4862C29.3478 39.5008 29.3478 39.4789 29.3478 39.4789C29.3478 39.4497 29.3478 39.4279 29.3551 39.406C29.3624 39.3841 29.3697 39.3622 29.3843 39.3404C29.3843 39.3404 29.3916 39.3258 29.3916 39.3331C29.3916 39.3258 29.3989 39.3258 29.3989 39.3185C29.4061 39.3112 29.4134 39.3039 29.428 39.2966C29.4207 39.3039 29.4353 39.2893 29.4353 39.2893C29.4426 39.2893 29.4426 39.282 29.4499 39.282C29.4572 39.282 29.4572 39.2747 29.4645 39.2747C29.4645 39.2747 29.4791 39.2674 29.4718 39.2674C29.4936 39.2602 29.5155 39.2529 29.5374 39.2456C29.5301 39.2456 29.5447 39.2456 29.5447 39.2456C29.552 39.2456 29.5593 39.2456 29.5593 39.2456C29.5738 39.2456 29.5884 39.2456 29.603 39.2456C29.6322 39.2456 29.6613 39.2164 29.6613 39.1872C29.6613 39.1581 29.6395 39.1362 29.603 39.1289C29.4791 39.1143 29.3551 39.1654 29.2895 39.2674C29.2239 39.3622 29.2239 39.4862 29.2749 39.5883C29.2895 39.6174 29.3259 39.6247 29.3478 39.6101C29.3697 39.6101 29.377 39.581 29.3624 39.5518Z" fill="black"/>
<path d="M29.3624 39.5518C29.3551 39.5372 29.3697 39.5664 29.3624 39.5518ZM29.3624 39.5518C29.3624 39.5445 29.3551 39.5372 29.3551 39.5299C29.3551 39.5226 29.3478 39.5081 29.3478 39.5008C29.3478 39.4935 29.3478 39.4935 29.3478 39.4862C29.3478 39.5008 29.3478 39.4789 29.3478 39.4789C29.3478 39.4497 29.3478 39.4279 29.3551 39.406C29.3624 39.3841 29.3697 39.3622 29.3843 39.3404C29.3843 39.3404 29.3916 39.3258 29.3916 39.3331C29.3916 39.3258 29.3989 39.3258 29.3989 39.3185C29.4061 39.3112 29.4134 39.3039 29.428 39.2966C29.4207 39.3039 29.4353 39.2893 29.4353 39.2893C29.4426 39.2893 29.4426 39.282 29.4499 39.282C29.4572 39.282 29.4572 39.2747 29.4645 39.2747C29.4645 39.2747 29.4791 39.2674 29.4718 39.2674C29.4936 39.2602 29.5155 39.2529 29.5374 39.2456C29.5301 39.2456 29.5447 39.2456 29.5447 39.2456C29.552 39.2456 29.5593 39.2456 29.5593 39.2456C29.5738 39.2456 29.5884 39.2456 29.603 39.2456C29.6322 39.2456 29.6613 39.2164 29.6613 39.1872C29.6613 39.1581 29.6395 39.1362 29.603 39.1289C29.4791 39.1143 29.3551 39.1654 29.2895 39.2674C29.2239 39.3622 29.2239 39.4862 29.2749 39.5883C29.2895 39.6174 29.3259 39.6247 29.3478 39.6101C29.3697 39.6101 29.377 39.581 29.3624 39.5518Z" stroke="black" stroke-width="0.25" stroke-linejoin="round"/>
</svg>
